<?xml version="1.0" encoding="UTF-8" standalone="no"?>
<!DOCTYPE svg PUBLIC "-//W3C//DTD SVG 1.1//EN"
 "http://www.w3.org/Graphics/SVG/1.1/DTD/svg11.dtd">
<!-- Generated by graphviz version 2.43.0 (0)
 -->
<!-- Title: appenderattachable.h Pages: 1 -->
<svg width="586pt" height="252pt"
 viewBox="0.00 0.00 585.50 252.00" xmlns="http://www.w3.org/2000/svg" xmlns:xlink="http://www.w3.org/1999/xlink">
<g id="graph0" class="graph" transform="scale(1 1) rotate(0) translate(4 248)">
<title>appenderattachable.h</title>
<polygon fill="white" stroke="transparent" points="-4,4 -4,-248 581.5,-248 581.5,4 -4,4"/>
<!-- Node1 -->
<g id="node1" class="node">
<title>Node1</title>
<g id="a_node1"><a xlink:title=" ">
<polygon fill="#bfbfbf" stroke="black" points="169.5,-224.5 169.5,-243.5 279.5,-243.5 279.5,-224.5 169.5,-224.5"/>
<text text-anchor="middle" x="224.5" y="-231.5" font-family="'Souce Sans Pro', Roboto, FreeSans, sans-serif" font-size="10.00">appenderattachable.h</text>
</a>
</g>
</g>
<!-- Node2 -->
<g id="node2" class="node">
<title>Node2</title>
<g id="a_node2"><a xlink:href="appenderattachableimpl_8h.html" target="_top" xlink:title=" ">
<polygon fill="white" stroke="black" points="79,-168.5 79,-187.5 208,-187.5 208,-168.5 79,-168.5"/>
<text text-anchor="middle" x="143.5" y="-175.5" font-family="'Souce Sans Pro', Roboto, FreeSans, sans-serif" font-size="10.00">appenderattachableimpl.h</text>
</a>
</g>
</g>
<!-- Node1&#45;&gt;Node2 -->
<g id="edge1" class="edge">
<title>Node1&#45;&gt;Node2</title>
<path fill="none" stroke="midnightblue" d="M202.93,-218.62C188.14,-208.76 168.99,-195.99 156.48,-187.65"/>
<polygon fill="midnightblue" stroke="midnightblue" points="201.22,-221.69 211.49,-224.32 205.11,-215.86 201.22,-221.69"/>
</g>
<!-- Node7 -->
<g id="node7" class="node">
<title>Node7</title>
<g id="a_node7"><a xlink:href="logger_8h.html" target="_top" xlink:title="This header defines the Logger class and the logging macros.">
<polygon fill="white" stroke="black" points="279.5,-168.5 279.5,-187.5 331.5,-187.5 331.5,-168.5 279.5,-168.5"/>
<text text-anchor="middle" x="305.5" y="-175.5" font-family="'Souce Sans Pro', Roboto, FreeSans, sans-serif" font-size="10.00">logger.h</text>
</a>
</g>
</g>
<!-- Node1&#45;&gt;Node7 -->
<g id="edge6" class="edge">
<title>Node1&#45;&gt;Node7</title>
<path fill="none" stroke="midnightblue" d="M246.07,-218.62C260.86,-208.76 280.01,-195.99 292.52,-187.65"/>
<polygon fill="midnightblue" stroke="midnightblue" points="243.89,-215.86 237.51,-224.32 247.78,-221.69 243.89,-215.86"/>
</g>
<!-- Node3 -->
<g id="node3" class="node">
<title>Node3</title>
<g id="a_node3"><a xlink:href="asyncappender_8h.html" target="_top" xlink:title=" ">
<polygon fill="white" stroke="black" points="0,-56.5 0,-75.5 91,-75.5 91,-56.5 0,-56.5"/>
<text text-anchor="middle" x="45.5" y="-63.5" font-family="'Souce Sans Pro', Roboto, FreeSans, sans-serif" font-size="10.00">asyncappender.h</text>
</a>
</g>
</g>
<!-- Node2&#45;&gt;Node3 -->
<g id="edge2" class="edge">
<title>Node2&#45;&gt;Node3</title>
<path fill="none" stroke="midnightblue" d="M127.4,-161.16C118.92,-152.67 108.46,-141.94 99.5,-132 81.82,-112.39 62.3,-88.22 52.28,-75.6"/>
<polygon fill="midnightblue" stroke="midnightblue" points="124.96,-163.67 134.52,-168.24 129.89,-158.71 124.96,-163.67"/>
</g>
<!-- Node5 -->
<g id="node5" class="node">
<title>Node5</title>
<g id="a_node5"><a xlink:href="loggerimpl_8h.html" target="_top" xlink:title=" ">
<polygon fill="white" stroke="black" points="108,-112.5 108,-131.5 179,-131.5 179,-112.5 108,-112.5"/>
<text text-anchor="middle" x="143.5" y="-119.5" font-family="'Souce Sans Pro', Roboto, FreeSans, sans-serif" font-size="10.00">loggerimpl.h</text>
</a>
</g>
</g>
<!-- Node2&#45;&gt;Node5 -->
<g id="edge4" class="edge">
<title>Node2&#45;&gt;Node5</title>
<path fill="none" stroke="midnightblue" d="M143.5,-157.8C143.5,-148.91 143.5,-138.78 143.5,-131.75"/>
<polygon fill="midnightblue" stroke="midnightblue" points="140,-158.08 143.5,-168.08 147,-158.08 140,-158.08"/>
</g>
<!-- Node4 -->
<g id="node4" class="node">
<title>Node4</title>
<g id="a_node4"><a xlink:href="log4cplus_8h.html" target="_top" xlink:title=" ">
<polygon fill="white" stroke="black" points="274,-0.5 274,-19.5 341,-19.5 341,-0.5 274,-0.5"/>
<text text-anchor="middle" x="307.5" y="-7.5" font-family="'Souce Sans Pro', Roboto, FreeSans, sans-serif" font-size="10.00">log4cplus.h</text>
</a>
</g>
</g>
<!-- Node3&#45;&gt;Node4 -->
<g id="edge3" class="edge">
<title>Node3&#45;&gt;Node4</title>
<path fill="none" stroke="midnightblue" d="M97.1,-54.37C149.42,-43.58 228.87,-27.21 273.68,-17.97"/>
<polygon fill="midnightblue" stroke="midnightblue" points="96.1,-51 87.01,-56.44 97.52,-57.85 96.1,-51"/>
</g>
<!-- Node6 -->
<g id="node6" class="node">
<title>Node6</title>
<g id="a_node6"><a xlink:href="rootlogger_8h.html" target="_top" xlink:title=" ">
<polygon fill="white" stroke="black" points="109.5,-56.5 109.5,-75.5 179.5,-75.5 179.5,-56.5 109.5,-56.5"/>
<text text-anchor="middle" x="144.5" y="-63.5" font-family="'Souce Sans Pro', Roboto, FreeSans, sans-serif" font-size="10.00">rootlogger.h</text>
</a>
</g>
</g>
<!-- Node5&#45;&gt;Node6 -->
<g id="edge5" class="edge">
<title>Node5&#45;&gt;Node6</title>
<path fill="none" stroke="midnightblue" d="M143.86,-101.8C144.02,-92.91 144.21,-82.78 144.34,-75.75"/>
<polygon fill="midnightblue" stroke="midnightblue" points="140.35,-102.02 143.67,-112.08 147.35,-102.15 140.35,-102.02"/>
</g>
<!-- Node7&#45;&gt;Node4 -->
<g id="edge12" class="edge">
<title>Node7&#45;&gt;Node4</title>
<path fill="none" stroke="midnightblue" d="M283.97,-162.37C253.66,-139.87 204.53,-95.27 227.5,-56 238.2,-37.71 259.37,-26.27 277.25,-19.51"/>
<polygon fill="midnightblue" stroke="midnightblue" points="282.15,-165.37 292.31,-168.36 286.23,-159.68 282.15,-165.37"/>
</g>
<!-- Node8 -->
<g id="node8" class="node">
<title>Node8</title>
<g id="a_node8"><a xlink:href="configurator_8h.html" target="_top" xlink:title=" ">
<polygon fill="white" stroke="black" points="236,-56.5 236,-75.5 313,-75.5 313,-56.5 236,-56.5"/>
<text text-anchor="middle" x="274.5" y="-63.5" font-family="'Souce Sans Pro', Roboto, FreeSans, sans-serif" font-size="10.00">configurator.h</text>
</a>
</g>
</g>
<!-- Node7&#45;&gt;Node8 -->
<g id="edge7" class="edge">
<title>Node7&#45;&gt;Node8</title>
<path fill="none" stroke="midnightblue" d="M286.25,-161.75C277.87,-153.87 268.95,-143.5 264.5,-132 257.08,-112.84 265.04,-88.49 270.42,-75.72"/>
<polygon fill="midnightblue" stroke="midnightblue" points="284.13,-164.54 293.96,-168.49 288.74,-159.27 284.13,-164.54"/>
</g>
<!-- Node9 -->
<g id="node9" class="node">
<title>Node9</title>
<g id="a_node9"><a xlink:href="hierarchy_8h.html" target="_top" xlink:title=" ">
<polygon fill="white" stroke="black" points="273.5,-112.5 273.5,-131.5 337.5,-131.5 337.5,-112.5 273.5,-112.5"/>
<text text-anchor="middle" x="305.5" y="-119.5" font-family="'Souce Sans Pro', Roboto, FreeSans, sans-serif" font-size="10.00">hierarchy.h</text>
</a>
</g>
</g>
<!-- Node7&#45;&gt;Node9 -->
<g id="edge9" class="edge">
<title>Node7&#45;&gt;Node9</title>
<path fill="none" stroke="midnightblue" d="M305.5,-157.8C305.5,-148.91 305.5,-138.78 305.5,-131.75"/>
<polygon fill="midnightblue" stroke="midnightblue" points="302,-158.08 305.5,-168.08 309,-158.08 302,-158.08"/>
</g>
<!-- Node10 -->
<g id="node10" class="node">
<title>Node10</title>
<g id="a_node10"><a xlink:href="hierarchylocker_8h.html" target="_top" xlink:title=" ">
<polygon fill="white" stroke="black" points="356,-112.5 356,-131.5 447,-131.5 447,-112.5 356,-112.5"/>
<text text-anchor="middle" x="401.5" y="-119.5" font-family="'Souce Sans Pro', Roboto, FreeSans, sans-serif" font-size="10.00">hierarchylocker.h</text>
</a>
</g>
</g>
<!-- Node7&#45;&gt;Node10 -->
<g id="edge11" class="edge">
<title>Node7&#45;&gt;Node10</title>
<path fill="none" stroke="midnightblue" d="M330.07,-163.18C347.74,-153.24 371.01,-140.15 386.11,-131.65"/>
<polygon fill="midnightblue" stroke="midnightblue" points="327.92,-160.37 320.92,-168.32 331.36,-166.47 327.92,-160.37"/>
</g>
<!-- Node11 -->
<g id="node11" class="node">
<title>Node11</title>
<g id="a_node11"><a xlink:href="loggingmacros_8h.html" target="_top" xlink:title="This header defines the logging macros.">
<polygon fill="white" stroke="black" points="422.5,-56.5 422.5,-75.5 512.5,-75.5 512.5,-56.5 422.5,-56.5"/>
<text text-anchor="middle" x="467.5" y="-63.5" font-family="'Souce Sans Pro', Roboto, FreeSans, sans-serif" font-size="10.00">loggingmacros.h</text>
</a>
</g>
</g>
<!-- Node7&#45;&gt;Node11 -->
<g id="edge13" class="edge">
<title>Node7&#45;&gt;Node11</title>
<path fill="none" stroke="midnightblue" d="M341.96,-176.52C376.67,-173.99 427.75,-164.49 456.5,-132 470.46,-116.23 470.03,-89.55 468.69,-75.79"/>
<polygon fill="midnightblue" stroke="midnightblue" points="341.54,-173.04 331.76,-177.1 341.94,-180.03 341.54,-173.04"/>
</g>
<!-- Node12 -->
<g id="node12" class="node">
<title>Node12</title>
<g id="a_node12"><a xlink:href="tracelogger_8h.html" target="_top" xlink:title=" ">
<polygon fill="white" stroke="black" points="503.5,-112.5 503.5,-131.5 577.5,-131.5 577.5,-112.5 503.5,-112.5"/>
<text text-anchor="middle" x="540.5" y="-119.5" font-family="'Souce Sans Pro', Roboto, FreeSans, sans-serif" font-size="10.00">tracelogger.h</text>
</a>
</g>
</g>
<!-- Node7&#45;&gt;Node12 -->
<g id="edge15" class="edge">
<title>Node7&#45;&gt;Node12</title>
<path fill="none" stroke="midnightblue" d="M341.47,-168.74C385.23,-158.68 458.75,-141.79 503.13,-131.59"/>
<polygon fill="midnightblue" stroke="midnightblue" points="340.51,-165.36 331.55,-171.01 342.08,-172.19 340.51,-165.36"/>
</g>
<!-- Node8&#45;&gt;Node4 -->
<g id="edge8" class="edge">
<title>Node8&#45;&gt;Node4</title>
<path fill="none" stroke="midnightblue" d="M285.33,-47.27C290.97,-38.05 297.62,-27.17 302.15,-19.75"/>
<polygon fill="midnightblue" stroke="midnightblue" points="282.18,-45.73 279.95,-56.08 288.15,-49.38 282.18,-45.73"/>
</g>
<!-- Node9&#45;&gt;Node4 -->
<g id="edge10" class="edge">
<title>Node9&#45;&gt;Node4</title>
<path fill="none" stroke="midnightblue" d="M313.95,-103.15C317.33,-95.05 320.81,-85.24 322.5,-76 326.2,-55.72 317.5,-32.22 311.86,-19.78"/>
<polygon fill="midnightblue" stroke="midnightblue" points="310.74,-101.75 309.87,-112.31 317.13,-104.6 310.74,-101.75"/>
</g>
<!-- Node11&#45;&gt;Node4 -->
<g id="edge14" class="edge">
<title>Node11&#45;&gt;Node4</title>
<path fill="none" stroke="midnightblue" d="M432.45,-53.17C402.33,-43 359.6,-28.59 332.73,-19.52"/>
<polygon fill="midnightblue" stroke="midnightblue" points="431.55,-56.56 442.15,-56.44 433.79,-49.93 431.55,-56.56"/>
</g>
<!-- Node12&#45;&gt;Node4 -->
<g id="edge16" class="edge">
<title>Node12&#45;&gt;Node4</title>
<path fill="none" stroke="midnightblue" d="M539.99,-102C538.55,-87.37 534.16,-67.72 521.5,-56 495.66,-32.08 394.9,-19.2 341.37,-13.92"/>
<polygon fill="midnightblue" stroke="midnightblue" points="536.52,-102.64 540.61,-112.41 543.51,-102.22 536.52,-102.64"/>
</g>
<!-- Node12&#45;&gt;Node11 -->
<g id="edge17" class="edge">
<title>Node12&#45;&gt;Node11</title>
<path fill="none" stroke="midnightblue" d="M520.36,-106.1C507.22,-96.38 490.52,-84.03 479.44,-75.83"/>
<polygon fill="midnightblue" stroke="midnightblue" points="518.65,-109.19 528.77,-112.32 522.81,-103.56 518.65,-109.19"/>
</g>
</g>
</svg>
