<?xml version="1.0" encoding="UTF-8" standalone="no"?>
<!DOCTYPE svg PUBLIC "-//W3C//DTD SVG 1.1//EN"
 "http://www.w3.org/Graphics/SVG/1.1/DTD/svg11.dtd">
<!-- Generated by graphviz version 2.43.0 (0)
 -->
<!-- Title: callbackappender.h Pages: 1 -->
<svg width="1231pt" height="431pt"
 viewBox="0.00 0.00 1230.50 431.00" xmlns="http://www.w3.org/2000/svg" xmlns:xlink="http://www.w3.org/1999/xlink">
<g id="graph0" class="graph" transform="scale(1 1) rotate(0) translate(4 427)">
<title>callbackappender.h</title>
<polygon fill="white" stroke="transparent" points="-4,4 -4,-427 1226.5,-427 1226.5,4 -4,4"/>
<!-- Node1 -->
<g id="node1" class="node">
<title>Node1</title>
<g id="a_node1"><a xlink:title=" ">
<polygon fill="#bfbfbf" stroke="black" points="1092,-403.5 1092,-422.5 1193,-422.5 1193,-403.5 1092,-403.5"/>
<text text-anchor="middle" x="1142.5" y="-410.5" font-family="'Souce Sans Pro', Roboto, FreeSans, sans-serif" font-size="10.00">callbackappender.h</text>
</a>
</g>
</g>
<!-- Node2 -->
<g id="node2" class="node">
<title>Node2</title>
<g id="a_node2"><a xlink:href="config_8hxx.html" target="_top" xlink:title=" ">
<polygon fill="white" stroke="black" points="524,-67.5 524,-86.5 633,-86.5 633,-67.5 524,-67.5"/>
<text text-anchor="middle" x="578.5" y="-74.5" font-family="'Souce Sans Pro', Roboto, FreeSans, sans-serif" font-size="10.00">log4cplus/config.hxx</text>
</a>
</g>
</g>
<!-- Node1&#45;&gt;Node2 -->
<g id="edge1" class="edge">
<title>Node1&#45;&gt;Node2</title>
<path fill="none" stroke="midnightblue" d="M1159.68,-403.41C1173.45,-395.68 1192.27,-383.07 1203.5,-367 1220.74,-342.33 1222.5,-332.1 1222.5,-302 1222.5,-302 1222.5,-302 1222.5,-188 1222.5,-145.54 1191.38,-140.05 1152.5,-123 1062.81,-83.67 774.15,-78.18 643.64,-77.77"/>
<polygon fill="midnightblue" stroke="midnightblue" points="643.4,-74.27 633.39,-77.75 643.39,-81.27 643.4,-74.27"/>
</g>
<!-- Node5 -->
<g id="node5" class="node">
<title>Node5</title>
<g id="a_node5"><a xlink:href="appender_8h.html" target="_top" xlink:title=" ">
<polygon fill="white" stroke="black" points="801.5,-347.5 801.5,-366.5 913.5,-366.5 913.5,-347.5 801.5,-347.5"/>
<text text-anchor="middle" x="857.5" y="-354.5" font-family="'Souce Sans Pro', Roboto, FreeSans, sans-serif" font-size="10.00">log4cplus/appender.h</text>
</a>
</g>
</g>
<!-- Node1&#45;&gt;Node5 -->
<g id="edge4" class="edge">
<title>Node1&#45;&gt;Node5</title>
<path fill="none" stroke="midnightblue" d="M1097.34,-403.44C1047.21,-393.94 966.28,-378.61 912.49,-368.42"/>
<polygon fill="midnightblue" stroke="midnightblue" points="912.92,-364.94 902.45,-366.52 911.62,-371.82 912.92,-364.94"/>
</g>
<!-- Node29 -->
<g id="node29" class="node">
<title>Node29</title>
<g id="a_node29"><a xlink:href="clogger_8h.html" target="_top" xlink:title="Module: Log4CPLUS File: clogger.h Created: 01/2011 Author: Jens Rehsack.">
<polygon fill="white" stroke="black" points="1090.5,-347.5 1090.5,-366.5 1194.5,-366.5 1194.5,-347.5 1090.5,-347.5"/>
<text text-anchor="middle" x="1142.5" y="-354.5" font-family="'Souce Sans Pro', Roboto, FreeSans, sans-serif" font-size="10.00">log4cplus/clogger.h</text>
</a>
</g>
</g>
<!-- Node1&#45;&gt;Node29 -->
<g id="edge53" class="edge">
<title>Node1&#45;&gt;Node29</title>
<path fill="none" stroke="midnightblue" d="M1142.5,-403.08C1142.5,-396.01 1142.5,-385.86 1142.5,-376.99"/>
<polygon fill="midnightblue" stroke="midnightblue" points="1146,-376.75 1142.5,-366.75 1139,-376.75 1146,-376.75"/>
</g>
<!-- Node3 -->
<g id="node3" class="node">
<title>Node3</title>
<g id="a_node3"><a xlink:href="win32_8h.html" target="_top" xlink:title=" ">
<polygon fill="white" stroke="black" points="441.5,-6 441.5,-25 569.5,-25 569.5,-6 441.5,-6"/>
<text text-anchor="middle" x="505.5" y="-13" font-family="'Souce Sans Pro', Roboto, FreeSans, sans-serif" font-size="10.00">log4cplus/config/win32.h</text>
</a>
</g>
</g>
<!-- Node2&#45;&gt;Node3 -->
<g id="edge2" class="edge">
<title>Node2&#45;&gt;Node3</title>
<path fill="none" stroke="midnightblue" d="M568.04,-67.48C556.55,-58.11 537.87,-42.88 523.91,-31.51"/>
<polygon fill="midnightblue" stroke="midnightblue" points="525.9,-28.61 515.94,-25.01 521.48,-34.04 525.9,-28.61"/>
</g>
<!-- Node4 -->
<g id="node4" class="node">
<title>Node4</title>
<g id="a_node4"><a xlink:href="thread-config_8h.html" target="_top" xlink:title=" ">
<polygon fill="white" stroke="black" points="587.5,-0.5 587.5,-30.5 715.5,-30.5 715.5,-0.5 587.5,-0.5"/>
<text text-anchor="start" x="595.5" y="-18.5" font-family="'Souce Sans Pro', Roboto, FreeSans, sans-serif" font-size="10.00">log4cplus/helpers/thread</text>
<text text-anchor="middle" x="651.5" y="-7.5" font-family="'Souce Sans Pro', Roboto, FreeSans, sans-serif" font-size="10.00">&#45;config.h</text>
</a>
</g>
</g>
<!-- Node2&#45;&gt;Node4 -->
<g id="edge3" class="edge">
<title>Node2&#45;&gt;Node4</title>
<path fill="none" stroke="midnightblue" d="M588.96,-67.48C598.66,-59.57 613.49,-47.48 626.27,-37.07"/>
<polygon fill="midnightblue" stroke="midnightblue" points="628.76,-39.55 634.3,-30.52 624.33,-34.13 628.76,-39.55"/>
</g>
<!-- Node5&#45;&gt;Node2 -->
<g id="edge5" class="edge">
<title>Node5&#45;&gt;Node2</title>
<path fill="none" stroke="midnightblue" d="M908.17,-347.46C991.05,-332.04 1146.5,-296.4 1146.5,-246 1146.5,-246 1146.5,-246 1146.5,-188 1146.5,-147.77 1119.81,-140.32 1083.5,-123 1007.26,-86.65 761.54,-79.51 643.28,-78.21"/>
<polygon fill="midnightblue" stroke="midnightblue" points="643.3,-74.71 633.27,-78.11 643.23,-81.71 643.3,-74.71"/>
</g>
<!-- Node6 -->
<g id="node6" class="node">
<title>Node6</title>
<g id="a_node6"><a xlink:href="layout_8h.html" target="_top" xlink:title=" ">
<polygon fill="white" stroke="black" points="285.5,-291.5 285.5,-310.5 383.5,-310.5 383.5,-291.5 285.5,-291.5"/>
<text text-anchor="middle" x="334.5" y="-298.5" font-family="'Souce Sans Pro', Roboto, FreeSans, sans-serif" font-size="10.00">log4cplus/layout.h</text>
</a>
</g>
</g>
<!-- Node5&#45;&gt;Node6 -->
<g id="edge6" class="edge">
<title>Node5&#45;&gt;Node6</title>
<path fill="none" stroke="midnightblue" d="M801.03,-350.17C701.44,-339.89 495.52,-318.63 393.89,-308.13"/>
<polygon fill="midnightblue" stroke="midnightblue" points="394.1,-304.64 383.8,-307.09 393.38,-311.6 394.1,-304.64"/>
</g>
<!-- Node7 -->
<g id="node7" class="node">
<title>Node7</title>
<g id="a_node7"><a xlink:href="loglevel_8h.html" target="_top" xlink:title="This header defines the LogLevel type.">
<polygon fill="white" stroke="black" points="322.5,-235.5 322.5,-254.5 426.5,-254.5 426.5,-235.5 322.5,-235.5"/>
<text text-anchor="middle" x="374.5" y="-242.5" font-family="'Souce Sans Pro', Roboto, FreeSans, sans-serif" font-size="10.00">log4cplus/loglevel.h</text>
</a>
</g>
</g>
<!-- Node5&#45;&gt;Node7 -->
<g id="edge29" class="edge">
<title>Node5&#45;&gt;Node7</title>
<path fill="none" stroke="midnightblue" d="M801.41,-352.91C735.02,-348.21 621.57,-336.9 527.5,-311 481,-298.2 430.01,-274.41 400.21,-259.44"/>
<polygon fill="midnightblue" stroke="midnightblue" points="401.45,-256.14 390.95,-254.73 398.28,-262.38 401.45,-256.14"/>
</g>
<!-- Node9 -->
<g id="node9" class="node">
<title>Node9</title>
<g id="a_node9"><a xlink:href="tstring_8h.html" target="_top" xlink:title=" ">
<polygon fill="white" stroke="black" points="388,-179.5 388,-198.5 487,-198.5 487,-179.5 388,-179.5"/>
<text text-anchor="middle" x="437.5" y="-186.5" font-family="'Souce Sans Pro', Roboto, FreeSans, sans-serif" font-size="10.00">log4cplus/tstring.h</text>
</a>
</g>
</g>
<!-- Node5&#45;&gt;Node9 -->
<g id="edge30" class="edge">
<title>Node5&#45;&gt;Node9</title>
<path fill="none" stroke="midnightblue" d="M801.44,-351.41C735.39,-345.14 630.45,-332.17 597.5,-311 563.07,-288.88 577.25,-260.82 545.5,-235 526.73,-219.73 502.04,-208.93 481,-201.74"/>
<polygon fill="midnightblue" stroke="midnightblue" points="481.92,-198.36 471.32,-198.6 479.75,-205.02 481.92,-198.36"/>
</g>
<!-- Node18 -->
<g id="node18" class="node">
<title>Node18</title>
<g id="a_node18"><a xlink:title=" ">
<polygon fill="white" stroke="#bfbfbf" points="482.5,-235.5 482.5,-254.5 536.5,-254.5 536.5,-235.5 482.5,-235.5"/>
<text text-anchor="middle" x="509.5" y="-242.5" font-family="'Souce Sans Pro', Roboto, FreeSans, sans-serif" font-size="10.00">memory</text>
</a>
</g>
</g>
<!-- Node5&#45;&gt;Node18 -->
<g id="edge49" class="edge">
<title>Node5&#45;&gt;Node18</title>
<path fill="none" stroke="midnightblue" d="M801.21,-353.33C724.16,-348.75 590.8,-337.22 550.5,-311 533.6,-300 522.36,-279.34 516,-264.25"/>
<polygon fill="midnightblue" stroke="midnightblue" points="519.24,-262.94 512.35,-254.89 512.72,-265.48 519.24,-262.94"/>
</g>
<!-- Node19 -->
<g id="node19" class="node">
<title>Node19</title>
<g id="a_node19"><a xlink:href="pointer_8h.html" target="_top" xlink:title=" ">
<polygon fill="white" stroke="black" points="866.5,-235.5 866.5,-254.5 1004.5,-254.5 1004.5,-235.5 866.5,-235.5"/>
<text text-anchor="middle" x="935.5" y="-242.5" font-family="'Souce Sans Pro', Roboto, FreeSans, sans-serif" font-size="10.00">log4cplus/helpers/pointer.h</text>
</a>
</g>
</g>
<!-- Node5&#45;&gt;Node19 -->
<g id="edge31" class="edge">
<title>Node5&#45;&gt;Node19</title>
<path fill="none" stroke="midnightblue" d="M863.62,-347.37C876.49,-329.22 906.57,-286.8 923.45,-262.99"/>
<polygon fill="midnightblue" stroke="midnightblue" points="926.48,-264.77 929.41,-254.59 920.77,-260.72 926.48,-264.77"/>
</g>
<!-- Node21 -->
<g id="node21" class="node">
<title>Node21</title>
<g id="a_node21"><a xlink:title=" ">
<polygon fill="white" stroke="#bfbfbf" points="828.5,-123.5 828.5,-142.5 872.5,-142.5 872.5,-123.5 828.5,-123.5"/>
<text text-anchor="middle" x="850.5" y="-130.5" font-family="'Souce Sans Pro', Roboto, FreeSans, sans-serif" font-size="10.00">mutex</text>
</a>
</g>
</g>
<!-- Node5&#45;&gt;Node21 -->
<g id="edge50" class="edge">
<title>Node5&#45;&gt;Node21</title>
<path fill="none" stroke="midnightblue" d="M898.12,-347.48C924.4,-340.62 958.46,-329.07 984.5,-311 1038.39,-273.61 1091.47,-230.22 1050.5,-179 1029.85,-153.18 933.84,-141.14 882.72,-136.47"/>
<polygon fill="midnightblue" stroke="midnightblue" points="882.81,-132.97 872.54,-135.59 882.2,-139.94 882.81,-132.97"/>
</g>
<!-- Node22 -->
<g id="node22" class="node">
<title>Node22</title>
<g id="a_node22"><a xlink:title=" ">
<polygon fill="white" stroke="#bfbfbf" points="978.5,-123.5 978.5,-142.5 1074.5,-142.5 1074.5,-123.5 978.5,-123.5"/>
<text text-anchor="middle" x="1026.5" y="-130.5" font-family="'Souce Sans Pro', Roboto, FreeSans, sans-serif" font-size="10.00">condition_variable</text>
</a>
</g>
</g>
<!-- Node5&#45;&gt;Node22 -->
<g id="edge52" class="edge">
<title>Node5&#45;&gt;Node22</title>
<path fill="none" stroke="midnightblue" d="M913.59,-349.56C967.63,-339.81 1044.83,-315.46 1070.5,-255 1083.7,-223.91 1083.25,-210.28 1070.5,-179 1065.7,-167.23 1056.17,-156.86 1047.21,-149.05"/>
<polygon fill="midnightblue" stroke="midnightblue" points="1049.25,-146.2 1039.28,-142.63 1044.85,-151.64 1049.25,-146.2"/>
</g>
<!-- Node25 -->
<g id="node25" class="node">
<title>Node25</title>
<g id="a_node25"><a xlink:title=" ">
<polygon fill="white" stroke="#bfbfbf" points="995,-179.5 995,-198.5 1042,-198.5 1042,-179.5 995,-179.5"/>
<text text-anchor="middle" x="1018.5" y="-186.5" font-family="'Souce Sans Pro', Roboto, FreeSans, sans-serif" font-size="10.00">atomic</text>
</a>
</g>
</g>
<!-- Node5&#45;&gt;Node25 -->
<g id="edge51" class="edge">
<title>Node5&#45;&gt;Node25</title>
<path fill="none" stroke="midnightblue" d="M883.64,-347.44C919.83,-334.07 984.06,-304.5 1013.5,-255 1021.73,-241.17 1022.36,-222.65 1021.29,-208.92"/>
<polygon fill="midnightblue" stroke="midnightblue" points="1024.74,-208.25 1020.13,-198.72 1017.78,-209.05 1024.74,-208.25"/>
</g>
<!-- Node26 -->
<g id="node26" class="node">
<title>Node26</title>
<g id="a_node26"><a xlink:href="filter_8h.html" target="_top" xlink:title="This header defines Filter and all of it&#39;s subclasses.">
<polygon fill="white" stroke="black" points="607,-291.5 607,-310.5 714,-310.5 714,-291.5 607,-291.5"/>
<text text-anchor="middle" x="660.5" y="-298.5" font-family="'Souce Sans Pro', Roboto, FreeSans, sans-serif" font-size="10.00">log4cplus/spi/filter.h</text>
</a>
</g>
</g>
<!-- Node5&#45;&gt;Node26 -->
<g id="edge40" class="edge">
<title>Node5&#45;&gt;Node26</title>
<path fill="none" stroke="midnightblue" d="M826.28,-347.44C792.57,-338.2 738.7,-323.44 701.57,-313.26"/>
<polygon fill="midnightblue" stroke="midnightblue" points="702.14,-309.78 691.57,-310.52 700.29,-316.54 702.14,-309.78"/>
</g>
<!-- Node28 -->
<g id="node28" class="node">
<title>Node28</title>
<g id="a_node28"><a xlink:href="lockfile_8h.html" target="_top" xlink:title=" ">
<polygon fill="white" stroke="black" points="708.5,-235.5 708.5,-254.5 848.5,-254.5 848.5,-235.5 708.5,-235.5"/>
<text text-anchor="middle" x="778.5" y="-242.5" font-family="'Souce Sans Pro', Roboto, FreeSans, sans-serif" font-size="10.00">log4cplus/helpers/lockfile.h</text>
</a>
</g>
</g>
<!-- Node5&#45;&gt;Node28 -->
<g id="edge45" class="edge">
<title>Node5&#45;&gt;Node28</title>
<path fill="none" stroke="midnightblue" d="M851.3,-347.37C838.26,-329.22 807.8,-286.8 790.7,-262.99"/>
<polygon fill="midnightblue" stroke="midnightblue" points="793.35,-260.67 784.67,-254.59 787.66,-264.76 793.35,-260.67"/>
</g>
<!-- Node6&#45;&gt;Node2 -->
<g id="edge7" class="edge">
<title>Node6&#45;&gt;Node2</title>
<path fill="none" stroke="midnightblue" d="M359.76,-291.42C380.94,-283.62 411.49,-270.9 435.5,-255 499.95,-212.31 549.42,-131.46 569.16,-95.74"/>
<polygon fill="midnightblue" stroke="midnightblue" points="572.45,-97.02 574.12,-86.56 566.29,-93.69 572.45,-97.02"/>
</g>
<!-- Node6&#45;&gt;Node7 -->
<g id="edge8" class="edge">
<title>Node6&#45;&gt;Node7</title>
<path fill="none" stroke="midnightblue" d="M341.11,-291.08C346.76,-283.46 355.04,-272.26 361.95,-262.94"/>
<polygon fill="midnightblue" stroke="midnightblue" points="364.88,-264.87 368.02,-254.75 359.25,-260.7 364.88,-264.87"/>
</g>
<!-- Node8 -->
<g id="node8" class="node">
<title>Node8</title>
<g id="a_node8"><a xlink:title=" ">
<polygon fill="white" stroke="#bfbfbf" points="287.5,-179.5 287.5,-198.5 331.5,-198.5 331.5,-179.5 287.5,-179.5"/>
<text text-anchor="middle" x="309.5" y="-186.5" font-family="'Souce Sans Pro', Roboto, FreeSans, sans-serif" font-size="10.00">vector</text>
</a>
</g>
</g>
<!-- Node6&#45;&gt;Node8 -->
<g id="edge27" class="edge">
<title>Node6&#45;&gt;Node8</title>
<path fill="none" stroke="midnightblue" d="M317.87,-291.46C305.01,-283.84 288.16,-271.36 280.5,-255 272.85,-238.66 283.36,-219.81 293.8,-206.64"/>
<polygon fill="midnightblue" stroke="midnightblue" points="296.61,-208.74 300.47,-198.88 291.3,-204.18 296.61,-208.74"/>
</g>
<!-- Node6&#45;&gt;Node9 -->
<g id="edge21" class="edge">
<title>Node6&#45;&gt;Node9</title>
<path fill="none" stroke="midnightblue" d="M327.14,-291.28C316.95,-278.07 301.11,-252.67 313.5,-235 328.23,-213.98 353.82,-202.74 377.95,-196.75"/>
<polygon fill="midnightblue" stroke="midnightblue" points="378.8,-200.15 387.8,-194.56 377.28,-193.31 378.8,-200.15"/>
</g>
<!-- Node13 -->
<g id="node13" class="node">
<title>Node13</title>
<g id="a_node13"><a xlink:href="streams_8h.html" target="_top" xlink:title=" ">
<polygon fill="white" stroke="black" points="0,-179.5 0,-198.5 107,-198.5 107,-179.5 0,-179.5"/>
<text text-anchor="middle" x="53.5" y="-186.5" font-family="'Souce Sans Pro', Roboto, FreeSans, sans-serif" font-size="10.00">log4cplus/streams.h</text>
</a>
</g>
</g>
<!-- Node6&#45;&gt;Node13 -->
<g id="edge17" class="edge">
<title>Node6&#45;&gt;Node13</title>
<path fill="none" stroke="midnightblue" d="M285.49,-298.36C216.53,-294.99 95.89,-284.88 65.5,-255 53.49,-243.19 51.31,-223.56 51.63,-208.95"/>
<polygon fill="midnightblue" stroke="midnightblue" points="55.15,-208.77 52.29,-198.57 48.16,-208.32 55.15,-208.77"/>
</g>
<!-- Node15 -->
<g id="node15" class="node">
<title>Node15</title>
<g id="a_node15"><a xlink:href="timehelper_8h.html" target="_top" xlink:title=" ">
<polygon fill="white" stroke="black" points="74.5,-235.5 74.5,-254.5 228.5,-254.5 228.5,-235.5 74.5,-235.5"/>
<text text-anchor="middle" x="151.5" y="-242.5" font-family="'Souce Sans Pro', Roboto, FreeSans, sans-serif" font-size="10.00">log4cplus/helpers/timehelper.h</text>
</a>
</g>
</g>
<!-- Node6&#45;&gt;Node15 -->
<g id="edge22" class="edge">
<title>Node6&#45;&gt;Node15</title>
<path fill="none" stroke="midnightblue" d="M305.5,-291.44C274.32,-282.24 224.57,-267.56 190.09,-257.39"/>
<polygon fill="midnightblue" stroke="midnightblue" points="190.94,-253.99 180.36,-254.52 188.96,-260.7 190.94,-253.99"/>
</g>
<!-- Node6&#45;&gt;Node18 -->
<g id="edge28" class="edge">
<title>Node6&#45;&gt;Node18</title>
<path fill="none" stroke="midnightblue" d="M362.23,-291.44C392.1,-282.23 439.77,-267.52 472.75,-257.34"/>
<polygon fill="midnightblue" stroke="midnightblue" points="473.95,-260.63 482.48,-254.34 471.89,-253.94 473.95,-260.63"/>
</g>
<!-- Node7&#45;&gt;Node2 -->
<g id="edge9" class="edge">
<title>Node7&#45;&gt;Node2</title>
<path fill="none" stroke="midnightblue" d="M373.15,-235.35C370.19,-212.92 365.81,-152.63 398.5,-123 429.59,-94.82 475.64,-83.67 513.38,-79.51"/>
<polygon fill="midnightblue" stroke="midnightblue" points="514.16,-82.95 523.78,-78.51 513.49,-75.98 514.16,-82.95"/>
</g>
<!-- Node7&#45;&gt;Node8 -->
<g id="edge10" class="edge">
<title>Node7&#45;&gt;Node8</title>
<path fill="none" stroke="midnightblue" d="M364.06,-235.32C354.35,-227.26 339.68,-215.08 328,-205.37"/>
<polygon fill="midnightblue" stroke="midnightblue" points="330.06,-202.53 320.13,-198.83 325.59,-207.92 330.06,-202.53"/>
</g>
<!-- Node7&#45;&gt;Node9 -->
<g id="edge11" class="edge">
<title>Node7&#45;&gt;Node9</title>
<path fill="none" stroke="midnightblue" d="M384.62,-235.32C394.03,-227.26 408.24,-215.08 419.57,-205.37"/>
<polygon fill="midnightblue" stroke="midnightblue" points="421.88,-208 427.19,-198.83 417.32,-202.68 421.88,-208"/>
</g>
<!-- Node9&#45;&gt;Node2 -->
<g id="edge12" class="edge">
<title>Node9&#45;&gt;Node2</title>
<path fill="none" stroke="midnightblue" d="M444.75,-179.28C456,-166.08 478.75,-140.69 501.5,-123 517.19,-110.8 536.5,-99.52 551.86,-91.31"/>
<polygon fill="midnightblue" stroke="midnightblue" points="553.61,-94.34 560.85,-86.61 550.36,-88.14 553.61,-94.34"/>
</g>
<!-- Node10 -->
<g id="node10" class="node">
<title>Node10</title>
<g id="a_node10"><a xlink:title=" ">
<polygon fill="white" stroke="#bfbfbf" points="408,-123.5 408,-142.5 449,-142.5 449,-123.5 408,-123.5"/>
<text text-anchor="middle" x="428.5" y="-130.5" font-family="'Souce Sans Pro', Roboto, FreeSans, sans-serif" font-size="10.00">string</text>
</a>
</g>
</g>
<!-- Node9&#45;&gt;Node10 -->
<g id="edge13" class="edge">
<title>Node9&#45;&gt;Node10</title>
<path fill="none" stroke="midnightblue" d="M436.01,-179.08C434.82,-171.93 433.11,-161.64 431.62,-152.69"/>
<polygon fill="midnightblue" stroke="midnightblue" points="435.05,-152.04 429.96,-142.75 428.15,-153.19 435.05,-152.04"/>
</g>
<!-- Node11 -->
<g id="node11" class="node">
<title>Node11</title>
<g id="a_node11"><a xlink:href="tchar_8h.html" target="_top" xlink:title=" ">
<polygon fill="white" stroke="black" points="138,-123.5 138,-142.5 231,-142.5 231,-123.5 138,-123.5"/>
<text text-anchor="middle" x="184.5" y="-130.5" font-family="'Souce Sans Pro', Roboto, FreeSans, sans-serif" font-size="10.00">log4cplus/tchar.h</text>
</a>
</g>
</g>
<!-- Node9&#45;&gt;Node11 -->
<g id="edge14" class="edge">
<title>Node9&#45;&gt;Node11</title>
<path fill="none" stroke="midnightblue" d="M397.41,-179.44C353.18,-170 281.96,-154.8 234.22,-144.61"/>
<polygon fill="midnightblue" stroke="midnightblue" points="234.91,-141.18 224.4,-142.52 233.45,-148.03 234.91,-141.18"/>
</g>
<!-- Node11&#45;&gt;Node2 -->
<g id="edge15" class="edge">
<title>Node11&#45;&gt;Node2</title>
<path fill="none" stroke="midnightblue" d="M231.12,-125.06C235.97,-124.36 240.84,-123.66 245.5,-123 338.77,-109.82 446.85,-95.36 513.96,-86.49"/>
<polygon fill="midnightblue" stroke="midnightblue" points="514.51,-89.94 523.96,-85.16 513.59,-83 514.51,-89.94"/>
</g>
<!-- Node12 -->
<g id="node12" class="node">
<title>Node12</title>
<g id="a_node12"><a xlink:title=" ">
<polygon fill="white" stroke="#bfbfbf" points="159,-67.5 159,-86.5 210,-86.5 210,-67.5 159,-67.5"/>
<text text-anchor="middle" x="184.5" y="-74.5" font-family="'Souce Sans Pro', Roboto, FreeSans, sans-serif" font-size="10.00">cstddef</text>
</a>
</g>
</g>
<!-- Node11&#45;&gt;Node12 -->
<g id="edge16" class="edge">
<title>Node11&#45;&gt;Node12</title>
<path fill="none" stroke="midnightblue" d="M184.5,-123.08C184.5,-116.01 184.5,-105.86 184.5,-96.99"/>
<polygon fill="midnightblue" stroke="midnightblue" points="188,-96.75 184.5,-86.75 181,-96.75 188,-96.75"/>
</g>
<!-- Node13&#45;&gt;Node2 -->
<g id="edge18" class="edge">
<title>Node13&#45;&gt;Node2</title>
<path fill="none" stroke="midnightblue" d="M60.27,-179.39C72.25,-164.87 98.75,-135.82 128.5,-123 196.08,-93.88 405.97,-83.28 513.52,-79.69"/>
<polygon fill="midnightblue" stroke="midnightblue" points="513.72,-83.18 523.6,-79.36 513.5,-76.19 513.72,-83.18"/>
</g>
<!-- Node13&#45;&gt;Node11 -->
<g id="edge19" class="edge">
<title>Node13&#45;&gt;Node11</title>
<path fill="none" stroke="midnightblue" d="M74.26,-179.44C95.82,-170.56 129.76,-156.56 154.29,-146.45"/>
<polygon fill="midnightblue" stroke="midnightblue" points="155.93,-149.56 163.84,-142.52 153.26,-143.09 155.93,-149.56"/>
</g>
<!-- Node14 -->
<g id="node14" class="node">
<title>Node14</title>
<g id="a_node14"><a xlink:title=" ">
<polygon fill="white" stroke="#bfbfbf" points="30,-123.5 30,-142.5 77,-142.5 77,-123.5 30,-123.5"/>
<text text-anchor="middle" x="53.5" y="-130.5" font-family="'Souce Sans Pro', Roboto, FreeSans, sans-serif" font-size="10.00">iosfwd</text>
</a>
</g>
</g>
<!-- Node13&#45;&gt;Node14 -->
<g id="edge20" class="edge">
<title>Node13&#45;&gt;Node14</title>
<path fill="none" stroke="midnightblue" d="M53.5,-179.08C53.5,-172.01 53.5,-161.86 53.5,-152.99"/>
<polygon fill="midnightblue" stroke="midnightblue" points="57,-152.75 53.5,-142.75 50,-152.75 57,-152.75"/>
</g>
<!-- Node15&#45;&gt;Node2 -->
<g id="edge23" class="edge">
<title>Node15&#45;&gt;Node2</title>
<path fill="none" stroke="midnightblue" d="M168.43,-235.48C186.19,-226.51 214.89,-211.92 239.5,-199 302.53,-165.9 313.85,-148.01 380.5,-123 423.77,-106.77 474.64,-95.36 513.99,-88.09"/>
<polygon fill="midnightblue" stroke="midnightblue" points="514.77,-91.51 523.99,-86.29 513.52,-84.62 514.77,-91.51"/>
</g>
<!-- Node15&#45;&gt;Node9 -->
<g id="edge24" class="edge">
<title>Node15&#45;&gt;Node9</title>
<path fill="none" stroke="midnightblue" d="M196.82,-235.44C247.13,-225.94 328.34,-210.61 382.31,-200.42"/>
<polygon fill="midnightblue" stroke="midnightblue" points="383.22,-203.81 392.39,-198.52 381.92,-196.93 383.22,-203.81"/>
</g>
<!-- Node16 -->
<g id="node16" class="node">
<title>Node16</title>
<g id="a_node16"><a xlink:title=" ">
<polygon fill="white" stroke="#bfbfbf" points="125,-179.5 125,-198.5 166,-198.5 166,-179.5 125,-179.5"/>
<text text-anchor="middle" x="145.5" y="-186.5" font-family="'Souce Sans Pro', Roboto, FreeSans, sans-serif" font-size="10.00">ctime</text>
</a>
</g>
</g>
<!-- Node15&#45;&gt;Node16 -->
<g id="edge25" class="edge">
<title>Node15&#45;&gt;Node16</title>
<path fill="none" stroke="midnightblue" d="M150.51,-235.08C149.71,-227.93 148.57,-217.64 147.58,-208.69"/>
<polygon fill="midnightblue" stroke="midnightblue" points="151.06,-208.3 146.47,-198.75 144.1,-209.08 151.06,-208.3"/>
</g>
<!-- Node17 -->
<g id="node17" class="node">
<title>Node17</title>
<g id="a_node17"><a xlink:title=" ">
<polygon fill="white" stroke="#bfbfbf" points="184,-179.5 184,-198.5 231,-198.5 231,-179.5 184,-179.5"/>
<text text-anchor="middle" x="207.5" y="-186.5" font-family="'Souce Sans Pro', Roboto, FreeSans, sans-serif" font-size="10.00">chrono</text>
</a>
</g>
</g>
<!-- Node15&#45;&gt;Node17 -->
<g id="edge26" class="edge">
<title>Node15&#45;&gt;Node17</title>
<path fill="none" stroke="midnightblue" d="M160.5,-235.32C168.69,-227.42 181.01,-215.55 190.97,-205.94"/>
<polygon fill="midnightblue" stroke="midnightblue" points="193.57,-208.29 198.34,-198.83 188.71,-203.26 193.57,-208.29"/>
</g>
<!-- Node19&#45;&gt;Node2 -->
<g id="edge32" class="edge">
<title>Node19&#45;&gt;Node2</title>
<path fill="none" stroke="midnightblue" d="M870.47,-235.46C798.12,-225.55 689.13,-209.26 672.5,-199 636.79,-176.98 642.49,-155.94 616.5,-123 608.9,-113.37 600.07,-102.88 592.84,-94.45"/>
<polygon fill="midnightblue" stroke="midnightblue" points="595.43,-92.1 586.25,-86.82 590.14,-96.67 595.43,-92.1"/>
</g>
<!-- Node20 -->
<g id="node20" class="node">
<title>Node20</title>
<g id="a_node20"><a xlink:href="syncprims_8h.html" target="_top" xlink:title=" ">
<polygon fill="white" stroke="black" points="682,-179.5 682,-198.5 831,-198.5 831,-179.5 682,-179.5"/>
<text text-anchor="middle" x="756.5" y="-186.5" font-family="'Souce Sans Pro', Roboto, FreeSans, sans-serif" font-size="10.00">log4cplus/thread/syncprims.h</text>
</a>
</g>
</g>
<!-- Node19&#45;&gt;Node20 -->
<g id="edge33" class="edge">
<title>Node19&#45;&gt;Node20</title>
<path fill="none" stroke="midnightblue" d="M907.14,-235.44C876.76,-226.28 828.39,-211.69 794.68,-201.52"/>
<polygon fill="midnightblue" stroke="midnightblue" points="795.32,-198.05 784.73,-198.52 793.29,-204.76 795.32,-198.05"/>
</g>
<!-- Node23 -->
<g id="node23" class="node">
<title>Node23</title>
<g id="a_node23"><a xlink:title=" ">
<polygon fill="white" stroke="#bfbfbf" points="849,-179.5 849,-198.5 908,-198.5 908,-179.5 849,-179.5"/>
<text text-anchor="middle" x="878.5" y="-186.5" font-family="'Souce Sans Pro', Roboto, FreeSans, sans-serif" font-size="10.00">algorithm</text>
</a>
</g>
</g>
<!-- Node19&#45;&gt;Node23 -->
<g id="edge37" class="edge">
<title>Node19&#45;&gt;Node23</title>
<path fill="none" stroke="midnightblue" d="M926.34,-235.32C918,-227.42 905.47,-215.55 895.32,-205.94"/>
<polygon fill="midnightblue" stroke="midnightblue" points="897.49,-203.17 887.82,-198.83 892.68,-208.25 897.49,-203.17"/>
</g>
<!-- Node24 -->
<g id="node24" class="node">
<title>Node24</title>
<g id="a_node24"><a xlink:title=" ">
<polygon fill="white" stroke="#bfbfbf" points="926.5,-179.5 926.5,-198.5 976.5,-198.5 976.5,-179.5 926.5,-179.5"/>
<text text-anchor="middle" x="951.5" y="-186.5" font-family="'Souce Sans Pro', Roboto, FreeSans, sans-serif" font-size="10.00">cassert</text>
</a>
</g>
</g>
<!-- Node19&#45;&gt;Node24 -->
<g id="edge38" class="edge">
<title>Node19&#45;&gt;Node24</title>
<path fill="none" stroke="midnightblue" d="M938.14,-235.08C940.29,-227.85 943.38,-217.41 946.05,-208.4"/>
<polygon fill="midnightblue" stroke="midnightblue" points="949.42,-209.33 948.91,-198.75 942.71,-207.34 949.42,-209.33"/>
</g>
<!-- Node19&#45;&gt;Node25 -->
<g id="edge39" class="edge">
<title>Node19&#45;&gt;Node25</title>
<path fill="none" stroke="midnightblue" d="M948.84,-235.32C961.66,-226.98 981.28,-214.21 996.44,-204.35"/>
<polygon fill="midnightblue" stroke="midnightblue" points="998.72,-207.04 1005.2,-198.65 994.91,-201.17 998.72,-207.04"/>
</g>
<!-- Node20&#45;&gt;Node2 -->
<g id="edge34" class="edge">
<title>Node20&#45;&gt;Node2</title>
<path fill="none" stroke="midnightblue" d="M746.08,-179.37C730.02,-166.3 697.97,-141.07 668.5,-123 648.77,-110.91 625.36,-99.28 607.36,-90.87"/>
<polygon fill="midnightblue" stroke="midnightblue" points="608.53,-87.56 597.98,-86.55 605.6,-93.91 608.53,-87.56"/>
</g>
<!-- Node20&#45;&gt;Node21 -->
<g id="edge35" class="edge">
<title>Node20&#45;&gt;Node21</title>
<path fill="none" stroke="midnightblue" d="M771.6,-179.32C786.4,-170.82 809.19,-157.73 826.48,-147.8"/>
<polygon fill="midnightblue" stroke="midnightblue" points="828.51,-150.67 835.43,-142.65 825.02,-144.6 828.51,-150.67"/>
</g>
<!-- Node20&#45;&gt;Node22 -->
<g id="edge36" class="edge">
<title>Node20&#45;&gt;Node22</title>
<path fill="none" stroke="midnightblue" d="M799.28,-179.44C846.68,-169.96 923.13,-154.67 974.08,-144.48"/>
<polygon fill="midnightblue" stroke="midnightblue" points="974.8,-147.91 983.92,-142.52 973.43,-141.05 974.8,-147.91"/>
</g>
<!-- Node26&#45;&gt;Node2 -->
<g id="edge41" class="edge">
<title>Node26&#45;&gt;Node2</title>
<path fill="none" stroke="midnightblue" d="M650.68,-291.33C641.76,-282.91 628.89,-269.33 621.5,-255 594.01,-201.7 583.65,-130.24 580.13,-96.77"/>
<polygon fill="midnightblue" stroke="midnightblue" points="583.59,-96.23 579.15,-86.61 576.62,-96.9 583.59,-96.23"/>
</g>
<!-- Node26&#45;&gt;Node7 -->
<g id="edge44" class="edge">
<title>Node26&#45;&gt;Node7</title>
<path fill="none" stroke="midnightblue" d="M615.18,-291.44C564.87,-281.94 483.66,-266.61 429.69,-256.42"/>
<polygon fill="midnightblue" stroke="midnightblue" points="430.08,-252.93 419.61,-254.52 428.78,-259.81 430.08,-252.93"/>
</g>
<!-- Node26&#45;&gt;Node19 -->
<g id="edge43" class="edge">
<title>Node26&#45;&gt;Node19</title>
<path fill="none" stroke="midnightblue" d="M704.07,-291.44C752.35,-281.96 830.21,-266.67 882.11,-256.48"/>
<polygon fill="midnightblue" stroke="midnightblue" points="882.99,-259.88 892.13,-254.52 881.64,-253.01 882.99,-259.88"/>
</g>
<!-- Node27 -->
<g id="node27" class="node">
<title>Node27</title>
<g id="a_node27"><a xlink:title=" ">
<polygon fill="white" stroke="#bfbfbf" points="630.5,-235.5 630.5,-254.5 690.5,-254.5 690.5,-235.5 630.5,-235.5"/>
<text text-anchor="middle" x="660.5" y="-242.5" font-family="'Souce Sans Pro', Roboto, FreeSans, sans-serif" font-size="10.00">functional</text>
</a>
</g>
</g>
<!-- Node26&#45;&gt;Node27 -->
<g id="edge42" class="edge">
<title>Node26&#45;&gt;Node27</title>
<path fill="none" stroke="midnightblue" d="M660.5,-291.08C660.5,-284.01 660.5,-273.86 660.5,-264.99"/>
<polygon fill="midnightblue" stroke="midnightblue" points="664,-264.75 660.5,-254.75 657,-264.75 664,-264.75"/>
</g>
<!-- Node28&#45;&gt;Node2 -->
<g id="edge46" class="edge">
<title>Node28&#45;&gt;Node2</title>
<path fill="none" stroke="midnightblue" d="M720.12,-235.45C693.42,-229.08 662.84,-218.05 640.5,-199 623.63,-184.61 598.14,-126.19 585.76,-96.1"/>
<polygon fill="midnightblue" stroke="midnightblue" points="588.97,-94.7 581.96,-86.76 582.48,-97.34 588.97,-94.7"/>
</g>
<!-- Node28&#45;&gt;Node9 -->
<g id="edge47" class="edge">
<title>Node28&#45;&gt;Node9</title>
<path fill="none" stroke="midnightblue" d="M724.47,-235.44C662.52,-225.63 561.29,-209.6 497.1,-199.44"/>
<polygon fill="midnightblue" stroke="midnightblue" points="497.55,-195.97 487.12,-197.86 496.45,-202.88 497.55,-195.97"/>
</g>
<!-- Node28&#45;&gt;Node20 -->
<g id="edge48" class="edge">
<title>Node28&#45;&gt;Node20</title>
<path fill="none" stroke="midnightblue" d="M774.87,-235.08C771.89,-227.77 767.57,-217.18 763.88,-208.1"/>
<polygon fill="midnightblue" stroke="midnightblue" points="767.08,-206.69 760.07,-198.75 760.6,-209.33 767.08,-206.69"/>
</g>
<!-- Node29&#45;&gt;Node2 -->
<g id="edge54" class="edge">
<title>Node29&#45;&gt;Node2</title>
<path fill="none" stroke="midnightblue" d="M1148.34,-347.31C1159.88,-329.26 1184.5,-286.07 1184.5,-246 1184.5,-246 1184.5,-246 1184.5,-188 1184.5,-146.51 1155.27,-140.17 1117.5,-123 1034.57,-85.29 767.68,-78.89 643.35,-78"/>
<polygon fill="midnightblue" stroke="midnightblue" points="643.24,-74.5 633.22,-77.94 643.19,-81.5 643.24,-74.5"/>
</g>
</g>
</svg>
