<?xml version="1.0" encoding="UTF-8" standalone="no"?>
<!DOCTYPE svg PUBLIC "-//W3C//DTD SVG 1.1//EN"
 "http://www.w3.org/Graphics/SVG/1.1/DTD/svg11.dtd">
<!-- Generated by graphviz version 2.43.0 (0)
 -->
<!-- Title: log4cplus::helpers::IConnectorThreadClient Pages: 1 -->
<svg width="302pt" height="95pt"
 viewBox="0.00 0.00 301.50 95.00" xmlns="http://www.w3.org/2000/svg" xmlns:xlink="http://www.w3.org/1999/xlink">
<g id="graph0" class="graph" transform="scale(1 1) rotate(0) translate(4 91)">
<title>log4cplus::helpers::IConnectorThreadClient</title>
<polygon fill="white" stroke="transparent" points="-4,4 -4,-91 297.5,-91 297.5,4 -4,4"/>
<!-- Node1 -->
<g id="node1" class="node">
<title>Node1</title>
<g id="a_node1"><a xlink:title="Interface implemented by users of ConnectorThread.">
<polygon fill="#bfbfbf" stroke="black" points="83.5,-56.5 83.5,-86.5 209.5,-86.5 209.5,-56.5 83.5,-56.5"/>
<text text-anchor="start" x="91.5" y="-74.5" font-family="'Souce Sans Pro', Roboto, FreeSans, sans-serif" font-size="10.00">log4cplus::helpers</text>
<text text-anchor="middle" x="146.5" y="-63.5" font-family="'Souce Sans Pro', Roboto, FreeSans, sans-serif" font-size="10.00">::IConnectorThreadClient</text>
</a>
</g>
</g>
<!-- Node2 -->
<g id="node2" class="node">
<title>Node2</title>
<g id="a_node2"><a xlink:href="classlog4cplus_1_1SocketAppender.html" target="_top" xlink:title="Sends spi::InternalLoggingEvent objects to a remote a log server.">
<polygon fill="white" stroke="black" points="0,-0.5 0,-19.5 137,-19.5 137,-0.5 0,-0.5"/>
<text text-anchor="middle" x="68.5" y="-7.5" font-family="'Souce Sans Pro', Roboto, FreeSans, sans-serif" font-size="10.00">log4cplus::SocketAppender</text>
</a>
</g>
</g>
<!-- Node1&#45;&gt;Node2 -->
<g id="edge1" class="edge">
<title>Node1&#45;&gt;Node2</title>
<path fill="none" stroke="darkgreen" d="M119.87,-50.19C106.22,-39.77 90.3,-27.63 79.85,-19.66"/>
<polygon fill="darkgreen" stroke="darkgreen" points="117.94,-53.12 128.02,-56.4 122.19,-47.55 117.94,-53.12"/>
</g>
<!-- Node3 -->
<g id="node3" class="node">
<title>Node3</title>
<g id="a_node3"><a xlink:href="classlog4cplus_1_1SysLogAppender.html" target="_top" xlink:title="Appends log events to a file.">
<polygon fill="white" stroke="black" points="155.5,-0.5 155.5,-19.5 293.5,-19.5 293.5,-0.5 155.5,-0.5"/>
<text text-anchor="middle" x="224.5" y="-7.5" font-family="'Souce Sans Pro', Roboto, FreeSans, sans-serif" font-size="10.00">log4cplus::SysLogAppender</text>
</a>
</g>
</g>
<!-- Node1&#45;&gt;Node3 -->
<g id="edge2" class="edge">
<title>Node1&#45;&gt;Node3</title>
<path fill="none" stroke="darkgreen" d="M173.13,-50.19C186.78,-39.77 202.7,-27.63 213.15,-19.66"/>
<polygon fill="darkgreen" stroke="darkgreen" points="170.81,-47.55 164.98,-56.4 175.06,-53.12 170.81,-47.55"/>
</g>
</g>
</svg>
