<?xml version="1.0" encoding="UTF-8" standalone="no"?>
<!DOCTYPE svg PUBLIC "-//W3C//DTD SVG 1.1//EN"
 "http://www.w3.org/Graphics/SVG/1.1/DTD/svg11.dtd">
<!-- Generated by graphviz version 2.43.0 (0)
 -->
<!-- Title: log4cplus::spi::LogLevelMatchFilter Pages: 1 -->
<svg width="252pt" height="252pt"
 viewBox="0.00 0.00 251.50 252.00" xmlns="http://www.w3.org/2000/svg" xmlns:xlink="http://www.w3.org/1999/xlink">
<g id="graph0" class="graph" transform="scale(1 1) rotate(0) translate(4 248)">
<title>log4cplus::spi::LogLevelMatchFilter</title>
<polygon fill="white" stroke="transparent" points="-4,4 -4,-248 247.5,-248 247.5,4 -4,4"/>
<!-- Node1 -->
<g id="node1" class="node">
<title>Node1</title>
<g id="a_node1"><a xlink:title="This is a very simple filter based on LogLevel matching.">
<polygon fill="#bfbfbf" stroke="black" points="53,-0.5 53,-30.5 172,-30.5 172,-0.5 53,-0.5"/>
<text text-anchor="start" x="61" y="-18.5" font-family="'Souce Sans Pro', Roboto, FreeSans, sans-serif" font-size="10.00">log4cplus::spi::LogLevel</text>
<text text-anchor="middle" x="112.5" y="-7.5" font-family="'Souce Sans Pro', Roboto, FreeSans, sans-serif" font-size="10.00">MatchFilter</text>
</a>
</g>
</g>
<!-- Node2 -->
<g id="node2" class="node">
<title>Node2</title>
<g id="a_node2"><a xlink:href="classlog4cplus_1_1spi_1_1Filter.html" target="_top" xlink:title="Users should extend this class to implement customized logging event filtering.">
<polygon fill="white" stroke="black" points="61.5,-68.5 61.5,-87.5 163.5,-87.5 163.5,-68.5 61.5,-68.5"/>
<text text-anchor="middle" x="112.5" y="-75.5" font-family="'Souce Sans Pro', Roboto, FreeSans, sans-serif" font-size="10.00">log4cplus::spi::Filter</text>
</a>
</g>
</g>
<!-- Node2&#45;&gt;Node1 -->
<g id="edge1" class="edge">
<title>Node2&#45;&gt;Node1</title>
<path fill="none" stroke="midnightblue" d="M112.5,-58.22C112.5,-49.36 112.5,-38.96 112.5,-30.76"/>
<polygon fill="midnightblue" stroke="midnightblue" points="109,-58.33 112.5,-68.33 116,-58.33 109,-58.33"/>
</g>
<!-- Node3 -->
<g id="node3" class="node">
<title>Node3</title>
<g id="a_node3"><a xlink:href="classlog4cplus_1_1helpers_1_1SharedObject.html" target="_top" xlink:title=" ">
<polygon fill="white" stroke="black" points="0,-135.5 0,-165.5 95,-165.5 95,-135.5 0,-135.5"/>
<text text-anchor="start" x="8" y="-153.5" font-family="'Souce Sans Pro', Roboto, FreeSans, sans-serif" font-size="10.00">log4cplus::helpers</text>
<text text-anchor="middle" x="47.5" y="-142.5" font-family="'Souce Sans Pro', Roboto, FreeSans, sans-serif" font-size="10.00">::SharedObject</text>
</a>
</g>
</g>
<!-- Node3&#45;&gt;Node2 -->
<g id="edge2" class="edge">
<title>Node3&#45;&gt;Node2</title>
<path fill="none" stroke="midnightblue" d="M67.54,-127.76C79.91,-114.34 95.12,-97.85 104.3,-87.89"/>
<polygon fill="midnightblue" stroke="midnightblue" points="64.86,-125.51 60.65,-135.23 70.01,-130.25 64.86,-125.51"/>
</g>
<!-- Node4 -->
<g id="node4" class="node">
<title>Node4</title>
<g id="a_node4"><a xlink:href="classlog4cplus_1_1thread_1_1Mutex.html" target="_top" xlink:title=" ">
<polygon fill="white" stroke="black" points="0,-213.5 0,-243.5 95,-243.5 95,-213.5 0,-213.5"/>
<text text-anchor="start" x="8" y="-231.5" font-family="'Souce Sans Pro', Roboto, FreeSans, sans-serif" font-size="10.00">log4cplus::thread::</text>
<text text-anchor="middle" x="47.5" y="-220.5" font-family="'Souce Sans Pro', Roboto, FreeSans, sans-serif" font-size="10.00">Mutex</text>
</a>
</g>
</g>
<!-- Node4&#45;&gt;Node3 -->
<g id="edge3" class="edge">
<title>Node4&#45;&gt;Node3</title>
<path fill="none" stroke="#9a32cd" stroke-dasharray="5,2" d="M47.5,-203.09C47.5,-190.76 47.5,-176.22 47.5,-165.73"/>
<polygon fill="#9a32cd" stroke="#9a32cd" points="44,-203.2 47.5,-213.2 51,-203.21 44,-203.2"/>
<text text-anchor="middle" x="81" y="-187" font-family="'Souce Sans Pro', Roboto, FreeSans, sans-serif" font-size="10.00"> access_mutex</text>
</g>
<!-- Node5 -->
<g id="node5" class="node">
<title>Node5</title>
<g id="a_node5"><a xlink:href="classlog4cplus_1_1helpers_1_1SharedObjectPtr.html" target="_top" xlink:title=" ">
<polygon fill="white" stroke="black" points="113.5,-135.5 113.5,-165.5 243.5,-165.5 243.5,-135.5 113.5,-135.5"/>
<text text-anchor="start" x="121.5" y="-153.5" font-family="'Souce Sans Pro', Roboto, FreeSans, sans-serif" font-size="10.00">log4cplus::helpers</text>
<text text-anchor="middle" x="178.5" y="-142.5" font-family="'Souce Sans Pro', Roboto, FreeSans, sans-serif" font-size="10.00">::SharedObjectPtr&lt; Filter &gt;</text>
</a>
</g>
</g>
<!-- Node5&#45;&gt;Node2 -->
<g id="edge4" class="edge">
<title>Node5&#45;&gt;Node2</title>
<path fill="none" stroke="#9a32cd" stroke-dasharray="5,2" d="M158.15,-127.76C145.59,-114.34 130.15,-97.85 120.83,-87.89"/>
<polygon fill="#9a32cd" stroke="#9a32cd" points="155.75,-130.33 165.14,-135.23 160.86,-125.54 155.75,-130.33"/>
<text text-anchor="middle" x="158.5" y="-109" font-family="'Souce Sans Pro', Roboto, FreeSans, sans-serif" font-size="10.00"> next</text>
</g>
<!-- Node6 -->
<g id="node6" class="node">
<title>Node6</title>
<g id="a_node6"><a xlink:href="classlog4cplus_1_1helpers_1_1SharedObjectPtr.html" target="_top" xlink:title=" ">
<polygon fill="white" stroke="black" points="121.5,-213.5 121.5,-243.5 235.5,-243.5 235.5,-213.5 121.5,-213.5"/>
<text text-anchor="start" x="129.5" y="-231.5" font-family="'Souce Sans Pro', Roboto, FreeSans, sans-serif" font-size="10.00">log4cplus::helpers</text>
<text text-anchor="middle" x="178.5" y="-220.5" font-family="'Souce Sans Pro', Roboto, FreeSans, sans-serif" font-size="10.00">::SharedObjectPtr&lt; T &gt;</text>
</a>
</g>
</g>
<!-- Node6&#45;&gt;Node5 -->
<g id="edge5" class="edge">
<title>Node6&#45;&gt;Node5</title>
<path fill="none" stroke="orange" stroke-dasharray="5,2" d="M178.5,-203.09C178.5,-190.76 178.5,-176.22 178.5,-165.73"/>
<polygon fill="orange" stroke="orange" points="175,-203.2 178.5,-213.2 182,-203.21 175,-203.2"/>
<text text-anchor="middle" x="198.5" y="-187" font-family="'Souce Sans Pro', Roboto, FreeSans, sans-serif" font-size="10.00"> &lt; Filter &gt;</text>
</g>
</g>
</svg>
