<?xml version="1.0" encoding="UTF-8" standalone="no"?>
<!DOCTYPE svg PUBLIC "-//W3C//DTD SVG 1.1//EN"
 "http://www.w3.org/Graphics/SVG/1.1/DTD/svg11.dtd">
<!-- Generated by graphviz version 2.43.0 (0)
 -->
<!-- Title: log4cplus::helpers::ConnectorThread Pages: 1 -->
<svg width="644pt" height="137pt"
 viewBox="0.00 0.00 644.00 137.00" xmlns="http://www.w3.org/2000/svg" xmlns:xlink="http://www.w3.org/1999/xlink">
<g id="graph0" class="graph" transform="scale(1 1) rotate(0) translate(4 133)">
<title>log4cplus::helpers::ConnectorThread</title>
<polygon fill="white" stroke="transparent" points="-4,4 -4,-133 640,-133 640,4 -4,4"/>
<!-- Node1 -->
<g id="node1" class="node">
<title>Node1</title>
<g id="a_node1"><a xlink:title="This class is used by SocketAppender and (remote) SysLogAppender to provide asynchronous re&#45;connectio...">
<polygon fill="#bfbfbf" stroke="black" points="538,-49.5 538,-79.5 636,-79.5 636,-49.5 538,-49.5"/>
<text text-anchor="start" x="546" y="-67.5" font-family="'Souce Sans Pro', Roboto, FreeSans, sans-serif" font-size="10.00">log4cplus::helpers</text>
<text text-anchor="middle" x="587" y="-56.5" font-family="'Souce Sans Pro', Roboto, FreeSans, sans-serif" font-size="10.00">::ConnectorThread</text>
</a>
</g>
</g>
<!-- Node2 -->
<g id="node2" class="node">
<title>Node2</title>
<g id="a_node2"><a xlink:href="classlog4cplus_1_1thread_1_1AbstractThread.html" target="_top" xlink:title="There are many cross&#45;platform C++ Threading libraries.">
<polygon fill="white" stroke="black" points="345.5,-98.5 345.5,-128.5 440.5,-128.5 440.5,-98.5 345.5,-98.5"/>
<text text-anchor="start" x="353.5" y="-116.5" font-family="'Souce Sans Pro', Roboto, FreeSans, sans-serif" font-size="10.00">log4cplus::thread::</text>
<text text-anchor="middle" x="393" y="-105.5" font-family="'Souce Sans Pro', Roboto, FreeSans, sans-serif" font-size="10.00">AbstractThread</text>
</a>
</g>
</g>
<!-- Node2&#45;&gt;Node1 -->
<g id="edge1" class="edge">
<title>Node2&#45;&gt;Node1</title>
<path fill="none" stroke="midnightblue" d="M450.9,-98.98C478.56,-91.92 511.45,-83.53 537.85,-76.79"/>
<polygon fill="midnightblue" stroke="midnightblue" points="449.79,-95.65 440.97,-101.51 451.52,-102.43 449.79,-95.65"/>
</g>
<!-- Node3 -->
<g id="node3" class="node">
<title>Node3</title>
<g id="a_node3"><a xlink:href="classlog4cplus_1_1helpers_1_1SharedObject.html" target="_top" xlink:title=" ">
<polygon fill="white" stroke="black" points="198,-98.5 198,-128.5 293,-128.5 293,-98.5 198,-98.5"/>
<text text-anchor="start" x="206" y="-116.5" font-family="'Souce Sans Pro', Roboto, FreeSans, sans-serif" font-size="10.00">log4cplus::helpers</text>
<text text-anchor="middle" x="245.5" y="-105.5" font-family="'Souce Sans Pro', Roboto, FreeSans, sans-serif" font-size="10.00">::SharedObject</text>
</a>
</g>
</g>
<!-- Node3&#45;&gt;Node2 -->
<g id="edge2" class="edge">
<title>Node3&#45;&gt;Node2</title>
<path fill="none" stroke="midnightblue" d="M303.68,-113.5C317.46,-113.5 332.02,-113.5 345.25,-113.5"/>
<polygon fill="midnightblue" stroke="midnightblue" points="303.34,-110 293.34,-113.5 303.34,-117 303.34,-110"/>
</g>
<!-- Node4 -->
<g id="node4" class="node">
<title>Node4</title>
<g id="a_node4"><a xlink:href="classlog4cplus_1_1thread_1_1Mutex.html" target="_top" xlink:title=" ">
<polygon fill="white" stroke="black" points="0,-98.5 0,-128.5 95,-128.5 95,-98.5 0,-98.5"/>
<text text-anchor="start" x="8" y="-116.5" font-family="'Souce Sans Pro', Roboto, FreeSans, sans-serif" font-size="10.00">log4cplus::thread::</text>
<text text-anchor="middle" x="47.5" y="-105.5" font-family="'Souce Sans Pro', Roboto, FreeSans, sans-serif" font-size="10.00">Mutex</text>
</a>
</g>
</g>
<!-- Node4&#45;&gt;Node3 -->
<g id="edge3" class="edge">
<title>Node4&#45;&gt;Node3</title>
<path fill="none" stroke="#9a32cd" stroke-dasharray="5,2" d="M105.56,-113.5C134.92,-113.5 170.25,-113.5 197.94,-113.5"/>
<polygon fill="#9a32cd" stroke="#9a32cd" points="105.45,-110 95.45,-113.5 105.45,-117 105.45,-110"/>
<text text-anchor="middle" x="146.5" y="-116.5" font-family="'Souce Sans Pro', Roboto, FreeSans, sans-serif" font-size="10.00"> access_mutex</text>
</g>
<!-- Node5 -->
<g id="node5" class="node">
<title>Node5</title>
<g id="a_node5"><a xlink:href="classlog4cplus_1_1helpers_1_1IConnectorThreadClient.html" target="_top" xlink:title="Interface implemented by users of ConnectorThread.">
<polygon fill="white" stroke="black" points="330,-49.5 330,-79.5 456,-79.5 456,-49.5 330,-49.5"/>
<text text-anchor="start" x="338" y="-67.5" font-family="'Souce Sans Pro', Roboto, FreeSans, sans-serif" font-size="10.00">log4cplus::helpers</text>
<text text-anchor="middle" x="393" y="-56.5" font-family="'Souce Sans Pro', Roboto, FreeSans, sans-serif" font-size="10.00">::IConnectorThreadClient</text>
</a>
</g>
</g>
<!-- Node5&#45;&gt;Node1 -->
<g id="edge4" class="edge">
<title>Node5&#45;&gt;Node1</title>
<path fill="none" stroke="#9a32cd" stroke-dasharray="5,2" d="M466.18,-64.5C490.12,-64.5 516.16,-64.5 537.83,-64.5"/>
<polygon fill="#9a32cd" stroke="#9a32cd" points="466.07,-61 456.07,-64.5 466.07,-68 466.07,-61"/>
<text text-anchor="middle" x="497" y="-67.5" font-family="'Souce Sans Pro', Roboto, FreeSans, sans-serif" font-size="10.00"> ctc</text>
</g>
<!-- Node6 -->
<g id="node6" class="node">
<title>Node6</title>
<g id="a_node6"><a xlink:href="classlog4cplus_1_1thread_1_1ManualResetEvent.html" target="_top" xlink:title=" ">
<polygon fill="white" stroke="black" points="344.5,-0.5 344.5,-30.5 441.5,-30.5 441.5,-0.5 344.5,-0.5"/>
<text text-anchor="start" x="352.5" y="-18.5" font-family="'Souce Sans Pro', Roboto, FreeSans, sans-serif" font-size="10.00">log4cplus::thread::</text>
<text text-anchor="middle" x="393" y="-7.5" font-family="'Souce Sans Pro', Roboto, FreeSans, sans-serif" font-size="10.00">ManualResetEvent</text>
</a>
</g>
</g>
<!-- Node6&#45;&gt;Node1 -->
<g id="edge5" class="edge">
<title>Node6&#45;&gt;Node1</title>
<path fill="none" stroke="#9a32cd" stroke-dasharray="5,2" d="M451.84,-30.26C479.36,-37.28 511.87,-45.58 537.99,-52.25"/>
<polygon fill="#9a32cd" stroke="#9a32cd" points="452.51,-26.82 441.95,-27.74 450.78,-33.6 452.51,-26.82"/>
<text text-anchor="middle" x="497" y="-50.5" font-family="'Souce Sans Pro', Roboto, FreeSans, sans-serif" font-size="10.00"> trigger_ev</text>
</g>
</g>
</svg>
