<?xml version="1.0" encoding="UTF-8" standalone="no"?>
<!DOCTYPE svg PUBLIC "-//W3C//DTD SVG 1.1//EN"
 "http://www.w3.org/Graphics/SVG/1.1/DTD/svg11.dtd">
<!-- Generated by graphviz version 2.43.0 (0)
 -->
<!-- Title: log4cplus::spi::LoggerImpl Pages: 1 -->
<svg width="616pt" height="153pt"
 viewBox="0.00 0.00 616.00 153.00" xmlns="http://www.w3.org/2000/svg" xmlns:xlink="http://www.w3.org/1999/xlink">
<g id="graph0" class="graph" transform="scale(1 1) rotate(0) translate(4 149)">
<title>log4cplus::spi::LoggerImpl</title>
<polygon fill="white" stroke="transparent" points="-4,4 -4,-149 612,-149 612,4 -4,4"/>
<!-- Node1 -->
<g id="node1" class="node">
<title>Node1</title>
<g id="a_node1"><a xlink:title="This is the central class in the log4cplus package.">
<polygon fill="#bfbfbf" stroke="black" points="477,-67 477,-86 608,-86 608,-67 477,-67"/>
<text text-anchor="middle" x="542.5" y="-74" font-family="'Souce Sans Pro', Roboto, FreeSans, sans-serif" font-size="10.00">log4cplus::spi::LoggerImpl</text>
</a>
</g>
</g>
<!-- Node2 -->
<g id="node2" class="node">
<title>Node2</title>
<g id="a_node2"><a xlink:href="classlog4cplus_1_1helpers_1_1SharedObject.html" target="_top" xlink:title=" ">
<polygon fill="white" stroke="black" points="284.5,-114.5 284.5,-144.5 379.5,-144.5 379.5,-114.5 284.5,-114.5"/>
<text text-anchor="start" x="292.5" y="-132.5" font-family="'Souce Sans Pro', Roboto, FreeSans, sans-serif" font-size="10.00">log4cplus::helpers</text>
<text text-anchor="middle" x="332" y="-121.5" font-family="'Souce Sans Pro', Roboto, FreeSans, sans-serif" font-size="10.00">::SharedObject</text>
</a>
</g>
</g>
<!-- Node2&#45;&gt;Node1 -->
<g id="edge1" class="edge">
<title>Node2&#45;&gt;Node1</title>
<path fill="none" stroke="midnightblue" d="M389.49,-115.14C425.78,-105.92 471.93,-94.18 503.81,-86.08"/>
<polygon fill="midnightblue" stroke="midnightblue" points="388.36,-111.82 379.53,-117.67 390.09,-118.6 388.36,-111.82"/>
</g>
<!-- Node3 -->
<g id="node3" class="node">
<title>Node3</title>
<g id="a_node3"><a xlink:href="classlog4cplus_1_1thread_1_1Mutex.html" target="_top" xlink:title=" ">
<polygon fill="white" stroke="black" points="14,-107.5 14,-137.5 109,-137.5 109,-107.5 14,-107.5"/>
<text text-anchor="start" x="22" y="-125.5" font-family="'Souce Sans Pro', Roboto, FreeSans, sans-serif" font-size="10.00">log4cplus::thread::</text>
<text text-anchor="middle" x="61.5" y="-114.5" font-family="'Souce Sans Pro', Roboto, FreeSans, sans-serif" font-size="10.00">Mutex</text>
</a>
</g>
</g>
<!-- Node3&#45;&gt;Node2 -->
<g id="edge2" class="edge">
<title>Node3&#45;&gt;Node2</title>
<path fill="none" stroke="#9a32cd" stroke-dasharray="5,2" d="M119.41,-123.98C168.48,-125.26 238.48,-127.09 284.32,-128.28"/>
<polygon fill="#9a32cd" stroke="#9a32cd" points="119.36,-120.48 109.27,-123.72 119.17,-127.48 119.36,-120.48"/>
<text text-anchor="middle" x="188" y="-129.5" font-family="'Souce Sans Pro', Roboto, FreeSans, sans-serif" font-size="10.00"> access_mutex</text>
</g>
<!-- Node4 -->
<g id="node4" class="node">
<title>Node4</title>
<g id="a_node4"><a xlink:href="classlog4cplus_1_1helpers_1_1AppenderAttachableImpl.html" target="_top" xlink:title="This Interface is for attaching Appenders to objects.">
<polygon fill="white" stroke="black" points="267,-61.5 267,-91.5 397,-91.5 397,-61.5 267,-61.5"/>
<text text-anchor="start" x="275" y="-79.5" font-family="'Souce Sans Pro', Roboto, FreeSans, sans-serif" font-size="10.00">log4cplus::helpers</text>
<text text-anchor="middle" x="332" y="-68.5" font-family="'Souce Sans Pro', Roboto, FreeSans, sans-serif" font-size="10.00">::AppenderAttachableImpl</text>
</a>
</g>
</g>
<!-- Node3&#45;&gt;Node4 -->
<g id="edge5" class="edge">
<title>Node3&#45;&gt;Node4</title>
<path fill="none" stroke="#9a32cd" stroke-dasharray="5,2" d="M119.33,-112.76C162.54,-105.36 222.01,-95.17 266.92,-87.48"/>
<polygon fill="#9a32cd" stroke="#9a32cd" points="118.53,-109.35 109.27,-114.49 119.72,-116.25 118.53,-109.35"/>
<text text-anchor="middle" x="188" y="-111.5" font-family="'Souce Sans Pro', Roboto, FreeSans, sans-serif" font-size="10.00"> appender_list_mutex</text>
</g>
<!-- Node4&#45;&gt;Node1 -->
<g id="edge3" class="edge">
<title>Node4&#45;&gt;Node1</title>
<path fill="none" stroke="midnightblue" d="M407.5,-76.5C430.13,-76.5 454.8,-76.5 476.74,-76.5"/>
<polygon fill="midnightblue" stroke="midnightblue" points="407.26,-73 397.26,-76.5 407.26,-80 407.26,-73"/>
</g>
<!-- Node5 -->
<g id="node5" class="node">
<title>Node5</title>
<g id="a_node5"><a xlink:href="classlog4cplus_1_1spi_1_1AppenderAttachable.html" target="_top" xlink:title="This Interface is for attaching Appenders to objects.">
<polygon fill="white" stroke="black" points="0,-49.5 0,-79.5 123,-79.5 123,-49.5 0,-49.5"/>
<text text-anchor="start" x="8" y="-67.5" font-family="'Souce Sans Pro', Roboto, FreeSans, sans-serif" font-size="10.00">log4cplus::spi::Appender</text>
<text text-anchor="middle" x="61.5" y="-56.5" font-family="'Souce Sans Pro', Roboto, FreeSans, sans-serif" font-size="10.00">Attachable</text>
</a>
</g>
</g>
<!-- Node5&#45;&gt;Node4 -->
<g id="edge4" class="edge">
<title>Node5&#45;&gt;Node4</title>
<path fill="none" stroke="midnightblue" d="M133.12,-67.66C174.59,-69.51 226.6,-71.83 266.89,-73.63"/>
<polygon fill="midnightblue" stroke="midnightblue" points="133.24,-64.16 123.09,-67.21 132.93,-71.15 133.24,-64.16"/>
</g>
<!-- Node6 -->
<g id="node6" class="node">
<title>Node6</title>
<g id="a_node6"><a xlink:href="classlog4cplus_1_1helpers_1_1SharedObjectPtr.html" target="_top" xlink:title=" ">
<polygon fill="white" stroke="black" points="253,-3.5 253,-33.5 411,-33.5 411,-3.5 253,-3.5"/>
<text text-anchor="start" x="261" y="-21.5" font-family="'Souce Sans Pro', Roboto, FreeSans, sans-serif" font-size="10.00">log4cplus::helpers</text>
<text text-anchor="middle" x="332" y="-10.5" font-family="'Souce Sans Pro', Roboto, FreeSans, sans-serif" font-size="10.00">::SharedObjectPtr&lt; LoggerImpl &gt;</text>
</a>
</g>
</g>
<!-- Node6&#45;&gt;Node1 -->
<g id="edge6" class="edge">
<title>Node6&#45;&gt;Node1</title>
<path fill="none" stroke="#9a32cd" stroke-dasharray="5,2" d="M396.97,-36.3C433.24,-46.39 477.2,-58.61 507.04,-66.91"/>
<polygon fill="#9a32cd" stroke="#9a32cd" points="397.54,-32.82 386.97,-33.51 395.66,-39.56 397.54,-32.82"/>
<text text-anchor="middle" x="444" y="-55.5" font-family="'Souce Sans Pro', Roboto, FreeSans, sans-serif" font-size="10.00"> parent</text>
</g>
<!-- Node7 -->
<g id="node7" class="node">
<title>Node7</title>
<g id="a_node7"><a xlink:href="classlog4cplus_1_1helpers_1_1SharedObjectPtr.html" target="_top" xlink:title=" ">
<polygon fill="white" stroke="black" points="4.5,-0.5 4.5,-30.5 118.5,-30.5 118.5,-0.5 4.5,-0.5"/>
<text text-anchor="start" x="12.5" y="-18.5" font-family="'Souce Sans Pro', Roboto, FreeSans, sans-serif" font-size="10.00">log4cplus::helpers</text>
<text text-anchor="middle" x="61.5" y="-7.5" font-family="'Souce Sans Pro', Roboto, FreeSans, sans-serif" font-size="10.00">::SharedObjectPtr&lt; T &gt;</text>
</a>
</g>
</g>
<!-- Node7&#45;&gt;Node6 -->
<g id="edge7" class="edge">
<title>Node7&#45;&gt;Node6</title>
<path fill="none" stroke="orange" stroke-dasharray="5,2" d="M129.1,-16.24C166.61,-16.66 213.65,-17.19 252.89,-17.63"/>
<polygon fill="orange" stroke="orange" points="128.82,-12.74 118.79,-16.13 128.75,-19.74 128.82,-12.74"/>
<text text-anchor="middle" x="188" y="-19.5" font-family="'Souce Sans Pro', Roboto, FreeSans, sans-serif" font-size="10.00"> &lt; LoggerImpl &gt;</text>
</g>
</g>
</svg>
