<?xml version="1.0" encoding="UTF-8" standalone="no"?>
<!DOCTYPE svg PUBLIC "-//W3C//DTD SVG 1.1//EN"
 "http://www.w3.org/Graphics/SVG/1.1/DTD/svg11.dtd">
<!-- Generated by graphviz version 2.43.0 (0)
 -->
<!-- Title: log4cplus::Appender Pages: 1 -->
<svg width="816pt" height="572pt"
 viewBox="0.00 0.00 816.00 572.00" xmlns="http://www.w3.org/2000/svg" xmlns:xlink="http://www.w3.org/1999/xlink">
<g id="graph0" class="graph" transform="scale(1 1) rotate(0) translate(4 568)">
<title>log4cplus::Appender</title>
<polygon fill="white" stroke="transparent" points="-4,4 -4,-568 812,-568 812,4 -4,4"/>
<!-- Node1 -->
<g id="node1" class="node">
<title>Node1</title>
<g id="a_node1"><a xlink:title="Extend this class for implementing your own strategies for printing log statements.">
<polygon fill="#bfbfbf" stroke="black" points="131,-266.5 131,-285.5 237,-285.5 237,-266.5 131,-266.5"/>
<text text-anchor="middle" x="184" y="-273.5" font-family="'Souce Sans Pro', Roboto, FreeSans, sans-serif" font-size="10.00">log4cplus::Appender</text>
</a>
</g>
</g>
<!-- Node3 -->
<g id="node3" class="node">
<title>Node3</title>
<g id="a_node3"><a xlink:href="classlog4cplus_1_1AsyncAppender.html" target="_top" xlink:title="This Appender is a wrapper to which other appenders can be attached.">
<polygon fill="white" stroke="black" points="291.5,-544.5 291.5,-563.5 424.5,-563.5 424.5,-544.5 291.5,-544.5"/>
<text text-anchor="middle" x="358" y="-551.5" font-family="'Souce Sans Pro', Roboto, FreeSans, sans-serif" font-size="10.00">log4cplus::AsyncAppender</text>
</a>
</g>
</g>
<!-- Node1&#45;&gt;Node3 -->
<g id="edge2" class="edge">
<title>Node1&#45;&gt;Node3</title>
<path fill="none" stroke="midnightblue" d="M185.5,-295.6C187.85,-344.04 200.95,-470.15 273,-535 278.33,-539.8 284.62,-543.47 291.32,-546.26"/>
<polygon fill="midnightblue" stroke="midnightblue" points="188.99,-295.38 185.12,-285.52 182,-295.64 188.99,-295.38"/>
</g>
<!-- Node4 -->
<g id="node4" class="node">
<title>Node4</title>
<g id="a_node4"><a xlink:href="classlog4cplus_1_1CLFSAppender.html" target="_top" xlink:title=" ">
<polygon fill="white" stroke="black" points="293.5,-506.5 293.5,-525.5 422.5,-525.5 422.5,-506.5 293.5,-506.5"/>
<text text-anchor="middle" x="358" y="-513.5" font-family="'Souce Sans Pro', Roboto, FreeSans, sans-serif" font-size="10.00">log4cplus::CLFSAppender</text>
</a>
</g>
</g>
<!-- Node1&#45;&gt;Node4 -->
<g id="edge3" class="edge">
<title>Node1&#45;&gt;Node4</title>
<path fill="none" stroke="midnightblue" d="M186.84,-295.92C191.97,-339.47 210.46,-443.55 273,-497 278.91,-502.05 285.89,-505.83 293.25,-508.66"/>
<polygon fill="midnightblue" stroke="midnightblue" points="190.3,-295.35 185.76,-285.77 183.34,-296.08 190.3,-295.35"/>
</g>
<!-- Node5 -->
<g id="node5" class="node">
<title>Node5</title>
<g id="a_node5"><a xlink:href="classlog4cplus_1_1CallbackAppender.html" target="_top" xlink:title="Send log events to a C function callback.">
<polygon fill="white" stroke="black" points="286.5,-468.5 286.5,-487.5 429.5,-487.5 429.5,-468.5 286.5,-468.5"/>
<text text-anchor="middle" x="358" y="-475.5" font-family="'Souce Sans Pro', Roboto, FreeSans, sans-serif" font-size="10.00">log4cplus::CallbackAppender</text>
</a>
</g>
</g>
<!-- Node1&#45;&gt;Node5 -->
<g id="edge4" class="edge">
<title>Node1&#45;&gt;Node5</title>
<path fill="none" stroke="midnightblue" d="M188.69,-296.07C196.78,-334.1 219.77,-416.61 273,-459 277.8,-462.82 283.21,-465.9 288.92,-468.39"/>
<polygon fill="midnightblue" stroke="midnightblue" points="192.03,-294.92 186.64,-285.8 185.16,-296.29 192.03,-294.92"/>
</g>
<!-- Node6 -->
<g id="node6" class="node">
<title>Node6</title>
<g id="a_node6"><a xlink:href="classlog4cplus_1_1ConsoleAppender.html" target="_top" xlink:title="ConsoleAppender appends log events to std::cout or std::cerr using a layout specified by the user.">
<polygon fill="white" stroke="black" points="286.5,-430.5 286.5,-449.5 429.5,-449.5 429.5,-430.5 286.5,-430.5"/>
<text text-anchor="middle" x="358" y="-437.5" font-family="'Souce Sans Pro', Roboto, FreeSans, sans-serif" font-size="10.00">log4cplus::ConsoleAppender</text>
</a>
</g>
</g>
<!-- Node1&#45;&gt;Node6 -->
<g id="edge5" class="edge">
<title>Node1&#45;&gt;Node6</title>
<path fill="none" stroke="midnightblue" d="M191.24,-295.2C202.41,-326.43 228.89,-387.97 273,-420 278.94,-424.32 285.69,-427.71 292.71,-430.38"/>
<polygon fill="midnightblue" stroke="midnightblue" points="194.47,-293.84 187.92,-285.51 187.85,-296.11 194.47,-293.84"/>
</g>
<!-- Node7 -->
<g id="node7" class="node">
<title>Node7</title>
<g id="a_node7"><a xlink:href="classlog4cplus_1_1DeviceAppender.html" target="_top" xlink:title=" ">
<polygon fill="white" stroke="black" points="290.5,-381 290.5,-411 425.5,-411 425.5,-381 290.5,-381"/>
<text text-anchor="start" x="298.5" y="-399" font-family="'Souce Sans Pro', Roboto, FreeSans, sans-serif" font-size="10.00">log4cplus::DeviceAppender</text>
<text text-anchor="middle" x="358" y="-388" font-family="'Souce Sans Pro', Roboto, FreeSans, sans-serif" font-size="10.00">&lt; Device &gt;</text>
</a>
</g>
</g>
<!-- Node1&#45;&gt;Node7 -->
<g id="edge6" class="edge">
<title>Node1&#45;&gt;Node7</title>
<path fill="none" stroke="midnightblue" d="M196.97,-293.89C212.18,-315.28 240.43,-350.74 273,-371 279.2,-374.86 286.03,-378.15 293.03,-380.95"/>
<polygon fill="midnightblue" stroke="midnightblue" points="199.84,-291.89 191.27,-285.67 194.09,-295.88 199.84,-291.89"/>
</g>
<!-- Node8 -->
<g id="node8" class="node">
<title>Node8</title>
<g id="a_node8"><a xlink:href="classlog4cplus_1_1FileAppenderBase.html" target="_top" xlink:title="Base class for Appenders writing log events to a file.">
<polygon fill="white" stroke="black" points="286.5,-342.5 286.5,-361.5 429.5,-361.5 429.5,-342.5 286.5,-342.5"/>
<text text-anchor="middle" x="358" y="-349.5" font-family="'Souce Sans Pro', Roboto, FreeSans, sans-serif" font-size="10.00">log4cplus::FileAppenderBase</text>
</a>
</g>
</g>
<!-- Node1&#45;&gt;Node8 -->
<g id="edge7" class="edge">
<title>Node1&#45;&gt;Node8</title>
<path fill="none" stroke="midnightblue" d="M204.87,-291.81C221.99,-304.68 247.86,-322.41 273,-333 282.09,-336.83 292.08,-339.95 301.9,-342.47"/>
<polygon fill="midnightblue" stroke="midnightblue" points="206.82,-288.89 196.76,-285.58 202.56,-294.44 206.82,-288.89"/>
</g>
<!-- Node13 -->
<g id="node13" class="node">
<title>Node13</title>
<g id="a_node13"><a xlink:href="classlog4cplus_1_1Log4jUdpAppender.html" target="_top" xlink:title="Sends log events as Log4j XML to a remote a log server.">
<polygon fill="white" stroke="black" points="284,-304.5 284,-323.5 432,-323.5 432,-304.5 284,-304.5"/>
<text text-anchor="middle" x="358" y="-311.5" font-family="'Souce Sans Pro', Roboto, FreeSans, sans-serif" font-size="10.00">log4cplus::Log4jUdpAppender</text>
</a>
</g>
</g>
<!-- Node1&#45;&gt;Node13 -->
<g id="edge12" class="edge">
<title>Node1&#45;&gt;Node13</title>
<path fill="none" stroke="midnightblue" d="M238.2,-287.75C262.52,-293.13 290.95,-299.41 313.91,-304.48"/>
<polygon fill="midnightblue" stroke="midnightblue" points="238.92,-284.33 228.4,-285.59 237.41,-291.16 238.92,-284.33"/>
</g>
<!-- Node14 -->
<g id="node14" class="node">
<title>Node14</title>
<g id="a_node14"><a xlink:href="classlog4cplus_1_1MSTTSAppender.html" target="_top" xlink:title=" ">
<polygon fill="white" stroke="black" points="288.5,-266.5 288.5,-285.5 427.5,-285.5 427.5,-266.5 288.5,-266.5"/>
<text text-anchor="middle" x="358" y="-273.5" font-family="'Souce Sans Pro', Roboto, FreeSans, sans-serif" font-size="10.00">log4cplus::MSTTSAppender</text>
</a>
</g>
</g>
<!-- Node1&#45;&gt;Node14 -->
<g id="edge13" class="edge">
<title>Node1&#45;&gt;Node14</title>
<path fill="none" stroke="midnightblue" d="M247.1,-276C260.47,-276 274.67,-276 288.26,-276"/>
<polygon fill="midnightblue" stroke="midnightblue" points="247.07,-272.5 237.07,-276 247.07,-279.5 247.07,-272.5"/>
</g>
<!-- Node15 -->
<g id="node15" class="node">
<title>Node15</title>
<g id="a_node15"><a xlink:href="classlog4cplus_1_1NTEventLogAppender.html" target="_top" xlink:title="Appends log events to NT EventLog.">
<polygon fill="white" stroke="black" points="279,-228.5 279,-247.5 437,-247.5 437,-228.5 279,-228.5"/>
<text text-anchor="middle" x="358" y="-235.5" font-family="'Souce Sans Pro', Roboto, FreeSans, sans-serif" font-size="10.00">log4cplus::NTEventLogAppender</text>
</a>
</g>
</g>
<!-- Node1&#45;&gt;Node15 -->
<g id="edge14" class="edge">
<title>Node1&#45;&gt;Node15</title>
<path fill="none" stroke="midnightblue" d="M238.2,-264.25C262.52,-258.87 290.95,-252.59 313.91,-247.52"/>
<polygon fill="midnightblue" stroke="midnightblue" points="237.41,-260.84 228.4,-266.41 238.92,-267.67 237.41,-260.84"/>
</g>
<!-- Node16 -->
<g id="node16" class="node">
<title>Node16</title>
<g id="a_node16"><a xlink:href="classlog4cplus_1_1NullAppender.html" target="_top" xlink:title="Appends log events to a file.">
<polygon fill="white" stroke="black" points="296.5,-190.5 296.5,-209.5 419.5,-209.5 419.5,-190.5 296.5,-190.5"/>
<text text-anchor="middle" x="358" y="-197.5" font-family="'Souce Sans Pro', Roboto, FreeSans, sans-serif" font-size="10.00">log4cplus::NullAppender</text>
</a>
</g>
</g>
<!-- Node1&#45;&gt;Node16 -->
<g id="edge15" class="edge">
<title>Node1&#45;&gt;Node16</title>
<path fill="none" stroke="midnightblue" d="M204.87,-260.19C221.99,-247.32 247.86,-229.59 273,-219 282.09,-215.17 292.08,-212.05 301.9,-209.53"/>
<polygon fill="midnightblue" stroke="midnightblue" points="202.56,-257.56 196.76,-266.42 206.82,-263.11 202.56,-257.56"/>
</g>
<!-- Node17 -->
<g id="node17" class="node">
<title>Node17</title>
<g id="a_node17"><a xlink:href="classlog4cplus_1_1Qt4DebugAppender.html" target="_top" xlink:title=" ">
<polygon fill="white" stroke="black" points="283.5,-152.5 283.5,-171.5 432.5,-171.5 432.5,-152.5 283.5,-152.5"/>
<text text-anchor="middle" x="358" y="-159.5" font-family="'Souce Sans Pro', Roboto, FreeSans, sans-serif" font-size="10.00">log4cplus::Qt4DebugAppender</text>
</a>
</g>
</g>
<!-- Node1&#45;&gt;Node17 -->
<g id="edge16" class="edge">
<title>Node1&#45;&gt;Node17</title>
<path fill="none" stroke="midnightblue" d="M196.52,-258.08C211.46,-236.35 239.6,-200.26 273,-181 279.74,-177.12 287.2,-174.03 294.82,-171.57"/>
<polygon fill="midnightblue" stroke="midnightblue" points="193.59,-256.16 190.95,-266.42 199.41,-260.05 193.59,-256.16"/>
</g>
<!-- Node18 -->
<g id="node18" class="node">
<title>Node18</title>
<g id="a_node18"><a xlink:href="classlog4cplus_1_1Qt5DebugAppender.html" target="_top" xlink:title=" ">
<polygon fill="white" stroke="black" points="283.5,-114.5 283.5,-133.5 432.5,-133.5 432.5,-114.5 283.5,-114.5"/>
<text text-anchor="middle" x="358" y="-121.5" font-family="'Souce Sans Pro', Roboto, FreeSans, sans-serif" font-size="10.00">log4cplus::Qt5DebugAppender</text>
</a>
</g>
</g>
<!-- Node1&#45;&gt;Node18 -->
<g id="edge17" class="edge">
<title>Node1&#45;&gt;Node18</title>
<path fill="none" stroke="midnightblue" d="M192.12,-256.97C204.12,-227.67 231.2,-171.86 273,-143 278.54,-139.18 284.72,-136.11 291.16,-133.65"/>
<polygon fill="midnightblue" stroke="midnightblue" points="188.79,-255.88 188.39,-266.47 195.31,-258.44 188.79,-255.88"/>
</g>
<!-- Node19 -->
<g id="node19" class="node">
<title>Node19</title>
<g id="a_node19"><a xlink:href="classlog4cplus_1_1SocketAppender.html" target="_top" xlink:title="Sends spi::InternalLoggingEvent objects to a remote a log server.">
<polygon fill="white" stroke="black" points="289.5,-76.5 289.5,-95.5 426.5,-95.5 426.5,-76.5 289.5,-76.5"/>
<text text-anchor="middle" x="358" y="-83.5" font-family="'Souce Sans Pro', Roboto, FreeSans, sans-serif" font-size="10.00">log4cplus::SocketAppender</text>
</a>
</g>
</g>
<!-- Node1&#45;&gt;Node19 -->
<g id="edge18" class="edge">
<title>Node1&#45;&gt;Node19</title>
<path fill="none" stroke="midnightblue" d="M189.35,-256.25C198.34,-220.25 222.5,-144.11 273,-105 277.96,-101.15 283.56,-98.06 289.45,-95.57"/>
<polygon fill="midnightblue" stroke="midnightblue" points="185.83,-255.89 186.95,-266.42 192.65,-257.49 185.83,-255.89"/>
</g>
<!-- Node20 -->
<g id="node20" class="node">
<title>Node20</title>
<g id="a_node20"><a xlink:href="classlog4cplus_1_1SysLogAppender.html" target="_top" xlink:title="Appends log events to a file.">
<polygon fill="white" stroke="black" points="289,-38.5 289,-57.5 427,-57.5 427,-38.5 289,-38.5"/>
<text text-anchor="middle" x="358" y="-45.5" font-family="'Souce Sans Pro', Roboto, FreeSans, sans-serif" font-size="10.00">log4cplus::SysLogAppender</text>
</a>
</g>
</g>
<!-- Node1&#45;&gt;Node20 -->
<g id="edge19" class="edge">
<title>Node1&#45;&gt;Node20</title>
<path fill="none" stroke="midnightblue" d="M187.32,-256.3C193.31,-214.57 213.29,-117.03 273,-67 277.7,-63.06 283.05,-59.9 288.72,-57.36"/>
<polygon fill="midnightblue" stroke="midnightblue" points="183.84,-255.92 186,-266.29 190.78,-256.83 183.84,-255.92"/>
</g>
<!-- Node21 -->
<g id="node21" class="node">
<title>Node21</title>
<g id="a_node21"><a xlink:href="classlog4cplus_1_1Win32ConsoleAppender.html" target="_top" xlink:title="Prints events to Win32 console.">
<polygon fill="white" stroke="black" points="273,-0.5 273,-19.5 443,-19.5 443,-0.5 273,-0.5"/>
<text text-anchor="middle" x="358" y="-7.5" font-family="'Souce Sans Pro', Roboto, FreeSans, sans-serif" font-size="10.00">log4cplus::Win32ConsoleAppender</text>
</a>
</g>
</g>
<!-- Node1&#45;&gt;Node21 -->
<g id="edge20" class="edge">
<title>Node1&#45;&gt;Node21</title>
<path fill="none" stroke="midnightblue" d="M185.87,-256.35C189.07,-209.44 203.94,-90.25 273,-29 277.25,-25.23 282.09,-22.16 287.25,-19.67"/>
<polygon fill="midnightblue" stroke="midnightblue" points="182.38,-256.23 185.3,-266.41 189.36,-256.63 182.38,-256.23"/>
</g>
<!-- Node2 -->
<g id="node2" class="node">
<title>Node2</title>
<g id="a_node2"><a xlink:href="classlog4cplus_1_1helpers_1_1SharedObject.html" target="_top" xlink:title=" ">
<polygon fill="white" stroke="black" points="0,-261 0,-291 95,-291 95,-261 0,-261"/>
<text text-anchor="start" x="8" y="-279" font-family="'Souce Sans Pro', Roboto, FreeSans, sans-serif" font-size="10.00">log4cplus::helpers</text>
<text text-anchor="middle" x="47.5" y="-268" font-family="'Souce Sans Pro', Roboto, FreeSans, sans-serif" font-size="10.00">::SharedObject</text>
</a>
</g>
</g>
<!-- Node2&#45;&gt;Node1 -->
<g id="edge1" class="edge">
<title>Node2&#45;&gt;Node1</title>
<path fill="none" stroke="midnightblue" d="M105.35,-276C113.83,-276 122.53,-276 130.9,-276"/>
<polygon fill="midnightblue" stroke="midnightblue" points="105.16,-272.5 95.16,-276 105.16,-279.5 105.16,-272.5"/>
</g>
<!-- Node9 -->
<g id="node9" class="node">
<title>Node9</title>
<g id="a_node9"><a xlink:href="classlog4cplus_1_1FileAppender.html" target="_top" xlink:title="Appends log events to a file.">
<polygon fill="white" stroke="black" points="490,-364.5 490,-383.5 611,-383.5 611,-364.5 490,-364.5"/>
<text text-anchor="middle" x="550.5" y="-371.5" font-family="'Souce Sans Pro', Roboto, FreeSans, sans-serif" font-size="10.00">log4cplus::FileAppender</text>
</a>
</g>
</g>
<!-- Node8&#45;&gt;Node9 -->
<g id="edge8" class="edge">
<title>Node8&#45;&gt;Node9</title>
<path fill="none" stroke="midnightblue" d="M439.99,-361.35C456.73,-363.29 474.07,-365.29 489.88,-367.11"/>
<polygon fill="midnightblue" stroke="midnightblue" points="440,-357.83 429.66,-360.16 439.2,-364.78 440,-357.83"/>
</g>
<!-- Node12 -->
<g id="node12" class="node">
<title>Node12</title>
<g id="a_node12"><a xlink:href="classlog4cplus_1_1TimeBasedRollingFileAppender.html" target="_top" xlink:title="TimeBasedRollingFileAppender extends FileAppenderBase so that the underlying file is rolled over at a...">
<polygon fill="white" stroke="black" points="479,-315 479,-345 622,-345 622,-315 479,-315"/>
<text text-anchor="start" x="487" y="-333" font-family="'Souce Sans Pro', Roboto, FreeSans, sans-serif" font-size="10.00">log4cplus::TimeBasedRolling</text>
<text text-anchor="middle" x="550.5" y="-322" font-family="'Souce Sans Pro', Roboto, FreeSans, sans-serif" font-size="10.00">FileAppender</text>
</a>
</g>
</g>
<!-- Node8&#45;&gt;Node12 -->
<g id="edge11" class="edge">
<title>Node8&#45;&gt;Node12</title>
<path fill="none" stroke="midnightblue" d="M439.96,-342.65C452.93,-341.15 466.25,-339.61 478.95,-338.15"/>
<polygon fill="midnightblue" stroke="midnightblue" points="439.2,-339.22 429.66,-343.84 440,-346.17 439.2,-339.22"/>
</g>
<!-- Node10 -->
<g id="node10" class="node">
<title>Node10</title>
<g id="a_node10"><a xlink:href="classlog4cplus_1_1DailyRollingFileAppender.html" target="_top" xlink:title="DailyRollingFileAppender extends FileAppender so that the underlying file is rolled over at a user ch...">
<polygon fill="white" stroke="black" points="669,-381 669,-411 797,-411 797,-381 669,-381"/>
<text text-anchor="start" x="677" y="-399" font-family="'Souce Sans Pro', Roboto, FreeSans, sans-serif" font-size="10.00">log4cplus::DailyRollingFile</text>
<text text-anchor="middle" x="733" y="-388" font-family="'Souce Sans Pro', Roboto, FreeSans, sans-serif" font-size="10.00">Appender</text>
</a>
</g>
</g>
<!-- Node9&#45;&gt;Node10 -->
<g id="edge9" class="edge">
<title>Node9&#45;&gt;Node10</title>
<path fill="none" stroke="midnightblue" d="M621.23,-382.5C636.87,-384.41 653.38,-386.42 668.74,-388.29"/>
<polygon fill="midnightblue" stroke="midnightblue" points="621.45,-379 611.1,-381.26 620.61,-385.95 621.45,-379"/>
</g>
<!-- Node11 -->
<g id="node11" class="node">
<title>Node11</title>
<g id="a_node11"><a xlink:href="classlog4cplus_1_1RollingFileAppender.html" target="_top" xlink:title="RollingFileAppender extends FileAppender to backup the log files when they reach a certain size.">
<polygon fill="white" stroke="black" points="658,-342.5 658,-361.5 808,-361.5 808,-342.5 658,-342.5"/>
<text text-anchor="middle" x="733" y="-349.5" font-family="'Souce Sans Pro', Roboto, FreeSans, sans-serif" font-size="10.00">log4cplus::RollingFileAppender</text>
</a>
</g>
</g>
<!-- Node9&#45;&gt;Node11 -->
<g id="edge10" class="edge">
<title>Node9&#45;&gt;Node11</title>
<path fill="none" stroke="midnightblue" d="M621.1,-365.52C633.18,-364.04 645.78,-362.51 657.97,-361.02"/>
<polygon fill="midnightblue" stroke="midnightblue" points="620.61,-362.05 611.1,-366.74 621.45,-369 620.61,-362.05"/>
</g>
</g>
</svg>
