<?xml version="1.0" encoding="UTF-8" standalone="no"?>
<!DOCTYPE svg PUBLIC "-//W3C//DTD SVG 1.1//EN"
 "http://www.w3.org/Graphics/SVG/1.1/DTD/svg11.dtd">
<!-- Generated by graphviz version 2.43.0 (0)
 -->
<!-- Title: log4cplus::thread::AbstractThread Pages: 1 -->
<svg width="123pt" height="185pt"
 viewBox="0.00 0.00 122.50 185.00" xmlns="http://www.w3.org/2000/svg" xmlns:xlink="http://www.w3.org/1999/xlink">
<g id="graph0" class="graph" transform="scale(1 1) rotate(0) translate(4 181)">
<title>log4cplus::thread::AbstractThread</title>
<polygon fill="white" stroke="transparent" points="-4,4 -4,-181 118.5,-181 118.5,4 -4,4"/>
<!-- Node1 -->
<g id="node1" class="node">
<title>Node1</title>
<g id="a_node1"><a xlink:title="There are many cross&#45;platform C++ Threading libraries.">
<polygon fill="#bfbfbf" stroke="black" points="0,-0.5 0,-30.5 95,-30.5 95,-0.5 0,-0.5"/>
<text text-anchor="start" x="8" y="-18.5" font-family="'Souce Sans Pro', Roboto, FreeSans, sans-serif" font-size="10.00">log4cplus::thread::</text>
<text text-anchor="middle" x="47.5" y="-7.5" font-family="'Souce Sans Pro', Roboto, FreeSans, sans-serif" font-size="10.00">AbstractThread</text>
</a>
</g>
</g>
<!-- Node2 -->
<g id="node2" class="node">
<title>Node2</title>
<g id="a_node2"><a xlink:href="classlog4cplus_1_1helpers_1_1SharedObject.html" target="_top" xlink:title=" ">
<polygon fill="white" stroke="black" points="0,-68.5 0,-98.5 95,-98.5 95,-68.5 0,-68.5"/>
<text text-anchor="start" x="8" y="-86.5" font-family="'Souce Sans Pro', Roboto, FreeSans, sans-serif" font-size="10.00">log4cplus::helpers</text>
<text text-anchor="middle" x="47.5" y="-75.5" font-family="'Souce Sans Pro', Roboto, FreeSans, sans-serif" font-size="10.00">::SharedObject</text>
</a>
</g>
</g>
<!-- Node2&#45;&gt;Node1 -->
<g id="edge1" class="edge">
<title>Node2&#45;&gt;Node1</title>
<path fill="none" stroke="midnightblue" d="M47.5,-58.03C47.5,-48.86 47.5,-38.74 47.5,-30.79"/>
<polygon fill="midnightblue" stroke="midnightblue" points="44,-58.18 47.5,-68.18 51,-58.18 44,-58.18"/>
</g>
<!-- Node3 -->
<g id="node3" class="node">
<title>Node3</title>
<g id="a_node3"><a xlink:href="classlog4cplus_1_1thread_1_1Mutex.html" target="_top" xlink:title=" ">
<polygon fill="white" stroke="black" points="0,-146.5 0,-176.5 95,-176.5 95,-146.5 0,-146.5"/>
<text text-anchor="start" x="8" y="-164.5" font-family="'Souce Sans Pro', Roboto, FreeSans, sans-serif" font-size="10.00">log4cplus::thread::</text>
<text text-anchor="middle" x="47.5" y="-153.5" font-family="'Souce Sans Pro', Roboto, FreeSans, sans-serif" font-size="10.00">Mutex</text>
</a>
</g>
</g>
<!-- Node3&#45;&gt;Node2 -->
<g id="edge2" class="edge">
<title>Node3&#45;&gt;Node2</title>
<path fill="none" stroke="#9a32cd" stroke-dasharray="5,2" d="M47.5,-136.09C47.5,-123.76 47.5,-109.22 47.5,-98.73"/>
<polygon fill="#9a32cd" stroke="#9a32cd" points="44,-136.2 47.5,-146.2 51,-136.21 44,-136.2"/>
<text text-anchor="middle" x="81" y="-120" font-family="'Souce Sans Pro', Roboto, FreeSans, sans-serif" font-size="10.00"> access_mutex</text>
</g>
</g>
</svg>
