<?xml version="1.0" encoding="UTF-8" standalone="no"?>
<!DOCTYPE svg PUBLIC "-//W3C//DTD SVG 1.1//EN"
 "http://www.w3.org/Graphics/SVG/1.1/DTD/svg11.dtd">
<!-- Generated by graphviz version 2.43.0 (0)
 -->
<!-- Title: log4cplus::helpers::SharedObjectPtr&lt; T &gt; Pages: 1 -->
<svg width="406pt" height="258pt"
 viewBox="0.00 0.00 406.00 258.00" xmlns="http://www.w3.org/2000/svg" xmlns:xlink="http://www.w3.org/1999/xlink">
<g id="graph0" class="graph" transform="scale(1 1) rotate(0) translate(4 254)">
<title>log4cplus::helpers::SharedObjectPtr&lt; T &gt;</title>
<polygon fill="white" stroke="transparent" points="-4,4 -4,-254 402,-254 402,4 -4,4"/>
<!-- Node1 -->
<g id="node1" class="node">
<title>Node1</title>
<g id="a_node1"><a xlink:title=" ">
<polygon fill="#bfbfbf" stroke="black" points="0,-115.5 0,-145.5 114,-145.5 114,-115.5 0,-115.5"/>
<text text-anchor="start" x="8" y="-133.5" font-family="'Souce Sans Pro', Roboto, FreeSans, sans-serif" font-size="10.00">log4cplus::helpers</text>
<text text-anchor="middle" x="57" y="-122.5" font-family="'Souce Sans Pro', Roboto, FreeSans, sans-serif" font-size="10.00">::SharedObjectPtr&lt; T &gt;</text>
</a>
</g>
</g>
<!-- Node2 -->
<g id="node2" class="node">
<title>Node2</title>
<g id="a_node2"><a xlink:href="classlog4cplus_1_1helpers_1_1SharedObjectPtr.html" target="_top" xlink:title=" ">
<polygon fill="white" stroke="black" points="251,-219.5 251,-249.5 387,-249.5 387,-219.5 251,-219.5"/>
<text text-anchor="start" x="259" y="-237.5" font-family="'Souce Sans Pro', Roboto, FreeSans, sans-serif" font-size="10.00">log4cplus::helpers</text>
<text text-anchor="middle" x="319" y="-226.5" font-family="'Souce Sans Pro', Roboto, FreeSans, sans-serif" font-size="10.00">::SharedObjectPtr&lt; Queue &gt;</text>
</a>
</g>
</g>
<!-- Node1&#45;&gt;Node2 -->
<g id="edge1" class="edge">
<title>Node1&#45;&gt;Node2</title>
<path fill="none" stroke="orange" stroke-dasharray="5,2" d="M85.77,-151.74C99.18,-161.24 115.85,-171.97 132,-179.5 169.85,-197.14 214.67,-210.6 250.83,-219.78"/>
<polygon fill="orange" stroke="orange" points="87.61,-148.76 77.46,-145.72 83.51,-154.42 87.61,-148.76"/>
<text text-anchor="middle" x="177" y="-214.5" font-family="'Souce Sans Pro', Roboto, FreeSans, sans-serif" font-size="10.00"> &lt; Queue &gt;</text>
</g>
<!-- Node3 -->
<g id="node3" class="node">
<title>Node3</title>
<g id="a_node3"><a xlink:href="classlog4cplus_1_1helpers_1_1SharedObjectPtr.html" target="_top" xlink:title=" ">
<polygon fill="white" stroke="black" points="254,-170.5 254,-200.5 384,-200.5 384,-170.5 254,-170.5"/>
<text text-anchor="start" x="262" y="-188.5" font-family="'Souce Sans Pro', Roboto, FreeSans, sans-serif" font-size="10.00">log4cplus::helpers</text>
<text text-anchor="middle" x="319" y="-177.5" font-family="'Souce Sans Pro', Roboto, FreeSans, sans-serif" font-size="10.00">::SharedObjectPtr&lt; Filter &gt;</text>
</a>
</g>
</g>
<!-- Node1&#45;&gt;Node3 -->
<g id="edge2" class="edge">
<title>Node1&#45;&gt;Node3</title>
<path fill="none" stroke="orange" stroke-dasharray="5,2" d="M123.97,-144.46C163.78,-152.88 214.27,-163.56 253.77,-171.91"/>
<polygon fill="orange" stroke="orange" points="124.6,-141.01 114.1,-142.37 123.16,-147.86 124.6,-141.01"/>
<text text-anchor="middle" x="177" y="-167.5" font-family="'Souce Sans Pro', Roboto, FreeSans, sans-serif" font-size="10.00"> &lt; Filter &gt;</text>
</g>
<!-- Node4 -->
<g id="node4" class="node">
<title>Node4</title>
<g id="a_node4"><a xlink:href="classlog4cplus_1_1helpers_1_1SharedObjectPtr.html" target="_top" xlink:title=" ">
<polygon fill="white" stroke="black" points="250.5,-110 250.5,-151 387.5,-151 387.5,-110 250.5,-110"/>
<text text-anchor="start" x="258.5" y="-139" font-family="'Souce Sans Pro', Roboto, FreeSans, sans-serif" font-size="10.00">log4cplus::helpers</text>
<text text-anchor="start" x="258.5" y="-128" font-family="'Souce Sans Pro', Roboto, FreeSans, sans-serif" font-size="10.00">::SharedObjectPtr&lt; Abstract</text>
<text text-anchor="middle" x="319" y="-117" font-family="'Souce Sans Pro', Roboto, FreeSans, sans-serif" font-size="10.00">Thread &gt;</text>
</a>
</g>
</g>
<!-- Node1&#45;&gt;Node4 -->
<g id="edge3" class="edge">
<title>Node1&#45;&gt;Node4</title>
<path fill="none" stroke="orange" stroke-dasharray="5,2" d="M124.21,-130.5C162.88,-130.5 211.57,-130.5 250.47,-130.5"/>
<polygon fill="orange" stroke="orange" points="124.1,-127 114.1,-130.5 124.1,-134 124.1,-127"/>
<text text-anchor="middle" x="177" y="-133.5" font-family="'Souce Sans Pro', Roboto, FreeSans, sans-serif" font-size="10.00"> &lt; AbstractThread &gt;</text>
</g>
<!-- Node5 -->
<g id="node5" class="node">
<title>Node5</title>
<g id="a_node5"><a xlink:href="classlog4cplus_1_1helpers_1_1SharedObjectPtr.html" target="_top" xlink:title=" ">
<polygon fill="white" stroke="black" points="247.5,-50 247.5,-91 390.5,-91 390.5,-50 247.5,-50"/>
<text text-anchor="start" x="255.5" y="-79" font-family="'Souce Sans Pro', Roboto, FreeSans, sans-serif" font-size="10.00">log4cplus::helpers</text>
<text text-anchor="start" x="255.5" y="-68" font-family="'Souce Sans Pro', Roboto, FreeSans, sans-serif" font-size="10.00">::SharedObjectPtr&lt; log4cplus</text>
<text text-anchor="middle" x="319" y="-57" font-family="'Souce Sans Pro', Roboto, FreeSans, sans-serif" font-size="10.00">::helpers::ConnectorThread &gt;</text>
</a>
</g>
</g>
<!-- Node1&#45;&gt;Node5 -->
<g id="edge4" class="edge">
<title>Node1&#45;&gt;Node5</title>
<path fill="none" stroke="orange" stroke-dasharray="5,2" d="M106.81,-112.14C115.15,-109.35 123.77,-106.68 132,-104.5 169.6,-94.52 212.24,-86.5 247.21,-80.76"/>
<polygon fill="orange" stroke="orange" points="105.52,-108.88 97.2,-115.44 107.79,-115.5 105.52,-108.88"/>
<text text-anchor="start" x="132" y="-118.5" font-family="'Souce Sans Pro', Roboto, FreeSans, sans-serif" font-size="10.00"> &lt; log4cplus::helpers</text>
<text text-anchor="middle" x="177" y="-107.5" font-family="'Souce Sans Pro', Roboto, FreeSans, sans-serif" font-size="10.00">::ConnectorThread &gt;</text>
</g>
<!-- Node6 -->
<g id="node6" class="node">
<title>Node6</title>
<g id="a_node6"><a xlink:href="classlog4cplus_1_1helpers_1_1SharedObjectPtr.html" target="_top" xlink:title=" ">
<polygon fill="white" stroke="black" points="240,-0.5 240,-30.5 398,-30.5 398,-0.5 240,-0.5"/>
<text text-anchor="start" x="248" y="-18.5" font-family="'Souce Sans Pro', Roboto, FreeSans, sans-serif" font-size="10.00">log4cplus::helpers</text>
<text text-anchor="middle" x="319" y="-7.5" font-family="'Souce Sans Pro', Roboto, FreeSans, sans-serif" font-size="10.00">::SharedObjectPtr&lt; LoggerImpl &gt;</text>
</a>
</g>
</g>
<!-- Node1&#45;&gt;Node6 -->
<g id="edge5" class="edge">
<title>Node1&#45;&gt;Node6</title>
<path fill="none" stroke="orange" stroke-dasharray="5,2" d="M80.44,-108.35C94.31,-95.73 113.04,-80.48 132,-70.5 166.57,-52.31 208,-39.31 242.97,-30.54"/>
<polygon fill="orange" stroke="orange" points="77.79,-106.04 72.87,-115.43 82.57,-111.16 77.79,-106.04"/>
<text text-anchor="middle" x="177" y="-73.5" font-family="'Souce Sans Pro', Roboto, FreeSans, sans-serif" font-size="10.00"> &lt; LoggerImpl &gt;</text>
</g>
</g>
</svg>
