<?xml version="1.0" encoding="UTF-8" standalone="no"?>
<!DOCTYPE svg PUBLIC "-//W3C//DTD SVG 1.1//EN"
 "http://www.w3.org/Graphics/SVG/1.1/DTD/svg11.dtd">
<!-- Generated by graphviz version 2.43.0 (0)
 -->
<!-- Title: log4cplus::spi::Filter Pages: 1 -->
<svg width="412pt" height="323pt"
 viewBox="0.00 0.00 412.00 322.50" xmlns="http://www.w3.org/2000/svg" xmlns:xlink="http://www.w3.org/1999/xlink">
<g id="graph0" class="graph" transform="scale(1 1) rotate(0) translate(4 318.5)">
<title>log4cplus::spi::Filter</title>
<polygon fill="white" stroke="transparent" points="-4,4 -4,-318.5 408,-318.5 408,4 -4,4"/>
<!-- Node1 -->
<g id="node1" class="node">
<title>Node1</title>
<g id="a_node1"><a xlink:title="Users should extend this class to implement customized logging event filtering.">
<polygon fill="#bfbfbf" stroke="black" points="131,-153 131,-172 233,-172 233,-153 131,-153"/>
<text text-anchor="middle" x="182" y="-160" font-family="'Souce Sans Pro', Roboto, FreeSans, sans-serif" font-size="10.00">log4cplus::spi::Filter</text>
</a>
</g>
</g>
<!-- Node3 -->
<g id="node3" class="node">
<title>Node3</title>
<g id="a_node3"><a xlink:href="classlog4cplus_1_1spi_1_1DenyAllFilter.html" target="_top" xlink:title="This filter drops all logging events.">
<polygon fill="white" stroke="black" points="269,-295 269,-314 404,-314 404,-295 269,-295"/>
<text text-anchor="middle" x="336.5" y="-302" font-family="'Souce Sans Pro', Roboto, FreeSans, sans-serif" font-size="10.00">log4cplus::spi::DenyAllFilter</text>
</a>
</g>
</g>
<!-- Node1&#45;&gt;Node3 -->
<g id="edge2" class="edge">
<title>Node1&#45;&gt;Node3</title>
<path fill="none" stroke="midnightblue" d="M191.14,-181.38C203.81,-208.52 230.81,-258.27 269,-285.5 274.47,-289.4 280.74,-292.51 287.18,-294.98"/>
<polygon fill="midnightblue" stroke="midnightblue" points="194.29,-179.86 186.99,-172.18 187.91,-182.74 194.29,-179.86"/>
</g>
<!-- Node4 -->
<g id="node4" class="node">
<title>Node4</title>
<g id="a_node4"><a xlink:href="classlog4cplus_1_1spi_1_1FunctionFilter.html" target="_top" xlink:title="This filter allows using std::function&lt;FilterResult(const InternalLoggingEvent &amp;)&gt;.">
<polygon fill="white" stroke="black" points="277.5,-245.5 277.5,-275.5 395.5,-275.5 395.5,-245.5 277.5,-245.5"/>
<text text-anchor="start" x="285.5" y="-263.5" font-family="'Souce Sans Pro', Roboto, FreeSans, sans-serif" font-size="10.00">log4cplus::spi::Function</text>
<text text-anchor="middle" x="336.5" y="-252.5" font-family="'Souce Sans Pro', Roboto, FreeSans, sans-serif" font-size="10.00">Filter</text>
</a>
</g>
</g>
<!-- Node1&#45;&gt;Node4 -->
<g id="edge3" class="edge">
<title>Node1&#45;&gt;Node4</title>
<path fill="none" stroke="midnightblue" d="M199.31,-179.79C215.62,-196.26 242.1,-220.8 269,-236.5 274.72,-239.84 280.99,-242.84 287.32,-245.5"/>
<polygon fill="midnightblue" stroke="midnightblue" points="201.63,-177.17 192.15,-172.43 196.61,-182.04 201.63,-177.17"/>
</g>
<!-- Node5 -->
<g id="node5" class="node">
<title>Node5</title>
<g id="a_node5"><a xlink:href="classlog4cplus_1_1spi_1_1LogLevelMatchFilter.html" target="_top" xlink:title="This is a very simple filter based on LogLevel matching.">
<polygon fill="white" stroke="black" points="277,-196.5 277,-226.5 396,-226.5 396,-196.5 277,-196.5"/>
<text text-anchor="start" x="285" y="-214.5" font-family="'Souce Sans Pro', Roboto, FreeSans, sans-serif" font-size="10.00">log4cplus::spi::LogLevel</text>
<text text-anchor="middle" x="336.5" y="-203.5" font-family="'Souce Sans Pro', Roboto, FreeSans, sans-serif" font-size="10.00">MatchFilter</text>
</a>
</g>
</g>
<!-- Node1&#45;&gt;Node5 -->
<g id="edge4" class="edge">
<title>Node1&#45;&gt;Node5</title>
<path fill="none" stroke="midnightblue" d="M222.31,-175.13C242.58,-181.64 267.45,-189.63 288.7,-196.46"/>
<polygon fill="midnightblue" stroke="midnightblue" points="223.36,-171.79 212.77,-172.06 221.22,-178.46 223.36,-171.79"/>
</g>
<!-- Node6 -->
<g id="node6" class="node">
<title>Node6</title>
<g id="a_node6"><a xlink:href="classlog4cplus_1_1spi_1_1LogLevelRangeFilter.html" target="_top" xlink:title="This is a very simple filter based on LogLevel matching, which can be used to reject messages with Lo...">
<polygon fill="white" stroke="black" points="277,-147.5 277,-177.5 396,-177.5 396,-147.5 277,-147.5"/>
<text text-anchor="start" x="285" y="-165.5" font-family="'Souce Sans Pro', Roboto, FreeSans, sans-serif" font-size="10.00">log4cplus::spi::LogLevel</text>
<text text-anchor="middle" x="336.5" y="-154.5" font-family="'Souce Sans Pro', Roboto, FreeSans, sans-serif" font-size="10.00">RangeFilter</text>
</a>
</g>
</g>
<!-- Node1&#45;&gt;Node6 -->
<g id="edge5" class="edge">
<title>Node1&#45;&gt;Node6</title>
<path fill="none" stroke="midnightblue" d="M243.37,-162.5C254.44,-162.5 265.98,-162.5 277,-162.5"/>
<polygon fill="midnightblue" stroke="midnightblue" points="243.36,-159 233.36,-162.5 243.36,-166 243.36,-159"/>
</g>
<!-- Node7 -->
<g id="node7" class="node">
<title>Node7</title>
<g id="a_node7"><a xlink:href="classlog4cplus_1_1spi_1_1MDCMatchFilter.html" target="_top" xlink:title="This is a simple filter based on the key/value pair stored in MDC.">
<polygon fill="white" stroke="black" points="271,-98.5 271,-128.5 402,-128.5 402,-98.5 271,-98.5"/>
<text text-anchor="start" x="279" y="-116.5" font-family="'Souce Sans Pro', Roboto, FreeSans, sans-serif" font-size="10.00">log4cplus::spi::MDCMatch</text>
<text text-anchor="middle" x="336.5" y="-105.5" font-family="'Souce Sans Pro', Roboto, FreeSans, sans-serif" font-size="10.00">Filter</text>
</a>
</g>
</g>
<!-- Node1&#45;&gt;Node7 -->
<g id="edge6" class="edge">
<title>Node1&#45;&gt;Node7</title>
<path fill="none" stroke="midnightblue" d="M222.31,-149.87C242.58,-143.36 267.45,-135.37 288.7,-128.54"/>
<polygon fill="midnightblue" stroke="midnightblue" points="221.22,-146.54 212.77,-152.94 223.36,-153.21 221.22,-146.54"/>
</g>
<!-- Node8 -->
<g id="node8" class="node">
<title>Node8</title>
<g id="a_node8"><a xlink:href="classlog4cplus_1_1spi_1_1NDCMatchFilter.html" target="_top" xlink:title="This is a simple filter based on the string returned by event.getNDC().">
<polygon fill="white" stroke="black" points="272,-49.5 272,-79.5 401,-79.5 401,-49.5 272,-49.5"/>
<text text-anchor="start" x="280" y="-67.5" font-family="'Souce Sans Pro', Roboto, FreeSans, sans-serif" font-size="10.00">log4cplus::spi::NDCMatch</text>
<text text-anchor="middle" x="336.5" y="-56.5" font-family="'Souce Sans Pro', Roboto, FreeSans, sans-serif" font-size="10.00">Filter</text>
</a>
</g>
</g>
<!-- Node1&#45;&gt;Node8 -->
<g id="edge7" class="edge">
<title>Node1&#45;&gt;Node8</title>
<path fill="none" stroke="midnightblue" d="M199.31,-145.21C215.62,-128.74 242.1,-104.2 269,-88.5 274.72,-85.16 280.99,-82.16 287.32,-79.5"/>
<polygon fill="midnightblue" stroke="midnightblue" points="196.61,-142.96 192.15,-152.57 201.63,-147.83 196.61,-142.96"/>
</g>
<!-- Node9 -->
<g id="node9" class="node">
<title>Node9</title>
<g id="a_node9"><a xlink:href="classlog4cplus_1_1spi_1_1StringMatchFilter.html" target="_top" xlink:title="This is a very simple filter based on string matching.">
<polygon fill="white" stroke="black" points="269.5,-0.5 269.5,-30.5 403.5,-30.5 403.5,-0.5 269.5,-0.5"/>
<text text-anchor="start" x="277.5" y="-18.5" font-family="'Souce Sans Pro', Roboto, FreeSans, sans-serif" font-size="10.00">log4cplus::spi::StringMatch</text>
<text text-anchor="middle" x="336.5" y="-7.5" font-family="'Souce Sans Pro', Roboto, FreeSans, sans-serif" font-size="10.00">Filter</text>
</a>
</g>
</g>
<!-- Node1&#45;&gt;Node9 -->
<g id="edge8" class="edge">
<title>Node1&#45;&gt;Node9</title>
<path fill="none" stroke="midnightblue" d="M191.58,-143.56C204.64,-116.76 231.94,-67.87 269,-39.5 273.48,-36.07 278.5,-33.09 283.72,-30.52"/>
<polygon fill="midnightblue" stroke="midnightblue" points="188.39,-142.12 187.29,-152.66 194.72,-145.11 188.39,-142.12"/>
</g>
<!-- Node2 -->
<g id="node2" class="node">
<title>Node2</title>
<g id="a_node2"><a xlink:href="classlog4cplus_1_1helpers_1_1SharedObject.html" target="_top" xlink:title=" ">
<polygon fill="white" stroke="black" points="0,-147.5 0,-177.5 95,-177.5 95,-147.5 0,-147.5"/>
<text text-anchor="start" x="8" y="-165.5" font-family="'Souce Sans Pro', Roboto, FreeSans, sans-serif" font-size="10.00">log4cplus::helpers</text>
<text text-anchor="middle" x="47.5" y="-154.5" font-family="'Souce Sans Pro', Roboto, FreeSans, sans-serif" font-size="10.00">::SharedObject</text>
</a>
</g>
</g>
<!-- Node2&#45;&gt;Node1 -->
<g id="edge1" class="edge">
<title>Node2&#45;&gt;Node1</title>
<path fill="none" stroke="midnightblue" d="M105.34,-162.5C113.76,-162.5 122.38,-162.5 130.66,-162.5"/>
<polygon fill="midnightblue" stroke="midnightblue" points="105.21,-159 95.21,-162.5 105.21,-166 105.21,-159"/>
</g>
</g>
</svg>
