<?xml version="1.0" encoding="UTF-8" standalone="no"?>
<!DOCTYPE svg PUBLIC "-//W3C//DTD SVG 1.1//EN"
 "http://www.w3.org/Graphics/SVG/1.1/DTD/svg11.dtd">
<!-- Generated by graphviz version 2.43.0 (0)
 -->
<!-- Title: log4cplus::DailyRollingFileAppender Pages: 1 -->
<svg width="252pt" height="366pt"
 viewBox="0.00 0.00 251.50 366.00" xmlns="http://www.w3.org/2000/svg" xmlns:xlink="http://www.w3.org/1999/xlink">
<g id="graph0" class="graph" transform="scale(1 1) rotate(0) translate(4 362)">
<title>log4cplus::DailyRollingFileAppender</title>
<polygon fill="white" stroke="transparent" points="-4,4 -4,-362 247.5,-362 247.5,4 -4,4"/>
<!-- Node1 -->
<g id="node1" class="node">
<title>Node1</title>
<g id="a_node1"><a xlink:title="DailyRollingFileAppender extends FileAppender so that the underlying file is rolled over at a user ch...">
<polygon fill="#bfbfbf" stroke="black" points="48.5,-0.5 48.5,-30.5 176.5,-30.5 176.5,-0.5 48.5,-0.5"/>
<text text-anchor="start" x="56.5" y="-18.5" font-family="'Souce Sans Pro', Roboto, FreeSans, sans-serif" font-size="10.00">log4cplus::DailyRollingFile</text>
<text text-anchor="middle" x="112.5" y="-7.5" font-family="'Souce Sans Pro', Roboto, FreeSans, sans-serif" font-size="10.00">Appender</text>
</a>
</g>
</g>
<!-- Node2 -->
<g id="node2" class="node">
<title>Node2</title>
<g id="a_node2"><a xlink:href="classlog4cplus_1_1FileAppender.html" target="_top" xlink:title="Appends log events to a file.">
<polygon fill="white" stroke="black" points="52,-68.5 52,-87.5 173,-87.5 173,-68.5 52,-68.5"/>
<text text-anchor="middle" x="112.5" y="-75.5" font-family="'Souce Sans Pro', Roboto, FreeSans, sans-serif" font-size="10.00">log4cplus::FileAppender</text>
</a>
</g>
</g>
<!-- Node2&#45;&gt;Node1 -->
<g id="edge1" class="edge">
<title>Node2&#45;&gt;Node1</title>
<path fill="none" stroke="midnightblue" d="M112.5,-58.22C112.5,-49.36 112.5,-38.96 112.5,-30.76"/>
<polygon fill="midnightblue" stroke="midnightblue" points="109,-58.33 112.5,-68.33 116,-58.33 109,-58.33"/>
</g>
<!-- Node3 -->
<g id="node3" class="node">
<title>Node3</title>
<g id="a_node3"><a xlink:href="classlog4cplus_1_1FileAppenderBase.html" target="_top" xlink:title="Base class for Appenders writing log events to a file.">
<polygon fill="white" stroke="black" points="41,-125.5 41,-144.5 184,-144.5 184,-125.5 41,-125.5"/>
<text text-anchor="middle" x="112.5" y="-132.5" font-family="'Souce Sans Pro', Roboto, FreeSans, sans-serif" font-size="10.00">log4cplus::FileAppenderBase</text>
</a>
</g>
</g>
<!-- Node3&#45;&gt;Node2 -->
<g id="edge2" class="edge">
<title>Node3&#45;&gt;Node2</title>
<path fill="none" stroke="midnightblue" d="M112.5,-115.12C112.5,-105.82 112.5,-95.06 112.5,-87.71"/>
<polygon fill="midnightblue" stroke="midnightblue" points="109,-115.41 112.5,-125.41 116,-115.41 109,-115.41"/>
</g>
<!-- Node4 -->
<g id="node4" class="node">
<title>Node4</title>
<g id="a_node4"><a xlink:href="classlog4cplus_1_1Appender.html" target="_top" xlink:title="Extend this class for implementing your own strategies for printing log statements.">
<polygon fill="white" stroke="black" points="59.5,-182.5 59.5,-201.5 165.5,-201.5 165.5,-182.5 59.5,-182.5"/>
<text text-anchor="middle" x="112.5" y="-189.5" font-family="'Souce Sans Pro', Roboto, FreeSans, sans-serif" font-size="10.00">log4cplus::Appender</text>
</a>
</g>
</g>
<!-- Node4&#45;&gt;Node3 -->
<g id="edge3" class="edge">
<title>Node4&#45;&gt;Node3</title>
<path fill="none" stroke="midnightblue" d="M112.5,-172.12C112.5,-162.82 112.5,-152.06 112.5,-144.71"/>
<polygon fill="midnightblue" stroke="midnightblue" points="109,-172.41 112.5,-182.41 116,-172.41 109,-172.41"/>
</g>
<!-- Node5 -->
<g id="node5" class="node">
<title>Node5</title>
<g id="a_node5"><a xlink:href="classlog4cplus_1_1helpers_1_1SharedObject.html" target="_top" xlink:title=" ">
<polygon fill="white" stroke="black" points="0,-249.5 0,-279.5 95,-279.5 95,-249.5 0,-249.5"/>
<text text-anchor="start" x="8" y="-267.5" font-family="'Souce Sans Pro', Roboto, FreeSans, sans-serif" font-size="10.00">log4cplus::helpers</text>
<text text-anchor="middle" x="47.5" y="-256.5" font-family="'Souce Sans Pro', Roboto, FreeSans, sans-serif" font-size="10.00">::SharedObject</text>
</a>
</g>
</g>
<!-- Node5&#45;&gt;Node4 -->
<g id="edge4" class="edge">
<title>Node5&#45;&gt;Node4</title>
<path fill="none" stroke="midnightblue" d="M67.54,-241.76C79.91,-228.34 95.12,-211.85 104.3,-201.89"/>
<polygon fill="midnightblue" stroke="midnightblue" points="64.86,-239.51 60.65,-249.23 70.01,-244.25 64.86,-239.51"/>
</g>
<!-- Node6 -->
<g id="node6" class="node">
<title>Node6</title>
<g id="a_node6"><a xlink:href="classlog4cplus_1_1thread_1_1Mutex.html" target="_top" xlink:title=" ">
<polygon fill="white" stroke="black" points="0,-327.5 0,-357.5 95,-357.5 95,-327.5 0,-327.5"/>
<text text-anchor="start" x="8" y="-345.5" font-family="'Souce Sans Pro', Roboto, FreeSans, sans-serif" font-size="10.00">log4cplus::thread::</text>
<text text-anchor="middle" x="47.5" y="-334.5" font-family="'Souce Sans Pro', Roboto, FreeSans, sans-serif" font-size="10.00">Mutex</text>
</a>
</g>
</g>
<!-- Node6&#45;&gt;Node5 -->
<g id="edge5" class="edge">
<title>Node6&#45;&gt;Node5</title>
<path fill="none" stroke="#9a32cd" stroke-dasharray="5,2" d="M47.5,-317.09C47.5,-304.76 47.5,-290.22 47.5,-279.73"/>
<polygon fill="#9a32cd" stroke="#9a32cd" points="44,-317.2 47.5,-327.2 51,-317.21 44,-317.2"/>
<text text-anchor="middle" x="81" y="-301" font-family="'Souce Sans Pro', Roboto, FreeSans, sans-serif" font-size="10.00"> access_mutex</text>
</g>
<!-- Node7 -->
<g id="node7" class="node">
<title>Node7</title>
<g id="a_node7"><a xlink:href="classlog4cplus_1_1helpers_1_1SharedObjectPtr.html" target="_top" xlink:title=" ">
<polygon fill="white" stroke="black" points="113.5,-249.5 113.5,-279.5 243.5,-279.5 243.5,-249.5 113.5,-249.5"/>
<text text-anchor="start" x="121.5" y="-267.5" font-family="'Souce Sans Pro', Roboto, FreeSans, sans-serif" font-size="10.00">log4cplus::helpers</text>
<text text-anchor="middle" x="178.5" y="-256.5" font-family="'Souce Sans Pro', Roboto, FreeSans, sans-serif" font-size="10.00">::SharedObjectPtr&lt; Filter &gt;</text>
</a>
</g>
</g>
<!-- Node7&#45;&gt;Node4 -->
<g id="edge6" class="edge">
<title>Node7&#45;&gt;Node4</title>
<path fill="none" stroke="#9a32cd" stroke-dasharray="5,2" d="M158.15,-241.76C145.59,-228.34 130.15,-211.85 120.83,-201.89"/>
<polygon fill="#9a32cd" stroke="#9a32cd" points="155.75,-244.33 165.14,-249.23 160.86,-239.54 155.75,-244.33"/>
<text text-anchor="middle" x="158.5" y="-223" font-family="'Souce Sans Pro', Roboto, FreeSans, sans-serif" font-size="10.00"> filter</text>
</g>
<!-- Node8 -->
<g id="node8" class="node">
<title>Node8</title>
<g id="a_node8"><a xlink:href="classlog4cplus_1_1helpers_1_1SharedObjectPtr.html" target="_top" xlink:title=" ">
<polygon fill="white" stroke="black" points="121.5,-327.5 121.5,-357.5 235.5,-357.5 235.5,-327.5 121.5,-327.5"/>
<text text-anchor="start" x="129.5" y="-345.5" font-family="'Souce Sans Pro', Roboto, FreeSans, sans-serif" font-size="10.00">log4cplus::helpers</text>
<text text-anchor="middle" x="178.5" y="-334.5" font-family="'Souce Sans Pro', Roboto, FreeSans, sans-serif" font-size="10.00">::SharedObjectPtr&lt; T &gt;</text>
</a>
</g>
</g>
<!-- Node8&#45;&gt;Node7 -->
<g id="edge7" class="edge">
<title>Node8&#45;&gt;Node7</title>
<path fill="none" stroke="orange" stroke-dasharray="5,2" d="M178.5,-317.09C178.5,-304.76 178.5,-290.22 178.5,-279.73"/>
<polygon fill="orange" stroke="orange" points="175,-317.2 178.5,-327.2 182,-317.21 175,-317.2"/>
<text text-anchor="middle" x="198.5" y="-301" font-family="'Souce Sans Pro', Roboto, FreeSans, sans-serif" font-size="10.00"> &lt; Filter &gt;</text>
</g>
</g>
</svg>
