<?xml version="1.0" encoding="UTF-8" standalone="no"?>
<!DOCTYPE svg PUBLIC "-//W3C//DTD SVG 1.1//EN"
 "http://www.w3.org/Graphics/SVG/1.1/DTD/svg11.dtd">
<!-- Generated by graphviz version 2.43.0 (0)
 -->
<!-- Title: log4cplus::RollingFileAppender Pages: 1 -->
<svg width="252pt" height="355pt"
 viewBox="0.00 0.00 251.50 355.00" xmlns="http://www.w3.org/2000/svg" xmlns:xlink="http://www.w3.org/1999/xlink">
<g id="graph0" class="graph" transform="scale(1 1) rotate(0) translate(4 351)">
<title>log4cplus::RollingFileAppender</title>
<polygon fill="white" stroke="transparent" points="-4,4 -4,-351 247.5,-351 247.5,4 -4,4"/>
<!-- Node1 -->
<g id="node1" class="node">
<title>Node1</title>
<g id="a_node1"><a xlink:title="RollingFileAppender extends FileAppender to backup the log files when they reach a certain size.">
<polygon fill="#bfbfbf" stroke="black" points="37.5,-0.5 37.5,-19.5 187.5,-19.5 187.5,-0.5 37.5,-0.5"/>
<text text-anchor="middle" x="112.5" y="-7.5" font-family="'Souce Sans Pro', Roboto, FreeSans, sans-serif" font-size="10.00">log4cplus::RollingFileAppender</text>
</a>
</g>
</g>
<!-- Node2 -->
<g id="node2" class="node">
<title>Node2</title>
<g id="a_node2"><a xlink:href="classlog4cplus_1_1FileAppender.html" target="_top" xlink:title="Appends log events to a file.">
<polygon fill="white" stroke="black" points="52,-57.5 52,-76.5 173,-76.5 173,-57.5 52,-57.5"/>
<text text-anchor="middle" x="112.5" y="-64.5" font-family="'Souce Sans Pro', Roboto, FreeSans, sans-serif" font-size="10.00">log4cplus::FileAppender</text>
</a>
</g>
</g>
<!-- Node2&#45;&gt;Node1 -->
<g id="edge1" class="edge">
<title>Node2&#45;&gt;Node1</title>
<path fill="none" stroke="midnightblue" d="M112.5,-47.12C112.5,-37.82 112.5,-27.06 112.5,-19.71"/>
<polygon fill="midnightblue" stroke="midnightblue" points="109,-47.41 112.5,-57.41 116,-47.41 109,-47.41"/>
</g>
<!-- Node3 -->
<g id="node3" class="node">
<title>Node3</title>
<g id="a_node3"><a xlink:href="classlog4cplus_1_1FileAppenderBase.html" target="_top" xlink:title="Base class for Appenders writing log events to a file.">
<polygon fill="white" stroke="black" points="41,-114.5 41,-133.5 184,-133.5 184,-114.5 41,-114.5"/>
<text text-anchor="middle" x="112.5" y="-121.5" font-family="'Souce Sans Pro', Roboto, FreeSans, sans-serif" font-size="10.00">log4cplus::FileAppenderBase</text>
</a>
</g>
</g>
<!-- Node3&#45;&gt;Node2 -->
<g id="edge2" class="edge">
<title>Node3&#45;&gt;Node2</title>
<path fill="none" stroke="midnightblue" d="M112.5,-104.12C112.5,-94.82 112.5,-84.06 112.5,-76.71"/>
<polygon fill="midnightblue" stroke="midnightblue" points="109,-104.41 112.5,-114.41 116,-104.41 109,-104.41"/>
</g>
<!-- Node4 -->
<g id="node4" class="node">
<title>Node4</title>
<g id="a_node4"><a xlink:href="classlog4cplus_1_1Appender.html" target="_top" xlink:title="Extend this class for implementing your own strategies for printing log statements.">
<polygon fill="white" stroke="black" points="59.5,-171.5 59.5,-190.5 165.5,-190.5 165.5,-171.5 59.5,-171.5"/>
<text text-anchor="middle" x="112.5" y="-178.5" font-family="'Souce Sans Pro', Roboto, FreeSans, sans-serif" font-size="10.00">log4cplus::Appender</text>
</a>
</g>
</g>
<!-- Node4&#45;&gt;Node3 -->
<g id="edge3" class="edge">
<title>Node4&#45;&gt;Node3</title>
<path fill="none" stroke="midnightblue" d="M112.5,-161.12C112.5,-151.82 112.5,-141.06 112.5,-133.71"/>
<polygon fill="midnightblue" stroke="midnightblue" points="109,-161.41 112.5,-171.41 116,-161.41 109,-161.41"/>
</g>
<!-- Node5 -->
<g id="node5" class="node">
<title>Node5</title>
<g id="a_node5"><a xlink:href="classlog4cplus_1_1helpers_1_1SharedObject.html" target="_top" xlink:title=" ">
<polygon fill="white" stroke="black" points="0,-238.5 0,-268.5 95,-268.5 95,-238.5 0,-238.5"/>
<text text-anchor="start" x="8" y="-256.5" font-family="'Souce Sans Pro', Roboto, FreeSans, sans-serif" font-size="10.00">log4cplus::helpers</text>
<text text-anchor="middle" x="47.5" y="-245.5" font-family="'Souce Sans Pro', Roboto, FreeSans, sans-serif" font-size="10.00">::SharedObject</text>
</a>
</g>
</g>
<!-- Node5&#45;&gt;Node4 -->
<g id="edge4" class="edge">
<title>Node5&#45;&gt;Node4</title>
<path fill="none" stroke="midnightblue" d="M67.54,-230.76C79.91,-217.34 95.12,-200.85 104.3,-190.89"/>
<polygon fill="midnightblue" stroke="midnightblue" points="64.86,-228.51 60.65,-238.23 70.01,-233.25 64.86,-228.51"/>
</g>
<!-- Node6 -->
<g id="node6" class="node">
<title>Node6</title>
<g id="a_node6"><a xlink:href="classlog4cplus_1_1thread_1_1Mutex.html" target="_top" xlink:title=" ">
<polygon fill="white" stroke="black" points="0,-316.5 0,-346.5 95,-346.5 95,-316.5 0,-316.5"/>
<text text-anchor="start" x="8" y="-334.5" font-family="'Souce Sans Pro', Roboto, FreeSans, sans-serif" font-size="10.00">log4cplus::thread::</text>
<text text-anchor="middle" x="47.5" y="-323.5" font-family="'Souce Sans Pro', Roboto, FreeSans, sans-serif" font-size="10.00">Mutex</text>
</a>
</g>
</g>
<!-- Node6&#45;&gt;Node5 -->
<g id="edge5" class="edge">
<title>Node6&#45;&gt;Node5</title>
<path fill="none" stroke="#9a32cd" stroke-dasharray="5,2" d="M47.5,-306.09C47.5,-293.76 47.5,-279.22 47.5,-268.73"/>
<polygon fill="#9a32cd" stroke="#9a32cd" points="44,-306.2 47.5,-316.2 51,-306.21 44,-306.2"/>
<text text-anchor="middle" x="81" y="-290" font-family="'Souce Sans Pro', Roboto, FreeSans, sans-serif" font-size="10.00"> access_mutex</text>
</g>
<!-- Node7 -->
<g id="node7" class="node">
<title>Node7</title>
<g id="a_node7"><a xlink:href="classlog4cplus_1_1helpers_1_1SharedObjectPtr.html" target="_top" xlink:title=" ">
<polygon fill="white" stroke="black" points="113.5,-238.5 113.5,-268.5 243.5,-268.5 243.5,-238.5 113.5,-238.5"/>
<text text-anchor="start" x="121.5" y="-256.5" font-family="'Souce Sans Pro', Roboto, FreeSans, sans-serif" font-size="10.00">log4cplus::helpers</text>
<text text-anchor="middle" x="178.5" y="-245.5" font-family="'Souce Sans Pro', Roboto, FreeSans, sans-serif" font-size="10.00">::SharedObjectPtr&lt; Filter &gt;</text>
</a>
</g>
</g>
<!-- Node7&#45;&gt;Node4 -->
<g id="edge6" class="edge">
<title>Node7&#45;&gt;Node4</title>
<path fill="none" stroke="#9a32cd" stroke-dasharray="5,2" d="M158.15,-230.76C145.59,-217.34 130.15,-200.85 120.83,-190.89"/>
<polygon fill="#9a32cd" stroke="#9a32cd" points="155.75,-233.33 165.14,-238.23 160.86,-228.54 155.75,-233.33"/>
<text text-anchor="middle" x="158.5" y="-212" font-family="'Souce Sans Pro', Roboto, FreeSans, sans-serif" font-size="10.00"> filter</text>
</g>
<!-- Node8 -->
<g id="node8" class="node">
<title>Node8</title>
<g id="a_node8"><a xlink:href="classlog4cplus_1_1helpers_1_1SharedObjectPtr.html" target="_top" xlink:title=" ">
<polygon fill="white" stroke="black" points="121.5,-316.5 121.5,-346.5 235.5,-346.5 235.5,-316.5 121.5,-316.5"/>
<text text-anchor="start" x="129.5" y="-334.5" font-family="'Souce Sans Pro', Roboto, FreeSans, sans-serif" font-size="10.00">log4cplus::helpers</text>
<text text-anchor="middle" x="178.5" y="-323.5" font-family="'Souce Sans Pro', Roboto, FreeSans, sans-serif" font-size="10.00">::SharedObjectPtr&lt; T &gt;</text>
</a>
</g>
</g>
<!-- Node8&#45;&gt;Node7 -->
<g id="edge7" class="edge">
<title>Node8&#45;&gt;Node7</title>
<path fill="none" stroke="orange" stroke-dasharray="5,2" d="M178.5,-306.09C178.5,-293.76 178.5,-279.22 178.5,-268.73"/>
<polygon fill="orange" stroke="orange" points="175,-306.2 178.5,-316.2 182,-306.21 175,-306.2"/>
<text text-anchor="middle" x="198.5" y="-290" font-family="'Souce Sans Pro', Roboto, FreeSans, sans-serif" font-size="10.00"> &lt; Filter &gt;</text>
</g>
</g>
</svg>
