<?xml version="1.0" encoding="UTF-8" standalone="no"?>
<!DOCTYPE svg PUBLIC "-//W3C//DTD SVG 1.1//EN"
 "http://www.w3.org/Graphics/SVG/1.1/DTD/svg11.dtd">
<!-- Generated by graphviz version 2.43.0 (0)
 -->
<!-- Title: log4cplus::thread::Queue Pages: 1 -->
<svg width="496pt" height="167pt"
 viewBox="0.00 0.00 496.00 166.50" xmlns="http://www.w3.org/2000/svg" xmlns:xlink="http://www.w3.org/1999/xlink">
<g id="graph0" class="graph" transform="scale(1 1) rotate(0) translate(4 162.5)">
<title>log4cplus::thread::Queue</title>
<polygon fill="white" stroke="transparent" points="-4,4 -4,-162.5 492,-162.5 492,4 -4,4"/>
<!-- Node1 -->
<g id="node1" class="node">
<title>Node1</title>
<g id="a_node1"><a xlink:title="Single consumer, multiple producers queue.">
<polygon fill="#bfbfbf" stroke="black" points="393,-73.5 393,-103.5 488,-103.5 488,-73.5 393,-73.5"/>
<text text-anchor="start" x="401" y="-91.5" font-family="'Souce Sans Pro', Roboto, FreeSans, sans-serif" font-size="10.00">log4cplus::thread::</text>
<text text-anchor="middle" x="440.5" y="-80.5" font-family="'Souce Sans Pro', Roboto, FreeSans, sans-serif" font-size="10.00">Queue</text>
</a>
</g>
</g>
<!-- Node2 -->
<g id="node2" class="node">
<title>Node2</title>
<g id="a_node2"><a xlink:href="classlog4cplus_1_1helpers_1_1SharedObject.html" target="_top" xlink:title=" ">
<polygon fill="white" stroke="black" points="199,-98.5 199,-128.5 294,-128.5 294,-98.5 199,-98.5"/>
<text text-anchor="start" x="207" y="-116.5" font-family="'Souce Sans Pro', Roboto, FreeSans, sans-serif" font-size="10.00">log4cplus::helpers</text>
<text text-anchor="middle" x="246.5" y="-105.5" font-family="'Souce Sans Pro', Roboto, FreeSans, sans-serif" font-size="10.00">::SharedObject</text>
</a>
</g>
</g>
<!-- Node2&#45;&gt;Node1 -->
<g id="edge1" class="edge">
<title>Node2&#45;&gt;Node1</title>
<path fill="none" stroke="midnightblue" d="M304.56,-106.07C332.65,-102.41 366.11,-98.06 392.68,-94.6"/>
<polygon fill="midnightblue" stroke="midnightblue" points="303.93,-102.62 294.47,-107.38 304.84,-109.56 303.93,-102.62"/>
</g>
<!-- Node3 -->
<g id="node3" class="node">
<title>Node3</title>
<g id="a_node3"><a xlink:href="classlog4cplus_1_1thread_1_1Mutex.html" target="_top" xlink:title=" ">
<polygon fill="white" stroke="black" points="0,-124.5 0,-154.5 95,-154.5 95,-124.5 0,-124.5"/>
<text text-anchor="start" x="8" y="-142.5" font-family="'Souce Sans Pro', Roboto, FreeSans, sans-serif" font-size="10.00">log4cplus::thread::</text>
<text text-anchor="middle" x="47.5" y="-131.5" font-family="'Souce Sans Pro', Roboto, FreeSans, sans-serif" font-size="10.00">Mutex</text>
</a>
</g>
</g>
<!-- Node3&#45;&gt;Node1 -->
<g id="edge4" class="edge">
<title>Node3&#45;&gt;Node1</title>
<path fill="none" stroke="#9a32cd" stroke-dasharray="5,2" d="M105.36,-144.15C107.94,-144.29 110.5,-144.4 113,-144.5 193.87,-147.63 215.26,-152.34 295,-138.5 331.57,-132.15 339.97,-126.79 375,-114.5 384.46,-111.18 394.56,-107.28 403.9,-103.53"/>
<polygon fill="#9a32cd" stroke="#9a32cd" points="105.52,-140.65 95.33,-143.56 105.11,-147.64 105.52,-140.65"/>
<text text-anchor="middle" x="246.5" y="-150.5" font-family="'Souce Sans Pro', Roboto, FreeSans, sans-serif" font-size="10.00"> mutex</text>
</g>
<!-- Node3&#45;&gt;Node2 -->
<g id="edge2" class="edge">
<title>Node3&#45;&gt;Node2</title>
<path fill="none" stroke="#9a32cd" stroke-dasharray="5,2" d="M105.39,-131.99C135.02,-128.08 170.82,-123.36 198.81,-119.66"/>
<polygon fill="#9a32cd" stroke="#9a32cd" points="104.64,-128.56 95.19,-133.34 105.56,-135.5 104.64,-128.56"/>
<text text-anchor="middle" x="146.5" y="-132.5" font-family="'Souce Sans Pro', Roboto, FreeSans, sans-serif" font-size="10.00"> access_mutex</text>
</g>
<!-- Node4 -->
<g id="node4" class="node">
<title>Node4</title>
<g id="a_node4"><a xlink:href="classlog4cplus_1_1thread_1_1Semaphore.html" target="_top" xlink:title=" ">
<polygon fill="white" stroke="black" points="199,-49.5 199,-79.5 294,-79.5 294,-49.5 199,-49.5"/>
<text text-anchor="start" x="207" y="-67.5" font-family="'Souce Sans Pro', Roboto, FreeSans, sans-serif" font-size="10.00">log4cplus::thread::</text>
<text text-anchor="middle" x="246.5" y="-56.5" font-family="'Souce Sans Pro', Roboto, FreeSans, sans-serif" font-size="10.00">Semaphore</text>
</a>
</g>
</g>
<!-- Node4&#45;&gt;Node1 -->
<g id="edge3" class="edge">
<title>Node4&#45;&gt;Node1</title>
<path fill="none" stroke="#9a32cd" stroke-dasharray="5,2" d="M304.43,-69.48C326.51,-71.62 351.97,-74.37 375,-77.5 380.74,-78.28 386.75,-79.19 392.7,-80.14"/>
<polygon fill="#9a32cd" stroke="#9a32cd" points="304.51,-65.97 294.22,-68.5 303.84,-72.94 304.51,-65.97"/>
<text text-anchor="middle" x="344" y="-80.5" font-family="'Souce Sans Pro', Roboto, FreeSans, sans-serif" font-size="10.00"> sem</text>
</g>
<!-- Node5 -->
<g id="node5" class="node">
<title>Node5</title>
<g id="a_node5"><a xlink:href="classlog4cplus_1_1thread_1_1ManualResetEvent.html" target="_top" xlink:title=" ">
<polygon fill="white" stroke="black" points="198,-0.5 198,-30.5 295,-30.5 295,-0.5 198,-0.5"/>
<text text-anchor="start" x="206" y="-18.5" font-family="'Souce Sans Pro', Roboto, FreeSans, sans-serif" font-size="10.00">log4cplus::thread::</text>
<text text-anchor="middle" x="246.5" y="-7.5" font-family="'Souce Sans Pro', Roboto, FreeSans, sans-serif" font-size="10.00">ManualResetEvent</text>
</a>
</g>
</g>
<!-- Node5&#45;&gt;Node1 -->
<g id="edge5" class="edge">
<title>Node5&#45;&gt;Node1</title>
<path fill="none" stroke="#9a32cd" stroke-dasharray="5,2" d="M304.74,-31.21C326.97,-37.89 352.46,-46.28 375,-55.5 387.69,-60.69 401.27,-67.45 412.67,-73.49"/>
<polygon fill="#9a32cd" stroke="#9a32cd" points="305.68,-27.84 295.1,-28.36 303.7,-34.55 305.68,-27.84"/>
<text text-anchor="middle" x="344" y="-58.5" font-family="'Souce Sans Pro', Roboto, FreeSans, sans-serif" font-size="10.00"> ev_consumer</text>
</g>
</g>
</svg>
