<?xml version="1.0" encoding="UTF-8" standalone="no"?>
<!DOCTYPE svg PUBLIC "-//W3C//DTD SVG 1.1//EN"
 "http://www.w3.org/Graphics/SVG/1.1/DTD/svg11.dtd">
<!-- Generated by graphviz version 2.43.0 (0)
 -->
<!-- Title: log4cplus::Logger Pages: 1 -->
<svg width="771pt" height="166pt"
 viewBox="0.00 0.00 771.00 166.00" xmlns="http://www.w3.org/2000/svg" xmlns:xlink="http://www.w3.org/1999/xlink">
<g id="graph0" class="graph" transform="scale(1 1) rotate(0) translate(4 162)">
<title>log4cplus::Logger</title>
<polygon fill="white" stroke="transparent" points="-4,4 -4,-162 767,-162 767,4 -4,4"/>
<!-- Node1 -->
<g id="node1" class="node">
<title>Node1</title>
<g id="a_node1"><a xlink:title="This is the central class in the log4cplus package.">
<polygon fill="#bfbfbf" stroke="black" points="669,-126 669,-145 763,-145 763,-126 669,-126"/>
<text text-anchor="middle" x="716" y="-133" font-family="'Souce Sans Pro', Roboto, FreeSans, sans-serif" font-size="10.00">log4cplus::Logger</text>
</a>
</g>
</g>
<!-- Node2 -->
<g id="node2" class="node">
<title>Node2</title>
<g id="a_node2"><a xlink:href="classlog4cplus_1_1spi_1_1AppenderAttachable.html" target="_top" xlink:title="This Interface is for attaching Appenders to objects.">
<polygon fill="white" stroke="black" points="0,-127.5 0,-157.5 123,-157.5 123,-127.5 0,-127.5"/>
<text text-anchor="start" x="8" y="-145.5" font-family="'Souce Sans Pro', Roboto, FreeSans, sans-serif" font-size="10.00">log4cplus::spi::Appender</text>
<text text-anchor="middle" x="61.5" y="-134.5" font-family="'Souce Sans Pro', Roboto, FreeSans, sans-serif" font-size="10.00">Attachable</text>
</a>
</g>
</g>
<!-- Node2&#45;&gt;Node1 -->
<g id="edge1" class="edge">
<title>Node2&#45;&gt;Node1</title>
<path fill="none" stroke="midnightblue" d="M133.5,-142.73C164.64,-142.77 201.64,-142.74 235,-142.5 394.18,-141.34 583.03,-138.01 668.67,-136.4"/>
<polygon fill="midnightblue" stroke="midnightblue" points="133.18,-139.23 123.17,-142.72 133.17,-146.23 133.18,-139.23"/>
</g>
<!-- Node6 -->
<g id="node6" class="node">
<title>Node6</title>
<g id="a_node6"><a xlink:href="classlog4cplus_1_1helpers_1_1AppenderAttachableImpl.html" target="_top" xlink:title="This Interface is for attaching Appenders to objects.">
<polygon fill="white" stroke="black" points="267,-98.5 267,-128.5 397,-128.5 397,-98.5 267,-98.5"/>
<text text-anchor="start" x="275" y="-116.5" font-family="'Souce Sans Pro', Roboto, FreeSans, sans-serif" font-size="10.00">log4cplus::helpers</text>
<text text-anchor="middle" x="332" y="-105.5" font-family="'Souce Sans Pro', Roboto, FreeSans, sans-serif" font-size="10.00">::AppenderAttachableImpl</text>
</a>
</g>
</g>
<!-- Node2&#45;&gt;Node6 -->
<g id="edge6" class="edge">
<title>Node2&#45;&gt;Node6</title>
<path fill="none" stroke="midnightblue" d="M133.12,-134.87C174.59,-130.39 226.6,-124.78 266.89,-120.42"/>
<polygon fill="midnightblue" stroke="midnightblue" points="132.66,-131.4 123.09,-135.96 133.41,-138.36 132.66,-131.4"/>
</g>
<!-- Node3 -->
<g id="node3" class="node">
<title>Node3</title>
<g id="a_node3"><a xlink:href="classlog4cplus_1_1spi_1_1LoggerImpl.html" target="_top" xlink:title="This is the central class in the log4cplus package.">
<polygon fill="white" stroke="black" points="477,-74 477,-93 608,-93 608,-74 477,-74"/>
<text text-anchor="middle" x="542.5" y="-81" font-family="'Souce Sans Pro', Roboto, FreeSans, sans-serif" font-size="10.00">log4cplus::spi::LoggerImpl</text>
</a>
</g>
</g>
<!-- Node3&#45;&gt;Node1 -->
<g id="edge2" class="edge">
<title>Node3&#45;&gt;Node1</title>
<path fill="none" stroke="#9a32cd" stroke-dasharray="5,2" d="M584.81,-96.03C615.14,-105.22 655.71,-117.52 683.45,-125.93"/>
<polygon fill="#9a32cd" stroke="#9a32cd" points="585.54,-92.59 574.96,-93.04 583.51,-99.29 585.54,-92.59"/>
<text text-anchor="middle" x="638.5" y="-118.5" font-family="'Souce Sans Pro', Roboto, FreeSans, sans-serif" font-size="10.00"> value</text>
</g>
<!-- Node4 -->
<g id="node4" class="node">
<title>Node4</title>
<g id="a_node4"><a xlink:href="classlog4cplus_1_1helpers_1_1SharedObject.html" target="_top" xlink:title=" ">
<polygon fill="white" stroke="black" points="284.5,-49.5 284.5,-79.5 379.5,-79.5 379.5,-49.5 284.5,-49.5"/>
<text text-anchor="start" x="292.5" y="-67.5" font-family="'Souce Sans Pro', Roboto, FreeSans, sans-serif" font-size="10.00">log4cplus::helpers</text>
<text text-anchor="middle" x="332" y="-56.5" font-family="'Souce Sans Pro', Roboto, FreeSans, sans-serif" font-size="10.00">::SharedObject</text>
</a>
</g>
</g>
<!-- Node4&#45;&gt;Node3 -->
<g id="edge3" class="edge">
<title>Node4&#45;&gt;Node3</title>
<path fill="none" stroke="midnightblue" d="M389.59,-69.66C416.57,-72.12 448.98,-75.07 476.93,-77.62"/>
<polygon fill="midnightblue" stroke="midnightblue" points="389.81,-66.16 379.53,-68.74 389.17,-73.13 389.81,-66.16"/>
</g>
<!-- Node5 -->
<g id="node5" class="node">
<title>Node5</title>
<g id="a_node5"><a xlink:href="classlog4cplus_1_1thread_1_1Mutex.html" target="_top" xlink:title=" ">
<polygon fill="white" stroke="black" points="14,-69.5 14,-99.5 109,-99.5 109,-69.5 14,-69.5"/>
<text text-anchor="start" x="22" y="-87.5" font-family="'Souce Sans Pro', Roboto, FreeSans, sans-serif" font-size="10.00">log4cplus::thread::</text>
<text text-anchor="middle" x="61.5" y="-76.5" font-family="'Souce Sans Pro', Roboto, FreeSans, sans-serif" font-size="10.00">Mutex</text>
</a>
</g>
</g>
<!-- Node5&#45;&gt;Node4 -->
<g id="edge4" class="edge">
<title>Node5&#45;&gt;Node4</title>
<path fill="none" stroke="#9a32cd" stroke-dasharray="5,2" d="M119.06,-70.86C126.41,-69.5 133.86,-68.32 141,-67.5 189.67,-61.9 245.81,-61.79 284.37,-62.68"/>
<polygon fill="#9a32cd" stroke="#9a32cd" points="118.29,-67.45 109.15,-72.81 119.64,-74.32 118.29,-67.45"/>
<text text-anchor="middle" x="188" y="-70.5" font-family="'Souce Sans Pro', Roboto, FreeSans, sans-serif" font-size="10.00"> access_mutex</text>
</g>
<!-- Node5&#45;&gt;Node6 -->
<g id="edge7" class="edge">
<title>Node5&#45;&gt;Node6</title>
<path fill="none" stroke="#9a32cd" stroke-dasharray="5,2" d="M119.33,-90.64C162.54,-95.31 222.01,-101.73 266.92,-106.58"/>
<polygon fill="#9a32cd" stroke="#9a32cd" points="119.59,-87.15 109.27,-89.55 118.84,-94.11 119.59,-87.15"/>
<text text-anchor="middle" x="188" y="-104.5" font-family="'Souce Sans Pro', Roboto, FreeSans, sans-serif" font-size="10.00"> appender_list_mutex</text>
</g>
<!-- Node6&#45;&gt;Node3 -->
<g id="edge5" class="edge">
<title>Node6&#45;&gt;Node3</title>
<path fill="none" stroke="midnightblue" d="M407.19,-102.83C429.9,-99.56 454.7,-95.99 476.74,-92.82"/>
<polygon fill="midnightblue" stroke="midnightblue" points="406.66,-99.37 397.26,-104.25 407.65,-106.29 406.66,-99.37"/>
</g>
<!-- Node7 -->
<g id="node7" class="node">
<title>Node7</title>
<g id="a_node7"><a xlink:href="classlog4cplus_1_1helpers_1_1SharedObjectPtr.html" target="_top" xlink:title=" ">
<polygon fill="white" stroke="black" points="253,-0.5 253,-30.5 411,-30.5 411,-0.5 253,-0.5"/>
<text text-anchor="start" x="261" y="-18.5" font-family="'Souce Sans Pro', Roboto, FreeSans, sans-serif" font-size="10.00">log4cplus::helpers</text>
<text text-anchor="middle" x="332" y="-7.5" font-family="'Souce Sans Pro', Roboto, FreeSans, sans-serif" font-size="10.00">::SharedObjectPtr&lt; LoggerImpl &gt;</text>
</a>
</g>
</g>
<!-- Node7&#45;&gt;Node3 -->
<g id="edge8" class="edge">
<title>Node7&#45;&gt;Node3</title>
<path fill="none" stroke="#9a32cd" stroke-dasharray="5,2" d="M392.41,-33.6C398.69,-35.57 404.98,-37.56 411,-39.5 446.61,-50.98 487.45,-64.87 513.82,-73.93"/>
<polygon fill="#9a32cd" stroke="#9a32cd" points="393.17,-30.17 382.58,-30.54 391.08,-36.85 393.17,-30.17"/>
<text text-anchor="middle" x="444" y="-58.5" font-family="'Souce Sans Pro', Roboto, FreeSans, sans-serif" font-size="10.00"> parent</text>
</g>
<!-- Node8 -->
<g id="node8" class="node">
<title>Node8</title>
<g id="a_node8"><a xlink:href="classlog4cplus_1_1helpers_1_1SharedObjectPtr.html" target="_top" xlink:title=" ">
<polygon fill="white" stroke="black" points="4.5,-0.5 4.5,-30.5 118.5,-30.5 118.5,-0.5 4.5,-0.5"/>
<text text-anchor="start" x="12.5" y="-18.5" font-family="'Souce Sans Pro', Roboto, FreeSans, sans-serif" font-size="10.00">log4cplus::helpers</text>
<text text-anchor="middle" x="61.5" y="-7.5" font-family="'Souce Sans Pro', Roboto, FreeSans, sans-serif" font-size="10.00">::SharedObjectPtr&lt; T &gt;</text>
</a>
</g>
</g>
<!-- Node8&#45;&gt;Node7 -->
<g id="edge9" class="edge">
<title>Node8&#45;&gt;Node7</title>
<path fill="none" stroke="orange" stroke-dasharray="5,2" d="M129.1,-15.5C166.61,-15.5 213.65,-15.5 252.89,-15.5"/>
<polygon fill="orange" stroke="orange" points="128.79,-12 118.79,-15.5 128.79,-19 128.79,-12"/>
<text text-anchor="middle" x="188" y="-18.5" font-family="'Souce Sans Pro', Roboto, FreeSans, sans-serif" font-size="10.00"> &lt; LoggerImpl &gt;</text>
</g>
</g>
</svg>
