<?xml version="1.0" encoding="UTF-8" standalone="no"?>
<!DOCTYPE svg PUBLIC "-//W3C//DTD SVG 1.1//EN"
 "http://www.w3.org/Graphics/SVG/1.1/DTD/svg11.dtd">
<!-- Generated by graphviz version 2.43.0 (0)
 -->
<!-- Title: log4cplus::helpers::SharedObject Pages: 1 -->
<svg width="841pt" height="993pt"
 viewBox="0.00 0.00 841.00 992.50" xmlns="http://www.w3.org/2000/svg" xmlns:xlink="http://www.w3.org/1999/xlink">
<g id="graph0" class="graph" transform="scale(1 1) rotate(0) translate(4 988.5)">
<title>log4cplus::helpers::SharedObject</title>
<polygon fill="white" stroke="transparent" points="-4,4 -4,-988.5 837,-988.5 837,4 -4,4"/>
<!-- Node1 -->
<g id="node1" class="node">
<title>Node1</title>
<g id="a_node1"><a xlink:title=" ">
<polygon fill="#bfbfbf" stroke="black" points="0,-96.5 0,-126.5 95,-126.5 95,-96.5 0,-96.5"/>
<text text-anchor="start" x="8" y="-114.5" font-family="'Souce Sans Pro', Roboto, FreeSans, sans-serif" font-size="10.00">log4cplus::helpers</text>
<text text-anchor="middle" x="47.5" y="-103.5" font-family="'Souce Sans Pro', Roboto, FreeSans, sans-serif" font-size="10.00">::SharedObject</text>
</a>
</g>
</g>
<!-- Node2 -->
<g id="node2" class="node">
<title>Node2</title>
<g id="a_node2"><a xlink:href="classlog4cplus_1_1Appender.html" target="_top" xlink:title="Extend this class for implementing your own strategies for printing log statements.">
<polygon fill="white" stroke="black" points="143.5,-668 143.5,-687 249.5,-687 249.5,-668 143.5,-668"/>
<text text-anchor="middle" x="196.5" y="-675" font-family="'Souce Sans Pro', Roboto, FreeSans, sans-serif" font-size="10.00">log4cplus::Appender</text>
</a>
</g>
</g>
<!-- Node1&#45;&gt;Node2 -->
<g id="edge1" class="edge">
<title>Node1&#45;&gt;Node2</title>
<path fill="none" stroke="midnightblue" d="M54.98,-136.44C80.86,-236.08 176.25,-603.38 192.99,-667.82"/>
<polygon fill="midnightblue" stroke="midnightblue" points="58.33,-135.44 52.43,-126.64 51.56,-137.2 58.33,-135.44"/>
</g>
<!-- Node22 -->
<g id="node22" class="node">
<title>Node22</title>
<g id="a_node22"><a xlink:href="classlog4cplus_1_1spi_1_1Filter.html" target="_top" xlink:title="Users should extend this class to implement customized logging event filtering.">
<polygon fill="white" stroke="black" points="145.5,-216 145.5,-235 247.5,-235 247.5,-216 145.5,-216"/>
<text text-anchor="middle" x="196.5" y="-223" font-family="'Souce Sans Pro', Roboto, FreeSans, sans-serif" font-size="10.00">log4cplus::spi::Filter</text>
</a>
</g>
</g>
<!-- Node1&#45;&gt;Node22 -->
<g id="edge21" class="edge">
<title>Node1&#45;&gt;Node22</title>
<path fill="none" stroke="midnightblue" d="M76.13,-132.93C108.23,-157.82 159.79,-197.8 183.21,-215.97"/>
<polygon fill="midnightblue" stroke="midnightblue" points="78.07,-130 68.02,-126.64 73.78,-135.53 78.07,-130"/>
</g>
<!-- Node30 -->
<g id="node30" class="node">
<title>Node30</title>
<g id="a_node30"><a xlink:href="classlog4cplus_1_1spi_1_1LoggerImpl.html" target="_top" xlink:title="This is the central class in the log4cplus package.">
<polygon fill="white" stroke="black" points="131,-102 131,-121 262,-121 262,-102 131,-102"/>
<text text-anchor="middle" x="196.5" y="-109" font-family="'Souce Sans Pro', Roboto, FreeSans, sans-serif" font-size="10.00">log4cplus::spi::LoggerImpl</text>
</a>
</g>
</g>
<!-- Node1&#45;&gt;Node30 -->
<g id="edge29" class="edge">
<title>Node1&#45;&gt;Node30</title>
<path fill="none" stroke="midnightblue" d="M105.08,-111.5C113.48,-111.5 122.2,-111.5 130.76,-111.5"/>
<polygon fill="midnightblue" stroke="midnightblue" points="105.01,-108 95.01,-111.5 105.01,-115 105.01,-108"/>
</g>
<!-- Node32 -->
<g id="node32" class="node">
<title>Node32</title>
<g id="a_node32"><a xlink:href="classlog4cplus_1_1thread_1_1AbstractThread.html" target="_top" xlink:title="There are many cross&#45;platform C++ Threading libraries.">
<polygon fill="white" stroke="black" points="149,-52.5 149,-82.5 244,-82.5 244,-52.5 149,-52.5"/>
<text text-anchor="start" x="157" y="-70.5" font-family="'Souce Sans Pro', Roboto, FreeSans, sans-serif" font-size="10.00">log4cplus::thread::</text>
<text text-anchor="middle" x="196.5" y="-59.5" font-family="'Souce Sans Pro', Roboto, FreeSans, sans-serif" font-size="10.00">AbstractThread</text>
</a>
</g>
</g>
<!-- Node1&#45;&gt;Node32 -->
<g id="edge31" class="edge">
<title>Node1&#45;&gt;Node32</title>
<path fill="none" stroke="midnightblue" d="M104.87,-94.63C119.38,-90.28 134.83,-85.66 148.79,-81.48"/>
<polygon fill="midnightblue" stroke="midnightblue" points="103.59,-91.36 95.01,-97.58 105.6,-98.06 103.59,-91.36"/>
</g>
<!-- Node34 -->
<g id="node34" class="node">
<title>Node34</title>
<g id="a_node34"><a xlink:href="classlog4cplus_1_1thread_1_1Queue.html" target="_top" xlink:title="Single consumer, multiple producers queue.">
<polygon fill="white" stroke="black" points="149,-3.5 149,-33.5 244,-33.5 244,-3.5 149,-3.5"/>
<text text-anchor="start" x="157" y="-21.5" font-family="'Souce Sans Pro', Roboto, FreeSans, sans-serif" font-size="10.00">log4cplus::thread::</text>
<text text-anchor="middle" x="196.5" y="-10.5" font-family="'Souce Sans Pro', Roboto, FreeSans, sans-serif" font-size="10.00">Queue</text>
</a>
</g>
</g>
<!-- Node1&#45;&gt;Node34 -->
<g id="edge33" class="edge">
<title>Node1&#45;&gt;Node34</title>
<path fill="none" stroke="midnightblue" d="M71.44,-89.17C87.21,-74.71 109.17,-56.28 131,-43.5 137.22,-39.86 144.07,-36.55 150.9,-33.62"/>
<polygon fill="midnightblue" stroke="midnightblue" points="68.71,-86.93 63.79,-96.31 73.49,-92.05 68.71,-86.93"/>
</g>
<!-- Node3 -->
<g id="node3" class="node">
<title>Node3</title>
<g id="a_node3"><a xlink:href="classlog4cplus_1_1AsyncAppender.html" target="_top" xlink:title="This Appender is a wrapper to which other appenders can be attached.">
<polygon fill="white" stroke="black" points="316.5,-965 316.5,-984 449.5,-984 449.5,-965 316.5,-965"/>
<text text-anchor="middle" x="383" y="-972" font-family="'Souce Sans Pro', Roboto, FreeSans, sans-serif" font-size="10.00">log4cplus::AsyncAppender</text>
</a>
</g>
</g>
<!-- Node2&#45;&gt;Node3 -->
<g id="edge2" class="edge">
<title>Node2&#45;&gt;Node3</title>
<path fill="none" stroke="midnightblue" d="M198.44,-697.22C201.98,-748.26 218.77,-885.56 298,-955.5 303.38,-960.25 309.7,-963.89 316.41,-966.66"/>
<polygon fill="midnightblue" stroke="midnightblue" points="201.93,-696.96 197.84,-687.19 194.94,-697.38 201.93,-696.96"/>
</g>
<!-- Node4 -->
<g id="node4" class="node">
<title>Node4</title>
<g id="a_node4"><a xlink:href="classlog4cplus_1_1CLFSAppender.html" target="_top" xlink:title=" ">
<polygon fill="white" stroke="black" points="318.5,-927 318.5,-946 447.5,-946 447.5,-927 318.5,-927"/>
<text text-anchor="middle" x="383" y="-934" font-family="'Souce Sans Pro', Roboto, FreeSans, sans-serif" font-size="10.00">log4cplus::CLFSAppender</text>
</a>
</g>
</g>
<!-- Node2&#45;&gt;Node4 -->
<g id="edge3" class="edge">
<title>Node2&#45;&gt;Node4</title>
<path fill="none" stroke="midnightblue" d="M199.71,-697.27C205.97,-743.45 228.15,-858.86 298,-917.5 303.95,-922.5 310.96,-926.25 318.33,-929.06"/>
<polygon fill="midnightblue" stroke="midnightblue" points="203.15,-696.6 198.44,-687.11 196.21,-697.46 203.15,-696.6"/>
</g>
<!-- Node5 -->
<g id="node5" class="node">
<title>Node5</title>
<g id="a_node5"><a xlink:href="classlog4cplus_1_1CallbackAppender.html" target="_top" xlink:title="Send log events to a C function callback.">
<polygon fill="white" stroke="black" points="311.5,-889 311.5,-908 454.5,-908 454.5,-889 311.5,-889"/>
<text text-anchor="middle" x="383" y="-896" font-family="'Souce Sans Pro', Roboto, FreeSans, sans-serif" font-size="10.00">log4cplus::CallbackAppender</text>
</a>
</g>
</g>
<!-- Node2&#45;&gt;Node5 -->
<g id="edge4" class="edge">
<title>Node2&#45;&gt;Node5</title>
<path fill="none" stroke="midnightblue" d="M201.39,-697.18C210.53,-737.96 237.33,-831.85 298,-879.5 302.94,-883.38 308.52,-886.5 314.39,-889"/>
<polygon fill="midnightblue" stroke="midnightblue" points="204.81,-696.44 199.31,-687.38 197.96,-697.89 204.81,-696.44"/>
</g>
<!-- Node6 -->
<g id="node6" class="node">
<title>Node6</title>
<g id="a_node6"><a xlink:href="classlog4cplus_1_1ConsoleAppender.html" target="_top" xlink:title="ConsoleAppender appends log events to std::cout or std::cerr using a layout specified by the user.">
<polygon fill="white" stroke="black" points="311.5,-851 311.5,-870 454.5,-870 454.5,-851 311.5,-851"/>
<text text-anchor="middle" x="383" y="-858" font-family="'Souce Sans Pro', Roboto, FreeSans, sans-serif" font-size="10.00">log4cplus::ConsoleAppender</text>
</a>
</g>
</g>
<!-- Node2&#45;&gt;Node6 -->
<g id="edge5" class="edge">
<title>Node2&#45;&gt;Node6</title>
<path fill="none" stroke="midnightblue" d="M203.74,-697C215.92,-731.81 246.32,-804.47 298,-841.5 303.35,-845.33 309.34,-848.41 315.59,-850.87"/>
<polygon fill="midnightblue" stroke="midnightblue" points="206.92,-695.48 200.42,-687.12 200.28,-697.71 206.92,-695.48"/>
</g>
<!-- Node7 -->
<g id="node7" class="node">
<title>Node7</title>
<g id="a_node7"><a xlink:href="classlog4cplus_1_1DeviceAppender.html" target="_top" xlink:title=" ">
<polygon fill="white" stroke="black" points="315.5,-801.5 315.5,-831.5 450.5,-831.5 450.5,-801.5 315.5,-801.5"/>
<text text-anchor="start" x="323.5" y="-819.5" font-family="'Souce Sans Pro', Roboto, FreeSans, sans-serif" font-size="10.00">log4cplus::DeviceAppender</text>
<text text-anchor="middle" x="383" y="-808.5" font-family="'Souce Sans Pro', Roboto, FreeSans, sans-serif" font-size="10.00">&lt; Device &gt;</text>
</a>
</g>
</g>
<!-- Node2&#45;&gt;Node7 -->
<g id="edge6" class="edge">
<title>Node2&#45;&gt;Node7</title>
<path fill="none" stroke="midnightblue" d="M208.72,-695.66C225.21,-720.85 258.38,-766.17 298,-791.5 304.03,-795.35 310.67,-798.63 317.5,-801.42"/>
<polygon fill="midnightblue" stroke="midnightblue" points="211.57,-693.61 203.24,-687.07 205.67,-697.38 211.57,-693.61"/>
</g>
<!-- Node8 -->
<g id="node8" class="node">
<title>Node8</title>
<g id="a_node8"><a xlink:href="classlog4cplus_1_1FileAppenderBase.html" target="_top" xlink:title="Base class for Appenders writing log events to a file.">
<polygon fill="white" stroke="black" points="311.5,-763 311.5,-782 454.5,-782 454.5,-763 311.5,-763"/>
<text text-anchor="middle" x="383" y="-770" font-family="'Souce Sans Pro', Roboto, FreeSans, sans-serif" font-size="10.00">log4cplus::FileAppenderBase</text>
</a>
</g>
</g>
<!-- Node2&#45;&gt;Node8 -->
<g id="edge7" class="edge">
<title>Node2&#45;&gt;Node8</title>
<path fill="none" stroke="midnightblue" d="M214.59,-694.11C233.46,-711.52 265.51,-738.4 298,-753.5 306.27,-757.34 315.37,-760.43 324.43,-762.91"/>
<polygon fill="midnightblue" stroke="midnightblue" points="216.79,-691.38 207.11,-687.07 211.99,-696.47 216.79,-691.38"/>
</g>
<!-- Node13 -->
<g id="node13" class="node">
<title>Node13</title>
<g id="a_node13"><a xlink:href="classlog4cplus_1_1Log4jUdpAppender.html" target="_top" xlink:title="Sends log events as Log4j XML to a remote a log server.">
<polygon fill="white" stroke="black" points="309,-725 309,-744 457,-744 457,-725 309,-725"/>
<text text-anchor="middle" x="383" y="-732" font-family="'Souce Sans Pro', Roboto, FreeSans, sans-serif" font-size="10.00">log4cplus::Log4jUdpAppender</text>
</a>
</g>
</g>
<!-- Node2&#45;&gt;Node13 -->
<g id="edge12" class="edge">
<title>Node2&#45;&gt;Node13</title>
<path fill="none" stroke="midnightblue" d="M229.3,-690.82C248.87,-698.7 274.62,-708.47 298,-715.5 309.74,-719.03 322.58,-722.25 334.61,-724.99"/>
<polygon fill="midnightblue" stroke="midnightblue" points="230.52,-687.54 219.94,-687.01 227.88,-694.03 230.52,-687.54"/>
</g>
<!-- Node14 -->
<g id="node14" class="node">
<title>Node14</title>
<g id="a_node14"><a xlink:href="classlog4cplus_1_1MSTTSAppender.html" target="_top" xlink:title=" ">
<polygon fill="white" stroke="black" points="313.5,-687 313.5,-706 452.5,-706 452.5,-687 313.5,-687"/>
<text text-anchor="middle" x="383" y="-694" font-family="'Souce Sans Pro', Roboto, FreeSans, sans-serif" font-size="10.00">log4cplus::MSTTSAppender</text>
</a>
</g>
</g>
<!-- Node2&#45;&gt;Node14 -->
<g id="edge13" class="edge">
<title>Node2&#45;&gt;Node14</title>
<path fill="none" stroke="midnightblue" d="M260.28,-683.97C277.34,-685.72 295.91,-687.63 313.28,-689.42"/>
<polygon fill="midnightblue" stroke="midnightblue" points="260.18,-680.44 249.88,-682.89 259.47,-687.4 260.18,-680.44"/>
</g>
<!-- Node15 -->
<g id="node15" class="node">
<title>Node15</title>
<g id="a_node15"><a xlink:href="classlog4cplus_1_1NTEventLogAppender.html" target="_top" xlink:title="Appends log events to NT EventLog.">
<polygon fill="white" stroke="black" points="304,-649 304,-668 462,-668 462,-649 304,-649"/>
<text text-anchor="middle" x="383" y="-656" font-family="'Souce Sans Pro', Roboto, FreeSans, sans-serif" font-size="10.00">log4cplus::NTEventLogAppender</text>
</a>
</g>
</g>
<!-- Node2&#45;&gt;Node15 -->
<g id="edge14" class="edge">
<title>Node2&#45;&gt;Node15</title>
<path fill="none" stroke="midnightblue" d="M259.97,-671.07C274.11,-669.61 289.3,-668.05 304,-666.53"/>
<polygon fill="midnightblue" stroke="midnightblue" points="259.47,-667.6 249.88,-672.11 260.18,-674.56 259.47,-667.6"/>
</g>
<!-- Node16 -->
<g id="node16" class="node">
<title>Node16</title>
<g id="a_node16"><a xlink:href="classlog4cplus_1_1NullAppender.html" target="_top" xlink:title="Appends log events to a file.">
<polygon fill="white" stroke="black" points="321.5,-611 321.5,-630 444.5,-630 444.5,-611 321.5,-611"/>
<text text-anchor="middle" x="383" y="-618" font-family="'Souce Sans Pro', Roboto, FreeSans, sans-serif" font-size="10.00">log4cplus::NullAppender</text>
</a>
</g>
</g>
<!-- Node2&#45;&gt;Node16 -->
<g id="edge15" class="edge">
<title>Node2&#45;&gt;Node16</title>
<path fill="none" stroke="midnightblue" d="M229.3,-664.18C248.87,-656.3 274.62,-646.53 298,-639.5 309.74,-635.97 322.58,-632.75 334.61,-630.01"/>
<polygon fill="midnightblue" stroke="midnightblue" points="227.88,-660.97 219.94,-667.99 230.52,-667.46 227.88,-660.97"/>
</g>
<!-- Node17 -->
<g id="node17" class="node">
<title>Node17</title>
<g id="a_node17"><a xlink:href="classlog4cplus_1_1Qt4DebugAppender.html" target="_top" xlink:title=" ">
<polygon fill="white" stroke="black" points="308.5,-573 308.5,-592 457.5,-592 457.5,-573 308.5,-573"/>
<text text-anchor="middle" x="383" y="-580" font-family="'Souce Sans Pro', Roboto, FreeSans, sans-serif" font-size="10.00">log4cplus::Qt4DebugAppender</text>
</a>
</g>
</g>
<!-- Node2&#45;&gt;Node17 -->
<g id="edge16" class="edge">
<title>Node2&#45;&gt;Node17</title>
<path fill="none" stroke="midnightblue" d="M214.59,-660.89C233.46,-643.48 265.51,-616.6 298,-601.5 306.27,-597.66 315.37,-594.57 324.43,-592.09"/>
<polygon fill="midnightblue" stroke="midnightblue" points="211.99,-658.53 207.11,-667.93 216.79,-663.62 211.99,-658.53"/>
</g>
<!-- Node18 -->
<g id="node18" class="node">
<title>Node18</title>
<g id="a_node18"><a xlink:href="classlog4cplus_1_1Qt5DebugAppender.html" target="_top" xlink:title=" ">
<polygon fill="white" stroke="black" points="308.5,-535 308.5,-554 457.5,-554 457.5,-535 308.5,-535"/>
<text text-anchor="middle" x="383" y="-542" font-family="'Souce Sans Pro', Roboto, FreeSans, sans-serif" font-size="10.00">log4cplus::Qt5DebugAppender</text>
</a>
</g>
</g>
<!-- Node2&#45;&gt;Node18 -->
<g id="edge17" class="edge">
<title>Node2&#45;&gt;Node18</title>
<path fill="none" stroke="midnightblue" d="M208.49,-658.97C224.71,-633.33 257.55,-587.49 298,-563.5 304.56,-559.61 311.84,-556.52 319.29,-554.05"/>
<polygon fill="midnightblue" stroke="midnightblue" points="205.37,-657.37 203.11,-667.72 211.33,-661.04 205.37,-657.37"/>
</g>
<!-- Node19 -->
<g id="node19" class="node">
<title>Node19</title>
<g id="a_node19"><a xlink:href="classlog4cplus_1_1SocketAppender.html" target="_top" xlink:title="Sends spi::InternalLoggingEvent objects to a remote a log server.">
<polygon fill="white" stroke="black" points="314.5,-497 314.5,-516 451.5,-516 451.5,-497 314.5,-497"/>
<text text-anchor="middle" x="383" y="-504" font-family="'Souce Sans Pro', Roboto, FreeSans, sans-serif" font-size="10.00">log4cplus::SocketAppender</text>
</a>
</g>
</g>
<!-- Node2&#45;&gt;Node19 -->
<g id="edge18" class="edge">
<title>Node2&#45;&gt;Node19</title>
<path fill="none" stroke="midnightblue" d="M204.7,-658.06C217.88,-625.27 249.12,-559.26 298,-525.5 303.54,-521.68 309.72,-518.61 316.16,-516.15"/>
<polygon fill="midnightblue" stroke="midnightblue" points="201.27,-657.22 200.92,-667.81 207.79,-659.75 201.27,-657.22"/>
</g>
<!-- Node20 -->
<g id="node20" class="node">
<title>Node20</title>
<g id="a_node20"><a xlink:href="classlog4cplus_1_1SysLogAppender.html" target="_top" xlink:title="Appends log events to a file.">
<polygon fill="white" stroke="black" points="314,-459 314,-478 452,-478 452,-459 314,-459"/>
<text text-anchor="middle" x="383" y="-466" font-family="'Souce Sans Pro', Roboto, FreeSans, sans-serif" font-size="10.00">log4cplus::SysLogAppender</text>
</a>
</g>
</g>
<!-- Node2&#45;&gt;Node20 -->
<g id="edge19" class="edge">
<title>Node2&#45;&gt;Node20</title>
<path fill="none" stroke="midnightblue" d="M202.03,-657.93C212.1,-618.99 240.16,-531.78 298,-487.5 302.99,-483.68 308.6,-480.61 314.49,-478.13"/>
<polygon fill="midnightblue" stroke="midnightblue" points="198.6,-657.21 199.61,-667.76 205.4,-658.88 198.6,-657.21"/>
</g>
<!-- Node21 -->
<g id="node21" class="node">
<title>Node21</title>
<g id="a_node21"><a xlink:href="classlog4cplus_1_1Win32ConsoleAppender.html" target="_top" xlink:title="Prints events to Win32 console.">
<polygon fill="white" stroke="black" points="298,-421 298,-440 468,-440 468,-421 298,-421"/>
<text text-anchor="middle" x="383" y="-428" font-family="'Souce Sans Pro', Roboto, FreeSans, sans-serif" font-size="10.00">log4cplus::Win32ConsoleAppender</text>
</a>
</g>
</g>
<!-- Node2&#45;&gt;Node21 -->
<g id="edge20" class="edge">
<title>Node2&#45;&gt;Node21</title>
<path fill="none" stroke="midnightblue" d="M200.18,-657.8C207.32,-613.31 231.04,-504.66 298,-449.5 302.62,-445.7 307.84,-442.62 313.37,-440.13"/>
<polygon fill="midnightblue" stroke="midnightblue" points="196.69,-657.48 198.67,-667.88 203.61,-658.51 196.69,-657.48"/>
</g>
<!-- Node9 -->
<g id="node9" class="node">
<title>Node9</title>
<g id="a_node9"><a xlink:href="classlog4cplus_1_1FileAppender.html" target="_top" xlink:title="Appends log events to a file.">
<polygon fill="white" stroke="black" points="515,-785 515,-804 636,-804 636,-785 515,-785"/>
<text text-anchor="middle" x="575.5" y="-792" font-family="'Souce Sans Pro', Roboto, FreeSans, sans-serif" font-size="10.00">log4cplus::FileAppender</text>
</a>
</g>
</g>
<!-- Node8&#45;&gt;Node9 -->
<g id="edge8" class="edge">
<title>Node8&#45;&gt;Node9</title>
<path fill="none" stroke="midnightblue" d="M464.99,-781.85C481.73,-783.79 499.07,-785.79 514.88,-787.61"/>
<polygon fill="midnightblue" stroke="midnightblue" points="465,-778.33 454.66,-780.66 464.2,-785.28 465,-778.33"/>
</g>
<!-- Node12 -->
<g id="node12" class="node">
<title>Node12</title>
<g id="a_node12"><a xlink:href="classlog4cplus_1_1TimeBasedRollingFileAppender.html" target="_top" xlink:title="TimeBasedRollingFileAppender extends FileAppenderBase so that the underlying file is rolled over at a...">
<polygon fill="white" stroke="black" points="504,-735.5 504,-765.5 647,-765.5 647,-735.5 504,-735.5"/>
<text text-anchor="start" x="512" y="-753.5" font-family="'Souce Sans Pro', Roboto, FreeSans, sans-serif" font-size="10.00">log4cplus::TimeBasedRolling</text>
<text text-anchor="middle" x="575.5" y="-742.5" font-family="'Souce Sans Pro', Roboto, FreeSans, sans-serif" font-size="10.00">FileAppender</text>
</a>
</g>
</g>
<!-- Node8&#45;&gt;Node12 -->
<g id="edge11" class="edge">
<title>Node8&#45;&gt;Node12</title>
<path fill="none" stroke="midnightblue" d="M464.96,-763.15C477.93,-761.65 491.25,-760.11 503.95,-758.65"/>
<polygon fill="midnightblue" stroke="midnightblue" points="464.2,-759.72 454.66,-764.34 465,-766.67 464.2,-759.72"/>
</g>
<!-- Node10 -->
<g id="node10" class="node">
<title>Node10</title>
<g id="a_node10"><a xlink:href="classlog4cplus_1_1DailyRollingFileAppender.html" target="_top" xlink:title="DailyRollingFileAppender extends FileAppender so that the underlying file is rolled over at a user ch...">
<polygon fill="white" stroke="black" points="694,-801.5 694,-831.5 822,-831.5 822,-801.5 694,-801.5"/>
<text text-anchor="start" x="702" y="-819.5" font-family="'Souce Sans Pro', Roboto, FreeSans, sans-serif" font-size="10.00">log4cplus::DailyRollingFile</text>
<text text-anchor="middle" x="758" y="-808.5" font-family="'Souce Sans Pro', Roboto, FreeSans, sans-serif" font-size="10.00">Appender</text>
</a>
</g>
</g>
<!-- Node9&#45;&gt;Node10 -->
<g id="edge9" class="edge">
<title>Node9&#45;&gt;Node10</title>
<path fill="none" stroke="midnightblue" d="M646.23,-803C661.87,-804.91 678.38,-806.92 693.74,-808.79"/>
<polygon fill="midnightblue" stroke="midnightblue" points="646.45,-799.5 636.1,-801.76 645.61,-806.45 646.45,-799.5"/>
</g>
<!-- Node11 -->
<g id="node11" class="node">
<title>Node11</title>
<g id="a_node11"><a xlink:href="classlog4cplus_1_1RollingFileAppender.html" target="_top" xlink:title="RollingFileAppender extends FileAppender to backup the log files when they reach a certain size.">
<polygon fill="white" stroke="black" points="683,-763 683,-782 833,-782 833,-763 683,-763"/>
<text text-anchor="middle" x="758" y="-770" font-family="'Souce Sans Pro', Roboto, FreeSans, sans-serif" font-size="10.00">log4cplus::RollingFileAppender</text>
</a>
</g>
</g>
<!-- Node9&#45;&gt;Node11 -->
<g id="edge10" class="edge">
<title>Node9&#45;&gt;Node11</title>
<path fill="none" stroke="midnightblue" d="M646.1,-786.02C658.18,-784.54 670.78,-783.01 682.97,-781.52"/>
<polygon fill="midnightblue" stroke="midnightblue" points="645.61,-782.55 636.1,-787.24 646.45,-789.5 645.61,-782.55"/>
</g>
<!-- Node23 -->
<g id="node23" class="node">
<title>Node23</title>
<g id="a_node23"><a xlink:href="classlog4cplus_1_1spi_1_1DenyAllFilter.html" target="_top" xlink:title="This filter drops all logging events.">
<polygon fill="white" stroke="black" points="315.5,-383 315.5,-402 450.5,-402 450.5,-383 315.5,-383"/>
<text text-anchor="middle" x="383" y="-390" font-family="'Souce Sans Pro', Roboto, FreeSans, sans-serif" font-size="10.00">log4cplus::spi::DenyAllFilter</text>
</a>
</g>
</g>
<!-- Node22&#45;&gt;Node23 -->
<g id="edge22" class="edge">
<title>Node22&#45;&gt;Node23</title>
<path fill="none" stroke="midnightblue" d="M205.04,-244.89C218.55,-276.98 250.04,-340.81 298,-373.5 303.68,-377.37 310.04,-380.47 316.63,-382.94"/>
<polygon fill="midnightblue" stroke="midnightblue" points="208.15,-243.27 201.14,-235.32 201.67,-245.9 208.15,-243.27"/>
</g>
<!-- Node24 -->
<g id="node24" class="node">
<title>Node24</title>
<g id="a_node24"><a xlink:href="classlog4cplus_1_1spi_1_1FunctionFilter.html" target="_top" xlink:title="This filter allows using std::function&lt;FilterResult(const InternalLoggingEvent &amp;)&gt;.">
<polygon fill="white" stroke="black" points="324,-333.5 324,-363.5 442,-363.5 442,-333.5 324,-333.5"/>
<text text-anchor="start" x="332" y="-351.5" font-family="'Souce Sans Pro', Roboto, FreeSans, sans-serif" font-size="10.00">log4cplus::spi::Function</text>
<text text-anchor="middle" x="383" y="-340.5" font-family="'Souce Sans Pro', Roboto, FreeSans, sans-serif" font-size="10.00">Filter</text>
</a>
</g>
</g>
<!-- Node22&#45;&gt;Node24 -->
<g id="edge23" class="edge">
<title>Node22&#45;&gt;Node24</title>
<path fill="none" stroke="midnightblue" d="M210.79,-243.23C228.36,-265.43 261.39,-303.15 298,-324.5 305.99,-329.16 314.94,-332.96 323.95,-336.05"/>
<polygon fill="midnightblue" stroke="midnightblue" points="213.53,-241.05 204.64,-235.28 207.99,-245.33 213.53,-241.05"/>
</g>
<!-- Node25 -->
<g id="node25" class="node">
<title>Node25</title>
<g id="a_node25"><a xlink:href="classlog4cplus_1_1spi_1_1LogLevelMatchFilter.html" target="_top" xlink:title="This is a very simple filter based on LogLevel matching.">
<polygon fill="white" stroke="black" points="323.5,-284.5 323.5,-314.5 442.5,-314.5 442.5,-284.5 323.5,-284.5"/>
<text text-anchor="start" x="331.5" y="-302.5" font-family="'Souce Sans Pro', Roboto, FreeSans, sans-serif" font-size="10.00">log4cplus::spi::LogLevel</text>
<text text-anchor="middle" x="383" y="-291.5" font-family="'Souce Sans Pro', Roboto, FreeSans, sans-serif" font-size="10.00">MatchFilter</text>
</a>
</g>
</g>
<!-- Node22&#45;&gt;Node25 -->
<g id="edge24" class="edge">
<title>Node22&#45;&gt;Node25</title>
<path fill="none" stroke="midnightblue" d="M223.28,-239.97C243.24,-250.77 271.81,-265.34 298,-275.5 306.34,-278.74 315.3,-281.75 324.15,-284.49"/>
<polygon fill="midnightblue" stroke="midnightblue" points="224.95,-236.89 214.49,-235.16 221.58,-243.03 224.95,-236.89"/>
</g>
<!-- Node26 -->
<g id="node26" class="node">
<title>Node26</title>
<g id="a_node26"><a xlink:href="classlog4cplus_1_1spi_1_1LogLevelRangeFilter.html" target="_top" xlink:title="This is a very simple filter based on LogLevel matching, which can be used to reject messages with Lo...">
<polygon fill="white" stroke="black" points="323.5,-235.5 323.5,-265.5 442.5,-265.5 442.5,-235.5 323.5,-235.5"/>
<text text-anchor="start" x="331.5" y="-253.5" font-family="'Souce Sans Pro', Roboto, FreeSans, sans-serif" font-size="10.00">log4cplus::spi::LogLevel</text>
<text text-anchor="middle" x="383" y="-242.5" font-family="'Souce Sans Pro', Roboto, FreeSans, sans-serif" font-size="10.00">RangeFilter</text>
</a>
</g>
</g>
<!-- Node22&#45;&gt;Node26 -->
<g id="edge25" class="edge">
<title>Node22&#45;&gt;Node26</title>
<path fill="none" stroke="midnightblue" d="M258.02,-233.7C279.06,-236.55 302.61,-239.74 323.48,-242.57"/>
<polygon fill="midnightblue" stroke="midnightblue" points="258.29,-230.21 247.92,-232.33 257.35,-237.14 258.29,-230.21"/>
</g>
<!-- Node27 -->
<g id="node27" class="node">
<title>Node27</title>
<g id="a_node27"><a xlink:href="classlog4cplus_1_1spi_1_1MDCMatchFilter.html" target="_top" xlink:title="This is a simple filter based on the key/value pair stored in MDC.">
<polygon fill="white" stroke="black" points="317.5,-186.5 317.5,-216.5 448.5,-216.5 448.5,-186.5 317.5,-186.5"/>
<text text-anchor="start" x="325.5" y="-204.5" font-family="'Souce Sans Pro', Roboto, FreeSans, sans-serif" font-size="10.00">log4cplus::spi::MDCMatch</text>
<text text-anchor="middle" x="383" y="-193.5" font-family="'Souce Sans Pro', Roboto, FreeSans, sans-serif" font-size="10.00">Filter</text>
</a>
</g>
</g>
<!-- Node22&#45;&gt;Node27 -->
<g id="edge26" class="edge">
<title>Node22&#45;&gt;Node27</title>
<path fill="none" stroke="midnightblue" d="M257.96,-217.64C277,-215.16 298.1,-212.41 317.42,-209.9"/>
<polygon fill="midnightblue" stroke="midnightblue" points="257.38,-214.18 247.92,-218.94 258.28,-221.12 257.38,-214.18"/>
</g>
<!-- Node28 -->
<g id="node28" class="node">
<title>Node28</title>
<g id="a_node28"><a xlink:href="classlog4cplus_1_1spi_1_1NDCMatchFilter.html" target="_top" xlink:title="This is a simple filter based on the string returned by event.getNDC().">
<polygon fill="white" stroke="black" points="318.5,-137.5 318.5,-167.5 447.5,-167.5 447.5,-137.5 318.5,-137.5"/>
<text text-anchor="start" x="326.5" y="-155.5" font-family="'Souce Sans Pro', Roboto, FreeSans, sans-serif" font-size="10.00">log4cplus::spi::NDCMatch</text>
<text text-anchor="middle" x="383" y="-144.5" font-family="'Souce Sans Pro', Roboto, FreeSans, sans-serif" font-size="10.00">Filter</text>
</a>
</g>
</g>
<!-- Node22&#45;&gt;Node28 -->
<g id="edge27" class="edge">
<title>Node22&#45;&gt;Node28</title>
<path fill="none" stroke="midnightblue" d="M224.38,-211.25C244.34,-201.01 272.41,-187.35 298,-177.5 307.23,-173.95 317.19,-170.59 326.91,-167.55"/>
<polygon fill="midnightblue" stroke="midnightblue" points="222.55,-208.25 215.28,-215.96 225.77,-214.47 222.55,-208.25"/>
</g>
<!-- Node29 -->
<g id="node29" class="node">
<title>Node29</title>
<g id="a_node29"><a xlink:href="classlog4cplus_1_1spi_1_1StringMatchFilter.html" target="_top" xlink:title="This is a very simple filter based on string matching.">
<polygon fill="white" stroke="black" points="316,-88.5 316,-118.5 450,-118.5 450,-88.5 316,-88.5"/>
<text text-anchor="start" x="324" y="-106.5" font-family="'Souce Sans Pro', Roboto, FreeSans, sans-serif" font-size="10.00">log4cplus::spi::StringMatch</text>
<text text-anchor="middle" x="383" y="-95.5" font-family="'Souce Sans Pro', Roboto, FreeSans, sans-serif" font-size="10.00">Filter</text>
</a>
</g>
</g>
<!-- Node22&#45;&gt;Node29 -->
<g id="edge28" class="edge">
<title>Node22&#45;&gt;Node29</title>
<path fill="none" stroke="midnightblue" d="M211.14,-207.92C228.89,-186.2 261.93,-149.56 298,-128.5 304.57,-124.66 311.78,-121.37 319.12,-118.56"/>
<polygon fill="midnightblue" stroke="midnightblue" points="208.22,-205.97 204.71,-215.96 213.69,-210.34 208.22,-205.97"/>
</g>
<!-- Node31 -->
<g id="node31" class="node">
<title>Node31</title>
<g id="a_node31"><a xlink:href="classlog4cplus_1_1spi_1_1RootLogger.html" target="_top" xlink:title="RootLogger sits at the top of the logger hierachy.">
<polygon fill="white" stroke="black" points="317,-50 317,-69 449,-69 449,-50 317,-50"/>
<text text-anchor="middle" x="383" y="-57" font-family="'Souce Sans Pro', Roboto, FreeSans, sans-serif" font-size="10.00">log4cplus::spi::RootLogger</text>
</a>
</g>
</g>
<!-- Node30&#45;&gt;Node31 -->
<g id="edge30" class="edge">
<title>Node30&#45;&gt;Node31</title>
<path fill="none" stroke="midnightblue" d="M241.4,-98.95C248.31,-96.87 255.37,-94.67 262,-92.5 278.17,-87.21 281.7,-84.37 298,-79.5 310.78,-75.68 324.83,-72.1 337.72,-69.06"/>
<polygon fill="midnightblue" stroke="midnightblue" points="240.01,-95.71 231.43,-101.92 242.01,-102.42 240.01,-95.71"/>
</g>
<!-- Node33 -->
<g id="node33" class="node">
<title>Node33</title>
<g id="a_node33"><a xlink:href="classlog4cplus_1_1helpers_1_1ConnectorThread.html" target="_top" xlink:title="This class is used by SocketAppender and (remote) SysLogAppender to provide asynchronous re&#45;connectio...">
<polygon fill="white" stroke="black" points="334,-0.5 334,-30.5 432,-30.5 432,-0.5 334,-0.5"/>
<text text-anchor="start" x="342" y="-18.5" font-family="'Souce Sans Pro', Roboto, FreeSans, sans-serif" font-size="10.00">log4cplus::helpers</text>
<text text-anchor="middle" x="383" y="-7.5" font-family="'Souce Sans Pro', Roboto, FreeSans, sans-serif" font-size="10.00">::ConnectorThread</text>
</a>
</g>
</g>
<!-- Node32&#45;&gt;Node33 -->
<g id="edge32" class="edge">
<title>Node32&#45;&gt;Node33</title>
<path fill="none" stroke="midnightblue" d="M253.98,-51.58C279.52,-44.38 309.39,-35.97 333.85,-29.07"/>
<polygon fill="midnightblue" stroke="midnightblue" points="252.73,-48.3 244.06,-54.38 254.63,-55.03 252.73,-48.3"/>
</g>
</g>
</svg>
