<?xml version="1.0" encoding="UTF-8" standalone="no"?>
<!DOCTYPE svg PUBLIC "-//W3C//DTD SVG 1.1//EN"
 "http://www.w3.org/Graphics/SVG/1.1/DTD/svg11.dtd">
<!-- Generated by graphviz version 2.43.0 (0)
 -->
<!-- Title: log4cplus::SimpleLayout Pages: 1 -->
<svg width="149pt" height="152pt"
 viewBox="0.00 0.00 149.00 152.00" xmlns="http://www.w3.org/2000/svg" xmlns:xlink="http://www.w3.org/1999/xlink">
<g id="graph0" class="graph" transform="scale(1 1) rotate(0) translate(4 148)">
<title>log4cplus::SimpleLayout</title>
<polygon fill="white" stroke="transparent" points="-4,4 -4,-148 145,-148 145,4 -4,4"/>
<!-- Node1 -->
<g id="node1" class="node">
<title>Node1</title>
<g id="a_node1"><a xlink:title="SimpleLayout consists of the LogLevel of the log statement, followed by &quot; &#45; &quot; and then the log messag...">
<polygon fill="#bfbfbf" stroke="black" points="9.5,-0.5 9.5,-19.5 131.5,-19.5 131.5,-0.5 9.5,-0.5"/>
<text text-anchor="middle" x="70.5" y="-7.5" font-family="'Souce Sans Pro', Roboto, FreeSans, sans-serif" font-size="10.00">log4cplus::SimpleLayout</text>
</a>
</g>
</g>
<!-- Node2 -->
<g id="node2" class="node">
<title>Node2</title>
<g id="a_node2"><a xlink:href="classlog4cplus_1_1Layout.html" target="_top" xlink:title="This class is used to layout strings sent to an {}.">
<polygon fill="white" stroke="black" points="24.5,-57.5 24.5,-76.5 116.5,-76.5 116.5,-57.5 24.5,-57.5"/>
<text text-anchor="middle" x="70.5" y="-64.5" font-family="'Souce Sans Pro', Roboto, FreeSans, sans-serif" font-size="10.00">log4cplus::Layout</text>
</a>
</g>
</g>
<!-- Node2&#45;&gt;Node1 -->
<g id="edge1" class="edge">
<title>Node2&#45;&gt;Node1</title>
<path fill="none" stroke="midnightblue" d="M70.5,-47.12C70.5,-37.82 70.5,-27.06 70.5,-19.71"/>
<polygon fill="midnightblue" stroke="midnightblue" points="67,-47.41 70.5,-57.41 74,-47.41 67,-47.41"/>
</g>
<!-- Node3 -->
<g id="node3" class="node">
<title>Node3</title>
<g id="a_node3"><a xlink:href="classlog4cplus_1_1LogLevelManager.html" target="_top" xlink:title="This class is used to &quot;manage&quot; LogLevel definitions.">
<polygon fill="white" stroke="black" points="0,-124.5 0,-143.5 141,-143.5 141,-124.5 0,-124.5"/>
<text text-anchor="middle" x="70.5" y="-131.5" font-family="'Souce Sans Pro', Roboto, FreeSans, sans-serif" font-size="10.00">log4cplus::LogLevelManager</text>
</a>
</g>
</g>
<!-- Node3&#45;&gt;Node2 -->
<g id="edge2" class="edge">
<title>Node3&#45;&gt;Node2</title>
<path fill="none" stroke="#9a32cd" stroke-dasharray="5,2" d="M70.5,-114.04C70.5,-101.67 70.5,-86.12 70.5,-76.63"/>
<polygon fill="#9a32cd" stroke="#9a32cd" points="67,-114.23 70.5,-124.23 74,-114.23 67,-114.23"/>
<text text-anchor="middle" x="92.5" y="-98" font-family="'Souce Sans Pro', Roboto, FreeSans, sans-serif" font-size="10.00"> llmCache</text>
</g>
</g>
</svg>
