<?xml version="1.0" encoding="UTF-8" standalone="no"?>
<!DOCTYPE svg PUBLIC "-//W3C//DTD SVG 1.1//EN"
 "http://www.w3.org/Graphics/SVG/1.1/DTD/svg11.dtd">
<!-- Generated by graphviz version 2.43.0 (0)
 -->
<!-- Title: log4cplus::helpers::SharedObject Pages: 1 -->
<svg width="123pt" height="117pt"
 viewBox="0.00 0.00 122.50 117.00" xmlns="http://www.w3.org/2000/svg" xmlns:xlink="http://www.w3.org/1999/xlink">
<g id="graph0" class="graph" transform="scale(1 1) rotate(0) translate(4 113)">
<title>log4cplus::helpers::SharedObject</title>
<polygon fill="white" stroke="transparent" points="-4,4 -4,-113 118.5,-113 118.5,4 -4,4"/>
<!-- Node1 -->
<g id="node1" class="node">
<title>Node1</title>
<g id="a_node1"><a xlink:title=" ">
<polygon fill="#bfbfbf" stroke="black" points="0,-0.5 0,-30.5 95,-30.5 95,-0.5 0,-0.5"/>
<text text-anchor="start" x="8" y="-18.5" font-family="'Souce Sans Pro', Roboto, FreeSans, sans-serif" font-size="10.00">log4cplus::helpers</text>
<text text-anchor="middle" x="47.5" y="-7.5" font-family="'Souce Sans Pro', Roboto, FreeSans, sans-serif" font-size="10.00">::SharedObject</text>
</a>
</g>
</g>
<!-- Node2 -->
<g id="node2" class="node">
<title>Node2</title>
<g id="a_node2"><a xlink:href="classlog4cplus_1_1thread_1_1Mutex.html" target="_top" xlink:title=" ">
<polygon fill="white" stroke="black" points="0,-78.5 0,-108.5 95,-108.5 95,-78.5 0,-78.5"/>
<text text-anchor="start" x="8" y="-96.5" font-family="'Souce Sans Pro', Roboto, FreeSans, sans-serif" font-size="10.00">log4cplus::thread::</text>
<text text-anchor="middle" x="47.5" y="-85.5" font-family="'Souce Sans Pro', Roboto, FreeSans, sans-serif" font-size="10.00">Mutex</text>
</a>
</g>
</g>
<!-- Node2&#45;&gt;Node1 -->
<g id="edge1" class="edge">
<title>Node2&#45;&gt;Node1</title>
<path fill="none" stroke="#9a32cd" stroke-dasharray="5,2" d="M47.5,-68.09C47.5,-55.76 47.5,-41.22 47.5,-30.73"/>
<polygon fill="#9a32cd" stroke="#9a32cd" points="44,-68.2 47.5,-78.2 51,-68.21 44,-68.2"/>
<text text-anchor="middle" x="81" y="-52" font-family="'Souce Sans Pro', Roboto, FreeSans, sans-serif" font-size="10.00"> access_mutex</text>
</g>
</g>
</svg>
