<?xml version="1.0" encoding="UTF-8" standalone="no"?>
<!DOCTYPE svg PUBLIC "-//W3C//DTD SVG 1.1//EN"
 "http://www.w3.org/Graphics/SVG/1.1/DTD/svg11.dtd">
<!-- Generated by graphviz version 2.43.0 (0)
 -->
<!-- Title: configurator.h Pages: 1 -->
<svg width="1824pt" height="543pt"
 viewBox="0.00 0.00 1823.50 543.00" xmlns="http://www.w3.org/2000/svg" xmlns:xlink="http://www.w3.org/1999/xlink">
<g id="graph0" class="graph" transform="scale(1 1) rotate(0) translate(4 539)">
<title>configurator.h</title>
<polygon fill="white" stroke="transparent" points="-4,4 -4,-539 1819.5,-539 1819.5,4 -4,4"/>
<!-- Node1 -->
<g id="node1" class="node">
<title>Node1</title>
<g id="a_node1"><a xlink:title=" ">
<polygon fill="#bfbfbf" stroke="black" points="1400,-515.5 1400,-534.5 1477,-534.5 1477,-515.5 1400,-515.5"/>
<text text-anchor="middle" x="1438.5" y="-522.5" font-family="'Souce Sans Pro', Roboto, FreeSans, sans-serif" font-size="10.00">configurator.h</text>
</a>
</g>
</g>
<!-- Node2 -->
<g id="node2" class="node">
<title>Node2</title>
<g id="a_node2"><a xlink:href="config_8hxx.html" target="_top" xlink:title=" ">
<polygon fill="white" stroke="black" points="974,-67.5 974,-86.5 1083,-86.5 1083,-67.5 974,-67.5"/>
<text text-anchor="middle" x="1028.5" y="-74.5" font-family="'Souce Sans Pro', Roboto, FreeSans, sans-serif" font-size="10.00">log4cplus/config.hxx</text>
</a>
</g>
</g>
<!-- Node1&#45;&gt;Node2 -->
<g id="edge1" class="edge">
<title>Node1&#45;&gt;Node2</title>
<path fill="none" stroke="midnightblue" d="M1461.26,-515.43C1496.31,-500.58 1559.5,-466.52 1559.5,-414 1559.5,-414 1559.5,-414 1559.5,-300 1559.5,-193.96 1499.25,-158.99 1399.5,-123 1296.91,-85.98 1169.09,-78.18 1093.4,-77.18"/>
<polygon fill="midnightblue" stroke="midnightblue" points="1093.11,-73.68 1083.08,-77.08 1093.05,-80.68 1093.11,-73.68"/>
</g>
<!-- Node5 -->
<g id="node5" class="node">
<title>Node5</title>
<g id="a_node5"><a xlink:href="appender_8h.html" target="_top" xlink:title=" ">
<polygon fill="white" stroke="black" points="493.5,-347.5 493.5,-366.5 605.5,-366.5 605.5,-347.5 493.5,-347.5"/>
<text text-anchor="middle" x="549.5" y="-354.5" font-family="'Souce Sans Pro', Roboto, FreeSans, sans-serif" font-size="10.00">log4cplus/appender.h</text>
</a>
</g>
</g>
<!-- Node1&#45;&gt;Node5 -->
<g id="edge4" class="edge">
<title>Node1&#45;&gt;Node5</title>
<path fill="none" stroke="midnightblue" d="M1399.73,-516.76C1258.48,-490.39 771.06,-399.37 605.24,-368.41"/>
<polygon fill="midnightblue" stroke="midnightblue" points="605.72,-364.94 595.25,-366.54 604.44,-371.82 605.72,-364.94"/>
</g>
<!-- Node19 -->
<g id="node19" class="node">
<title>Node19</title>
<g id="a_node19"><a xlink:href="pointer_8h.html" target="_top" xlink:title=" ">
<polygon fill="white" stroke="black" points="93.5,-235.5 93.5,-254.5 231.5,-254.5 231.5,-235.5 93.5,-235.5"/>
<text text-anchor="middle" x="162.5" y="-242.5" font-family="'Souce Sans Pro', Roboto, FreeSans, sans-serif" font-size="10.00">log4cplus/helpers/pointer.h</text>
</a>
</g>
</g>
<!-- Node1&#45;&gt;Node19 -->
<g id="edge67" class="edge">
<title>Node1&#45;&gt;Node19</title>
<path fill="none" stroke="midnightblue" d="M1399.8,-522.79C1184.66,-515.79 145.5,-478.63 145.5,-414 145.5,-414 145.5,-414 145.5,-356 145.5,-323.58 152.8,-286.42 157.83,-264.64"/>
<polygon fill="midnightblue" stroke="midnightblue" points="161.27,-265.31 160.21,-254.77 154.47,-263.67 161.27,-265.31"/>
</g>
<!-- Node29 -->
<g id="node29" class="node">
<title>Node29</title>
<g id="a_node29"><a xlink:href="logger_8h.html" target="_top" xlink:title="This header defines the Logger class and the logging macros.">
<polygon fill="white" stroke="black" points="1268.5,-459.5 1268.5,-478.5 1366.5,-478.5 1366.5,-459.5 1268.5,-459.5"/>
<text text-anchor="middle" x="1317.5" y="-466.5" font-family="'Souce Sans Pro', Roboto, FreeSans, sans-serif" font-size="10.00">log4cplus/logger.h</text>
</a>
</g>
</g>
<!-- Node1&#45;&gt;Node29 -->
<g id="edge53" class="edge">
<title>Node1&#45;&gt;Node29</title>
<path fill="none" stroke="midnightblue" d="M1419.33,-515.44C1399.59,-506.64 1368.61,-492.81 1346.01,-482.72"/>
<polygon fill="midnightblue" stroke="midnightblue" points="1347.14,-479.4 1336.58,-478.52 1344.29,-485.79 1347.14,-479.4"/>
</g>
<!-- Node32 -->
<g id="node32" class="node">
<title>Node32</title>
<g id="a_node32"><a xlink:href="property_8h.html" target="_top" xlink:title=" ">
<polygon fill="white" stroke="black" points="1625.5,-235.5 1625.5,-254.5 1769.5,-254.5 1769.5,-235.5 1625.5,-235.5"/>
<text text-anchor="middle" x="1697.5" y="-242.5" font-family="'Souce Sans Pro', Roboto, FreeSans, sans-serif" font-size="10.00">log4cplus/helpers/property.h</text>
</a>
</g>
</g>
<!-- Node1&#45;&gt;Node32 -->
<g id="edge68" class="edge">
<title>Node1&#45;&gt;Node32</title>
<path fill="none" stroke="midnightblue" d="M1477.32,-520.87C1537.76,-513.65 1647.5,-490.06 1647.5,-414 1647.5,-414 1647.5,-414 1647.5,-356 1647.5,-320.18 1669.74,-283.21 1684.55,-262.56"/>
<polygon fill="midnightblue" stroke="midnightblue" points="1687.38,-264.63 1690.55,-254.52 1681.77,-260.45 1687.38,-264.63"/>
</g>
<!-- Node33 -->
<g id="node33" class="node">
<title>Node33</title>
<g id="a_node33"><a xlink:title=" ">
<polygon fill="white" stroke="#bfbfbf" points="1779.5,-179.5 1779.5,-198.5 1815.5,-198.5 1815.5,-179.5 1779.5,-179.5"/>
<text text-anchor="middle" x="1797.5" y="-186.5" font-family="'Souce Sans Pro', Roboto, FreeSans, sans-serif" font-size="10.00">map</text>
</a>
</g>
</g>
<!-- Node1&#45;&gt;Node33 -->
<g id="edge74" class="edge">
<title>Node1&#45;&gt;Node33</title>
<path fill="none" stroke="midnightblue" d="M1477.26,-520.42C1570.09,-510.79 1797.5,-480.41 1797.5,-414 1797.5,-414 1797.5,-414 1797.5,-300 1797.5,-267.95 1797.5,-230.64 1797.5,-208.75"/>
<polygon fill="midnightblue" stroke="midnightblue" points="1801,-208.56 1797.5,-198.56 1794,-208.56 1801,-208.56"/>
</g>
<!-- Node3 -->
<g id="node3" class="node">
<title>Node3</title>
<g id="a_node3"><a xlink:href="win32_8h.html" target="_top" xlink:title=" ">
<polygon fill="white" stroke="black" points="891.5,-6 891.5,-25 1019.5,-25 1019.5,-6 891.5,-6"/>
<text text-anchor="middle" x="955.5" y="-13" font-family="'Souce Sans Pro', Roboto, FreeSans, sans-serif" font-size="10.00">log4cplus/config/win32.h</text>
</a>
</g>
</g>
<!-- Node2&#45;&gt;Node3 -->
<g id="edge2" class="edge">
<title>Node2&#45;&gt;Node3</title>
<path fill="none" stroke="midnightblue" d="M1018.04,-67.48C1006.55,-58.11 987.87,-42.88 973.91,-31.51"/>
<polygon fill="midnightblue" stroke="midnightblue" points="975.9,-28.61 965.94,-25.01 971.48,-34.04 975.9,-28.61"/>
</g>
<!-- Node4 -->
<g id="node4" class="node">
<title>Node4</title>
<g id="a_node4"><a xlink:href="thread-config_8h.html" target="_top" xlink:title=" ">
<polygon fill="white" stroke="black" points="1037.5,-0.5 1037.5,-30.5 1165.5,-30.5 1165.5,-0.5 1037.5,-0.5"/>
<text text-anchor="start" x="1045.5" y="-18.5" font-family="'Souce Sans Pro', Roboto, FreeSans, sans-serif" font-size="10.00">log4cplus/helpers/thread</text>
<text text-anchor="middle" x="1101.5" y="-7.5" font-family="'Souce Sans Pro', Roboto, FreeSans, sans-serif" font-size="10.00">&#45;config.h</text>
</a>
</g>
</g>
<!-- Node2&#45;&gt;Node4 -->
<g id="edge3" class="edge">
<title>Node2&#45;&gt;Node4</title>
<path fill="none" stroke="midnightblue" d="M1038.96,-67.48C1048.66,-59.57 1063.49,-47.48 1076.27,-37.07"/>
<polygon fill="midnightblue" stroke="midnightblue" points="1078.76,-39.55 1084.3,-30.52 1074.33,-34.13 1078.76,-39.55"/>
</g>
<!-- Node5&#45;&gt;Node2 -->
<g id="edge5" class="edge">
<title>Node5&#45;&gt;Node2</title>
<path fill="none" stroke="midnightblue" d="M493.45,-353.58C423.58,-349.43 309.54,-338.53 278.5,-311 255.98,-291.03 259.5,-276.1 259.5,-246 259.5,-246 259.5,-246 259.5,-188 259.5,-139.73 301.22,-139.72 346.5,-123 458.53,-81.63 816.04,-77.49 963.73,-77.62"/>
<polygon fill="midnightblue" stroke="midnightblue" points="963.99,-81.12 973.99,-77.63 964,-74.12 963.99,-81.12"/>
</g>
<!-- Node6 -->
<g id="node6" class="node">
<title>Node6</title>
<g id="a_node6"><a xlink:href="layout_8h.html" target="_top" xlink:title=" ">
<polygon fill="white" stroke="black" points="827.5,-291.5 827.5,-310.5 925.5,-310.5 925.5,-291.5 827.5,-291.5"/>
<text text-anchor="middle" x="876.5" y="-298.5" font-family="'Souce Sans Pro', Roboto, FreeSans, sans-serif" font-size="10.00">log4cplus/layout.h</text>
</a>
</g>
</g>
<!-- Node5&#45;&gt;Node6 -->
<g id="edge6" class="edge">
<title>Node5&#45;&gt;Node6</title>
<path fill="none" stroke="midnightblue" d="M601.31,-347.44C660.08,-337.74 755.73,-321.94 817.37,-311.76"/>
<polygon fill="midnightblue" stroke="midnightblue" points="818.04,-315.2 827.33,-310.12 816.9,-308.3 818.04,-315.2"/>
</g>
<!-- Node7 -->
<g id="node7" class="node">
<title>Node7</title>
<g id="a_node7"><a xlink:href="loglevel_8h.html" target="_top" xlink:title="This header defines the LogLevel type.">
<polygon fill="white" stroke="black" points="957.5,-235.5 957.5,-254.5 1061.5,-254.5 1061.5,-235.5 957.5,-235.5"/>
<text text-anchor="middle" x="1009.5" y="-242.5" font-family="'Souce Sans Pro', Roboto, FreeSans, sans-serif" font-size="10.00">log4cplus/loglevel.h</text>
</a>
</g>
</g>
<!-- Node5&#45;&gt;Node7 -->
<g id="edge29" class="edge">
<title>Node5&#45;&gt;Node7</title>
<path fill="none" stroke="midnightblue" d="M605.78,-353.49C698.03,-348.69 876.93,-336.38 934.5,-311 959.51,-299.97 982.32,-277.66 996.06,-262.27"/>
<polygon fill="midnightblue" stroke="midnightblue" points="998.83,-264.42 1002.71,-254.56 993.53,-259.84 998.83,-264.42"/>
</g>
<!-- Node9 -->
<g id="node9" class="node">
<title>Node9</title>
<g id="a_node9"><a xlink:href="tstring_8h.html" target="_top" xlink:title=" ">
<polygon fill="white" stroke="black" points="1038,-179.5 1038,-198.5 1137,-198.5 1137,-179.5 1038,-179.5"/>
<text text-anchor="middle" x="1087.5" y="-186.5" font-family="'Souce Sans Pro', Roboto, FreeSans, sans-serif" font-size="10.00">log4cplus/tstring.h</text>
</a>
</g>
</g>
<!-- Node5&#45;&gt;Node9 -->
<g id="edge30" class="edge">
<title>Node5&#45;&gt;Node9</title>
<path fill="none" stroke="midnightblue" d="M605.57,-356.37C686.24,-355.47 838.91,-348.34 962.5,-311 1014.26,-295.36 1036.75,-297.24 1070.5,-255 1081.07,-241.77 1085.12,-222.64 1086.64,-208.56"/>
<polygon fill="midnightblue" stroke="midnightblue" points="1090.14,-208.79 1087.4,-198.55 1083.16,-208.26 1090.14,-208.79"/>
</g>
<!-- Node18 -->
<g id="node18" class="node">
<title>Node18</title>
<g id="a_node18"><a xlink:title=" ">
<polygon fill="white" stroke="#bfbfbf" points="637.5,-235.5 637.5,-254.5 691.5,-254.5 691.5,-235.5 637.5,-235.5"/>
<text text-anchor="middle" x="664.5" y="-242.5" font-family="'Souce Sans Pro', Roboto, FreeSans, sans-serif" font-size="10.00">memory</text>
</a>
</g>
</g>
<!-- Node5&#45;&gt;Node18 -->
<g id="edge49" class="edge">
<title>Node5&#45;&gt;Node18</title>
<path fill="none" stroke="midnightblue" d="M558.52,-347.37C577.84,-328.89 623.42,-285.29 648.04,-261.74"/>
<polygon fill="midnightblue" stroke="midnightblue" points="650.71,-264.03 655.52,-254.59 645.87,-258.97 650.71,-264.03"/>
</g>
<!-- Node5&#45;&gt;Node19 -->
<g id="edge31" class="edge">
<title>Node5&#45;&gt;Node19</title>
<path fill="none" stroke="midnightblue" d="M493.37,-356.18C430.54,-354.5 326.88,-345.95 245.5,-311 218.86,-299.56 193.41,-277.39 177.88,-262.15"/>
<polygon fill="midnightblue" stroke="midnightblue" points="180.23,-259.55 170.71,-254.91 175.26,-264.48 180.23,-259.55"/>
</g>
<!-- Node21 -->
<g id="node21" class="node">
<title>Node21</title>
<g id="a_node21"><a xlink:title=" ">
<polygon fill="white" stroke="#bfbfbf" points="586.5,-123.5 586.5,-142.5 630.5,-142.5 630.5,-123.5 586.5,-123.5"/>
<text text-anchor="middle" x="608.5" y="-130.5" font-family="'Souce Sans Pro', Roboto, FreeSans, sans-serif" font-size="10.00">mutex</text>
</a>
</g>
</g>
<!-- Node5&#45;&gt;Node21 -->
<g id="edge50" class="edge">
<title>Node5&#45;&gt;Node21</title>
<path fill="none" stroke="midnightblue" d="M535.91,-347.21C506.12,-326.86 440.05,-275.2 470.5,-235 506.18,-187.89 559.33,-243.25 598.5,-199 609.49,-186.59 611.23,-167.35 610.68,-153.02"/>
<polygon fill="midnightblue" stroke="midnightblue" points="614.15,-152.5 609.88,-142.8 607.17,-153.04 614.15,-152.5"/>
</g>
<!-- Node22 -->
<g id="node22" class="node">
<title>Node22</title>
<g id="a_node22"><a xlink:title=" ">
<polygon fill="white" stroke="#bfbfbf" points="382.5,-123.5 382.5,-142.5 478.5,-142.5 478.5,-123.5 382.5,-123.5"/>
<text text-anchor="middle" x="430.5" y="-130.5" font-family="'Souce Sans Pro', Roboto, FreeSans, sans-serif" font-size="10.00">condition_variable</text>
</a>
</g>
</g>
<!-- Node5&#45;&gt;Node22 -->
<g id="edge52" class="edge">
<title>Node5&#45;&gt;Node22</title>
<path fill="none" stroke="midnightblue" d="M526.04,-347.37C509.06,-340.04 486.7,-327.99 472.5,-311 438.5,-270.33 441.15,-251.12 431.5,-199 428.64,-183.55 428.59,-165.68 429.15,-152.59"/>
<polygon fill="midnightblue" stroke="midnightblue" points="432.65,-152.69 429.73,-142.5 425.66,-152.28 432.65,-152.69"/>
</g>
<!-- Node25 -->
<g id="node25" class="node">
<title>Node25</title>
<g id="a_node25"><a xlink:title=" ">
<polygon fill="white" stroke="#bfbfbf" points="0,-179.5 0,-198.5 47,-198.5 47,-179.5 0,-179.5"/>
<text text-anchor="middle" x="23.5" y="-186.5" font-family="'Souce Sans Pro', Roboto, FreeSans, sans-serif" font-size="10.00">atomic</text>
</a>
</g>
</g>
<!-- Node5&#45;&gt;Node25 -->
<g id="edge51" class="edge">
<title>Node5&#45;&gt;Node25</title>
<path fill="none" stroke="midnightblue" d="M493.44,-353.55C425.21,-349.43 307.02,-338.66 209.5,-311 150.93,-294.39 134.08,-290.33 84.5,-255 65.3,-241.31 47.34,-220.89 35.95,-206.6"/>
<polygon fill="midnightblue" stroke="midnightblue" points="38.65,-204.37 29.76,-198.61 33.12,-208.66 38.65,-204.37"/>
</g>
<!-- Node26 -->
<g id="node26" class="node">
<title>Node26</title>
<g id="a_node26"><a xlink:href="filter_8h.html" target="_top" xlink:title="This header defines Filter and all of it&#39;s subclasses.">
<polygon fill="white" stroke="black" points="288,-291.5 288,-310.5 395,-310.5 395,-291.5 288,-291.5"/>
<text text-anchor="middle" x="341.5" y="-298.5" font-family="'Souce Sans Pro', Roboto, FreeSans, sans-serif" font-size="10.00">log4cplus/spi/filter.h</text>
</a>
</g>
</g>
<!-- Node5&#45;&gt;Node26 -->
<g id="edge40" class="edge">
<title>Node5&#45;&gt;Node26</title>
<path fill="none" stroke="midnightblue" d="M516.54,-347.44C480.71,-338.14 423.34,-323.25 384.11,-313.06"/>
<polygon fill="midnightblue" stroke="midnightblue" points="384.86,-309.64 374.3,-310.52 383.1,-316.42 384.86,-309.64"/>
</g>
<!-- Node28 -->
<g id="node28" class="node">
<title>Node28</title>
<g id="a_node28"><a xlink:href="lockfile_8h.html" target="_top" xlink:title=" ">
<polygon fill="white" stroke="black" points="479.5,-235.5 479.5,-254.5 619.5,-254.5 619.5,-235.5 479.5,-235.5"/>
<text text-anchor="middle" x="549.5" y="-242.5" font-family="'Souce Sans Pro', Roboto, FreeSans, sans-serif" font-size="10.00">log4cplus/helpers/lockfile.h</text>
</a>
</g>
</g>
<!-- Node5&#45;&gt;Node28 -->
<g id="edge45" class="edge">
<title>Node5&#45;&gt;Node28</title>
<path fill="none" stroke="midnightblue" d="M549.5,-347.37C549.5,-329.62 549.5,-288.67 549.5,-264.6"/>
<polygon fill="midnightblue" stroke="midnightblue" points="553,-264.59 549.5,-254.59 546,-264.59 553,-264.59"/>
</g>
<!-- Node6&#45;&gt;Node2 -->
<g id="edge7" class="edge">
<title>Node6&#45;&gt;Node2</title>
<path fill="none" stroke="midnightblue" d="M827.43,-296.18C781.6,-290.15 722.49,-274.66 738.5,-235 764.38,-170.88 786.59,-157.54 846.5,-123 882.33,-102.34 927.42,-91.11 963.76,-85.03"/>
<polygon fill="midnightblue" stroke="midnightblue" points="964.43,-88.47 973.76,-83.45 963.34,-81.55 964.43,-88.47"/>
</g>
<!-- Node6&#45;&gt;Node7 -->
<g id="edge8" class="edge">
<title>Node6&#45;&gt;Node7</title>
<path fill="none" stroke="midnightblue" d="M897.57,-291.44C919.56,-282.52 954.23,-268.44 979.16,-258.32"/>
<polygon fill="midnightblue" stroke="midnightblue" points="980.58,-261.52 988.52,-254.52 977.94,-255.04 980.58,-261.52"/>
</g>
<!-- Node8 -->
<g id="node8" class="node">
<title>Node8</title>
<g id="a_node8"><a xlink:title=" ">
<polygon fill="white" stroke="#bfbfbf" points="1219.5,-179.5 1219.5,-198.5 1263.5,-198.5 1263.5,-179.5 1219.5,-179.5"/>
<text text-anchor="middle" x="1241.5" y="-186.5" font-family="'Souce Sans Pro', Roboto, FreeSans, sans-serif" font-size="10.00">vector</text>
</a>
</g>
</g>
<!-- Node6&#45;&gt;Node8 -->
<g id="edge27" class="edge">
<title>Node6&#45;&gt;Node8</title>
<path fill="none" stroke="midnightblue" d="M920.87,-291.49C960.48,-283.47 1019.89,-270.41 1070.5,-255 1121.24,-239.55 1178.56,-216.59 1212.27,-202.5"/>
<polygon fill="midnightblue" stroke="midnightblue" points="1213.68,-205.71 1221.54,-198.6 1210.96,-199.25 1213.68,-205.71"/>
</g>
<!-- Node6&#45;&gt;Node9 -->
<g id="edge21" class="edge">
<title>Node6&#45;&gt;Node9</title>
<path fill="none" stroke="midnightblue" d="M884.01,-291.14C896.21,-277.3 921.67,-250.5 948.5,-235 975.69,-219.3 1009.09,-208.26 1036.33,-201.04"/>
<polygon fill="midnightblue" stroke="midnightblue" points="1037.25,-204.42 1046.07,-198.56 1035.51,-197.64 1037.25,-204.42"/>
</g>
<!-- Node13 -->
<g id="node13" class="node">
<title>Node13</title>
<g id="a_node13"><a xlink:href="streams_8h.html" target="_top" xlink:title=" ">
<polygon fill="white" stroke="black" points="1558,-179.5 1558,-198.5 1665,-198.5 1665,-179.5 1558,-179.5"/>
<text text-anchor="middle" x="1611.5" y="-186.5" font-family="'Souce Sans Pro', Roboto, FreeSans, sans-serif" font-size="10.00">log4cplus/streams.h</text>
</a>
</g>
</g>
<!-- Node6&#45;&gt;Node13 -->
<g id="edge17" class="edge">
<title>Node6&#45;&gt;Node13</title>
<path fill="none" stroke="midnightblue" d="M925.63,-299.39C1053.68,-297.33 1395.18,-288.76 1502.5,-255 1537.07,-244.13 1572.22,-220.39 1592.93,-204.81"/>
<polygon fill="midnightblue" stroke="midnightblue" points="1595.09,-207.56 1600.88,-198.69 1590.82,-202.02 1595.09,-207.56"/>
</g>
<!-- Node15 -->
<g id="node15" class="node">
<title>Node15</title>
<g id="a_node15"><a xlink:href="timehelper_8h.html" target="_top" xlink:title=" ">
<polygon fill="white" stroke="black" points="747.5,-235.5 747.5,-254.5 901.5,-254.5 901.5,-235.5 747.5,-235.5"/>
<text text-anchor="middle" x="824.5" y="-242.5" font-family="'Souce Sans Pro', Roboto, FreeSans, sans-serif" font-size="10.00">log4cplus/helpers/timehelper.h</text>
</a>
</g>
</g>
<!-- Node6&#45;&gt;Node15 -->
<g id="edge22" class="edge">
<title>Node6&#45;&gt;Node15</title>
<path fill="none" stroke="midnightblue" d="M867.91,-291.08C860.34,-283.22 849.12,-271.57 839.99,-262.08"/>
<polygon fill="midnightblue" stroke="midnightblue" points="842.38,-259.53 832.93,-254.75 837.34,-264.38 842.38,-259.53"/>
</g>
<!-- Node6&#45;&gt;Node18 -->
<g id="edge28" class="edge">
<title>Node6&#45;&gt;Node18</title>
<path fill="none" stroke="midnightblue" d="M842.91,-291.44C804.35,-281.62 741.31,-265.56 701.41,-255.4"/>
<polygon fill="midnightblue" stroke="midnightblue" points="702.1,-251.97 691.54,-252.89 700.37,-258.75 702.1,-251.97"/>
</g>
<!-- Node7&#45;&gt;Node2 -->
<g id="edge9" class="edge">
<title>Node7&#45;&gt;Node2</title>
<path fill="none" stroke="midnightblue" d="M1010.52,-235.08C1013.51,-208.95 1022.3,-132.21 1026.37,-96.58"/>
<polygon fill="midnightblue" stroke="midnightblue" points="1029.86,-96.9 1027.52,-86.57 1022.9,-96.11 1029.86,-96.9"/>
</g>
<!-- Node7&#45;&gt;Node8 -->
<g id="edge10" class="edge">
<title>Node7&#45;&gt;Node8</title>
<path fill="none" stroke="midnightblue" d="M1046.26,-235.44C1091.23,-224.98 1166.64,-207.42 1209.39,-197.47"/>
<polygon fill="midnightblue" stroke="midnightblue" points="1210.31,-200.85 1219.26,-195.18 1208.72,-194.04 1210.31,-200.85"/>
</g>
<!-- Node7&#45;&gt;Node9 -->
<g id="edge11" class="edge">
<title>Node7&#45;&gt;Node9</title>
<path fill="none" stroke="midnightblue" d="M1022.03,-235.32C1034.09,-226.98 1052.53,-214.21 1066.77,-204.35"/>
<polygon fill="midnightblue" stroke="midnightblue" points="1068.77,-207.22 1075,-198.65 1064.78,-201.47 1068.77,-207.22"/>
</g>
<!-- Node9&#45;&gt;Node2 -->
<g id="edge12" class="edge">
<title>Node9&#45;&gt;Node2</title>
<path fill="none" stroke="midnightblue" d="M1082.87,-179.37C1073.22,-161.38 1050.79,-119.55 1037.95,-95.63"/>
<polygon fill="midnightblue" stroke="midnightblue" points="1040.92,-93.75 1033.11,-86.59 1034.75,-97.06 1040.92,-93.75"/>
</g>
<!-- Node10 -->
<g id="node10" class="node">
<title>Node10</title>
<g id="a_node10"><a xlink:title=" ">
<polygon fill="white" stroke="#bfbfbf" points="1076,-123.5 1076,-142.5 1117,-142.5 1117,-123.5 1076,-123.5"/>
<text text-anchor="middle" x="1096.5" y="-130.5" font-family="'Souce Sans Pro', Roboto, FreeSans, sans-serif" font-size="10.00">string</text>
</a>
</g>
</g>
<!-- Node9&#45;&gt;Node10 -->
<g id="edge13" class="edge">
<title>Node9&#45;&gt;Node10</title>
<path fill="none" stroke="midnightblue" d="M1088.99,-179.08C1090.18,-171.93 1091.89,-161.64 1093.38,-152.69"/>
<polygon fill="midnightblue" stroke="midnightblue" points="1096.85,-153.19 1095.04,-142.75 1089.95,-152.04 1096.85,-153.19"/>
</g>
<!-- Node11 -->
<g id="node11" class="node">
<title>Node11</title>
<g id="a_node11"><a xlink:href="tchar_8h.html" target="_top" xlink:title=" ">
<polygon fill="white" stroke="black" points="1565,-123.5 1565,-142.5 1658,-142.5 1658,-123.5 1565,-123.5"/>
<text text-anchor="middle" x="1611.5" y="-130.5" font-family="'Souce Sans Pro', Roboto, FreeSans, sans-serif" font-size="10.00">log4cplus/tchar.h</text>
</a>
</g>
</g>
<!-- Node9&#45;&gt;Node11 -->
<g id="edge14" class="edge">
<title>Node9&#45;&gt;Node11</title>
<path fill="none" stroke="midnightblue" d="M1137.27,-182.87C1234.95,-172.8 1451.23,-150.52 1554.48,-139.88"/>
<polygon fill="midnightblue" stroke="midnightblue" points="1555.12,-143.33 1564.71,-138.82 1554.4,-136.37 1555.12,-143.33"/>
</g>
<!-- Node11&#45;&gt;Node2 -->
<g id="edge15" class="edge">
<title>Node11&#45;&gt;Node2</title>
<path fill="none" stroke="midnightblue" d="M1564.91,-124.83C1560.05,-124.17 1555.18,-123.55 1550.5,-123 1386.23,-103.82 1192,-89.19 1093.22,-82.31"/>
<polygon fill="midnightblue" stroke="midnightblue" points="1093.31,-78.81 1083.09,-81.61 1092.83,-85.8 1093.31,-78.81"/>
</g>
<!-- Node12 -->
<g id="node12" class="node">
<title>Node12</title>
<g id="a_node12"><a xlink:title=" ">
<polygon fill="white" stroke="#bfbfbf" points="1586,-67.5 1586,-86.5 1637,-86.5 1637,-67.5 1586,-67.5"/>
<text text-anchor="middle" x="1611.5" y="-74.5" font-family="'Souce Sans Pro', Roboto, FreeSans, sans-serif" font-size="10.00">cstddef</text>
</a>
</g>
</g>
<!-- Node11&#45;&gt;Node12 -->
<g id="edge16" class="edge">
<title>Node11&#45;&gt;Node12</title>
<path fill="none" stroke="midnightblue" d="M1611.5,-123.08C1611.5,-116.01 1611.5,-105.86 1611.5,-96.99"/>
<polygon fill="midnightblue" stroke="midnightblue" points="1615,-96.75 1611.5,-86.75 1608,-96.75 1615,-96.75"/>
</g>
<!-- Node13&#45;&gt;Node2 -->
<g id="edge18" class="edge">
<title>Node13&#45;&gt;Node2</title>
<path fill="none" stroke="midnightblue" d="M1601.98,-179.38C1585.27,-164.84 1548.98,-135.78 1512.5,-123 1436.9,-96.53 1207.3,-84.57 1093.65,-80.16"/>
<polygon fill="midnightblue" stroke="midnightblue" points="1093.48,-76.65 1083.35,-79.77 1093.21,-83.65 1093.48,-76.65"/>
</g>
<!-- Node13&#45;&gt;Node11 -->
<g id="edge19" class="edge">
<title>Node13&#45;&gt;Node11</title>
<path fill="none" stroke="midnightblue" d="M1611.5,-179.08C1611.5,-172.01 1611.5,-161.86 1611.5,-152.99"/>
<polygon fill="midnightblue" stroke="midnightblue" points="1615,-152.75 1611.5,-142.75 1608,-152.75 1615,-152.75"/>
</g>
<!-- Node14 -->
<g id="node14" class="node">
<title>Node14</title>
<g id="a_node14"><a xlink:title=" ">
<polygon fill="white" stroke="#bfbfbf" points="1676,-123.5 1676,-142.5 1723,-142.5 1723,-123.5 1676,-123.5"/>
<text text-anchor="middle" x="1699.5" y="-130.5" font-family="'Souce Sans Pro', Roboto, FreeSans, sans-serif" font-size="10.00">iosfwd</text>
</a>
</g>
</g>
<!-- Node13&#45;&gt;Node14 -->
<g id="edge20" class="edge">
<title>Node13&#45;&gt;Node14</title>
<path fill="none" stroke="midnightblue" d="M1625.64,-179.32C1639.37,-170.9 1660.44,-157.97 1676.56,-148.07"/>
<polygon fill="midnightblue" stroke="midnightblue" points="1678.7,-150.87 1685.4,-142.65 1675.04,-144.9 1678.7,-150.87"/>
</g>
<!-- Node15&#45;&gt;Node2 -->
<g id="edge23" class="edge">
<title>Node15&#45;&gt;Node2</title>
<path fill="none" stroke="midnightblue" d="M820.53,-235.22C815.19,-221.95 807.52,-196.46 818.5,-179 851.03,-127.25 918.31,-101.41 968,-88.91"/>
<polygon fill="midnightblue" stroke="midnightblue" points="969.09,-92.25 978,-86.52 967.46,-85.44 969.09,-92.25"/>
</g>
<!-- Node15&#45;&gt;Node9 -->
<g id="edge24" class="edge">
<title>Node15&#45;&gt;Node9</title>
<path fill="none" stroke="midnightblue" d="M866.17,-235.44C912.25,-225.98 986.5,-210.74 1036.13,-200.55"/>
<polygon fill="midnightblue" stroke="midnightblue" points="1036.93,-203.96 1046.02,-198.52 1035.52,-197.1 1036.93,-203.96"/>
</g>
<!-- Node16 -->
<g id="node16" class="node">
<title>Node16</title>
<g id="a_node16"><a xlink:title=" ">
<polygon fill="white" stroke="#bfbfbf" points="892,-179.5 892,-198.5 933,-198.5 933,-179.5 892,-179.5"/>
<text text-anchor="middle" x="912.5" y="-186.5" font-family="'Souce Sans Pro', Roboto, FreeSans, sans-serif" font-size="10.00">ctime</text>
</a>
</g>
</g>
<!-- Node15&#45;&gt;Node16 -->
<g id="edge25" class="edge">
<title>Node15&#45;&gt;Node16</title>
<path fill="none" stroke="midnightblue" d="M838.64,-235.32C852.37,-226.9 873.44,-213.97 889.56,-204.07"/>
<polygon fill="midnightblue" stroke="midnightblue" points="891.7,-206.87 898.4,-198.65 888.04,-200.9 891.7,-206.87"/>
</g>
<!-- Node17 -->
<g id="node17" class="node">
<title>Node17</title>
<g id="a_node17"><a xlink:title=" ">
<polygon fill="white" stroke="#bfbfbf" points="827,-179.5 827,-198.5 874,-198.5 874,-179.5 827,-179.5"/>
<text text-anchor="middle" x="850.5" y="-186.5" font-family="'Souce Sans Pro', Roboto, FreeSans, sans-serif" font-size="10.00">chrono</text>
</a>
</g>
</g>
<!-- Node15&#45;&gt;Node17 -->
<g id="edge26" class="edge">
<title>Node15&#45;&gt;Node17</title>
<path fill="none" stroke="midnightblue" d="M828.79,-235.08C832.35,-227.69 837.52,-216.95 841.92,-207.81"/>
<polygon fill="midnightblue" stroke="midnightblue" points="845.1,-209.28 846.29,-198.75 838.79,-206.24 845.1,-209.28"/>
</g>
<!-- Node19&#45;&gt;Node2 -->
<g id="edge32" class="edge">
<title>Node19&#45;&gt;Node2</title>
<path fill="none" stroke="midnightblue" d="M141.04,-235.45C115.52,-223.97 78.27,-202.33 94.5,-179 135.38,-120.24 175.44,-137.66 245.5,-123 382.03,-94.43 801.52,-82.77 963.63,-79.25"/>
<polygon fill="midnightblue" stroke="midnightblue" points="964,-82.74 973.93,-79.03 963.85,-75.74 964,-82.74"/>
</g>
<!-- Node20 -->
<g id="node20" class="node">
<title>Node20</title>
<g id="a_node20"><a xlink:href="syncprims_8h.html" target="_top" xlink:title=" ">
<polygon fill="white" stroke="black" points="441,-179.5 441,-198.5 590,-198.5 590,-179.5 441,-179.5"/>
<text text-anchor="middle" x="515.5" y="-186.5" font-family="'Souce Sans Pro', Roboto, FreeSans, sans-serif" font-size="10.00">log4cplus/thread/syncprims.h</text>
</a>
</g>
</g>
<!-- Node19&#45;&gt;Node20 -->
<g id="edge33" class="edge">
<title>Node19&#45;&gt;Node20</title>
<path fill="none" stroke="midnightblue" d="M218.43,-235.44C281.3,-225.83 383.27,-210.23 449.86,-200.04"/>
<polygon fill="midnightblue" stroke="midnightblue" points="450.47,-203.49 459.83,-198.52 449.41,-196.57 450.47,-203.49"/>
</g>
<!-- Node23 -->
<g id="node23" class="node">
<title>Node23</title>
<g id="a_node23"><a xlink:title=" ">
<polygon fill="white" stroke="#bfbfbf" points="104,-179.5 104,-198.5 163,-198.5 163,-179.5 104,-179.5"/>
<text text-anchor="middle" x="133.5" y="-186.5" font-family="'Souce Sans Pro', Roboto, FreeSans, sans-serif" font-size="10.00">algorithm</text>
</a>
</g>
</g>
<!-- Node19&#45;&gt;Node23 -->
<g id="edge37" class="edge">
<title>Node19&#45;&gt;Node23</title>
<path fill="none" stroke="midnightblue" d="M157.71,-235.08C153.74,-227.69 147.97,-216.95 143.07,-207.81"/>
<polygon fill="midnightblue" stroke="midnightblue" points="146.01,-205.91 138.2,-198.75 139.85,-209.22 146.01,-205.91"/>
</g>
<!-- Node24 -->
<g id="node24" class="node">
<title>Node24</title>
<g id="a_node24"><a xlink:title=" ">
<polygon fill="white" stroke="#bfbfbf" points="181.5,-179.5 181.5,-198.5 231.5,-198.5 231.5,-179.5 181.5,-179.5"/>
<text text-anchor="middle" x="206.5" y="-186.5" font-family="'Souce Sans Pro', Roboto, FreeSans, sans-serif" font-size="10.00">cassert</text>
</a>
</g>
</g>
<!-- Node19&#45;&gt;Node24 -->
<g id="edge38" class="edge">
<title>Node19&#45;&gt;Node24</title>
<path fill="none" stroke="midnightblue" d="M169.77,-235.08C176.04,-227.38 185.29,-216.03 192.93,-206.65"/>
<polygon fill="midnightblue" stroke="midnightblue" points="195.77,-208.71 199.37,-198.75 190.34,-204.29 195.77,-208.71"/>
</g>
<!-- Node19&#45;&gt;Node25 -->
<g id="edge39" class="edge">
<title>Node19&#45;&gt;Node25</title>
<path fill="none" stroke="midnightblue" d="M140.48,-235.44C117.4,-226.48 80.94,-212.31 54.86,-202.18"/>
<polygon fill="midnightblue" stroke="midnightblue" points="56.01,-198.88 45.42,-198.52 53.48,-205.4 56.01,-198.88"/>
</g>
<!-- Node20&#45;&gt;Node2 -->
<g id="edge34" class="edge">
<title>Node20&#45;&gt;Node2</title>
<path fill="none" stroke="midnightblue" d="M520.72,-179.4C530.07,-164.89 551.15,-135.86 577.5,-123 643.86,-90.6 855.35,-81.52 963.48,-78.98"/>
<polygon fill="midnightblue" stroke="midnightblue" points="963.7,-82.48 973.62,-78.76 963.54,-75.48 963.7,-82.48"/>
</g>
<!-- Node20&#45;&gt;Node21 -->
<g id="edge35" class="edge">
<title>Node20&#45;&gt;Node21</title>
<path fill="none" stroke="midnightblue" d="M530.44,-179.32C545.09,-170.82 567.63,-157.73 584.74,-147.8"/>
<polygon fill="midnightblue" stroke="midnightblue" points="586.7,-150.7 593.6,-142.65 583.19,-144.65 586.7,-150.7"/>
</g>
<!-- Node20&#45;&gt;Node22 -->
<g id="edge36" class="edge">
<title>Node20&#45;&gt;Node22</title>
<path fill="none" stroke="midnightblue" d="M501.84,-179.32C488.58,-170.9 468.23,-157.97 452.65,-148.07"/>
<polygon fill="midnightblue" stroke="midnightblue" points="454.44,-145.06 444.12,-142.65 450.69,-150.97 454.44,-145.06"/>
</g>
<!-- Node26&#45;&gt;Node2 -->
<g id="edge41" class="edge">
<title>Node26&#45;&gt;Node2</title>
<path fill="none" stroke="midnightblue" d="M334.87,-291.27C328.73,-282.61 320.04,-268.67 316.5,-255 314.27,-246.4 314.43,-243.64 316.5,-235 329.53,-180.69 326.91,-153.81 373.5,-123 421.89,-91 807.51,-81.44 963.43,-78.86"/>
<polygon fill="midnightblue" stroke="midnightblue" points="963.86,-82.36 973.8,-78.7 963.75,-75.36 963.86,-82.36"/>
</g>
<!-- Node26&#45;&gt;Node7 -->
<g id="edge44" class="edge">
<title>Node26&#45;&gt;Node7</title>
<path fill="none" stroke="midnightblue" d="M395.26,-295.96C496.24,-288.32 721.17,-271.09 910.5,-255 922.39,-253.99 935.08,-252.87 947.27,-251.77"/>
<polygon fill="midnightblue" stroke="midnightblue" points="947.72,-255.24 957.36,-250.86 947.08,-248.27 947.72,-255.24"/>
</g>
<!-- Node26&#45;&gt;Node19 -->
<g id="edge43" class="edge">
<title>Node26&#45;&gt;Node19</title>
<path fill="none" stroke="midnightblue" d="M313.14,-291.44C282.76,-282.28 234.39,-267.69 200.68,-257.52"/>
<polygon fill="midnightblue" stroke="midnightblue" points="201.32,-254.05 190.73,-254.52 199.29,-260.76 201.32,-254.05"/>
</g>
<!-- Node27 -->
<g id="node27" class="node">
<title>Node27</title>
<g id="a_node27"><a xlink:title=" ">
<polygon fill="white" stroke="#bfbfbf" points="325.5,-235.5 325.5,-254.5 385.5,-254.5 385.5,-235.5 325.5,-235.5"/>
<text text-anchor="middle" x="355.5" y="-242.5" font-family="'Souce Sans Pro', Roboto, FreeSans, sans-serif" font-size="10.00">functional</text>
</a>
</g>
</g>
<!-- Node26&#45;&gt;Node27 -->
<g id="edge42" class="edge">
<title>Node26&#45;&gt;Node27</title>
<path fill="none" stroke="midnightblue" d="M343.81,-291.08C345.67,-283.93 348.34,-273.64 350.65,-264.69"/>
<polygon fill="midnightblue" stroke="midnightblue" points="354.11,-265.31 353.23,-254.75 347.33,-263.55 354.11,-265.31"/>
</g>
<!-- Node28&#45;&gt;Node2 -->
<g id="edge46" class="edge">
<title>Node28&#45;&gt;Node2</title>
<path fill="none" stroke="midnightblue" d="M568.7,-235.47C585.97,-227.35 611.6,-214.14 631.5,-199 669.02,-170.46 663.44,-144.29 705.5,-123 749.4,-100.78 882.59,-87.99 963.58,-82.06"/>
<polygon fill="midnightblue" stroke="midnightblue" points="963.95,-85.55 973.68,-81.34 963.45,-78.57 963.95,-85.55"/>
</g>
<!-- Node28&#45;&gt;Node9 -->
<g id="edge47" class="edge">
<title>Node28&#45;&gt;Node9</title>
<path fill="none" stroke="midnightblue" d="M619.7,-235.94C622.68,-235.62 625.62,-235.31 628.5,-235 771.73,-219.82 940.29,-203.76 1027.87,-195.54"/>
<polygon fill="midnightblue" stroke="midnightblue" points="1028.26,-199.02 1037.89,-194.61 1027.61,-192.05 1028.26,-199.02"/>
</g>
<!-- Node28&#45;&gt;Node20 -->
<g id="edge48" class="edge">
<title>Node28&#45;&gt;Node20</title>
<path fill="none" stroke="midnightblue" d="M543.89,-235.08C539.13,-227.53 532.18,-216.49 526.35,-207.23"/>
<polygon fill="midnightblue" stroke="midnightblue" points="529.3,-205.35 521.01,-198.75 523.38,-209.08 529.3,-205.35"/>
</g>
<!-- Node29&#45;&gt;Node2 -->
<g id="edge54" class="edge">
<title>Node29&#45;&gt;Node2</title>
<path fill="none" stroke="midnightblue" d="M1366.62,-462.96C1426.99,-453.74 1521.5,-428.11 1521.5,-358 1521.5,-358 1521.5,-358 1521.5,-300 1521.5,-114.29 1227.04,-83.03 1093.26,-78.41"/>
<polygon fill="midnightblue" stroke="midnightblue" points="1093.25,-74.91 1083.14,-78.1 1093.03,-81.91 1093.25,-74.91"/>
</g>
<!-- Node29&#45;&gt;Node7 -->
<g id="edge55" class="edge">
<title>Node29&#45;&gt;Node7</title>
<path fill="none" stroke="midnightblue" d="M1268.31,-464.98C1204.45,-460.09 1097.72,-448.31 1068.5,-423 1021.01,-381.85 1011.61,-301.42 1009.85,-264.87"/>
<polygon fill="midnightblue" stroke="midnightblue" points="1013.34,-264.53 1009.51,-254.66 1006.34,-264.77 1013.34,-264.53"/>
</g>
<!-- Node29&#45;&gt;Node8 -->
<g id="edge66" class="edge">
<title>Node29&#45;&gt;Node8</title>
<path fill="none" stroke="midnightblue" d="M1317.5,-459.44C1317.5,-440.94 1317.5,-395.81 1317.5,-358 1317.5,-358 1317.5,-358 1317.5,-300 1317.5,-269.2 1311.03,-260.32 1293.5,-235 1285.32,-223.19 1273.35,-212.54 1262.95,-204.57"/>
<polygon fill="midnightblue" stroke="midnightblue" points="1264.84,-201.62 1254.7,-198.54 1260.71,-207.27 1264.84,-201.62"/>
</g>
<!-- Node29&#45;&gt;Node9 -->
<g id="edge56" class="edge">
<title>Node29&#45;&gt;Node9</title>
<path fill="none" stroke="midnightblue" d="M1312.22,-459.23C1301.77,-441.04 1279.5,-397.6 1279.5,-358 1279.5,-358 1279.5,-358 1279.5,-300 1279.5,-238.21 1203.71,-210.64 1147.36,-198.68"/>
<polygon fill="midnightblue" stroke="midnightblue" points="1147.94,-195.23 1137.44,-196.7 1146.56,-202.09 1147.94,-195.23"/>
</g>
<!-- Node30 -->
<g id="node30" class="node">
<title>Node30</title>
<g id="a_node30"><a xlink:href="appenderattachable_8h.html" target="_top" xlink:title=" ">
<polygon fill="white" stroke="black" points="1077.5,-403.5 1077.5,-422.5 1251.5,-422.5 1251.5,-403.5 1077.5,-403.5"/>
<text text-anchor="middle" x="1164.5" y="-410.5" font-family="'Souce Sans Pro', Roboto, FreeSans, sans-serif" font-size="10.00">log4cplus/spi/appenderattachable.h</text>
</a>
</g>
</g>
<!-- Node29&#45;&gt;Node30 -->
<g id="edge57" class="edge">
<title>Node29&#45;&gt;Node30</title>
<path fill="none" stroke="midnightblue" d="M1293.26,-459.44C1267.63,-450.4 1227.01,-436.06 1198.26,-425.92"/>
<polygon fill="midnightblue" stroke="midnightblue" points="1199.22,-422.54 1188.63,-422.52 1196.89,-429.15 1199.22,-422.54"/>
</g>
<!-- Node31 -->
<g id="node31" class="node">
<title>Node31</title>
<g id="a_node31"><a xlink:href="loggerfactory_8h.html" target="_top" xlink:title=" ">
<polygon fill="white" stroke="black" points="1345.5,-235.5 1345.5,-254.5 1493.5,-254.5 1493.5,-235.5 1345.5,-235.5"/>
<text text-anchor="middle" x="1419.5" y="-242.5" font-family="'Souce Sans Pro', Roboto, FreeSans, sans-serif" font-size="10.00">log4cplus/spi/loggerfactory.h</text>
</a>
</g>
</g>
<!-- Node29&#45;&gt;Node31 -->
<g id="edge63" class="edge">
<title>Node29&#45;&gt;Node31</title>
<path fill="none" stroke="midnightblue" d="M1321.5,-459.3C1336.6,-426.42 1390.37,-309.39 1411.19,-264.09"/>
<polygon fill="midnightblue" stroke="midnightblue" points="1414.42,-265.43 1415.42,-254.88 1408.06,-262.51 1414.42,-265.43"/>
</g>
<!-- Node30&#45;&gt;Node2 -->
<g id="edge58" class="edge">
<title>Node30&#45;&gt;Node2</title>
<path fill="none" stroke="midnightblue" d="M1164.63,-403.44C1164.9,-384.94 1165.5,-339.81 1165.5,-302 1165.5,-302 1165.5,-302 1165.5,-188 1165.5,-137 1107.05,-105.69 1066.51,-90.11"/>
<polygon fill="midnightblue" stroke="midnightblue" points="1067.48,-86.74 1056.89,-86.58 1065.07,-93.31 1067.48,-86.74"/>
</g>
<!-- Node30&#45;&gt;Node5 -->
<g id="edge59" class="edge">
<title>Node30&#45;&gt;Node5</title>
<path fill="none" stroke="midnightblue" d="M1077.36,-404.35C953.01,-393.43 727.35,-373.62 615.71,-363.81"/>
<polygon fill="midnightblue" stroke="midnightblue" points="615.86,-360.31 605.6,-362.93 615.25,-367.29 615.86,-360.31"/>
</g>
<!-- Node30&#45;&gt;Node8 -->
<g id="edge62" class="edge">
<title>Node30&#45;&gt;Node8</title>
<path fill="none" stroke="midnightblue" d="M1167.52,-403.3C1178.9,-370.49 1219.34,-253.88 1235.13,-208.38"/>
<polygon fill="midnightblue" stroke="midnightblue" points="1238.45,-209.48 1238.42,-198.88 1231.83,-207.18 1238.45,-209.48"/>
</g>
<!-- Node30&#45;&gt;Node9 -->
<g id="edge60" class="edge">
<title>Node30&#45;&gt;Node9</title>
<path fill="none" stroke="midnightblue" d="M1161.48,-403.3C1150.1,-370.49 1109.66,-253.88 1093.87,-208.38"/>
<polygon fill="midnightblue" stroke="midnightblue" points="1097.17,-207.18 1090.58,-198.88 1090.55,-209.48 1097.17,-207.18"/>
</g>
<!-- Node30&#45;&gt;Node19 -->
<g id="edge61" class="edge">
<title>Node30&#45;&gt;Node19</title>
<path fill="none" stroke="midnightblue" d="M1077.45,-409.99C947.74,-406.15 696.3,-395.44 484.5,-367 360.88,-350.4 314.32,-378.6 209.5,-311 191.81,-299.59 178.63,-279 170.8,-264.05"/>
<polygon fill="midnightblue" stroke="midnightblue" points="173.79,-262.2 166.24,-254.77 167.51,-265.29 173.79,-262.2"/>
</g>
<!-- Node31&#45;&gt;Node2 -->
<g id="edge64" class="edge">
<title>Node31&#45;&gt;Node2</title>
<path fill="none" stroke="midnightblue" d="M1404.77,-235.4C1367.84,-214.12 1267.96,-158.16 1179.5,-123 1144.67,-109.16 1103.87,-97.24 1073.47,-89.16"/>
<polygon fill="midnightblue" stroke="midnightblue" points="1074.14,-85.71 1063.58,-86.56 1072.36,-92.49 1074.14,-85.71"/>
</g>
<!-- Node31&#45;&gt;Node9 -->
<g id="edge65" class="edge">
<title>Node31&#45;&gt;Node9</title>
<path fill="none" stroke="midnightblue" d="M1366.89,-235.44C1307.14,-225.72 1209.84,-209.9 1147.26,-199.72"/>
<polygon fill="midnightblue" stroke="midnightblue" points="1147.58,-196.23 1137.15,-198.08 1146.46,-203.14 1147.58,-196.23"/>
</g>
<!-- Node32&#45;&gt;Node2 -->
<g id="edge69" class="edge">
<title>Node32&#45;&gt;Node2</title>
<path fill="none" stroke="midnightblue" d="M1704.77,-235.4C1722.28,-213.62 1763.17,-155.69 1732.5,-123 1710.8,-99.87 1263.29,-84.71 1093.27,-79.76"/>
<polygon fill="midnightblue" stroke="midnightblue" points="1093.3,-76.26 1083.2,-79.47 1093.09,-83.26 1093.3,-76.26"/>
</g>
<!-- Node32&#45;&gt;Node8 -->
<g id="edge73" class="edge">
<title>Node32&#45;&gt;Node8</title>
<path fill="none" stroke="midnightblue" d="M1625.5,-235.47C1525,-223.57 1346.81,-202.47 1273.93,-193.84"/>
<polygon fill="midnightblue" stroke="midnightblue" points="1273.91,-190.31 1263.57,-192.61 1273.08,-197.26 1273.91,-190.31"/>
</g>
<!-- Node32&#45;&gt;Node9 -->
<g id="edge71" class="edge">
<title>Node32&#45;&gt;Node9</title>
<path fill="none" stroke="midnightblue" d="M1625.43,-237.62C1503.91,-226.86 1260.46,-205.31 1147.56,-195.32"/>
<polygon fill="midnightblue" stroke="midnightblue" points="1147.64,-191.81 1137.37,-194.42 1147.03,-198.78 1147.64,-191.81"/>
</g>
<!-- Node32&#45;&gt;Node13 -->
<g id="edge70" class="edge">
<title>Node32&#45;&gt;Node13</title>
<path fill="none" stroke="midnightblue" d="M1683.68,-235.32C1670.27,-226.9 1649.68,-213.97 1633.91,-204.07"/>
<polygon fill="midnightblue" stroke="midnightblue" points="1635.61,-201.01 1625.28,-198.65 1631.89,-206.94 1635.61,-201.01"/>
</g>
<!-- Node32&#45;&gt;Node33 -->
<g id="edge72" class="edge">
<title>Node32&#45;&gt;Node33</title>
<path fill="none" stroke="midnightblue" d="M1713.57,-235.32C1729.46,-226.74 1754.01,-213.49 1772.46,-203.52"/>
<polygon fill="midnightblue" stroke="midnightblue" points="1774.34,-206.49 1781.47,-198.65 1771.01,-200.33 1774.34,-206.49"/>
</g>
</g>
</svg>
