<?xml version="1.0" encoding="UTF-8" standalone="no"?>
<!DOCTYPE svg PUBLIC "-//W3C//DTD SVG 1.1//EN"
 "http://www.w3.org/Graphics/SVG/1.1/DTD/svg11.dtd">
<!-- Generated by graphviz version 2.43.0 (0)
 -->
<!-- Title: connectorthread.h Pages: 1 -->
<svg width="216pt" height="140pt"
 viewBox="0.00 0.00 215.50 140.00" xmlns="http://www.w3.org/2000/svg" xmlns:xlink="http://www.w3.org/1999/xlink">
<g id="graph0" class="graph" transform="scale(1 1) rotate(0) translate(4 136)">
<title>connectorthread.h</title>
<polygon fill="white" stroke="transparent" points="-4,4 -4,-136 211.5,-136 211.5,4 -4,4"/>
<!-- Node1 -->
<g id="node1" class="node">
<title>Node1</title>
<g id="a_node1"><a xlink:title=" ">
<polygon fill="#bfbfbf" stroke="black" points="54.5,-112.5 54.5,-131.5 152.5,-131.5 152.5,-112.5 54.5,-112.5"/>
<text text-anchor="middle" x="103.5" y="-119.5" font-family="'Souce Sans Pro', Roboto, FreeSans, sans-serif" font-size="10.00">connectorthread.h</text>
</a>
</g>
</g>
<!-- Node2 -->
<g id="node2" class="node">
<title>Node2</title>
<g id="a_node2"><a xlink:href="socketappender_8h.html" target="_top" xlink:title=" ">
<polygon fill="white" stroke="black" points="0,-56.5 0,-75.5 95,-75.5 95,-56.5 0,-56.5"/>
<text text-anchor="middle" x="47.5" y="-63.5" font-family="'Souce Sans Pro', Roboto, FreeSans, sans-serif" font-size="10.00">socketappender.h</text>
</a>
</g>
</g>
<!-- Node1&#45;&gt;Node2 -->
<g id="edge1" class="edge">
<title>Node1&#45;&gt;Node2</title>
<path fill="none" stroke="midnightblue" d="M87.17,-105.25C77.24,-95.67 64.91,-83.79 56.66,-75.83"/>
<polygon fill="midnightblue" stroke="midnightblue" points="84.87,-107.9 94.5,-112.32 89.73,-102.86 84.87,-107.9"/>
</g>
<!-- Node4 -->
<g id="node4" class="node">
<title>Node4</title>
<g id="a_node4"><a xlink:href="syslogappender_8h.html" target="_top" xlink:title=" ">
<polygon fill="white" stroke="black" points="113.5,-56.5 113.5,-75.5 207.5,-75.5 207.5,-56.5 113.5,-56.5"/>
<text text-anchor="middle" x="160.5" y="-63.5" font-family="'Souce Sans Pro', Roboto, FreeSans, sans-serif" font-size="10.00">syslogappender.h</text>
</a>
</g>
</g>
<!-- Node1&#45;&gt;Node4 -->
<g id="edge3" class="edge">
<title>Node1&#45;&gt;Node4</title>
<path fill="none" stroke="midnightblue" d="M120.12,-105.25C130.23,-95.67 142.78,-83.79 151.18,-75.83"/>
<polygon fill="midnightblue" stroke="midnightblue" points="117.51,-102.91 112.66,-112.32 122.32,-107.99 117.51,-102.91"/>
</g>
<!-- Node3 -->
<g id="node3" class="node">
<title>Node3</title>
<g id="a_node3"><a xlink:href="log4cplus_8h.html" target="_top" xlink:title=" ">
<polygon fill="white" stroke="black" points="70,-0.5 70,-19.5 137,-19.5 137,-0.5 70,-0.5"/>
<text text-anchor="middle" x="103.5" y="-7.5" font-family="'Souce Sans Pro', Roboto, FreeSans, sans-serif" font-size="10.00">log4cplus.h</text>
</a>
</g>
</g>
<!-- Node2&#45;&gt;Node3 -->
<g id="edge2" class="edge">
<title>Node2&#45;&gt;Node3</title>
<path fill="none" stroke="midnightblue" d="M63.83,-49.25C73.76,-39.67 86.09,-27.79 94.34,-19.83"/>
<polygon fill="midnightblue" stroke="midnightblue" points="61.27,-46.86 56.5,-56.32 66.13,-51.9 61.27,-46.86"/>
</g>
<!-- Node4&#45;&gt;Node3 -->
<g id="edge4" class="edge">
<title>Node4&#45;&gt;Node3</title>
<path fill="none" stroke="midnightblue" d="M143.88,-49.25C133.77,-39.67 121.22,-27.79 112.82,-19.83"/>
<polygon fill="midnightblue" stroke="midnightblue" points="141.68,-51.99 151.34,-56.32 146.49,-46.91 141.68,-51.99"/>
</g>
</g>
</svg>
