<?xml version="1.0" encoding="UTF-8" standalone="no"?>
<!DOCTYPE svg PUBLIC "-//W3C//DTD SVG 1.1//EN"
 "http://www.w3.org/Graphics/SVG/1.1/DTD/svg11.dtd">
<!-- Generated by graphviz version 2.43.0 (0)
 -->
<!-- Title: deviceappender.hxx Pages: 1 -->
<svg width="1892pt" height="442pt"
 viewBox="0.00 0.00 1892.00 442.00" xmlns="http://www.w3.org/2000/svg" xmlns:xlink="http://www.w3.org/1999/xlink">
<g id="graph0" class="graph" transform="scale(1 1) rotate(0) translate(4 438)">
<title>deviceappender.hxx</title>
<polygon fill="white" stroke="transparent" points="-4,4 -4,-438 1888,-438 1888,4 -4,4"/>
<!-- Node1 -->
<g id="node1" class="node">
<title>Node1</title>
<g id="a_node1"><a xlink:title=" ">
<polygon fill="#bfbfbf" stroke="black" points="1353.5,-414.5 1353.5,-433.5 1457.5,-433.5 1457.5,-414.5 1353.5,-414.5"/>
<text text-anchor="middle" x="1405.5" y="-421.5" font-family="'Souce Sans Pro', Roboto, FreeSans, sans-serif" font-size="10.00">deviceappender.hxx</text>
</a>
</g>
</g>
<!-- Node2 -->
<g id="node2" class="node">
<title>Node2</title>
<g id="a_node2"><a xlink:href="config_8hxx.html" target="_top" xlink:title=" ">
<polygon fill="white" stroke="black" points="526,-67.5 526,-86.5 635,-86.5 635,-67.5 526,-67.5"/>
<text text-anchor="middle" x="580.5" y="-74.5" font-family="'Souce Sans Pro', Roboto, FreeSans, sans-serif" font-size="10.00">log4cplus/config.hxx</text>
</a>
</g>
</g>
<!-- Node1&#45;&gt;Node2 -->
<g id="edge1" class="edge">
<title>Node1&#45;&gt;Node2</title>
<path fill="none" stroke="midnightblue" d="M1353.3,-416.07C1306.49,-408.82 1242.49,-395.96 1224.5,-378 1199.86,-353.4 1205.5,-336.82 1205.5,-302 1205.5,-302 1205.5,-302 1205.5,-188 1205.5,-147.77 1178.89,-140.15 1142.5,-123 1055.97,-82.22 773.96,-77.48 645.41,-77.52"/>
<polygon fill="midnightblue" stroke="midnightblue" points="645.31,-74.02 635.31,-77.53 645.32,-81.02 645.31,-74.02"/>
</g>
<!-- Node5 -->
<g id="node5" class="node">
<title>Node5</title>
<g id="a_node5"><a xlink:title=" ">
<polygon fill="white" stroke="#bfbfbf" points="1233.5,-347.5 1233.5,-377.5 1335.5,-377.5 1335.5,-347.5 1233.5,-347.5"/>
<text text-anchor="start" x="1241.5" y="-365.5" font-family="'Souce Sans Pro', Roboto, FreeSans, sans-serif" font-size="10.00">boost/utility/enable</text>
<text text-anchor="middle" x="1284.5" y="-354.5" font-family="'Souce Sans Pro', Roboto, FreeSans, sans-serif" font-size="10.00">_if.hpp</text>
</a>
</g>
</g>
<!-- Node1&#45;&gt;Node5 -->
<g id="edge4" class="edge">
<title>Node1&#45;&gt;Node5</title>
<path fill="none" stroke="midnightblue" d="M1388.16,-414.48C1371.01,-406.04 1344.2,-392.86 1322.14,-382.01"/>
<polygon fill="midnightblue" stroke="midnightblue" points="1323.54,-378.79 1313.02,-377.52 1320.45,-385.08 1323.54,-378.79"/>
</g>
<!-- Node6 -->
<g id="node6" class="node">
<title>Node6</title>
<g id="a_node6"><a xlink:title=" ">
<polygon fill="white" stroke="#bfbfbf" points="1354,-347.5 1354,-377.5 1457,-377.5 1457,-347.5 1354,-347.5"/>
<text text-anchor="start" x="1362" y="-365.5" font-family="'Souce Sans Pro', Roboto, FreeSans, sans-serif" font-size="10.00">boost/type_traits/is</text>
<text text-anchor="middle" x="1405.5" y="-354.5" font-family="'Souce Sans Pro', Roboto, FreeSans, sans-serif" font-size="10.00">_same.hpp</text>
</a>
</g>
</g>
<!-- Node1&#45;&gt;Node6 -->
<g id="edge5" class="edge">
<title>Node1&#45;&gt;Node6</title>
<path fill="none" stroke="midnightblue" d="M1405.5,-414.48C1405.5,-407.47 1405.5,-397.19 1405.5,-387.7"/>
<polygon fill="midnightblue" stroke="midnightblue" points="1409,-387.52 1405.5,-377.52 1402,-387.52 1409,-387.52"/>
</g>
<!-- Node7 -->
<g id="node7" class="node">
<title>Node7</title>
<g id="a_node7"><a xlink:title=" ">
<polygon fill="white" stroke="#bfbfbf" points="1475,-353 1475,-372 1576,-372 1576,-353 1475,-353"/>
<text text-anchor="middle" x="1525.5" y="-360" font-family="'Souce Sans Pro', Roboto, FreeSans, sans-serif" font-size="10.00">boost/mpl/not.hpp</text>
</a>
</g>
</g>
<!-- Node1&#45;&gt;Node7 -->
<g id="edge6" class="edge">
<title>Node1&#45;&gt;Node7</title>
<path fill="none" stroke="midnightblue" d="M1422.69,-414.48C1442.74,-404.53 1476.1,-387.99 1499.36,-376.46"/>
<polygon fill="midnightblue" stroke="midnightblue" points="1500.93,-379.59 1508.34,-372.01 1497.82,-373.32 1500.93,-379.59"/>
</g>
<!-- Node8 -->
<g id="node8" class="node">
<title>Node8</title>
<g id="a_node8"><a xlink:title=" ">
<polygon fill="white" stroke="#bfbfbf" points="1594,-353 1594,-372 1755,-372 1755,-353 1594,-353"/>
<text text-anchor="middle" x="1674.5" y="-360" font-family="'Souce Sans Pro', Roboto, FreeSans, sans-serif" font-size="10.00">boost/iostreams/operations.hpp</text>
</a>
</g>
</g>
<!-- Node1&#45;&gt;Node8 -->
<g id="edge7" class="edge">
<title>Node1&#45;&gt;Node8</title>
<path fill="none" stroke="midnightblue" d="M1444.04,-414.48C1491.98,-403.87 1573.86,-385.76 1626.01,-374.22"/>
<polygon fill="midnightblue" stroke="midnightblue" points="1627.02,-377.59 1636.03,-372.01 1625.51,-370.75 1627.02,-377.59"/>
</g>
<!-- Node9 -->
<g id="node9" class="node">
<title>Node9</title>
<g id="a_node9"><a xlink:title=" ">
<polygon fill="white" stroke="#bfbfbf" points="1773,-353 1773,-372 1884,-372 1884,-353 1773,-353"/>
<text text-anchor="middle" x="1828.5" y="-360" font-family="'Souce Sans Pro', Roboto, FreeSans, sans-serif" font-size="10.00">boost/shared_ptr.hpp</text>
</a>
</g>
</g>
<!-- Node1&#45;&gt;Node9 -->
<g id="edge8" class="edge">
<title>Node1&#45;&gt;Node9</title>
<path fill="none" stroke="midnightblue" d="M1457.76,-418.07C1527.86,-411.09 1656.08,-397.03 1764.5,-378 1770.76,-376.9 1777.33,-375.59 1783.78,-374.22"/>
<polygon fill="midnightblue" stroke="midnightblue" points="1784.73,-377.59 1793.75,-372.03 1783.23,-370.76 1784.73,-377.59"/>
</g>
<!-- Node10 -->
<g id="node10" class="node">
<title>Node10</title>
<g id="a_node10"><a xlink:href="appender_8h.html" target="_top" xlink:title=" ">
<polygon fill="white" stroke="black" points="752.5,-353 752.5,-372 864.5,-372 864.5,-353 752.5,-353"/>
<text text-anchor="middle" x="808.5" y="-360" font-family="'Souce Sans Pro', Roboto, FreeSans, sans-serif" font-size="10.00">log4cplus/appender.h</text>
</a>
</g>
</g>
<!-- Node1&#45;&gt;Node10 -->
<g id="edge9" class="edge">
<title>Node1&#45;&gt;Node10</title>
<path fill="none" stroke="midnightblue" d="M1353.3,-417.8C1244.67,-406.97 994.46,-382.03 874.71,-370.1"/>
<polygon fill="midnightblue" stroke="midnightblue" points="874.87,-366.6 864.58,-369.09 874.18,-373.56 874.87,-366.6"/>
</g>
<!-- Node3 -->
<g id="node3" class="node">
<title>Node3</title>
<g id="a_node3"><a xlink:href="win32_8h.html" target="_top" xlink:title=" ">
<polygon fill="white" stroke="black" points="443.5,-6 443.5,-25 571.5,-25 571.5,-6 443.5,-6"/>
<text text-anchor="middle" x="507.5" y="-13" font-family="'Souce Sans Pro', Roboto, FreeSans, sans-serif" font-size="10.00">log4cplus/config/win32.h</text>
</a>
</g>
</g>
<!-- Node2&#45;&gt;Node3 -->
<g id="edge2" class="edge">
<title>Node2&#45;&gt;Node3</title>
<path fill="none" stroke="midnightblue" d="M570.04,-67.48C558.55,-58.11 539.87,-42.88 525.91,-31.51"/>
<polygon fill="midnightblue" stroke="midnightblue" points="527.9,-28.61 517.94,-25.01 523.48,-34.04 527.9,-28.61"/>
</g>
<!-- Node4 -->
<g id="node4" class="node">
<title>Node4</title>
<g id="a_node4"><a xlink:href="thread-config_8h.html" target="_top" xlink:title=" ">
<polygon fill="white" stroke="black" points="589.5,-0.5 589.5,-30.5 717.5,-30.5 717.5,-0.5 589.5,-0.5"/>
<text text-anchor="start" x="597.5" y="-18.5" font-family="'Souce Sans Pro', Roboto, FreeSans, sans-serif" font-size="10.00">log4cplus/helpers/thread</text>
<text text-anchor="middle" x="653.5" y="-7.5" font-family="'Souce Sans Pro', Roboto, FreeSans, sans-serif" font-size="10.00">&#45;config.h</text>
</a>
</g>
</g>
<!-- Node2&#45;&gt;Node4 -->
<g id="edge3" class="edge">
<title>Node2&#45;&gt;Node4</title>
<path fill="none" stroke="midnightblue" d="M590.96,-67.48C600.66,-59.57 615.49,-47.48 628.27,-37.07"/>
<polygon fill="midnightblue" stroke="midnightblue" points="630.76,-39.55 636.3,-30.52 626.33,-34.13 630.76,-39.55"/>
</g>
<!-- Node10&#45;&gt;Node2 -->
<g id="edge10" class="edge">
<title>Node10&#45;&gt;Node2</title>
<path fill="none" stroke="midnightblue" d="M804.73,-352.8C792.96,-325.79 757.2,-244.59 748.5,-235 727.61,-211.96 712.46,-218.83 688.5,-199 649.28,-166.55 611.59,-119.58 592.83,-94.79"/>
<polygon fill="midnightblue" stroke="midnightblue" points="595.6,-92.64 586.81,-86.73 589.99,-96.83 595.6,-92.64"/>
</g>
<!-- Node11 -->
<g id="node11" class="node">
<title>Node11</title>
<g id="a_node11"><a xlink:href="layout_8h.html" target="_top" xlink:title=" ">
<polygon fill="white" stroke="black" points="261.5,-291.5 261.5,-310.5 359.5,-310.5 359.5,-291.5 261.5,-291.5"/>
<text text-anchor="middle" x="310.5" y="-298.5" font-family="'Souce Sans Pro', Roboto, FreeSans, sans-serif" font-size="10.00">log4cplus/layout.h</text>
</a>
</g>
</g>
<!-- Node10&#45;&gt;Node11 -->
<g id="edge11" class="edge">
<title>Node10&#45;&gt;Node11</title>
<path fill="none" stroke="midnightblue" d="M752.34,-354.79C657.6,-343.47 466.91,-320.69 369.98,-309.11"/>
<polygon fill="midnightblue" stroke="midnightblue" points="370.11,-305.6 359.77,-307.89 369.28,-312.55 370.11,-305.6"/>
</g>
<!-- Node12 -->
<g id="node12" class="node">
<title>Node12</title>
<g id="a_node12"><a xlink:href="loglevel_8h.html" target="_top" xlink:title="This header defines the LogLevel type.">
<polygon fill="white" stroke="black" points="477.5,-235.5 477.5,-254.5 581.5,-254.5 581.5,-235.5 477.5,-235.5"/>
<text text-anchor="middle" x="529.5" y="-242.5" font-family="'Souce Sans Pro', Roboto, FreeSans, sans-serif" font-size="10.00">log4cplus/loglevel.h</text>
</a>
</g>
</g>
<!-- Node10&#45;&gt;Node12 -->
<g id="edge34" class="edge">
<title>Node10&#45;&gt;Node12</title>
<path fill="none" stroke="midnightblue" d="M787.53,-352.82C738.63,-332.58 616.9,-282.18 559.88,-258.57"/>
<polygon fill="midnightblue" stroke="midnightblue" points="560.91,-255.22 550.33,-254.62 558.23,-261.68 560.91,-255.22"/>
</g>
<!-- Node14 -->
<g id="node14" class="node">
<title>Node14</title>
<g id="a_node14"><a xlink:href="tstring_8h.html" target="_top" xlink:title=" ">
<polygon fill="white" stroke="black" points="400,-179.5 400,-198.5 499,-198.5 499,-179.5 400,-179.5"/>
<text text-anchor="middle" x="449.5" y="-186.5" font-family="'Souce Sans Pro', Roboto, FreeSans, sans-serif" font-size="10.00">log4cplus/tstring.h</text>
</a>
</g>
</g>
<!-- Node10&#45;&gt;Node14 -->
<g id="edge35" class="edge">
<title>Node10&#45;&gt;Node14</title>
<path fill="none" stroke="midnightblue" d="M752.47,-359.76C677.29,-354.34 544.45,-333.43 468.5,-255 456.63,-242.74 452.11,-223.48 450.42,-209.1"/>
<polygon fill="midnightblue" stroke="midnightblue" points="453.89,-208.53 449.59,-198.84 446.91,-209.09 453.89,-208.53"/>
</g>
<!-- Node23 -->
<g id="node23" class="node">
<title>Node23</title>
<g id="a_node23"><a xlink:title=" ">
<polygon fill="white" stroke="#bfbfbf" points="367.5,-235.5 367.5,-254.5 421.5,-254.5 421.5,-235.5 367.5,-235.5"/>
<text text-anchor="middle" x="394.5" y="-242.5" font-family="'Souce Sans Pro', Roboto, FreeSans, sans-serif" font-size="10.00">memory</text>
</a>
</g>
</g>
<!-- Node10&#45;&gt;Node23 -->
<g id="edge54" class="edge">
<title>Node10&#45;&gt;Node23</title>
<path fill="none" stroke="midnightblue" d="M752.29,-359.64C661.3,-355.69 486.76,-343.95 435.5,-311 418.54,-300.1 407.31,-279.41 400.97,-264.3"/>
<polygon fill="midnightblue" stroke="midnightblue" points="404.21,-262.98 397.34,-254.91 397.68,-265.5 404.21,-262.98"/>
</g>
<!-- Node24 -->
<g id="node24" class="node">
<title>Node24</title>
<g id="a_node24"><a xlink:href="pointer_8h.html" target="_top" xlink:title=" ">
<polygon fill="white" stroke="black" points="911.5,-235.5 911.5,-254.5 1049.5,-254.5 1049.5,-235.5 911.5,-235.5"/>
<text text-anchor="middle" x="980.5" y="-242.5" font-family="'Souce Sans Pro', Roboto, FreeSans, sans-serif" font-size="10.00">log4cplus/helpers/pointer.h</text>
</a>
</g>
</g>
<!-- Node10&#45;&gt;Node24 -->
<g id="edge36" class="edge">
<title>Node10&#45;&gt;Node24</title>
<path fill="none" stroke="midnightblue" d="M831.11,-352.92C852.95,-344.1 886.46,-329.1 912.5,-311 932.9,-296.82 953.07,-276.54 966.08,-262.41"/>
<polygon fill="midnightblue" stroke="midnightblue" points="968.76,-264.67 972.86,-254.9 963.56,-259.98 968.76,-264.67"/>
</g>
<!-- Node26 -->
<g id="node26" class="node">
<title>Node26</title>
<g id="a_node26"><a xlink:title=" ">
<polygon fill="white" stroke="#bfbfbf" points="888.5,-123.5 888.5,-142.5 932.5,-142.5 932.5,-123.5 888.5,-123.5"/>
<text text-anchor="middle" x="910.5" y="-130.5" font-family="'Souce Sans Pro', Roboto, FreeSans, sans-serif" font-size="10.00">mutex</text>
</a>
</g>
</g>
<!-- Node10&#45;&gt;Node26 -->
<g id="edge55" class="edge">
<title>Node10&#45;&gt;Node26</title>
<path fill="none" stroke="midnightblue" d="M864.77,-355.41C907.98,-348.97 968.1,-336.1 1015.5,-311 1073.19,-280.46 1093.33,-261.97 1110.5,-199 1112.84,-190.42 1116.05,-185.94 1110.5,-179 1089.85,-153.18 993.84,-141.14 942.72,-136.47"/>
<polygon fill="midnightblue" stroke="midnightblue" points="942.81,-132.97 932.54,-135.59 942.2,-139.94 942.81,-132.97"/>
</g>
<!-- Node27 -->
<g id="node27" class="node">
<title>Node27</title>
<g id="a_node27"><a xlink:title=" ">
<polygon fill="white" stroke="#bfbfbf" points="1037.5,-123.5 1037.5,-142.5 1133.5,-142.5 1133.5,-123.5 1037.5,-123.5"/>
<text text-anchor="middle" x="1085.5" y="-130.5" font-family="'Souce Sans Pro', Roboto, FreeSans, sans-serif" font-size="10.00">condition_variable</text>
</a>
</g>
</g>
<!-- Node10&#45;&gt;Node27 -->
<g id="edge57" class="edge">
<title>Node10&#45;&gt;Node27</title>
<path fill="none" stroke="midnightblue" d="M864.95,-357.89C914.82,-352.79 988.3,-340.51 1045.5,-311 1099.86,-282.95 1115.54,-259.36 1125.5,-199 1126.95,-190.23 1128.66,-187.31 1125.5,-179 1121.16,-167.6 1112.47,-157.24 1104.29,-149.34"/>
<polygon fill="midnightblue" stroke="midnightblue" points="1106.54,-146.66 1096.77,-142.57 1101.86,-151.86 1106.54,-146.66"/>
</g>
<!-- Node30 -->
<g id="node30" class="node">
<title>Node30</title>
<g id="a_node30"><a xlink:title=" ">
<polygon fill="white" stroke="#bfbfbf" points="1054,-179.5 1054,-198.5 1101,-198.5 1101,-179.5 1054,-179.5"/>
<text text-anchor="middle" x="1077.5" y="-186.5" font-family="'Souce Sans Pro', Roboto, FreeSans, sans-serif" font-size="10.00">atomic</text>
</a>
</g>
</g>
<!-- Node10&#45;&gt;Node30 -->
<g id="edge56" class="edge">
<title>Node10&#45;&gt;Node30</title>
<path fill="none" stroke="midnightblue" d="M862.11,-352.98C919.14,-341.07 1007.96,-313.89 1058.5,-255 1069.62,-242.05 1074.24,-222.88 1076.15,-208.71"/>
<polygon fill="midnightblue" stroke="midnightblue" points="1079.65,-208.94 1077.18,-198.64 1072.68,-208.23 1079.65,-208.94"/>
</g>
<!-- Node31 -->
<g id="node31" class="node">
<title>Node31</title>
<g id="a_node31"><a xlink:href="filter_8h.html" target="_top" xlink:title="This header defines Filter and all of it&#39;s subclasses.">
<polygon fill="white" stroke="black" points="796,-291.5 796,-310.5 903,-310.5 903,-291.5 796,-291.5"/>
<text text-anchor="middle" x="849.5" y="-298.5" font-family="'Souce Sans Pro', Roboto, FreeSans, sans-serif" font-size="10.00">log4cplus/spi/filter.h</text>
</a>
</g>
</g>
<!-- Node10&#45;&gt;Node31 -->
<g id="edge45" class="edge">
<title>Node10&#45;&gt;Node31</title>
<path fill="none" stroke="midnightblue" d="M814.37,-352.98C820.46,-344.14 830.14,-330.09 837.8,-318.98"/>
<polygon fill="midnightblue" stroke="midnightblue" points="840.84,-320.73 843.64,-310.51 835.08,-316.76 840.84,-320.73"/>
</g>
<!-- Node33 -->
<g id="node33" class="node">
<title>Node33</title>
<g id="a_node33"><a xlink:href="lockfile_8h.html" target="_top" xlink:title=" ">
<polygon fill="white" stroke="black" points="599.5,-235.5 599.5,-254.5 739.5,-254.5 739.5,-235.5 599.5,-235.5"/>
<text text-anchor="middle" x="669.5" y="-242.5" font-family="'Souce Sans Pro', Roboto, FreeSans, sans-serif" font-size="10.00">log4cplus/helpers/lockfile.h</text>
</a>
</g>
</g>
<!-- Node10&#45;&gt;Node33 -->
<g id="edge50" class="edge">
<title>Node10&#45;&gt;Node33</title>
<path fill="none" stroke="midnightblue" d="M798.05,-352.82C774.61,-333.34 717.55,-285.92 687.97,-261.34"/>
<polygon fill="midnightblue" stroke="midnightblue" points="690,-258.48 680.07,-254.78 685.52,-263.86 690,-258.48"/>
</g>
<!-- Node11&#45;&gt;Node2 -->
<g id="edge12" class="edge">
<title>Node11&#45;&gt;Node2</title>
<path fill="none" stroke="midnightblue" d="M308.84,-291.49C305.21,-270.41 298.69,-214.88 322.5,-179 364.82,-115.21 454.23,-91.7 515.82,-83.04"/>
<polygon fill="midnightblue" stroke="midnightblue" points="516.38,-86.5 525.84,-81.73 515.47,-79.56 516.38,-86.5"/>
</g>
<!-- Node11&#45;&gt;Node12 -->
<g id="edge13" class="edge">
<title>Node11&#45;&gt;Node12</title>
<path fill="none" stroke="midnightblue" d="M345.2,-291.44C383.08,-282.1 443.85,-267.12 485.16,-256.93"/>
<polygon fill="midnightblue" stroke="midnightblue" points="486.09,-260.31 494.96,-254.52 484.41,-253.51 486.09,-260.31"/>
</g>
<!-- Node13 -->
<g id="node13" class="node">
<title>Node13</title>
<g id="a_node13"><a xlink:title=" ">
<polygon fill="white" stroke="#bfbfbf" points="331.5,-179.5 331.5,-198.5 375.5,-198.5 375.5,-179.5 331.5,-179.5"/>
<text text-anchor="middle" x="353.5" y="-186.5" font-family="'Souce Sans Pro', Roboto, FreeSans, sans-serif" font-size="10.00">vector</text>
</a>
</g>
</g>
<!-- Node11&#45;&gt;Node13 -->
<g id="edge32" class="edge">
<title>Node11&#45;&gt;Node13</title>
<path fill="none" stroke="midnightblue" d="M311.58,-291.31C313.36,-278.58 317.54,-254.27 325.5,-235 329.53,-225.24 335.58,-215.18 341.02,-207.06"/>
<polygon fill="midnightblue" stroke="midnightblue" points="343.91,-209.03 346.77,-198.83 338.18,-205.02 343.91,-209.03"/>
</g>
<!-- Node11&#45;&gt;Node14 -->
<g id="edge26" class="edge">
<title>Node11&#45;&gt;Node14</title>
<path fill="none" stroke="midnightblue" d="M315.06,-291.4C322.57,-277.9 338.71,-251.57 358.5,-235 375.15,-221.06 396.85,-210.12 414.88,-202.52"/>
<polygon fill="midnightblue" stroke="midnightblue" points="416.51,-205.63 424.46,-198.64 413.88,-199.14 416.51,-205.63"/>
</g>
<!-- Node18 -->
<g id="node18" class="node">
<title>Node18</title>
<g id="a_node18"><a xlink:href="streams_8h.html" target="_top" xlink:title=" ">
<polygon fill="white" stroke="black" points="0,-179.5 0,-198.5 107,-198.5 107,-179.5 0,-179.5"/>
<text text-anchor="middle" x="53.5" y="-186.5" font-family="'Souce Sans Pro', Roboto, FreeSans, sans-serif" font-size="10.00">log4cplus/streams.h</text>
</a>
</g>
</g>
<!-- Node11&#45;&gt;Node18 -->
<g id="edge22" class="edge">
<title>Node11&#45;&gt;Node18</title>
<path fill="none" stroke="midnightblue" d="M261.49,-296.69C200.1,-291.57 99.64,-279.61 72.5,-255 59.59,-243.29 55.26,-223.35 53.9,-208.64"/>
<polygon fill="midnightblue" stroke="midnightblue" points="57.4,-208.42 53.35,-198.63 50.41,-208.8 57.4,-208.42"/>
</g>
<!-- Node20 -->
<g id="node20" class="node">
<title>Node20</title>
<g id="a_node20"><a xlink:href="timehelper_8h.html" target="_top" xlink:title=" ">
<polygon fill="white" stroke="black" points="81.5,-235.5 81.5,-254.5 235.5,-254.5 235.5,-235.5 81.5,-235.5"/>
<text text-anchor="middle" x="158.5" y="-242.5" font-family="'Souce Sans Pro', Roboto, FreeSans, sans-serif" font-size="10.00">log4cplus/helpers/timehelper.h</text>
</a>
</g>
</g>
<!-- Node11&#45;&gt;Node20 -->
<g id="edge27" class="edge">
<title>Node11&#45;&gt;Node20</title>
<path fill="none" stroke="midnightblue" d="M286.42,-291.44C260.96,-282.4 220.61,-268.06 192.04,-257.92"/>
<polygon fill="midnightblue" stroke="midnightblue" points="193.07,-254.57 182.47,-254.52 190.72,-261.16 193.07,-254.57"/>
</g>
<!-- Node11&#45;&gt;Node23 -->
<g id="edge33" class="edge">
<title>Node11&#45;&gt;Node23</title>
<path fill="none" stroke="midnightblue" d="M324,-291.32C337.1,-282.9 357.21,-269.97 372.61,-260.07"/>
<polygon fill="midnightblue" stroke="midnightblue" points="374.52,-263.01 381.04,-254.65 370.73,-257.12 374.52,-263.01"/>
</g>
<!-- Node12&#45;&gt;Node2 -->
<g id="edge14" class="edge">
<title>Node12&#45;&gt;Node2</title>
<path fill="none" stroke="midnightblue" d="M532.24,-235.08C540.27,-208.95 563.84,-132.21 574.79,-96.58"/>
<polygon fill="midnightblue" stroke="midnightblue" points="578.28,-97.16 577.87,-86.57 571.59,-95.1 578.28,-97.16"/>
</g>
<!-- Node12&#45;&gt;Node13 -->
<g id="edge15" class="edge">
<title>Node12&#45;&gt;Node13</title>
<path fill="none" stroke="midnightblue" d="M501.61,-235.44C469.99,-225.74 418.53,-209.95 385.35,-199.77"/>
<polygon fill="midnightblue" stroke="midnightblue" points="386.27,-196.39 375.68,-196.81 384.22,-203.09 386.27,-196.39"/>
</g>
<!-- Node12&#45;&gt;Node14 -->
<g id="edge16" class="edge">
<title>Node12&#45;&gt;Node14</title>
<path fill="none" stroke="midnightblue" d="M516.65,-235.32C504.28,-226.98 485.37,-214.21 470.76,-204.35"/>
<polygon fill="midnightblue" stroke="midnightblue" points="472.57,-201.35 462.32,-198.65 468.65,-207.15 472.57,-201.35"/>
</g>
<!-- Node14&#45;&gt;Node2 -->
<g id="edge17" class="edge">
<title>Node14&#45;&gt;Node2</title>
<path fill="none" stroke="midnightblue" d="M459.78,-179.37C481.97,-160.73 534.61,-116.53 562.48,-93.13"/>
<polygon fill="midnightblue" stroke="midnightblue" points="564.86,-95.7 570.27,-86.59 560.36,-90.34 564.86,-95.7"/>
</g>
<!-- Node15 -->
<g id="node15" class="node">
<title>Node15</title>
<g id="a_node15"><a xlink:title=" ">
<polygon fill="white" stroke="#bfbfbf" points="429,-123.5 429,-142.5 470,-142.5 470,-123.5 429,-123.5"/>
<text text-anchor="middle" x="449.5" y="-130.5" font-family="'Souce Sans Pro', Roboto, FreeSans, sans-serif" font-size="10.00">string</text>
</a>
</g>
</g>
<!-- Node14&#45;&gt;Node15 -->
<g id="edge18" class="edge">
<title>Node14&#45;&gt;Node15</title>
<path fill="none" stroke="midnightblue" d="M449.5,-179.08C449.5,-172.01 449.5,-161.86 449.5,-152.99"/>
<polygon fill="midnightblue" stroke="midnightblue" points="453,-152.75 449.5,-142.75 446,-152.75 453,-152.75"/>
</g>
<!-- Node16 -->
<g id="node16" class="node">
<title>Node16</title>
<g id="a_node16"><a xlink:href="tchar_8h.html" target="_top" xlink:title=" ">
<polygon fill="white" stroke="black" points="100,-123.5 100,-142.5 193,-142.5 193,-123.5 100,-123.5"/>
<text text-anchor="middle" x="146.5" y="-130.5" font-family="'Souce Sans Pro', Roboto, FreeSans, sans-serif" font-size="10.00">log4cplus/tchar.h</text>
</a>
</g>
</g>
<!-- Node14&#45;&gt;Node16 -->
<g id="edge19" class="edge">
<title>Node14&#45;&gt;Node16</title>
<path fill="none" stroke="midnightblue" d="M401.49,-179.44C347.65,-169.85 260.42,-154.3 203.25,-144.11"/>
<polygon fill="midnightblue" stroke="midnightblue" points="203.75,-140.65 193.29,-142.34 202.52,-147.54 203.75,-140.65"/>
</g>
<!-- Node16&#45;&gt;Node2 -->
<g id="edge20" class="edge">
<title>Node16&#45;&gt;Node2</title>
<path fill="none" stroke="midnightblue" d="M193.11,-124.99C197.97,-124.3 202.83,-123.63 207.5,-123 315.4,-108.53 441.15,-93.8 515.61,-85.3"/>
<polygon fill="midnightblue" stroke="midnightblue" points="516.23,-88.75 525.77,-84.14 515.44,-81.8 516.23,-88.75"/>
</g>
<!-- Node17 -->
<g id="node17" class="node">
<title>Node17</title>
<g id="a_node17"><a xlink:title=" ">
<polygon fill="white" stroke="#bfbfbf" points="121,-67.5 121,-86.5 172,-86.5 172,-67.5 121,-67.5"/>
<text text-anchor="middle" x="146.5" y="-74.5" font-family="'Souce Sans Pro', Roboto, FreeSans, sans-serif" font-size="10.00">cstddef</text>
</a>
</g>
</g>
<!-- Node16&#45;&gt;Node17 -->
<g id="edge21" class="edge">
<title>Node16&#45;&gt;Node17</title>
<path fill="none" stroke="midnightblue" d="M146.5,-123.08C146.5,-116.01 146.5,-105.86 146.5,-96.99"/>
<polygon fill="midnightblue" stroke="midnightblue" points="150,-96.75 146.5,-86.75 143,-96.75 150,-96.75"/>
</g>
<!-- Node18&#45;&gt;Node2 -->
<g id="edge23" class="edge">
<title>Node18&#45;&gt;Node2</title>
<path fill="none" stroke="midnightblue" d="M85.95,-179.46C116.22,-171.18 162.43,-157.75 201.5,-143 221.6,-135.41 224.86,-128.94 245.5,-123 337.09,-96.65 447.3,-85.62 515.64,-81.08"/>
<polygon fill="midnightblue" stroke="midnightblue" points="516.07,-84.56 525.83,-80.43 515.63,-77.58 516.07,-84.56"/>
</g>
<!-- Node18&#45;&gt;Node16 -->
<g id="edge24" class="edge">
<title>Node18&#45;&gt;Node16</title>
<path fill="none" stroke="midnightblue" d="M68.44,-179.32C83.09,-170.82 105.63,-157.73 122.74,-147.8"/>
<polygon fill="midnightblue" stroke="midnightblue" points="124.7,-150.7 131.6,-142.65 121.19,-144.65 124.7,-150.7"/>
</g>
<!-- Node19 -->
<g id="node19" class="node">
<title>Node19</title>
<g id="a_node19"><a xlink:title=" ">
<polygon fill="white" stroke="#bfbfbf" points="30,-123.5 30,-142.5 77,-142.5 77,-123.5 30,-123.5"/>
<text text-anchor="middle" x="53.5" y="-130.5" font-family="'Souce Sans Pro', Roboto, FreeSans, sans-serif" font-size="10.00">iosfwd</text>
</a>
</g>
</g>
<!-- Node18&#45;&gt;Node19 -->
<g id="edge25" class="edge">
<title>Node18&#45;&gt;Node19</title>
<path fill="none" stroke="midnightblue" d="M53.5,-179.08C53.5,-172.01 53.5,-161.86 53.5,-152.99"/>
<polygon fill="midnightblue" stroke="midnightblue" points="57,-152.75 53.5,-142.75 50,-152.75 57,-152.75"/>
</g>
<!-- Node20&#45;&gt;Node2 -->
<g id="edge28" class="edge">
<title>Node20&#45;&gt;Node2</title>
<path fill="none" stroke="midnightblue" d="M180.87,-235.49C198.43,-227.95 222.63,-215.57 239.5,-199 267.34,-171.65 251.25,-144.98 283.5,-123 320.23,-97.97 439.76,-86.32 515.51,-81.33"/>
<polygon fill="midnightblue" stroke="midnightblue" points="516.14,-84.8 525.9,-80.67 515.7,-77.81 516.14,-84.8"/>
</g>
<!-- Node20&#45;&gt;Node14 -->
<g id="edge29" class="edge">
<title>Node20&#45;&gt;Node14</title>
<path fill="none" stroke="midnightblue" d="M204.61,-235.44C255.91,-225.92 338.77,-210.55 393.69,-200.36"/>
<polygon fill="midnightblue" stroke="midnightblue" points="394.41,-203.78 403.61,-198.52 393.14,-196.9 394.41,-203.78"/>
</g>
<!-- Node21 -->
<g id="node21" class="node">
<title>Node21</title>
<g id="a_node21"><a xlink:title=" ">
<polygon fill="white" stroke="#bfbfbf" points="190,-179.5 190,-198.5 231,-198.5 231,-179.5 190,-179.5"/>
<text text-anchor="middle" x="210.5" y="-186.5" font-family="'Souce Sans Pro', Roboto, FreeSans, sans-serif" font-size="10.00">ctime</text>
</a>
</g>
</g>
<!-- Node20&#45;&gt;Node21 -->
<g id="edge30" class="edge">
<title>Node20&#45;&gt;Node21</title>
<path fill="none" stroke="midnightblue" d="M167.09,-235.08C174.66,-227.22 185.88,-215.57 195.01,-206.08"/>
<polygon fill="midnightblue" stroke="midnightblue" points="197.66,-208.38 202.07,-198.75 192.62,-203.53 197.66,-208.38"/>
</g>
<!-- Node22 -->
<g id="node22" class="node">
<title>Node22</title>
<g id="a_node22"><a xlink:title=" ">
<polygon fill="white" stroke="#bfbfbf" points="125,-179.5 125,-198.5 172,-198.5 172,-179.5 125,-179.5"/>
<text text-anchor="middle" x="148.5" y="-186.5" font-family="'Souce Sans Pro', Roboto, FreeSans, sans-serif" font-size="10.00">chrono</text>
</a>
</g>
</g>
<!-- Node20&#45;&gt;Node22 -->
<g id="edge31" class="edge">
<title>Node20&#45;&gt;Node22</title>
<path fill="none" stroke="midnightblue" d="M156.85,-235.08C155.52,-227.93 153.62,-217.64 151.96,-208.69"/>
<polygon fill="midnightblue" stroke="midnightblue" points="155.38,-207.95 150.12,-198.75 148.5,-209.22 155.38,-207.95"/>
</g>
<!-- Node24&#45;&gt;Node2 -->
<g id="edge37" class="edge">
<title>Node24&#45;&gt;Node2</title>
<path fill="none" stroke="midnightblue" d="M918.3,-235.46C850.13,-225.67 748.42,-209.61 733.5,-199 701.87,-176.51 719.62,-148.65 690.5,-123 672.66,-107.28 648.58,-96.6 627.51,-89.6"/>
<polygon fill="midnightblue" stroke="midnightblue" points="628.35,-86.19 617.76,-86.54 626.26,-92.87 628.35,-86.19"/>
</g>
<!-- Node25 -->
<g id="node25" class="node">
<title>Node25</title>
<g id="a_node25"><a xlink:href="syncprims_8h.html" target="_top" xlink:title=" ">
<polygon fill="white" stroke="black" points="742,-179.5 742,-198.5 891,-198.5 891,-179.5 742,-179.5"/>
<text text-anchor="middle" x="816.5" y="-186.5" font-family="'Souce Sans Pro', Roboto, FreeSans, sans-serif" font-size="10.00">log4cplus/thread/syncprims.h</text>
</a>
</g>
</g>
<!-- Node24&#45;&gt;Node25 -->
<g id="edge38" class="edge">
<title>Node24&#45;&gt;Node25</title>
<path fill="none" stroke="midnightblue" d="M954.51,-235.44C926.8,-226.32 882.75,-211.81 851.88,-201.65"/>
<polygon fill="midnightblue" stroke="midnightblue" points="852.96,-198.32 842.36,-198.52 850.77,-204.97 852.96,-198.32"/>
</g>
<!-- Node28 -->
<g id="node28" class="node">
<title>Node28</title>
<g id="a_node28"><a xlink:title=" ">
<polygon fill="white" stroke="#bfbfbf" points="977,-179.5 977,-198.5 1036,-198.5 1036,-179.5 977,-179.5"/>
<text text-anchor="middle" x="1006.5" y="-186.5" font-family="'Souce Sans Pro', Roboto, FreeSans, sans-serif" font-size="10.00">algorithm</text>
</a>
</g>
</g>
<!-- Node24&#45;&gt;Node28 -->
<g id="edge42" class="edge">
<title>Node24&#45;&gt;Node28</title>
<path fill="none" stroke="midnightblue" d="M984.79,-235.08C988.35,-227.69 993.52,-216.95 997.92,-207.81"/>
<polygon fill="midnightblue" stroke="midnightblue" points="1001.1,-209.28 1002.29,-198.75 994.79,-206.24 1001.1,-209.28"/>
</g>
<!-- Node29 -->
<g id="node29" class="node">
<title>Node29</title>
<g id="a_node29"><a xlink:title=" ">
<polygon fill="white" stroke="#bfbfbf" points="908.5,-179.5 908.5,-198.5 958.5,-198.5 958.5,-179.5 908.5,-179.5"/>
<text text-anchor="middle" x="933.5" y="-186.5" font-family="'Souce Sans Pro', Roboto, FreeSans, sans-serif" font-size="10.00">cassert</text>
</a>
</g>
</g>
<!-- Node24&#45;&gt;Node29 -->
<g id="edge43" class="edge">
<title>Node24&#45;&gt;Node29</title>
<path fill="none" stroke="midnightblue" d="M972.74,-235.08C965.96,-227.3 955.96,-215.8 947.74,-206.37"/>
<polygon fill="midnightblue" stroke="midnightblue" points="950.32,-204 941.12,-198.75 945.04,-208.59 950.32,-204"/>
</g>
<!-- Node24&#45;&gt;Node30 -->
<g id="edge44" class="edge">
<title>Node24&#45;&gt;Node30</title>
<path fill="none" stroke="midnightblue" d="M996.08,-235.32C1011.5,-226.74 1035.31,-213.49 1053.21,-203.52"/>
<polygon fill="midnightblue" stroke="midnightblue" points="1054.92,-206.58 1061.95,-198.65 1051.51,-200.46 1054.92,-206.58"/>
</g>
<!-- Node25&#45;&gt;Node2 -->
<g id="edge39" class="edge">
<title>Node25&#45;&gt;Node2</title>
<path fill="none" stroke="midnightblue" d="M806.94,-179.19C791.53,-165.41 759.73,-138.69 728.5,-123 697.91,-107.63 661.09,-96.41 631.83,-89.02"/>
<polygon fill="midnightblue" stroke="midnightblue" points="632.36,-85.54 621.81,-86.56 630.69,-92.34 632.36,-85.54"/>
</g>
<!-- Node25&#45;&gt;Node26 -->
<g id="edge40" class="edge">
<title>Node25&#45;&gt;Node26</title>
<path fill="none" stroke="midnightblue" d="M831.6,-179.32C846.4,-170.82 869.19,-157.73 886.48,-147.8"/>
<polygon fill="midnightblue" stroke="midnightblue" points="888.51,-150.67 895.43,-142.65 885.02,-144.6 888.51,-150.67"/>
</g>
<!-- Node25&#45;&gt;Node27 -->
<g id="edge41" class="edge">
<title>Node25&#45;&gt;Node27</title>
<path fill="none" stroke="midnightblue" d="M859.12,-179.44C906.25,-169.98 982.19,-154.74 1032.96,-144.55"/>
<polygon fill="midnightblue" stroke="midnightblue" points="1033.96,-147.92 1043.08,-142.52 1032.58,-141.05 1033.96,-147.92"/>
</g>
<!-- Node31&#45;&gt;Node2 -->
<g id="edge46" class="edge">
<title>Node31&#45;&gt;Node2</title>
<path fill="none" stroke="midnightblue" d="M841.8,-291.19C829.84,-277.86 805.66,-252.32 781.5,-235 753.39,-214.85 739.14,-221.06 712.5,-199 679.36,-171.55 684.55,-151.72 652.5,-123 638.63,-110.57 620.92,-99.45 606.53,-91.38"/>
<polygon fill="midnightblue" stroke="midnightblue" points="608.09,-88.24 597.63,-86.52 604.73,-94.38 608.09,-88.24"/>
</g>
<!-- Node31&#45;&gt;Node12 -->
<g id="edge49" class="edge">
<title>Node31&#45;&gt;Node12</title>
<path fill="none" stroke="midnightblue" d="M798.8,-291.44C742.15,-281.89 650.5,-266.42 590.12,-256.23"/>
<polygon fill="midnightblue" stroke="midnightblue" points="590.41,-252.73 579.97,-254.52 589.25,-259.63 590.41,-252.73"/>
</g>
<!-- Node31&#45;&gt;Node24 -->
<g id="edge48" class="edge">
<title>Node31&#45;&gt;Node24</title>
<path fill="none" stroke="midnightblue" d="M870.26,-291.44C891.82,-282.56 925.76,-268.56 950.29,-258.45"/>
<polygon fill="midnightblue" stroke="midnightblue" points="951.93,-261.56 959.84,-254.52 949.26,-255.09 951.93,-261.56"/>
</g>
<!-- Node32 -->
<g id="node32" class="node">
<title>Node32</title>
<g id="a_node32"><a xlink:title=" ">
<polygon fill="white" stroke="#bfbfbf" points="833.5,-235.5 833.5,-254.5 893.5,-254.5 893.5,-235.5 833.5,-235.5"/>
<text text-anchor="middle" x="863.5" y="-242.5" font-family="'Souce Sans Pro', Roboto, FreeSans, sans-serif" font-size="10.00">functional</text>
</a>
</g>
</g>
<!-- Node31&#45;&gt;Node32 -->
<g id="edge47" class="edge">
<title>Node31&#45;&gt;Node32</title>
<path fill="none" stroke="midnightblue" d="M851.81,-291.08C853.67,-283.93 856.34,-273.64 858.65,-264.69"/>
<polygon fill="midnightblue" stroke="midnightblue" points="862.11,-265.31 861.23,-254.75 855.33,-263.55 862.11,-265.31"/>
</g>
<!-- Node33&#45;&gt;Node2 -->
<g id="edge51" class="edge">
<title>Node33&#45;&gt;Node2</title>
<path fill="none" stroke="midnightblue" d="M658.5,-235.42C648.44,-227.07 633.76,-213.54 624.5,-199 603.47,-165.97 590.62,-121.49 584.6,-96.69"/>
<polygon fill="midnightblue" stroke="midnightblue" points="587.97,-95.75 582.31,-86.8 581.15,-97.33 587.97,-95.75"/>
</g>
<!-- Node33&#45;&gt;Node14 -->
<g id="edge52" class="edge">
<title>Node33&#45;&gt;Node14</title>
<path fill="none" stroke="midnightblue" d="M634.64,-235.44C596.58,-226.1 535.54,-211.12 494.04,-200.93"/>
<polygon fill="midnightblue" stroke="midnightblue" points="494.74,-197.5 484.2,-198.52 493.07,-204.3 494.74,-197.5"/>
</g>
<!-- Node33&#45;&gt;Node25 -->
<g id="edge53" class="edge">
<title>Node33&#45;&gt;Node25</title>
<path fill="none" stroke="midnightblue" d="M692.79,-235.44C717.31,-226.44 756.1,-212.19 783.7,-202.05"/>
<polygon fill="midnightblue" stroke="midnightblue" points="785.14,-205.25 793.32,-198.52 782.72,-198.68 785.14,-205.25"/>
</g>
</g>
</svg>
