<?xml version="1.0" encoding="UTF-8" standalone="no"?>
<!DOCTYPE svg PUBLIC "-//W3C//DTD SVG 1.1//EN"
 "http://www.w3.org/Graphics/SVG/1.1/DTD/svg11.dtd">
<!-- Generated by graphviz version 2.43.0 (0)
 -->
<!-- Title: impl Pages: 1 -->
<svg width="134pt" height="151pt"
 viewBox="0.00 0.00 134.00 151.00" xmlns="http://www.w3.org/2000/svg" xmlns:xlink="http://www.w3.org/1999/xlink">
<g id="graph0" class="graph" transform="scale(1 1) rotate(0) translate(4 147)">
<title>impl</title>
<polygon fill="white" stroke="transparent" points="-4,4 -4,-147 130,-147 130,4 -4,4"/>
<g id="clust1" class="cluster">
<title>clusterdir_853879e30bdf8afe9a7079a6b1a108d0</title>
<g id="a_clust1"><a xlink:href="dir_853879e30bdf8afe9a7079a6b1a108d0.html" target="_top" xlink:title="thread">
<polygon fill="#ddddee" stroke="black" points="28,-64 28,-135 98,-135 98,-64 28,-64"/>
<text text-anchor="middle" x="63" y="-123" font-family="'Souce Sans Pro', Roboto, FreeSans, sans-serif" font-size="10.00">thread</text>
</a>
</g>
</g>
<!-- dir_8365f885db0e24c0a4a28d7556850d67 -->
<g id="node1" class="node">
<title>dir_8365f885db0e24c0a4a28d7556850d67</title>
<g id="a_node1"><a xlink:href="dir_8365f885db0e24c0a4a28d7556850d67.html" target="_top" xlink:title="impl">
<polygon fill="#eeeeff" stroke="black" points="90,-108 36,-108 36,-72 90,-72 90,-108"/>
<text text-anchor="middle" x="63" y="-87.5" font-family="'Souce Sans Pro', Roboto, FreeSans, sans-serif" font-size="10.00">impl</text>
</a>
</g>
</g>
<!-- dir_15e0ad6291f54c01f72f2b7a09f5a39a -->
<g id="node2" class="node">
<title>dir_15e0ad6291f54c01f72f2b7a09f5a39a</title>
<g id="a_node2"><a xlink:href="dir_15e0ad6291f54c01f72f2b7a09f5a39a.html" target="_top" xlink:title="helpers">
<polygon fill="none" stroke="black" points="54,-36 0,-36 0,0 54,0 54,-36"/>
<text text-anchor="middle" x="27" y="-15.5" font-family="'Souce Sans Pro', Roboto, FreeSans, sans-serif" font-size="10.00">helpers</text>
</a>
</g>
</g>
<!-- dir_8365f885db0e24c0a4a28d7556850d67&#45;&gt;dir_15e0ad6291f54c01f72f2b7a09f5a39a -->
<g id="edge1" class="edge">
<title>dir_8365f885db0e24c0a4a28d7556850d67&#45;&gt;dir_15e0ad6291f54c01f72f2b7a09f5a39a</title>
<path fill="none" stroke="black" d="M54.1,-71.7C50,-63.73 45.05,-54.1 40.51,-45.26"/>
<polygon fill="black" stroke="black" points="43.48,-43.4 35.8,-36.1 37.26,-46.6 43.48,-43.4"/>
<g id="a_edge1&#45;headlabel"><a xlink:href="dir_000008_000003.html" target="_top" xlink:title="1">
<text text-anchor="middle" x="47.65" y="-42.79" font-family="'Souce Sans Pro', Roboto, FreeSans, sans-serif" font-size="10.00">1</text>
</a>
</g>
</g>
<!-- dir_beaf3939c5b2e4f56ef965799f9263aa -->
<g id="node3" class="node">
<title>dir_beaf3939c5b2e4f56ef965799f9263aa</title>
<g id="a_node3"><a xlink:href="dir_beaf3939c5b2e4f56ef965799f9263aa.html" target="_top" xlink:title="config">
<polygon fill="none" stroke="black" points="126,-36 72,-36 72,0 126,0 126,-36"/>
<text text-anchor="middle" x="99" y="-15.5" font-family="'Souce Sans Pro', Roboto, FreeSans, sans-serif" font-size="10.00">config</text>
</a>
</g>
</g>
<!-- dir_8365f885db0e24c0a4a28d7556850d67&#45;&gt;dir_beaf3939c5b2e4f56ef965799f9263aa -->
<g id="edge2" class="edge">
<title>dir_8365f885db0e24c0a4a28d7556850d67&#45;&gt;dir_beaf3939c5b2e4f56ef965799f9263aa</title>
<path fill="none" stroke="black" d="M71.9,-71.7C76,-63.73 80.95,-54.1 85.49,-45.26"/>
<polygon fill="black" stroke="black" points="88.74,-46.6 90.2,-36.1 82.52,-43.4 88.74,-46.6"/>
<g id="a_edge2&#45;headlabel"><a xlink:href="dir_000008_000006.html" target="_top" xlink:title="1">
<text text-anchor="middle" x="89.62" y="-48.59" font-family="'Souce Sans Pro', Roboto, FreeSans, sans-serif" font-size="10.00">1</text>
</a>
</g>
</g>
</g>
</svg>
