<?xml version="1.0" encoding="UTF-8" standalone="no"?>
<!DOCTYPE svg PUBLIC "-//W3C//DTD SVG 1.1//EN"
 "http://www.w3.org/Graphics/SVG/1.1/DTD/svg11.dtd">
<!-- Generated by graphviz version 2.43.0 (0)
 -->
<!-- Title: internal Pages: 1 -->
<svg width="154pt" height="383pt"
 viewBox="0.00 0.00 154.00 383.00" xmlns="http://www.w3.org/2000/svg" xmlns:xlink="http://www.w3.org/1999/xlink">
<g id="graph0" class="graph" transform="scale(1 1) rotate(0) translate(4 379)">
<title>internal</title>
<polygon fill="white" stroke="transparent" points="-4,4 -4,-379 150,-379 150,4 -4,4"/>
<g id="clust1" class="cluster">
<title>clusterdir_c1127a47df8dad6101631a17711b0d4b</title>
<g id="a_clust1"><a xlink:href="dir_c1127a47df8dad6101631a17711b0d4b.html" target="_top" xlink:title="log4cplus">
<polygon fill="#ddddee" stroke="black" points="8,-8 8,-367 138,-367 138,-8 8,-8"/>
<text text-anchor="middle" x="73" y="-355" font-family="'Souce Sans Pro', Roboto, FreeSans, sans-serif" font-size="10.00">log4cplus</text>
</a>
</g>
</g>
<!-- dir_15e0ad6291f54c01f72f2b7a09f5a39a -->
<g id="node1" class="node">
<title>dir_15e0ad6291f54c01f72f2b7a09f5a39a</title>
<g id="a_node1"><a xlink:href="dir_15e0ad6291f54c01f72f2b7a09f5a39a.html" target="_top" xlink:title="helpers">
<polygon fill="none" stroke="black" points="70,-268 16,-268 16,-232 70,-232 70,-268"/>
<text text-anchor="middle" x="43" y="-247.5" font-family="'Souce Sans Pro', Roboto, FreeSans, sans-serif" font-size="10.00">helpers</text>
</a>
</g>
</g>
<!-- dir_853879e30bdf8afe9a7079a6b1a108d0 -->
<g id="node2" class="node">
<title>dir_853879e30bdf8afe9a7079a6b1a108d0</title>
<g id="a_node2"><a xlink:href="dir_853879e30bdf8afe9a7079a6b1a108d0.html" target="_top" xlink:title="thread">
<polygon fill="white" stroke="red" points="90,-124 36,-124 36,-88 90,-88 90,-124"/>
<text text-anchor="middle" x="63" y="-103.5" font-family="'Souce Sans Pro', Roboto, FreeSans, sans-serif" font-size="10.00">thread</text>
</a>
</g>
</g>
<!-- dir_15e0ad6291f54c01f72f2b7a09f5a39a&#45;&gt;dir_853879e30bdf8afe9a7079a6b1a108d0 -->
<g id="edge5" class="edge">
<title>dir_15e0ad6291f54c01f72f2b7a09f5a39a&#45;&gt;dir_853879e30bdf8afe9a7079a6b1a108d0</title>
<path fill="none" stroke="black" d="M28.54,-231.98C19.02,-213.85 10.48,-184.46 18,-160 21.04,-150.11 26.62,-140.41 32.93,-132.07"/>
<polygon fill="black" stroke="black" points="35.74,-134.16 39.41,-124.23 30.35,-129.71 35.74,-134.16"/>
<g id="a_edge5&#45;headlabel"><a xlink:href="dir_000003_000007.html" target="_top" xlink:title="8">
<text text-anchor="middle" x="35.64" y="-136.24" font-family="'Souce Sans Pro', Roboto, FreeSans, sans-serif" font-size="10.00">8</text>
</a>
</g>
</g>
<!-- dir_978d533c27f1e6af39004a1d79354223 -->
<g id="node3" class="node">
<title>dir_978d533c27f1e6af39004a1d79354223</title>
<g id="a_node3"><a xlink:href="dir_978d533c27f1e6af39004a1d79354223.html" target="_top" xlink:title="spi">
<polygon fill="none" stroke="black" points="90,-196 36,-196 36,-160 90,-160 90,-196"/>
<text text-anchor="middle" x="63" y="-175.5" font-family="'Souce Sans Pro', Roboto, FreeSans, sans-serif" font-size="10.00">spi</text>
</a>
</g>
</g>
<!-- dir_15e0ad6291f54c01f72f2b7a09f5a39a&#45;&gt;dir_978d533c27f1e6af39004a1d79354223 -->
<g id="edge6" class="edge">
<title>dir_15e0ad6291f54c01f72f2b7a09f5a39a&#45;&gt;dir_978d533c27f1e6af39004a1d79354223</title>
<path fill="none" stroke="black" d="M42.03,-231.7C43.47,-223.81 45.97,-214.3 48.84,-205.55"/>
<polygon fill="black" stroke="black" points="52.15,-206.7 52.22,-196.1 45.56,-204.34 52.15,-206.7"/>
<g id="a_edge6&#45;headlabel"><a xlink:href="dir_000003_000002.html" target="_top" xlink:title="2">
<text text-anchor="middle" x="53.61" y="-208.54" font-family="'Souce Sans Pro', Roboto, FreeSans, sans-serif" font-size="10.00">2</text>
</a>
</g>
</g>
<!-- dir_853879e30bdf8afe9a7079a6b1a108d0&#45;&gt;dir_15e0ad6291f54c01f72f2b7a09f5a39a -->
<g id="edge9" class="edge">
<title>dir_853879e30bdf8afe9a7079a6b1a108d0&#45;&gt;dir_15e0ad6291f54c01f72f2b7a09f5a39a</title>
<path fill="none" stroke="black" d="M55.37,-124.23C48.63,-133.97 40.05,-146.82 36,-160 29.71,-180.45 34.65,-204.34 39.29,-222.22"/>
<polygon fill="black" stroke="black" points="35.93,-223.22 41.9,-231.98 42.7,-221.42 35.93,-223.22"/>
<g id="a_edge9&#45;headlabel"><a xlink:href="dir_000007_000003.html" target="_top" xlink:title="2">
<text text-anchor="middle" x="32.26" y="-217.98" font-family="'Souce Sans Pro', Roboto, FreeSans, sans-serif" font-size="10.00">2</text>
</a>
</g>
</g>
<!-- dir_beaf3939c5b2e4f56ef965799f9263aa -->
<g id="node4" class="node">
<title>dir_beaf3939c5b2e4f56ef965799f9263aa</title>
<g id="a_node4"><a xlink:href="dir_beaf3939c5b2e4f56ef965799f9263aa.html" target="_top" xlink:title="config">
<polygon fill="none" stroke="black" points="110,-52 56,-52 56,-16 110,-16 110,-52"/>
<text text-anchor="middle" x="83" y="-31.5" font-family="'Souce Sans Pro', Roboto, FreeSans, sans-serif" font-size="10.00">config</text>
</a>
</g>
</g>
<!-- dir_853879e30bdf8afe9a7079a6b1a108d0&#45;&gt;dir_beaf3939c5b2e4f56ef965799f9263aa -->
<g id="edge10" class="edge">
<title>dir_853879e30bdf8afe9a7079a6b1a108d0&#45;&gt;dir_beaf3939c5b2e4f56ef965799f9263aa</title>
<path fill="none" stroke="black" d="M67.94,-87.7C70.17,-79.9 72.85,-70.51 75.33,-61.83"/>
<polygon fill="black" stroke="black" points="78.73,-62.68 78.11,-52.1 72,-60.76 78.73,-62.68"/>
<g id="a_edge10&#45;headlabel"><a xlink:href="dir_000007_000006.html" target="_top" xlink:title="1">
<text text-anchor="middle" x="80.47" y="-64.42" font-family="'Souce Sans Pro', Roboto, FreeSans, sans-serif" font-size="10.00">1</text>
</a>
</g>
</g>
<!-- dir_978d533c27f1e6af39004a1d79354223&#45;&gt;dir_15e0ad6291f54c01f72f2b7a09f5a39a -->
<g id="edge7" class="edge">
<title>dir_978d533c27f1e6af39004a1d79354223&#45;&gt;dir_15e0ad6291f54c01f72f2b7a09f5a39a</title>
<path fill="none" stroke="black" d="M64.01,-196.1C62.59,-203.96 60.1,-213.46 57.23,-222.23"/>
<polygon fill="black" stroke="black" points="53.92,-221.1 53.86,-231.7 60.51,-223.45 53.92,-221.1"/>
<g id="a_edge7&#45;headlabel"><a xlink:href="dir_000002_000003.html" target="_top" xlink:title="5">
<text text-anchor="middle" x="52.45" y="-214.26" font-family="'Souce Sans Pro', Roboto, FreeSans, sans-serif" font-size="10.00">5</text>
</a>
</g>
</g>
<!-- dir_978d533c27f1e6af39004a1d79354223&#45;&gt;dir_853879e30bdf8afe9a7079a6b1a108d0 -->
<g id="edge8" class="edge">
<title>dir_978d533c27f1e6af39004a1d79354223&#45;&gt;dir_853879e30bdf8afe9a7079a6b1a108d0</title>
<path fill="none" stroke="black" d="M63,-159.7C63,-151.98 63,-142.71 63,-134.11"/>
<polygon fill="black" stroke="black" points="66.5,-134.1 63,-124.1 59.5,-134.1 66.5,-134.1"/>
<g id="a_edge8&#45;headlabel"><a xlink:href="dir_000002_000007.html" target="_top" xlink:title="2">
<text text-anchor="middle" x="69.34" y="-135.2" font-family="'Souce Sans Pro', Roboto, FreeSans, sans-serif" font-size="10.00">2</text>
</a>
</g>
</g>
<!-- dir_fa6d830662653e00a3f098549d35e05d -->
<g id="node5" class="node">
<title>dir_fa6d830662653e00a3f098549d35e05d</title>
<g id="a_node5"><a xlink:href="dir_fa6d830662653e00a3f098549d35e05d.html" target="_top" xlink:title="internal">
<polygon fill="#eeeeff" stroke="black" points="123,-340 69,-340 69,-304 123,-304 123,-340"/>
<text text-anchor="middle" x="96" y="-319.5" font-family="'Souce Sans Pro', Roboto, FreeSans, sans-serif" font-size="10.00">internal</text>
</a>
</g>
</g>
<!-- dir_fa6d830662653e00a3f098549d35e05d&#45;&gt;dir_15e0ad6291f54c01f72f2b7a09f5a39a -->
<g id="edge1" class="edge">
<title>dir_fa6d830662653e00a3f098549d35e05d&#45;&gt;dir_15e0ad6291f54c01f72f2b7a09f5a39a</title>
<path fill="none" stroke="black" d="M82.9,-303.7C76.61,-295.39 68.95,-285.28 62.04,-276.14"/>
<polygon fill="black" stroke="black" points="64.78,-273.96 55.95,-268.1 59.2,-278.19 64.78,-273.96"/>
<g id="a_edge1&#45;headlabel"><a xlink:href="dir_000004_000003.html" target="_top" xlink:title="2">
<text text-anchor="middle" x="69.21" y="-272.62" font-family="'Souce Sans Pro', Roboto, FreeSans, sans-serif" font-size="10.00">2</text>
</a>
</g>
</g>
<!-- dir_fa6d830662653e00a3f098549d35e05d&#45;&gt;dir_853879e30bdf8afe9a7079a6b1a108d0 -->
<g id="edge2" class="edge">
<title>dir_fa6d830662653e00a3f098549d35e05d&#45;&gt;dir_853879e30bdf8afe9a7079a6b1a108d0</title>
<path fill="none" stroke="black" d="M99.79,-303.59C105.59,-273.52 114.45,-210.24 99,-160 95.99,-150.22 90.49,-140.62 84.68,-132.33"/>
<polygon fill="black" stroke="black" points="87.41,-130.13 78.61,-124.23 81.81,-134.33 87.41,-130.13"/>
<g id="a_edge2&#45;headlabel"><a xlink:href="dir_000004_000007.html" target="_top" xlink:title="2">
<text text-anchor="middle" x="91.83" y="-128.8" font-family="'Souce Sans Pro', Roboto, FreeSans, sans-serif" font-size="10.00">2</text>
</a>
</g>
</g>
<!-- dir_fa6d830662653e00a3f098549d35e05d&#45;&gt;dir_978d533c27f1e6af39004a1d79354223 -->
<g id="edge3" class="edge">
<title>dir_fa6d830662653e00a3f098549d35e05d&#45;&gt;dir_978d533c27f1e6af39004a1d79354223</title>
<path fill="none" stroke="black" d="M93.27,-303.82C90.27,-285.81 85.08,-256.75 79,-232 76.88,-223.37 74.21,-214.07 71.65,-205.7"/>
<polygon fill="black" stroke="black" points="74.97,-204.56 68.65,-196.06 68.28,-206.65 74.97,-204.56"/>
<g id="a_edge3&#45;headlabel"><a xlink:href="dir_000004_000002.html" target="_top" xlink:title="1">
<text text-anchor="middle" x="78.75" y="-204.65" font-family="'Souce Sans Pro', Roboto, FreeSans, sans-serif" font-size="10.00">1</text>
</a>
</g>
</g>
<!-- dir_fa6d830662653e00a3f098549d35e05d&#45;&gt;dir_beaf3939c5b2e4f56ef965799f9263aa -->
<g id="edge4" class="edge">
<title>dir_fa6d830662653e00a3f098549d35e05d&#45;&gt;dir_beaf3939c5b2e4f56ef965799f9263aa</title>
<path fill="none" stroke="black" d="M102.24,-303.59C105.57,-293.37 109.32,-280.12 111,-268 122.02,-188.58 115.08,-166.55 99,-88 97.25,-79.43 94.72,-70.26 92.19,-61.99"/>
<polygon fill="black" stroke="black" points="95.52,-60.93 89.15,-52.46 88.85,-63.05 95.52,-60.93"/>
<g id="a_edge4&#45;headlabel"><a xlink:href="dir_000004_000006.html" target="_top" xlink:title="2">
<text text-anchor="middle" x="99.32" y="-60.99" font-family="'Souce Sans Pro', Roboto, FreeSans, sans-serif" font-size="10.00">2</text>
</a>
</g>
</g>
</g>
</svg>
