<?xml version="1.0" encoding="UTF-8" standalone="no"?>
<!DOCTYPE svg PUBLIC "-//W3C//DTD SVG 1.1//EN"
 "http://www.w3.org/Graphics/SVG/1.1/DTD/svg11.dtd">
<!-- Generated by graphviz version 2.43.0 (0)
 -->
<!-- Title: thread Pages: 1 -->
<svg width="182pt" height="239pt"
 viewBox="0.00 0.00 182.00 239.00" xmlns="http://www.w3.org/2000/svg" xmlns:xlink="http://www.w3.org/1999/xlink">
<g id="graph0" class="graph" transform="scale(1 1) rotate(0) translate(4 235)">
<title>thread</title>
<polygon fill="white" stroke="transparent" points="-4,4 -4,-235 178,-235 178,4 -4,4"/>
<g id="clust1" class="cluster">
<title>clusterdir_c1127a47df8dad6101631a17711b0d4b</title>
<g id="a_clust1"><a xlink:href="dir_c1127a47df8dad6101631a17711b0d4b.html" target="_top" xlink:title="log4cplus">
<polygon fill="#ddddee" stroke="black" points="8,-8 8,-223 166,-223 166,-8 8,-8"/>
<text text-anchor="middle" x="87" y="-211" font-family="'Souce Sans Pro', Roboto, FreeSans, sans-serif" font-size="10.00">log4cplus</text>
</a>
</g>
</g>
<g id="clust2" class="cluster">
<title>clusterdir_853879e30bdf8afe9a7079a6b1a108d0</title>
<g id="a_clust2"><a xlink:href="dir_853879e30bdf8afe9a7079a6b1a108d0.html" target="_top">
<polygon fill="#eeeeff" stroke="black" points="16,-80 16,-132 158,-132 158,-80 16,-80"/>
</a>
</g>
</g>
<!-- dir_15e0ad6291f54c01f72f2b7a09f5a39a -->
<g id="node1" class="node">
<title>dir_15e0ad6291f54c01f72f2b7a09f5a39a</title>
<g id="a_node1"><a xlink:href="dir_15e0ad6291f54c01f72f2b7a09f5a39a.html" target="_top" xlink:title="helpers">
<polygon fill="none" stroke="black" points="114,-196 60,-196 60,-160 114,-160 114,-196"/>
<text text-anchor="middle" x="87" y="-175.5" font-family="'Souce Sans Pro', Roboto, FreeSans, sans-serif" font-size="10.00">helpers</text>
</a>
</g>
</g>
<!-- dir_853879e30bdf8afe9a7079a6b1a108d0 -->
<g id="node3" class="node">
<title>dir_853879e30bdf8afe9a7079a6b1a108d0</title>
<text text-anchor="middle" x="123" y="-103.5" font-family="'Souce Sans Pro', Roboto, FreeSans, sans-serif" font-size="10.00">thread</text>
</g>
<!-- dir_15e0ad6291f54c01f72f2b7a09f5a39a&#45;&gt;dir_853879e30bdf8afe9a7079a6b1a108d0 -->
<g id="edge1" class="edge">
<title>dir_15e0ad6291f54c01f72f2b7a09f5a39a&#45;&gt;dir_853879e30bdf8afe9a7079a6b1a108d0</title>
<path fill="none" stroke="black" d="M95.9,-159.7C100,-151.73 104.95,-142.1 109.49,-133.26"/>
<polygon fill="black" stroke="black" points="112.74,-134.6 114.2,-124.1 106.52,-131.4 112.74,-134.6"/>
<g id="a_edge1&#45;headlabel"><a xlink:href="dir_000003_000007.html" target="_top" xlink:title="8">
<text text-anchor="middle" x="113.62" y="-136.59" font-family="'Souce Sans Pro', Roboto, FreeSans, sans-serif" font-size="10.00">8</text>
</a>
</g>
</g>
<!-- dir_beaf3939c5b2e4f56ef965799f9263aa -->
<g id="node2" class="node">
<title>dir_beaf3939c5b2e4f56ef965799f9263aa</title>
<g id="a_node2"><a xlink:href="dir_beaf3939c5b2e4f56ef965799f9263aa.html" target="_top" xlink:title="config">
<polygon fill="none" stroke="black" points="78,-52 24,-52 24,-16 78,-16 78,-52"/>
<text text-anchor="middle" x="51" y="-31.5" font-family="'Souce Sans Pro', Roboto, FreeSans, sans-serif" font-size="10.00">config</text>
</a>
</g>
</g>
<!-- dir_8365f885db0e24c0a4a28d7556850d67 -->
<g id="node4" class="node">
<title>dir_8365f885db0e24c0a4a28d7556850d67</title>
<g id="a_node4"><a xlink:href="dir_8365f885db0e24c0a4a28d7556850d67.html" target="_top" xlink:title="impl">
<polygon fill="white" stroke="black" points="78,-124 24,-124 24,-88 78,-88 78,-124"/>
<text text-anchor="middle" x="51" y="-103.5" font-family="'Souce Sans Pro', Roboto, FreeSans, sans-serif" font-size="10.00">impl</text>
</a>
</g>
</g>
<!-- dir_8365f885db0e24c0a4a28d7556850d67&#45;&gt;dir_15e0ad6291f54c01f72f2b7a09f5a39a -->
<g id="edge2" class="edge">
<title>dir_8365f885db0e24c0a4a28d7556850d67&#45;&gt;dir_15e0ad6291f54c01f72f2b7a09f5a39a</title>
<path fill="none" stroke="black" d="M59.8,-124.1C63.92,-132.13 68.93,-141.87 73.52,-150.8"/>
<polygon fill="black" stroke="black" points="70.42,-152.4 78.1,-159.7 76.64,-149.2 70.42,-152.4"/>
<g id="a_edge2&#45;headlabel"><a xlink:href="dir_000008_000003.html" target="_top" xlink:title="1">
<text text-anchor="middle" x="66.25" y="-148.01" font-family="'Souce Sans Pro', Roboto, FreeSans, sans-serif" font-size="10.00">1</text>
</a>
</g>
</g>
<!-- dir_8365f885db0e24c0a4a28d7556850d67&#45;&gt;dir_beaf3939c5b2e4f56ef965799f9263aa -->
<g id="edge3" class="edge">
<title>dir_8365f885db0e24c0a4a28d7556850d67&#45;&gt;dir_beaf3939c5b2e4f56ef965799f9263aa</title>
<path fill="none" stroke="black" d="M51,-87.7C51,-79.98 51,-70.71 51,-62.11"/>
<polygon fill="black" stroke="black" points="54.5,-62.1 51,-52.1 47.5,-62.1 54.5,-62.1"/>
<g id="a_edge3&#45;headlabel"><a xlink:href="dir_000008_000006.html" target="_top" xlink:title="1">
<text text-anchor="middle" x="57.34" y="-63.2" font-family="'Souce Sans Pro', Roboto, FreeSans, sans-serif" font-size="10.00">1</text>
</a>
</g>
</g>
</g>
</svg>
