<?xml version="1.0" encoding="UTF-8" standalone="no"?>
<!DOCTYPE svg PUBLIC "-//W3C//DTD SVG 1.1//EN"
 "http://www.w3.org/Graphics/SVG/1.1/DTD/svg11.dtd">
<!-- Generated by graphviz version 2.43.0 (0)
 -->
<!-- Title: helpers Pages: 1 -->
<svg width="114pt" height="239pt"
 viewBox="0.00 0.00 114.00 239.00" xmlns="http://www.w3.org/2000/svg" xmlns:xlink="http://www.w3.org/1999/xlink">
<g id="graph0" class="graph" transform="scale(1 1) rotate(0) translate(4 235)">
<title>helpers</title>
<polygon fill="white" stroke="transparent" points="-4,4 -4,-235 110,-235 110,4 -4,4"/>
<g id="clust1" class="cluster">
<title>clusterdir_c1127a47df8dad6101631a17711b0d4b</title>
<g id="a_clust1"><a xlink:href="dir_c1127a47df8dad6101631a17711b0d4b.html" target="_top" xlink:title="log4cplus">
<polygon fill="#ddddee" stroke="black" points="8,-8 8,-223 98,-223 98,-8 8,-8"/>
<text text-anchor="middle" x="53" y="-211" font-family="'Souce Sans Pro', Roboto, FreeSans, sans-serif" font-size="10.00">log4cplus</text>
</a>
</g>
</g>
<!-- dir_853879e30bdf8afe9a7079a6b1a108d0 -->
<g id="node1" class="node">
<title>dir_853879e30bdf8afe9a7079a6b1a108d0</title>
<g id="a_node1"><a xlink:href="dir_853879e30bdf8afe9a7079a6b1a108d0.html" target="_top" xlink:title="thread">
<polygon fill="white" stroke="red" points="80,-52 26,-52 26,-16 80,-16 80,-52"/>
<text text-anchor="middle" x="53" y="-31.5" font-family="'Souce Sans Pro', Roboto, FreeSans, sans-serif" font-size="10.00">thread</text>
</a>
</g>
</g>
<!-- dir_978d533c27f1e6af39004a1d79354223 -->
<g id="node2" class="node">
<title>dir_978d533c27f1e6af39004a1d79354223</title>
<g id="a_node2"><a xlink:href="dir_978d533c27f1e6af39004a1d79354223.html" target="_top" xlink:title="spi">
<polygon fill="none" stroke="black" points="90,-196 36,-196 36,-160 90,-160 90,-196"/>
<text text-anchor="middle" x="63" y="-175.5" font-family="'Souce Sans Pro', Roboto, FreeSans, sans-serif" font-size="10.00">spi</text>
</a>
</g>
</g>
<!-- dir_978d533c27f1e6af39004a1d79354223&#45;&gt;dir_853879e30bdf8afe9a7079a6b1a108d0 -->
<g id="edge4" class="edge">
<title>dir_978d533c27f1e6af39004a1d79354223&#45;&gt;dir_853879e30bdf8afe9a7079a6b1a108d0</title>
<path fill="none" stroke="black" d="M47.39,-159.77C39.63,-150.03 31.05,-137.18 27,-124 22.3,-108.71 23.38,-103.59 27,-88 29.1,-78.96 32.97,-69.68 37.09,-61.47"/>
<polygon fill="black" stroke="black" points="40.31,-62.86 41.95,-52.39 34.14,-59.55 40.31,-62.86"/>
<g id="a_edge4&#45;headlabel"><a xlink:href="dir_000002_000007.html" target="_top" xlink:title="2">
<text text-anchor="middle" x="41.12" y="-64.87" font-family="'Souce Sans Pro', Roboto, FreeSans, sans-serif" font-size="10.00">2</text>
</a>
</g>
</g>
<!-- dir_15e0ad6291f54c01f72f2b7a09f5a39a -->
<g id="node3" class="node">
<title>dir_15e0ad6291f54c01f72f2b7a09f5a39a</title>
<g id="a_node3"><a xlink:href="dir_15e0ad6291f54c01f72f2b7a09f5a39a.html" target="_top" xlink:title="helpers">
<polygon fill="#eeeeff" stroke="black" points="90,-124 36,-124 36,-88 90,-88 90,-124"/>
<text text-anchor="middle" x="63" y="-103.5" font-family="'Souce Sans Pro', Roboto, FreeSans, sans-serif" font-size="10.00">helpers</text>
</a>
</g>
</g>
<!-- dir_978d533c27f1e6af39004a1d79354223&#45;&gt;dir_15e0ad6291f54c01f72f2b7a09f5a39a -->
<g id="edge3" class="edge">
<title>dir_978d533c27f1e6af39004a1d79354223&#45;&gt;dir_15e0ad6291f54c01f72f2b7a09f5a39a</title>
<path fill="none" stroke="black" d="M57.08,-159.7C56.29,-151.98 56.06,-142.71 56.4,-134.11"/>
<polygon fill="black" stroke="black" points="59.9,-134.32 57.1,-124.1 52.92,-133.84 59.9,-134.32"/>
<g id="a_edge3&#45;headlabel"><a xlink:href="dir_000002_000003.html" target="_top" xlink:title="5">
<text text-anchor="middle" x="62.48" y="-135.61" font-family="'Souce Sans Pro', Roboto, FreeSans, sans-serif" font-size="10.00">5</text>
</a>
</g>
</g>
<!-- dir_15e0ad6291f54c01f72f2b7a09f5a39a&#45;&gt;dir_853879e30bdf8afe9a7079a6b1a108d0 -->
<g id="edge1" class="edge">
<title>dir_15e0ad6291f54c01f72f2b7a09f5a39a&#45;&gt;dir_853879e30bdf8afe9a7079a6b1a108d0</title>
<path fill="none" stroke="black" d="M60.53,-87.7C59.43,-79.98 58.1,-70.71 56.87,-62.11"/>
<polygon fill="black" stroke="black" points="60.32,-61.51 55.44,-52.1 53.39,-62.5 60.32,-61.51"/>
<g id="a_edge1&#45;headlabel"><a xlink:href="dir_000003_000007.html" target="_top" xlink:title="8">
<text text-anchor="middle" x="63.64" y="-62.17" font-family="'Souce Sans Pro', Roboto, FreeSans, sans-serif" font-size="10.00">8</text>
</a>
</g>
</g>
<!-- dir_15e0ad6291f54c01f72f2b7a09f5a39a&#45;&gt;dir_978d533c27f1e6af39004a1d79354223 -->
<g id="edge2" class="edge">
<title>dir_15e0ad6291f54c01f72f2b7a09f5a39a&#45;&gt;dir_978d533c27f1e6af39004a1d79354223</title>
<path fill="none" stroke="black" d="M68.9,-124.1C69.7,-131.79 69.94,-141.05 69.6,-149.67"/>
<polygon fill="black" stroke="black" points="66.11,-149.48 68.92,-159.7 73.09,-149.96 66.11,-149.48"/>
<g id="a_edge2&#45;headlabel"><a xlink:href="dir_000003_000002.html" target="_top" xlink:title="2">
<text text-anchor="middle" x="63.52" y="-143.2" font-family="'Souce Sans Pro', Roboto, FreeSans, sans-serif" font-size="10.00">2</text>
</a>
</g>
</g>
</g>
</svg>
