<?xml version="1.0" encoding="UTF-8" standalone="no"?>
<!DOCTYPE svg PUBLIC "-//W3C//DTD SVG 1.1//EN"
 "http://www.w3.org/Graphics/SVG/1.1/DTD/svg11.dtd">
<!-- Generated by graphviz version 2.43.0 (0)
 -->
<!-- Title: log4cplus Pages: 1 -->
<svg width="260pt" height="399pt"
 viewBox="0.00 0.00 260.00 399.00" xmlns="http://www.w3.org/2000/svg" xmlns:xlink="http://www.w3.org/1999/xlink">
<g id="graph0" class="graph" transform="scale(1 1) rotate(0) translate(4 395)">
<title>log4cplus</title>
<polygon fill="white" stroke="transparent" points="-4,4 -4,-395 256,-395 256,4 -4,4"/>
<g id="clust1" class="cluster">
<title>clusterdir_d44c64559bbebec7f509842c48db8b23</title>
<g id="a_clust1"><a xlink:href="dir_d44c64559bbebec7f509842c48db8b23.html" target="_top" xlink:title="include">
<polygon fill="#ddddee" stroke="black" points="8,-8 8,-383 244,-383 244,-8 8,-8"/>
<text text-anchor="middle" x="126" y="-371" font-family="'Souce Sans Pro', Roboto, FreeSans, sans-serif" font-size="10.00">include</text>
</a>
</g>
</g>
<g id="clust2" class="cluster">
<title>clusterdir_c1127a47df8dad6101631a17711b0d4b</title>
<g id="a_clust2"><a xlink:href="dir_c1127a47df8dad6101631a17711b0d4b.html" target="_top">
<polygon fill="#eeeeff" stroke="black" points="16,-16 16,-356 236,-356 236,-16 16,-16"/>
</a>
</g>
</g>
<!-- dir_c1127a47df8dad6101631a17711b0d4b -->
<g id="node1" class="node">
<title>dir_c1127a47df8dad6101631a17711b0d4b</title>
<text text-anchor="middle" x="198" y="-327.5" font-family="'Souce Sans Pro', Roboto, FreeSans, sans-serif" font-size="10.00">log4cplus</text>
</g>
<!-- dir_3211d121ecc3b8c63a5aff086e15ca89 -->
<g id="node2" class="node">
<title>dir_3211d121ecc3b8c63a5aff086e15ca89</title>
<g id="a_node2"><a xlink:href="dir_3211d121ecc3b8c63a5aff086e15ca89.html" target="_top" xlink:title="boost">
<polygon fill="white" stroke="black" points="150,-348 96,-348 96,-312 150,-312 150,-348"/>
<text text-anchor="middle" x="123" y="-327.5" font-family="'Souce Sans Pro', Roboto, FreeSans, sans-serif" font-size="10.00">boost</text>
</a>
</g>
</g>
<!-- dir_beaf3939c5b2e4f56ef965799f9263aa -->
<g id="node3" class="node">
<title>dir_beaf3939c5b2e4f56ef965799f9263aa</title>
<g id="a_node3"><a xlink:href="dir_beaf3939c5b2e4f56ef965799f9263aa.html" target="_top" xlink:title="config">
<polygon fill="white" stroke="black" points="88,-60 34,-60 34,-24 88,-24 88,-60"/>
<text text-anchor="middle" x="61" y="-39.5" font-family="'Souce Sans Pro', Roboto, FreeSans, sans-serif" font-size="10.00">config</text>
</a>
</g>
</g>
<!-- dir_15e0ad6291f54c01f72f2b7a09f5a39a -->
<g id="node4" class="node">
<title>dir_15e0ad6291f54c01f72f2b7a09f5a39a</title>
<g id="a_node4"><a xlink:href="dir_15e0ad6291f54c01f72f2b7a09f5a39a.html" target="_top" xlink:title="helpers">
<polygon fill="white" stroke="black" points="98,-276 44,-276 44,-240 98,-240 98,-276"/>
<text text-anchor="middle" x="71" y="-255.5" font-family="'Souce Sans Pro', Roboto, FreeSans, sans-serif" font-size="10.00">helpers</text>
</a>
</g>
</g>
<!-- dir_978d533c27f1e6af39004a1d79354223 -->
<g id="node6" class="node">
<title>dir_978d533c27f1e6af39004a1d79354223</title>
<g id="a_node6"><a xlink:href="dir_978d533c27f1e6af39004a1d79354223.html" target="_top" xlink:title="spi">
<polygon fill="white" stroke="black" points="131,-204 77,-204 77,-168 131,-168 131,-204"/>
<text text-anchor="middle" x="104" y="-183.5" font-family="'Souce Sans Pro', Roboto, FreeSans, sans-serif" font-size="10.00">spi</text>
</a>
</g>
</g>
<!-- dir_15e0ad6291f54c01f72f2b7a09f5a39a&#45;&gt;dir_978d533c27f1e6af39004a1d79354223 -->
<g id="edge6" class="edge">
<title>dir_15e0ad6291f54c01f72f2b7a09f5a39a&#45;&gt;dir_978d533c27f1e6af39004a1d79354223</title>
<path fill="none" stroke="black" d="M73.24,-239.7C76.21,-231.64 80.59,-221.89 85.2,-212.98"/>
<polygon fill="black" stroke="black" points="88.33,-214.56 90.04,-204.1 82.18,-211.21 88.33,-214.56"/>
<g id="a_edge6&#45;headlabel"><a xlink:href="dir_000003_000002.html" target="_top" xlink:title="2">
<text text-anchor="middle" x="89.1" y="-216.58" font-family="'Souce Sans Pro', Roboto, FreeSans, sans-serif" font-size="10.00">2</text>
</a>
</g>
</g>
<!-- dir_853879e30bdf8afe9a7079a6b1a108d0 -->
<g id="node7" class="node">
<title>dir_853879e30bdf8afe9a7079a6b1a108d0</title>
<g id="a_node7"><a xlink:href="dir_853879e30bdf8afe9a7079a6b1a108d0.html" target="_top" xlink:title="thread">
<polygon fill="white" stroke="red" points="98,-132 44,-132 44,-96 98,-96 98,-132"/>
<text text-anchor="middle" x="71" y="-111.5" font-family="'Souce Sans Pro', Roboto, FreeSans, sans-serif" font-size="10.00">thread</text>
</a>
</g>
</g>
<!-- dir_15e0ad6291f54c01f72f2b7a09f5a39a&#45;&gt;dir_853879e30bdf8afe9a7079a6b1a108d0 -->
<g id="edge5" class="edge">
<title>dir_15e0ad6291f54c01f72f2b7a09f5a39a&#45;&gt;dir_853879e30bdf8afe9a7079a6b1a108d0</title>
<path fill="none" stroke="black" d="M61.96,-239.82C60.11,-229.46 59.34,-215.98 59,-204 58.55,-188.01 58.55,-183.99 59,-168 59.24,-159.58 59.69,-150.41 60.58,-142.11"/>
<polygon fill="black" stroke="black" points="64.05,-142.56 61.96,-132.18 57.12,-141.6 64.05,-142.56"/>
<g id="a_edge5&#45;headlabel"><a xlink:href="dir_000003_000007.html" target="_top" xlink:title="8">
<text text-anchor="middle" x="66.37" y="-144.01" font-family="'Souce Sans Pro', Roboto, FreeSans, sans-serif" font-size="10.00">8</text>
</a>
</g>
</g>
<!-- dir_fa6d830662653e00a3f098549d35e05d -->
<g id="node5" class="node">
<title>dir_fa6d830662653e00a3f098549d35e05d</title>
<g id="a_node5"><a xlink:href="dir_fa6d830662653e00a3f098549d35e05d.html" target="_top" xlink:title="internal">
<polygon fill="white" stroke="black" points="78,-348 24,-348 24,-312 78,-312 78,-348"/>
<text text-anchor="middle" x="51" y="-327.5" font-family="'Souce Sans Pro', Roboto, FreeSans, sans-serif" font-size="10.00">internal</text>
</a>
</g>
</g>
<!-- dir_fa6d830662653e00a3f098549d35e05d&#45;&gt;dir_beaf3939c5b2e4f56ef965799f9263aa -->
<g id="edge4" class="edge">
<title>dir_fa6d830662653e00a3f098549d35e05d&#45;&gt;dir_beaf3939c5b2e4f56ef965799f9263aa</title>
<path fill="none" stroke="black" d="M44.35,-311.63C40.8,-301.42 36.8,-288.17 35,-276 23.31,-196.86 16.91,-173.93 35,-96 37.1,-86.96 40.97,-77.68 45.09,-69.47"/>
<polygon fill="black" stroke="black" points="48.31,-70.86 49.95,-60.39 42.14,-67.55 48.31,-70.86"/>
<g id="a_edge4&#45;headlabel"><a xlink:href="dir_000004_000006.html" target="_top" xlink:title="2">
<text text-anchor="middle" x="49.12" y="-72.87" font-family="'Souce Sans Pro', Roboto, FreeSans, sans-serif" font-size="10.00">2</text>
</a>
</g>
</g>
<!-- dir_fa6d830662653e00a3f098549d35e05d&#45;&gt;dir_15e0ad6291f54c01f72f2b7a09f5a39a -->
<g id="edge1" class="edge">
<title>dir_fa6d830662653e00a3f098549d35e05d&#45;&gt;dir_15e0ad6291f54c01f72f2b7a09f5a39a</title>
<path fill="none" stroke="black" d="M55.94,-311.7C58.17,-303.9 60.85,-294.51 63.33,-285.83"/>
<polygon fill="black" stroke="black" points="66.73,-286.68 66.11,-276.1 60,-284.76 66.73,-286.68"/>
<g id="a_edge1&#45;headlabel"><a xlink:href="dir_000004_000003.html" target="_top" xlink:title="2">
<text text-anchor="middle" x="68.47" y="-288.42" font-family="'Souce Sans Pro', Roboto, FreeSans, sans-serif" font-size="10.00">2</text>
</a>
</g>
</g>
<!-- dir_fa6d830662653e00a3f098549d35e05d&#45;&gt;dir_978d533c27f1e6af39004a1d79354223 -->
<g id="edge3" class="edge">
<title>dir_fa6d830662653e00a3f098549d35e05d&#45;&gt;dir_978d533c27f1e6af39004a1d79354223</title>
<path fill="none" stroke="black" d="M77.12,-311.82C88.58,-302.69 100.81,-290.39 107,-276 115.38,-256.53 113.92,-232.39 110.76,-214.17"/>
<polygon fill="black" stroke="black" points="114.16,-213.32 108.77,-204.2 107.3,-214.69 114.16,-213.32"/>
<g id="a_edge3&#45;headlabel"><a xlink:href="dir_000004_000002.html" target="_top" xlink:title="1">
<text text-anchor="middle" x="117.65" y="-213.78" font-family="'Souce Sans Pro', Roboto, FreeSans, sans-serif" font-size="10.00">1</text>
</a>
</g>
</g>
<!-- dir_fa6d830662653e00a3f098549d35e05d&#45;&gt;dir_853879e30bdf8afe9a7079a6b1a108d0 -->
<g id="edge2" class="edge">
<title>dir_fa6d830662653e00a3f098549d35e05d&#45;&gt;dir_853879e30bdf8afe9a7079a6b1a108d0</title>
<path fill="none" stroke="black" d="M77.96,-311.83C90.69,-302.55 105.21,-290.1 115,-276 134.31,-248.17 134.37,-237.4 140,-204 142.66,-188.22 147.07,-182.35 140,-168 132.89,-153.58 119.77,-141.99 106.86,-133.37"/>
<polygon fill="black" stroke="black" points="108.37,-130.18 98.03,-127.87 104.67,-136.13 108.37,-130.18"/>
<g id="a_edge2&#45;headlabel"><a xlink:href="dir_000004_000007.html" target="_top" xlink:title="2">
<text text-anchor="middle" x="112.92" y="-127.17" font-family="'Souce Sans Pro', Roboto, FreeSans, sans-serif" font-size="10.00">2</text>
</a>
</g>
</g>
<!-- dir_978d533c27f1e6af39004a1d79354223&#45;&gt;dir_15e0ad6291f54c01f72f2b7a09f5a39a -->
<g id="edge7" class="edge">
<title>dir_978d533c27f1e6af39004a1d79354223&#45;&gt;dir_15e0ad6291f54c01f72f2b7a09f5a39a</title>
<path fill="none" stroke="black" d="M101.83,-204.1C98.89,-212.13 94.52,-221.87 89.91,-230.8"/>
<polygon fill="black" stroke="black" points="86.77,-229.24 85.07,-239.7 92.92,-232.58 86.77,-229.24"/>
<g id="a_edge7&#45;headlabel"><a xlink:href="dir_000002_000003.html" target="_top" xlink:title="5">
<text text-anchor="middle" x="85.99" y="-222.22" font-family="'Souce Sans Pro', Roboto, FreeSans, sans-serif" font-size="10.00">5</text>
</a>
</g>
</g>
<!-- dir_978d533c27f1e6af39004a1d79354223&#45;&gt;dir_853879e30bdf8afe9a7079a6b1a108d0 -->
<g id="edge8" class="edge">
<title>dir_978d533c27f1e6af39004a1d79354223&#45;&gt;dir_853879e30bdf8afe9a7079a6b1a108d0</title>
<path fill="none" stroke="black" d="M95.84,-167.7C92.09,-159.73 87.55,-150.1 83.38,-141.26"/>
<polygon fill="black" stroke="black" points="86.49,-139.66 79.06,-132.1 80.16,-142.64 86.49,-139.66"/>
<g id="a_edge8&#45;headlabel"><a xlink:href="dir_000002_000007.html" target="_top" xlink:title="2">
<text text-anchor="middle" x="90.59" y="-139.2" font-family="'Souce Sans Pro', Roboto, FreeSans, sans-serif" font-size="10.00">2</text>
</a>
</g>
</g>
<!-- dir_853879e30bdf8afe9a7079a6b1a108d0&#45;&gt;dir_beaf3939c5b2e4f56ef965799f9263aa -->
<g id="edge10" class="edge">
<title>dir_853879e30bdf8afe9a7079a6b1a108d0&#45;&gt;dir_beaf3939c5b2e4f56ef965799f9263aa</title>
<path fill="none" stroke="black" d="M68.53,-95.7C67.43,-87.98 66.1,-78.71 64.87,-70.11"/>
<polygon fill="black" stroke="black" points="68.32,-69.51 63.44,-60.1 61.39,-70.5 68.32,-69.51"/>
<g id="a_edge10&#45;headlabel"><a xlink:href="dir_000007_000006.html" target="_top" xlink:title="1">
<text text-anchor="middle" x="71.64" y="-70.17" font-family="'Souce Sans Pro', Roboto, FreeSans, sans-serif" font-size="10.00">1</text>
</a>
</g>
</g>
<!-- dir_853879e30bdf8afe9a7079a6b1a108d0&#45;&gt;dir_15e0ad6291f54c01f72f2b7a09f5a39a -->
<g id="edge9" class="edge">
<title>dir_853879e30bdf8afe9a7079a6b1a108d0&#45;&gt;dir_15e0ad6291f54c01f72f2b7a09f5a39a</title>
<path fill="none" stroke="black" d="M77.6,-132.18C78.11,-142.54 77.34,-156.02 77,-168 76.55,-183.99 76.55,-188.01 77,-204 77.24,-212.33 77.68,-221.38 77.76,-229.61"/>
<polygon fill="black" stroke="black" points="74.25,-229.77 77.6,-239.82 81.25,-229.88 74.25,-229.77"/>
<g id="a_edge9&#45;headlabel"><a xlink:href="dir_000007_000003.html" target="_top" xlink:title="2">
<text text-anchor="middle" x="71.47" y="-223.64" font-family="'Souce Sans Pro', Roboto, FreeSans, sans-serif" font-size="10.00">2</text>
</a>
</g>
</g>
</g>
</svg>
