<?xml version="1.0" encoding="UTF-8" standalone="no"?>
<!DOCTYPE svg PUBLIC "-//W3C//DTD SVG 1.1//EN"
 "http://www.w3.org/Graphics/SVG/1.1/DTD/svg11.dtd">
<!-- Generated by graphviz version 2.43.0 (0)
 -->
<!-- Title: env.h Pages: 1 -->
<svg width="577pt" height="274pt"
 viewBox="0.00 0.00 576.50 274.00" xmlns="http://www.w3.org/2000/svg" xmlns:xlink="http://www.w3.org/1999/xlink">
<g id="graph0" class="graph" transform="scale(1 1) rotate(0) translate(4 270)">
<title>env.h</title>
<polygon fill="white" stroke="transparent" points="-4,4 -4,-270 572.5,-270 572.5,4 -4,4"/>
<!-- Node1 -->
<g id="node1" class="node">
<title>Node1</title>
<g id="a_node1"><a xlink:title=" ">
<polygon fill="#bfbfbf" stroke="black" points="174,-246.5 174,-265.5 214,-265.5 214,-246.5 174,-246.5"/>
<text text-anchor="middle" x="194" y="-253.5" font-family="'Souce Sans Pro', Roboto, FreeSans, sans-serif" font-size="10.00">env.h</text>
</a>
</g>
</g>
<!-- Node2 -->
<g id="node2" class="node">
<title>Node2</title>
<g id="a_node2"><a xlink:href="config_8hxx.html" target="_top" xlink:title=" ">
<polygon fill="white" stroke="black" points="82.5,-67.5 82.5,-86.5 191.5,-86.5 191.5,-67.5 82.5,-67.5"/>
<text text-anchor="middle" x="137" y="-74.5" font-family="'Souce Sans Pro', Roboto, FreeSans, sans-serif" font-size="10.00">log4cplus/config.hxx</text>
</a>
</g>
</g>
<!-- Node1&#45;&gt;Node2 -->
<g id="edge1" class="edge">
<title>Node1&#45;&gt;Node2</title>
<path fill="none" stroke="midnightblue" d="M173.69,-249.28C155.48,-242.95 129.85,-230.78 118,-210 97.25,-173.6 115.33,-122.7 127.71,-95.99"/>
<polygon fill="midnightblue" stroke="midnightblue" points="131,-97.24 132.24,-86.72 124.71,-94.17 131,-97.24"/>
</g>
<!-- Node5 -->
<g id="node5" class="node">
<title>Node5</title>
<g id="a_node5"><a xlink:title=" ">
<polygon fill="white" stroke="#bfbfbf" points="127,-185 127,-204 171,-204 171,-185 127,-185"/>
<text text-anchor="middle" x="149" y="-192" font-family="'Souce Sans Pro', Roboto, FreeSans, sans-serif" font-size="10.00">vector</text>
</a>
</g>
</g>
<!-- Node1&#45;&gt;Node5 -->
<g id="edge4" class="edge">
<title>Node1&#45;&gt;Node5</title>
<path fill="none" stroke="midnightblue" d="M187.55,-246.48C180.8,-237.55 170.03,-223.31 161.59,-212.14"/>
<polygon fill="midnightblue" stroke="midnightblue" points="164.26,-209.87 155.44,-204.01 158.68,-214.1 164.26,-209.87"/>
</g>
<!-- Node6 -->
<g id="node6" class="node">
<title>Node6</title>
<g id="a_node6"><a xlink:href="tstring_8h.html" target="_top" xlink:title=" ">
<polygon fill="white" stroke="black" points="189.5,-185 189.5,-204 288.5,-204 288.5,-185 189.5,-185"/>
<text text-anchor="middle" x="239" y="-192" font-family="'Souce Sans Pro', Roboto, FreeSans, sans-serif" font-size="10.00">log4cplus/tstring.h</text>
</a>
</g>
</g>
<!-- Node1&#45;&gt;Node6 -->
<g id="edge5" class="edge">
<title>Node1&#45;&gt;Node6</title>
<path fill="none" stroke="midnightblue" d="M200.45,-246.48C207.2,-237.55 217.97,-223.31 226.41,-212.14"/>
<polygon fill="midnightblue" stroke="midnightblue" points="229.32,-214.1 232.56,-204.01 223.74,-209.87 229.32,-214.1"/>
</g>
<!-- Node10 -->
<g id="node10" class="node">
<title>Node10</title>
<g id="a_node10"><a xlink:href="windowsh-inc_8h.html" target="_top" xlink:title=" ">
<polygon fill="white" stroke="black" points="345,-179.5 345,-209.5 485,-209.5 485,-179.5 345,-179.5"/>
<text text-anchor="start" x="353" y="-197.5" font-family="'Souce Sans Pro', Roboto, FreeSans, sans-serif" font-size="10.00">log4cplus/config/windowsh</text>
<text text-anchor="middle" x="415" y="-186.5" font-family="'Souce Sans Pro', Roboto, FreeSans, sans-serif" font-size="10.00">&#45;inc.h</text>
</a>
</g>
</g>
<!-- Node1&#45;&gt;Node10 -->
<g id="edge11" class="edge">
<title>Node1&#45;&gt;Node10</title>
<path fill="none" stroke="midnightblue" d="M214,-249.61C245.05,-241.26 306.13,-224.81 352.85,-212.23"/>
<polygon fill="midnightblue" stroke="midnightblue" points="353.84,-215.59 362.58,-209.61 352.02,-208.83 353.84,-215.59"/>
</g>
<!-- Node3 -->
<g id="node3" class="node">
<title>Node3</title>
<g id="a_node3"><a xlink:href="win32_8h.html" target="_top" xlink:title=" ">
<polygon fill="white" stroke="black" points="0,-6 0,-25 128,-25 128,-6 0,-6"/>
<text text-anchor="middle" x="64" y="-13" font-family="'Souce Sans Pro', Roboto, FreeSans, sans-serif" font-size="10.00">log4cplus/config/win32.h</text>
</a>
</g>
</g>
<!-- Node2&#45;&gt;Node3 -->
<g id="edge2" class="edge">
<title>Node2&#45;&gt;Node3</title>
<path fill="none" stroke="midnightblue" d="M126.54,-67.48C115.05,-58.11 96.37,-42.88 82.41,-31.51"/>
<polygon fill="midnightblue" stroke="midnightblue" points="84.4,-28.61 74.44,-25.01 79.98,-34.04 84.4,-28.61"/>
</g>
<!-- Node4 -->
<g id="node4" class="node">
<title>Node4</title>
<g id="a_node4"><a xlink:href="thread-config_8h.html" target="_top" xlink:title=" ">
<polygon fill="white" stroke="black" points="146,-0.5 146,-30.5 274,-30.5 274,-0.5 146,-0.5"/>
<text text-anchor="start" x="154" y="-18.5" font-family="'Souce Sans Pro', Roboto, FreeSans, sans-serif" font-size="10.00">log4cplus/helpers/thread</text>
<text text-anchor="middle" x="210" y="-7.5" font-family="'Souce Sans Pro', Roboto, FreeSans, sans-serif" font-size="10.00">&#45;config.h</text>
</a>
</g>
</g>
<!-- Node2&#45;&gt;Node4 -->
<g id="edge3" class="edge">
<title>Node2&#45;&gt;Node4</title>
<path fill="none" stroke="midnightblue" d="M147.46,-67.48C157.16,-59.57 171.99,-47.48 184.77,-37.07"/>
<polygon fill="midnightblue" stroke="midnightblue" points="187.26,-39.55 192.8,-30.52 182.83,-34.13 187.26,-39.55"/>
</g>
<!-- Node6&#45;&gt;Node2 -->
<g id="edge6" class="edge">
<title>Node6&#45;&gt;Node2</title>
<path fill="none" stroke="midnightblue" d="M215.64,-184.86C196.9,-176.78 171.3,-162.94 156,-143 145.72,-129.6 141,-110.78 138.83,-96.84"/>
<polygon fill="midnightblue" stroke="midnightblue" points="142.3,-96.38 137.58,-86.9 135.35,-97.26 142.3,-96.38"/>
</g>
<!-- Node7 -->
<g id="node7" class="node">
<title>Node7</title>
<g id="a_node7"><a xlink:title=" ">
<polygon fill="white" stroke="#bfbfbf" points="165.5,-123.5 165.5,-142.5 206.5,-142.5 206.5,-123.5 165.5,-123.5"/>
<text text-anchor="middle" x="186" y="-130.5" font-family="'Souce Sans Pro', Roboto, FreeSans, sans-serif" font-size="10.00">string</text>
</a>
</g>
</g>
<!-- Node6&#45;&gt;Node7 -->
<g id="edge7" class="edge">
<title>Node6&#45;&gt;Node7</title>
<path fill="none" stroke="midnightblue" d="M231.41,-184.98C223.3,-175.87 210.27,-161.24 200.24,-149.98"/>
<polygon fill="midnightblue" stroke="midnightblue" points="202.84,-147.65 193.58,-142.51 197.62,-152.3 202.84,-147.65"/>
</g>
<!-- Node8 -->
<g id="node8" class="node">
<title>Node8</title>
<g id="a_node8"><a xlink:href="tchar_8h.html" target="_top" xlink:title=" ">
<polygon fill="white" stroke="black" points="224.5,-123.5 224.5,-142.5 317.5,-142.5 317.5,-123.5 224.5,-123.5"/>
<text text-anchor="middle" x="271" y="-130.5" font-family="'Souce Sans Pro', Roboto, FreeSans, sans-serif" font-size="10.00">log4cplus/tchar.h</text>
</a>
</g>
</g>
<!-- Node6&#45;&gt;Node8 -->
<g id="edge8" class="edge">
<title>Node6&#45;&gt;Node8</title>
<path fill="none" stroke="midnightblue" d="M243.58,-184.98C248.24,-176.32 255.59,-162.65 261.51,-151.65"/>
<polygon fill="midnightblue" stroke="midnightblue" points="264.77,-152.97 266.42,-142.51 258.6,-149.66 264.77,-152.97"/>
</g>
<!-- Node8&#45;&gt;Node2 -->
<g id="edge9" class="edge">
<title>Node8&#45;&gt;Node2</title>
<path fill="none" stroke="midnightblue" d="M249.77,-123.44C227.62,-114.52 192.68,-100.44 167.56,-90.32"/>
<polygon fill="midnightblue" stroke="midnightblue" points="168.72,-87.01 158.13,-86.52 166.1,-93.5 168.72,-87.01"/>
</g>
<!-- Node9 -->
<g id="node9" class="node">
<title>Node9</title>
<g id="a_node9"><a xlink:title=" ">
<polygon fill="white" stroke="#bfbfbf" points="245.5,-67.5 245.5,-86.5 296.5,-86.5 296.5,-67.5 245.5,-67.5"/>
<text text-anchor="middle" x="271" y="-74.5" font-family="'Souce Sans Pro', Roboto, FreeSans, sans-serif" font-size="10.00">cstddef</text>
</a>
</g>
</g>
<!-- Node8&#45;&gt;Node9 -->
<g id="edge10" class="edge">
<title>Node8&#45;&gt;Node9</title>
<path fill="none" stroke="midnightblue" d="M271,-123.08C271,-116.01 271,-105.86 271,-96.99"/>
<polygon fill="midnightblue" stroke="midnightblue" points="274.5,-96.75 271,-86.75 267.5,-96.75 274.5,-96.75"/>
</g>
<!-- Node11 -->
<g id="node11" class="node">
<title>Node11</title>
<g id="a_node11"><a xlink:title=" ">
<polygon fill="white" stroke="#bfbfbf" points="335.5,-123.5 335.5,-142.5 402.5,-142.5 402.5,-123.5 335.5,-123.5"/>
<text text-anchor="middle" x="369" y="-130.5" font-family="'Souce Sans Pro', Roboto, FreeSans, sans-serif" font-size="10.00">winsock2.h</text>
</a>
</g>
</g>
<!-- Node10&#45;&gt;Node11 -->
<g id="edge12" class="edge">
<title>Node10&#45;&gt;Node11</title>
<path fill="none" stroke="midnightblue" d="M404.1,-179.4C397.41,-170.75 388.82,-159.64 381.82,-150.58"/>
<polygon fill="midnightblue" stroke="midnightblue" points="384.58,-148.43 375.69,-142.66 379.04,-152.71 384.58,-148.43"/>
</g>
<!-- Node12 -->
<g id="node12" class="node">
<title>Node12</title>
<g id="a_node12"><a xlink:title=" ">
<polygon fill="white" stroke="#bfbfbf" points="421,-123.5 421,-142.5 485,-142.5 485,-123.5 421,-123.5"/>
<text text-anchor="middle" x="453" y="-130.5" font-family="'Souce Sans Pro', Roboto, FreeSans, sans-serif" font-size="10.00">ws2tcpip.h</text>
</a>
</g>
</g>
<!-- Node10&#45;&gt;Node12 -->
<g id="edge13" class="edge">
<title>Node10&#45;&gt;Node12</title>
<path fill="none" stroke="midnightblue" d="M424.01,-179.4C429.41,-170.93 436.33,-160.1 442.05,-151.14"/>
<polygon fill="midnightblue" stroke="midnightblue" points="445.04,-152.97 447.47,-142.66 439.14,-149.2 445.04,-152.97"/>
</g>
<!-- Node13 -->
<g id="node13" class="node">
<title>Node13</title>
<g id="a_node13"><a xlink:title=" ">
<polygon fill="white" stroke="#bfbfbf" points="503.5,-123.5 503.5,-142.5 568.5,-142.5 568.5,-123.5 503.5,-123.5"/>
<text text-anchor="middle" x="536" y="-130.5" font-family="'Souce Sans Pro', Roboto, FreeSans, sans-serif" font-size="10.00">windows.h</text>
</a>
</g>
</g>
<!-- Node10&#45;&gt;Node13 -->
<g id="edge14" class="edge">
<title>Node10&#45;&gt;Node13</title>
<path fill="none" stroke="midnightblue" d="M443.68,-179.4C463.52,-169.64 489.76,-156.74 509.19,-147.18"/>
<polygon fill="midnightblue" stroke="midnightblue" points="510.96,-150.21 518.39,-142.66 507.88,-143.93 510.96,-150.21"/>
</g>
</g>
</svg>
