<?xml version="1.0" encoding="UTF-8" standalone="no"?>
<!DOCTYPE svg PUBLIC "-//W3C//DTD SVG 1.1//EN"
 "http://www.w3.org/Graphics/SVG/1.1/DTD/svg11.dtd">
<!-- Generated by graphviz version 2.43.0 (0)
 -->
<!-- Title: fileinfo.h Pages: 1 -->
<svg width="378pt" height="319pt"
 viewBox="0.00 0.00 377.50 319.00" xmlns="http://www.w3.org/2000/svg" xmlns:xlink="http://www.w3.org/1999/xlink">
<g id="graph0" class="graph" transform="scale(1 1) rotate(0) translate(4 315)">
<title>fileinfo.h</title>
<polygon fill="white" stroke="transparent" points="-4,4 -4,-315 373.5,-315 373.5,4 -4,4"/>
<!-- Node1 -->
<g id="node1" class="node">
<title>Node1</title>
<g id="a_node1"><a xlink:title=" ">
<polygon fill="#bfbfbf" stroke="black" points="110.5,-291.5 110.5,-310.5 165.5,-310.5 165.5,-291.5 110.5,-291.5"/>
<text text-anchor="middle" x="138" y="-298.5" font-family="'Souce Sans Pro', Roboto, FreeSans, sans-serif" font-size="10.00">fileinfo.h</text>
</a>
</g>
</g>
<!-- Node2 -->
<g id="node2" class="node">
<title>Node2</title>
<g id="a_node2"><a xlink:href="config_8hxx.html" target="_top" xlink:title=" ">
<polygon fill="white" stroke="black" points="82.5,-67.5 82.5,-86.5 191.5,-86.5 191.5,-67.5 82.5,-67.5"/>
<text text-anchor="middle" x="137" y="-74.5" font-family="'Souce Sans Pro', Roboto, FreeSans, sans-serif" font-size="10.00">log4cplus/config.hxx</text>
</a>
</g>
</g>
<!-- Node1&#45;&gt;Node2 -->
<g id="edge1" class="edge">
<title>Node1&#45;&gt;Node2</title>
<path fill="none" stroke="midnightblue" d="M130.59,-291.41C123.72,-282.84 113.99,-268.98 110,-255 93.81,-198.34 116.4,-128.54 129.22,-96.12"/>
<polygon fill="midnightblue" stroke="midnightblue" points="132.55,-97.22 133.12,-86.64 126.08,-94.56 132.55,-97.22"/>
</g>
<!-- Node5 -->
<g id="node5" class="node">
<title>Node5</title>
<g id="a_node5"><a xlink:href="timehelper_8h.html" target="_top" xlink:title=" ">
<polygon fill="white" stroke="black" points="119,-235.5 119,-254.5 273,-254.5 273,-235.5 119,-235.5"/>
<text text-anchor="middle" x="196" y="-242.5" font-family="'Souce Sans Pro', Roboto, FreeSans, sans-serif" font-size="10.00">log4cplus/helpers/timehelper.h</text>
</a>
</g>
</g>
<!-- Node1&#45;&gt;Node5 -->
<g id="edge4" class="edge">
<title>Node1&#45;&gt;Node5</title>
<path fill="none" stroke="midnightblue" d="M147.32,-291.32C155.89,-283.34 168.81,-271.31 179.19,-261.65"/>
<polygon fill="midnightblue" stroke="midnightblue" points="181.58,-264.21 186.51,-254.83 176.81,-259.09 181.58,-264.21"/>
</g>
<!-- Node3 -->
<g id="node3" class="node">
<title>Node3</title>
<g id="a_node3"><a xlink:href="win32_8h.html" target="_top" xlink:title=" ">
<polygon fill="white" stroke="black" points="0,-6 0,-25 128,-25 128,-6 0,-6"/>
<text text-anchor="middle" x="64" y="-13" font-family="'Souce Sans Pro', Roboto, FreeSans, sans-serif" font-size="10.00">log4cplus/config/win32.h</text>
</a>
</g>
</g>
<!-- Node2&#45;&gt;Node3 -->
<g id="edge2" class="edge">
<title>Node2&#45;&gt;Node3</title>
<path fill="none" stroke="midnightblue" d="M126.54,-67.48C115.05,-58.11 96.37,-42.88 82.41,-31.51"/>
<polygon fill="midnightblue" stroke="midnightblue" points="84.4,-28.61 74.44,-25.01 79.98,-34.04 84.4,-28.61"/>
</g>
<!-- Node4 -->
<g id="node4" class="node">
<title>Node4</title>
<g id="a_node4"><a xlink:href="thread-config_8h.html" target="_top" xlink:title=" ">
<polygon fill="white" stroke="black" points="146,-0.5 146,-30.5 274,-30.5 274,-0.5 146,-0.5"/>
<text text-anchor="start" x="154" y="-18.5" font-family="'Souce Sans Pro', Roboto, FreeSans, sans-serif" font-size="10.00">log4cplus/helpers/thread</text>
<text text-anchor="middle" x="210" y="-7.5" font-family="'Souce Sans Pro', Roboto, FreeSans, sans-serif" font-size="10.00">&#45;config.h</text>
</a>
</g>
</g>
<!-- Node2&#45;&gt;Node4 -->
<g id="edge3" class="edge">
<title>Node2&#45;&gt;Node4</title>
<path fill="none" stroke="midnightblue" d="M147.46,-67.48C157.16,-59.57 171.99,-47.48 184.77,-37.07"/>
<polygon fill="midnightblue" stroke="midnightblue" points="187.26,-39.55 192.8,-30.52 182.83,-34.13 187.26,-39.55"/>
</g>
<!-- Node5&#45;&gt;Node2 -->
<g id="edge5" class="edge">
<title>Node5&#45;&gt;Node2</title>
<path fill="none" stroke="midnightblue" d="M177.02,-235.4C163.11,-227.95 145.29,-215.74 137,-199 120.68,-166.02 126.69,-121.52 132.12,-96.71"/>
<polygon fill="midnightblue" stroke="midnightblue" points="135.56,-97.34 134.49,-86.8 128.76,-95.71 135.56,-97.34"/>
</g>
<!-- Node6 -->
<g id="node6" class="node">
<title>Node6</title>
<g id="a_node6"><a xlink:href="tstring_8h.html" target="_top" xlink:title=" ">
<polygon fill="white" stroke="black" points="146.5,-179.5 146.5,-198.5 245.5,-198.5 245.5,-179.5 146.5,-179.5"/>
<text text-anchor="middle" x="196" y="-186.5" font-family="'Souce Sans Pro', Roboto, FreeSans, sans-serif" font-size="10.00">log4cplus/tstring.h</text>
</a>
</g>
</g>
<!-- Node5&#45;&gt;Node6 -->
<g id="edge6" class="edge">
<title>Node5&#45;&gt;Node6</title>
<path fill="none" stroke="midnightblue" d="M196,-235.08C196,-228.01 196,-217.86 196,-208.99"/>
<polygon fill="midnightblue" stroke="midnightblue" points="199.5,-208.75 196,-198.75 192.5,-208.75 199.5,-208.75"/>
</g>
<!-- Node10 -->
<g id="node10" class="node">
<title>Node10</title>
<g id="a_node10"><a xlink:title=" ">
<polygon fill="white" stroke="#bfbfbf" points="263.5,-179.5 263.5,-198.5 304.5,-198.5 304.5,-179.5 263.5,-179.5"/>
<text text-anchor="middle" x="284" y="-186.5" font-family="'Souce Sans Pro', Roboto, FreeSans, sans-serif" font-size="10.00">ctime</text>
</a>
</g>
</g>
<!-- Node5&#45;&gt;Node10 -->
<g id="edge12" class="edge">
<title>Node5&#45;&gt;Node10</title>
<path fill="none" stroke="midnightblue" d="M210.14,-235.32C223.87,-226.9 244.94,-213.97 261.06,-204.07"/>
<polygon fill="midnightblue" stroke="midnightblue" points="263.2,-206.87 269.9,-198.65 259.54,-200.9 263.2,-206.87"/>
</g>
<!-- Node11 -->
<g id="node11" class="node">
<title>Node11</title>
<g id="a_node11"><a xlink:title=" ">
<polygon fill="white" stroke="#bfbfbf" points="322.5,-179.5 322.5,-198.5 369.5,-198.5 369.5,-179.5 322.5,-179.5"/>
<text text-anchor="middle" x="346" y="-186.5" font-family="'Souce Sans Pro', Roboto, FreeSans, sans-serif" font-size="10.00">chrono</text>
</a>
</g>
</g>
<!-- Node5&#45;&gt;Node11 -->
<g id="edge13" class="edge">
<title>Node5&#45;&gt;Node11</title>
<path fill="none" stroke="midnightblue" d="M219.77,-235.44C244.89,-226.4 284.71,-212.06 312.9,-201.92"/>
<polygon fill="midnightblue" stroke="midnightblue" points="314.12,-205.2 322.34,-198.52 311.75,-198.61 314.12,-205.2"/>
</g>
<!-- Node6&#45;&gt;Node2 -->
<g id="edge7" class="edge">
<title>Node6&#45;&gt;Node2</title>
<path fill="none" stroke="midnightblue" d="M191.37,-179.37C181.72,-161.38 159.29,-119.55 146.45,-95.63"/>
<polygon fill="midnightblue" stroke="midnightblue" points="149.42,-93.75 141.61,-86.59 143.25,-97.06 149.42,-93.75"/>
</g>
<!-- Node7 -->
<g id="node7" class="node">
<title>Node7</title>
<g id="a_node7"><a xlink:title=" ">
<polygon fill="white" stroke="#bfbfbf" points="184.5,-123.5 184.5,-142.5 225.5,-142.5 225.5,-123.5 184.5,-123.5"/>
<text text-anchor="middle" x="205" y="-130.5" font-family="'Souce Sans Pro', Roboto, FreeSans, sans-serif" font-size="10.00">string</text>
</a>
</g>
</g>
<!-- Node6&#45;&gt;Node7 -->
<g id="edge8" class="edge">
<title>Node6&#45;&gt;Node7</title>
<path fill="none" stroke="midnightblue" d="M197.49,-179.08C198.68,-171.93 200.39,-161.64 201.88,-152.69"/>
<polygon fill="midnightblue" stroke="midnightblue" points="205.35,-153.19 203.54,-142.75 198.45,-152.04 205.35,-153.19"/>
</g>
<!-- Node8 -->
<g id="node8" class="node">
<title>Node8</title>
<g id="a_node8"><a xlink:href="tchar_8h.html" target="_top" xlink:title=" ">
<polygon fill="white" stroke="black" points="243.5,-123.5 243.5,-142.5 336.5,-142.5 336.5,-123.5 243.5,-123.5"/>
<text text-anchor="middle" x="290" y="-130.5" font-family="'Souce Sans Pro', Roboto, FreeSans, sans-serif" font-size="10.00">log4cplus/tchar.h</text>
</a>
</g>
</g>
<!-- Node6&#45;&gt;Node8 -->
<g id="edge9" class="edge">
<title>Node6&#45;&gt;Node8</title>
<path fill="none" stroke="midnightblue" d="M211.1,-179.32C225.9,-170.82 248.69,-157.73 265.98,-147.8"/>
<polygon fill="midnightblue" stroke="midnightblue" points="268.01,-150.67 274.93,-142.65 264.52,-144.6 268.01,-150.67"/>
</g>
<!-- Node8&#45;&gt;Node2 -->
<g id="edge10" class="edge">
<title>Node8&#45;&gt;Node2</title>
<path fill="none" stroke="midnightblue" d="M265.76,-123.44C240.13,-114.4 199.51,-100.06 170.76,-89.92"/>
<polygon fill="midnightblue" stroke="midnightblue" points="171.72,-86.54 161.13,-86.52 169.39,-93.15 171.72,-86.54"/>
</g>
<!-- Node9 -->
<g id="node9" class="node">
<title>Node9</title>
<g id="a_node9"><a xlink:title=" ">
<polygon fill="white" stroke="#bfbfbf" points="264.5,-67.5 264.5,-86.5 315.5,-86.5 315.5,-67.5 264.5,-67.5"/>
<text text-anchor="middle" x="290" y="-74.5" font-family="'Souce Sans Pro', Roboto, FreeSans, sans-serif" font-size="10.00">cstddef</text>
</a>
</g>
</g>
<!-- Node8&#45;&gt;Node9 -->
<g id="edge11" class="edge">
<title>Node8&#45;&gt;Node9</title>
<path fill="none" stroke="midnightblue" d="M290,-123.08C290,-116.01 290,-105.86 290,-96.99"/>
<polygon fill="midnightblue" stroke="midnightblue" points="293.5,-96.75 290,-86.75 286.5,-96.75 293.5,-96.75"/>
</g>
</g>
</svg>
