<?xml version="1.0" encoding="UTF-8" standalone="no"?>
<!DOCTYPE svg PUBLIC "-//W3C//DTD SVG 1.1//EN"
 "http://www.w3.org/Graphics/SVG/1.1/DTD/svg11.dtd">
<!-- Generated by graphviz version 2.43.0 (0)
 -->
<!-- Title: filter.h Pages: 1 -->
<svg width="709pt" height="319pt"
 viewBox="0.00 0.00 708.50 319.00" xmlns="http://www.w3.org/2000/svg" xmlns:xlink="http://www.w3.org/1999/xlink">
<g id="graph0" class="graph" transform="scale(1 1) rotate(0) translate(4 315)">
<title>filter.h</title>
<polygon fill="white" stroke="transparent" points="-4,4 -4,-315 704.5,-315 704.5,4 -4,4"/>
<!-- Node1 -->
<g id="node1" class="node">
<title>Node1</title>
<g id="a_node1"><a xlink:title="This header defines Filter and all of it&#39;s subclasses.">
<polygon fill="#bfbfbf" stroke="black" points="461,-291.5 461,-310.5 505,-310.5 505,-291.5 461,-291.5"/>
<text text-anchor="middle" x="483" y="-298.5" font-family="'Souce Sans Pro', Roboto, FreeSans, sans-serif" font-size="10.00">filter.h</text>
</a>
</g>
</g>
<!-- Node2 -->
<g id="node2" class="node">
<title>Node2</title>
<g id="a_node2"><a xlink:href="config_8hxx.html" target="_top" xlink:title=" ">
<polygon fill="white" stroke="black" points="407.5,-67.5 407.5,-86.5 516.5,-86.5 516.5,-67.5 407.5,-67.5"/>
<text text-anchor="middle" x="462" y="-74.5" font-family="'Souce Sans Pro', Roboto, FreeSans, sans-serif" font-size="10.00">log4cplus/config.hxx</text>
</a>
</g>
</g>
<!-- Node1&#45;&gt;Node2 -->
<g id="edge1" class="edge">
<title>Node1&#45;&gt;Node2</title>
<path fill="none" stroke="midnightblue" d="M477.62,-291.44C472.44,-282.68 464.99,-268.47 462,-255 449.49,-198.62 455.35,-129.64 459.35,-96.93"/>
<polygon fill="midnightblue" stroke="midnightblue" points="462.87,-96.99 460.7,-86.62 455.93,-96.08 462.87,-96.99"/>
</g>
<!-- Node5 -->
<g id="node5" class="node">
<title>Node5</title>
<g id="a_node5"><a xlink:title=" ">
<polygon fill="white" stroke="#bfbfbf" points="593,-235.5 593,-254.5 653,-254.5 653,-235.5 593,-235.5"/>
<text text-anchor="middle" x="623" y="-242.5" font-family="'Souce Sans Pro', Roboto, FreeSans, sans-serif" font-size="10.00">functional</text>
</a>
</g>
</g>
<!-- Node1&#45;&gt;Node5 -->
<g id="edge4" class="edge">
<title>Node1&#45;&gt;Node5</title>
<path fill="none" stroke="midnightblue" d="M505.18,-291.44C528.43,-282.48 565.15,-268.31 591.42,-258.18"/>
<polygon fill="midnightblue" stroke="midnightblue" points="592.85,-261.38 600.92,-254.52 590.33,-254.85 592.85,-261.38"/>
</g>
<!-- Node6 -->
<g id="node6" class="node">
<title>Node6</title>
<g id="a_node6"><a xlink:href="pointer_8h.html" target="_top" xlink:title=" ">
<polygon fill="white" stroke="black" points="242,-179.5 242,-198.5 380,-198.5 380,-179.5 242,-179.5"/>
<text text-anchor="middle" x="311" y="-186.5" font-family="'Souce Sans Pro', Roboto, FreeSans, sans-serif" font-size="10.00">log4cplus/helpers/pointer.h</text>
</a>
</g>
</g>
<!-- Node1&#45;&gt;Node6 -->
<g id="edge5" class="edge">
<title>Node1&#45;&gt;Node6</title>
<path fill="none" stroke="midnightblue" d="M469.5,-291.37C439.99,-272.49 369.46,-227.38 333.26,-204.24"/>
<polygon fill="midnightblue" stroke="midnightblue" points="334.74,-201.03 324.43,-198.59 330.97,-206.93 334.74,-201.03"/>
</g>
<!-- Node13 -->
<g id="node13" class="node">
<title>Node13</title>
<g id="a_node13"><a xlink:href="loglevel_8h.html" target="_top" xlink:title="This header defines the LogLevel type.">
<polygon fill="white" stroke="black" points="471,-235.5 471,-254.5 575,-254.5 575,-235.5 471,-235.5"/>
<text text-anchor="middle" x="523" y="-242.5" font-family="'Souce Sans Pro', Roboto, FreeSans, sans-serif" font-size="10.00">log4cplus/loglevel.h</text>
</a>
</g>
</g>
<!-- Node1&#45;&gt;Node13 -->
<g id="edge14" class="edge">
<title>Node1&#45;&gt;Node13</title>
<path fill="none" stroke="midnightblue" d="M489.61,-291.08C495.26,-283.46 503.54,-272.26 510.45,-262.94"/>
<polygon fill="midnightblue" stroke="midnightblue" points="513.38,-264.87 516.52,-254.75 507.75,-260.7 513.38,-264.87"/>
</g>
<!-- Node3 -->
<g id="node3" class="node">
<title>Node3</title>
<g id="a_node3"><a xlink:href="win32_8h.html" target="_top" xlink:title=" ">
<polygon fill="white" stroke="black" points="325,-6 325,-25 453,-25 453,-6 325,-6"/>
<text text-anchor="middle" x="389" y="-13" font-family="'Souce Sans Pro', Roboto, FreeSans, sans-serif" font-size="10.00">log4cplus/config/win32.h</text>
</a>
</g>
</g>
<!-- Node2&#45;&gt;Node3 -->
<g id="edge2" class="edge">
<title>Node2&#45;&gt;Node3</title>
<path fill="none" stroke="midnightblue" d="M451.54,-67.48C440.05,-58.11 421.37,-42.88 407.41,-31.51"/>
<polygon fill="midnightblue" stroke="midnightblue" points="409.4,-28.61 399.44,-25.01 404.98,-34.04 409.4,-28.61"/>
</g>
<!-- Node4 -->
<g id="node4" class="node">
<title>Node4</title>
<g id="a_node4"><a xlink:href="thread-config_8h.html" target="_top" xlink:title=" ">
<polygon fill="white" stroke="black" points="471,-0.5 471,-30.5 599,-30.5 599,-0.5 471,-0.5"/>
<text text-anchor="start" x="479" y="-18.5" font-family="'Souce Sans Pro', Roboto, FreeSans, sans-serif" font-size="10.00">log4cplus/helpers/thread</text>
<text text-anchor="middle" x="535" y="-7.5" font-family="'Souce Sans Pro', Roboto, FreeSans, sans-serif" font-size="10.00">&#45;config.h</text>
</a>
</g>
</g>
<!-- Node2&#45;&gt;Node4 -->
<g id="edge3" class="edge">
<title>Node2&#45;&gt;Node4</title>
<path fill="none" stroke="midnightblue" d="M472.46,-67.48C482.16,-59.57 496.99,-47.48 509.77,-37.07"/>
<polygon fill="midnightblue" stroke="midnightblue" points="512.26,-39.55 517.8,-30.52 507.83,-34.13 512.26,-39.55"/>
</g>
<!-- Node6&#45;&gt;Node2 -->
<g id="edge6" class="edge">
<title>Node6&#45;&gt;Node2</title>
<path fill="none" stroke="midnightblue" d="M326.75,-179.37C342.05,-170.76 365.72,-156.88 385,-143 406.57,-127.48 429.64,-107.5 444.85,-93.81"/>
<polygon fill="midnightblue" stroke="midnightblue" points="447.38,-96.24 452.43,-86.92 442.67,-91.06 447.38,-96.24"/>
</g>
<!-- Node7 -->
<g id="node7" class="node">
<title>Node7</title>
<g id="a_node7"><a xlink:href="syncprims_8h.html" target="_top" xlink:title=" ">
<polygon fill="white" stroke="black" points="17.5,-123.5 17.5,-142.5 166.5,-142.5 166.5,-123.5 17.5,-123.5"/>
<text text-anchor="middle" x="92" y="-130.5" font-family="'Souce Sans Pro', Roboto, FreeSans, sans-serif" font-size="10.00">log4cplus/thread/syncprims.h</text>
</a>
</g>
</g>
<!-- Node6&#45;&gt;Node7 -->
<g id="edge7" class="edge">
<title>Node6&#45;&gt;Node7</title>
<path fill="none" stroke="midnightblue" d="M276.3,-179.44C238.42,-170.1 177.65,-155.12 136.34,-144.93"/>
<polygon fill="midnightblue" stroke="midnightblue" points="137.09,-141.51 126.54,-142.52 135.41,-148.31 137.09,-141.51"/>
</g>
<!-- Node10 -->
<g id="node10" class="node">
<title>Node10</title>
<g id="a_node10"><a xlink:title=" ">
<polygon fill="white" stroke="#bfbfbf" points="317.5,-123.5 317.5,-142.5 376.5,-142.5 376.5,-123.5 317.5,-123.5"/>
<text text-anchor="middle" x="347" y="-130.5" font-family="'Souce Sans Pro', Roboto, FreeSans, sans-serif" font-size="10.00">algorithm</text>
</a>
</g>
</g>
<!-- Node6&#45;&gt;Node10 -->
<g id="edge11" class="edge">
<title>Node6&#45;&gt;Node10</title>
<path fill="none" stroke="midnightblue" d="M316.94,-179.08C321.98,-171.53 329.34,-160.49 335.51,-151.23"/>
<polygon fill="midnightblue" stroke="midnightblue" points="338.53,-153.01 341.17,-142.75 332.71,-149.13 338.53,-153.01"/>
</g>
<!-- Node11 -->
<g id="node11" class="node">
<title>Node11</title>
<g id="a_node11"><a xlink:title=" ">
<polygon fill="white" stroke="#bfbfbf" points="184,-123.5 184,-142.5 234,-142.5 234,-123.5 184,-123.5"/>
<text text-anchor="middle" x="209" y="-130.5" font-family="'Souce Sans Pro', Roboto, FreeSans, sans-serif" font-size="10.00">cassert</text>
</a>
</g>
</g>
<!-- Node6&#45;&gt;Node11 -->
<g id="edge12" class="edge">
<title>Node6&#45;&gt;Node11</title>
<path fill="none" stroke="midnightblue" d="M294.61,-179.32C278.33,-170.7 253.13,-157.36 234.28,-147.39"/>
<polygon fill="midnightblue" stroke="midnightblue" points="235.82,-144.24 225.35,-142.65 232.55,-150.43 235.82,-144.24"/>
</g>
<!-- Node12 -->
<g id="node12" class="node">
<title>Node12</title>
<g id="a_node12"><a xlink:title=" ">
<polygon fill="white" stroke="#bfbfbf" points="252.5,-123.5 252.5,-142.5 299.5,-142.5 299.5,-123.5 252.5,-123.5"/>
<text text-anchor="middle" x="276" y="-130.5" font-family="'Souce Sans Pro', Roboto, FreeSans, sans-serif" font-size="10.00">atomic</text>
</a>
</g>
</g>
<!-- Node6&#45;&gt;Node12 -->
<g id="edge13" class="edge">
<title>Node6&#45;&gt;Node12</title>
<path fill="none" stroke="midnightblue" d="M305.22,-179.08C300.33,-171.53 293.17,-160.49 287.17,-151.23"/>
<polygon fill="midnightblue" stroke="midnightblue" points="290.05,-149.24 281.67,-142.75 284.17,-153.05 290.05,-149.24"/>
</g>
<!-- Node7&#45;&gt;Node2 -->
<g id="edge8" class="edge">
<title>Node7&#45;&gt;Node2</title>
<path fill="none" stroke="midnightblue" d="M150.63,-123.44C217.83,-113.64 327.64,-97.61 397.29,-87.44"/>
<polygon fill="midnightblue" stroke="midnightblue" points="397.88,-90.9 407.27,-85.99 396.86,-83.97 397.88,-90.9"/>
</g>
<!-- Node8 -->
<g id="node8" class="node">
<title>Node8</title>
<g id="a_node8"><a xlink:title=" ">
<polygon fill="white" stroke="#bfbfbf" points="114,-67.5 114,-86.5 158,-86.5 158,-67.5 114,-67.5"/>
<text text-anchor="middle" x="136" y="-74.5" font-family="'Souce Sans Pro', Roboto, FreeSans, sans-serif" font-size="10.00">mutex</text>
</a>
</g>
</g>
<!-- Node7&#45;&gt;Node8 -->
<g id="edge9" class="edge">
<title>Node7&#45;&gt;Node8</title>
<path fill="none" stroke="midnightblue" d="M99.27,-123.08C105.54,-115.38 114.79,-104.03 122.43,-94.65"/>
<polygon fill="midnightblue" stroke="midnightblue" points="125.27,-96.71 128.87,-86.75 119.84,-92.29 125.27,-96.71"/>
</g>
<!-- Node9 -->
<g id="node9" class="node">
<title>Node9</title>
<g id="a_node9"><a xlink:title=" ">
<polygon fill="white" stroke="#bfbfbf" points="0,-67.5 0,-86.5 96,-86.5 96,-67.5 0,-67.5"/>
<text text-anchor="middle" x="48" y="-74.5" font-family="'Souce Sans Pro', Roboto, FreeSans, sans-serif" font-size="10.00">condition_variable</text>
</a>
</g>
</g>
<!-- Node7&#45;&gt;Node9 -->
<g id="edge10" class="edge">
<title>Node7&#45;&gt;Node9</title>
<path fill="none" stroke="midnightblue" d="M84.73,-123.08C78.46,-115.38 69.21,-104.03 61.57,-94.65"/>
<polygon fill="midnightblue" stroke="midnightblue" points="64.16,-92.29 55.13,-86.75 58.73,-96.71 64.16,-92.29"/>
</g>
<!-- Node13&#45;&gt;Node2 -->
<g id="edge15" class="edge">
<title>Node13&#45;&gt;Node2</title>
<path fill="none" stroke="midnightblue" d="M517.97,-235.24C512.97,-226.32 505.32,-211.99 500,-199 485.53,-163.64 473.22,-120.62 466.79,-96.58"/>
<polygon fill="midnightblue" stroke="midnightblue" points="470.11,-95.47 464.19,-86.68 463.34,-97.24 470.11,-95.47"/>
</g>
<!-- Node14 -->
<g id="node14" class="node">
<title>Node14</title>
<g id="a_node14"><a xlink:title=" ">
<polygon fill="white" stroke="#bfbfbf" points="509,-179.5 509,-198.5 553,-198.5 553,-179.5 509,-179.5"/>
<text text-anchor="middle" x="531" y="-186.5" font-family="'Souce Sans Pro', Roboto, FreeSans, sans-serif" font-size="10.00">vector</text>
</a>
</g>
</g>
<!-- Node13&#45;&gt;Node14 -->
<g id="edge16" class="edge">
<title>Node13&#45;&gt;Node14</title>
<path fill="none" stroke="midnightblue" d="M524.32,-235.08C525.38,-227.93 526.91,-217.64 528.23,-208.69"/>
<polygon fill="midnightblue" stroke="midnightblue" points="531.7,-209.16 529.7,-198.75 524.78,-208.13 531.7,-209.16"/>
</g>
<!-- Node15 -->
<g id="node15" class="node">
<title>Node15</title>
<g id="a_node15"><a xlink:href="tstring_8h.html" target="_top" xlink:title=" ">
<polygon fill="white" stroke="black" points="571.5,-179.5 571.5,-198.5 670.5,-198.5 670.5,-179.5 571.5,-179.5"/>
<text text-anchor="middle" x="621" y="-186.5" font-family="'Souce Sans Pro', Roboto, FreeSans, sans-serif" font-size="10.00">log4cplus/tstring.h</text>
</a>
</g>
</g>
<!-- Node13&#45;&gt;Node15 -->
<g id="edge17" class="edge">
<title>Node13&#45;&gt;Node15</title>
<path fill="none" stroke="midnightblue" d="M538.75,-235.32C554.32,-226.74 578.38,-213.49 596.46,-203.52"/>
<polygon fill="midnightblue" stroke="midnightblue" points="598.22,-206.55 605.29,-198.65 594.85,-200.42 598.22,-206.55"/>
</g>
<!-- Node15&#45;&gt;Node2 -->
<g id="edge18" class="edge">
<title>Node15&#45;&gt;Node2</title>
<path fill="none" stroke="midnightblue" d="M614.72,-179.41C604.51,-165.94 583.11,-139.63 560,-123 540.76,-109.15 516.58,-98 497.05,-90.26"/>
<polygon fill="midnightblue" stroke="midnightblue" points="498.19,-86.94 487.6,-86.63 495.68,-93.48 498.19,-86.94"/>
</g>
<!-- Node16 -->
<g id="node16" class="node">
<title>Node16</title>
<g id="a_node16"><a xlink:title=" ">
<polygon fill="white" stroke="#bfbfbf" points="509.5,-123.5 509.5,-142.5 550.5,-142.5 550.5,-123.5 509.5,-123.5"/>
<text text-anchor="middle" x="530" y="-130.5" font-family="'Souce Sans Pro', Roboto, FreeSans, sans-serif" font-size="10.00">string</text>
</a>
</g>
</g>
<!-- Node15&#45;&gt;Node16 -->
<g id="edge19" class="edge">
<title>Node15&#45;&gt;Node16</title>
<path fill="none" stroke="midnightblue" d="M606.38,-179.32C592.05,-170.82 569.99,-157.73 553.25,-147.8"/>
<polygon fill="midnightblue" stroke="midnightblue" points="554.97,-144.75 544.58,-142.65 551.4,-150.77 554.97,-144.75"/>
</g>
<!-- Node17 -->
<g id="node17" class="node">
<title>Node17</title>
<g id="a_node17"><a xlink:href="tchar_8h.html" target="_top" xlink:title=" ">
<polygon fill="white" stroke="black" points="607.5,-123.5 607.5,-142.5 700.5,-142.5 700.5,-123.5 607.5,-123.5"/>
<text text-anchor="middle" x="654" y="-130.5" font-family="'Souce Sans Pro', Roboto, FreeSans, sans-serif" font-size="10.00">log4cplus/tchar.h</text>
</a>
</g>
</g>
<!-- Node15&#45;&gt;Node17 -->
<g id="edge20" class="edge">
<title>Node15&#45;&gt;Node17</title>
<path fill="none" stroke="midnightblue" d="M626.45,-179.08C631.01,-171.61 637.67,-160.72 643.29,-151.52"/>
<polygon fill="midnightblue" stroke="midnightblue" points="646.42,-153.11 648.65,-142.75 640.45,-149.46 646.42,-153.11"/>
</g>
<!-- Node17&#45;&gt;Node2 -->
<g id="edge21" class="edge">
<title>Node17&#45;&gt;Node2</title>
<path fill="none" stroke="midnightblue" d="M623.58,-123.44C590.72,-114.2 538.22,-99.44 502.03,-89.26"/>
<polygon fill="midnightblue" stroke="midnightblue" points="502.85,-85.85 492.28,-86.52 500.96,-92.59 502.85,-85.85"/>
</g>
<!-- Node18 -->
<g id="node18" class="node">
<title>Node18</title>
<g id="a_node18"><a xlink:title=" ">
<polygon fill="white" stroke="#bfbfbf" points="628.5,-67.5 628.5,-86.5 679.5,-86.5 679.5,-67.5 628.5,-67.5"/>
<text text-anchor="middle" x="654" y="-74.5" font-family="'Souce Sans Pro', Roboto, FreeSans, sans-serif" font-size="10.00">cstddef</text>
</a>
</g>
</g>
<!-- Node17&#45;&gt;Node18 -->
<g id="edge22" class="edge">
<title>Node17&#45;&gt;Node18</title>
<path fill="none" stroke="midnightblue" d="M654,-123.08C654,-116.01 654,-105.86 654,-96.99"/>
<polygon fill="midnightblue" stroke="midnightblue" points="657.5,-96.75 654,-86.75 650.5,-96.75 657.5,-96.75"/>
</g>
</g>
</svg>
