<?xml version="1.0" encoding="UTF-8" standalone="no"?>
<!DOCTYPE svg PUBLIC "-//W3C//DTD SVG 1.1//EN"
 "http://www.w3.org/Graphics/SVG/1.1/DTD/svg11.dtd">
<!-- Generated by graphviz version 2.43.0 (0)
 -->
<!-- Title: Graph Legend Pages: 1 -->
<svg width="508pt" height="159pt"
 viewBox="0.00 0.00 507.50 159.00" xmlns="http://www.w3.org/2000/svg" xmlns:xlink="http://www.w3.org/1999/xlink">
<g id="graph0" class="graph" transform="scale(1 1) rotate(0) translate(4 155)">
<title>Graph Legend</title>
<polygon fill="white" stroke="transparent" points="-4,4 -4,-155 503.5,-155 503.5,4 -4,4"/>
<!-- Node9 -->
<g id="node1" class="node">
<title>Node9</title>
<polygon fill="#bfbfbf" stroke="black" points="291.5,-19 235.5,-19 235.5,0 291.5,0 291.5,-19"/>
<text text-anchor="middle" x="263.5" y="-7" font-family="'Souce Sans Pro', Roboto, FreeSans, sans-serif" font-size="10.00">Inherited</text>
</g>
<!-- Node10 -->
<g id="node2" class="node">
<title>Node10</title>
<polygon fill="none" stroke="black" points="65,-85 0,-85 0,-66 65,-66 65,-85"/>
<text text-anchor="middle" x="32.5" y="-73" font-family="'Souce Sans Pro', Roboto, FreeSans, sans-serif" font-size="10.00">PublicBase</text>
</g>
<!-- Node10&#45;&gt;Node9 -->
<g id="edge1" class="edge">
<title>Node10&#45;&gt;Node9</title>
<path fill="none" stroke="midnightblue" d="M73.43,-63.16C120.02,-50.25 194.9,-29.51 235.37,-18.29"/>
<polygon fill="midnightblue" stroke="midnightblue" points="72.36,-59.83 63.65,-65.87 74.23,-66.57 72.36,-59.83"/>
</g>
<!-- Node11 -->
<g id="node3" class="node">
<title>Node11</title>
<polygon fill="none" stroke="red" points="63,-151 2,-151 2,-132 63,-132 63,-151"/>
<text text-anchor="middle" x="32.5" y="-139" font-family="'Souce Sans Pro', Roboto, FreeSans, sans-serif" font-size="10.00">Truncated</text>
</g>
<!-- Node11&#45;&gt;Node10 -->
<g id="edge2" class="edge">
<title>Node11&#45;&gt;Node10</title>
<path fill="none" stroke="midnightblue" d="M32.5,-121.58C32.5,-109.63 32.5,-94.72 32.5,-85.41"/>
<polygon fill="midnightblue" stroke="midnightblue" points="29,-121.87 32.5,-131.87 36,-121.87 29,-121.87"/>
</g>
<!-- Node13 -->
<g id="node4" class="node">
<title>Node13</title>
<polygon fill="none" stroke="black" points="164,-85 83,-85 83,-66 164,-66 164,-85"/>
<text text-anchor="middle" x="123.5" y="-73" font-family="'Souce Sans Pro', Roboto, FreeSans, sans-serif" font-size="10.00">ProtectedBase</text>
</g>
<!-- Node13&#45;&gt;Node9 -->
<g id="edge3" class="edge">
<title>Node13&#45;&gt;Node9</title>
<path fill="none" stroke="darkgreen" d="M151.51,-61.69C179.1,-49.08 220.5,-30.16 244.47,-19.2"/>
<polygon fill="darkgreen" stroke="darkgreen" points="150.02,-58.53 142.38,-65.87 152.93,-64.89 150.02,-58.53"/>
</g>
<!-- Node14 -->
<g id="node5" class="node">
<title>Node14</title>
<polygon fill="none" stroke="black" points="250.5,-85 182.5,-85 182.5,-66 250.5,-66 250.5,-85"/>
<text text-anchor="middle" x="216.5" y="-73" font-family="'Souce Sans Pro', Roboto, FreeSans, sans-serif" font-size="10.00">PrivateBase</text>
</g>
<!-- Node14&#45;&gt;Node9 -->
<g id="edge4" class="edge">
<title>Node14&#45;&gt;Node9</title>
<path fill="none" stroke="#8b1a1a" d="M228.79,-57.77C237.8,-45.49 249.7,-29.3 256.96,-19.41"/>
<polygon fill="#8b1a1a" stroke="#8b1a1a" points="225.94,-55.74 222.84,-65.87 231.58,-59.88 225.94,-55.74"/>
</g>
<!-- Node15 -->
<g id="node6" class="node">
<title>Node15</title>
<polygon fill="none" stroke="#bfbfbf" points="354,-85 269,-85 269,-66 354,-66 354,-85"/>
<text text-anchor="middle" x="311.5" y="-73" font-family="'Souce Sans Pro', Roboto, FreeSans, sans-serif" font-size="10.00">Undocumented</text>
</g>
<!-- Node15&#45;&gt;Node9 -->
<g id="edge5" class="edge">
<title>Node15&#45;&gt;Node9</title>
<path fill="none" stroke="midnightblue" d="M298.95,-57.77C289.74,-45.49 277.6,-29.3 270.18,-19.41"/>
<polygon fill="midnightblue" stroke="midnightblue" points="296.23,-59.97 305.03,-65.87 301.83,-55.77 296.23,-59.97"/>
</g>
<!-- Node16 -->
<g id="node7" class="node">
<title>Node16</title>
<polygon fill="none" stroke="black" points="441,-85 372,-85 372,-66 441,-66 441,-85"/>
<text text-anchor="middle" x="406.5" y="-73" font-family="'Souce Sans Pro', Roboto, FreeSans, sans-serif" font-size="10.00">Templ&lt; int &gt;</text>
</g>
<!-- Node16&#45;&gt;Node9 -->
<g id="edge6" class="edge">
<title>Node16&#45;&gt;Node9</title>
<path fill="none" stroke="midnightblue" d="M377.89,-61.69C349.7,-49.08 307.42,-30.16 282.94,-19.2"/>
<polygon fill="midnightblue" stroke="midnightblue" points="376.66,-64.98 387.21,-65.87 379.52,-58.59 376.66,-64.98"/>
</g>
<!-- Node17 -->
<g id="node8" class="node">
<title>Node17</title>
<polygon fill="none" stroke="black" points="439,-151 374,-151 374,-132 439,-132 439,-151"/>
<text text-anchor="middle" x="406.5" y="-139" font-family="'Souce Sans Pro', Roboto, FreeSans, sans-serif" font-size="10.00">Templ&lt; T &gt;</text>
</g>
<!-- Node17&#45;&gt;Node16 -->
<g id="edge7" class="edge">
<title>Node17&#45;&gt;Node16</title>
<path fill="none" stroke="orange" stroke-dasharray="5,2" d="M406.5,-121.58C406.5,-109.63 406.5,-94.72 406.5,-85.41"/>
<polygon fill="orange" stroke="orange" points="403,-121.87 406.5,-131.87 410,-121.87 403,-121.87"/>
<text text-anchor="middle" x="419.5" y="-106" font-family="'Souce Sans Pro', Roboto, FreeSans, sans-serif" font-size="10.00">&lt; int &gt;</text>
</g>
<!-- Node18 -->
<g id="node9" class="node">
<title>Node18</title>
<polygon fill="none" stroke="black" points="499.5,-85 459.5,-85 459.5,-66 499.5,-66 499.5,-85"/>
<text text-anchor="middle" x="479.5" y="-73" font-family="'Souce Sans Pro', Roboto, FreeSans, sans-serif" font-size="10.00">Used</text>
</g>
<!-- Node18&#45;&gt;Node9 -->
<g id="edge8" class="edge">
<title>Node18&#45;&gt;Node9</title>
<path fill="none" stroke="#9a32cd" stroke-dasharray="5,2" d="M449.56,-65.63C407.78,-53.25 332.53,-30.95 291.7,-18.85"/>
<polygon fill="#9a32cd" stroke="#9a32cd" points="448.6,-68.99 459.18,-68.48 450.59,-62.28 448.6,-68.99"/>
<text text-anchor="middle" x="414" y="-40" font-family="'Souce Sans Pro', Roboto, FreeSans, sans-serif" font-size="10.00">m_usedClass</text>
</g>
</g>
</svg>
