<?xml version="1.0" encoding="UTF-8" standalone="no"?>
<!DOCTYPE svg PUBLIC "-//W3C//DTD SVG 1.1//EN"
 "http://www.w3.org/Graphics/SVG/1.1/DTD/svg11.dtd">
<!-- Generated by graphviz version 2.43.0 (0)
 -->
<!-- Title: hierarchy.h Pages: 1 -->
<svg width="1743pt" height="543pt"
 viewBox="0.00 0.00 1742.56 543.00" xmlns="http://www.w3.org/2000/svg" xmlns:xlink="http://www.w3.org/1999/xlink">
<g id="graph0" class="graph" transform="scale(1 1) rotate(0) translate(4 539)">
<title>hierarchy.h</title>
<polygon fill="white" stroke="transparent" points="-4,4 -4,-539 1738.56,-539 1738.56,4 -4,4"/>
<!-- Node1 -->
<g id="node1" class="node">
<title>Node1</title>
<g id="a_node1"><a xlink:title=" ">
<polygon fill="#bfbfbf" stroke="black" points="1299,-515.5 1299,-534.5 1363,-534.5 1363,-515.5 1299,-515.5"/>
<text text-anchor="middle" x="1331" y="-522.5" font-family="'Souce Sans Pro', Roboto, FreeSans, sans-serif" font-size="10.00">hierarchy.h</text>
</a>
</g>
</g>
<!-- Node2 -->
<g id="node2" class="node">
<title>Node2</title>
<g id="a_node2"><a xlink:href="config_8hxx.html" target="_top" xlink:title=" ">
<polygon fill="white" stroke="black" points="881.5,-67.5 881.5,-86.5 990.5,-86.5 990.5,-67.5 881.5,-67.5"/>
<text text-anchor="middle" x="936" y="-74.5" font-family="'Souce Sans Pro', Roboto, FreeSans, sans-serif" font-size="10.00">log4cplus/config.hxx</text>
</a>
</g>
</g>
<!-- Node1&#45;&gt;Node2 -->
<g id="edge1" class="edge">
<title>Node1&#45;&gt;Node2</title>
<path fill="none" stroke="midnightblue" d="M1298.8,-523.91C1177.65,-523.29 737.78,-518.28 378,-479 208.54,-460.5 0,-584.47 0,-414 0,-414 0,-414 0,-188 0,-129.68 58.05,-139.48 114,-123 255.42,-81.35 702.75,-77.6 871.09,-77.72"/>
<polygon fill="midnightblue" stroke="midnightblue" points="871.29,-81.22 881.29,-77.73 871.29,-74.22 871.29,-81.22"/>
</g>
<!-- Node5 -->
<g id="node5" class="node">
<title>Node5</title>
<g id="a_node5"><a xlink:href="logger_8h.html" target="_top" xlink:title="This header defines the Logger class and the logging macros.">
<polygon fill="white" stroke="black" points="1244,-459.5 1244,-478.5 1342,-478.5 1342,-459.5 1244,-459.5"/>
<text text-anchor="middle" x="1293" y="-466.5" font-family="'Souce Sans Pro', Roboto, FreeSans, sans-serif" font-size="10.00">log4cplus/logger.h</text>
</a>
</g>
</g>
<!-- Node1&#45;&gt;Node5 -->
<g id="edge4" class="edge">
<title>Node1&#45;&gt;Node5</title>
<path fill="none" stroke="midnightblue" d="M1324.73,-515.08C1319.36,-507.46 1311.48,-496.26 1304.92,-486.94"/>
<polygon fill="midnightblue" stroke="midnightblue" points="1307.78,-484.91 1299.16,-478.75 1302.05,-488.94 1307.78,-484.91"/>
</g>
<!-- Node7 -->
<g id="node7" class="node">
<title>Node7</title>
<g id="a_node7"><a xlink:title=" ">
<polygon fill="white" stroke="#bfbfbf" points="1322,-179.5 1322,-198.5 1366,-198.5 1366,-179.5 1322,-179.5"/>
<text text-anchor="middle" x="1344" y="-186.5" font-family="'Souce Sans Pro', Roboto, FreeSans, sans-serif" font-size="10.00">vector</text>
</a>
</g>
</g>
<!-- Node1&#45;&gt;Node7 -->
<g id="edge69" class="edge">
<title>Node1&#45;&gt;Node7</title>
<path fill="none" stroke="midnightblue" d="M1345.54,-515.46C1404.12,-480 1615.84,-341.28 1532,-235 1512.93,-210.82 1424.57,-198.18 1376.08,-192.96"/>
<polygon fill="midnightblue" stroke="midnightblue" points="1376.4,-189.48 1366.09,-191.93 1375.68,-196.44 1376.4,-189.48"/>
</g>
<!-- Node20 -->
<g id="node20" class="node">
<title>Node20</title>
<g id="a_node20"><a xlink:title=" ">
<polygon fill="white" stroke="#bfbfbf" points="1212,-235.5 1212,-254.5 1266,-254.5 1266,-235.5 1212,-235.5"/>
<text text-anchor="middle" x="1239" y="-242.5" font-family="'Souce Sans Pro', Roboto, FreeSans, sans-serif" font-size="10.00">memory</text>
</a>
</g>
</g>
<!-- Node1&#45;&gt;Node20 -->
<g id="edge68" class="edge">
<title>Node1&#45;&gt;Node20</title>
<path fill="none" stroke="midnightblue" d="M1336.42,-515.25C1347.14,-497.1 1370,-453.71 1370,-414 1370,-414 1370,-414 1370,-356 1370,-306.04 1313.42,-274.23 1274.63,-258.3"/>
<polygon fill="midnightblue" stroke="midnightblue" points="1275.78,-255 1265.19,-254.59 1273.22,-261.51 1275.78,-255"/>
</g>
<!-- Node22 -->
<g id="node22" class="node">
<title>Node22</title>
<g id="a_node22"><a xlink:href="syncprims_8h.html" target="_top" xlink:title=" ">
<polygon fill="white" stroke="black" points="315.5,-179.5 315.5,-198.5 464.5,-198.5 464.5,-179.5 315.5,-179.5"/>
<text text-anchor="middle" x="390" y="-186.5" font-family="'Souce Sans Pro', Roboto, FreeSans, sans-serif" font-size="10.00">log4cplus/thread/syncprims.h</text>
</a>
</g>
</g>
<!-- Node1&#45;&gt;Node22 -->
<g id="edge66" class="edge">
<title>Node1&#45;&gt;Node22</title>
<path fill="none" stroke="midnightblue" d="M1298.82,-523.99C1125.61,-523.49 312,-515.76 312,-414 312,-414 312,-414 312,-300 312,-259.97 346.8,-224.34 369.91,-205.09"/>
<polygon fill="midnightblue" stroke="midnightblue" points="372.2,-207.74 377.81,-198.76 367.82,-202.28 372.2,-207.74"/>
</g>
<!-- Node32 -->
<g id="node32" class="node">
<title>Node32</title>
<g id="a_node32"><a xlink:title=" ">
<polygon fill="white" stroke="#bfbfbf" points="1607,-459.5 1607,-478.5 1643,-478.5 1643,-459.5 1607,-459.5"/>
<text text-anchor="middle" x="1625" y="-466.5" font-family="'Souce Sans Pro', Roboto, FreeSans, sans-serif" font-size="10.00">map</text>
</a>
</g>
</g>
<!-- Node1&#45;&gt;Node32 -->
<g id="edge67" class="edge">
<title>Node1&#45;&gt;Node32</title>
<path fill="none" stroke="midnightblue" d="M1363.07,-519.59C1412.67,-512.52 1510.84,-497.56 1593,-479 1594.27,-478.71 1595.56,-478.41 1596.86,-478.09"/>
<polygon fill="midnightblue" stroke="midnightblue" points="1598.03,-481.4 1606.81,-475.47 1596.25,-474.63 1598.03,-481.4"/>
</g>
<!-- Node3 -->
<g id="node3" class="node">
<title>Node3</title>
<g id="a_node3"><a xlink:href="win32_8h.html" target="_top" xlink:title=" ">
<polygon fill="white" stroke="black" points="799,-6 799,-25 927,-25 927,-6 799,-6"/>
<text text-anchor="middle" x="863" y="-13" font-family="'Souce Sans Pro', Roboto, FreeSans, sans-serif" font-size="10.00">log4cplus/config/win32.h</text>
</a>
</g>
</g>
<!-- Node2&#45;&gt;Node3 -->
<g id="edge2" class="edge">
<title>Node2&#45;&gt;Node3</title>
<path fill="none" stroke="midnightblue" d="M925.54,-67.48C914.05,-58.11 895.37,-42.88 881.41,-31.51"/>
<polygon fill="midnightblue" stroke="midnightblue" points="883.4,-28.61 873.44,-25.01 878.98,-34.04 883.4,-28.61"/>
</g>
<!-- Node4 -->
<g id="node4" class="node">
<title>Node4</title>
<g id="a_node4"><a xlink:href="thread-config_8h.html" target="_top" xlink:title=" ">
<polygon fill="white" stroke="black" points="945,-0.5 945,-30.5 1073,-30.5 1073,-0.5 945,-0.5"/>
<text text-anchor="start" x="953" y="-18.5" font-family="'Souce Sans Pro', Roboto, FreeSans, sans-serif" font-size="10.00">log4cplus/helpers/thread</text>
<text text-anchor="middle" x="1009" y="-7.5" font-family="'Souce Sans Pro', Roboto, FreeSans, sans-serif" font-size="10.00">&#45;config.h</text>
</a>
</g>
</g>
<!-- Node2&#45;&gt;Node4 -->
<g id="edge3" class="edge">
<title>Node2&#45;&gt;Node4</title>
<path fill="none" stroke="midnightblue" d="M946.46,-67.48C956.16,-59.57 970.99,-47.48 983.77,-37.07"/>
<polygon fill="midnightblue" stroke="midnightblue" points="986.26,-39.55 991.8,-30.52 981.83,-34.13 986.26,-39.55"/>
</g>
<!-- Node5&#45;&gt;Node2 -->
<g id="edge5" class="edge">
<title>Node5&#45;&gt;Node2</title>
<path fill="none" stroke="midnightblue" d="M1342.26,-467.01C1440.2,-462.17 1650,-436.14 1650,-302 1650,-302 1650,-302 1650,-188 1650,-175.31 1932.34,-220.81 1463,-123 1267.01,-82.16 1213.25,-106.48 1014,-87 1009.61,-86.57 1005.08,-86.11 1000.52,-85.62"/>
<polygon fill="midnightblue" stroke="midnightblue" points="1000.84,-82.14 990.52,-84.54 1000.09,-89.1 1000.84,-82.14"/>
</g>
<!-- Node6 -->
<g id="node6" class="node">
<title>Node6</title>
<g id="a_node6"><a xlink:href="loglevel_8h.html" target="_top" xlink:title="This header defines the LogLevel type.">
<polygon fill="white" stroke="black" points="728,-235.5 728,-254.5 832,-254.5 832,-235.5 728,-235.5"/>
<text text-anchor="middle" x="780" y="-242.5" font-family="'Souce Sans Pro', Roboto, FreeSans, sans-serif" font-size="10.00">log4cplus/loglevel.h</text>
</a>
</g>
</g>
<!-- Node5&#45;&gt;Node6 -->
<g id="edge6" class="edge">
<title>Node5&#45;&gt;Node6</title>
<path fill="none" stroke="midnightblue" d="M1273.2,-459.43C1194.41,-425.34 902.82,-299.15 809.17,-258.62"/>
<polygon fill="midnightblue" stroke="midnightblue" points="810.3,-255.3 799.74,-254.54 807.52,-261.72 810.3,-255.3"/>
</g>
<!-- Node5&#45;&gt;Node7 -->
<g id="edge65" class="edge">
<title>Node5&#45;&gt;Node7</title>
<path fill="none" stroke="midnightblue" d="M1308.76,-459.36C1352.19,-434.51 1473.28,-357.99 1517,-255 1540.97,-198.54 1432.66,-190.16 1376.27,-189.53"/>
<polygon fill="midnightblue" stroke="midnightblue" points="1376.07,-186.03 1366.06,-189.5 1376.05,-193.03 1376.07,-186.03"/>
</g>
<!-- Node8 -->
<g id="node8" class="node">
<title>Node8</title>
<g id="a_node8"><a xlink:href="tstring_8h.html" target="_top" xlink:title=" ">
<polygon fill="white" stroke="black" points="808.5,-179.5 808.5,-198.5 907.5,-198.5 907.5,-179.5 808.5,-179.5"/>
<text text-anchor="middle" x="858" y="-186.5" font-family="'Souce Sans Pro', Roboto, FreeSans, sans-serif" font-size="10.00">log4cplus/tstring.h</text>
</a>
</g>
</g>
<!-- Node5&#45;&gt;Node8 -->
<g id="edge15" class="edge">
<title>Node5&#45;&gt;Node8</title>
<path fill="none" stroke="midnightblue" d="M1243.75,-464.61C1095.24,-453.74 662,-416.97 662,-358 662,-358 662,-358 662,-300 662,-236.78 740.51,-209.52 798.15,-198.03"/>
<polygon fill="midnightblue" stroke="midnightblue" points="799.11,-201.41 808.29,-196.12 797.81,-194.53 799.11,-201.41"/>
</g>
<!-- Node12 -->
<g id="node12" class="node">
<title>Node12</title>
<g id="a_node12"><a xlink:href="appenderattachable_8h.html" target="_top" xlink:title=" ">
<polygon fill="white" stroke="black" points="876,-403.5 876,-422.5 1050,-422.5 1050,-403.5 876,-403.5"/>
<text text-anchor="middle" x="963" y="-410.5" font-family="'Souce Sans Pro', Roboto, FreeSans, sans-serif" font-size="10.00">log4cplus/spi/appenderattachable.h</text>
</a>
</g>
</g>
<!-- Node5&#45;&gt;Node12 -->
<g id="edge16" class="edge">
<title>Node5&#45;&gt;Node12</title>
<path fill="none" stroke="midnightblue" d="M1243.95,-459.97C1185.67,-450.44 1088.34,-434.51 1024.92,-424.13"/>
<polygon fill="midnightblue" stroke="midnightblue" points="1025.48,-420.68 1015.04,-422.52 1024.35,-427.59 1025.48,-420.68"/>
</g>
<!-- Node31 -->
<g id="node31" class="node">
<title>Node31</title>
<g id="a_node31"><a xlink:href="loggerfactory_8h.html" target="_top" xlink:title=" ">
<polygon fill="white" stroke="black" points="1360,-235.5 1360,-254.5 1508,-254.5 1508,-235.5 1360,-235.5"/>
<text text-anchor="middle" x="1434" y="-242.5" font-family="'Souce Sans Pro', Roboto, FreeSans, sans-serif" font-size="10.00">log4cplus/spi/loggerfactory.h</text>
</a>
</g>
</g>
<!-- Node5&#45;&gt;Node31 -->
<g id="edge62" class="edge">
<title>Node5&#45;&gt;Node31</title>
<path fill="none" stroke="midnightblue" d="M1298.53,-459.3C1319.49,-426.29 1394.36,-308.4 1422.87,-263.52"/>
<polygon fill="midnightblue" stroke="midnightblue" points="1425.95,-265.2 1428.36,-254.88 1420.04,-261.45 1425.95,-265.2"/>
</g>
<!-- Node6&#45;&gt;Node2 -->
<g id="edge7" class="edge">
<title>Node6&#45;&gt;Node2</title>
<path fill="none" stroke="midnightblue" d="M781.34,-235.12C783.56,-222.15 788.82,-197.56 799,-179 814.9,-150 821.92,-143.34 848,-123 865.13,-109.64 886.83,-98.5 904.39,-90.64"/>
<polygon fill="midnightblue" stroke="midnightblue" points="905.89,-93.8 913.67,-86.62 903.1,-87.38 905.89,-93.8"/>
</g>
<!-- Node6&#45;&gt;Node7 -->
<g id="edge8" class="edge">
<title>Node6&#45;&gt;Node7</title>
<path fill="none" stroke="midnightblue" d="M832.05,-239.02C946.8,-228.03 1218.72,-201.99 1311.97,-193.07"/>
<polygon fill="midnightblue" stroke="midnightblue" points="1312.31,-196.55 1321.93,-192.11 1311.65,-189.58 1312.31,-196.55"/>
</g>
<!-- Node6&#45;&gt;Node8 -->
<g id="edge9" class="edge">
<title>Node6&#45;&gt;Node8</title>
<path fill="none" stroke="midnightblue" d="M792.53,-235.32C804.59,-226.98 823.03,-214.21 837.27,-204.35"/>
<polygon fill="midnightblue" stroke="midnightblue" points="839.27,-207.22 845.5,-198.65 835.28,-201.47 839.27,-207.22"/>
</g>
<!-- Node8&#45;&gt;Node2 -->
<g id="edge10" class="edge">
<title>Node8&#45;&gt;Node2</title>
<path fill="none" stroke="midnightblue" d="M855.21,-179.3C851.54,-166.12 846.68,-140.76 857,-123 865.74,-107.97 881.58,-97.54 896.79,-90.54"/>
<polygon fill="midnightblue" stroke="midnightblue" points="898.26,-93.72 906.12,-86.61 895.54,-87.27 898.26,-93.72"/>
</g>
<!-- Node9 -->
<g id="node9" class="node">
<title>Node9</title>
<g id="a_node9"><a xlink:title=" ">
<polygon fill="white" stroke="#bfbfbf" points="866.5,-123.5 866.5,-142.5 907.5,-142.5 907.5,-123.5 866.5,-123.5"/>
<text text-anchor="middle" x="887" y="-130.5" font-family="'Souce Sans Pro', Roboto, FreeSans, sans-serif" font-size="10.00">string</text>
</a>
</g>
</g>
<!-- Node8&#45;&gt;Node9 -->
<g id="edge11" class="edge">
<title>Node8&#45;&gt;Node9</title>
<path fill="none" stroke="midnightblue" d="M862.79,-179.08C866.76,-171.69 872.53,-160.95 877.43,-151.81"/>
<polygon fill="midnightblue" stroke="midnightblue" points="880.65,-153.22 882.3,-142.75 874.49,-149.91 880.65,-153.22"/>
</g>
<!-- Node10 -->
<g id="node10" class="node">
<title>Node10</title>
<g id="a_node10"><a xlink:href="tchar_8h.html" target="_top" xlink:title=" ">
<polygon fill="white" stroke="black" points="1002.5,-123.5 1002.5,-142.5 1095.5,-142.5 1095.5,-123.5 1002.5,-123.5"/>
<text text-anchor="middle" x="1049" y="-130.5" font-family="'Souce Sans Pro', Roboto, FreeSans, sans-serif" font-size="10.00">log4cplus/tchar.h</text>
</a>
</g>
</g>
<!-- Node8&#45;&gt;Node10 -->
<g id="edge12" class="edge">
<title>Node8&#45;&gt;Node10</title>
<path fill="none" stroke="midnightblue" d="M888.26,-179.44C920.96,-170.2 973.18,-155.44 1009.18,-145.26"/>
<polygon fill="midnightblue" stroke="midnightblue" points="1010.21,-148.61 1018.88,-142.52 1008.3,-141.87 1010.21,-148.61"/>
</g>
<!-- Node10&#45;&gt;Node2 -->
<g id="edge13" class="edge">
<title>Node10&#45;&gt;Node2</title>
<path fill="none" stroke="midnightblue" d="M1031.09,-123.44C1012.75,-114.68 983.99,-100.94 962.91,-90.86"/>
<polygon fill="midnightblue" stroke="midnightblue" points="964.35,-87.67 953.82,-86.52 961.33,-93.99 964.35,-87.67"/>
</g>
<!-- Node11 -->
<g id="node11" class="node">
<title>Node11</title>
<g id="a_node11"><a xlink:title=" ">
<polygon fill="white" stroke="#bfbfbf" points="1023.5,-67.5 1023.5,-86.5 1074.5,-86.5 1074.5,-67.5 1023.5,-67.5"/>
<text text-anchor="middle" x="1049" y="-74.5" font-family="'Souce Sans Pro', Roboto, FreeSans, sans-serif" font-size="10.00">cstddef</text>
</a>
</g>
</g>
<!-- Node10&#45;&gt;Node11 -->
<g id="edge14" class="edge">
<title>Node10&#45;&gt;Node11</title>
<path fill="none" stroke="midnightblue" d="M1049,-123.08C1049,-116.01 1049,-105.86 1049,-96.99"/>
<polygon fill="midnightblue" stroke="midnightblue" points="1052.5,-96.75 1049,-86.75 1045.5,-96.75 1052.5,-96.75"/>
</g>
<!-- Node12&#45;&gt;Node2 -->
<g id="edge17" class="edge">
<title>Node12&#45;&gt;Node2</title>
<path fill="none" stroke="midnightblue" d="M1050.19,-406.16C1227.19,-393.13 1612,-358.32 1612,-302 1612,-302 1612,-302 1612,-188 1612,-123.71 1045.56,-90.57 1014,-87 1009.61,-86.5 1005.09,-85.99 1000.53,-85.47"/>
<polygon fill="midnightblue" stroke="midnightblue" points="1000.88,-81.99 990.55,-84.33 1000.08,-88.94 1000.88,-81.99"/>
</g>
<!-- Node12&#45;&gt;Node7 -->
<g id="edge61" class="edge">
<title>Node12&#45;&gt;Node7</title>
<path fill="none" stroke="midnightblue" d="M1050.09,-409.08C1127.8,-401.81 1239.56,-379.14 1308,-311 1335.74,-283.39 1342.29,-235.42 1343.72,-208.93"/>
<polygon fill="midnightblue" stroke="midnightblue" points="1347.23,-208.83 1344.07,-198.72 1340.23,-208.59 1347.23,-208.83"/>
</g>
<!-- Node12&#45;&gt;Node8 -->
<g id="edge59" class="edge">
<title>Node12&#45;&gt;Node8</title>
<path fill="none" stroke="midnightblue" d="M958.88,-403.3C943.34,-370.42 887.98,-253.39 866.56,-208.09"/>
<polygon fill="midnightblue" stroke="midnightblue" points="869.64,-206.43 862.2,-198.88 863.31,-209.42 869.64,-206.43"/>
</g>
<!-- Node13 -->
<g id="node13" class="node">
<title>Node13</title>
<g id="a_node13"><a xlink:href="appender_8h.html" target="_top" xlink:title=" ">
<polygon fill="white" stroke="black" points="690,-347.5 690,-366.5 802,-366.5 802,-347.5 690,-347.5"/>
<text text-anchor="middle" x="746" y="-354.5" font-family="'Souce Sans Pro', Roboto, FreeSans, sans-serif" font-size="10.00">log4cplus/appender.h</text>
</a>
</g>
</g>
<!-- Node12&#45;&gt;Node13 -->
<g id="edge18" class="edge">
<title>Node12&#45;&gt;Node13</title>
<path fill="none" stroke="midnightblue" d="M928.62,-403.44C891.08,-394.1 830.87,-379.12 789.93,-368.93"/>
<polygon fill="midnightblue" stroke="midnightblue" points="790.77,-365.53 780.22,-366.52 789.08,-372.33 790.77,-365.53"/>
</g>
<!-- Node21 -->
<g id="node21" class="node">
<title>Node21</title>
<g id="a_node21"><a xlink:href="pointer_8h.html" target="_top" xlink:title=" ">
<polygon fill="white" stroke="black" points="108,-235.5 108,-254.5 246,-254.5 246,-235.5 108,-235.5"/>
<text text-anchor="middle" x="177" y="-242.5" font-family="'Souce Sans Pro', Roboto, FreeSans, sans-serif" font-size="10.00">log4cplus/helpers/pointer.h</text>
</a>
</g>
</g>
<!-- Node12&#45;&gt;Node21 -->
<g id="edge60" class="edge">
<title>Node12&#45;&gt;Node21</title>
<path fill="none" stroke="midnightblue" d="M875.87,-408.84C704.32,-401.21 330.04,-377.29 222,-311 204.32,-300.15 191.83,-279.46 184.57,-264.33"/>
<polygon fill="midnightblue" stroke="midnightblue" points="187.64,-262.63 180.37,-254.93 181.25,-265.49 187.64,-262.63"/>
</g>
<!-- Node13&#45;&gt;Node2 -->
<g id="edge19" class="edge">
<title>Node13&#45;&gt;Node2</title>
<path fill="none" stroke="midnightblue" d="M802.26,-355.38C912.52,-353.42 1152.73,-345.22 1227,-311 1264.68,-293.64 1294,-287.49 1294,-246 1294,-246 1294,-246 1294,-188 1294,-141.49 1254.54,-141.79 1212,-123 1193.05,-114.63 1076.63,-97.41 1001.17,-86.87"/>
<polygon fill="midnightblue" stroke="midnightblue" points="1001.19,-83.34 990.81,-85.43 1000.23,-90.27 1001.19,-83.34"/>
</g>
<!-- Node13&#45;&gt;Node6 -->
<g id="edge35" class="edge">
<title>Node13&#45;&gt;Node6</title>
<path fill="none" stroke="midnightblue" d="M748.67,-347.37C754.18,-329.54 766.93,-288.3 774.35,-264.27"/>
<polygon fill="midnightblue" stroke="midnightblue" points="777.74,-265.18 777.34,-254.59 771.05,-263.11 777.74,-265.18"/>
</g>
<!-- Node13&#45;&gt;Node8 -->
<g id="edge36" class="edge">
<title>Node13&#45;&gt;Node8</title>
<path fill="none" stroke="midnightblue" d="M739.91,-347.45C725.65,-326.26 693.17,-270.51 719,-235 737.15,-210.04 769.44,-198.65 798.33,-193.55"/>
<polygon fill="midnightblue" stroke="midnightblue" points="799.03,-196.99 808.38,-192 797.97,-190.07 799.03,-196.99"/>
</g>
<!-- Node14 -->
<g id="node14" class="node">
<title>Node14</title>
<g id="a_node14"><a xlink:href="layout_8h.html" target="_top" xlink:title=" ">
<polygon fill="white" stroke="black" points="1097,-291.5 1097,-310.5 1195,-310.5 1195,-291.5 1097,-291.5"/>
<text text-anchor="middle" x="1146" y="-298.5" font-family="'Souce Sans Pro', Roboto, FreeSans, sans-serif" font-size="10.00">log4cplus/layout.h</text>
</a>
</g>
</g>
<!-- Node13&#45;&gt;Node14 -->
<g id="edge20" class="edge">
<title>Node13&#45;&gt;Node14</title>
<path fill="none" stroke="midnightblue" d="M802.04,-348.43C877.25,-338.28 1010.24,-320.33 1086.95,-309.97"/>
<polygon fill="midnightblue" stroke="midnightblue" points="1087.49,-313.43 1096.94,-308.62 1086.56,-306.49 1087.49,-313.43"/>
</g>
<!-- Node13&#45;&gt;Node20 -->
<g id="edge55" class="edge">
<title>Node13&#45;&gt;Node20</title>
<path fill="none" stroke="midnightblue" d="M802.23,-356.92C909.73,-357.65 1139.49,-353.95 1204,-311 1219.97,-300.37 1229.23,-279.95 1234.17,-264.82"/>
<polygon fill="midnightblue" stroke="midnightblue" points="1237.6,-265.54 1237.03,-254.96 1230.88,-263.59 1237.6,-265.54"/>
</g>
<!-- Node13&#45;&gt;Node21 -->
<g id="edge37" class="edge">
<title>Node13&#45;&gt;Node21</title>
<path fill="none" stroke="midnightblue" d="M689.87,-354.76C579.19,-351.68 336.87,-341.56 260,-311 232.77,-300.18 207.14,-277.47 191.75,-261.98"/>
<polygon fill="midnightblue" stroke="midnightblue" points="194.14,-259.41 184.69,-254.63 189.1,-264.26 194.14,-259.41"/>
</g>
<!-- Node23 -->
<g id="node23" class="node">
<title>Node23</title>
<g id="a_node23"><a xlink:title=" ">
<polygon fill="white" stroke="#bfbfbf" points="448,-123.5 448,-142.5 492,-142.5 492,-123.5 448,-123.5"/>
<text text-anchor="middle" x="470" y="-130.5" font-family="'Souce Sans Pro', Roboto, FreeSans, sans-serif" font-size="10.00">mutex</text>
</a>
</g>
</g>
<!-- Node13&#45;&gt;Node23 -->
<g id="edge56" class="edge">
<title>Node13&#45;&gt;Node23</title>
<path fill="none" stroke="midnightblue" d="M689.69,-356.94C598.8,-357.21 425.62,-352.11 383,-311 358.52,-287.39 354.49,-262.86 374,-235 400.86,-196.65 446.14,-237.35 473,-199 482.31,-185.71 480.23,-166.88 476.61,-152.9"/>
<polygon fill="midnightblue" stroke="midnightblue" points="479.83,-151.47 473.56,-142.93 473.14,-153.52 479.83,-151.47"/>
</g>
<!-- Node24 -->
<g id="node24" class="node">
<title>Node24</title>
<g id="a_node24"><a xlink:title=" ">
<polygon fill="white" stroke="#bfbfbf" points="176,-123.5 176,-142.5 272,-142.5 272,-123.5 176,-123.5"/>
<text text-anchor="middle" x="224" y="-130.5" font-family="'Souce Sans Pro', Roboto, FreeSans, sans-serif" font-size="10.00">condition_variable</text>
</a>
</g>
</g>
<!-- Node13&#45;&gt;Node24 -->
<g id="edge58" class="edge">
<title>Node13&#45;&gt;Node24</title>
<path fill="none" stroke="midnightblue" d="M689.64,-353.59C573.07,-348.2 309.11,-333.84 222,-311 163.9,-295.76 133.28,-304.32 99,-255 79.69,-227.23 75.41,-206.58 95,-179 111.2,-156.19 139.85,-144.85 166.04,-139.25"/>
<polygon fill="midnightblue" stroke="midnightblue" points="166.76,-142.67 175.93,-137.37 165.45,-135.8 166.76,-142.67"/>
</g>
<!-- Node27 -->
<g id="node27" class="node">
<title>Node27</title>
<g id="a_node27"><a xlink:title=" ">
<polygon fill="white" stroke="#bfbfbf" points="250.5,-179.5 250.5,-198.5 297.5,-198.5 297.5,-179.5 250.5,-179.5"/>
<text text-anchor="middle" x="274" y="-186.5" font-family="'Souce Sans Pro', Roboto, FreeSans, sans-serif" font-size="10.00">atomic</text>
</a>
</g>
</g>
<!-- Node13&#45;&gt;Node27 -->
<g id="edge57" class="edge">
<title>Node13&#45;&gt;Node27</title>
<path fill="none" stroke="midnightblue" d="M689.86,-356.27C591.25,-355.71 392.09,-349.65 336,-311 300.64,-286.64 284.22,-235.79 277.69,-208.41"/>
<polygon fill="midnightblue" stroke="midnightblue" points="281.09,-207.57 275.52,-198.56 274.25,-209.07 281.09,-207.57"/>
</g>
<!-- Node28 -->
<g id="node28" class="node">
<title>Node28</title>
<g id="a_node28"><a xlink:href="filter_8h.html" target="_top" xlink:title="This header defines Filter and all of it&#39;s subclasses.">
<polygon fill="white" stroke="black" points="392.5,-291.5 392.5,-310.5 499.5,-310.5 499.5,-291.5 392.5,-291.5"/>
<text text-anchor="middle" x="446" y="-298.5" font-family="'Souce Sans Pro', Roboto, FreeSans, sans-serif" font-size="10.00">log4cplus/spi/filter.h</text>
</a>
</g>
</g>
<!-- Node13&#45;&gt;Node28 -->
<g id="edge46" class="edge">
<title>Node13&#45;&gt;Node28</title>
<path fill="none" stroke="midnightblue" d="M698.46,-347.44C645.47,-337.9 559.8,-322.48 503.18,-312.29"/>
<polygon fill="midnightblue" stroke="midnightblue" points="503.78,-308.84 493.31,-310.52 502.54,-315.73 503.78,-308.84"/>
</g>
<!-- Node30 -->
<g id="node30" class="node">
<title>Node30</title>
<g id="a_node30"><a xlink:href="lockfile_8h.html" target="_top" xlink:title=" ">
<polygon fill="white" stroke="black" points="494,-235.5 494,-254.5 634,-254.5 634,-235.5 494,-235.5"/>
<text text-anchor="middle" x="564" y="-242.5" font-family="'Souce Sans Pro', Roboto, FreeSans, sans-serif" font-size="10.00">log4cplus/helpers/lockfile.h</text>
</a>
</g>
</g>
<!-- Node13&#45;&gt;Node30 -->
<g id="edge51" class="edge">
<title>Node13&#45;&gt;Node30</title>
<path fill="none" stroke="midnightblue" d="M731.72,-347.37C700.35,-328.41 625.22,-283 587.07,-259.94"/>
<polygon fill="midnightblue" stroke="midnightblue" points="588.58,-256.77 578.21,-254.59 584.96,-262.76 588.58,-256.77"/>
</g>
<!-- Node14&#45;&gt;Node2 -->
<g id="edge21" class="edge">
<title>Node14&#45;&gt;Node2</title>
<path fill="none" stroke="midnightblue" d="M1096.69,-291.42C1043.3,-281.66 964.44,-265.7 955,-255 915.51,-210.26 924.78,-132.31 931.72,-96.7"/>
<polygon fill="midnightblue" stroke="midnightblue" points="935.19,-97.23 933.83,-86.73 928.34,-95.79 935.19,-97.23"/>
</g>
<!-- Node14&#45;&gt;Node6 -->
<g id="edge22" class="edge">
<title>Node14&#45;&gt;Node6</title>
<path fill="none" stroke="midnightblue" d="M1096.64,-292.72C1030.8,-283 914.23,-265.8 842.38,-255.2"/>
<polygon fill="midnightblue" stroke="midnightblue" points="842.52,-251.69 832.12,-253.69 841.5,-258.61 842.52,-251.69"/>
</g>
<!-- Node14&#45;&gt;Node7 -->
<g id="edge33" class="edge">
<title>Node14&#45;&gt;Node7</title>
<path fill="none" stroke="midnightblue" d="M1151.51,-291.06C1160.56,-277.09 1179.9,-250.13 1203,-235 1236.65,-212.96 1281.87,-201.05 1311.93,-195.12"/>
<polygon fill="midnightblue" stroke="midnightblue" points="1312.69,-198.54 1321.88,-193.26 1311.41,-191.65 1312.69,-198.54"/>
</g>
<!-- Node14&#45;&gt;Node8 -->
<g id="edge27" class="edge">
<title>Node14&#45;&gt;Node8</title>
<path fill="none" stroke="midnightblue" d="M1096.97,-291.72C1035.77,-281.15 937.22,-263.23 922,-255 900.54,-243.4 881.74,-222.23 870.16,-207.2"/>
<polygon fill="midnightblue" stroke="midnightblue" points="872.69,-204.73 863.93,-198.78 867.06,-208.9 872.69,-204.73"/>
</g>
<!-- Node15 -->
<g id="node15" class="node">
<title>Node15</title>
<g id="a_node15"><a xlink:href="streams_8h.html" target="_top" xlink:title=" ">
<polygon fill="white" stroke="black" points="1126.5,-179.5 1126.5,-198.5 1233.5,-198.5 1233.5,-179.5 1126.5,-179.5"/>
<text text-anchor="middle" x="1180" y="-186.5" font-family="'Souce Sans Pro', Roboto, FreeSans, sans-serif" font-size="10.00">log4cplus/streams.h</text>
</a>
</g>
</g>
<!-- Node14&#45;&gt;Node15 -->
<g id="edge23" class="edge">
<title>Node14&#45;&gt;Node15</title>
<path fill="none" stroke="midnightblue" d="M1148.67,-291.37C1154.18,-273.54 1166.93,-232.3 1174.35,-208.27"/>
<polygon fill="midnightblue" stroke="midnightblue" points="1177.74,-209.18 1177.34,-198.59 1171.05,-207.11 1177.74,-209.18"/>
</g>
<!-- Node17 -->
<g id="node17" class="node">
<title>Node17</title>
<g id="a_node17"><a xlink:href="timehelper_8h.html" target="_top" xlink:title=" ">
<polygon fill="white" stroke="black" points="964,-235.5 964,-254.5 1118,-254.5 1118,-235.5 964,-235.5"/>
<text text-anchor="middle" x="1041" y="-242.5" font-family="'Souce Sans Pro', Roboto, FreeSans, sans-serif" font-size="10.00">log4cplus/helpers/timehelper.h</text>
</a>
</g>
</g>
<!-- Node14&#45;&gt;Node17 -->
<g id="edge28" class="edge">
<title>Node14&#45;&gt;Node17</title>
<path fill="none" stroke="midnightblue" d="M1129.13,-291.32C1112.29,-282.66 1086.19,-269.24 1066.76,-259.25"/>
<polygon fill="midnightblue" stroke="midnightblue" points="1068.32,-256.12 1057.83,-254.65 1065.12,-262.34 1068.32,-256.12"/>
</g>
<!-- Node14&#45;&gt;Node20 -->
<g id="edge34" class="edge">
<title>Node14&#45;&gt;Node20</title>
<path fill="none" stroke="midnightblue" d="M1160.94,-291.32C1175.59,-282.82 1198.13,-269.73 1215.24,-259.8"/>
<polygon fill="midnightblue" stroke="midnightblue" points="1217.2,-262.7 1224.1,-254.65 1213.69,-256.65 1217.2,-262.7"/>
</g>
<!-- Node15&#45;&gt;Node2 -->
<g id="edge24" class="edge">
<title>Node15&#45;&gt;Node2</title>
<path fill="none" stroke="midnightblue" d="M1172.47,-179.45C1159.75,-165.54 1132.57,-138.04 1104,-123 1071.92,-106.11 1032.97,-95.16 1000.66,-88.3"/>
<polygon fill="midnightblue" stroke="midnightblue" points="1001.35,-84.87 990.86,-86.3 999.95,-91.73 1001.35,-84.87"/>
</g>
<!-- Node15&#45;&gt;Node10 -->
<g id="edge25" class="edge">
<title>Node15&#45;&gt;Node10</title>
<path fill="none" stroke="midnightblue" d="M1159.24,-179.44C1137.68,-170.56 1103.74,-156.56 1079.21,-146.45"/>
<polygon fill="midnightblue" stroke="midnightblue" points="1080.24,-143.09 1069.66,-142.52 1077.57,-149.56 1080.24,-143.09"/>
</g>
<!-- Node16 -->
<g id="node16" class="node">
<title>Node16</title>
<g id="a_node16"><a xlink:title=" ">
<polygon fill="white" stroke="#bfbfbf" points="1156.5,-123.5 1156.5,-142.5 1203.5,-142.5 1203.5,-123.5 1156.5,-123.5"/>
<text text-anchor="middle" x="1180" y="-130.5" font-family="'Souce Sans Pro', Roboto, FreeSans, sans-serif" font-size="10.00">iosfwd</text>
</a>
</g>
</g>
<!-- Node15&#45;&gt;Node16 -->
<g id="edge26" class="edge">
<title>Node15&#45;&gt;Node16</title>
<path fill="none" stroke="midnightblue" d="M1180,-179.08C1180,-172.01 1180,-161.86 1180,-152.99"/>
<polygon fill="midnightblue" stroke="midnightblue" points="1183.5,-152.75 1180,-142.75 1176.5,-152.75 1183.5,-152.75"/>
</g>
<!-- Node17&#45;&gt;Node2 -->
<g id="edge29" class="edge">
<title>Node17&#45;&gt;Node2</title>
<path fill="none" stroke="midnightblue" d="M1029.55,-235.36C1019.01,-226.97 1003.48,-213.41 993,-199 968.84,-165.79 950.86,-120.73 942.05,-96.03"/>
<polygon fill="midnightblue" stroke="midnightblue" points="945.33,-94.81 938.75,-86.51 938.72,-97.1 945.33,-94.81"/>
</g>
<!-- Node17&#45;&gt;Node8 -->
<g id="edge30" class="edge">
<title>Node17&#45;&gt;Node8</title>
<path fill="none" stroke="midnightblue" d="M1012,-235.44C980.82,-226.24 931.07,-211.56 896.59,-201.39"/>
<polygon fill="midnightblue" stroke="midnightblue" points="897.44,-197.99 886.86,-198.52 895.46,-204.7 897.44,-197.99"/>
</g>
<!-- Node18 -->
<g id="node18" class="node">
<title>Node18</title>
<g id="a_node18"><a xlink:title=" ">
<polygon fill="white" stroke="#bfbfbf" points="1002.5,-179.5 1002.5,-198.5 1043.5,-198.5 1043.5,-179.5 1002.5,-179.5"/>
<text text-anchor="middle" x="1023" y="-186.5" font-family="'Souce Sans Pro', Roboto, FreeSans, sans-serif" font-size="10.00">ctime</text>
</a>
</g>
</g>
<!-- Node17&#45;&gt;Node18 -->
<g id="edge31" class="edge">
<title>Node17&#45;&gt;Node18</title>
<path fill="none" stroke="midnightblue" d="M1038.03,-235.08C1035.62,-227.85 1032.14,-217.41 1029.13,-208.4"/>
<polygon fill="midnightblue" stroke="midnightblue" points="1032.4,-207.13 1025.92,-198.75 1025.76,-209.34 1032.4,-207.13"/>
</g>
<!-- Node19 -->
<g id="node19" class="node">
<title>Node19</title>
<g id="a_node19"><a xlink:title=" ">
<polygon fill="white" stroke="#bfbfbf" points="1061.5,-179.5 1061.5,-198.5 1108.5,-198.5 1108.5,-179.5 1061.5,-179.5"/>
<text text-anchor="middle" x="1085" y="-186.5" font-family="'Souce Sans Pro', Roboto, FreeSans, sans-serif" font-size="10.00">chrono</text>
</a>
</g>
</g>
<!-- Node17&#45;&gt;Node19 -->
<g id="edge32" class="edge">
<title>Node17&#45;&gt;Node19</title>
<path fill="none" stroke="midnightblue" d="M1048.27,-235.08C1054.54,-227.38 1063.79,-216.03 1071.43,-206.65"/>
<polygon fill="midnightblue" stroke="midnightblue" points="1074.27,-208.71 1077.87,-198.75 1068.84,-204.29 1074.27,-208.71"/>
</g>
<!-- Node21&#45;&gt;Node2 -->
<g id="edge38" class="edge">
<title>Node21&#45;&gt;Node2</title>
<path fill="none" stroke="midnightblue" d="M145.19,-235.38C127.05,-228.66 105.84,-217.31 95,-199 66.86,-151.45 141.66,-132.53 167,-123 232.01,-98.55 697.89,-84.15 871.24,-79.59"/>
<polygon fill="midnightblue" stroke="midnightblue" points="871.34,-83.09 881.25,-79.33 871.16,-76.09 871.34,-83.09"/>
</g>
<!-- Node21&#45;&gt;Node22 -->
<g id="edge39" class="edge">
<title>Node21&#45;&gt;Node22</title>
<path fill="none" stroke="midnightblue" d="M210.75,-235.44C247.52,-226.12 306.45,-211.18 346.62,-201"/>
<polygon fill="midnightblue" stroke="midnightblue" points="347.57,-204.37 356.41,-198.52 345.85,-197.58 347.57,-204.37"/>
</g>
<!-- Node25 -->
<g id="node25" class="node">
<title>Node25</title>
<g id="a_node25"><a xlink:title=" ">
<polygon fill="white" stroke="#bfbfbf" points="104.5,-179.5 104.5,-198.5 163.5,-198.5 163.5,-179.5 104.5,-179.5"/>
<text text-anchor="middle" x="134" y="-186.5" font-family="'Souce Sans Pro', Roboto, FreeSans, sans-serif" font-size="10.00">algorithm</text>
</a>
</g>
</g>
<!-- Node21&#45;&gt;Node25 -->
<g id="edge43" class="edge">
<title>Node21&#45;&gt;Node25</title>
<path fill="none" stroke="midnightblue" d="M169.9,-235.08C163.76,-227.38 154.73,-216.03 147.26,-206.65"/>
<polygon fill="midnightblue" stroke="midnightblue" points="149.94,-204.39 140.97,-198.75 144.46,-208.75 149.94,-204.39"/>
</g>
<!-- Node26 -->
<g id="node26" class="node">
<title>Node26</title>
<g id="a_node26"><a xlink:title=" ">
<polygon fill="white" stroke="#bfbfbf" points="182,-179.5 182,-198.5 232,-198.5 232,-179.5 182,-179.5"/>
<text text-anchor="middle" x="207" y="-186.5" font-family="'Souce Sans Pro', Roboto, FreeSans, sans-serif" font-size="10.00">cassert</text>
</a>
</g>
</g>
<!-- Node21&#45;&gt;Node26 -->
<g id="edge44" class="edge">
<title>Node21&#45;&gt;Node26</title>
<path fill="none" stroke="midnightblue" d="M181.95,-235.08C186.1,-227.61 192.15,-216.72 197.27,-207.52"/>
<polygon fill="midnightblue" stroke="midnightblue" points="200.34,-209.19 202.14,-198.75 194.22,-205.79 200.34,-209.19"/>
</g>
<!-- Node21&#45;&gt;Node27 -->
<g id="edge45" class="edge">
<title>Node21&#45;&gt;Node27</title>
<path fill="none" stroke="midnightblue" d="M192.58,-235.32C208,-226.74 231.81,-213.49 249.71,-203.52"/>
<polygon fill="midnightblue" stroke="midnightblue" points="251.42,-206.58 258.45,-198.65 248.01,-200.46 251.42,-206.58"/>
</g>
<!-- Node22&#45;&gt;Node2 -->
<g id="edge40" class="edge">
<title>Node22&#45;&gt;Node2</title>
<path fill="none" stroke="midnightblue" d="M393.62,-179.41C400.24,-164.92 415.78,-135.91 439,-123 511.49,-82.69 753.57,-77.5 871,-77.45"/>
<polygon fill="midnightblue" stroke="midnightblue" points="871.28,-80.95 881.29,-77.46 871.29,-73.95 871.28,-80.95"/>
</g>
<!-- Node22&#45;&gt;Node23 -->
<g id="edge41" class="edge">
<title>Node22&#45;&gt;Node23</title>
<path fill="none" stroke="midnightblue" d="M402.85,-179.32C415.22,-170.98 434.13,-158.21 448.74,-148.35"/>
<polygon fill="midnightblue" stroke="midnightblue" points="450.85,-151.15 457.18,-142.65 446.93,-145.35 450.85,-151.15"/>
</g>
<!-- Node22&#45;&gt;Node24 -->
<g id="edge42" class="edge">
<title>Node22&#45;&gt;Node24</title>
<path fill="none" stroke="midnightblue" d="M363.7,-179.44C335.65,-170.32 291.06,-155.81 259.82,-145.65"/>
<polygon fill="midnightblue" stroke="midnightblue" points="260.77,-142.28 250.18,-142.52 258.61,-148.94 260.77,-142.28"/>
</g>
<!-- Node28&#45;&gt;Node2 -->
<g id="edge47" class="edge">
<title>Node28&#45;&gt;Node2</title>
<path fill="none" stroke="midnightblue" d="M434.26,-291.46C418.18,-278.7 392.8,-254.13 407,-235 422.03,-214.75 770.27,-121.58 893.37,-89.16"/>
<polygon fill="midnightblue" stroke="midnightblue" points="894.43,-92.5 903.21,-86.57 892.65,-85.73 894.43,-92.5"/>
</g>
<!-- Node28&#45;&gt;Node6 -->
<g id="edge50" class="edge">
<title>Node28&#45;&gt;Node6</title>
<path fill="none" stroke="midnightblue" d="M498.92,-291.44C558.34,-281.84 654.66,-266.26 717.67,-256.08"/>
<polygon fill="midnightblue" stroke="midnightblue" points="718.56,-259.48 727.87,-254.43 717.44,-252.57 718.56,-259.48"/>
</g>
<!-- Node28&#45;&gt;Node21 -->
<g id="edge49" class="edge">
<title>Node28&#45;&gt;Node21</title>
<path fill="none" stroke="midnightblue" d="M403.38,-291.44C356.25,-281.98 280.31,-266.74 229.54,-256.55"/>
<polygon fill="midnightblue" stroke="midnightblue" points="229.92,-253.05 219.42,-254.52 228.54,-259.92 229.92,-253.05"/>
</g>
<!-- Node29 -->
<g id="node29" class="node">
<title>Node29</title>
<g id="a_node29"><a xlink:title=" ">
<polygon fill="white" stroke="#bfbfbf" points="416,-235.5 416,-254.5 476,-254.5 476,-235.5 416,-235.5"/>
<text text-anchor="middle" x="446" y="-242.5" font-family="'Souce Sans Pro', Roboto, FreeSans, sans-serif" font-size="10.00">functional</text>
</a>
</g>
</g>
<!-- Node28&#45;&gt;Node29 -->
<g id="edge48" class="edge">
<title>Node28&#45;&gt;Node29</title>
<path fill="none" stroke="midnightblue" d="M446,-291.08C446,-284.01 446,-273.86 446,-264.99"/>
<polygon fill="midnightblue" stroke="midnightblue" points="449.5,-264.75 446,-254.75 442.5,-264.75 449.5,-264.75"/>
</g>
<!-- Node30&#45;&gt;Node2 -->
<g id="edge52" class="edge">
<title>Node30&#45;&gt;Node2</title>
<path fill="none" stroke="midnightblue" d="M581.27,-235.38C622.39,-214.95 729.5,-162.39 821,-123 848.57,-111.13 880.38,-98.79 903.54,-90.03"/>
<polygon fill="midnightblue" stroke="midnightblue" points="904.78,-93.31 912.91,-86.52 902.31,-86.76 904.78,-93.31"/>
</g>
<!-- Node30&#45;&gt;Node8 -->
<g id="edge53" class="edge">
<title>Node30&#45;&gt;Node8</title>
<path fill="none" stroke="midnightblue" d="M610.59,-235.44C662.41,-225.92 746.13,-210.55 801.62,-200.36"/>
<polygon fill="midnightblue" stroke="midnightblue" points="802.43,-203.77 811.63,-198.52 801.16,-196.88 802.43,-203.77"/>
</g>
<!-- Node30&#45;&gt;Node22 -->
<g id="edge54" class="edge">
<title>Node30&#45;&gt;Node22</title>
<path fill="none" stroke="midnightblue" d="M536.43,-235.44C506.9,-226.28 459.88,-211.69 427.12,-201.52"/>
<polygon fill="midnightblue" stroke="midnightblue" points="428.03,-198.14 417.44,-198.52 425.96,-204.82 428.03,-198.14"/>
</g>
<!-- Node31&#45;&gt;Node2 -->
<g id="edge63" class="edge">
<title>Node31&#45;&gt;Node2</title>
<path fill="none" stroke="midnightblue" d="M1428.48,-235.48C1412.89,-212.27 1365.9,-148.05 1308,-123 1304.5,-121.49 1106.56,-98.05 1000.89,-85.62"/>
<polygon fill="midnightblue" stroke="midnightblue" points="1000.99,-82.1 990.65,-84.41 1000.17,-89.06 1000.99,-82.1"/>
</g>
<!-- Node31&#45;&gt;Node8 -->
<g id="edge64" class="edge">
<title>Node31&#45;&gt;Node8</title>
<path fill="none" stroke="midnightblue" d="M1359.88,-237.05C1244.46,-226.23 1024.06,-205.57 917.98,-195.62"/>
<polygon fill="midnightblue" stroke="midnightblue" points="918.05,-192.11 907.77,-194.67 917.4,-199.08 918.05,-192.11"/>
</g>
</g>
</svg>
