<?xml version="1.0" encoding="UTF-8" standalone="no"?>
<!DOCTYPE svg PUBLIC "-//W3C//DTD SVG 1.1//EN"
 "http://www.w3.org/Graphics/SVG/1.1/DTD/svg11.dtd">
<!-- Generated by graphviz version 2.43.0 (0)
 -->
<!-- Title: Graphical Class Hierarchy Pages: 1 -->
<svg width="513pt" height="39pt"
 viewBox="0.00 0.00 513.00 39.00" xmlns="http://www.w3.org/2000/svg" xmlns:xlink="http://www.w3.org/1999/xlink">
<g id="graph0" class="graph" transform="scale(1 1) rotate(0) translate(4 35)">
<title>Graphical Class Hierarchy</title>
<polygon fill="white" stroke="transparent" points="-4,4 -4,-35 509,-35 509,4 -4,4"/>
<!-- Node53 -->
<g id="node1" class="node">
<title>Node53</title>
<g id="a_node1"><a xlink:title=" ">
<polygon fill="white" stroke="#bfbfbf" points="0,-6 0,-25 106,-25 106,-6 0,-6"/>
<text text-anchor="middle" x="53" y="-13" font-family="'Souce Sans Pro', Roboto, FreeSans, sans-serif" font-size="10.00">ProductFactoryBase</text>
</a>
</g>
</g>
<!-- Node0 -->
<g id="node2" class="node">
<title>Node0</title>
<g id="a_node2"><a xlink:href="classlog4cplus_1_1spi_1_1LocalFactoryBase.html" target="_top" xlink:title=" ">
<polygon fill="white" stroke="black" points="142,-0.5 142,-30.5 285,-30.5 285,-0.5 142,-0.5"/>
<text text-anchor="start" x="150" y="-18.5" font-family="'Souce Sans Pro', Roboto, FreeSans, sans-serif" font-size="10.00">log4cplus::spi::LocalFactory</text>
<text text-anchor="middle" x="213.5" y="-7.5" font-family="'Souce Sans Pro', Roboto, FreeSans, sans-serif" font-size="10.00">Base&lt; ProductFactoryBase &gt;</text>
</a>
</g>
</g>
<!-- Node53&#45;&gt;Node0 -->
<g id="edge1" class="edge">
<title>Node53&#45;&gt;Node0</title>
<path fill="none" stroke="midnightblue" d="M116.37,-15.5C124.73,-15.5 133.35,-15.5 141.83,-15.5"/>
<polygon fill="midnightblue" stroke="midnightblue" points="116.34,-12 106.34,-15.5 116.34,-19 116.34,-12"/>
</g>
<!-- Node1 -->
<g id="node3" class="node">
<title>Node1</title>
<g id="a_node3"><a xlink:href="classlog4cplus_1_1spi_1_1FactoryTempl.html" target="_top" xlink:title=" ">
<polygon fill="white" stroke="black" points="321,-0.5 321,-30.5 505,-30.5 505,-0.5 321,-0.5"/>
<text text-anchor="start" x="329" y="-18.5" font-family="'Souce Sans Pro', Roboto, FreeSans, sans-serif" font-size="10.00">log4cplus::spi::FactoryTempl</text>
<text text-anchor="middle" x="413" y="-7.5" font-family="'Souce Sans Pro', Roboto, FreeSans, sans-serif" font-size="10.00">&lt; LocalProduct, ProductFactoryBase &gt;</text>
</a>
</g>
</g>
<!-- Node0&#45;&gt;Node1 -->
<g id="edge2" class="edge">
<title>Node0&#45;&gt;Node1</title>
<path fill="none" stroke="midnightblue" d="M295.35,-15.5C303.72,-15.5 312.27,-15.5 320.74,-15.5"/>
<polygon fill="midnightblue" stroke="midnightblue" points="295.24,-12 285.24,-15.5 295.24,-19 295.24,-12"/>
</g>
</g>
</svg>
