<?xml version="1.0" encoding="UTF-8" standalone="no"?>
<!DOCTYPE svg PUBLIC "-//W3C//DTD SVG 1.1//EN"
 "http://www.w3.org/Graphics/SVG/1.1/DTD/svg11.dtd">
<!-- Generated by graphviz version 2.43.0 (0)
 -->
<!-- Title: Graphical Class Hierarchy Pages: 1 -->
<svg width="260pt" height="104pt"
 viewBox="0.00 0.00 260.00 104.00" xmlns="http://www.w3.org/2000/svg" xmlns:xlink="http://www.w3.org/1999/xlink">
<g id="graph0" class="graph" transform="scale(1 1) rotate(0) translate(4 100)">
<title>Graphical Class Hierarchy</title>
<polygon fill="white" stroke="transparent" points="-4,4 -4,-100 256,-100 256,4 -4,4"/>
<!-- Node0 -->
<g id="node1" class="node">
<title>Node0</title>
<g id="a_node1"><a xlink:href="classlog4cplus_1_1Layout.html" target="_top" xlink:title="This class is used to layout strings sent to an {}.">
<polygon fill="white" stroke="black" points="0,-38.5 0,-57.5 92,-57.5 92,-38.5 0,-38.5"/>
<text text-anchor="middle" x="46" y="-45.5" font-family="'Souce Sans Pro', Roboto, FreeSans, sans-serif" font-size="10.00">log4cplus::Layout</text>
</a>
</g>
</g>
<!-- Node1 -->
<g id="node2" class="node">
<title>Node1</title>
<g id="a_node2"><a xlink:href="classlog4cplus_1_1PatternLayout.html" target="_top" xlink:title="A flexible layout configurable with pattern string.">
<polygon fill="white" stroke="black" points="128,-76.5 128,-95.5 252,-95.5 252,-76.5 128,-76.5"/>
<text text-anchor="middle" x="190" y="-83.5" font-family="'Souce Sans Pro', Roboto, FreeSans, sans-serif" font-size="10.00">log4cplus::PatternLayout</text>
</a>
</g>
</g>
<!-- Node0&#45;&gt;Node1 -->
<g id="edge1" class="edge">
<title>Node0&#45;&gt;Node1</title>
<path fill="none" stroke="midnightblue" d="M92.49,-60.17C112.13,-65.43 134.77,-71.49 153.18,-76.41"/>
<polygon fill="midnightblue" stroke="midnightblue" points="93.4,-56.79 82.83,-57.59 91.59,-63.56 93.4,-56.79"/>
</g>
<!-- Node2 -->
<g id="node3" class="node">
<title>Node2</title>
<g id="a_node3"><a xlink:href="classlog4cplus_1_1SimpleLayout.html" target="_top" xlink:title="SimpleLayout consists of the LogLevel of the log statement, followed by &quot; &#45; &quot; and then the log messag...">
<polygon fill="white" stroke="black" points="129,-38.5 129,-57.5 251,-57.5 251,-38.5 129,-38.5"/>
<text text-anchor="middle" x="190" y="-45.5" font-family="'Souce Sans Pro', Roboto, FreeSans, sans-serif" font-size="10.00">log4cplus::SimpleLayout</text>
</a>
</g>
</g>
<!-- Node0&#45;&gt;Node2 -->
<g id="edge2" class="edge">
<title>Node0&#45;&gt;Node2</title>
<path fill="none" stroke="midnightblue" d="M102.33,-48C111.02,-48 120.03,-48 128.82,-48"/>
<polygon fill="midnightblue" stroke="midnightblue" points="102.32,-44.5 92.32,-48 102.32,-51.5 102.32,-44.5"/>
</g>
<!-- Node3 -->
<g id="node4" class="node">
<title>Node3</title>
<g id="a_node4"><a xlink:href="classlog4cplus_1_1TTCCLayout.html" target="_top" xlink:title="TTCC layout format consists of time, thread, Logger and nested diagnostic context information,...">
<polygon fill="white" stroke="black" points="131,-0.5 131,-19.5 249,-19.5 249,-0.5 131,-0.5"/>
<text text-anchor="middle" x="190" y="-7.5" font-family="'Souce Sans Pro', Roboto, FreeSans, sans-serif" font-size="10.00">log4cplus::TTCCLayout</text>
</a>
</g>
</g>
<!-- Node0&#45;&gt;Node3 -->
<g id="edge3" class="edge">
<title>Node0&#45;&gt;Node3</title>
<path fill="none" stroke="midnightblue" d="M92.49,-35.83C112.13,-30.57 134.77,-24.51 153.18,-19.59"/>
<polygon fill="midnightblue" stroke="midnightblue" points="91.59,-32.44 82.83,-38.41 93.4,-39.21 91.59,-32.44"/>
</g>
</g>
</svg>
