<?xml version="1.0" encoding="UTF-8" standalone="no"?>
<!DOCTYPE svg PUBLIC "-//W3C//DTD SVG 1.1//EN"
 "http://www.w3.org/Graphics/SVG/1.1/DTD/svg11.dtd">
<!-- Generated by graphviz version 2.43.0 (0)
 -->
<!-- Title: internal.h Pages: 1 -->
<svg width="1586pt" height="386pt"
 viewBox="0.00 0.00 1586.00 386.00" xmlns="http://www.w3.org/2000/svg" xmlns:xlink="http://www.w3.org/1999/xlink">
<g id="graph0" class="graph" transform="scale(1 1) rotate(0) translate(4 382)">
<title>internal.h</title>
<polygon fill="white" stroke="transparent" points="-4,4 -4,-382 1582,-382 1582,4 -4,4"/>
<!-- Node1 -->
<g id="node1" class="node">
<title>Node1</title>
<g id="a_node1"><a xlink:title="This header contains declaration internal to log4cplus.">
<polygon fill="#bfbfbf" stroke="black" points="466,-358.5 466,-377.5 523,-377.5 523,-358.5 466,-358.5"/>
<text text-anchor="middle" x="494.5" y="-365.5" font-family="'Souce Sans Pro', Roboto, FreeSans, sans-serif" font-size="10.00">internal.h</text>
</a>
</g>
</g>
<!-- Node2 -->
<g id="node2" class="node">
<title>Node2</title>
<g id="a_node2"><a xlink:href="config_8hxx.html" target="_top" xlink:title=" ">
<polygon fill="white" stroke="black" points="572,-67.5 572,-86.5 681,-86.5 681,-67.5 572,-67.5"/>
<text text-anchor="middle" x="626.5" y="-74.5" font-family="'Souce Sans Pro', Roboto, FreeSans, sans-serif" font-size="10.00">log4cplus/config.hxx</text>
</a>
</g>
</g>
<!-- Node1&#45;&gt;Node2 -->
<g id="edge1" class="edge">
<title>Node1&#45;&gt;Node2</title>
<path fill="none" stroke="midnightblue" d="M523.31,-365.91C623.46,-361.92 955.98,-347.08 1059.5,-322 1122.23,-306.8 1155.37,-318.08 1193.5,-266 1216.38,-234.75 1221.2,-210.38 1198.5,-179 1139.89,-97.98 828.77,-81.88 691.58,-78.73"/>
<polygon fill="midnightblue" stroke="midnightblue" points="691.29,-75.23 681.21,-78.51 691.14,-82.22 691.29,-75.23"/>
</g>
<!-- Node5 -->
<g id="node5" class="node">
<title>Node5</title>
<g id="a_node5"><a xlink:title=" ">
<polygon fill="white" stroke="#bfbfbf" points="891.5,-185 891.5,-204 945.5,-204 945.5,-185 891.5,-185"/>
<text text-anchor="middle" x="918.5" y="-192" font-family="'Souce Sans Pro', Roboto, FreeSans, sans-serif" font-size="10.00">memory</text>
</a>
</g>
</g>
<!-- Node1&#45;&gt;Node5 -->
<g id="edge4" class="edge">
<title>Node1&#45;&gt;Node5</title>
<path fill="none" stroke="midnightblue" d="M523.29,-363.84C607.36,-354.03 849.89,-321.37 903.5,-266 916.67,-252.4 919.51,-230.25 919.63,-214.41"/>
<polygon fill="midnightblue" stroke="midnightblue" points="923.13,-214.1 919.35,-204.2 916.13,-214.3 923.13,-214.1"/>
</g>
<!-- Node6 -->
<g id="node6" class="node">
<title>Node6</title>
<g id="a_node6"><a xlink:title=" ">
<polygon fill="white" stroke="#bfbfbf" points="1001.5,-185 1001.5,-204 1045.5,-204 1045.5,-185 1001.5,-185"/>
<text text-anchor="middle" x="1023.5" y="-192" font-family="'Souce Sans Pro', Roboto, FreeSans, sans-serif" font-size="10.00">vector</text>
</a>
</g>
</g>
<!-- Node1&#45;&gt;Node6 -->
<g id="edge5" class="edge">
<title>Node1&#45;&gt;Node6</title>
<path fill="none" stroke="midnightblue" d="M523.33,-366.35C580.73,-364.33 712.77,-356.03 817.5,-322 867.8,-305.65 877.4,-293.63 922.5,-266 951.73,-248.09 983.95,-224.97 1003.96,-210.19"/>
<polygon fill="midnightblue" stroke="midnightblue" points="1006.05,-212.99 1011.99,-204.22 1001.87,-207.37 1006.05,-212.99"/>
</g>
<!-- Node7 -->
<g id="node7" class="node">
<title>Node7</title>
<g id="a_node7"><a xlink:title=" ">
<polygon fill="white" stroke="#bfbfbf" points="301,-302.5 301,-321.5 354,-321.5 354,-302.5 301,-302.5"/>
<text text-anchor="middle" x="327.5" y="-309.5" font-family="'Souce Sans Pro', Roboto, FreeSans, sans-serif" font-size="10.00">sstream</text>
</a>
</g>
</g>
<!-- Node1&#45;&gt;Node7 -->
<g id="edge6" class="edge">
<title>Node1&#45;&gt;Node7</title>
<path fill="none" stroke="midnightblue" d="M468.04,-358.44C439.82,-349.32 394.96,-334.81 363.53,-324.65"/>
<polygon fill="midnightblue" stroke="midnightblue" points="364.43,-321.26 353.84,-321.52 362.28,-327.92 364.43,-321.26"/>
</g>
<!-- Node8 -->
<g id="node8" class="node">
<title>Node8</title>
<g id="a_node8"><a xlink:title=" ">
<polygon fill="white" stroke="#bfbfbf" points="372.5,-302.5 372.5,-321.5 416.5,-321.5 416.5,-302.5 372.5,-302.5"/>
<text text-anchor="middle" x="394.5" y="-309.5" font-family="'Souce Sans Pro', Roboto, FreeSans, sans-serif" font-size="10.00">cstdio</text>
</a>
</g>
</g>
<!-- Node1&#45;&gt;Node8 -->
<g id="edge7" class="edge">
<title>Node1&#45;&gt;Node8</title>
<path fill="none" stroke="midnightblue" d="M478.43,-358.32C462.54,-349.74 437.99,-336.49 419.54,-326.52"/>
<polygon fill="midnightblue" stroke="midnightblue" points="420.99,-323.33 410.53,-321.65 417.66,-329.49 420.99,-323.33"/>
</g>
<!-- Node9 -->
<g id="node9" class="node">
<title>Node9</title>
<g id="a_node9"><a xlink:href="tstring_8h.html" target="_top" xlink:title=" ">
<polygon fill="white" stroke="black" points="318,-185 318,-204 417,-204 417,-185 318,-185"/>
<text text-anchor="middle" x="367.5" y="-192" font-family="'Souce Sans Pro', Roboto, FreeSans, sans-serif" font-size="10.00">log4cplus/tstring.h</text>
</a>
</g>
</g>
<!-- Node1&#45;&gt;Node9 -->
<g id="edge8" class="edge">
<title>Node1&#45;&gt;Node9</title>
<path fill="none" stroke="midnightblue" d="M485.67,-358.39C468.77,-341.62 431.28,-303.01 405.5,-266 393.73,-249.11 382.87,-228.17 375.79,-213.52"/>
<polygon fill="midnightblue" stroke="midnightblue" points="378.79,-211.66 371.36,-204.11 372.46,-214.65 378.79,-211.66"/>
</g>
<!-- Node13 -->
<g id="node13" class="node">
<title>Node13</title>
<g id="a_node13"><a xlink:href="streams_8h.html" target="_top" xlink:title=" ">
<polygon fill="white" stroke="black" points="0,-185 0,-204 107,-204 107,-185 0,-185"/>
<text text-anchor="middle" x="53.5" y="-192" font-family="'Souce Sans Pro', Roboto, FreeSans, sans-serif" font-size="10.00">log4cplus/streams.h</text>
</a>
</g>
</g>
<!-- Node1&#45;&gt;Node13 -->
<g id="edge14" class="edge">
<title>Node1&#45;&gt;Node13</title>
<path fill="none" stroke="midnightblue" d="M465.9,-364.83C418.52,-360.59 321.25,-349.12 243.5,-322 193.93,-304.71 183.11,-295.22 139.5,-266 114.37,-249.16 87.78,-226.53 70.94,-211.5"/>
<polygon fill="midnightblue" stroke="midnightblue" points="72.85,-208.5 63.08,-204.4 68.16,-213.7 72.85,-208.5"/>
</g>
<!-- Node15 -->
<g id="node15" class="node">
<title>Node15</title>
<g id="a_node15"><a xlink:href="ndc_8h.html" target="_top" xlink:title="This header defined the NDC class.">
<polygon fill="white" stroke="black" points="148.5,-246.5 148.5,-265.5 236.5,-265.5 236.5,-246.5 148.5,-246.5"/>
<text text-anchor="middle" x="192.5" y="-253.5" font-family="'Souce Sans Pro', Roboto, FreeSans, sans-serif" font-size="10.00">log4cplus/ndc.h</text>
</a>
</g>
</g>
<!-- Node1&#45;&gt;Node15 -->
<g id="edge18" class="edge">
<title>Node1&#45;&gt;Node15</title>
<path fill="none" stroke="midnightblue" d="M465.76,-364.78C423.7,-360.7 343.63,-349.71 281.5,-322 253.82,-309.66 226.32,-287.7 209.38,-272.76"/>
<polygon fill="midnightblue" stroke="midnightblue" points="211.3,-269.78 201.53,-265.67 206.61,-274.97 211.3,-269.78"/>
</g>
<!-- Node18 -->
<g id="node18" class="node">
<title>Node18</title>
<g id="a_node18"><a xlink:href="mdc_8h.html" target="_top" xlink:title=" ">
<polygon fill="white" stroke="black" points="254.5,-246.5 254.5,-265.5 346.5,-265.5 346.5,-246.5 254.5,-246.5"/>
<text text-anchor="middle" x="300.5" y="-253.5" font-family="'Souce Sans Pro', Roboto, FreeSans, sans-serif" font-size="10.00">log4cplus/mdc.h</text>
</a>
</g>
</g>
<!-- Node1&#45;&gt;Node18 -->
<g id="edge23" class="edge">
<title>Node1&#45;&gt;Node18</title>
<path fill="none" stroke="midnightblue" d="M465.66,-364.94C414.92,-360.64 313.02,-348.82 291.5,-322 280.94,-308.85 285.61,-289.16 291.42,-274.91"/>
<polygon fill="midnightblue" stroke="midnightblue" points="294.67,-276.2 295.65,-265.65 288.31,-273.29 294.67,-276.2"/>
</g>
<!-- Node19 -->
<g id="node19" class="node">
<title>Node19</title>
<g id="a_node19"><a xlink:href="loggingevent_8h.html" target="_top" xlink:title=" ">
<polygon fill="white" stroke="black" points="473,-302.5 473,-321.5 616,-321.5 616,-302.5 473,-302.5"/>
<text text-anchor="middle" x="544.5" y="-309.5" font-family="'Souce Sans Pro', Roboto, FreeSans, sans-serif" font-size="10.00">log4cplus/spi/loggingevent.h</text>
</a>
</g>
</g>
<!-- Node1&#45;&gt;Node19 -->
<g id="edge27" class="edge">
<title>Node1&#45;&gt;Node19</title>
<path fill="none" stroke="midnightblue" d="M502.76,-358.08C509.96,-350.3 520.61,-338.8 529.35,-329.37"/>
<polygon fill="midnightblue" stroke="midnightblue" points="532.17,-331.47 536.4,-321.75 527.03,-326.71 532.17,-331.47"/>
</g>
<!-- Node33 -->
<g id="node33" class="node">
<title>Node33</title>
<g id="a_node33"><a xlink:href="tls_8h.html" target="_top" xlink:title=" ">
<polygon fill="white" stroke="black" points="1364.5,-179.5 1364.5,-209.5 1478.5,-209.5 1478.5,-179.5 1364.5,-179.5"/>
<text text-anchor="start" x="1372.5" y="-197.5" font-family="'Souce Sans Pro', Roboto, FreeSans, sans-serif" font-size="10.00">log4cplus/thread/impl</text>
<text text-anchor="middle" x="1421.5" y="-186.5" font-family="'Souce Sans Pro', Roboto, FreeSans, sans-serif" font-size="10.00">/tls.h</text>
</a>
</g>
</g>
<!-- Node1&#45;&gt;Node33 -->
<g id="edge56" class="edge">
<title>Node1&#45;&gt;Node33</title>
<path fill="none" stroke="midnightblue" d="M523.31,-367.23C642.46,-367.88 1096.77,-367.27 1231.5,-322 1298.68,-299.42 1364.73,-246.65 1398.43,-216.89"/>
<polygon fill="midnightblue" stroke="midnightblue" points="1401.18,-219.14 1406.29,-209.86 1396.5,-213.92 1401.18,-219.14"/>
</g>
<!-- Node36 -->
<g id="node36" class="node">
<title>Node36</title>
<g id="a_node36"><a xlink:href="snprintf_8h.html" target="_top" xlink:title=" ">
<polygon fill="white" stroke="black" points="1042.5,-246.5 1042.5,-265.5 1184.5,-265.5 1184.5,-246.5 1042.5,-246.5"/>
<text text-anchor="middle" x="1113.5" y="-253.5" font-family="'Souce Sans Pro', Roboto, FreeSans, sans-serif" font-size="10.00">log4cplus/helpers/snprintf.h</text>
</a>
</g>
</g>
<!-- Node1&#45;&gt;Node36 -->
<g id="edge61" class="edge">
<title>Node1&#45;&gt;Node36</title>
<path fill="none" stroke="midnightblue" d="M523.01,-366.69C619.78,-365.33 934.87,-358.15 1028.5,-322 1056.24,-311.29 1082.53,-288.55 1098.33,-273.02"/>
<polygon fill="midnightblue" stroke="midnightblue" points="1101.06,-275.24 1105.59,-265.66 1096.08,-270.32 1101.06,-275.24"/>
</g>
<!-- Node3 -->
<g id="node3" class="node">
<title>Node3</title>
<g id="a_node3"><a xlink:href="win32_8h.html" target="_top" xlink:title=" ">
<polygon fill="white" stroke="black" points="489.5,-6 489.5,-25 617.5,-25 617.5,-6 489.5,-6"/>
<text text-anchor="middle" x="553.5" y="-13" font-family="'Souce Sans Pro', Roboto, FreeSans, sans-serif" font-size="10.00">log4cplus/config/win32.h</text>
</a>
</g>
</g>
<!-- Node2&#45;&gt;Node3 -->
<g id="edge2" class="edge">
<title>Node2&#45;&gt;Node3</title>
<path fill="none" stroke="midnightblue" d="M616.04,-67.48C604.55,-58.11 585.87,-42.88 571.91,-31.51"/>
<polygon fill="midnightblue" stroke="midnightblue" points="573.9,-28.61 563.94,-25.01 569.48,-34.04 573.9,-28.61"/>
</g>
<!-- Node4 -->
<g id="node4" class="node">
<title>Node4</title>
<g id="a_node4"><a xlink:href="thread-config_8h.html" target="_top" xlink:title=" ">
<polygon fill="white" stroke="black" points="635.5,-0.5 635.5,-30.5 763.5,-30.5 763.5,-0.5 635.5,-0.5"/>
<text text-anchor="start" x="643.5" y="-18.5" font-family="'Souce Sans Pro', Roboto, FreeSans, sans-serif" font-size="10.00">log4cplus/helpers/thread</text>
<text text-anchor="middle" x="699.5" y="-7.5" font-family="'Souce Sans Pro', Roboto, FreeSans, sans-serif" font-size="10.00">&#45;config.h</text>
</a>
</g>
</g>
<!-- Node2&#45;&gt;Node4 -->
<g id="edge3" class="edge">
<title>Node2&#45;&gt;Node4</title>
<path fill="none" stroke="midnightblue" d="M636.96,-67.48C646.66,-59.57 661.49,-47.48 674.27,-37.07"/>
<polygon fill="midnightblue" stroke="midnightblue" points="676.76,-39.55 682.3,-30.52 672.33,-34.13 676.76,-39.55"/>
</g>
<!-- Node9&#45;&gt;Node2 -->
<g id="edge9" class="edge">
<title>Node9&#45;&gt;Node2</title>
<path fill="none" stroke="midnightblue" d="M387.06,-184.98C409.97,-174.99 449.03,-157.9 482.5,-143 522.8,-125.06 569.29,-104.01 598.3,-90.83"/>
<polygon fill="midnightblue" stroke="midnightblue" points="599.77,-94.01 607.43,-86.68 596.88,-87.63 599.77,-94.01"/>
</g>
<!-- Node10 -->
<g id="node10" class="node">
<title>Node10</title>
<g id="a_node10"><a xlink:title=" ">
<polygon fill="white" stroke="#bfbfbf" points="432,-123.5 432,-142.5 473,-142.5 473,-123.5 432,-123.5"/>
<text text-anchor="middle" x="452.5" y="-130.5" font-family="'Souce Sans Pro', Roboto, FreeSans, sans-serif" font-size="10.00">string</text>
</a>
</g>
</g>
<!-- Node9&#45;&gt;Node10 -->
<g id="edge10" class="edge">
<title>Node9&#45;&gt;Node10</title>
<path fill="none" stroke="midnightblue" d="M379.68,-184.98C393.31,-175.43 415.63,-159.81 431.97,-148.37"/>
<polygon fill="midnightblue" stroke="midnightblue" points="434.16,-151.11 440.34,-142.51 430.14,-145.38 434.16,-151.11"/>
</g>
<!-- Node11 -->
<g id="node11" class="node">
<title>Node11</title>
<g id="a_node11"><a xlink:href="tchar_8h.html" target="_top" xlink:title=" ">
<polygon fill="white" stroke="black" points="321,-123.5 321,-142.5 414,-142.5 414,-123.5 321,-123.5"/>
<text text-anchor="middle" x="367.5" y="-130.5" font-family="'Souce Sans Pro', Roboto, FreeSans, sans-serif" font-size="10.00">log4cplus/tchar.h</text>
</a>
</g>
</g>
<!-- Node9&#45;&gt;Node11 -->
<g id="edge11" class="edge">
<title>Node9&#45;&gt;Node11</title>
<path fill="none" stroke="midnightblue" d="M367.5,-184.98C367.5,-176.58 367.5,-163.48 367.5,-152.66"/>
<polygon fill="midnightblue" stroke="midnightblue" points="371,-152.51 367.5,-142.51 364,-152.51 371,-152.51"/>
</g>
<!-- Node11&#45;&gt;Node2 -->
<g id="edge12" class="edge">
<title>Node11&#45;&gt;Node2</title>
<path fill="none" stroke="midnightblue" d="M408.54,-123.44C453.82,-114 526.73,-98.8 575.61,-88.61"/>
<polygon fill="midnightblue" stroke="midnightblue" points="576.58,-91.98 585.65,-86.52 575.15,-85.13 576.58,-91.98"/>
</g>
<!-- Node12 -->
<g id="node12" class="node">
<title>Node12</title>
<g id="a_node12"><a xlink:title=" ">
<polygon fill="white" stroke="#bfbfbf" points="342,-67.5 342,-86.5 393,-86.5 393,-67.5 342,-67.5"/>
<text text-anchor="middle" x="367.5" y="-74.5" font-family="'Souce Sans Pro', Roboto, FreeSans, sans-serif" font-size="10.00">cstddef</text>
</a>
</g>
</g>
<!-- Node11&#45;&gt;Node12 -->
<g id="edge13" class="edge">
<title>Node11&#45;&gt;Node12</title>
<path fill="none" stroke="midnightblue" d="M367.5,-123.08C367.5,-116.01 367.5,-105.86 367.5,-96.99"/>
<polygon fill="midnightblue" stroke="midnightblue" points="371,-96.75 367.5,-86.75 364,-96.75 371,-96.75"/>
</g>
<!-- Node13&#45;&gt;Node2 -->
<g id="edge15" class="edge">
<title>Node13&#45;&gt;Node2</title>
<path fill="none" stroke="midnightblue" d="M65.32,-184.97C87.34,-169.58 136.64,-137.45 183.5,-123 252.4,-101.76 456.1,-87.58 561.57,-81.45"/>
<polygon fill="midnightblue" stroke="midnightblue" points="561.99,-84.93 571.77,-80.86 561.59,-77.94 561.99,-84.93"/>
</g>
<!-- Node13&#45;&gt;Node11 -->
<g id="edge16" class="edge">
<title>Node13&#45;&gt;Node11</title>
<path fill="none" stroke="midnightblue" d="M89.08,-184.99C98.02,-182.94 107.59,-180.82 116.5,-179 182.84,-165.43 259.52,-152.01 310.49,-143.4"/>
<polygon fill="midnightblue" stroke="midnightblue" points="311.37,-146.81 320.65,-141.7 310.2,-139.9 311.37,-146.81"/>
</g>
<!-- Node14 -->
<g id="node14" class="node">
<title>Node14</title>
<g id="a_node14"><a xlink:title=" ">
<polygon fill="white" stroke="#bfbfbf" points="30,-123.5 30,-142.5 77,-142.5 77,-123.5 30,-123.5"/>
<text text-anchor="middle" x="53.5" y="-130.5" font-family="'Souce Sans Pro', Roboto, FreeSans, sans-serif" font-size="10.00">iosfwd</text>
</a>
</g>
</g>
<!-- Node13&#45;&gt;Node14 -->
<g id="edge17" class="edge">
<title>Node13&#45;&gt;Node14</title>
<path fill="none" stroke="midnightblue" d="M53.5,-184.98C53.5,-176.58 53.5,-163.48 53.5,-152.66"/>
<polygon fill="midnightblue" stroke="midnightblue" points="57,-152.51 53.5,-142.51 50,-152.51 57,-152.51"/>
</g>
<!-- Node15&#45;&gt;Node2 -->
<g id="edge19" class="edge">
<title>Node15&#45;&gt;Node2</title>
<path fill="none" stroke="midnightblue" d="M193.44,-246.21C195.41,-231.15 201.17,-200.02 216.5,-179 241.86,-144.22 255.47,-138.8 295.5,-123 383.24,-88.37 493.11,-79.58 561.56,-77.77"/>
<polygon fill="midnightblue" stroke="midnightblue" points="561.85,-81.27 571.77,-77.55 561.69,-74.27 561.85,-81.27"/>
</g>
<!-- Node15&#45;&gt;Node9 -->
<g id="edge20" class="edge">
<title>Node15&#45;&gt;Node9</title>
<path fill="none" stroke="midnightblue" d="M217.57,-246.48C247.85,-236.18 298.94,-218.81 332.94,-207.25"/>
<polygon fill="midnightblue" stroke="midnightblue" points="334.13,-210.54 342.47,-204.01 331.88,-203.91 334.13,-210.54"/>
</g>
<!-- Node16 -->
<g id="node16" class="node">
<title>Node16</title>
<g id="a_node16"><a xlink:title=" ">
<polygon fill="white" stroke="#bfbfbf" points="225.5,-185 225.5,-204 261.5,-204 261.5,-185 225.5,-185"/>
<text text-anchor="middle" x="243.5" y="-192" font-family="'Souce Sans Pro', Roboto, FreeSans, sans-serif" font-size="10.00">map</text>
</a>
</g>
</g>
<!-- Node15&#45;&gt;Node16 -->
<g id="edge21" class="edge">
<title>Node15&#45;&gt;Node16</title>
<path fill="none" stroke="midnightblue" d="M199.81,-246.48C207.53,-237.46 219.91,-223.02 229.52,-211.81"/>
<polygon fill="midnightblue" stroke="midnightblue" points="232.36,-213.88 236.21,-204.01 227.04,-209.32 232.36,-213.88"/>
</g>
<!-- Node17 -->
<g id="node17" class="node">
<title>Node17</title>
<g id="a_node17"><a xlink:title=" ">
<polygon fill="white" stroke="#bfbfbf" points="125.5,-185 125.5,-204 169.5,-204 169.5,-185 125.5,-185"/>
<text text-anchor="middle" x="147.5" y="-192" font-family="'Souce Sans Pro', Roboto, FreeSans, sans-serif" font-size="10.00">deque</text>
</a>
</g>
</g>
<!-- Node15&#45;&gt;Node17 -->
<g id="edge22" class="edge">
<title>Node15&#45;&gt;Node17</title>
<path fill="none" stroke="midnightblue" d="M186.05,-246.48C179.3,-237.55 168.53,-223.31 160.09,-212.14"/>
<polygon fill="midnightblue" stroke="midnightblue" points="162.76,-209.87 153.94,-204.01 157.18,-214.1 162.76,-209.87"/>
</g>
<!-- Node18&#45;&gt;Node2 -->
<g id="edge24" class="edge">
<title>Node18&#45;&gt;Node2</title>
<path fill="none" stroke="midnightblue" d="M298.05,-246.49C291.93,-223.19 278.69,-157.8 311.5,-123 344.62,-87.88 479.34,-79.74 561.49,-78.11"/>
<polygon fill="midnightblue" stroke="midnightblue" points="561.79,-81.6 571.73,-77.93 561.67,-74.6 561.79,-81.6"/>
</g>
<!-- Node18&#45;&gt;Node9 -->
<g id="edge25" class="edge">
<title>Node18&#45;&gt;Node9</title>
<path fill="none" stroke="midnightblue" d="M310.1,-246.48C320.55,-237.2 337.47,-222.17 350.24,-210.83"/>
<polygon fill="midnightblue" stroke="midnightblue" points="352.77,-213.27 357.92,-204.01 348.12,-208.03 352.77,-213.27"/>
</g>
<!-- Node18&#45;&gt;Node16 -->
<g id="edge26" class="edge">
<title>Node18&#45;&gt;Node16</title>
<path fill="none" stroke="midnightblue" d="M292.33,-246.48C283.61,-237.37 269.6,-222.74 258.81,-211.48"/>
<polygon fill="midnightblue" stroke="midnightblue" points="261.1,-208.81 251.65,-204.01 256.04,-213.65 261.1,-208.81"/>
</g>
<!-- Node19&#45;&gt;Node2 -->
<g id="edge28" class="edge">
<title>Node19&#45;&gt;Node2</title>
<path fill="none" stroke="midnightblue" d="M616.08,-307.87C706.15,-302.94 854.92,-291.19 903.5,-266 933.38,-250.5 942.35,-241.39 954.5,-210 996.31,-102 798.35,-81.49 691.32,-78.18"/>
<polygon fill="midnightblue" stroke="midnightblue" points="691.35,-74.68 681.26,-77.91 691.16,-81.67 691.35,-74.68"/>
</g>
<!-- Node19&#45;&gt;Node5 -->
<g id="edge29" class="edge">
<title>Node19&#45;&gt;Node5</title>
<path fill="none" stroke="midnightblue" d="M616.1,-309.04C702.07,-305.4 839.9,-295.09 881.5,-266 898.99,-253.77 908.84,-230.66 913.91,-214.23"/>
<polygon fill="midnightblue" stroke="midnightblue" points="917.4,-214.71 916.68,-204.14 910.65,-212.85 917.4,-214.71"/>
</g>
<!-- Node19&#45;&gt;Node9 -->
<g id="edge36" class="edge">
<title>Node19&#45;&gt;Node9</title>
<path fill="none" stroke="midnightblue" d="M512.39,-302.5C488.66,-295.23 456.31,-283.21 431.5,-266 410.15,-251.2 390.9,-228 379.21,-212.29"/>
<polygon fill="midnightblue" stroke="midnightblue" points="381.93,-210.09 373.24,-204.03 376.26,-214.19 381.93,-210.09"/>
</g>
<!-- Node19&#45;&gt;Node15 -->
<g id="edge34" class="edge">
<title>Node19&#45;&gt;Node15</title>
<path fill="none" stroke="midnightblue" d="M485.73,-302.49C427.58,-293.99 335.75,-280.37 246.73,-266.17"/>
<polygon fill="midnightblue" stroke="midnightblue" points="247.16,-262.7 236.74,-264.58 246.06,-269.61 247.16,-262.7"/>
</g>
<!-- Node19&#45;&gt;Node18 -->
<g id="edge35" class="edge">
<title>Node19&#45;&gt;Node18</title>
<path fill="none" stroke="midnightblue" d="M505.84,-302.44C463.36,-293.04 395.07,-277.93 349.03,-267.74"/>
<polygon fill="midnightblue" stroke="midnightblue" points="349.5,-264.26 338.98,-265.52 347.99,-271.09 349.5,-264.26"/>
</g>
<!-- Node20 -->
<g id="node20" class="node">
<title>Node20</title>
<g id="a_node20"><a xlink:href="loglevel_8h.html" target="_top" xlink:title="This header defines the LogLevel type.">
<polygon fill="white" stroke="black" points="612.5,-246.5 612.5,-265.5 716.5,-265.5 716.5,-246.5 612.5,-246.5"/>
<text text-anchor="middle" x="664.5" y="-253.5" font-family="'Souce Sans Pro', Roboto, FreeSans, sans-serif" font-size="10.00">log4cplus/loglevel.h</text>
</a>
</g>
</g>
<!-- Node19&#45;&gt;Node20 -->
<g id="edge30" class="edge">
<title>Node19&#45;&gt;Node20</title>
<path fill="none" stroke="midnightblue" d="M563.51,-302.44C583.09,-293.64 613.81,-279.81 636.23,-269.72"/>
<polygon fill="midnightblue" stroke="midnightblue" points="637.89,-272.81 645.57,-265.52 635.02,-266.43 637.89,-272.81"/>
</g>
<!-- Node21 -->
<g id="node21" class="node">
<title>Node21</title>
<g id="a_node21"><a xlink:href="timehelper_8h.html" target="_top" xlink:title=" ">
<polygon fill="white" stroke="black" points="440.5,-246.5 440.5,-265.5 594.5,-265.5 594.5,-246.5 440.5,-246.5"/>
<text text-anchor="middle" x="517.5" y="-253.5" font-family="'Souce Sans Pro', Roboto, FreeSans, sans-serif" font-size="10.00">log4cplus/helpers/timehelper.h</text>
</a>
</g>
</g>
<!-- Node19&#45;&gt;Node21 -->
<g id="edge37" class="edge">
<title>Node19&#45;&gt;Node21</title>
<path fill="none" stroke="midnightblue" d="M540.04,-302.08C536.35,-294.69 530.98,-283.95 526.41,-274.81"/>
<polygon fill="midnightblue" stroke="midnightblue" points="529.48,-273.13 521.88,-265.75 523.22,-276.26 529.48,-273.13"/>
</g>
<!-- Node24 -->
<g id="node24" class="node">
<title>Node24</title>
<g id="a_node24"><a xlink:href="threads_8h.html" target="_top" xlink:title=" ">
<polygon fill="white" stroke="black" points="735,-246.5 735,-265.5 872,-265.5 872,-246.5 735,-246.5"/>
<text text-anchor="middle" x="803.5" y="-253.5" font-family="'Souce Sans Pro', Roboto, FreeSans, sans-serif" font-size="10.00">log4cplus/thread/threads.h</text>
</a>
</g>
</g>
<!-- Node19&#45;&gt;Node24 -->
<g id="edge42" class="edge">
<title>Node19&#45;&gt;Node24</title>
<path fill="none" stroke="midnightblue" d="M585.54,-302.44C630.82,-293 703.73,-277.8 752.61,-267.61"/>
<polygon fill="midnightblue" stroke="midnightblue" points="753.58,-270.98 762.65,-265.52 752.15,-264.13 753.58,-270.98"/>
</g>
<!-- Node20&#45;&gt;Node2 -->
<g id="edge31" class="edge">
<title>Node20&#45;&gt;Node2</title>
<path fill="none" stroke="midnightblue" d="M655.6,-246.3C647.64,-237.86 636.47,-224.27 631.5,-210 618.09,-171.52 620.89,-122.86 623.85,-96.69"/>
<polygon fill="midnightblue" stroke="midnightblue" points="627.34,-97.02 625.13,-86.66 620.4,-96.14 627.34,-97.02"/>
</g>
<!-- Node20&#45;&gt;Node6 -->
<g id="edge32" class="edge">
<title>Node20&#45;&gt;Node6</title>
<path fill="none" stroke="midnightblue" d="M716.73,-247.24C787.46,-236.67 909.95,-218.13 954.5,-210 966.58,-207.8 979.78,-205.09 991.38,-202.62"/>
<polygon fill="midnightblue" stroke="midnightblue" points="992.46,-205.97 1001.5,-200.44 990.98,-199.13 992.46,-205.97"/>
</g>
<!-- Node20&#45;&gt;Node9 -->
<g id="edge33" class="edge">
<title>Node20&#45;&gt;Node9</title>
<path fill="none" stroke="midnightblue" d="M615.11,-246.47C566.87,-237.94 491.43,-224.11 426.5,-210 421.41,-208.89 416.09,-207.68 410.82,-206.43"/>
<polygon fill="midnightblue" stroke="midnightblue" points="411.35,-202.96 400.81,-204.02 409.72,-209.76 411.35,-202.96"/>
</g>
<!-- Node21&#45;&gt;Node2 -->
<g id="edge38" class="edge">
<title>Node21&#45;&gt;Node2</title>
<path fill="none" stroke="midnightblue" d="M524.37,-246.24C531.26,-237.32 542.04,-222.99 550.5,-210 576.5,-170.1 603.53,-121.01 617.28,-95.41"/>
<polygon fill="midnightblue" stroke="midnightblue" points="620.39,-97 622.01,-86.53 614.22,-93.71 620.39,-97"/>
</g>
<!-- Node21&#45;&gt;Node9 -->
<g id="edge39" class="edge">
<title>Node21&#45;&gt;Node9</title>
<path fill="none" stroke="midnightblue" d="M496.01,-246.48C470.39,-236.31 427.39,-219.26 398.26,-207.7"/>
<polygon fill="midnightblue" stroke="midnightblue" points="399.54,-204.44 388.95,-204.01 396.96,-210.95 399.54,-204.44"/>
</g>
<!-- Node22 -->
<g id="node22" class="node">
<title>Node22</title>
<g id="a_node22"><a xlink:title=" ">
<polygon fill="white" stroke="#bfbfbf" points="435,-185 435,-204 476,-204 476,-185 435,-185"/>
<text text-anchor="middle" x="455.5" y="-192" font-family="'Souce Sans Pro', Roboto, FreeSans, sans-serif" font-size="10.00">ctime</text>
</a>
</g>
</g>
<!-- Node21&#45;&gt;Node22 -->
<g id="edge40" class="edge">
<title>Node21&#45;&gt;Node22</title>
<path fill="none" stroke="midnightblue" d="M508.62,-246.48C499.04,-237.28 483.59,-222.46 471.81,-211.16"/>
<polygon fill="midnightblue" stroke="midnightblue" points="474.01,-208.41 464.37,-204.01 469.16,-213.46 474.01,-208.41"/>
</g>
<!-- Node23 -->
<g id="node23" class="node">
<title>Node23</title>
<g id="a_node23"><a xlink:title=" ">
<polygon fill="white" stroke="#bfbfbf" points="494,-185 494,-204 541,-204 541,-185 494,-185"/>
<text text-anchor="middle" x="517.5" y="-192" font-family="'Souce Sans Pro', Roboto, FreeSans, sans-serif" font-size="10.00">chrono</text>
</a>
</g>
</g>
<!-- Node21&#45;&gt;Node23 -->
<g id="edge41" class="edge">
<title>Node21&#45;&gt;Node23</title>
<path fill="none" stroke="midnightblue" d="M517.5,-246.48C517.5,-238.08 517.5,-224.98 517.5,-214.16"/>
<polygon fill="midnightblue" stroke="midnightblue" points="521,-214.01 517.5,-204.01 514,-214.01 521,-214.01"/>
</g>
<!-- Node24&#45;&gt;Node2 -->
<g id="edge43" class="edge">
<title>Node24&#45;&gt;Node2</title>
<path fill="none" stroke="midnightblue" d="M734.8,-246.48C709.73,-240.15 683.02,-229.14 664.5,-210 648.78,-193.75 635.49,-129.14 629.67,-96.73"/>
<polygon fill="midnightblue" stroke="midnightblue" points="633.09,-96 627.92,-86.75 626.19,-97.2 633.09,-96"/>
</g>
<!-- Node24&#45;&gt;Node5 -->
<g id="edge44" class="edge">
<title>Node24&#45;&gt;Node5</title>
<path fill="none" stroke="midnightblue" d="M819.98,-246.48C839.11,-236.58 870.87,-220.14 893.15,-208.62"/>
<polygon fill="midnightblue" stroke="midnightblue" points="894.78,-211.71 902.05,-204.01 891.56,-205.5 894.78,-211.71"/>
</g>
<!-- Node24&#45;&gt;Node9 -->
<g id="edge46" class="edge">
<title>Node24&#45;&gt;Node9</title>
<path fill="none" stroke="midnightblue" d="M734.78,-247.02C630.16,-234.83 441.44,-212.72 426.5,-210 420.92,-208.99 415.09,-207.76 409.34,-206.45"/>
<polygon fill="midnightblue" stroke="midnightblue" points="409.73,-202.95 399.19,-204.04 408.11,-209.76 409.73,-202.95"/>
</g>
<!-- Node25 -->
<g id="node25" class="node">
<title>Node25</title>
<g id="a_node25"><a xlink:title=" ">
<polygon fill="white" stroke="#bfbfbf" points="673.5,-185 673.5,-204 717.5,-204 717.5,-185 673.5,-185"/>
<text text-anchor="middle" x="695.5" y="-192" font-family="'Souce Sans Pro', Roboto, FreeSans, sans-serif" font-size="10.00">thread</text>
</a>
</g>
</g>
<!-- Node24&#45;&gt;Node25 -->
<g id="edge45" class="edge">
<title>Node24&#45;&gt;Node25</title>
<path fill="none" stroke="midnightblue" d="M788.03,-246.48C770.22,-236.67 740.76,-220.43 719.87,-208.92"/>
<polygon fill="midnightblue" stroke="midnightblue" points="721.39,-205.77 710.95,-204.01 718.01,-211.9 721.39,-205.77"/>
</g>
<!-- Node26 -->
<g id="node26" class="node">
<title>Node26</title>
<g id="a_node26"><a xlink:href="pointer_8h.html" target="_top" xlink:title=" ">
<polygon fill="white" stroke="black" points="735.5,-185 735.5,-204 873.5,-204 873.5,-185 735.5,-185"/>
<text text-anchor="middle" x="804.5" y="-192" font-family="'Souce Sans Pro', Roboto, FreeSans, sans-serif" font-size="10.00">log4cplus/helpers/pointer.h</text>
</a>
</g>
</g>
<!-- Node24&#45;&gt;Node26 -->
<g id="edge47" class="edge">
<title>Node24&#45;&gt;Node26</title>
<path fill="none" stroke="midnightblue" d="M803.64,-246.48C803.78,-238.08 804,-224.98 804.19,-214.16"/>
<polygon fill="midnightblue" stroke="midnightblue" points="807.69,-214.07 804.36,-204.01 800.69,-213.95 807.69,-214.07"/>
</g>
<!-- Node26&#45;&gt;Node2 -->
<g id="edge48" class="edge">
<title>Node26&#45;&gt;Node2</title>
<path fill="none" stroke="midnightblue" d="M811.68,-184.73C822.52,-170.36 840.33,-141.56 825.5,-123 808.81,-102.12 742.62,-90.22 691.11,-83.96"/>
<polygon fill="midnightblue" stroke="midnightblue" points="691.36,-80.47 681.02,-82.79 690.55,-87.42 691.36,-80.47"/>
</g>
<!-- Node27 -->
<g id="node27" class="node">
<title>Node27</title>
<g id="a_node27"><a xlink:href="syncprims_8h.html" target="_top" xlink:title=" ">
<polygon fill="white" stroke="black" points="1177,-123.5 1177,-142.5 1326,-142.5 1326,-123.5 1177,-123.5"/>
<text text-anchor="middle" x="1251.5" y="-130.5" font-family="'Souce Sans Pro', Roboto, FreeSans, sans-serif" font-size="10.00">log4cplus/thread/syncprims.h</text>
</a>
</g>
</g>
<!-- Node26&#45;&gt;Node27 -->
<g id="edge49" class="edge">
<title>Node26&#45;&gt;Node27</title>
<path fill="none" stroke="midnightblue" d="M847.74,-184.96C859.03,-182.87 871.2,-180.74 882.5,-179 979.52,-164.08 1091.51,-151.01 1166.43,-142.85"/>
<polygon fill="midnightblue" stroke="midnightblue" points="1167.19,-146.29 1176.75,-141.73 1166.43,-139.33 1167.19,-146.29"/>
</g>
<!-- Node30 -->
<g id="node30" class="node">
<title>Node30</title>
<g id="a_node30"><a xlink:title=" ">
<polygon fill="white" stroke="#bfbfbf" points="757,-123.5 757,-142.5 816,-142.5 816,-123.5 757,-123.5"/>
<text text-anchor="middle" x="786.5" y="-130.5" font-family="'Souce Sans Pro', Roboto, FreeSans, sans-serif" font-size="10.00">algorithm</text>
</a>
</g>
</g>
<!-- Node26&#45;&gt;Node30 -->
<g id="edge53" class="edge">
<title>Node26&#45;&gt;Node30</title>
<path fill="none" stroke="midnightblue" d="M801.92,-184.98C799.35,-176.49 795.33,-163.2 792.04,-152.32"/>
<polygon fill="midnightblue" stroke="midnightblue" points="795.32,-151.07 789.07,-142.51 788.62,-153.09 795.32,-151.07"/>
</g>
<!-- Node31 -->
<g id="node31" class="node">
<title>Node31</title>
<g id="a_node31"><a xlink:title=" ">
<polygon fill="white" stroke="#bfbfbf" points="1343.5,-123.5 1343.5,-142.5 1393.5,-142.5 1393.5,-123.5 1343.5,-123.5"/>
<text text-anchor="middle" x="1368.5" y="-130.5" font-family="'Souce Sans Pro', Roboto, FreeSans, sans-serif" font-size="10.00">cassert</text>
</a>
</g>
</g>
<!-- Node26&#45;&gt;Node31 -->
<g id="edge54" class="edge">
<title>Node26&#45;&gt;Node31</title>
<path fill="none" stroke="midnightblue" d="M846.07,-184.94C857.81,-182.75 870.62,-180.57 882.5,-179 1079.5,-152.93 1134.77,-176.92 1333.5,-143.08"/>
<polygon fill="midnightblue" stroke="midnightblue" points="1334.13,-146.52 1343.39,-141.37 1332.93,-139.63 1334.13,-146.52"/>
</g>
<!-- Node32 -->
<g id="node32" class="node">
<title>Node32</title>
<g id="a_node32"><a xlink:title=" ">
<polygon fill="white" stroke="#bfbfbf" points="692,-123.5 692,-142.5 739,-142.5 739,-123.5 692,-123.5"/>
<text text-anchor="middle" x="715.5" y="-130.5" font-family="'Souce Sans Pro', Roboto, FreeSans, sans-serif" font-size="10.00">atomic</text>
</a>
</g>
</g>
<!-- Node26&#45;&gt;Node32 -->
<g id="edge55" class="edge">
<title>Node26&#45;&gt;Node32</title>
<path fill="none" stroke="midnightblue" d="M791.75,-184.98C777.47,-175.43 754.1,-159.81 736.99,-148.37"/>
<polygon fill="midnightblue" stroke="midnightblue" points="738.49,-145.16 728.23,-142.51 734.6,-150.98 738.49,-145.16"/>
</g>
<!-- Node27&#45;&gt;Node2 -->
<g id="edge50" class="edge">
<title>Node27&#45;&gt;Node2</title>
<path fill="none" stroke="midnightblue" d="M1176.62,-124.25C1172.18,-123.82 1167.78,-123.4 1163.5,-123 993.06,-107.14 791.94,-90.97 691.06,-83.03"/>
<polygon fill="midnightblue" stroke="midnightblue" points="691.27,-79.53 681.03,-82.24 690.73,-86.51 691.27,-79.53"/>
</g>
<!-- Node28 -->
<g id="node28" class="node">
<title>Node28</title>
<g id="a_node28"><a xlink:title=" ">
<polygon fill="white" stroke="#bfbfbf" points="1185.5,-67.5 1185.5,-86.5 1229.5,-86.5 1229.5,-67.5 1185.5,-67.5"/>
<text text-anchor="middle" x="1207.5" y="-74.5" font-family="'Souce Sans Pro', Roboto, FreeSans, sans-serif" font-size="10.00">mutex</text>
</a>
</g>
</g>
<!-- Node27&#45;&gt;Node28 -->
<g id="edge51" class="edge">
<title>Node27&#45;&gt;Node28</title>
<path fill="none" stroke="midnightblue" d="M1244.23,-123.08C1237.96,-115.38 1228.71,-104.03 1221.07,-94.65"/>
<polygon fill="midnightblue" stroke="midnightblue" points="1223.66,-92.29 1214.63,-86.75 1218.23,-96.71 1223.66,-92.29"/>
</g>
<!-- Node29 -->
<g id="node29" class="node">
<title>Node29</title>
<g id="a_node29"><a xlink:title=" ">
<polygon fill="white" stroke="#bfbfbf" points="1247.5,-67.5 1247.5,-86.5 1343.5,-86.5 1343.5,-67.5 1247.5,-67.5"/>
<text text-anchor="middle" x="1295.5" y="-74.5" font-family="'Souce Sans Pro', Roboto, FreeSans, sans-serif" font-size="10.00">condition_variable</text>
</a>
</g>
</g>
<!-- Node27&#45;&gt;Node29 -->
<g id="edge52" class="edge">
<title>Node27&#45;&gt;Node29</title>
<path fill="none" stroke="midnightblue" d="M1258.77,-123.08C1265.04,-115.38 1274.29,-104.03 1281.93,-94.65"/>
<polygon fill="midnightblue" stroke="midnightblue" points="1284.77,-96.71 1288.37,-86.75 1279.34,-92.29 1284.77,-96.71"/>
</g>
<!-- Node33&#45;&gt;Node2 -->
<g id="edge57" class="edge">
<title>Node33&#45;&gt;Node2</title>
<path fill="none" stroke="midnightblue" d="M1422.17,-179.29C1422.08,-162.91 1419.12,-136.52 1402.5,-123 1347.96,-78.65 868.19,-76.68 691.48,-77.49"/>
<polygon fill="midnightblue" stroke="midnightblue" points="691.27,-73.99 681.28,-77.54 691.3,-80.99 691.27,-73.99"/>
</g>
<!-- Node33&#45;&gt;Node31 -->
<g id="edge59" class="edge">
<title>Node33&#45;&gt;Node31</title>
<path fill="none" stroke="midnightblue" d="M1408.94,-179.4C1401.16,-170.66 1391.14,-159.41 1383.02,-150.3"/>
<polygon fill="midnightblue" stroke="midnightblue" points="1385.48,-147.8 1376.21,-142.66 1380.25,-152.45 1385.48,-147.8"/>
</g>
<!-- Node34 -->
<g id="node34" class="node">
<title>Node34</title>
<g id="a_node34"><a xlink:title=" ">
<polygon fill="white" stroke="#bfbfbf" points="1450,-123.5 1450,-142.5 1485,-142.5 1485,-123.5 1450,-123.5"/>
<text text-anchor="middle" x="1467.5" y="-130.5" font-family="'Souce Sans Pro', Roboto, FreeSans, sans-serif" font-size="10.00">new</text>
</a>
</g>
</g>
<!-- Node33&#45;&gt;Node34 -->
<g id="edge58" class="edge">
<title>Node33&#45;&gt;Node34</title>
<path fill="none" stroke="midnightblue" d="M1432.4,-179.4C1439.09,-170.75 1447.68,-159.64 1454.68,-150.58"/>
<polygon fill="midnightblue" stroke="midnightblue" points="1457.46,-152.71 1460.81,-142.66 1451.92,-148.43 1457.46,-152.71"/>
</g>
<!-- Node35 -->
<g id="node35" class="node">
<title>Node35</title>
<g id="a_node35"><a xlink:title=" ">
<polygon fill="white" stroke="#bfbfbf" points="1503,-123.5 1503,-142.5 1578,-142.5 1578,-123.5 1503,-123.5"/>
<text text-anchor="middle" x="1540.5" y="-130.5" font-family="'Souce Sans Pro', Roboto, FreeSans, sans-serif" font-size="10.00">system_error</text>
</a>
</g>
</g>
<!-- Node33&#45;&gt;Node35 -->
<g id="edge60" class="edge">
<title>Node33&#45;&gt;Node35</title>
<path fill="none" stroke="midnightblue" d="M1449.7,-179.4C1469.22,-169.64 1495.03,-156.74 1514.13,-147.18"/>
<polygon fill="midnightblue" stroke="midnightblue" points="1515.81,-150.26 1523.18,-142.66 1512.67,-144 1515.81,-150.26"/>
</g>
<!-- Node36&#45;&gt;Node2 -->
<g id="edge62" class="edge">
<title>Node36&#45;&gt;Node2</title>
<path fill="none" stroke="midnightblue" d="M1112.09,-246.04C1109.29,-230.72 1101.72,-199.21 1084.5,-179 1052.21,-141.12 1034.69,-138.84 987.5,-123 887.71,-89.51 764.85,-80.55 691.25,-78.38"/>
<polygon fill="midnightblue" stroke="midnightblue" points="691.29,-74.88 681.2,-78.12 691.1,-81.88 691.29,-74.88"/>
</g>
<!-- Node36&#45;&gt;Node6 -->
<g id="edge65" class="edge">
<title>Node36&#45;&gt;Node6</title>
<path fill="none" stroke="midnightblue" d="M1100.61,-246.48C1086.04,-236.84 1062.1,-221.02 1044.75,-209.55"/>
<polygon fill="midnightblue" stroke="midnightblue" points="1046.64,-206.6 1036.37,-204.01 1042.78,-212.44 1046.64,-206.6"/>
</g>
<!-- Node36&#45;&gt;Node11 -->
<g id="edge63" class="edge">
<title>Node36&#45;&gt;Node11</title>
<path fill="none" stroke="midnightblue" d="M1109.84,-246.44C1102.28,-229.95 1083.19,-194.07 1054.5,-179 994.58,-147.51 528.81,-150.32 424.38,-142.77"/>
<polygon fill="midnightblue" stroke="midnightblue" points="424.47,-139.26 414.2,-141.87 423.86,-146.24 424.47,-139.26"/>
</g>
<!-- Node37 -->
<g id="node37" class="node">
<title>Node37</title>
<g id="a_node37"><a xlink:title=" ">
<polygon fill="white" stroke="#bfbfbf" points="1139.5,-185 1139.5,-204 1189.5,-204 1189.5,-185 1139.5,-185"/>
<text text-anchor="middle" x="1164.5" y="-192" font-family="'Souce Sans Pro', Roboto, FreeSans, sans-serif" font-size="10.00">cstdarg</text>
</a>
</g>
</g>
<!-- Node36&#45;&gt;Node37 -->
<g id="edge64" class="edge">
<title>Node36&#45;&gt;Node37</title>
<path fill="none" stroke="midnightblue" d="M1120.81,-246.48C1128.53,-237.46 1140.91,-223.02 1150.52,-211.81"/>
<polygon fill="midnightblue" stroke="midnightblue" points="1153.36,-213.88 1157.21,-204.01 1148.04,-209.32 1153.36,-213.88"/>
</g>
</g>
</svg>
