<?xml version="1.0" encoding="UTF-8" standalone="no"?>
<!DOCTYPE svg PUBLIC "-//W3C//DTD SVG 1.1//EN"
 "http://www.w3.org/Graphics/SVG/1.1/DTD/svg11.dtd">
<!-- Generated by graphviz version 2.43.0 (0)
 -->
<!-- Title: layout.h Pages: 1 -->
<svg width="535pt" height="319pt"
 viewBox="0.00 0.00 534.89 319.00" xmlns="http://www.w3.org/2000/svg" xmlns:xlink="http://www.w3.org/1999/xlink">
<g id="graph0" class="graph" transform="scale(1 1) rotate(0) translate(4 315)">
<title>layout.h</title>
<polygon fill="white" stroke="transparent" points="-4,4 -4,-315 530.89,-315 530.89,4 -4,4"/>
<!-- Node1 -->
<g id="node1" class="node">
<title>Node1</title>
<g id="a_node1"><a xlink:title=" ">
<polygon fill="#bfbfbf" stroke="black" points="161.89,-291.5 161.89,-310.5 212.89,-310.5 212.89,-291.5 161.89,-291.5"/>
<text text-anchor="middle" x="187.39" y="-298.5" font-family="'Souce Sans Pro', Roboto, FreeSans, sans-serif" font-size="10.00">layout.h</text>
</a>
</g>
</g>
<!-- Node2 -->
<g id="node2" class="node">
<title>Node2</title>
<g id="a_node2"><a xlink:href="config_8hxx.html" target="_top" xlink:title=" ">
<polygon fill="white" stroke="black" points="168.89,-67.5 168.89,-86.5 277.89,-86.5 277.89,-67.5 168.89,-67.5"/>
<text text-anchor="middle" x="223.39" y="-74.5" font-family="'Souce Sans Pro', Roboto, FreeSans, sans-serif" font-size="10.00">log4cplus/config.hxx</text>
</a>
</g>
</g>
<!-- Node1&#45;&gt;Node2 -->
<g id="edge1" class="edge">
<title>Node1&#45;&gt;Node2</title>
<path fill="none" stroke="midnightblue" d="M161.87,-298.81C128.78,-295.99 70.99,-286.53 34.39,-255 7.34,-231.7 -10.75,-209.14 8.39,-179 41.45,-126.94 109.24,-101.24 159.91,-88.87"/>
<polygon fill="midnightblue" stroke="midnightblue" points="160.86,-92.24 169.8,-86.56 159.27,-85.42 160.86,-92.24"/>
</g>
<!-- Node5 -->
<g id="node5" class="node">
<title>Node5</title>
<g id="a_node5"><a xlink:href="loglevel_8h.html" target="_top" xlink:title="This header defines the LogLevel type.">
<polygon fill="white" stroke="black" points="55.39,-235.5 55.39,-254.5 159.39,-254.5 159.39,-235.5 55.39,-235.5"/>
<text text-anchor="middle" x="107.39" y="-242.5" font-family="'Souce Sans Pro', Roboto, FreeSans, sans-serif" font-size="10.00">log4cplus/loglevel.h</text>
</a>
</g>
</g>
<!-- Node1&#45;&gt;Node5 -->
<g id="edge4" class="edge">
<title>Node1&#45;&gt;Node5</title>
<path fill="none" stroke="midnightblue" d="M174.53,-291.32C162.17,-282.98 143.26,-270.21 128.65,-260.35"/>
<polygon fill="midnightblue" stroke="midnightblue" points="130.46,-257.35 120.21,-254.65 126.54,-263.15 130.46,-257.35"/>
</g>
<!-- Node6 -->
<g id="node6" class="node">
<title>Node6</title>
<g id="a_node6"><a xlink:title=" ">
<polygon fill="white" stroke="#bfbfbf" points="17.39,-179.5 17.39,-198.5 61.39,-198.5 61.39,-179.5 17.39,-179.5"/>
<text text-anchor="middle" x="39.39" y="-186.5" font-family="'Souce Sans Pro', Roboto, FreeSans, sans-serif" font-size="10.00">vector</text>
</a>
</g>
</g>
<!-- Node1&#45;&gt;Node6 -->
<g id="edge23" class="edge">
<title>Node1&#45;&gt;Node6</title>
<path fill="none" stroke="midnightblue" d="M161.68,-299.75C129.32,-297.93 74.58,-289.54 46.39,-255 35.97,-242.23 35.12,-223.04 36.33,-208.82"/>
<polygon fill="midnightblue" stroke="midnightblue" points="39.83,-209.05 37.6,-198.69 32.88,-208.18 39.83,-209.05"/>
</g>
<!-- Node7 -->
<g id="node7" class="node">
<title>Node7</title>
<g id="a_node7"><a xlink:href="tstring_8h.html" target="_top" xlink:title=" ">
<polygon fill="white" stroke="black" points="117.89,-179.5 117.89,-198.5 216.89,-198.5 216.89,-179.5 117.89,-179.5"/>
<text text-anchor="middle" x="167.39" y="-186.5" font-family="'Souce Sans Pro', Roboto, FreeSans, sans-serif" font-size="10.00">log4cplus/tstring.h</text>
</a>
</g>
</g>
<!-- Node1&#45;&gt;Node7 -->
<g id="edge17" class="edge">
<title>Node1&#45;&gt;Node7</title>
<path fill="none" stroke="midnightblue" d="M185.82,-291.37C182.59,-273.62 175.15,-232.67 170.77,-208.6"/>
<polygon fill="midnightblue" stroke="midnightblue" points="174.18,-207.8 168.95,-198.59 167.3,-209.06 174.18,-207.8"/>
</g>
<!-- Node11 -->
<g id="node11" class="node">
<title>Node11</title>
<g id="a_node11"><a xlink:href="streams_8h.html" target="_top" xlink:title=" ">
<polygon fill="white" stroke="black" points="397.89,-179.5 397.89,-198.5 504.89,-198.5 504.89,-179.5 397.89,-179.5"/>
<text text-anchor="middle" x="451.39" y="-186.5" font-family="'Souce Sans Pro', Roboto, FreeSans, sans-serif" font-size="10.00">log4cplus/streams.h</text>
</a>
</g>
</g>
<!-- Node1&#45;&gt;Node11 -->
<g id="edge13" class="edge">
<title>Node1&#45;&gt;Node11</title>
<path fill="none" stroke="midnightblue" d="M213.19,-297.97C251.25,-294.1 323.83,-283.37 378.39,-255 401.8,-242.83 423.7,-221.46 437.29,-206.56"/>
<polygon fill="midnightblue" stroke="midnightblue" points="440.28,-208.47 444.28,-198.66 435.04,-203.83 440.28,-208.47"/>
</g>
<!-- Node13 -->
<g id="node13" class="node">
<title>Node13</title>
<g id="a_node13"><a xlink:href="timehelper_8h.html" target="_top" xlink:title=" ">
<polygon fill="white" stroke="black" points="215.39,-235.5 215.39,-254.5 369.39,-254.5 369.39,-235.5 215.39,-235.5"/>
<text text-anchor="middle" x="292.39" y="-242.5" font-family="'Souce Sans Pro', Roboto, FreeSans, sans-serif" font-size="10.00">log4cplus/helpers/timehelper.h</text>
</a>
</g>
</g>
<!-- Node1&#45;&gt;Node13 -->
<g id="edge18" class="edge">
<title>Node1&#45;&gt;Node13</title>
<path fill="none" stroke="midnightblue" d="M204.26,-291.32C221.1,-282.66 247.19,-269.24 266.63,-259.25"/>
<polygon fill="midnightblue" stroke="midnightblue" points="268.27,-262.34 275.56,-254.65 265.07,-256.12 268.27,-262.34"/>
</g>
<!-- Node16 -->
<g id="node16" class="node">
<title>Node16</title>
<g id="a_node16"><a xlink:title=" ">
<polygon fill="white" stroke="#bfbfbf" points="425.39,-235.5 425.39,-254.5 479.39,-254.5 479.39,-235.5 425.39,-235.5"/>
<text text-anchor="middle" x="452.39" y="-242.5" font-family="'Souce Sans Pro', Roboto, FreeSans, sans-serif" font-size="10.00">memory</text>
</a>
</g>
</g>
<!-- Node1&#45;&gt;Node16 -->
<g id="edge24" class="edge">
<title>Node1&#45;&gt;Node16</title>
<path fill="none" stroke="midnightblue" d="M212.95,-295.02C254.57,-286.87 339.58,-270.09 411.39,-255 412.63,-254.74 413.9,-254.47 415.17,-254.2"/>
<polygon fill="midnightblue" stroke="midnightblue" points="416.02,-257.6 425.06,-252.07 414.54,-250.75 416.02,-257.6"/>
</g>
<!-- Node3 -->
<g id="node3" class="node">
<title>Node3</title>
<g id="a_node3"><a xlink:href="win32_8h.html" target="_top" xlink:title=" ">
<polygon fill="white" stroke="black" points="86.39,-6 86.39,-25 214.39,-25 214.39,-6 86.39,-6"/>
<text text-anchor="middle" x="150.39" y="-13" font-family="'Souce Sans Pro', Roboto, FreeSans, sans-serif" font-size="10.00">log4cplus/config/win32.h</text>
</a>
</g>
</g>
<!-- Node2&#45;&gt;Node3 -->
<g id="edge2" class="edge">
<title>Node2&#45;&gt;Node3</title>
<path fill="none" stroke="midnightblue" d="M212.93,-67.48C201.44,-58.11 182.76,-42.88 168.8,-31.51"/>
<polygon fill="midnightblue" stroke="midnightblue" points="170.79,-28.61 160.83,-25.01 166.37,-34.04 170.79,-28.61"/>
</g>
<!-- Node4 -->
<g id="node4" class="node">
<title>Node4</title>
<g id="a_node4"><a xlink:href="thread-config_8h.html" target="_top" xlink:title=" ">
<polygon fill="white" stroke="black" points="232.39,-0.5 232.39,-30.5 360.39,-30.5 360.39,-0.5 232.39,-0.5"/>
<text text-anchor="start" x="240.39" y="-18.5" font-family="'Souce Sans Pro', Roboto, FreeSans, sans-serif" font-size="10.00">log4cplus/helpers/thread</text>
<text text-anchor="middle" x="296.39" y="-7.5" font-family="'Souce Sans Pro', Roboto, FreeSans, sans-serif" font-size="10.00">&#45;config.h</text>
</a>
</g>
</g>
<!-- Node2&#45;&gt;Node4 -->
<g id="edge3" class="edge">
<title>Node2&#45;&gt;Node4</title>
<path fill="none" stroke="midnightblue" d="M233.85,-67.48C243.55,-59.57 258.37,-47.48 271.15,-37.07"/>
<polygon fill="midnightblue" stroke="midnightblue" points="273.64,-39.55 279.18,-30.52 269.22,-34.13 273.64,-39.55"/>
</g>
<!-- Node5&#45;&gt;Node2 -->
<g id="edge5" class="edge">
<title>Node5&#45;&gt;Node2</title>
<path fill="none" stroke="midnightblue" d="M105.35,-235.09C102.84,-222.09 99.87,-197.44 108.39,-179 126.91,-138.91 169.86,-108.3 197.71,-91.76"/>
<polygon fill="midnightblue" stroke="midnightblue" points="199.59,-94.72 206.51,-86.7 196.1,-88.65 199.59,-94.72"/>
</g>
<!-- Node5&#45;&gt;Node6 -->
<g id="edge6" class="edge">
<title>Node5&#45;&gt;Node6</title>
<path fill="none" stroke="midnightblue" d="M96.46,-235.32C86.21,-227.18 70.67,-214.84 58.39,-205.09"/>
<polygon fill="midnightblue" stroke="midnightblue" points="60.52,-202.31 50.51,-198.83 56.17,-207.79 60.52,-202.31"/>
</g>
<!-- Node5&#45;&gt;Node7 -->
<g id="edge7" class="edge">
<title>Node5&#45;&gt;Node7</title>
<path fill="none" stroke="midnightblue" d="M117.03,-235.32C125.9,-227.34 139.26,-215.31 150,-205.65"/>
<polygon fill="midnightblue" stroke="midnightblue" points="152.48,-208.13 157.57,-198.83 147.8,-202.92 152.48,-208.13"/>
</g>
<!-- Node7&#45;&gt;Node2 -->
<g id="edge8" class="edge">
<title>Node7&#45;&gt;Node2</title>
<path fill="none" stroke="midnightblue" d="M168.8,-179.16C171.12,-166.24 176.5,-141.71 186.39,-123 191.99,-112.4 200.33,-101.98 207.68,-93.83"/>
<polygon fill="midnightblue" stroke="midnightblue" points="210.25,-96.2 214.56,-86.52 205.15,-91.41 210.25,-96.2"/>
</g>
<!-- Node8 -->
<g id="node8" class="node">
<title>Node8</title>
<g id="a_node8"><a xlink:title=" ">
<polygon fill="white" stroke="#bfbfbf" points="195.89,-123.5 195.89,-142.5 236.89,-142.5 236.89,-123.5 195.89,-123.5"/>
<text text-anchor="middle" x="216.39" y="-130.5" font-family="'Souce Sans Pro', Roboto, FreeSans, sans-serif" font-size="10.00">string</text>
</a>
</g>
</g>
<!-- Node7&#45;&gt;Node8 -->
<g id="edge9" class="edge">
<title>Node7&#45;&gt;Node8</title>
<path fill="none" stroke="midnightblue" d="M175.48,-179.08C182.54,-171.3 192.98,-159.8 201.54,-150.37"/>
<polygon fill="midnightblue" stroke="midnightblue" points="204.32,-152.51 208.45,-142.75 199.14,-147.8 204.32,-152.51"/>
</g>
<!-- Node9 -->
<g id="node9" class="node">
<title>Node9</title>
<g id="a_node9"><a xlink:href="tchar_8h.html" target="_top" xlink:title=" ">
<polygon fill="white" stroke="black" points="329.89,-123.5 329.89,-142.5 422.89,-142.5 422.89,-123.5 329.89,-123.5"/>
<text text-anchor="middle" x="376.39" y="-130.5" font-family="'Souce Sans Pro', Roboto, FreeSans, sans-serif" font-size="10.00">log4cplus/tchar.h</text>
</a>
</g>
</g>
<!-- Node7&#45;&gt;Node9 -->
<g id="edge10" class="edge">
<title>Node7&#45;&gt;Node9</title>
<path fill="none" stroke="midnightblue" d="M200.5,-179.44C236.51,-170.14 294.16,-155.25 333.57,-145.06"/>
<polygon fill="midnightblue" stroke="midnightblue" points="334.62,-148.41 343.43,-142.52 332.87,-141.63 334.62,-148.41"/>
</g>
<!-- Node9&#45;&gt;Node2 -->
<g id="edge11" class="edge">
<title>Node9&#45;&gt;Node2</title>
<path fill="none" stroke="midnightblue" d="M352.14,-123.44C326.52,-114.4 285.9,-100.06 257.15,-89.92"/>
<polygon fill="midnightblue" stroke="midnightblue" points="258.11,-86.54 247.52,-86.52 255.78,-93.15 258.11,-86.54"/>
</g>
<!-- Node10 -->
<g id="node10" class="node">
<title>Node10</title>
<g id="a_node10"><a xlink:title=" ">
<polygon fill="white" stroke="#bfbfbf" points="350.89,-67.5 350.89,-86.5 401.89,-86.5 401.89,-67.5 350.89,-67.5"/>
<text text-anchor="middle" x="376.39" y="-74.5" font-family="'Souce Sans Pro', Roboto, FreeSans, sans-serif" font-size="10.00">cstddef</text>
</a>
</g>
</g>
<!-- Node9&#45;&gt;Node10 -->
<g id="edge12" class="edge">
<title>Node9&#45;&gt;Node10</title>
<path fill="none" stroke="midnightblue" d="M376.39,-123.08C376.39,-116.01 376.39,-105.86 376.39,-96.99"/>
<polygon fill="midnightblue" stroke="midnightblue" points="379.89,-96.75 376.39,-86.75 372.89,-96.75 379.89,-96.75"/>
</g>
<!-- Node11&#45;&gt;Node2 -->
<g id="edge14" class="edge">
<title>Node11&#45;&gt;Node2</title>
<path fill="none" stroke="midnightblue" d="M451.35,-179.41C450.79,-165.43 447.57,-137.85 431.39,-123 410.68,-103.99 341.08,-91.68 288.04,-84.82"/>
<polygon fill="midnightblue" stroke="midnightblue" points="288.37,-81.33 278.01,-83.56 287.49,-88.28 288.37,-81.33"/>
</g>
<!-- Node11&#45;&gt;Node9 -->
<g id="edge15" class="edge">
<title>Node11&#45;&gt;Node9</title>
<path fill="none" stroke="midnightblue" d="M439.34,-179.32C427.92,-171.11 410.56,-158.6 396.95,-148.81"/>
<polygon fill="midnightblue" stroke="midnightblue" points="398.82,-145.84 388.66,-142.83 394.73,-151.52 398.82,-145.84"/>
</g>
<!-- Node12 -->
<g id="node12" class="node">
<title>Node12</title>
<g id="a_node12"><a xlink:title=" ">
<polygon fill="white" stroke="#bfbfbf" points="479.89,-123.5 479.89,-142.5 526.89,-142.5 526.89,-123.5 479.89,-123.5"/>
<text text-anchor="middle" x="503.39" y="-130.5" font-family="'Souce Sans Pro', Roboto, FreeSans, sans-serif" font-size="10.00">iosfwd</text>
</a>
</g>
</g>
<!-- Node11&#45;&gt;Node12 -->
<g id="edge16" class="edge">
<title>Node11&#45;&gt;Node12</title>
<path fill="none" stroke="midnightblue" d="M459.97,-179.08C467.55,-171.22 478.77,-159.57 487.9,-150.08"/>
<polygon fill="midnightblue" stroke="midnightblue" points="490.55,-152.38 494.96,-142.75 485.5,-147.53 490.55,-152.38"/>
</g>
<!-- Node13&#45;&gt;Node2 -->
<g id="edge19" class="edge">
<title>Node13&#45;&gt;Node2</title>
<path fill="none" stroke="midnightblue" d="M293.59,-235.34C295.04,-222.63 296.55,-198.36 290.39,-179 279.76,-145.62 254.61,-112.93 238.33,-94.16"/>
<polygon fill="midnightblue" stroke="midnightblue" points="240.83,-91.7 231.56,-86.56 235.6,-96.36 240.83,-91.7"/>
</g>
<!-- Node13&#45;&gt;Node7 -->
<g id="edge20" class="edge">
<title>Node13&#45;&gt;Node7</title>
<path fill="none" stroke="midnightblue" d="M272.58,-235.44C252.1,-226.6 219.91,-212.69 196.52,-202.59"/>
<polygon fill="midnightblue" stroke="midnightblue" points="197.67,-199.27 187.1,-198.52 194.89,-205.7 197.67,-199.27"/>
</g>
<!-- Node14 -->
<g id="node14" class="node">
<title>Node14</title>
<g id="a_node14"><a xlink:title=" ">
<polygon fill="white" stroke="#bfbfbf" points="338.89,-179.5 338.89,-198.5 379.89,-198.5 379.89,-179.5 338.89,-179.5"/>
<text text-anchor="middle" x="359.39" y="-186.5" font-family="'Souce Sans Pro', Roboto, FreeSans, sans-serif" font-size="10.00">ctime</text>
</a>
</g>
</g>
<!-- Node13&#45;&gt;Node14 -->
<g id="edge21" class="edge">
<title>Node13&#45;&gt;Node14</title>
<path fill="none" stroke="midnightblue" d="M303.15,-235.32C313.15,-227.26 328.27,-215.08 340.32,-205.37"/>
<polygon fill="midnightblue" stroke="midnightblue" points="342.84,-207.83 348.43,-198.83 338.45,-202.38 342.84,-207.83"/>
</g>
<!-- Node15 -->
<g id="node15" class="node">
<title>Node15</title>
<g id="a_node15"><a xlink:title=" ">
<polygon fill="white" stroke="#bfbfbf" points="234.89,-179.5 234.89,-198.5 281.89,-198.5 281.89,-179.5 234.89,-179.5"/>
<text text-anchor="middle" x="258.39" y="-186.5" font-family="'Souce Sans Pro', Roboto, FreeSans, sans-serif" font-size="10.00">chrono</text>
</a>
</g>
</g>
<!-- Node13&#45;&gt;Node15 -->
<g id="edge22" class="edge">
<title>Node13&#45;&gt;Node15</title>
<path fill="none" stroke="midnightblue" d="M286.77,-235.08C282.02,-227.53 275.07,-216.49 269.24,-207.23"/>
<polygon fill="midnightblue" stroke="midnightblue" points="272.19,-205.35 263.9,-198.75 266.26,-209.08 272.19,-205.35"/>
</g>
</g>
</svg>
