<?xml version="1.0" encoding="UTF-8" standalone="no"?>
<!DOCTYPE svg PUBLIC "-//W3C//DTD SVG 1.1//EN"
 "http://www.w3.org/Graphics/SVG/1.1/DTD/svg11.dtd">
<!-- Generated by graphviz version 2.43.0 (0)
 -->
<!-- Title: lockfile.h Pages: 1 -->
<svg width="2085pt" height="364pt"
 viewBox="0.00 0.00 2084.50 364.00" xmlns="http://www.w3.org/2000/svg" xmlns:xlink="http://www.w3.org/1999/xlink">
<g id="graph0" class="graph" transform="scale(1 1) rotate(0) translate(4 360)">
<title>lockfile.h</title>
<polygon fill="white" stroke="transparent" points="-4,4 -4,-360 2080.5,-360 2080.5,4 -4,4"/>
<!-- Node1 -->
<g id="node1" class="node">
<title>Node1</title>
<g id="a_node1"><a xlink:title=" ">
<polygon fill="#bfbfbf" stroke="black" points="956.5,-336.5 956.5,-355.5 1012.5,-355.5 1012.5,-336.5 956.5,-336.5"/>
<text text-anchor="middle" x="984.5" y="-343.5" font-family="'Souce Sans Pro', Roboto, FreeSans, sans-serif" font-size="10.00">lockfile.h</text>
</a>
</g>
</g>
<!-- Node2 -->
<g id="node2" class="node">
<title>Node2</title>
<g id="a_node2"><a xlink:href="appender_8h.html" target="_top" xlink:title=" ">
<polygon fill="white" stroke="black" points="922,-280.5 922,-299.5 987,-299.5 987,-280.5 922,-280.5"/>
<text text-anchor="middle" x="954.5" y="-287.5" font-family="'Souce Sans Pro', Roboto, FreeSans, sans-serif" font-size="10.00">appender.h</text>
</a>
</g>
</g>
<!-- Node1&#45;&gt;Node2 -->
<g id="edge1" class="edge">
<title>Node1&#45;&gt;Node2</title>
<path fill="none" stroke="midnightblue" d="M974.65,-327.27C969.53,-318.05 963.48,-307.17 959.36,-299.75"/>
<polygon fill="midnightblue" stroke="midnightblue" points="971.63,-329.04 979.55,-336.08 977.75,-325.64 971.63,-329.04"/>
</g>
<!-- Node10 -->
<g id="node10" class="node">
<title>Node10</title>
<g id="a_node10"><a xlink:href="fileappender_8h.html" target="_top" xlink:title=" ">
<polygon fill="white" stroke="black" points="1998.5,-224.5 1998.5,-243.5 2076.5,-243.5 2076.5,-224.5 1998.5,-224.5"/>
<text text-anchor="middle" x="2037.5" y="-231.5" font-family="'Souce Sans Pro', Roboto, FreeSans, sans-serif" font-size="10.00">fileappender.h</text>
</a>
</g>
</g>
<!-- Node1&#45;&gt;Node10 -->
<g id="edge45" class="edge">
<title>Node1&#45;&gt;Node10</title>
<path fill="none" stroke="midnightblue" d="M1022.71,-342.34C1156.24,-332.79 1614.33,-297.92 1989.5,-244 1992.35,-243.59 1995.3,-243.13 1998.25,-242.64"/>
<polygon fill="midnightblue" stroke="midnightblue" points="1022.31,-338.86 1012.58,-343.06 1022.81,-345.84 1022.31,-338.86"/>
</g>
<!-- Node3 -->
<g id="node3" class="node">
<title>Node3</title>
<g id="a_node3"><a xlink:href="asyncappender_8h.html" target="_top" xlink:title=" ">
<polygon fill="white" stroke="black" points="0,-112.5 0,-131.5 91,-131.5 91,-112.5 0,-112.5"/>
<text text-anchor="middle" x="45.5" y="-119.5" font-family="'Souce Sans Pro', Roboto, FreeSans, sans-serif" font-size="10.00">asyncappender.h</text>
</a>
</g>
</g>
<!-- Node2&#45;&gt;Node3 -->
<g id="edge2" class="edge">
<title>Node2&#45;&gt;Node3</title>
<path fill="none" stroke="midnightblue" d="M911.62,-289.7C801.4,-290.74 499.6,-288.92 253.5,-244 169.83,-228.73 132.72,-246 70.5,-188 54.23,-172.83 48.43,-145.89 46.46,-131.93"/>
<polygon fill="midnightblue" stroke="midnightblue" points="911.72,-293.2 921.68,-289.59 911.64,-286.2 911.72,-293.2"/>
</g>
<!-- Node4 -->
<g id="node4" class="node">
<title>Node4</title>
<g id="a_node4"><a xlink:href="log4cplus_8h.html" target="_top" xlink:title=" ">
<polygon fill="white" stroke="black" points="561,-0.5 561,-19.5 628,-19.5 628,-0.5 561,-0.5"/>
<text text-anchor="middle" x="594.5" y="-7.5" font-family="'Souce Sans Pro', Roboto, FreeSans, sans-serif" font-size="10.00">log4cplus.h</text>
</a>
</g>
</g>
<!-- Node2&#45;&gt;Node4 -->
<g id="edge14" class="edge">
<title>Node2&#45;&gt;Node4</title>
<path fill="none" stroke="midnightblue" d="M925.5,-275.33C913.27,-267.92 900.31,-257.48 893.5,-244 889.49,-236.07 890.1,-232.21 893.5,-224 902.16,-203.09 920.84,-208.91 929.5,-188 932.9,-179.79 932.11,-176.5 929.5,-168 911.83,-110.5 904.04,-88.63 853.5,-56 816.69,-32.23 689.41,-18.8 628.07,-13.58"/>
<polygon fill="midnightblue" stroke="midnightblue" points="924.16,-278.59 934.59,-280.41 927.57,-272.48 924.16,-278.59"/>
</g>
<!-- Node5 -->
<g id="node5" class="node">
<title>Node5</title>
<g id="a_node5"><a xlink:href="deviceappender_8hxx.html" target="_top" xlink:title=" ">
<polygon fill="white" stroke="black" points="902.5,-224.5 902.5,-243.5 1006.5,-243.5 1006.5,-224.5 902.5,-224.5"/>
<text text-anchor="middle" x="954.5" y="-231.5" font-family="'Souce Sans Pro', Roboto, FreeSans, sans-serif" font-size="10.00">deviceappender.hxx</text>
</a>
</g>
</g>
<!-- Node2&#45;&gt;Node5 -->
<g id="edge4" class="edge">
<title>Node2&#45;&gt;Node5</title>
<path fill="none" stroke="midnightblue" d="M954.5,-269.8C954.5,-260.91 954.5,-250.78 954.5,-243.75"/>
<polygon fill="midnightblue" stroke="midnightblue" points="951,-270.08 954.5,-280.08 958,-270.08 951,-270.08"/>
</g>
<!-- Node6 -->
<g id="node6" class="node">
<title>Node6</title>
<g id="a_node6"><a xlink:href="callbackappender_8h.html" target="_top" xlink:title=" ">
<polygon fill="white" stroke="black" points="1025,-224.5 1025,-243.5 1126,-243.5 1126,-224.5 1025,-224.5"/>
<text text-anchor="middle" x="1075.5" y="-231.5" font-family="'Souce Sans Pro', Roboto, FreeSans, sans-serif" font-size="10.00">callbackappender.h</text>
</a>
</g>
</g>
<!-- Node2&#45;&gt;Node6 -->
<g id="edge5" class="edge">
<title>Node2&#45;&gt;Node6</title>
<path fill="none" stroke="midnightblue" d="M982.81,-276.37C1005.47,-266.26 1036.63,-252.35 1056.42,-243.52"/>
<polygon fill="midnightblue" stroke="midnightblue" points="981.38,-273.17 973.67,-280.44 984.23,-279.56 981.38,-273.17"/>
</g>
<!-- Node7 -->
<g id="node7" class="node">
<title>Node7</title>
<g id="a_node7"><a xlink:href="clfsappender_8h.html" target="_top" xlink:title=" ">
<polygon fill="white" stroke="black" points="1144.5,-224.5 1144.5,-243.5 1226.5,-243.5 1226.5,-224.5 1144.5,-224.5"/>
<text text-anchor="middle" x="1185.5" y="-231.5" font-family="'Souce Sans Pro', Roboto, FreeSans, sans-serif" font-size="10.00">clfsappender.h</text>
</a>
</g>
</g>
<!-- Node2&#45;&gt;Node7 -->
<g id="edge6" class="edge">
<title>Node2&#45;&gt;Node7</title>
<path fill="none" stroke="midnightblue" d="M997.11,-279.04C1040.66,-268.86 1107.61,-253.21 1148.87,-243.56"/>
<polygon fill="midnightblue" stroke="midnightblue" points="996.05,-275.69 987.11,-281.38 997.64,-282.51 996.05,-275.69"/>
</g>
<!-- Node8 -->
<g id="node8" class="node">
<title>Node8</title>
<g id="a_node8"><a xlink:href="configurator_8h.html" target="_top" xlink:title=" ">
<polygon fill="white" stroke="black" points="405,-112.5 405,-131.5 482,-131.5 482,-112.5 405,-112.5"/>
<text text-anchor="middle" x="443.5" y="-119.5" font-family="'Souce Sans Pro', Roboto, FreeSans, sans-serif" font-size="10.00">configurator.h</text>
</a>
</g>
</g>
<!-- Node2&#45;&gt;Node8 -->
<g id="edge7" class="edge">
<title>Node2&#45;&gt;Node8</title>
<path fill="none" stroke="midnightblue" d="M911.78,-288.49C819.08,-286.73 602.74,-278.88 539.5,-244 490.9,-217.19 458.13,-154.62 447.36,-131.66"/>
<polygon fill="midnightblue" stroke="midnightblue" points="911.87,-291.99 921.93,-288.67 911.99,-284.99 911.87,-291.99"/>
</g>
<!-- Node9 -->
<g id="node9" class="node">
<title>Node9</title>
<g id="a_node9"><a xlink:href="consoleappender_8h.html" target="_top" xlink:title=" ">
<polygon fill="white" stroke="black" points="517,-168.5 517,-187.5 618,-187.5 618,-168.5 517,-168.5"/>
<text text-anchor="middle" x="567.5" y="-175.5" font-family="'Souce Sans Pro', Roboto, FreeSans, sans-serif" font-size="10.00">consoleappender.h</text>
</a>
</g>
</g>
<!-- Node2&#45;&gt;Node9 -->
<g id="edge9" class="edge">
<title>Node2&#45;&gt;Node9</title>
<path fill="none" stroke="midnightblue" d="M911.55,-286.38C835.49,-281.19 680.63,-267.98 632.5,-244 605.93,-230.77 583.66,-202.45 573.46,-187.95"/>
<polygon fill="midnightblue" stroke="midnightblue" points="911.52,-289.89 921.73,-287.06 911.99,-282.9 911.52,-289.89"/>
</g>
<!-- Node2&#45;&gt;Node10 -->
<g id="edge11" class="edge">
<title>Node2&#45;&gt;Node10</title>
<path fill="none" stroke="midnightblue" d="M997.29,-289.31C1139.1,-289.87 1606.43,-288.01 1989.5,-244 1992.36,-243.67 1995.31,-243.27 1998.28,-242.82"/>
<polygon fill="midnightblue" stroke="midnightblue" points="997.28,-285.81 987.26,-289.26 997.25,-292.81 997.28,-285.81"/>
</g>
<!-- Node11 -->
<g id="node11" class="node">
<title>Node11</title>
<g id="a_node11"><a xlink:href="hierarchylocker_8h.html" target="_top" xlink:title=" ">
<polygon fill="white" stroke="black" points="500,-112.5 500,-131.5 591,-131.5 591,-112.5 500,-112.5"/>
<text text-anchor="middle" x="545.5" y="-119.5" font-family="'Souce Sans Pro', Roboto, FreeSans, sans-serif" font-size="10.00">hierarchylocker.h</text>
</a>
</g>
</g>
<!-- Node2&#45;&gt;Node11 -->
<g id="edge13" class="edge">
<title>Node2&#45;&gt;Node11</title>
<path fill="none" stroke="midnightblue" d="M911.72,-289.03C844.19,-287.88 709.56,-280.66 602.5,-244 556.13,-228.12 531.81,-230.56 507.5,-188 495.89,-167.68 519.1,-144 534.1,-131.59"/>
<polygon fill="midnightblue" stroke="midnightblue" points="911.92,-292.53 921.97,-289.17 912.02,-285.54 911.92,-292.53"/>
</g>
<!-- Node12 -->
<g id="node12" class="node">
<title>Node12</title>
<g id="a_node12"><a xlink:href="log4judpappender_8h.html" target="_top" xlink:title=" ">
<polygon fill="white" stroke="black" points="1245,-224.5 1245,-243.5 1348,-243.5 1348,-224.5 1245,-224.5"/>
<text text-anchor="middle" x="1296.5" y="-231.5" font-family="'Souce Sans Pro', Roboto, FreeSans, sans-serif" font-size="10.00">log4judpappender.h</text>
</a>
</g>
</g>
<!-- Node2&#45;&gt;Node12 -->
<g id="edge15" class="edge">
<title>Node2&#45;&gt;Node12</title>
<path fill="none" stroke="midnightblue" d="M997.26,-282.25C1060.08,-272.33 1177.17,-253.84 1244.75,-243.17"/>
<polygon fill="midnightblue" stroke="midnightblue" points="996.62,-278.81 987.29,-283.82 997.72,-285.72 996.62,-278.81"/>
</g>
<!-- Node13 -->
<g id="node13" class="node">
<title>Node13</title>
<g id="a_node13"><a xlink:href="msttsappender_8h.html" target="_top" xlink:title=" ">
<polygon fill="white" stroke="black" points="1366,-224.5 1366,-243.5 1457,-243.5 1457,-224.5 1366,-224.5"/>
<text text-anchor="middle" x="1411.5" y="-231.5" font-family="'Souce Sans Pro', Roboto, FreeSans, sans-serif" font-size="10.00">msttsappender.h</text>
</a>
</g>
</g>
<!-- Node2&#45;&gt;Node13 -->
<g id="edge16" class="edge">
<title>Node2&#45;&gt;Node13</title>
<path fill="none" stroke="midnightblue" d="M997.51,-284.97C1071.3,-277.87 1226.74,-262.18 1357.5,-244 1360.23,-243.62 1363.03,-243.21 1365.86,-242.78"/>
<polygon fill="midnightblue" stroke="midnightblue" points="996.84,-281.51 987.22,-285.95 997.51,-288.48 996.84,-281.51"/>
</g>
<!-- Node14 -->
<g id="node14" class="node">
<title>Node14</title>
<g id="a_node14"><a xlink:href="nteventlogappender_8h.html" target="_top" xlink:title=" ">
<polygon fill="white" stroke="black" points="1475.5,-224.5 1475.5,-243.5 1585.5,-243.5 1585.5,-224.5 1475.5,-224.5"/>
<text text-anchor="middle" x="1530.5" y="-231.5" font-family="'Souce Sans Pro', Roboto, FreeSans, sans-serif" font-size="10.00">nteventlogappender.h</text>
</a>
</g>
</g>
<!-- Node2&#45;&gt;Node14 -->
<g id="edge17" class="edge">
<title>Node2&#45;&gt;Node14</title>
<path fill="none" stroke="midnightblue" d="M997.34,-285.99C1085.37,-279.64 1292.92,-263.82 1466.5,-244 1469.4,-243.67 1472.37,-243.31 1475.37,-242.94"/>
<polygon fill="midnightblue" stroke="midnightblue" points="996.93,-282.51 987.2,-286.72 997.43,-289.49 996.93,-282.51"/>
</g>
<!-- Node15 -->
<g id="node15" class="node">
<title>Node15</title>
<g id="a_node15"><a xlink:href="nullappender_8h.html" target="_top" xlink:title=" ">
<polygon fill="white" stroke="black" points="622.5,-56.5 622.5,-75.5 702.5,-75.5 702.5,-56.5 622.5,-56.5"/>
<text text-anchor="middle" x="662.5" y="-63.5" font-family="'Souce Sans Pro', Roboto, FreeSans, sans-serif" font-size="10.00">nullappender.h</text>
</a>
</g>
</g>
<!-- Node2&#45;&gt;Node15 -->
<g id="edge18" class="edge">
<title>Node2&#45;&gt;Node15</title>
<path fill="none" stroke="midnightblue" d="M911.51,-289.7C843.64,-288.11 714.34,-273.4 665.5,-188 644.32,-150.97 654.85,-96.58 660.11,-75.65"/>
<polygon fill="midnightblue" stroke="midnightblue" points="911.81,-293.21 921.86,-289.85 911.91,-286.21 911.81,-293.21"/>
</g>
<!-- Node16 -->
<g id="node16" class="node">
<title>Node16</title>
<g id="a_node16"><a xlink:href="qt4debugappender_8h.html" target="_top" xlink:title=" ">
<polygon fill="white" stroke="black" points="1604,-224.5 1604,-243.5 1711,-243.5 1711,-224.5 1604,-224.5"/>
<text text-anchor="middle" x="1657.5" y="-231.5" font-family="'Souce Sans Pro', Roboto, FreeSans, sans-serif" font-size="10.00">qt4debugappender.h</text>
</a>
</g>
</g>
<!-- Node2&#45;&gt;Node16 -->
<g id="edge20" class="edge">
<title>Node2&#45;&gt;Node16</title>
<path fill="none" stroke="midnightblue" d="M997.22,-287.06C1100.19,-282.14 1370.16,-267.88 1594.5,-244 1597.58,-243.67 1600.73,-243.31 1603.92,-242.92"/>
<polygon fill="midnightblue" stroke="midnightblue" points="997.03,-283.56 987.21,-287.53 997.36,-290.55 997.03,-283.56"/>
</g>
<!-- Node17 -->
<g id="node17" class="node">
<title>Node17</title>
<g id="a_node17"><a xlink:href="qt5debugappender_8h.html" target="_top" xlink:title=" ">
<polygon fill="white" stroke="black" points="1729,-224.5 1729,-243.5 1836,-243.5 1836,-224.5 1729,-224.5"/>
<text text-anchor="middle" x="1782.5" y="-231.5" font-family="'Souce Sans Pro', Roboto, FreeSans, sans-serif" font-size="10.00">qt5debugappender.h</text>
</a>
</g>
</g>
<!-- Node2&#45;&gt;Node17 -->
<g id="edge21" class="edge">
<title>Node2&#45;&gt;Node17</title>
<path fill="none" stroke="midnightblue" d="M997.32,-287.77C1113.76,-284.14 1445.79,-271.96 1720.5,-244 1723.21,-243.72 1725.97,-243.42 1728.77,-243.09"/>
<polygon fill="midnightblue" stroke="midnightblue" points="996.95,-284.28 987.06,-288.08 997.16,-291.27 996.95,-284.28"/>
</g>
<!-- Node18 -->
<g id="node18" class="node">
<title>Node18</title>
<g id="a_node18"><a xlink:href="socketappender_8h.html" target="_top" xlink:title=" ">
<polygon fill="white" stroke="black" points="675,-168.5 675,-187.5 770,-187.5 770,-168.5 675,-168.5"/>
<text text-anchor="middle" x="722.5" y="-175.5" font-family="'Souce Sans Pro', Roboto, FreeSans, sans-serif" font-size="10.00">socketappender.h</text>
</a>
</g>
</g>
<!-- Node2&#45;&gt;Node18 -->
<g id="edge22" class="edge">
<title>Node2&#45;&gt;Node18</title>
<path fill="none" stroke="midnightblue" d="M911.6,-284.25C875.63,-278.78 823.97,-267.33 784.5,-244 759.53,-229.24 738.12,-201.61 728.27,-187.61"/>
<polygon fill="midnightblue" stroke="midnightblue" points="911.37,-287.75 921.77,-285.7 912.36,-280.82 911.37,-287.75"/>
</g>
<!-- Node19 -->
<g id="node19" class="node">
<title>Node19</title>
<g id="a_node19"><a xlink:href="appenderattachable_8h.html" target="_top" xlink:title=" ">
<polygon fill="white" stroke="black" points="262.5,-224.5 262.5,-243.5 372.5,-243.5 372.5,-224.5 262.5,-224.5"/>
<text text-anchor="middle" x="317.5" y="-231.5" font-family="'Souce Sans Pro', Roboto, FreeSans, sans-serif" font-size="10.00">appenderattachable.h</text>
</a>
</g>
</g>
<!-- Node2&#45;&gt;Node19 -->
<g id="edge24" class="edge">
<title>Node2&#45;&gt;Node19</title>
<path fill="none" stroke="midnightblue" d="M911.32,-285.34C798.9,-275.81 497.25,-250.24 372.58,-239.67"/>
<polygon fill="midnightblue" stroke="midnightblue" points="911.33,-288.85 921.59,-286.21 911.92,-281.88 911.33,-288.85"/>
</g>
<!-- Node27 -->
<g id="node27" class="node">
<title>Node27</title>
<g id="a_node27"><a xlink:href="factory_8h.html" target="_top" xlink:title=" ">
<polygon fill="white" stroke="black" points="765.5,-56.5 765.5,-75.5 821.5,-75.5 821.5,-56.5 765.5,-56.5"/>
<text text-anchor="middle" x="793.5" y="-63.5" font-family="'Souce Sans Pro', Roboto, FreeSans, sans-serif" font-size="10.00">factory.h</text>
</a>
</g>
</g>
<!-- Node2&#45;&gt;Node27 -->
<g id="edge40" class="edge">
<title>Node2&#45;&gt;Node27</title>
<path fill="none" stroke="midnightblue" d="M913.31,-277.17C893.35,-269.95 869.98,-259.14 852.5,-244 799.86,-198.4 794.02,-104.55 793.5,-75.66"/>
<polygon fill="midnightblue" stroke="midnightblue" points="912.21,-280.49 922.8,-280.43 914.48,-273.87 912.21,-280.49"/>
</g>
<!-- Node28 -->
<g id="node28" class="node">
<title>Node28</title>
<g id="a_node28"><a xlink:href="syslogappender_8h.html" target="_top" xlink:title=" ">
<polygon fill="white" stroke="black" points="826.5,-168.5 826.5,-187.5 920.5,-187.5 920.5,-168.5 826.5,-168.5"/>
<text text-anchor="middle" x="873.5" y="-175.5" font-family="'Souce Sans Pro', Roboto, FreeSans, sans-serif" font-size="10.00">syslogappender.h</text>
</a>
</g>
</g>
<!-- Node2&#45;&gt;Node28 -->
<g id="edge42" class="edge">
<title>Node2&#45;&gt;Node28</title>
<path fill="none" stroke="midnightblue" d="M912.37,-279.77C893.06,-273.21 871.97,-262.2 860.5,-244 849.34,-226.28 860.62,-200.9 868.07,-187.71"/>
<polygon fill="midnightblue" stroke="midnightblue" points="911.36,-283.12 921.94,-282.73 913.42,-276.43 911.36,-283.12"/>
</g>
<!-- Node29 -->
<g id="node29" class="node">
<title>Node29</title>
<g id="a_node29"><a xlink:href="win32consoleappender_8h.html" target="_top" xlink:title=" ">
<polygon fill="white" stroke="black" points="1854.5,-224.5 1854.5,-243.5 1980.5,-243.5 1980.5,-224.5 1854.5,-224.5"/>
<text text-anchor="middle" x="1917.5" y="-231.5" font-family="'Souce Sans Pro', Roboto, FreeSans, sans-serif" font-size="10.00">win32consoleappender.h</text>
</a>
</g>
</g>
<!-- Node2&#45;&gt;Node29 -->
<g id="edge44" class="edge">
<title>Node2&#45;&gt;Node29</title>
<path fill="none" stroke="midnightblue" d="M997.56,-287.95C1126.42,-284.58 1520.21,-272.51 1845.5,-244 1848.39,-243.75 1851.34,-243.47 1854.31,-243.17"/>
<polygon fill="midnightblue" stroke="midnightblue" points="997.23,-284.46 987.33,-288.22 997.41,-291.46 997.23,-284.46"/>
</g>
<!-- Node3&#45;&gt;Node4 -->
<g id="edge3" class="edge">
<title>Node3&#45;&gt;Node4</title>
<path fill="none" stroke="midnightblue" d="M55.08,-103.34C64.46,-87.95 80.28,-66.52 100.5,-56 180.91,-14.17 463.09,-10.7 560.85,-10.8"/>
<polygon fill="midnightblue" stroke="midnightblue" points="51.82,-101.98 49.86,-112.39 57.89,-105.47 51.82,-101.98"/>
</g>
<!-- Node8&#45;&gt;Node4 -->
<g id="edge8" class="edge">
<title>Node8&#45;&gt;Node4</title>
<path fill="none" stroke="midnightblue" d="M463.52,-106.42C495.46,-83.15 556.96,-38.35 582.71,-19.59"/>
<polygon fill="midnightblue" stroke="midnightblue" points="461.37,-103.65 455.35,-112.37 465.49,-109.31 461.37,-103.65"/>
</g>
<!-- Node9&#45;&gt;Node4 -->
<g id="edge10" class="edge">
<title>Node9&#45;&gt;Node4</title>
<path fill="none" stroke="midnightblue" d="M582.95,-160.55C589.4,-152.57 596.16,-142.46 599.5,-132 612.35,-91.74 601.94,-40.11 596.87,-19.78"/>
<polygon fill="midnightblue" stroke="midnightblue" points="580.15,-158.44 576.25,-168.29 585.44,-163.02 580.15,-158.44"/>
</g>
<!-- Node10&#45;&gt;Node4 -->
<g id="edge12" class="edge">
<title>Node10&#45;&gt;Node4</title>
<path fill="none" stroke="midnightblue" d="M1988.33,-223.82C1532.27,-143.71 1417.01,-120.94 962.5,-56 839.52,-38.43 692.81,-21.78 628.05,-14.64"/>
<polygon fill="midnightblue" stroke="midnightblue" points="1988.03,-227.32 1998.48,-225.61 1989.24,-220.43 1988.03,-227.32"/>
</g>
<!-- Node15&#45;&gt;Node4 -->
<g id="edge19" class="edge">
<title>Node15&#45;&gt;Node4</title>
<path fill="none" stroke="midnightblue" d="M643.74,-50.1C631.5,-40.38 615.94,-28.03 605.62,-19.83"/>
<polygon fill="midnightblue" stroke="midnightblue" points="641.57,-52.85 651.57,-56.32 645.92,-47.36 641.57,-52.85"/>
</g>
<!-- Node18&#45;&gt;Node4 -->
<g id="edge23" class="edge">
<title>Node18&#45;&gt;Node4</title>
<path fill="none" stroke="midnightblue" d="M726.38,-158.36C730.62,-132.6 734.1,-85.91 711.5,-56 691.88,-30.04 655.28,-19.06 628.21,-14.41"/>
<polygon fill="midnightblue" stroke="midnightblue" points="722.92,-157.83 724.53,-168.3 729.81,-159.11 722.92,-157.83"/>
</g>
<!-- Node20 -->
<g id="node20" class="node">
<title>Node20</title>
<g id="a_node20"><a xlink:href="appenderattachableimpl_8h.html" target="_top" xlink:title=" ">
<polygon fill="white" stroke="black" points="80,-168.5 80,-187.5 209,-187.5 209,-168.5 80,-168.5"/>
<text text-anchor="middle" x="144.5" y="-175.5" font-family="'Souce Sans Pro', Roboto, FreeSans, sans-serif" font-size="10.00">appenderattachableimpl.h</text>
</a>
</g>
</g>
<!-- Node19&#45;&gt;Node20 -->
<g id="edge25" class="edge">
<title>Node19&#45;&gt;Node20</title>
<path fill="none" stroke="midnightblue" d="M280.45,-221.44C247.84,-211.26 201.09,-196.66 171.78,-187.52"/>
<polygon fill="midnightblue" stroke="midnightblue" points="279.5,-224.8 290.09,-224.44 281.58,-218.12 279.5,-224.8"/>
</g>
<!-- Node23 -->
<g id="node23" class="node">
<title>Node23</title>
<g id="a_node23"><a xlink:href="logger_8h.html" target="_top" xlink:title="This header defines the Logger class and the logging macros.">
<polygon fill="white" stroke="black" points="291.5,-168.5 291.5,-187.5 343.5,-187.5 343.5,-168.5 291.5,-168.5"/>
<text text-anchor="middle" x="317.5" y="-175.5" font-family="'Souce Sans Pro', Roboto, FreeSans, sans-serif" font-size="10.00">logger.h</text>
</a>
</g>
</g>
<!-- Node19&#45;&gt;Node23 -->
<g id="edge29" class="edge">
<title>Node19&#45;&gt;Node23</title>
<path fill="none" stroke="midnightblue" d="M317.5,-213.8C317.5,-204.91 317.5,-194.78 317.5,-187.75"/>
<polygon fill="midnightblue" stroke="midnightblue" points="314,-214.08 317.5,-224.08 321,-214.08 314,-214.08"/>
</g>
<!-- Node20&#45;&gt;Node3 -->
<g id="edge26" class="edge">
<title>Node20&#45;&gt;Node3</title>
<path fill="none" stroke="midnightblue" d="M119.66,-163.45C101.39,-153.48 77.08,-140.23 61.37,-131.65"/>
<polygon fill="midnightblue" stroke="midnightblue" points="118.14,-166.61 128.59,-168.32 121.49,-160.46 118.14,-166.61"/>
</g>
<!-- Node21 -->
<g id="node21" class="node">
<title>Node21</title>
<g id="a_node21"><a xlink:href="loggerimpl_8h.html" target="_top" xlink:title=" ">
<polygon fill="white" stroke="black" points="109,-112.5 109,-131.5 180,-131.5 180,-112.5 109,-112.5"/>
<text text-anchor="middle" x="144.5" y="-119.5" font-family="'Souce Sans Pro', Roboto, FreeSans, sans-serif" font-size="10.00">loggerimpl.h</text>
</a>
</g>
</g>
<!-- Node20&#45;&gt;Node21 -->
<g id="edge27" class="edge">
<title>Node20&#45;&gt;Node21</title>
<path fill="none" stroke="midnightblue" d="M144.5,-157.8C144.5,-148.91 144.5,-138.78 144.5,-131.75"/>
<polygon fill="midnightblue" stroke="midnightblue" points="141,-158.08 144.5,-168.08 148,-158.08 141,-158.08"/>
</g>
<!-- Node22 -->
<g id="node22" class="node">
<title>Node22</title>
<g id="a_node22"><a xlink:href="rootlogger_8h.html" target="_top" xlink:title=" ">
<polygon fill="white" stroke="black" points="109.5,-56.5 109.5,-75.5 179.5,-75.5 179.5,-56.5 109.5,-56.5"/>
<text text-anchor="middle" x="144.5" y="-63.5" font-family="'Souce Sans Pro', Roboto, FreeSans, sans-serif" font-size="10.00">rootlogger.h</text>
</a>
</g>
</g>
<!-- Node21&#45;&gt;Node22 -->
<g id="edge28" class="edge">
<title>Node21&#45;&gt;Node22</title>
<path fill="none" stroke="midnightblue" d="M144.5,-101.8C144.5,-92.91 144.5,-82.78 144.5,-75.75"/>
<polygon fill="midnightblue" stroke="midnightblue" points="141,-102.08 144.5,-112.08 148,-102.08 141,-102.08"/>
</g>
<!-- Node23&#45;&gt;Node4 -->
<g id="edge34" class="edge">
<title>Node23&#45;&gt;Node4</title>
<path fill="none" stroke="midnightblue" d="M293.88,-163.07C257.51,-139.93 195.19,-92.51 227.5,-56 249.43,-31.21 474.24,-17.16 560.79,-12.63"/>
<polygon fill="midnightblue" stroke="midnightblue" points="292.15,-166.11 302.5,-168.41 295.84,-160.16 292.15,-166.11"/>
</g>
<!-- Node23&#45;&gt;Node8 -->
<g id="edge30" class="edge">
<title>Node23&#45;&gt;Node8</title>
<path fill="none" stroke="midnightblue" d="M346.66,-164.5C370.28,-154.38 402.93,-140.39 423.63,-131.52"/>
<polygon fill="midnightblue" stroke="midnightblue" points="345.28,-161.29 337.47,-168.44 348.04,-167.72 345.28,-161.29"/>
</g>
<!-- Node23&#45;&gt;Node11 -->
<g id="edge33" class="edge">
<title>Node23&#45;&gt;Node11</title>
<path fill="none" stroke="midnightblue" d="M353.62,-168.45C396.31,-158.33 466.95,-141.61 509.57,-131.51"/>
<polygon fill="midnightblue" stroke="midnightblue" points="352.58,-165.09 343.65,-170.81 354.19,-171.91 352.58,-165.09"/>
</g>
<!-- Node24 -->
<g id="node24" class="node">
<title>Node24</title>
<g id="a_node24"><a xlink:href="hierarchy_8h.html" target="_top" xlink:title=" ">
<polygon fill="white" stroke="black" points="236.5,-56.5 236.5,-75.5 300.5,-75.5 300.5,-56.5 236.5,-56.5"/>
<text text-anchor="middle" x="268.5" y="-63.5" font-family="'Souce Sans Pro', Roboto, FreeSans, sans-serif" font-size="10.00">hierarchy.h</text>
</a>
</g>
</g>
<!-- Node23&#45;&gt;Node24 -->
<g id="edge31" class="edge">
<title>Node23&#45;&gt;Node24</title>
<path fill="none" stroke="midnightblue" d="M309.12,-159.35C305.22,-151.08 300.56,-141.06 296.5,-132 287.55,-112.04 277.51,-88.41 272.22,-75.87"/>
<polygon fill="midnightblue" stroke="midnightblue" points="305.96,-160.86 313.4,-168.41 312.29,-157.87 305.96,-160.86"/>
</g>
<!-- Node25 -->
<g id="node25" class="node">
<title>Node25</title>
<g id="a_node25"><a xlink:href="loggingmacros_8h.html" target="_top" xlink:title="This header defines the logging macros.">
<polygon fill="white" stroke="black" points="318.5,-56.5 318.5,-75.5 408.5,-75.5 408.5,-56.5 318.5,-56.5"/>
<text text-anchor="middle" x="363.5" y="-63.5" font-family="'Souce Sans Pro', Roboto, FreeSans, sans-serif" font-size="10.00">loggingmacros.h</text>
</a>
</g>
</g>
<!-- Node23&#45;&gt;Node25 -->
<g id="edge35" class="edge">
<title>Node23&#45;&gt;Node25</title>
<path fill="none" stroke="midnightblue" d="M307.47,-158.94C301.38,-145.43 296.1,-126.81 303.5,-112 311.94,-95.11 330.07,-82.92 344.2,-75.52"/>
<polygon fill="midnightblue" stroke="midnightblue" points="304.46,-160.76 312.07,-168.13 310.72,-157.62 304.46,-160.76"/>
</g>
<!-- Node26 -->
<g id="node26" class="node">
<title>Node26</title>
<g id="a_node26"><a xlink:href="tracelogger_8h.html" target="_top" xlink:title=" ">
<polygon fill="white" stroke="black" points="312.5,-112.5 312.5,-131.5 386.5,-131.5 386.5,-112.5 312.5,-112.5"/>
<text text-anchor="middle" x="349.5" y="-119.5" font-family="'Souce Sans Pro', Roboto, FreeSans, sans-serif" font-size="10.00">tracelogger.h</text>
</a>
</g>
</g>
<!-- Node23&#45;&gt;Node26 -->
<g id="edge37" class="edge">
<title>Node23&#45;&gt;Node26</title>
<path fill="none" stroke="midnightblue" d="M328,-159.27C333.47,-150.05 339.92,-139.17 344.31,-131.75"/>
<polygon fill="midnightblue" stroke="midnightblue" points="324.87,-157.7 322.78,-168.08 330.89,-161.26 324.87,-157.7"/>
</g>
<!-- Node24&#45;&gt;Node4 -->
<g id="edge32" class="edge">
<title>Node24&#45;&gt;Node4</title>
<path fill="none" stroke="midnightblue" d="M310.59,-55.88C406.89,-37.93 508.87,-22.98 560.61,-15.69"/>
<polygon fill="midnightblue" stroke="midnightblue" points="309.87,-52.46 300.69,-57.74 311.17,-59.34 309.87,-52.46"/>
</g>
<!-- Node25&#45;&gt;Node4 -->
<g id="edge36" class="edge">
<title>Node25&#45;&gt;Node4</title>
<path fill="none" stroke="midnightblue" d="M410.11,-54.1C454.72,-43.67 520.94,-28.2 560.7,-18.9"/>
<polygon fill="midnightblue" stroke="midnightblue" points="409.04,-50.76 400.1,-56.44 410.64,-57.58 409.04,-50.76"/>
</g>
<!-- Node26&#45;&gt;Node4 -->
<g id="edge38" class="edge">
<title>Node26&#45;&gt;Node4</title>
<path fill="none" stroke="midnightblue" d="M378.09,-108.16C428.64,-85.47 532.51,-38.83 575.36,-19.59"/>
<polygon fill="midnightblue" stroke="midnightblue" points="376.41,-105.08 368.72,-112.37 379.28,-111.47 376.41,-105.08"/>
</g>
<!-- Node26&#45;&gt;Node25 -->
<g id="edge39" class="edge">
<title>Node26&#45;&gt;Node25</title>
<path fill="none" stroke="midnightblue" d="M354.32,-102.4C356.67,-93.36 359.37,-82.94 361.23,-75.75"/>
<polygon fill="midnightblue" stroke="midnightblue" points="350.93,-101.52 351.81,-112.08 357.71,-103.28 350.93,-101.52"/>
</g>
<!-- Node27&#45;&gt;Node4 -->
<g id="edge41" class="edge">
<title>Node27&#45;&gt;Node4</title>
<path fill="none" stroke="midnightblue" d="M755.36,-54.65C717.82,-44.46 661.15,-29.09 626.06,-19.56"/>
<polygon fill="midnightblue" stroke="midnightblue" points="754.84,-58.14 765.41,-57.38 756.68,-51.38 754.84,-58.14"/>
</g>
<!-- Node28&#45;&gt;Node4 -->
<g id="edge43" class="edge">
<title>Node28&#45;&gt;Node4</title>
<path fill="none" stroke="midnightblue" d="M872.45,-158.36C869.87,-131.47 861,-82.16 830.5,-56 800.58,-30.34 686.2,-18.04 628.39,-13.36"/>
<polygon fill="midnightblue" stroke="midnightblue" points="868.96,-158.67 873.21,-168.38 875.94,-158.14 868.96,-158.67"/>
</g>
</g>
</svg>
