<?xml version="1.0" encoding="UTF-8" standalone="no"?>
<!DOCTYPE svg PUBLIC "-//W3C//DTD SVG 1.1//EN"
 "http://www.w3.org/Graphics/SVG/1.1/DTD/svg11.dtd">
<!-- Generated by graphviz version 2.43.0 (0)
 -->
<!-- Title: logger.h Pages: 1 -->
<svg width="1568pt" height="487pt"
 viewBox="0.00 0.00 1568.00 487.00" xmlns="http://www.w3.org/2000/svg" xmlns:xlink="http://www.w3.org/1999/xlink">
<g id="graph0" class="graph" transform="scale(1 1) rotate(0) translate(4 483)">
<title>logger.h</title>
<polygon fill="white" stroke="transparent" points="-4,4 -4,-483 1564,-483 1564,4 -4,4"/>
<!-- Node1 -->
<g id="node1" class="node">
<title>Node1</title>
<g id="a_node1"><a xlink:title="This header defines the Logger class and the logging macros.">
<polygon fill="#bfbfbf" stroke="black" points="207,-459.5 207,-478.5 259,-478.5 259,-459.5 207,-459.5"/>
<text text-anchor="middle" x="233" y="-466.5" font-family="'Souce Sans Pro', Roboto, FreeSans, sans-serif" font-size="10.00">logger.h</text>
</a>
</g>
</g>
<!-- Node2 -->
<g id="node2" class="node">
<title>Node2</title>
<g id="a_node2"><a xlink:href="config_8hxx.html" target="_top" xlink:title=" ">
<polygon fill="white" stroke="black" points="611.5,-67.5 611.5,-86.5 720.5,-86.5 720.5,-67.5 611.5,-67.5"/>
<text text-anchor="middle" x="666" y="-74.5" font-family="'Souce Sans Pro', Roboto, FreeSans, sans-serif" font-size="10.00">log4cplus/config.hxx</text>
</a>
</g>
</g>
<!-- Node1&#45;&gt;Node2 -->
<g id="edge1" class="edge">
<title>Node1&#45;&gt;Node2</title>
<path fill="none" stroke="midnightblue" d="M224.83,-459.38C209.07,-441.81 176,-399.94 176,-358 176,-358 176,-358 176,-188 176,-157.9 171.8,-142.18 195,-123 225.64,-97.67 479.33,-84.91 601.17,-80.2"/>
<polygon fill="midnightblue" stroke="midnightblue" points="601.61,-83.69 611.47,-79.81 601.35,-76.69 601.61,-83.69"/>
</g>
<!-- Node5 -->
<g id="node5" class="node">
<title>Node5</title>
<g id="a_node5"><a xlink:href="loglevel_8h.html" target="_top" xlink:title="This header defines the LogLevel type.">
<polygon fill="white" stroke="black" points="714,-235.5 714,-254.5 818,-254.5 818,-235.5 714,-235.5"/>
<text text-anchor="middle" x="766" y="-242.5" font-family="'Souce Sans Pro', Roboto, FreeSans, sans-serif" font-size="10.00">log4cplus/loglevel.h</text>
</a>
</g>
</g>
<!-- Node1&#45;&gt;Node5 -->
<g id="edge4" class="edge">
<title>Node1&#45;&gt;Node5</title>
<path fill="none" stroke="midnightblue" d="M253.57,-459.43C335.52,-425.3 639,-298.9 735.99,-258.5"/>
<polygon fill="midnightblue" stroke="midnightblue" points="737.61,-261.62 745.49,-254.54 734.92,-255.16 737.61,-261.62"/>
</g>
<!-- Node6 -->
<g id="node6" class="node">
<title>Node6</title>
<g id="a_node6"><a xlink:title=" ">
<polygon fill="white" stroke="#bfbfbf" points="796,-179.5 796,-198.5 840,-198.5 840,-179.5 796,-179.5"/>
<text text-anchor="middle" x="818" y="-186.5" font-family="'Souce Sans Pro', Roboto, FreeSans, sans-serif" font-size="10.00">vector</text>
</a>
</g>
</g>
<!-- Node1&#45;&gt;Node6 -->
<g id="edge63" class="edge">
<title>Node1&#45;&gt;Node6</title>
<path fill="none" stroke="midnightblue" d="M259.13,-467.84C413.75,-466.75 1203.17,-459.43 1238,-423 1300.63,-357.5 1601.62,-533.51 1122,-235 1077.07,-207.04 919.21,-195.39 850.43,-191.56"/>
<polygon fill="midnightblue" stroke="midnightblue" points="850.36,-188.05 840.19,-191.01 849.99,-195.04 850.36,-188.05"/>
</g>
<!-- Node7 -->
<g id="node7" class="node">
<title>Node7</title>
<g id="a_node7"><a xlink:href="tstring_8h.html" target="_top" xlink:title=" ">
<polygon fill="white" stroke="black" points="240.5,-179.5 240.5,-198.5 339.5,-198.5 339.5,-179.5 240.5,-179.5"/>
<text text-anchor="middle" x="290" y="-186.5" font-family="'Souce Sans Pro', Roboto, FreeSans, sans-serif" font-size="10.00">log4cplus/tstring.h</text>
</a>
</g>
</g>
<!-- Node1&#45;&gt;Node7 -->
<g id="edge13" class="edge">
<title>Node1&#45;&gt;Node7</title>
<path fill="none" stroke="midnightblue" d="M230.44,-459.25C225.25,-440.74 214,-396.18 214,-358 214,-358 214,-358 214,-300 214,-260.28 247.96,-224.5 270.48,-205.15"/>
<polygon fill="midnightblue" stroke="midnightblue" points="272.98,-207.63 278.46,-198.57 268.52,-202.24 272.98,-207.63"/>
</g>
<!-- Node11 -->
<g id="node11" class="node">
<title>Node11</title>
<g id="a_node11"><a xlink:href="appenderattachable_8h.html" target="_top" xlink:title=" ">
<polygon fill="white" stroke="black" points="1055,-403.5 1055,-422.5 1229,-422.5 1229,-403.5 1055,-403.5"/>
<text text-anchor="middle" x="1142" y="-410.5" font-family="'Souce Sans Pro', Roboto, FreeSans, sans-serif" font-size="10.00">log4cplus/spi/appenderattachable.h</text>
</a>
</g>
</g>
<!-- Node1&#45;&gt;Node11 -->
<g id="edge14" class="edge">
<title>Node1&#45;&gt;Node11</title>
<path fill="none" stroke="midnightblue" d="M259.22,-466.44C374.59,-459.59 840.27,-431.92 1044.82,-419.77"/>
<polygon fill="midnightblue" stroke="midnightblue" points="1045.18,-423.26 1054.96,-419.17 1044.77,-416.27 1045.18,-423.26"/>
</g>
<!-- Node30 -->
<g id="node30" class="node">
<title>Node30</title>
<g id="a_node30"><a xlink:href="loggerfactory_8h.html" target="_top" xlink:title=" ">
<polygon fill="white" stroke="black" points="0,-235.5 0,-254.5 148,-254.5 148,-235.5 0,-235.5"/>
<text text-anchor="middle" x="74" y="-242.5" font-family="'Souce Sans Pro', Roboto, FreeSans, sans-serif" font-size="10.00">log4cplus/spi/loggerfactory.h</text>
</a>
</g>
</g>
<!-- Node1&#45;&gt;Node30 -->
<g id="edge60" class="edge">
<title>Node1&#45;&gt;Node30</title>
<path fill="none" stroke="midnightblue" d="M213.79,-459.45C198.22,-451.75 176.56,-439.15 162,-423 117.84,-374.01 90.38,-298.81 79.44,-264.37"/>
<polygon fill="midnightblue" stroke="midnightblue" points="82.76,-263.24 76.47,-254.71 76.07,-265.3 82.76,-263.24"/>
</g>
<!-- Node3 -->
<g id="node3" class="node">
<title>Node3</title>
<g id="a_node3"><a xlink:href="win32_8h.html" target="_top" xlink:title=" ">
<polygon fill="white" stroke="black" points="529,-6 529,-25 657,-25 657,-6 529,-6"/>
<text text-anchor="middle" x="593" y="-13" font-family="'Souce Sans Pro', Roboto, FreeSans, sans-serif" font-size="10.00">log4cplus/config/win32.h</text>
</a>
</g>
</g>
<!-- Node2&#45;&gt;Node3 -->
<g id="edge2" class="edge">
<title>Node2&#45;&gt;Node3</title>
<path fill="none" stroke="midnightblue" d="M655.54,-67.48C644.05,-58.11 625.37,-42.88 611.41,-31.51"/>
<polygon fill="midnightblue" stroke="midnightblue" points="613.4,-28.61 603.44,-25.01 608.98,-34.04 613.4,-28.61"/>
</g>
<!-- Node4 -->
<g id="node4" class="node">
<title>Node4</title>
<g id="a_node4"><a xlink:href="thread-config_8h.html" target="_top" xlink:title=" ">
<polygon fill="white" stroke="black" points="675,-0.5 675,-30.5 803,-30.5 803,-0.5 675,-0.5"/>
<text text-anchor="start" x="683" y="-18.5" font-family="'Souce Sans Pro', Roboto, FreeSans, sans-serif" font-size="10.00">log4cplus/helpers/thread</text>
<text text-anchor="middle" x="739" y="-7.5" font-family="'Souce Sans Pro', Roboto, FreeSans, sans-serif" font-size="10.00">&#45;config.h</text>
</a>
</g>
</g>
<!-- Node2&#45;&gt;Node4 -->
<g id="edge3" class="edge">
<title>Node2&#45;&gt;Node4</title>
<path fill="none" stroke="midnightblue" d="M676.46,-67.48C686.16,-59.57 700.99,-47.48 713.77,-37.07"/>
<polygon fill="midnightblue" stroke="midnightblue" points="716.26,-39.55 721.8,-30.52 711.83,-34.13 716.26,-39.55"/>
</g>
<!-- Node5&#45;&gt;Node2 -->
<g id="edge5" class="edge">
<title>Node5&#45;&gt;Node2</title>
<path fill="none" stroke="midnightblue" d="M760.62,-235.08C744.68,-208.61 697.45,-130.21 676.37,-95.21"/>
<polygon fill="midnightblue" stroke="midnightblue" points="679.32,-93.33 671.16,-86.57 673.32,-96.94 679.32,-93.33"/>
</g>
<!-- Node5&#45;&gt;Node6 -->
<g id="edge6" class="edge">
<title>Node5&#45;&gt;Node6</title>
<path fill="none" stroke="midnightblue" d="M774.59,-235.08C782.16,-227.22 793.38,-215.57 802.51,-206.08"/>
<polygon fill="midnightblue" stroke="midnightblue" points="805.16,-208.38 809.57,-198.75 800.12,-203.53 805.16,-208.38"/>
</g>
<!-- Node5&#45;&gt;Node7 -->
<g id="edge7" class="edge">
<title>Node5&#45;&gt;Node7</title>
<path fill="none" stroke="midnightblue" d="M713.78,-236.14C710.81,-235.74 707.87,-235.36 705,-235 549.83,-215.58 510.25,-217.73 355,-199 353.29,-198.79 351.55,-198.58 349.8,-198.36"/>
<polygon fill="midnightblue" stroke="midnightblue" points="350.03,-194.86 339.66,-197.06 349.13,-201.8 350.03,-194.86"/>
</g>
<!-- Node7&#45;&gt;Node2 -->
<g id="edge8" class="edge">
<title>Node7&#45;&gt;Node2</title>
<path fill="none" stroke="midnightblue" d="M287.22,-179.08C283.49,-165.15 278.86,-138.23 293,-123 313.57,-100.85 499.95,-87.18 601.21,-81.33"/>
<polygon fill="midnightblue" stroke="midnightblue" points="601.54,-84.81 611.33,-80.75 601.15,-77.82 601.54,-84.81"/>
</g>
<!-- Node8 -->
<g id="node8" class="node">
<title>Node8</title>
<g id="a_node8"><a xlink:title=" ">
<polygon fill="white" stroke="#bfbfbf" points="204.5,-123.5 204.5,-142.5 245.5,-142.5 245.5,-123.5 204.5,-123.5"/>
<text text-anchor="middle" x="225" y="-130.5" font-family="'Souce Sans Pro', Roboto, FreeSans, sans-serif" font-size="10.00">string</text>
</a>
</g>
</g>
<!-- Node7&#45;&gt;Node8 -->
<g id="edge9" class="edge">
<title>Node7&#45;&gt;Node8</title>
<path fill="none" stroke="midnightblue" d="M279.56,-179.32C269.85,-171.26 255.18,-159.08 243.5,-149.37"/>
<polygon fill="midnightblue" stroke="midnightblue" points="245.56,-146.53 235.63,-142.83 241.09,-151.92 245.56,-146.53"/>
</g>
<!-- Node9 -->
<g id="node9" class="node">
<title>Node9</title>
<g id="a_node9"><a xlink:href="tchar_8h.html" target="_top" xlink:title=" ">
<polygon fill="white" stroke="black" points="302.5,-123.5 302.5,-142.5 395.5,-142.5 395.5,-123.5 302.5,-123.5"/>
<text text-anchor="middle" x="349" y="-130.5" font-family="'Souce Sans Pro', Roboto, FreeSans, sans-serif" font-size="10.00">log4cplus/tchar.h</text>
</a>
</g>
</g>
<!-- Node7&#45;&gt;Node9 -->
<g id="edge10" class="edge">
<title>Node7&#45;&gt;Node9</title>
<path fill="none" stroke="midnightblue" d="M299.48,-179.32C308.2,-171.34 321.34,-159.31 331.9,-149.65"/>
<polygon fill="midnightblue" stroke="midnightblue" points="334.33,-152.17 339.35,-142.83 329.61,-147 334.33,-152.17"/>
</g>
<!-- Node9&#45;&gt;Node2 -->
<g id="edge11" class="edge">
<title>Node9&#45;&gt;Node2</title>
<path fill="none" stroke="midnightblue" d="M395.77,-124.03C451.57,-114.53 544.95,-98.62 606.01,-88.22"/>
<polygon fill="midnightblue" stroke="midnightblue" points="606.62,-91.67 615.89,-86.54 605.44,-84.77 606.62,-91.67"/>
</g>
<!-- Node10 -->
<g id="node10" class="node">
<title>Node10</title>
<g id="a_node10"><a xlink:title=" ">
<polygon fill="white" stroke="#bfbfbf" points="323.5,-67.5 323.5,-86.5 374.5,-86.5 374.5,-67.5 323.5,-67.5"/>
<text text-anchor="middle" x="349" y="-74.5" font-family="'Souce Sans Pro', Roboto, FreeSans, sans-serif" font-size="10.00">cstddef</text>
</a>
</g>
</g>
<!-- Node9&#45;&gt;Node10 -->
<g id="edge12" class="edge">
<title>Node9&#45;&gt;Node10</title>
<path fill="none" stroke="midnightblue" d="M349,-123.08C349,-116.01 349,-105.86 349,-96.99"/>
<polygon fill="midnightblue" stroke="midnightblue" points="352.5,-96.75 349,-86.75 345.5,-96.75 352.5,-96.75"/>
</g>
<!-- Node11&#45;&gt;Node2 -->
<g id="edge15" class="edge">
<title>Node11&#45;&gt;Node2</title>
<path fill="none" stroke="midnightblue" d="M1229.12,-406.65C1351.62,-396.71 1560,-369.82 1560,-302 1560,-302 1560,-302 1560,-188 1560,-114.94 1480.08,-139.91 1409,-123 1281.11,-92.58 887.22,-82.09 730.9,-79.07"/>
<polygon fill="midnightblue" stroke="midnightblue" points="730.57,-75.56 720.51,-78.87 730.44,-82.56 730.57,-75.56"/>
</g>
<!-- Node11&#45;&gt;Node6 -->
<g id="edge59" class="edge">
<title>Node11&#45;&gt;Node6</title>
<path fill="none" stroke="midnightblue" d="M1143.01,-403.38C1145.87,-374.59 1150.81,-281.03 1101,-235 1065,-201.74 916.78,-193.02 850.4,-190.77"/>
<polygon fill="midnightblue" stroke="midnightblue" points="850.21,-187.26 840.11,-190.45 850,-194.26 850.21,-187.26"/>
</g>
<!-- Node11&#45;&gt;Node7 -->
<g id="edge57" class="edge">
<title>Node11&#45;&gt;Node7</title>
<path fill="none" stroke="midnightblue" d="M1054.71,-405.86C884.08,-392.92 512.73,-360 395,-311 357.25,-295.29 347.93,-286.62 322,-255 310.43,-240.9 301.7,-221.91 296.3,-208.1"/>
<polygon fill="midnightblue" stroke="midnightblue" points="299.59,-206.88 292.84,-198.72 293.02,-209.31 299.59,-206.88"/>
</g>
<!-- Node12 -->
<g id="node12" class="node">
<title>Node12</title>
<g id="a_node12"><a xlink:href="appender_8h.html" target="_top" xlink:title=" ">
<polygon fill="white" stroke="black" points="1007,-347.5 1007,-366.5 1119,-366.5 1119,-347.5 1007,-347.5"/>
<text text-anchor="middle" x="1063" y="-354.5" font-family="'Souce Sans Pro', Roboto, FreeSans, sans-serif" font-size="10.00">log4cplus/appender.h</text>
</a>
</g>
</g>
<!-- Node11&#45;&gt;Node12 -->
<g id="edge16" class="edge">
<title>Node11&#45;&gt;Node12</title>
<path fill="none" stroke="midnightblue" d="M1129.31,-403.32C1117.1,-394.98 1098.42,-382.21 1084,-372.35"/>
<polygon fill="midnightblue" stroke="midnightblue" points="1085.89,-369.41 1075.66,-366.65 1081.94,-375.19 1085.89,-369.41"/>
</g>
<!-- Node20 -->
<g id="node20" class="node">
<title>Node20</title>
<g id="a_node20"><a xlink:href="pointer_8h.html" target="_top" xlink:title=" ">
<polygon fill="white" stroke="black" points="1262,-235.5 1262,-254.5 1400,-254.5 1400,-235.5 1262,-235.5"/>
<text text-anchor="middle" x="1331" y="-242.5" font-family="'Souce Sans Pro', Roboto, FreeSans, sans-serif" font-size="10.00">log4cplus/helpers/pointer.h</text>
</a>
</g>
</g>
<!-- Node11&#45;&gt;Node20 -->
<g id="edge58" class="edge">
<title>Node11&#45;&gt;Node20</title>
<path fill="none" stroke="midnightblue" d="M1153.32,-403.23C1164.75,-394.31 1182.83,-379.97 1198,-367 1240.84,-330.36 1289.42,-285.2 1314.33,-261.78"/>
<polygon fill="midnightblue" stroke="midnightblue" points="1316.95,-264.11 1321.82,-254.71 1312.15,-259.02 1316.95,-264.11"/>
</g>
<!-- Node12&#45;&gt;Node2 -->
<g id="edge17" class="edge">
<title>Node12&#45;&gt;Node2</title>
<path fill="none" stroke="midnightblue" d="M1119.28,-354.28C1241.85,-348.99 1522,-327.94 1522,-246 1522,-246 1522,-246 1522,-188 1522,-108.24 929.84,-85.06 730.56,-79.52"/>
<polygon fill="midnightblue" stroke="midnightblue" points="730.61,-76.02 720.52,-79.25 730.42,-83.02 730.61,-76.02"/>
</g>
<!-- Node12&#45;&gt;Node5 -->
<g id="edge33" class="edge">
<title>Node12&#45;&gt;Node5</title>
<path fill="none" stroke="midnightblue" d="M1039,-347.49C1013.8,-338.52 973.06,-323.93 938,-311 888.93,-292.9 832.23,-271.35 797.75,-258.17"/>
<polygon fill="midnightblue" stroke="midnightblue" points="798.81,-254.83 788.22,-254.53 796.31,-261.37 798.81,-254.83"/>
</g>
<!-- Node12&#45;&gt;Node7 -->
<g id="edge34" class="edge">
<title>Node12&#45;&gt;Node7</title>
<path fill="none" stroke="midnightblue" d="M1006.58,-354.86C875.62,-351.72 554.3,-341.12 451,-311 400.6,-296.31 388.07,-287.7 347,-255 329.47,-241.04 313,-221.26 302.32,-207.19"/>
<polygon fill="midnightblue" stroke="midnightblue" points="304.94,-204.85 296.18,-198.89 299.31,-209.01 304.94,-204.85"/>
</g>
<!-- Node13 -->
<g id="node13" class="node">
<title>Node13</title>
<g id="a_node13"><a xlink:href="layout_8h.html" target="_top" xlink:title=" ">
<polygon fill="white" stroke="black" points="460,-291.5 460,-310.5 558,-310.5 558,-291.5 460,-291.5"/>
<text text-anchor="middle" x="509" y="-298.5" font-family="'Souce Sans Pro', Roboto, FreeSans, sans-serif" font-size="10.00">log4cplus/layout.h</text>
</a>
</g>
</g>
<!-- Node12&#45;&gt;Node13 -->
<g id="edge18" class="edge">
<title>Node12&#45;&gt;Node13</title>
<path fill="none" stroke="midnightblue" d="M1006.94,-351.79C915.66,-344.72 729.28,-329.43 572,-311 570.73,-310.85 569.46,-310.7 568.17,-310.54"/>
<polygon fill="midnightblue" stroke="midnightblue" points="568.51,-307.06 558.15,-309.27 567.63,-314 568.51,-307.06"/>
</g>
<!-- Node19 -->
<g id="node19" class="node">
<title>Node19</title>
<g id="a_node19"><a xlink:title=" ">
<polygon fill="white" stroke="#bfbfbf" points="642,-235.5 642,-254.5 696,-254.5 696,-235.5 642,-235.5"/>
<text text-anchor="middle" x="669" y="-242.5" font-family="'Souce Sans Pro', Roboto, FreeSans, sans-serif" font-size="10.00">memory</text>
</a>
</g>
</g>
<!-- Node12&#45;&gt;Node19 -->
<g id="edge53" class="edge">
<title>Node12&#45;&gt;Node19</title>
<path fill="none" stroke="midnightblue" d="M1025.9,-347.46C989.01,-338.82 930.88,-324.8 881,-311 818.79,-293.79 747.12,-271.24 705.08,-257.73"/>
<polygon fill="midnightblue" stroke="midnightblue" points="705.9,-254.31 695.3,-254.58 703.75,-260.97 705.9,-254.31"/>
</g>
<!-- Node12&#45;&gt;Node20 -->
<g id="edge35" class="edge">
<title>Node12&#45;&gt;Node20</title>
<path fill="none" stroke="midnightblue" d="M1084.03,-347.37C1131.19,-328.01 1245.57,-281.06 1300.53,-258.51"/>
<polygon fill="midnightblue" stroke="midnightblue" points="1302.15,-261.63 1310.07,-254.59 1299.49,-255.15 1302.15,-261.63"/>
</g>
<!-- Node22 -->
<g id="node22" class="node">
<title>Node22</title>
<g id="a_node22"><a xlink:title=" ">
<polygon fill="white" stroke="#bfbfbf" points="1034,-123.5 1034,-142.5 1078,-142.5 1078,-123.5 1034,-123.5"/>
<text text-anchor="middle" x="1056" y="-130.5" font-family="'Souce Sans Pro', Roboto, FreeSans, sans-serif" font-size="10.00">mutex</text>
</a>
</g>
</g>
<!-- Node12&#45;&gt;Node22 -->
<g id="edge54" class="edge">
<title>Node12&#45;&gt;Node22</title>
<path fill="none" stroke="midnightblue" d="M1069.04,-347.45C1074.95,-338.68 1083.81,-324.47 1089,-311 1098.15,-287.25 1098.32,-280.31 1101,-255 1101.94,-246.16 1105.13,-242.87 1101,-235 1087.95,-210.1 1062.05,-223.9 1049,-199 1041.44,-184.56 1044.56,-165.87 1048.76,-152.24"/>
<polygon fill="midnightblue" stroke="midnightblue" points="1052.15,-153.16 1052.18,-142.57 1045.55,-150.83 1052.15,-153.16"/>
</g>
<!-- Node23 -->
<g id="node23" class="node">
<title>Node23</title>
<g id="a_node23"><a xlink:title=" ">
<polygon fill="white" stroke="#bfbfbf" points="1145,-123.5 1145,-142.5 1241,-142.5 1241,-123.5 1145,-123.5"/>
<text text-anchor="middle" x="1193" y="-130.5" font-family="'Souce Sans Pro', Roboto, FreeSans, sans-serif" font-size="10.00">condition_variable</text>
</a>
</g>
</g>
<!-- Node12&#45;&gt;Node23 -->
<g id="edge56" class="edge">
<title>Node12&#45;&gt;Node23</title>
<path fill="none" stroke="midnightblue" d="M1076.69,-347.5C1108.52,-326.8 1187.04,-270.22 1216,-199 1222.53,-182.94 1214.31,-164.24 1205.94,-151.04"/>
<polygon fill="midnightblue" stroke="midnightblue" points="1208.6,-148.73 1200.02,-142.51 1202.84,-152.72 1208.6,-148.73"/>
</g>
<!-- Node26 -->
<g id="node26" class="node">
<title>Node26</title>
<g id="a_node26"><a xlink:title=" ">
<polygon fill="white" stroke="#bfbfbf" points="1446.5,-179.5 1446.5,-198.5 1493.5,-198.5 1493.5,-179.5 1446.5,-179.5"/>
<text text-anchor="middle" x="1470" y="-186.5" font-family="'Souce Sans Pro', Roboto, FreeSans, sans-serif" font-size="10.00">atomic</text>
</a>
</g>
</g>
<!-- Node12&#45;&gt;Node26 -->
<g id="edge55" class="edge">
<title>Node12&#45;&gt;Node26</title>
<path fill="none" stroke="midnightblue" d="M1119.12,-348.94C1190.8,-337.93 1316.61,-311.72 1409,-255 1429.31,-242.53 1447.27,-221.53 1458.35,-206.79"/>
<polygon fill="midnightblue" stroke="midnightblue" points="1461.28,-208.7 1464.31,-198.54 1455.61,-204.59 1461.28,-208.7"/>
</g>
<!-- Node27 -->
<g id="node27" class="node">
<title>Node27</title>
<g id="a_node27"><a xlink:href="filter_8h.html" target="_top" xlink:title="This header defines Filter and all of it&#39;s subclasses.">
<polygon fill="white" stroke="black" points="972.5,-291.5 972.5,-310.5 1079.5,-310.5 1079.5,-291.5 972.5,-291.5"/>
<text text-anchor="middle" x="1026" y="-298.5" font-family="'Souce Sans Pro', Roboto, FreeSans, sans-serif" font-size="10.00">log4cplus/spi/filter.h</text>
</a>
</g>
</g>
<!-- Node12&#45;&gt;Node27 -->
<g id="edge44" class="edge">
<title>Node12&#45;&gt;Node27</title>
<path fill="none" stroke="midnightblue" d="M1056.89,-347.08C1051.72,-339.53 1044.15,-328.49 1037.81,-319.23"/>
<polygon fill="midnightblue" stroke="midnightblue" points="1040.54,-317.02 1032,-310.75 1034.76,-320.98 1040.54,-317.02"/>
</g>
<!-- Node29 -->
<g id="node29" class="node">
<title>Node29</title>
<g id="a_node29"><a xlink:href="lockfile_8h.html" target="_top" xlink:title=" ">
<polygon fill="white" stroke="black" points="836,-235.5 836,-254.5 976,-254.5 976,-235.5 836,-235.5"/>
<text text-anchor="middle" x="906" y="-242.5" font-family="'Souce Sans Pro', Roboto, FreeSans, sans-serif" font-size="10.00">log4cplus/helpers/lockfile.h</text>
</a>
</g>
</g>
<!-- Node12&#45;&gt;Node29 -->
<g id="edge49" class="edge">
<title>Node12&#45;&gt;Node29</title>
<path fill="none" stroke="midnightblue" d="M1036.6,-347.42C1015.68,-339.85 986.35,-327.45 964,-311 945.61,-297.47 928.75,-277.3 918,-263.02"/>
<polygon fill="midnightblue" stroke="midnightblue" points="920.59,-260.63 911.86,-254.62 914.93,-264.76 920.59,-260.63"/>
</g>
<!-- Node13&#45;&gt;Node2 -->
<g id="edge19" class="edge">
<title>Node13&#45;&gt;Node2</title>
<path fill="none" stroke="midnightblue" d="M478.47,-291.45C448.13,-281.23 408.09,-262.04 423,-235 437.46,-208.76 454.77,-215.17 480,-199 539.84,-160.64 610.04,-114.72 644.59,-92.06"/>
<polygon fill="midnightblue" stroke="midnightblue" points="646.52,-94.98 652.96,-86.57 642.68,-89.13 646.52,-94.98"/>
</g>
<!-- Node13&#45;&gt;Node5 -->
<g id="edge20" class="edge">
<title>Node13&#45;&gt;Node5</title>
<path fill="none" stroke="midnightblue" d="M549.72,-291.44C594.65,-282 667,-266.8 715.5,-256.61"/>
<polygon fill="midnightblue" stroke="midnightblue" points="716.4,-260 725.47,-254.52 714.96,-253.15 716.4,-260"/>
</g>
<!-- Node13&#45;&gt;Node6 -->
<g id="edge31" class="edge">
<title>Node13&#45;&gt;Node6</title>
<path fill="none" stroke="midnightblue" d="M525.49,-291.38C542.81,-282.34 570.83,-267.69 595,-255 611.9,-246.13 615.15,-241.75 633,-235 684.78,-215.42 747.98,-202.2 785.5,-195.4"/>
<polygon fill="midnightblue" stroke="midnightblue" points="786.59,-198.76 795.83,-193.57 785.37,-191.87 786.59,-198.76"/>
</g>
<!-- Node13&#45;&gt;Node7 -->
<g id="edge25" class="edge">
<title>Node13&#45;&gt;Node7</title>
<path fill="none" stroke="midnightblue" d="M477.47,-291.46C451.15,-283.73 413.05,-271.08 382,-255 354.54,-240.78 325.9,-219.33 308.02,-205"/>
<polygon fill="midnightblue" stroke="midnightblue" points="310.12,-202.2 300.16,-198.61 305.7,-207.63 310.12,-202.2"/>
</g>
<!-- Node14 -->
<g id="node14" class="node">
<title>Node14</title>
<g id="a_node14"><a xlink:href="streams_8h.html" target="_top" xlink:title=" ">
<polygon fill="white" stroke="black" points="364.5,-179.5 364.5,-198.5 471.5,-198.5 471.5,-179.5 364.5,-179.5"/>
<text text-anchor="middle" x="418" y="-186.5" font-family="'Souce Sans Pro', Roboto, FreeSans, sans-serif" font-size="10.00">log4cplus/streams.h</text>
</a>
</g>
</g>
<!-- Node13&#45;&gt;Node14 -->
<g id="edge21" class="edge">
<title>Node13&#45;&gt;Node14</title>
<path fill="none" stroke="midnightblue" d="M459.74,-294.55C434.43,-288.98 405.69,-277.71 390,-255 379.47,-239.76 391.05,-219.94 402.35,-206.21"/>
<polygon fill="midnightblue" stroke="midnightblue" points="405.13,-208.35 409.15,-198.54 399.89,-203.7 405.13,-208.35"/>
</g>
<!-- Node16 -->
<g id="node16" class="node">
<title>Node16</title>
<g id="a_node16"><a xlink:href="timehelper_8h.html" target="_top" xlink:title=" ">
<polygon fill="white" stroke="black" points="432,-235.5 432,-254.5 586,-254.5 586,-235.5 432,-235.5"/>
<text text-anchor="middle" x="509" y="-242.5" font-family="'Souce Sans Pro', Roboto, FreeSans, sans-serif" font-size="10.00">log4cplus/helpers/timehelper.h</text>
</a>
</g>
</g>
<!-- Node13&#45;&gt;Node16 -->
<g id="edge26" class="edge">
<title>Node13&#45;&gt;Node16</title>
<path fill="none" stroke="midnightblue" d="M509,-291.08C509,-284.01 509,-273.86 509,-264.99"/>
<polygon fill="midnightblue" stroke="midnightblue" points="512.5,-264.75 509,-254.75 505.5,-264.75 512.5,-264.75"/>
</g>
<!-- Node13&#45;&gt;Node19 -->
<g id="edge32" class="edge">
<title>Node13&#45;&gt;Node19</title>
<path fill="none" stroke="midnightblue" d="M534.35,-291.44C561.27,-282.36 604,-267.94 634.09,-257.78"/>
<polygon fill="midnightblue" stroke="midnightblue" points="635.41,-261.03 643.77,-254.52 633.17,-254.4 635.41,-261.03"/>
</g>
<!-- Node14&#45;&gt;Node2 -->
<g id="edge22" class="edge">
<title>Node14&#45;&gt;Node2</title>
<path fill="none" stroke="midnightblue" d="M418.87,-179.33C420.78,-165.23 426.64,-137.48 444,-123 467.54,-103.37 544.73,-90.96 601.5,-84.26"/>
<polygon fill="midnightblue" stroke="midnightblue" points="601.96,-87.73 611.49,-83.11 601.16,-80.77 601.96,-87.73"/>
</g>
<!-- Node14&#45;&gt;Node9 -->
<g id="edge23" class="edge">
<title>Node14&#45;&gt;Node9</title>
<path fill="none" stroke="midnightblue" d="M406.91,-179.32C396.51,-171.18 380.74,-158.84 368.28,-149.09"/>
<polygon fill="midnightblue" stroke="midnightblue" points="370.32,-146.24 360.29,-142.83 366.01,-151.75 370.32,-146.24"/>
</g>
<!-- Node15 -->
<g id="node15" class="node">
<title>Node15</title>
<g id="a_node15"><a xlink:title=" ">
<polygon fill="white" stroke="#bfbfbf" points="452.5,-123.5 452.5,-142.5 499.5,-142.5 499.5,-123.5 452.5,-123.5"/>
<text text-anchor="middle" x="476" y="-130.5" font-family="'Souce Sans Pro', Roboto, FreeSans, sans-serif" font-size="10.00">iosfwd</text>
</a>
</g>
</g>
<!-- Node14&#45;&gt;Node15 -->
<g id="edge24" class="edge">
<title>Node14&#45;&gt;Node15</title>
<path fill="none" stroke="midnightblue" d="M427.32,-179.32C435.89,-171.34 448.81,-159.31 459.19,-149.65"/>
<polygon fill="midnightblue" stroke="midnightblue" points="461.58,-152.21 466.51,-142.83 456.81,-147.09 461.58,-152.21"/>
</g>
<!-- Node16&#45;&gt;Node2 -->
<g id="edge27" class="edge">
<title>Node16&#45;&gt;Node2</title>
<path fill="none" stroke="midnightblue" d="M517.44,-235.08C542.8,-208.27 618.53,-128.19 650.98,-93.89"/>
<polygon fill="midnightblue" stroke="midnightblue" points="653.57,-96.24 657.9,-86.57 648.48,-91.43 653.57,-96.24"/>
</g>
<!-- Node16&#45;&gt;Node7 -->
<g id="edge28" class="edge">
<title>Node16&#45;&gt;Node7</title>
<path fill="none" stroke="midnightblue" d="M474.3,-235.44C436.42,-226.1 375.65,-211.12 334.34,-200.93"/>
<polygon fill="midnightblue" stroke="midnightblue" points="335.09,-197.51 324.54,-198.52 333.41,-204.31 335.09,-197.51"/>
</g>
<!-- Node17 -->
<g id="node17" class="node">
<title>Node17</title>
<g id="a_node17"><a xlink:title=" ">
<polygon fill="white" stroke="#bfbfbf" points="659.5,-179.5 659.5,-198.5 700.5,-198.5 700.5,-179.5 659.5,-179.5"/>
<text text-anchor="middle" x="680" y="-186.5" font-family="'Souce Sans Pro', Roboto, FreeSans, sans-serif" font-size="10.00">ctime</text>
</a>
</g>
</g>
<!-- Node16&#45;&gt;Node17 -->
<g id="edge29" class="edge">
<title>Node16&#45;&gt;Node17</title>
<path fill="none" stroke="midnightblue" d="M536.1,-235.44C567.03,-225.68 617.49,-209.74 649.7,-199.57"/>
<polygon fill="midnightblue" stroke="midnightblue" points="650.99,-202.83 659.47,-196.48 648.88,-196.16 650.99,-202.83"/>
</g>
<!-- Node18 -->
<g id="node18" class="node">
<title>Node18</title>
<g id="a_node18"><a xlink:title=" ">
<polygon fill="white" stroke="#bfbfbf" points="594.5,-179.5 594.5,-198.5 641.5,-198.5 641.5,-179.5 594.5,-179.5"/>
<text text-anchor="middle" x="618" y="-186.5" font-family="'Souce Sans Pro', Roboto, FreeSans, sans-serif" font-size="10.00">chrono</text>
</a>
</g>
</g>
<!-- Node16&#45;&gt;Node18 -->
<g id="edge30" class="edge">
<title>Node16&#45;&gt;Node18</title>
<path fill="none" stroke="midnightblue" d="M526.51,-235.32C544.07,-226.62 571.33,-213.12 591.53,-203.11"/>
<polygon fill="midnightblue" stroke="midnightblue" points="593.12,-206.23 600.53,-198.65 590.02,-199.96 593.12,-206.23"/>
</g>
<!-- Node20&#45;&gt;Node2 -->
<g id="edge36" class="edge">
<title>Node20&#45;&gt;Node2</title>
<path fill="none" stroke="midnightblue" d="M1322.65,-235.48C1314.34,-226.75 1301.47,-212.56 1292,-199 1269.91,-167.36 1282.46,-143.87 1250,-123 1207.18,-95.47 874.05,-83.48 730.96,-79.56"/>
<polygon fill="midnightblue" stroke="midnightblue" points="730.67,-76.05 720.58,-79.28 730.48,-83.04 730.67,-76.05"/>
</g>
<!-- Node21 -->
<g id="node21" class="node">
<title>Node21</title>
<g id="a_node21"><a xlink:href="syncprims_8h.html" target="_top" xlink:title=" ">
<polygon fill="white" stroke="black" points="1057.5,-179.5 1057.5,-198.5 1206.5,-198.5 1206.5,-179.5 1057.5,-179.5"/>
<text text-anchor="middle" x="1132" y="-186.5" font-family="'Souce Sans Pro', Roboto, FreeSans, sans-serif" font-size="10.00">log4cplus/thread/syncprims.h</text>
</a>
</g>
</g>
<!-- Node20&#45;&gt;Node21 -->
<g id="edge37" class="edge">
<title>Node20&#45;&gt;Node21</title>
<path fill="none" stroke="midnightblue" d="M1299.47,-235.44C1265.41,-226.2 1210.99,-211.44 1173.48,-201.26"/>
<polygon fill="midnightblue" stroke="midnightblue" points="1173.95,-197.76 1163.38,-198.52 1172.12,-204.51 1173.95,-197.76"/>
</g>
<!-- Node24 -->
<g id="node24" class="node">
<title>Node24</title>
<g id="a_node24"><a xlink:title=" ">
<polygon fill="white" stroke="#bfbfbf" points="1300.5,-179.5 1300.5,-198.5 1359.5,-198.5 1359.5,-179.5 1300.5,-179.5"/>
<text text-anchor="middle" x="1330" y="-186.5" font-family="'Souce Sans Pro', Roboto, FreeSans, sans-serif" font-size="10.00">algorithm</text>
</a>
</g>
</g>
<!-- Node20&#45;&gt;Node24 -->
<g id="edge41" class="edge">
<title>Node20&#45;&gt;Node24</title>
<path fill="none" stroke="midnightblue" d="M1330.83,-235.08C1330.7,-228.01 1330.52,-217.86 1330.35,-208.99"/>
<polygon fill="midnightblue" stroke="midnightblue" points="1333.85,-208.68 1330.16,-198.75 1326.85,-208.81 1333.85,-208.68"/>
</g>
<!-- Node25 -->
<g id="node25" class="node">
<title>Node25</title>
<g id="a_node25"><a xlink:title=" ">
<polygon fill="white" stroke="#bfbfbf" points="1378,-179.5 1378,-198.5 1428,-198.5 1428,-179.5 1378,-179.5"/>
<text text-anchor="middle" x="1403" y="-186.5" font-family="'Souce Sans Pro', Roboto, FreeSans, sans-serif" font-size="10.00">cassert</text>
</a>
</g>
</g>
<!-- Node20&#45;&gt;Node25 -->
<g id="edge42" class="edge">
<title>Node20&#45;&gt;Node25</title>
<path fill="none" stroke="midnightblue" d="M1342.57,-235.32C1353.42,-227.18 1369.88,-214.84 1382.88,-205.09"/>
<polygon fill="midnightblue" stroke="midnightblue" points="1385.32,-207.63 1391.22,-198.83 1381.12,-202.03 1385.32,-207.63"/>
</g>
<!-- Node20&#45;&gt;Node26 -->
<g id="edge43" class="edge">
<title>Node20&#45;&gt;Node26</title>
<path fill="none" stroke="midnightblue" d="M1353.02,-235.44C1376.1,-226.48 1412.56,-212.31 1438.64,-202.18"/>
<polygon fill="midnightblue" stroke="midnightblue" points="1440.02,-205.4 1448.08,-198.52 1437.49,-198.88 1440.02,-205.4"/>
</g>
<!-- Node21&#45;&gt;Node2 -->
<g id="edge38" class="edge">
<title>Node21&#45;&gt;Node2</title>
<path fill="none" stroke="midnightblue" d="M1128.86,-179.47C1123.06,-165.05 1109.19,-136.17 1087,-123 1028.42,-88.21 833.91,-80.21 731.06,-78.44"/>
<polygon fill="midnightblue" stroke="midnightblue" points="730.85,-74.94 720.79,-78.28 730.74,-81.94 730.85,-74.94"/>
</g>
<!-- Node21&#45;&gt;Node22 -->
<g id="edge39" class="edge">
<title>Node21&#45;&gt;Node22</title>
<path fill="none" stroke="midnightblue" d="M1119.79,-179.32C1108.22,-171.11 1090.62,-158.6 1076.84,-148.81"/>
<polygon fill="midnightblue" stroke="midnightblue" points="1078.61,-145.77 1068.43,-142.83 1074.56,-151.48 1078.61,-145.77"/>
</g>
<!-- Node21&#45;&gt;Node23 -->
<g id="edge40" class="edge">
<title>Node21&#45;&gt;Node23</title>
<path fill="none" stroke="midnightblue" d="M1141.8,-179.32C1150.82,-171.34 1164.41,-159.31 1175.32,-149.65"/>
<polygon fill="midnightblue" stroke="midnightblue" points="1177.85,-152.08 1183.02,-142.83 1173.21,-146.84 1177.85,-152.08"/>
</g>
<!-- Node27&#45;&gt;Node2 -->
<g id="edge45" class="edge">
<title>Node27&#45;&gt;Node2</title>
<path fill="none" stroke="midnightblue" d="M1022.08,-291.08C1015.82,-277.61 1002.47,-251.87 985,-235 903.08,-155.87 773.51,-109.24 707.55,-89.38"/>
<polygon fill="midnightblue" stroke="midnightblue" points="708.5,-86 697.91,-86.53 706.51,-92.72 708.5,-86"/>
</g>
<!-- Node27&#45;&gt;Node5 -->
<g id="edge48" class="edge">
<title>Node27&#45;&gt;Node5</title>
<path fill="none" stroke="midnightblue" d="M984.8,-291.44C939.35,-282 866.16,-266.8 817.09,-256.61"/>
<polygon fill="midnightblue" stroke="midnightblue" points="817.51,-253.12 807.01,-254.52 816.08,-259.98 817.51,-253.12"/>
</g>
<!-- Node27&#45;&gt;Node20 -->
<g id="edge47" class="edge">
<title>Node27&#45;&gt;Node20</title>
<path fill="none" stroke="midnightblue" d="M1074.33,-291.44C1128.2,-281.9 1215.31,-266.48 1272.86,-256.29"/>
<polygon fill="midnightblue" stroke="midnightblue" points="1273.66,-259.71 1282.9,-254.52 1272.44,-252.81 1273.66,-259.71"/>
</g>
<!-- Node28 -->
<g id="node28" class="node">
<title>Node28</title>
<g id="a_node28"><a xlink:title=" ">
<polygon fill="white" stroke="#bfbfbf" points="1032,-235.5 1032,-254.5 1092,-254.5 1092,-235.5 1032,-235.5"/>
<text text-anchor="middle" x="1062" y="-242.5" font-family="'Souce Sans Pro', Roboto, FreeSans, sans-serif" font-size="10.00">functional</text>
</a>
</g>
</g>
<!-- Node27&#45;&gt;Node28 -->
<g id="edge46" class="edge">
<title>Node27&#45;&gt;Node28</title>
<path fill="none" stroke="midnightblue" d="M1031.94,-291.08C1036.98,-283.53 1044.34,-272.49 1050.51,-263.23"/>
<polygon fill="midnightblue" stroke="midnightblue" points="1053.53,-265.01 1056.17,-254.75 1047.71,-261.13 1053.53,-265.01"/>
</g>
<!-- Node29&#45;&gt;Node2 -->
<g id="edge50" class="edge">
<title>Node29&#45;&gt;Node2</title>
<path fill="none" stroke="midnightblue" d="M899.8,-235.14C890.11,-221.75 870.28,-196.13 849,-179 800.21,-139.74 734.04,-107.51 696.09,-90.68"/>
<polygon fill="midnightblue" stroke="midnightblue" points="697.19,-87.34 686.63,-86.54 694.39,-93.75 697.19,-87.34"/>
</g>
<!-- Node29&#45;&gt;Node7 -->
<g id="edge51" class="edge">
<title>Node29&#45;&gt;Node7</title>
<path fill="none" stroke="midnightblue" d="M835.8,-235.87C832.83,-235.56 829.89,-235.27 827,-235 617.56,-215.09 564.19,-221.44 355,-199 353.29,-198.82 351.55,-198.62 349.8,-198.42"/>
<polygon fill="midnightblue" stroke="midnightblue" points="349.99,-194.92 339.65,-197.19 349.15,-201.87 349.99,-194.92"/>
</g>
<!-- Node29&#45;&gt;Node21 -->
<g id="edge52" class="edge">
<title>Node29&#45;&gt;Node21</title>
<path fill="none" stroke="midnightblue" d="M941.81,-235.44C980.99,-226.08 1043.88,-211.06 1086.52,-200.87"/>
<polygon fill="midnightblue" stroke="midnightblue" points="1087.44,-204.24 1096.36,-198.52 1085.82,-197.44 1087.44,-204.24"/>
</g>
<!-- Node30&#45;&gt;Node2 -->
<g id="edge61" class="edge">
<title>Node30&#45;&gt;Node2</title>
<path fill="none" stroke="midnightblue" d="M77.3,-235.31C86.56,-212.26 115.22,-149.51 162,-123 199.35,-101.84 473.47,-86.76 601.03,-80.81"/>
<polygon fill="midnightblue" stroke="midnightblue" points="601.24,-84.3 611.07,-80.35 600.92,-77.31 601.24,-84.3"/>
</g>
<!-- Node30&#45;&gt;Node7 -->
<g id="edge62" class="edge">
<title>Node30&#45;&gt;Node7</title>
<path fill="none" stroke="midnightblue" d="M108.23,-235.44C145.51,-226.12 205.27,-211.18 246.01,-201"/>
<polygon fill="midnightblue" stroke="midnightblue" points="247.08,-204.34 255.93,-198.52 245.38,-197.55 247.08,-204.34"/>
</g>
</g>
</svg>
