<?xml version="1.0" encoding="UTF-8" standalone="no"?>
<!DOCTYPE svg PUBLIC "-//W3C//DTD SVG 1.1//EN"
 "http://www.w3.org/Graphics/SVG/1.1/DTD/svg11.dtd">
<!-- Generated by graphviz version 2.43.0 (0)
 -->
<!-- Title: ndc.h Pages: 1 -->
<svg width="297pt" height="252pt"
 viewBox="0.00 0.00 297.44 252.00" xmlns="http://www.w3.org/2000/svg" xmlns:xlink="http://www.w3.org/1999/xlink">
<g id="graph0" class="graph" transform="scale(1 1) rotate(0) translate(4 248)">
<title>ndc.h</title>
<polygon fill="white" stroke="transparent" points="-4,4 -4,-248 293.44,-248 293.44,4 -4,4"/>
<!-- Node1 -->
<g id="node1" class="node">
<title>Node1</title>
<g id="a_node1"><a xlink:title="This header defined the NDC class.">
<polygon fill="#bfbfbf" stroke="black" points="143.5,-224.5 143.5,-243.5 184.5,-243.5 184.5,-224.5 143.5,-224.5"/>
<text text-anchor="middle" x="164" y="-231.5" font-family="'Souce Sans Pro', Roboto, FreeSans, sans-serif" font-size="10.00">ndc.h</text>
</a>
</g>
</g>
<!-- Node2 -->
<g id="node2" class="node">
<title>Node2</title>
<g id="a_node2"><a xlink:href="internal_8h.html" target="_top" xlink:title="This header contains declaration internal to log4cplus.">
<polygon fill="white" stroke="black" points="67.5,-112.5 67.5,-131.5 124.5,-131.5 124.5,-112.5 67.5,-112.5"/>
<text text-anchor="middle" x="96" y="-119.5" font-family="'Souce Sans Pro', Roboto, FreeSans, sans-serif" font-size="10.00">internal.h</text>
</a>
</g>
</g>
<!-- Node1&#45;&gt;Node2 -->
<g id="edge1" class="edge">
<title>Node1&#45;&gt;Node2</title>
<path fill="none" stroke="midnightblue" d="M143.18,-218.18C133.37,-210.24 122.26,-199.68 115,-188 103.7,-169.83 98.87,-144.64 97.01,-131.6"/>
<polygon fill="midnightblue" stroke="midnightblue" points="141.27,-221.13 151.33,-224.46 145.54,-215.58 141.27,-221.13"/>
</g>
<!-- Node4 -->
<g id="node4" class="node">
<title>Node4</title>
<g id="a_node4"><a xlink:href="log4cplus_8h.html" target="_top" xlink:title=" ">
<polygon fill="white" stroke="black" points="198.5,-0.5 198.5,-19.5 265.5,-19.5 265.5,-0.5 198.5,-0.5"/>
<text text-anchor="middle" x="232" y="-7.5" font-family="'Souce Sans Pro', Roboto, FreeSans, sans-serif" font-size="10.00">log4cplus.h</text>
</a>
</g>
</g>
<!-- Node1&#45;&gt;Node4 -->
<g id="edge3" class="edge">
<title>Node1&#45;&gt;Node4</title>
<path fill="none" stroke="midnightblue" d="M183.26,-218.03C213.77,-192.78 271.36,-138.32 287,-76 289.16,-67.38 290.81,-64.03 287,-56 279.23,-39.61 262.25,-27.21 249.2,-19.61"/>
<polygon fill="midnightblue" stroke="midnightblue" points="181.01,-215.36 175.43,-224.36 185.41,-220.8 181.01,-215.36"/>
</g>
<!-- Node5 -->
<g id="node5" class="node">
<title>Node5</title>
<g id="a_node5"><a xlink:href="loggingevent_8h.html" target="_top" xlink:title=" ">
<polygon fill="white" stroke="black" points="124,-168.5 124,-187.5 204,-187.5 204,-168.5 124,-168.5"/>
<text text-anchor="middle" x="164" y="-175.5" font-family="'Souce Sans Pro', Roboto, FreeSans, sans-serif" font-size="10.00">loggingevent.h</text>
</a>
</g>
</g>
<!-- Node1&#45;&gt;Node5 -->
<g id="edge4" class="edge">
<title>Node1&#45;&gt;Node5</title>
<path fill="none" stroke="midnightblue" d="M164,-213.8C164,-204.91 164,-194.78 164,-187.75"/>
<polygon fill="midnightblue" stroke="midnightblue" points="160.5,-214.08 164,-224.08 167.5,-214.08 160.5,-214.08"/>
</g>
<!-- Node3 -->
<g id="node3" class="node">
<title>Node3</title>
<g id="a_node3"><a xlink:href="customloglevelmanager_8h.html" target="_top" xlink:title="This header contains declaration internal to log4cplus.">
<polygon fill="white" stroke="black" points="0,-56.5 0,-75.5 130,-75.5 130,-56.5 0,-56.5"/>
<text text-anchor="middle" x="65" y="-63.5" font-family="'Souce Sans Pro', Roboto, FreeSans, sans-serif" font-size="10.00">customloglevelmanager.h</text>
</a>
</g>
</g>
<!-- Node2&#45;&gt;Node3 -->
<g id="edge2" class="edge">
<title>Node2&#45;&gt;Node3</title>
<path fill="none" stroke="midnightblue" d="M85.82,-103.27C80.53,-94.05 74.28,-83.17 70.02,-75.75"/>
<polygon fill="midnightblue" stroke="midnightblue" points="82.87,-105.15 90.88,-112.08 88.94,-101.67 82.87,-105.15"/>
</g>
<!-- Node5&#45;&gt;Node2 -->
<g id="edge8" class="edge">
<title>Node5&#45;&gt;Node2</title>
<path fill="none" stroke="midnightblue" d="M145.24,-162.1C133,-152.38 117.44,-140.03 107.12,-131.83"/>
<polygon fill="midnightblue" stroke="midnightblue" points="143.07,-164.85 153.07,-168.32 147.42,-159.36 143.07,-164.85"/>
</g>
<!-- Node5&#45;&gt;Node4 -->
<g id="edge9" class="edge">
<title>Node5&#45;&gt;Node4</title>
<path fill="none" stroke="midnightblue" d="M161.8,-158.2C159.79,-133.25 159.38,-88.56 177,-56 185.75,-39.83 202.95,-27.24 215.79,-19.54"/>
<polygon fill="midnightblue" stroke="midnightblue" points="158.35,-158.83 162.82,-168.44 165.32,-158.14 158.35,-158.83"/>
</g>
<!-- Node6 -->
<g id="node6" class="node">
<title>Node6</title>
<g id="a_node6"><a xlink:href="queue_8h.html" target="_top" xlink:title=" ">
<polygon fill="white" stroke="black" points="196,-112.5 196,-131.5 248,-131.5 248,-112.5 196,-112.5"/>
<text text-anchor="middle" x="222" y="-119.5" font-family="'Souce Sans Pro', Roboto, FreeSans, sans-serif" font-size="10.00">queue.h</text>
</a>
</g>
</g>
<!-- Node5&#45;&gt;Node6 -->
<g id="edge5" class="edge">
<title>Node5&#45;&gt;Node6</title>
<path fill="none" stroke="midnightblue" d="M180.91,-161.25C191.2,-151.67 203.97,-139.79 212.51,-131.83"/>
<polygon fill="midnightblue" stroke="midnightblue" points="178.25,-158.95 173.32,-168.32 183.02,-164.07 178.25,-158.95"/>
</g>
<!-- Node7 -->
<g id="node7" class="node">
<title>Node7</title>
<g id="a_node7"><a xlink:href="asyncappender_8h.html" target="_top" xlink:title=" ">
<polygon fill="white" stroke="black" points="186.5,-56.5 186.5,-75.5 277.5,-75.5 277.5,-56.5 186.5,-56.5"/>
<text text-anchor="middle" x="232" y="-63.5" font-family="'Souce Sans Pro', Roboto, FreeSans, sans-serif" font-size="10.00">asyncappender.h</text>
</a>
</g>
</g>
<!-- Node6&#45;&gt;Node7 -->
<g id="edge6" class="edge">
<title>Node6&#45;&gt;Node7</title>
<path fill="none" stroke="midnightblue" d="M225.5,-102.1C227.16,-93.14 229.06,-82.86 230.38,-75.75"/>
<polygon fill="midnightblue" stroke="midnightblue" points="222.03,-101.61 223.65,-112.08 228.91,-102.89 222.03,-101.61"/>
</g>
<!-- Node7&#45;&gt;Node4 -->
<g id="edge7" class="edge">
<title>Node7&#45;&gt;Node4</title>
<path fill="none" stroke="midnightblue" d="M232,-45.8C232,-36.91 232,-26.78 232,-19.75"/>
<polygon fill="midnightblue" stroke="midnightblue" points="228.5,-46.08 232,-56.08 235.5,-46.08 228.5,-46.08"/>
</g>
</g>
</svg>
