<?xml version="1.0" encoding="UTF-8" standalone="no"?>
<!DOCTYPE svg PUBLIC "-//W3C//DTD SVG 1.1//EN"
 "http://www.w3.org/Graphics/SVG/1.1/DTD/svg11.dtd">
<!-- Generated by graphviz version 2.43.0 (0)
 -->
<!-- Title: objectregistry.h Pages: 1 -->
<svg width="639pt" height="263pt"
 viewBox="0.00 0.00 638.50 263.00" xmlns="http://www.w3.org/2000/svg" xmlns:xlink="http://www.w3.org/1999/xlink">
<g id="graph0" class="graph" transform="scale(1 1) rotate(0) translate(4 259)">
<title>objectregistry.h</title>
<polygon fill="white" stroke="transparent" points="-4,4 -4,-259 634.5,-259 634.5,4 -4,4"/>
<!-- Node1 -->
<g id="node1" class="node">
<title>Node1</title>
<g id="a_node1"><a xlink:title=" ">
<polygon fill="#bfbfbf" stroke="black" points="413.5,-235.5 413.5,-254.5 497.5,-254.5 497.5,-235.5 413.5,-235.5"/>
<text text-anchor="middle" x="455.5" y="-242.5" font-family="'Souce Sans Pro', Roboto, FreeSans, sans-serif" font-size="10.00">objectregistry.h</text>
</a>
</g>
</g>
<!-- Node2 -->
<g id="node2" class="node">
<title>Node2</title>
<g id="a_node2"><a xlink:href="config_8hxx.html" target="_top" xlink:title=" ">
<polygon fill="white" stroke="black" points="145,-67.5 145,-86.5 254,-86.5 254,-67.5 145,-67.5"/>
<text text-anchor="middle" x="199.5" y="-74.5" font-family="'Souce Sans Pro', Roboto, FreeSans, sans-serif" font-size="10.00">log4cplus/config.hxx</text>
</a>
</g>
</g>
<!-- Node1&#45;&gt;Node2 -->
<g id="edge1" class="edge">
<title>Node1&#45;&gt;Node2</title>
<path fill="none" stroke="midnightblue" d="M455.25,-235.42C454.12,-213.18 447.88,-153.27 413.5,-123 391.57,-103.69 318.65,-91.33 263.98,-84.55"/>
<polygon fill="midnightblue" stroke="midnightblue" points="264.35,-81.07 254,-83.35 263.51,-88.02 264.35,-81.07"/>
</g>
<!-- Node5 -->
<g id="node5" class="node">
<title>Node5</title>
<g id="a_node5"><a xlink:href="tstring_8h.html" target="_top" xlink:title=" ">
<polygon fill="white" stroke="black" points="107,-179.5 107,-198.5 206,-198.5 206,-179.5 107,-179.5"/>
<text text-anchor="middle" x="156.5" y="-186.5" font-family="'Souce Sans Pro', Roboto, FreeSans, sans-serif" font-size="10.00">log4cplus/tstring.h</text>
</a>
</g>
</g>
<!-- Node1&#45;&gt;Node5 -->
<g id="edge4" class="edge">
<title>Node1&#45;&gt;Node5</title>
<path fill="none" stroke="midnightblue" d="M413.29,-236.38C361.13,-226.96 272.13,-210.88 213.82,-200.35"/>
<polygon fill="midnightblue" stroke="midnightblue" points="214.13,-196.85 203.67,-198.52 212.88,-203.74 214.13,-196.85"/>
</g>
<!-- Node9 -->
<g id="node9" class="node">
<title>Node9</title>
<g id="a_node9"><a xlink:href="syncprims_8h.html" target="_top" xlink:title=" ">
<polygon fill="white" stroke="black" points="240,-179.5 240,-198.5 389,-198.5 389,-179.5 240,-179.5"/>
<text text-anchor="middle" x="314.5" y="-186.5" font-family="'Souce Sans Pro', Roboto, FreeSans, sans-serif" font-size="10.00">log4cplus/thread/syncprims.h</text>
</a>
</g>
</g>
<!-- Node1&#45;&gt;Node9 -->
<g id="edge10" class="edge">
<title>Node1&#45;&gt;Node9</title>
<path fill="none" stroke="midnightblue" d="M433.16,-235.44C409.75,-226.48 372.76,-212.31 346.31,-202.18"/>
<polygon fill="midnightblue" stroke="midnightblue" points="347.33,-198.82 336.74,-198.52 344.82,-205.36 347.33,-198.82"/>
</g>
<!-- Node12 -->
<g id="node12" class="node">
<title>Node12</title>
<g id="a_node12"><a xlink:title=" ">
<polygon fill="white" stroke="#bfbfbf" points="460.5,-179.5 460.5,-198.5 496.5,-198.5 496.5,-179.5 460.5,-179.5"/>
<text text-anchor="middle" x="478.5" y="-186.5" font-family="'Souce Sans Pro', Roboto, FreeSans, sans-serif" font-size="10.00">map</text>
</a>
</g>
</g>
<!-- Node1&#45;&gt;Node12 -->
<g id="edge14" class="edge">
<title>Node1&#45;&gt;Node12</title>
<path fill="none" stroke="midnightblue" d="M459.3,-235.08C462.41,-227.77 466.92,-217.18 470.79,-208.1"/>
<polygon fill="midnightblue" stroke="midnightblue" points="474.07,-209.32 474.77,-198.75 467.63,-206.58 474.07,-209.32"/>
</g>
<!-- Node13 -->
<g id="node13" class="node">
<title>Node13</title>
<g id="a_node13"><a xlink:title=" ">
<polygon fill="white" stroke="#bfbfbf" points="514.5,-179.5 514.5,-198.5 568.5,-198.5 568.5,-179.5 514.5,-179.5"/>
<text text-anchor="middle" x="541.5" y="-186.5" font-family="'Souce Sans Pro', Roboto, FreeSans, sans-serif" font-size="10.00">memory</text>
</a>
</g>
</g>
<!-- Node1&#45;&gt;Node13 -->
<g id="edge15" class="edge">
<title>Node1&#45;&gt;Node13</title>
<path fill="none" stroke="midnightblue" d="M469.32,-235.32C482.73,-226.9 503.32,-213.97 519.09,-204.07"/>
<polygon fill="midnightblue" stroke="midnightblue" points="521.11,-206.94 527.72,-198.65 517.39,-201.01 521.11,-206.94"/>
</g>
<!-- Node14 -->
<g id="node14" class="node">
<title>Node14</title>
<g id="a_node14"><a xlink:title=" ">
<polygon fill="white" stroke="#bfbfbf" points="586.5,-179.5 586.5,-198.5 630.5,-198.5 630.5,-179.5 586.5,-179.5"/>
<text text-anchor="middle" x="608.5" y="-186.5" font-family="'Souce Sans Pro', Roboto, FreeSans, sans-serif" font-size="10.00">vector</text>
</a>
</g>
</g>
<!-- Node1&#45;&gt;Node14 -->
<g id="edge16" class="edge">
<title>Node1&#45;&gt;Node14</title>
<path fill="none" stroke="midnightblue" d="M479.74,-235.44C505.97,-226.19 547.9,-211.39 576.75,-201.21"/>
<polygon fill="midnightblue" stroke="midnightblue" points="578.09,-204.44 586.36,-197.82 575.76,-197.84 578.09,-204.44"/>
</g>
<!-- Node3 -->
<g id="node3" class="node">
<title>Node3</title>
<g id="a_node3"><a xlink:href="win32_8h.html" target="_top" xlink:title=" ">
<polygon fill="white" stroke="black" points="62.5,-6 62.5,-25 190.5,-25 190.5,-6 62.5,-6"/>
<text text-anchor="middle" x="126.5" y="-13" font-family="'Souce Sans Pro', Roboto, FreeSans, sans-serif" font-size="10.00">log4cplus/config/win32.h</text>
</a>
</g>
</g>
<!-- Node2&#45;&gt;Node3 -->
<g id="edge2" class="edge">
<title>Node2&#45;&gt;Node3</title>
<path fill="none" stroke="midnightblue" d="M189.04,-67.48C177.55,-58.11 158.87,-42.88 144.91,-31.51"/>
<polygon fill="midnightblue" stroke="midnightblue" points="146.9,-28.61 136.94,-25.01 142.48,-34.04 146.9,-28.61"/>
</g>
<!-- Node4 -->
<g id="node4" class="node">
<title>Node4</title>
<g id="a_node4"><a xlink:href="thread-config_8h.html" target="_top" xlink:title=" ">
<polygon fill="white" stroke="black" points="208.5,-0.5 208.5,-30.5 336.5,-30.5 336.5,-0.5 208.5,-0.5"/>
<text text-anchor="start" x="216.5" y="-18.5" font-family="'Souce Sans Pro', Roboto, FreeSans, sans-serif" font-size="10.00">log4cplus/helpers/thread</text>
<text text-anchor="middle" x="272.5" y="-7.5" font-family="'Souce Sans Pro', Roboto, FreeSans, sans-serif" font-size="10.00">&#45;config.h</text>
</a>
</g>
</g>
<!-- Node2&#45;&gt;Node4 -->
<g id="edge3" class="edge">
<title>Node2&#45;&gt;Node4</title>
<path fill="none" stroke="midnightblue" d="M209.96,-67.48C219.66,-59.57 234.49,-47.48 247.27,-37.07"/>
<polygon fill="midnightblue" stroke="midnightblue" points="249.76,-39.55 255.3,-30.52 245.33,-34.13 249.76,-39.55"/>
</g>
<!-- Node5&#45;&gt;Node2 -->
<g id="edge5" class="edge">
<title>Node5&#45;&gt;Node2</title>
<path fill="none" stroke="midnightblue" d="M159.87,-179.37C166.88,-161.46 183.11,-119.92 192.48,-95.95"/>
<polygon fill="midnightblue" stroke="midnightblue" points="195.76,-97.18 196.14,-86.59 189.24,-94.63 195.76,-97.18"/>
</g>
<!-- Node6 -->
<g id="node6" class="node">
<title>Node6</title>
<g id="a_node6"><a xlink:title=" ">
<polygon fill="white" stroke="#bfbfbf" points="111,-123.5 111,-142.5 152,-142.5 152,-123.5 111,-123.5"/>
<text text-anchor="middle" x="131.5" y="-130.5" font-family="'Souce Sans Pro', Roboto, FreeSans, sans-serif" font-size="10.00">string</text>
</a>
</g>
</g>
<!-- Node5&#45;&gt;Node6 -->
<g id="edge6" class="edge">
<title>Node5&#45;&gt;Node6</title>
<path fill="none" stroke="midnightblue" d="M152.37,-179.08C148.99,-171.77 144.08,-161.18 139.88,-152.1"/>
<polygon fill="midnightblue" stroke="midnightblue" points="142.93,-150.36 135.55,-142.75 136.58,-153.3 142.93,-150.36"/>
</g>
<!-- Node7 -->
<g id="node7" class="node">
<title>Node7</title>
<g id="a_node7"><a xlink:href="tchar_8h.html" target="_top" xlink:title=" ">
<polygon fill="white" stroke="black" points="0,-123.5 0,-142.5 93,-142.5 93,-123.5 0,-123.5"/>
<text text-anchor="middle" x="46.5" y="-130.5" font-family="'Souce Sans Pro', Roboto, FreeSans, sans-serif" font-size="10.00">log4cplus/tchar.h</text>
</a>
</g>
</g>
<!-- Node5&#45;&gt;Node7 -->
<g id="edge7" class="edge">
<title>Node5&#45;&gt;Node7</title>
<path fill="none" stroke="midnightblue" d="M138.83,-179.32C121.11,-170.62 93.6,-157.12 73.21,-147.11"/>
<polygon fill="midnightblue" stroke="midnightblue" points="74.65,-143.92 64.13,-142.65 71.56,-150.2 74.65,-143.92"/>
</g>
<!-- Node7&#45;&gt;Node2 -->
<g id="edge8" class="edge">
<title>Node7&#45;&gt;Node2</title>
<path fill="none" stroke="midnightblue" d="M70.74,-123.44C96.37,-114.4 136.99,-100.06 165.74,-89.92"/>
<polygon fill="midnightblue" stroke="midnightblue" points="167.11,-93.15 175.37,-86.52 164.78,-86.54 167.11,-93.15"/>
</g>
<!-- Node8 -->
<g id="node8" class="node">
<title>Node8</title>
<g id="a_node8"><a xlink:title=" ">
<polygon fill="white" stroke="#bfbfbf" points="21,-67.5 21,-86.5 72,-86.5 72,-67.5 21,-67.5"/>
<text text-anchor="middle" x="46.5" y="-74.5" font-family="'Souce Sans Pro', Roboto, FreeSans, sans-serif" font-size="10.00">cstddef</text>
</a>
</g>
</g>
<!-- Node7&#45;&gt;Node8 -->
<g id="edge9" class="edge">
<title>Node7&#45;&gt;Node8</title>
<path fill="none" stroke="midnightblue" d="M46.5,-123.08C46.5,-116.01 46.5,-105.86 46.5,-96.99"/>
<polygon fill="midnightblue" stroke="midnightblue" points="50,-96.75 46.5,-86.75 43,-96.75 50,-96.75"/>
</g>
<!-- Node9&#45;&gt;Node2 -->
<g id="edge11" class="edge">
<title>Node9&#45;&gt;Node2</title>
<path fill="none" stroke="midnightblue" d="M293.6,-179.38C276.91,-171.71 253.71,-159.2 237.5,-143 224.09,-129.6 213.68,-110.52 207.17,-96.5"/>
<polygon fill="midnightblue" stroke="midnightblue" points="210.2,-94.68 202.97,-86.94 203.79,-97.5 210.2,-94.68"/>
</g>
<!-- Node10 -->
<g id="node10" class="node">
<title>Node10</title>
<g id="a_node10"><a xlink:title=" ">
<polygon fill="white" stroke="#bfbfbf" points="246.5,-123.5 246.5,-142.5 290.5,-142.5 290.5,-123.5 246.5,-123.5"/>
<text text-anchor="middle" x="268.5" y="-130.5" font-family="'Souce Sans Pro', Roboto, FreeSans, sans-serif" font-size="10.00">mutex</text>
</a>
</g>
</g>
<!-- Node9&#45;&gt;Node10 -->
<g id="edge12" class="edge">
<title>Node9&#45;&gt;Node10</title>
<path fill="none" stroke="midnightblue" d="M306.9,-179.08C300.27,-171.3 290.48,-159.8 282.44,-150.37"/>
<polygon fill="midnightblue" stroke="midnightblue" points="285.1,-148.09 275.95,-142.75 279.77,-152.63 285.1,-148.09"/>
</g>
<!-- Node11 -->
<g id="node11" class="node">
<title>Node11</title>
<g id="a_node11"><a xlink:title=" ">
<polygon fill="white" stroke="#bfbfbf" points="308.5,-123.5 308.5,-142.5 404.5,-142.5 404.5,-123.5 308.5,-123.5"/>
<text text-anchor="middle" x="356.5" y="-130.5" font-family="'Souce Sans Pro', Roboto, FreeSans, sans-serif" font-size="10.00">condition_variable</text>
</a>
</g>
</g>
<!-- Node9&#45;&gt;Node11 -->
<g id="edge13" class="edge">
<title>Node9&#45;&gt;Node11</title>
<path fill="none" stroke="midnightblue" d="M321.44,-179.08C327.43,-171.38 336.25,-160.03 343.55,-150.65"/>
<polygon fill="midnightblue" stroke="midnightblue" points="346.32,-152.79 349.69,-142.75 340.79,-148.5 346.32,-152.79"/>
</g>
</g>
</svg>
