<?xml version="1.0" encoding="UTF-8" standalone="no"?>
<!DOCTYPE svg PUBLIC "-//W3C//DTD SVG 1.1//EN"
 "http://www.w3.org/Graphics/SVG/1.1/DTD/svg11.dtd">
<!-- Generated by graphviz version 2.43.0 (0)
 -->
<!-- Title: rootlogger.h Pages: 1 -->
<svg width="1692pt" height="599pt"
 viewBox="0.00 0.00 1692.00 599.00" xmlns="http://www.w3.org/2000/svg" xmlns:xlink="http://www.w3.org/1999/xlink">
<g id="graph0" class="graph" transform="scale(1 1) rotate(0) translate(4 595)">
<title>rootlogger.h</title>
<polygon fill="white" stroke="transparent" points="-4,4 -4,-595 1688,-595 1688,4 -4,4"/>
<!-- Node1 -->
<g id="node1" class="node">
<title>Node1</title>
<g id="a_node1"><a xlink:title=" ">
<polygon fill="#bfbfbf" stroke="black" points="1534,-571.5 1534,-590.5 1604,-590.5 1604,-571.5 1534,-571.5"/>
<text text-anchor="middle" x="1569" y="-578.5" font-family="'Souce Sans Pro', Roboto, FreeSans, sans-serif" font-size="10.00">rootlogger.h</text>
</a>
</g>
</g>
<!-- Node2 -->
<g id="node2" class="node">
<title>Node2</title>
<g id="a_node2"><a xlink:href="config_8hxx.html" target="_top" xlink:title=" ">
<polygon fill="white" stroke="black" points="864.5,-67.5 864.5,-86.5 973.5,-86.5 973.5,-67.5 864.5,-67.5"/>
<text text-anchor="middle" x="919" y="-74.5" font-family="'Souce Sans Pro', Roboto, FreeSans, sans-serif" font-size="10.00">log4cplus/config.hxx</text>
</a>
</g>
</g>
<!-- Node1&#45;&gt;Node2 -->
<g id="edge1" class="edge">
<title>Node1&#45;&gt;Node2</title>
<path fill="none" stroke="midnightblue" d="M1589.83,-571.47C1622.97,-556.36 1684,-521.53 1684,-470 1684,-470 1684,-470 1684,-188 1684,-126.17 1620.46,-139.97 1561,-123 1453.96,-92.44 1124.59,-82.19 983.85,-79.15"/>
<polygon fill="midnightblue" stroke="midnightblue" points="983.72,-75.65 973.65,-78.93 983.57,-82.64 983.72,-75.65"/>
</g>
<!-- Node5 -->
<g id="node5" class="node">
<title>Node5</title>
<g id="a_node5"><a xlink:href="loggerimpl_8h.html" target="_top" xlink:title=" ">
<polygon fill="white" stroke="black" points="1245.5,-515.5 1245.5,-534.5 1380.5,-534.5 1380.5,-515.5 1245.5,-515.5"/>
<text text-anchor="middle" x="1313" y="-522.5" font-family="'Souce Sans Pro', Roboto, FreeSans, sans-serif" font-size="10.00">log4cplus/spi/loggerimpl.h</text>
</a>
</g>
</g>
<!-- Node1&#45;&gt;Node5 -->
<g id="edge4" class="edge">
<title>Node1&#45;&gt;Node5</title>
<path fill="none" stroke="midnightblue" d="M1533.94,-572.6C1489.87,-563.31 1413.91,-547.29 1363.56,-536.67"/>
<polygon fill="midnightblue" stroke="midnightblue" points="1364.04,-533.19 1353.54,-534.55 1362.6,-540.04 1364.04,-533.19"/>
</g>
<!-- Node3 -->
<g id="node3" class="node">
<title>Node3</title>
<g id="a_node3"><a xlink:href="win32_8h.html" target="_top" xlink:title=" ">
<polygon fill="white" stroke="black" points="782,-6 782,-25 910,-25 910,-6 782,-6"/>
<text text-anchor="middle" x="846" y="-13" font-family="'Souce Sans Pro', Roboto, FreeSans, sans-serif" font-size="10.00">log4cplus/config/win32.h</text>
</a>
</g>
</g>
<!-- Node2&#45;&gt;Node3 -->
<g id="edge2" class="edge">
<title>Node2&#45;&gt;Node3</title>
<path fill="none" stroke="midnightblue" d="M908.54,-67.48C897.05,-58.11 878.37,-42.88 864.41,-31.51"/>
<polygon fill="midnightblue" stroke="midnightblue" points="866.4,-28.61 856.44,-25.01 861.98,-34.04 866.4,-28.61"/>
</g>
<!-- Node4 -->
<g id="node4" class="node">
<title>Node4</title>
<g id="a_node4"><a xlink:href="thread-config_8h.html" target="_top" xlink:title=" ">
<polygon fill="white" stroke="black" points="928,-0.5 928,-30.5 1056,-30.5 1056,-0.5 928,-0.5"/>
<text text-anchor="start" x="936" y="-18.5" font-family="'Souce Sans Pro', Roboto, FreeSans, sans-serif" font-size="10.00">log4cplus/helpers/thread</text>
<text text-anchor="middle" x="992" y="-7.5" font-family="'Souce Sans Pro', Roboto, FreeSans, sans-serif" font-size="10.00">&#45;config.h</text>
</a>
</g>
</g>
<!-- Node2&#45;&gt;Node4 -->
<g id="edge3" class="edge">
<title>Node2&#45;&gt;Node4</title>
<path fill="none" stroke="midnightblue" d="M929.46,-67.48C939.16,-59.57 953.99,-47.48 966.77,-37.07"/>
<polygon fill="midnightblue" stroke="midnightblue" points="969.26,-39.55 974.8,-30.52 964.83,-34.13 969.26,-39.55"/>
</g>
<!-- Node5&#45;&gt;Node2 -->
<g id="edge5" class="edge">
<title>Node5&#45;&gt;Node2</title>
<path fill="none" stroke="midnightblue" d="M1380.79,-515.57C1478.15,-501.54 1646,-469.33 1646,-414 1646,-414 1646,-414 1646,-188 1646,-103.78 1550.26,-141.05 1468,-123 1296.19,-85.31 1087.86,-78.55 984.18,-77.73"/>
<polygon fill="midnightblue" stroke="midnightblue" points="983.89,-74.23 973.87,-77.67 983.85,-81.23 983.89,-74.23"/>
</g>
<!-- Node6 -->
<g id="node6" class="node">
<title>Node6</title>
<g id="a_node6"><a xlink:href="tstring_8h.html" target="_top" xlink:title=" ">
<polygon fill="white" stroke="black" points="356.5,-179.5 356.5,-198.5 455.5,-198.5 455.5,-179.5 356.5,-179.5"/>
<text text-anchor="middle" x="406" y="-186.5" font-family="'Souce Sans Pro', Roboto, FreeSans, sans-serif" font-size="10.00">log4cplus/tstring.h</text>
</a>
</g>
</g>
<!-- Node5&#45;&gt;Node6 -->
<g id="edge6" class="edge">
<title>Node5&#45;&gt;Node6</title>
<path fill="none" stroke="midnightblue" d="M1245.38,-523.65C1044.44,-522.21 453.15,-514.96 264,-479 177.15,-462.49 76,-502.41 76,-414 76,-414 76,-414 76,-356 76,-236.42 251.06,-202.97 346.17,-193.62"/>
<polygon fill="midnightblue" stroke="midnightblue" points="346.6,-197.1 356.24,-192.69 345.96,-190.13 346.6,-197.1"/>
</g>
<!-- Node10 -->
<g id="node10" class="node">
<title>Node10</title>
<g id="a_node10"><a xlink:href="appenderattachableimpl_8h.html" target="_top" xlink:title=" ">
<polygon fill="white" stroke="black" points="1079,-459.5 1079,-478.5 1291,-478.5 1291,-459.5 1079,-459.5"/>
<text text-anchor="middle" x="1185" y="-466.5" font-family="'Souce Sans Pro', Roboto, FreeSans, sans-serif" font-size="10.00">log4cplus/helpers/appenderattachableimpl.h</text>
</a>
</g>
</g>
<!-- Node5&#45;&gt;Node10 -->
<g id="edge12" class="edge">
<title>Node5&#45;&gt;Node10</title>
<path fill="none" stroke="midnightblue" d="M1292.72,-515.44C1271.65,-506.56 1238.48,-492.56 1214.51,-482.45"/>
<polygon fill="midnightblue" stroke="midnightblue" points="1215.76,-479.18 1205.19,-478.52 1213.04,-485.63 1215.76,-479.18"/>
</g>
<!-- Node11 -->
<g id="node11" class="node">
<title>Node11</title>
<g id="a_node11"><a xlink:href="pointer_8h.html" target="_top" xlink:title=" ">
<polygon fill="white" stroke="black" points="1276,-235.5 1276,-254.5 1414,-254.5 1414,-235.5 1276,-235.5"/>
<text text-anchor="middle" x="1345" y="-242.5" font-family="'Souce Sans Pro', Roboto, FreeSans, sans-serif" font-size="10.00">log4cplus/helpers/pointer.h</text>
</a>
</g>
</g>
<!-- Node5&#45;&gt;Node11 -->
<g id="edge68" class="edge">
<title>Node5&#45;&gt;Node11</title>
<path fill="none" stroke="midnightblue" d="M1349.34,-515.39C1395.15,-502.12 1468,-471.91 1468,-414 1468,-414 1468,-414 1468,-356 1468,-307.48 1414.16,-275.01 1377.73,-258.6"/>
<polygon fill="midnightblue" stroke="midnightblue" points="1378.99,-255.33 1368.42,-254.58 1376.22,-261.76 1378.99,-255.33"/>
</g>
<!-- Node22 -->
<g id="node22" class="node">
<title>Node22</title>
<g id="a_node22"><a xlink:title=" ">
<polygon fill="white" stroke="#bfbfbf" points="54,-179.5 54,-198.5 98,-198.5 98,-179.5 54,-179.5"/>
<text text-anchor="middle" x="76" y="-186.5" font-family="'Souce Sans Pro', Roboto, FreeSans, sans-serif" font-size="10.00">vector</text>
</a>
</g>
</g>
<!-- Node5&#45;&gt;Node22 -->
<g id="edge73" class="edge">
<title>Node5&#45;&gt;Node22</title>
<path fill="none" stroke="midnightblue" d="M1245.4,-523.78C1005.02,-522.68 200.2,-516.22 91,-479 43.96,-462.96 0,-463.7 0,-414 0,-414 0,-414 0,-300 0,-260.28 33.96,-224.5 56.48,-205.15"/>
<polygon fill="midnightblue" stroke="midnightblue" points="58.98,-207.63 64.46,-198.57 54.52,-202.24 58.98,-207.63"/>
</g>
<!-- Node28 -->
<g id="node28" class="node">
<title>Node28</title>
<g id="a_node28"><a xlink:title=" ">
<polygon fill="white" stroke="#bfbfbf" points="218,-235.5 218,-254.5 272,-254.5 272,-235.5 218,-235.5"/>
<text text-anchor="middle" x="245" y="-242.5" font-family="'Souce Sans Pro', Roboto, FreeSans, sans-serif" font-size="10.00">memory</text>
</a>
</g>
</g>
<!-- Node5&#45;&gt;Node28 -->
<g id="edge72" class="edge">
<title>Node5&#45;&gt;Node28</title>
<path fill="none" stroke="midnightblue" d="M1245.28,-524.51C1002.49,-525.45 190,-520.64 190,-414 190,-414 190,-414 190,-356 190,-319.57 214.43,-282.84 230.73,-262.39"/>
<polygon fill="midnightblue" stroke="midnightblue" points="233.44,-264.6 237.12,-254.67 228.05,-260.14 233.44,-264.6"/>
</g>
<!-- Node32 -->
<g id="node32" class="node">
<title>Node32</title>
<g id="a_node32"><a xlink:href="loggerfactory_8h.html" target="_top" xlink:title=" ">
<polygon fill="white" stroke="black" points="1432,-235.5 1432,-254.5 1580,-254.5 1580,-235.5 1432,-235.5"/>
<text text-anchor="middle" x="1506" y="-242.5" font-family="'Souce Sans Pro', Roboto, FreeSans, sans-serif" font-size="10.00">log4cplus/spi/loggerfactory.h</text>
</a>
</g>
</g>
<!-- Node5&#45;&gt;Node32 -->
<g id="edge69" class="edge">
<title>Node5&#45;&gt;Node32</title>
<path fill="none" stroke="midnightblue" d="M1373.01,-515.45C1429.66,-503.59 1506,-476.09 1506,-414 1506,-414 1506,-414 1506,-356 1506,-323.95 1506,-286.64 1506,-264.75"/>
<polygon fill="midnightblue" stroke="midnightblue" points="1509.5,-264.56 1506,-254.56 1502.5,-264.56 1509.5,-264.56"/>
</g>
<!-- Node6&#45;&gt;Node2 -->
<g id="edge7" class="edge">
<title>Node6&#45;&gt;Node2</title>
<path fill="none" stroke="midnightblue" d="M404.51,-179.32C402.65,-165.22 401.37,-137.45 417,-123 448.47,-93.9 725.86,-82.98 854.28,-79.46"/>
<polygon fill="midnightblue" stroke="midnightblue" points="854.47,-82.96 864.37,-79.19 854.28,-75.96 854.47,-82.96"/>
</g>
<!-- Node7 -->
<g id="node7" class="node">
<title>Node7</title>
<g id="a_node7"><a xlink:title=" ">
<polygon fill="white" stroke="#bfbfbf" points="328.5,-123.5 328.5,-142.5 369.5,-142.5 369.5,-123.5 328.5,-123.5"/>
<text text-anchor="middle" x="349" y="-130.5" font-family="'Souce Sans Pro', Roboto, FreeSans, sans-serif" font-size="10.00">string</text>
</a>
</g>
</g>
<!-- Node6&#45;&gt;Node7 -->
<g id="edge8" class="edge">
<title>Node6&#45;&gt;Node7</title>
<path fill="none" stroke="midnightblue" d="M396.84,-179.32C388.5,-171.42 375.97,-159.55 365.82,-149.94"/>
<polygon fill="midnightblue" stroke="midnightblue" points="367.99,-147.17 358.32,-142.83 363.18,-152.25 367.99,-147.17"/>
</g>
<!-- Node8 -->
<g id="node8" class="node">
<title>Node8</title>
<g id="a_node8"><a xlink:href="tchar_8h.html" target="_top" xlink:title=" ">
<polygon fill="white" stroke="black" points="426.5,-123.5 426.5,-142.5 519.5,-142.5 519.5,-123.5 426.5,-123.5"/>
<text text-anchor="middle" x="473" y="-130.5" font-family="'Souce Sans Pro', Roboto, FreeSans, sans-serif" font-size="10.00">log4cplus/tchar.h</text>
</a>
</g>
</g>
<!-- Node6&#45;&gt;Node8 -->
<g id="edge9" class="edge">
<title>Node6&#45;&gt;Node8</title>
<path fill="none" stroke="midnightblue" d="M416.76,-179.32C426.77,-171.26 441.89,-159.08 453.93,-149.37"/>
<polygon fill="midnightblue" stroke="midnightblue" points="456.45,-151.83 462.04,-142.83 452.06,-146.38 456.45,-151.83"/>
</g>
<!-- Node8&#45;&gt;Node2 -->
<g id="edge10" class="edge">
<title>Node8&#45;&gt;Node2</title>
<path fill="none" stroke="midnightblue" d="M519.61,-124.98C524.46,-124.29 529.33,-123.62 534,-123 646.53,-108.13 777.92,-93.32 854.45,-84.94"/>
<polygon fill="midnightblue" stroke="midnightblue" points="854.86,-88.42 864.42,-83.86 854.1,-81.46 854.86,-88.42"/>
</g>
<!-- Node9 -->
<g id="node9" class="node">
<title>Node9</title>
<g id="a_node9"><a xlink:title=" ">
<polygon fill="white" stroke="#bfbfbf" points="447.5,-67.5 447.5,-86.5 498.5,-86.5 498.5,-67.5 447.5,-67.5"/>
<text text-anchor="middle" x="473" y="-74.5" font-family="'Souce Sans Pro', Roboto, FreeSans, sans-serif" font-size="10.00">cstddef</text>
</a>
</g>
</g>
<!-- Node8&#45;&gt;Node9 -->
<g id="edge11" class="edge">
<title>Node8&#45;&gt;Node9</title>
<path fill="none" stroke="midnightblue" d="M473,-123.08C473,-116.01 473,-105.86 473,-96.99"/>
<polygon fill="midnightblue" stroke="midnightblue" points="476.5,-96.75 473,-86.75 469.5,-96.75 476.5,-96.75"/>
</g>
<!-- Node10&#45;&gt;Node2 -->
<g id="edge13" class="edge">
<title>Node10&#45;&gt;Node2</title>
<path fill="none" stroke="midnightblue" d="M1218.53,-459.46C1246.82,-451.68 1288.02,-438.98 1322,-423 1453.34,-361.25 1652.76,-365.37 1589,-235 1549.74,-154.72 1507.08,-150.34 1422,-123 1342.19,-97.35 1100.95,-84.91 983.98,-80.26"/>
<polygon fill="midnightblue" stroke="midnightblue" points="983.86,-76.75 973.74,-79.86 983.59,-83.75 983.86,-76.75"/>
</g>
<!-- Node10&#45;&gt;Node6 -->
<g id="edge14" class="edge">
<title>Node10&#45;&gt;Node6</title>
<path fill="none" stroke="midnightblue" d="M1078.8,-468C919.51,-465.11 611.08,-448.3 364,-367 306.17,-347.97 285.4,-350.41 239,-311 210.36,-286.68 178.47,-264.29 202,-235 219.82,-212.82 292.42,-200.93 345.96,-195.04"/>
<polygon fill="midnightblue" stroke="midnightblue" points="346.47,-198.5 356.05,-193.97 345.74,-191.54 346.47,-198.5"/>
</g>
<!-- Node10&#45;&gt;Node11 -->
<g id="edge15" class="edge">
<title>Node10&#45;&gt;Node11</title>
<path fill="none" stroke="midnightblue" d="M1234.34,-459.48C1257.29,-453.1 1283.18,-442.04 1300,-423 1340.35,-377.31 1345.47,-300.41 1345.52,-264.95"/>
<polygon fill="midnightblue" stroke="midnightblue" points="1349.02,-264.58 1345.39,-254.62 1342.02,-264.67 1349.02,-264.58"/>
</g>
<!-- Node12 -->
<g id="node12" class="node">
<title>Node12</title>
<g id="a_node12"><a xlink:href="syncprims_8h.html" target="_top" xlink:title=" ">
<polygon fill="white" stroke="black" points="1053.5,-179.5 1053.5,-198.5 1202.5,-198.5 1202.5,-179.5 1053.5,-179.5"/>
<text text-anchor="middle" x="1128" y="-186.5" font-family="'Souce Sans Pro', Roboto, FreeSans, sans-serif" font-size="10.00">log4cplus/thread/syncprims.h</text>
</a>
</g>
</g>
<!-- Node10&#45;&gt;Node12 -->
<g id="edge65" class="edge">
<title>Node10&#45;&gt;Node12</title>
<path fill="none" stroke="midnightblue" d="M1191.5,-459.26C1205.43,-439.44 1235.96,-389.49 1224,-347 1207.99,-290.11 1164.99,-233.46 1142.37,-206.41"/>
<polygon fill="midnightblue" stroke="midnightblue" points="1144.95,-204.04 1135.8,-198.7 1139.62,-208.58 1144.95,-204.04"/>
</g>
<!-- Node18 -->
<g id="node18" class="node">
<title>Node18</title>
<g id="a_node18"><a xlink:href="appenderattachable_8h.html" target="_top" xlink:title=" ">
<polygon fill="white" stroke="black" points="998,-403.5 998,-422.5 1172,-422.5 1172,-403.5 998,-403.5"/>
<text text-anchor="middle" x="1085" y="-410.5" font-family="'Souce Sans Pro', Roboto, FreeSans, sans-serif" font-size="10.00">log4cplus/spi/appenderattachable.h</text>
</a>
</g>
</g>
<!-- Node10&#45;&gt;Node18 -->
<g id="edge24" class="edge">
<title>Node10&#45;&gt;Node18</title>
<path fill="none" stroke="midnightblue" d="M1168.93,-459.32C1153.04,-450.74 1128.49,-437.49 1110.04,-427.52"/>
<polygon fill="midnightblue" stroke="midnightblue" points="1111.49,-424.33 1101.03,-422.65 1108.16,-430.49 1111.49,-424.33"/>
</g>
<!-- Node10&#45;&gt;Node22 -->
<g id="edge67" class="edge">
<title>Node10&#45;&gt;Node22</title>
<path fill="none" stroke="midnightblue" d="M1078.76,-467.67C943.27,-465.73 702.18,-457.19 499,-423 406.28,-407.4 380.59,-405.9 295,-367 212.97,-329.72 191.92,-316.43 126,-255 110.6,-240.65 96.31,-221.19 86.98,-207.31"/>
<polygon fill="midnightblue" stroke="midnightblue" points="89.77,-205.18 81.37,-198.73 83.91,-209.01 89.77,-205.18"/>
</g>
<!-- Node10&#45;&gt;Node28 -->
<g id="edge66" class="edge">
<title>Node10&#45;&gt;Node28</title>
<path fill="none" stroke="midnightblue" d="M1078.83,-459.63C871.03,-441.62 419.54,-393.93 290,-311 272.53,-299.82 260,-279.18 252.67,-264.16"/>
<polygon fill="midnightblue" stroke="midnightblue" points="255.76,-262.49 248.43,-254.83 249.39,-265.39 255.76,-262.49"/>
</g>
<!-- Node11&#45;&gt;Node2 -->
<g id="edge16" class="edge">
<title>Node11&#45;&gt;Node2</title>
<path fill="none" stroke="midnightblue" d="M1342.27,-235.32C1337.84,-222.16 1328.14,-196.83 1314,-179 1289.24,-147.78 1280.6,-138.74 1244,-123 1198.52,-103.44 1064.98,-89.7 983.92,-82.89"/>
<polygon fill="midnightblue" stroke="midnightblue" points="984.07,-79.39 973.82,-82.05 983.49,-86.37 984.07,-79.39"/>
</g>
<!-- Node11&#45;&gt;Node12 -->
<g id="edge17" class="edge">
<title>Node11&#45;&gt;Node12</title>
<path fill="none" stroke="midnightblue" d="M1310.62,-235.44C1273.08,-226.1 1212.87,-211.12 1171.93,-200.93"/>
<polygon fill="midnightblue" stroke="midnightblue" points="1172.77,-197.53 1162.22,-198.52 1171.08,-204.33 1172.77,-197.53"/>
</g>
<!-- Node15 -->
<g id="node15" class="node">
<title>Node15</title>
<g id="a_node15"><a xlink:title=" ">
<polygon fill="white" stroke="#bfbfbf" points="1430.5,-179.5 1430.5,-198.5 1489.5,-198.5 1489.5,-179.5 1430.5,-179.5"/>
<text text-anchor="middle" x="1460" y="-186.5" font-family="'Souce Sans Pro', Roboto, FreeSans, sans-serif" font-size="10.00">algorithm</text>
</a>
</g>
</g>
<!-- Node11&#45;&gt;Node15 -->
<g id="edge21" class="edge">
<title>Node11&#45;&gt;Node15</title>
<path fill="none" stroke="midnightblue" d="M1363.22,-235.44C1381.9,-226.68 1411.16,-212.94 1432.62,-202.86"/>
<polygon fill="midnightblue" stroke="midnightblue" points="1434.3,-205.93 1441.86,-198.52 1431.32,-199.6 1434.3,-205.93"/>
</g>
<!-- Node16 -->
<g id="node16" class="node">
<title>Node16</title>
<g id="a_node16"><a xlink:title=" ">
<polygon fill="white" stroke="#bfbfbf" points="1362,-179.5 1362,-198.5 1412,-198.5 1412,-179.5 1362,-179.5"/>
<text text-anchor="middle" x="1387" y="-186.5" font-family="'Souce Sans Pro', Roboto, FreeSans, sans-serif" font-size="10.00">cassert</text>
</a>
</g>
</g>
<!-- Node11&#45;&gt;Node16 -->
<g id="edge22" class="edge">
<title>Node11&#45;&gt;Node16</title>
<path fill="none" stroke="midnightblue" d="M1351.94,-235.08C1357.93,-227.38 1366.75,-216.03 1374.05,-206.65"/>
<polygon fill="midnightblue" stroke="midnightblue" points="1376.82,-208.79 1380.19,-198.75 1371.29,-204.5 1376.82,-208.79"/>
</g>
<!-- Node17 -->
<g id="node17" class="node">
<title>Node17</title>
<g id="a_node17"><a xlink:title=" ">
<polygon fill="white" stroke="#bfbfbf" points="1258.5,-179.5 1258.5,-198.5 1305.5,-198.5 1305.5,-179.5 1258.5,-179.5"/>
<text text-anchor="middle" x="1282" y="-186.5" font-family="'Souce Sans Pro', Roboto, FreeSans, sans-serif" font-size="10.00">atomic</text>
</a>
</g>
</g>
<!-- Node11&#45;&gt;Node17 -->
<g id="edge23" class="edge">
<title>Node11&#45;&gt;Node17</title>
<path fill="none" stroke="midnightblue" d="M1334.88,-235.32C1325.47,-227.26 1311.26,-215.08 1299.93,-205.37"/>
<polygon fill="midnightblue" stroke="midnightblue" points="1302.18,-202.68 1292.31,-198.83 1297.62,-208 1302.18,-202.68"/>
</g>
<!-- Node12&#45;&gt;Node2 -->
<g id="edge18" class="edge">
<title>Node12&#45;&gt;Node2</title>
<path fill="none" stroke="midnightblue" d="M1132.08,-179.3C1137.8,-165.67 1146.12,-139.17 1133,-123 1114.45,-100.14 1039.83,-88.46 983.88,-82.81"/>
<polygon fill="midnightblue" stroke="midnightblue" points="983.96,-79.3 973.67,-81.82 983.29,-86.27 983.96,-79.3"/>
</g>
<!-- Node13 -->
<g id="node13" class="node">
<title>Node13</title>
<g id="a_node13"><a xlink:title=" ">
<polygon fill="white" stroke="#bfbfbf" points="966,-123.5 966,-142.5 1010,-142.5 1010,-123.5 966,-123.5"/>
<text text-anchor="middle" x="988" y="-130.5" font-family="'Souce Sans Pro', Roboto, FreeSans, sans-serif" font-size="10.00">mutex</text>
</a>
</g>
</g>
<!-- Node12&#45;&gt;Node13 -->
<g id="edge19" class="edge">
<title>Node12&#45;&gt;Node13</title>
<path fill="none" stroke="midnightblue" d="M1105.82,-179.44C1082.57,-170.48 1045.85,-156.31 1019.58,-146.18"/>
<polygon fill="midnightblue" stroke="midnightblue" points="1020.67,-142.85 1010.08,-142.52 1018.15,-149.38 1020.67,-142.85"/>
</g>
<!-- Node14 -->
<g id="node14" class="node">
<title>Node14</title>
<g id="a_node14"><a xlink:title=" ">
<polygon fill="white" stroke="#bfbfbf" points="1028,-123.5 1028,-142.5 1124,-142.5 1124,-123.5 1028,-123.5"/>
<text text-anchor="middle" x="1076" y="-130.5" font-family="'Souce Sans Pro', Roboto, FreeSans, sans-serif" font-size="10.00">condition_variable</text>
</a>
</g>
</g>
<!-- Node12&#45;&gt;Node14 -->
<g id="edge20" class="edge">
<title>Node12&#45;&gt;Node14</title>
<path fill="none" stroke="midnightblue" d="M1119.41,-179.08C1111.84,-171.22 1100.62,-159.57 1091.49,-150.08"/>
<polygon fill="midnightblue" stroke="midnightblue" points="1093.88,-147.53 1084.43,-142.75 1088.84,-152.38 1093.88,-147.53"/>
</g>
<!-- Node18&#45;&gt;Node2 -->
<g id="edge25" class="edge">
<title>Node18&#45;&gt;Node2</title>
<path fill="none" stroke="midnightblue" d="M1096.17,-403.38C1133.67,-373.35 1250.59,-270.1 1211,-179 1196.46,-145.55 1183.5,-139.56 1151,-123 1098.61,-96.31 1032.18,-85.4 983.84,-80.96"/>
<polygon fill="midnightblue" stroke="midnightblue" points="984.07,-77.47 973.81,-80.11 983.48,-84.45 984.07,-77.47"/>
</g>
<!-- Node18&#45;&gt;Node6 -->
<g id="edge62" class="edge">
<title>Node18&#45;&gt;Node6</title>
<path fill="none" stroke="midnightblue" d="M997.65,-412.46C790.61,-411.25 281.87,-393.97 209,-255 204.87,-247.13 203.46,-241.95 209,-235 225.97,-213.72 294.73,-201.7 346.27,-195.54"/>
<polygon fill="midnightblue" stroke="midnightblue" points="346.8,-199 356.33,-194.39 346,-192.05 346.8,-199"/>
</g>
<!-- Node18&#45;&gt;Node11 -->
<g id="edge63" class="edge">
<title>Node18&#45;&gt;Node11</title>
<path fill="none" stroke="midnightblue" d="M1128.6,-403.48C1157.19,-396.58 1194.58,-385.01 1224,-367 1270.47,-338.56 1312.45,-288.78 1332.53,-262.82"/>
<polygon fill="midnightblue" stroke="midnightblue" points="1335.43,-264.79 1338.69,-254.71 1329.86,-260.56 1335.43,-264.79"/>
</g>
<!-- Node19 -->
<g id="node19" class="node">
<title>Node19</title>
<g id="a_node19"><a xlink:href="appender_8h.html" target="_top" xlink:title=" ">
<polygon fill="white" stroke="black" points="889,-347.5 889,-366.5 1001,-366.5 1001,-347.5 889,-347.5"/>
<text text-anchor="middle" x="945" y="-354.5" font-family="'Souce Sans Pro', Roboto, FreeSans, sans-serif" font-size="10.00">log4cplus/appender.h</text>
</a>
</g>
</g>
<!-- Node18&#45;&gt;Node19 -->
<g id="edge26" class="edge">
<title>Node18&#45;&gt;Node19</title>
<path fill="none" stroke="midnightblue" d="M1062.82,-403.44C1039.57,-394.48 1002.85,-380.31 976.58,-370.18"/>
<polygon fill="midnightblue" stroke="midnightblue" points="977.67,-366.85 967.08,-366.52 975.15,-373.38 977.67,-366.85"/>
</g>
<!-- Node18&#45;&gt;Node22 -->
<g id="edge64" class="edge">
<title>Node18&#45;&gt;Node22</title>
<path fill="none" stroke="midnightblue" d="M997.81,-410.45C833,-406.88 481.74,-396.03 364,-367 247.79,-338.34 133.95,-243.01 92.46,-205.42"/>
<polygon fill="midnightblue" stroke="midnightblue" points="94.68,-202.7 84.94,-198.52 89.94,-207.86 94.68,-202.7"/>
</g>
<!-- Node19&#45;&gt;Node2 -->
<g id="edge27" class="edge">
<title>Node19&#45;&gt;Node2</title>
<path fill="none" stroke="midnightblue" d="M888.89,-354.01C761.34,-349.1 457.54,-335 418,-311 337.27,-262 254.77,-192.23 319,-123 354.82,-84.39 706.52,-78.69 854.22,-78"/>
<polygon fill="midnightblue" stroke="midnightblue" points="854.51,-81.5 864.49,-77.96 854.48,-74.5 854.51,-81.5"/>
</g>
<!-- Node19&#45;&gt;Node6 -->
<g id="edge47" class="edge">
<title>Node19&#45;&gt;Node6</title>
<path fill="none" stroke="midnightblue" d="M888.96,-354.64C764.01,-351.09 470.87,-339.77 437,-311 407.21,-285.69 404,-236.04 404.71,-208.87"/>
<polygon fill="midnightblue" stroke="midnightblue" points="408.21,-208.89 405.19,-198.73 401.22,-208.56 408.21,-208.89"/>
</g>
<!-- Node19&#45;&gt;Node11 -->
<g id="edge48" class="edge">
<title>Node19&#45;&gt;Node11</title>
<path fill="none" stroke="midnightblue" d="M1001.28,-348.8C1050.61,-341.71 1123.94,-329.27 1186,-311 1233.76,-296.94 1286.84,-273.58 1318,-259.02"/>
<polygon fill="midnightblue" stroke="midnightblue" points="1319.76,-262.06 1327.31,-254.63 1316.77,-255.73 1319.76,-262.06"/>
</g>
<!-- Node19&#45;&gt;Node13 -->
<g id="edge59" class="edge">
<title>Node19&#45;&gt;Node13</title>
<path fill="none" stroke="midnightblue" d="M965.63,-347.48C996.52,-333.44 1053.68,-302.21 1077,-255 1080.94,-247.03 1081.51,-242.66 1077,-235 1060.23,-206.55 1033.51,-224.06 1012,-199 1000.62,-185.75 994.43,-166.62 991.2,-152.54"/>
<polygon fill="midnightblue" stroke="midnightblue" points="994.6,-151.67 989.21,-142.55 987.73,-153.04 994.6,-151.67"/>
</g>
<!-- Node19&#45;&gt;Node14 -->
<g id="edge61" class="edge">
<title>Node19&#45;&gt;Node14</title>
<path fill="none" stroke="midnightblue" d="M978.22,-347.42C1000.97,-340.35 1030.92,-328.59 1053,-311 1076.92,-291.94 1083.67,-284.13 1093,-255 1095.71,-246.54 1097.01,-242.93 1093,-235 1080.8,-210.89 1056.2,-223.11 1044,-199 1035.63,-182.46 1047.51,-163.41 1059.09,-150.24"/>
<polygon fill="midnightblue" stroke="midnightblue" points="1061.74,-152.53 1066.08,-142.86 1056.66,-147.71 1061.74,-152.53"/>
</g>
<!-- Node19&#45;&gt;Node17 -->
<g id="edge60" class="edge">
<title>Node19&#45;&gt;Node17</title>
<path fill="none" stroke="midnightblue" d="M1001.04,-351.38C1043.35,-346.09 1101.8,-334.83 1148,-311 1199.56,-284.4 1246.6,-233.02 1268.72,-206.59"/>
<polygon fill="midnightblue" stroke="midnightblue" points="1271.59,-208.61 1275.23,-198.66 1266.18,-204.16 1271.59,-208.61"/>
</g>
<!-- Node20 -->
<g id="node20" class="node">
<title>Node20</title>
<g id="a_node20"><a xlink:href="layout_8h.html" target="_top" xlink:title=" ">
<polygon fill="white" stroke="black" points="446,-291.5 446,-310.5 544,-310.5 544,-291.5 446,-291.5"/>
<text text-anchor="middle" x="495" y="-298.5" font-family="'Souce Sans Pro', Roboto, FreeSans, sans-serif" font-size="10.00">log4cplus/layout.h</text>
</a>
</g>
</g>
<!-- Node19&#45;&gt;Node20 -->
<g id="edge28" class="edge">
<title>Node19&#45;&gt;Node20</title>
<path fill="none" stroke="midnightblue" d="M888.92,-349.27C803.48,-339.02 641.45,-319.57 554.19,-309.1"/>
<polygon fill="midnightblue" stroke="midnightblue" points="554.54,-305.62 544.19,-307.9 553.7,-312.57 554.54,-305.62"/>
</g>
<!-- Node21 -->
<g id="node21" class="node">
<title>Node21</title>
<g id="a_node21"><a xlink:href="loglevel_8h.html" target="_top" xlink:title="This header defines the LogLevel type.">
<polygon fill="white" stroke="black" points="480,-235.5 480,-254.5 584,-254.5 584,-235.5 480,-235.5"/>
<text text-anchor="middle" x="532" y="-242.5" font-family="'Souce Sans Pro', Roboto, FreeSans, sans-serif" font-size="10.00">log4cplus/loglevel.h</text>
</a>
</g>
</g>
<!-- Node19&#45;&gt;Node21 -->
<g id="edge46" class="edge">
<title>Node19&#45;&gt;Node21</title>
<path fill="none" stroke="midnightblue" d="M912.94,-347.46C838.98,-327.76 656.48,-279.15 573.85,-257.15"/>
<polygon fill="midnightblue" stroke="midnightblue" points="574.61,-253.73 564.04,-254.53 572.81,-260.49 574.61,-253.73"/>
</g>
<!-- Node19&#45;&gt;Node28 -->
<g id="edge58" class="edge">
<title>Node19&#45;&gt;Node28</title>
<path fill="none" stroke="midnightblue" d="M888.71,-356.06C756.46,-355.53 429.44,-350.18 328,-311 300.67,-300.44 275.06,-277.67 259.71,-262.09"/>
<polygon fill="midnightblue" stroke="midnightblue" points="262.1,-259.52 252.66,-254.7 257.03,-264.35 262.1,-259.52"/>
</g>
<!-- Node29 -->
<g id="node29" class="node">
<title>Node29</title>
<g id="a_node29"><a xlink:href="filter_8h.html" target="_top" xlink:title="This header defines Filter and all of it&#39;s subclasses.">
<polygon fill="white" stroke="black" points="846.5,-291.5 846.5,-310.5 953.5,-310.5 953.5,-291.5 846.5,-291.5"/>
<text text-anchor="middle" x="900" y="-298.5" font-family="'Souce Sans Pro', Roboto, FreeSans, sans-serif" font-size="10.00">log4cplus/spi/filter.h</text>
</a>
</g>
</g>
<!-- Node19&#45;&gt;Node29 -->
<g id="edge49" class="edge">
<title>Node19&#45;&gt;Node29</title>
<path fill="none" stroke="midnightblue" d="M937.57,-347.08C931.15,-339.38 921.69,-328.03 913.88,-318.65"/>
<polygon fill="midnightblue" stroke="midnightblue" points="916.38,-316.19 907.29,-310.75 911.01,-320.67 916.38,-316.19"/>
</g>
<!-- Node31 -->
<g id="node31" class="node">
<title>Node31</title>
<g id="a_node31"><a xlink:href="lockfile_8h.html" target="_top" xlink:title=" ">
<polygon fill="white" stroke="black" points="928,-235.5 928,-254.5 1068,-254.5 1068,-235.5 928,-235.5"/>
<text text-anchor="middle" x="998" y="-242.5" font-family="'Souce Sans Pro', Roboto, FreeSans, sans-serif" font-size="10.00">log4cplus/helpers/lockfile.h</text>
</a>
</g>
</g>
<!-- Node19&#45;&gt;Node31 -->
<g id="edge54" class="edge">
<title>Node19&#45;&gt;Node31</title>
<path fill="none" stroke="midnightblue" d="M949.16,-347.37C957.83,-329.38 977.98,-287.55 989.51,-263.63"/>
<polygon fill="midnightblue" stroke="midnightblue" points="992.67,-265.12 993.86,-254.59 986.37,-262.08 992.67,-265.12"/>
</g>
<!-- Node20&#45;&gt;Node2 -->
<g id="edge29" class="edge">
<title>Node20&#45;&gt;Node2</title>
<path fill="none" stroke="midnightblue" d="M544.02,-299.38C599.88,-297 692.77,-287.87 765,-255 838.54,-221.54 890.57,-133.67 910.28,-95.79"/>
<polygon fill="midnightblue" stroke="midnightblue" points="913.58,-97.03 914.97,-86.52 907.33,-93.87 913.58,-97.03"/>
</g>
<!-- Node20&#45;&gt;Node6 -->
<g id="edge38" class="edge">
<title>Node20&#45;&gt;Node6</title>
<path fill="none" stroke="midnightblue" d="M488.02,-291.37C473.26,-273.14 438.71,-230.43 419.49,-206.68"/>
<polygon fill="midnightblue" stroke="midnightblue" points="421.96,-204.16 412.95,-198.59 416.52,-208.57 421.96,-204.16"/>
</g>
<!-- Node20&#45;&gt;Node21 -->
<g id="edge30" class="edge">
<title>Node20&#45;&gt;Node21</title>
<path fill="none" stroke="midnightblue" d="M501.11,-291.08C506.28,-283.53 513.85,-272.49 520.19,-263.23"/>
<polygon fill="midnightblue" stroke="midnightblue" points="523.24,-264.98 526,-254.75 517.46,-261.02 523.24,-264.98"/>
</g>
<!-- Node20&#45;&gt;Node22 -->
<g id="edge44" class="edge">
<title>Node20&#45;&gt;Node22</title>
<path fill="none" stroke="midnightblue" d="M469.16,-291.43C429.13,-278.32 349.56,-252.91 281,-235 220.35,-219.16 148.64,-204.29 108.13,-196.24"/>
<polygon fill="midnightblue" stroke="midnightblue" points="108.77,-192.8 98.28,-194.29 107.41,-199.66 108.77,-192.8"/>
</g>
<!-- Node23 -->
<g id="node23" class="node">
<title>Node23</title>
<g id="a_node23"><a xlink:href="streams_8h.html" target="_top" xlink:title=" ">
<polygon fill="white" stroke="black" points="483.5,-179.5 483.5,-198.5 590.5,-198.5 590.5,-179.5 483.5,-179.5"/>
<text text-anchor="middle" x="537" y="-186.5" font-family="'Souce Sans Pro', Roboto, FreeSans, sans-serif" font-size="10.00">log4cplus/streams.h</text>
</a>
</g>
</g>
<!-- Node20&#45;&gt;Node23 -->
<g id="edge34" class="edge">
<title>Node20&#45;&gt;Node23</title>
<path fill="none" stroke="midnightblue" d="M487.24,-291.28C476.86,-278.5 460.88,-254.14 471,-235 478.42,-220.95 492.42,-210.47 505.62,-203.17"/>
<polygon fill="midnightblue" stroke="midnightblue" points="507.22,-206.28 514.54,-198.62 504.04,-200.04 507.22,-206.28"/>
</g>
<!-- Node25 -->
<g id="node25" class="node">
<title>Node25</title>
<g id="a_node25"><a xlink:href="timehelper_8h.html" target="_top" xlink:title=" ">
<polygon fill="white" stroke="black" points="602,-235.5 602,-254.5 756,-254.5 756,-235.5 602,-235.5"/>
<text text-anchor="middle" x="679" y="-242.5" font-family="'Souce Sans Pro', Roboto, FreeSans, sans-serif" font-size="10.00">log4cplus/helpers/timehelper.h</text>
</a>
</g>
</g>
<!-- Node20&#45;&gt;Node25 -->
<g id="edge39" class="edge">
<title>Node20&#45;&gt;Node25</title>
<path fill="none" stroke="midnightblue" d="M524.16,-291.44C555.51,-282.24 605.53,-267.56 640.2,-257.39"/>
<polygon fill="midnightblue" stroke="midnightblue" points="641.37,-260.69 649.98,-254.52 639.4,-253.97 641.37,-260.69"/>
</g>
<!-- Node20&#45;&gt;Node28 -->
<g id="edge45" class="edge">
<title>Node20&#45;&gt;Node28</title>
<path fill="none" stroke="midnightblue" d="M455.39,-291.44C407.77,-281.16 328.49,-264.03 282.05,-254"/>
<polygon fill="midnightblue" stroke="midnightblue" points="282.61,-250.54 272.1,-251.85 281.14,-257.39 282.61,-250.54"/>
</g>
<!-- Node21&#45;&gt;Node2 -->
<g id="edge31" class="edge">
<title>Node21&#45;&gt;Node2</title>
<path fill="none" stroke="midnightblue" d="M544.78,-235.47C577.66,-213.86 668.41,-156.3 751,-123 788.31,-107.96 832.28,-96.39 865.88,-88.74"/>
<polygon fill="midnightblue" stroke="midnightblue" points="866.96,-92.09 875.95,-86.5 865.43,-85.26 866.96,-92.09"/>
</g>
<!-- Node21&#45;&gt;Node6 -->
<g id="edge33" class="edge">
<title>Node21&#45;&gt;Node6</title>
<path fill="none" stroke="midnightblue" d="M512.03,-235.44C491.39,-226.6 458.94,-212.69 435.37,-202.59"/>
<polygon fill="midnightblue" stroke="midnightblue" points="436.44,-199.24 425.87,-198.52 433.68,-205.67 436.44,-199.24"/>
</g>
<!-- Node21&#45;&gt;Node22 -->
<g id="edge32" class="edge">
<title>Node21&#45;&gt;Node22</title>
<path fill="none" stroke="midnightblue" d="M479.69,-237.81C384.73,-226.56 186.61,-203.1 108.58,-193.86"/>
<polygon fill="midnightblue" stroke="midnightblue" points="108.74,-190.35 98.39,-192.65 107.91,-197.3 108.74,-190.35"/>
</g>
<!-- Node23&#45;&gt;Node2 -->
<g id="edge35" class="edge">
<title>Node23&#45;&gt;Node2</title>
<path fill="none" stroke="midnightblue" d="M538.32,-179.14C540.97,-164.79 548.36,-136.67 567,-123 611.38,-90.45 765.28,-81.42 854.21,-78.93"/>
<polygon fill="midnightblue" stroke="midnightblue" points="854.55,-82.42 864.45,-78.66 854.36,-75.42 854.55,-82.42"/>
</g>
<!-- Node23&#45;&gt;Node8 -->
<g id="edge36" class="edge">
<title>Node23&#45;&gt;Node8</title>
<path fill="none" stroke="midnightblue" d="M526.72,-179.32C517.16,-171.26 502.72,-159.08 491.22,-149.37"/>
<polygon fill="midnightblue" stroke="midnightblue" points="493.37,-146.61 483.47,-142.83 488.86,-151.96 493.37,-146.61"/>
</g>
<!-- Node24 -->
<g id="node24" class="node">
<title>Node24</title>
<g id="a_node24"><a xlink:title=" ">
<polygon fill="white" stroke="#bfbfbf" points="576.5,-123.5 576.5,-142.5 623.5,-142.5 623.5,-123.5 576.5,-123.5"/>
<text text-anchor="middle" x="600" y="-130.5" font-family="'Souce Sans Pro', Roboto, FreeSans, sans-serif" font-size="10.00">iosfwd</text>
</a>
</g>
</g>
<!-- Node23&#45;&gt;Node24 -->
<g id="edge37" class="edge">
<title>Node23&#45;&gt;Node24</title>
<path fill="none" stroke="midnightblue" d="M547.12,-179.32C556.53,-171.26 570.74,-159.08 582.07,-149.37"/>
<polygon fill="midnightblue" stroke="midnightblue" points="584.38,-152 589.69,-142.83 579.82,-146.68 584.38,-152"/>
</g>
<!-- Node25&#45;&gt;Node2 -->
<g id="edge40" class="edge">
<title>Node25&#45;&gt;Node2</title>
<path fill="none" stroke="midnightblue" d="M680.98,-235.34C684.48,-221.75 692.96,-195.3 709,-179 755.53,-131.72 828.61,-103.57 875.13,-89.44"/>
<polygon fill="midnightblue" stroke="midnightblue" points="876.32,-92.74 884.93,-86.56 874.35,-86.03 876.32,-92.74"/>
</g>
<!-- Node25&#45;&gt;Node6 -->
<g id="edge41" class="edge">
<title>Node25&#45;&gt;Node6</title>
<path fill="none" stroke="midnightblue" d="M635.74,-235.44C587.82,-225.96 510.52,-210.67 459,-200.48"/>
<polygon fill="midnightblue" stroke="midnightblue" points="459.54,-197.02 449.06,-198.52 458.19,-203.89 459.54,-197.02"/>
</g>
<!-- Node26 -->
<g id="node26" class="node">
<title>Node26</title>
<g id="a_node26"><a xlink:title=" ">
<polygon fill="white" stroke="#bfbfbf" points="718.5,-179.5 718.5,-198.5 759.5,-198.5 759.5,-179.5 718.5,-179.5"/>
<text text-anchor="middle" x="739" y="-186.5" font-family="'Souce Sans Pro', Roboto, FreeSans, sans-serif" font-size="10.00">ctime</text>
</a>
</g>
</g>
<!-- Node25&#45;&gt;Node26 -->
<g id="edge42" class="edge">
<title>Node25&#45;&gt;Node26</title>
<path fill="none" stroke="midnightblue" d="M688.64,-235.32C697.51,-227.34 710.87,-215.31 721.61,-205.65"/>
<polygon fill="midnightblue" stroke="midnightblue" points="724.09,-208.13 729.18,-198.83 719.41,-202.92 724.09,-208.13"/>
</g>
<!-- Node27 -->
<g id="node27" class="node">
<title>Node27</title>
<g id="a_node27"><a xlink:title=" ">
<polygon fill="white" stroke="#bfbfbf" points="777.5,-179.5 777.5,-198.5 824.5,-198.5 824.5,-179.5 777.5,-179.5"/>
<text text-anchor="middle" x="801" y="-186.5" font-family="'Souce Sans Pro', Roboto, FreeSans, sans-serif" font-size="10.00">chrono</text>
</a>
</g>
</g>
<!-- Node25&#45;&gt;Node27 -->
<g id="edge43" class="edge">
<title>Node25&#45;&gt;Node27</title>
<path fill="none" stroke="midnightblue" d="M698.33,-235.44C718.32,-226.6 749.74,-212.69 772.56,-202.59"/>
<polygon fill="midnightblue" stroke="midnightblue" points="774.03,-205.76 781.76,-198.52 771.2,-199.36 774.03,-205.76"/>
</g>
<!-- Node29&#45;&gt;Node2 -->
<g id="edge50" class="edge">
<title>Node29&#45;&gt;Node2</title>
<path fill="none" stroke="midnightblue" d="M900.74,-291.3C903.54,-258.63 913.45,-142.87 917.38,-96.96"/>
<polygon fill="midnightblue" stroke="midnightblue" points="920.87,-97.15 918.24,-86.88 913.9,-96.55 920.87,-97.15"/>
</g>
<!-- Node29&#45;&gt;Node11 -->
<g id="edge52" class="edge">
<title>Node29&#45;&gt;Node11</title>
<path fill="none" stroke="midnightblue" d="M953.68,-293.49C1031.36,-284.06 1175.65,-266.55 1265.64,-255.63"/>
<polygon fill="midnightblue" stroke="midnightblue" points="1266.29,-259.08 1275.8,-254.4 1265.45,-252.13 1266.29,-259.08"/>
</g>
<!-- Node29&#45;&gt;Node21 -->
<g id="edge53" class="edge">
<title>Node29&#45;&gt;Node21</title>
<path fill="none" stroke="midnightblue" d="M846.48,-292.17C787.31,-283.51 688.89,-269.1 594.27,-255.19"/>
<polygon fill="midnightblue" stroke="midnightblue" points="594.65,-251.7 584.24,-253.71 593.63,-258.63 594.65,-251.7"/>
</g>
<!-- Node30 -->
<g id="node30" class="node">
<title>Node30</title>
<g id="a_node30"><a xlink:title=" ">
<polygon fill="white" stroke="#bfbfbf" points="812,-235.5 812,-254.5 872,-254.5 872,-235.5 812,-235.5"/>
<text text-anchor="middle" x="842" y="-242.5" font-family="'Souce Sans Pro', Roboto, FreeSans, sans-serif" font-size="10.00">functional</text>
</a>
</g>
</g>
<!-- Node29&#45;&gt;Node30 -->
<g id="edge51" class="edge">
<title>Node29&#45;&gt;Node30</title>
<path fill="none" stroke="midnightblue" d="M890.68,-291.32C882.11,-283.34 869.19,-271.31 858.81,-261.65"/>
<polygon fill="midnightblue" stroke="midnightblue" points="861.19,-259.09 851.49,-254.83 856.42,-264.21 861.19,-259.09"/>
</g>
<!-- Node31&#45;&gt;Node2 -->
<g id="edge55" class="edge">
<title>Node31&#45;&gt;Node2</title>
<path fill="none" stroke="midnightblue" d="M993.24,-235.46C988.27,-226.47 980.35,-211.86 974,-199 956.21,-162.93 937.15,-119.88 926.79,-96.08"/>
<polygon fill="midnightblue" stroke="midnightblue" points="929.87,-94.38 922.68,-86.6 923.45,-97.16 929.87,-94.38"/>
</g>
<!-- Node31&#45;&gt;Node6 -->
<g id="edge56" class="edge">
<title>Node31&#45;&gt;Node6</title>
<path fill="none" stroke="midnightblue" d="M927.7,-238.37C805.81,-228.53 560,-208.38 474,-199 471.32,-198.71 468.58,-198.4 465.81,-198.07"/>
<polygon fill="midnightblue" stroke="midnightblue" points="466.08,-194.58 455.73,-196.85 465.24,-201.53 466.08,-194.58"/>
</g>
<!-- Node31&#45;&gt;Node12 -->
<g id="edge57" class="edge">
<title>Node31&#45;&gt;Node12</title>
<path fill="none" stroke="midnightblue" d="M1018.6,-235.44C1039.99,-226.56 1073.68,-212.56 1098.02,-202.45"/>
<polygon fill="midnightblue" stroke="midnightblue" points="1099.61,-205.58 1107.5,-198.52 1096.92,-199.12 1099.61,-205.58"/>
</g>
<!-- Node32&#45;&gt;Node2 -->
<g id="edge70" class="edge">
<title>Node32&#45;&gt;Node2</title>
<path fill="none" stroke="midnightblue" d="M1507.74,-235.19C1509.91,-221.41 1511.83,-194.69 1498,-179 1431.17,-103.19 1121.09,-84.23 984.22,-79.53"/>
<polygon fill="midnightblue" stroke="midnightblue" points="983.99,-76.02 973.88,-79.19 983.76,-83.02 983.99,-76.02"/>
</g>
<!-- Node32&#45;&gt;Node6 -->
<g id="edge71" class="edge">
<title>Node32&#45;&gt;Node6</title>
<path fill="none" stroke="midnightblue" d="M1431.81,-235.69C1428.84,-235.44 1425.89,-235.21 1423,-235 1002.04,-204.23 894.57,-234.73 474,-199 471.31,-198.77 468.57,-198.51 465.8,-198.23"/>
<polygon fill="midnightblue" stroke="midnightblue" points="466.03,-194.74 455.71,-197.13 465.27,-201.69 466.03,-194.74"/>
</g>
</g>
</svg>
