<?xml version="1.0" encoding="UTF-8" standalone="no"?>
<!DOCTYPE svg PUBLIC "-//W3C//DTD SVG 1.1//EN"
 "http://www.w3.org/Graphics/SVG/1.1/DTD/svg11.dtd">
<!-- Generated by graphviz version 2.43.0 (0)
 -->
<!-- Title: snprintf.h Pages: 1 -->
<svg width="228pt" height="140pt"
 viewBox="0.00 0.00 228.00 140.00" xmlns="http://www.w3.org/2000/svg" xmlns:xlink="http://www.w3.org/1999/xlink">
<g id="graph0" class="graph" transform="scale(1 1) rotate(0) translate(4 136)">
<title>snprintf.h</title>
<polygon fill="white" stroke="transparent" points="-4,4 -4,-136 224,-136 224,4 -4,4"/>
<!-- Node1 -->
<g id="node1" class="node">
<title>Node1</title>
<g id="a_node1"><a xlink:title=" ">
<polygon fill="#bfbfbf" stroke="black" points="93.5,-112.5 93.5,-131.5 152.5,-131.5 152.5,-112.5 93.5,-112.5"/>
<text text-anchor="middle" x="123" y="-119.5" font-family="'Souce Sans Pro', Roboto, FreeSans, sans-serif" font-size="10.00">snprintf.h</text>
</a>
</g>
</g>
<!-- Node2 -->
<g id="node2" class="node">
<title>Node2</title>
<g id="a_node2"><a xlink:href="internal_8h.html" target="_top" xlink:title="This header contains declaration internal to log4cplus.">
<polygon fill="white" stroke="black" points="48.5,-56.5 48.5,-75.5 105.5,-75.5 105.5,-56.5 48.5,-56.5"/>
<text text-anchor="middle" x="77" y="-63.5" font-family="'Souce Sans Pro', Roboto, FreeSans, sans-serif" font-size="10.00">internal.h</text>
</a>
</g>
</g>
<!-- Node1&#45;&gt;Node2 -->
<g id="edge1" class="edge">
<title>Node1&#45;&gt;Node2</title>
<path fill="none" stroke="midnightblue" d="M108.89,-104.43C100.82,-94.97 91.04,-83.48 84.45,-75.75"/>
<polygon fill="midnightblue" stroke="midnightblue" points="106.25,-106.74 115.4,-112.08 111.58,-102.2 106.25,-106.74"/>
</g>
<!-- Node4 -->
<g id="node4" class="node">
<title>Node4</title>
<g id="a_node4"><a xlink:href="loggingmacros_8h.html" target="_top" xlink:title="This header defines the logging macros.">
<polygon fill="white" stroke="black" points="130,-56.5 130,-75.5 220,-75.5 220,-56.5 130,-56.5"/>
<text text-anchor="middle" x="175" y="-63.5" font-family="'Souce Sans Pro', Roboto, FreeSans, sans-serif" font-size="10.00">loggingmacros.h</text>
</a>
</g>
</g>
<!-- Node1&#45;&gt;Node4 -->
<g id="edge3" class="edge">
<title>Node1&#45;&gt;Node4</title>
<path fill="none" stroke="midnightblue" d="M138.68,-104.72C147.84,-95.2 159.05,-83.56 166.57,-75.75"/>
<polygon fill="midnightblue" stroke="midnightblue" points="136,-102.45 131.59,-112.08 141.04,-107.31 136,-102.45"/>
</g>
<!-- Node3 -->
<g id="node3" class="node">
<title>Node3</title>
<g id="a_node3"><a xlink:href="customloglevelmanager_8h.html" target="_top" xlink:title="This header contains declaration internal to log4cplus.">
<polygon fill="white" stroke="black" points="0,-0.5 0,-19.5 130,-19.5 130,-0.5 0,-0.5"/>
<text text-anchor="middle" x="65" y="-7.5" font-family="'Souce Sans Pro', Roboto, FreeSans, sans-serif" font-size="10.00">customloglevelmanager.h</text>
</a>
</g>
</g>
<!-- Node2&#45;&gt;Node3 -->
<g id="edge2" class="edge">
<title>Node2&#45;&gt;Node3</title>
<path fill="none" stroke="midnightblue" d="M72.8,-46.1C70.81,-37.14 68.52,-26.86 66.94,-19.75"/>
<polygon fill="midnightblue" stroke="midnightblue" points="69.43,-47.08 75.02,-56.08 76.27,-45.56 69.43,-47.08"/>
</g>
<!-- Node5 -->
<g id="node5" class="node">
<title>Node5</title>
<g id="a_node5"><a xlink:href="log4cplus_8h.html" target="_top" xlink:title=" ">
<polygon fill="white" stroke="black" points="148.5,-0.5 148.5,-19.5 215.5,-19.5 215.5,-0.5 148.5,-0.5"/>
<text text-anchor="middle" x="182" y="-7.5" font-family="'Souce Sans Pro', Roboto, FreeSans, sans-serif" font-size="10.00">log4cplus.h</text>
</a>
</g>
</g>
<!-- Node4&#45;&gt;Node5 -->
<g id="edge4" class="edge">
<title>Node4&#45;&gt;Node5</title>
<path fill="none" stroke="midnightblue" d="M177.45,-46.1C178.61,-37.14 179.94,-26.86 180.87,-19.75"/>
<polygon fill="midnightblue" stroke="midnightblue" points="173.97,-45.72 176.16,-56.08 180.91,-46.62 173.97,-45.72"/>
</g>
</g>
</svg>
