<?xml version="1.0" encoding="UTF-8" standalone="no"?>
<!DOCTYPE svg PUBLIC "-//W3C//DTD SVG 1.1//EN"
 "http://www.w3.org/Graphics/SVG/1.1/DTD/svg11.dtd">
<!-- Generated by graphviz version 2.43.0 (0)
 -->
<!-- Title: socketappender.h Pages: 1 -->
<svg width="1698pt" height="431pt"
 viewBox="0.00 0.00 1698.39 431.00" xmlns="http://www.w3.org/2000/svg" xmlns:xlink="http://www.w3.org/1999/xlink">
<g id="graph0" class="graph" transform="scale(1 1) rotate(0) translate(4 427)">
<title>socketappender.h</title>
<polygon fill="white" stroke="transparent" points="-4,4 -4,-427 1694.39,-427 1694.39,4 -4,4"/>
<!-- Node1 -->
<g id="node1" class="node">
<title>Node1</title>
<g id="a_node1"><a xlink:title=" ">
<polygon fill="#bfbfbf" stroke="black" points="1059.89,-403.5 1059.89,-422.5 1154.89,-422.5 1154.89,-403.5 1059.89,-403.5"/>
<text text-anchor="middle" x="1107.39" y="-410.5" font-family="'Souce Sans Pro', Roboto, FreeSans, sans-serif" font-size="10.00">socketappender.h</text>
</a>
</g>
</g>
<!-- Node2 -->
<g id="node2" class="node">
<title>Node2</title>
<g id="a_node2"><a xlink:href="config_8hxx.html" target="_top" xlink:title=" ">
<polygon fill="white" stroke="black" points="682.89,-67.5 682.89,-86.5 791.89,-86.5 791.89,-67.5 682.89,-67.5"/>
<text text-anchor="middle" x="737.39" y="-74.5" font-family="'Souce Sans Pro', Roboto, FreeSans, sans-serif" font-size="10.00">log4cplus/config.hxx</text>
</a>
</g>
</g>
<!-- Node1&#45;&gt;Node2 -->
<g id="edge1" class="edge">
<title>Node1&#45;&gt;Node2</title>
<path fill="none" stroke="midnightblue" d="M1155.1,-408.03C1294.33,-395.83 1690.39,-356.33 1690.39,-302 1690.39,-302 1690.39,-302 1690.39,-188 1690.39,-150.16 1669.31,-139.78 1635.39,-123 1561.33,-86.37 995.59,-79.55 802.07,-78.29"/>
<polygon fill="midnightblue" stroke="midnightblue" points="802.06,-74.79 792.04,-78.22 802.02,-81.79 802.06,-74.79"/>
</g>
<!-- Node5 -->
<g id="node5" class="node">
<title>Node5</title>
<g id="a_node5"><a xlink:href="appender_8h.html" target="_top" xlink:title=" ">
<polygon fill="white" stroke="black" points="1135.39,-347.5 1135.39,-366.5 1247.39,-366.5 1247.39,-347.5 1135.39,-347.5"/>
<text text-anchor="middle" x="1191.39" y="-354.5" font-family="'Souce Sans Pro', Roboto, FreeSans, sans-serif" font-size="10.00">log4cplus/appender.h</text>
</a>
</g>
</g>
<!-- Node1&#45;&gt;Node5 -->
<g id="edge4" class="edge">
<title>Node1&#45;&gt;Node5</title>
<path fill="none" stroke="midnightblue" d="M1120.88,-403.32C1133.99,-394.9 1154.1,-381.97 1169.49,-372.07"/>
<polygon fill="midnightblue" stroke="midnightblue" points="1171.4,-375.01 1177.92,-366.65 1167.62,-369.12 1171.4,-375.01"/>
</g>
<!-- Node20 -->
<g id="node20" class="node">
<title>Node20</title>
<g id="a_node20"><a xlink:href="syncprims_8h.html" target="_top" xlink:title=" ">
<polygon fill="white" stroke="black" points="1291.89,-179.5 1291.89,-198.5 1440.89,-198.5 1440.89,-179.5 1291.89,-179.5"/>
<text text-anchor="middle" x="1366.39" y="-186.5" font-family="'Souce Sans Pro', Roboto, FreeSans, sans-serif" font-size="10.00">log4cplus/thread/syncprims.h</text>
</a>
</g>
</g>
<!-- Node1&#45;&gt;Node20 -->
<g id="edge60" class="edge">
<title>Node1&#45;&gt;Node20</title>
<path fill="none" stroke="midnightblue" d="M1155.1,-408.88C1222.27,-402.04 1344.81,-380.25 1419.39,-311 1445.34,-286.9 1461.02,-265.72 1443.39,-235 1434.77,-219.99 1418.99,-209.5 1403.96,-202.46"/>
<polygon fill="midnightblue" stroke="midnightblue" points="1405.33,-199.24 1394.76,-198.51 1402.56,-205.67 1405.33,-199.24"/>
</g>
<!-- Node29 -->
<g id="node29" class="node">
<title>Node29</title>
<g id="a_node29"><a xlink:href="helpers_2socket_8h.html" target="_top" xlink:title=" ">
<polygon fill="white" stroke="black" points="96.39,-291.5 96.39,-310.5 234.39,-310.5 234.39,-291.5 96.39,-291.5"/>
<text text-anchor="middle" x="165.39" y="-298.5" font-family="'Souce Sans Pro', Roboto, FreeSans, sans-serif" font-size="10.00">log4cplus/helpers/socket.h</text>
</a>
</g>
</g>
<!-- Node1&#45;&gt;Node29 -->
<g id="edge53" class="edge">
<title>Node1&#45;&gt;Node29</title>
<path fill="none" stroke="midnightblue" d="M1059.8,-411.44C911.6,-409.37 459.74,-400.41 317.39,-367 270.19,-355.92 219.1,-331.17 189.81,-315.61"/>
<polygon fill="midnightblue" stroke="midnightblue" points="191.21,-312.38 180.74,-310.71 187.88,-318.54 191.21,-312.38"/>
</g>
<!-- Node32 -->
<g id="node32" class="node">
<title>Node32</title>
<g id="a_node32"><a xlink:href="threads_8h.html" target="_top" xlink:title=" ">
<polygon fill="white" stroke="black" points="348.89,-291.5 348.89,-310.5 485.89,-310.5 485.89,-291.5 348.89,-291.5"/>
<text text-anchor="middle" x="417.39" y="-298.5" font-family="'Souce Sans Pro', Roboto, FreeSans, sans-serif" font-size="10.00">log4cplus/thread/threads.h</text>
</a>
</g>
</g>
<!-- Node1&#45;&gt;Node32 -->
<g id="edge61" class="edge">
<title>Node1&#45;&gt;Node32</title>
<path fill="none" stroke="midnightblue" d="M1059.69,-404.4C938.27,-385.04 617.44,-333.89 480.64,-312.08"/>
<polygon fill="midnightblue" stroke="midnightblue" points="481.14,-308.62 470.72,-310.5 480.04,-315.53 481.14,-308.62"/>
</g>
<!-- Node34 -->
<g id="node34" class="node">
<title>Node34</title>
<g id="a_node34"><a xlink:href="connectorthread_8h.html" target="_top" xlink:title=" ">
<polygon fill="white" stroke="black" points="326.89,-347.5 326.89,-366.5 507.89,-366.5 507.89,-347.5 326.89,-347.5"/>
<text text-anchor="middle" x="417.39" y="-354.5" font-family="'Souce Sans Pro', Roboto, FreeSans, sans-serif" font-size="10.00">log4cplus/helpers/connectorthread.h</text>
</a>
</g>
</g>
<!-- Node1&#45;&gt;Node34 -->
<g id="edge67" class="edge">
<title>Node1&#45;&gt;Node34</title>
<path fill="none" stroke="midnightblue" d="M1059.69,-408.27C948.31,-399.55 669.16,-377.7 518.15,-365.89"/>
<polygon fill="midnightblue" stroke="midnightblue" points="518.19,-362.38 507.95,-365.09 517.64,-369.36 518.19,-362.38"/>
</g>
<!-- Node3 -->
<g id="node3" class="node">
<title>Node3</title>
<g id="a_node3"><a xlink:href="win32_8h.html" target="_top" xlink:title=" ">
<polygon fill="white" stroke="black" points="600.39,-6 600.39,-25 728.39,-25 728.39,-6 600.39,-6"/>
<text text-anchor="middle" x="664.39" y="-13" font-family="'Souce Sans Pro', Roboto, FreeSans, sans-serif" font-size="10.00">log4cplus/config/win32.h</text>
</a>
</g>
</g>
<!-- Node2&#45;&gt;Node3 -->
<g id="edge2" class="edge">
<title>Node2&#45;&gt;Node3</title>
<path fill="none" stroke="midnightblue" d="M726.93,-67.48C715.43,-58.11 696.76,-42.88 682.8,-31.51"/>
<polygon fill="midnightblue" stroke="midnightblue" points="684.79,-28.61 674.83,-25.01 680.37,-34.04 684.79,-28.61"/>
</g>
<!-- Node4 -->
<g id="node4" class="node">
<title>Node4</title>
<g id="a_node4"><a xlink:href="thread-config_8h.html" target="_top" xlink:title=" ">
<polygon fill="white" stroke="black" points="746.39,-0.5 746.39,-30.5 874.39,-30.5 874.39,-0.5 746.39,-0.5"/>
<text text-anchor="start" x="754.39" y="-18.5" font-family="'Souce Sans Pro', Roboto, FreeSans, sans-serif" font-size="10.00">log4cplus/helpers/thread</text>
<text text-anchor="middle" x="810.39" y="-7.5" font-family="'Souce Sans Pro', Roboto, FreeSans, sans-serif" font-size="10.00">&#45;config.h</text>
</a>
</g>
</g>
<!-- Node2&#45;&gt;Node4 -->
<g id="edge3" class="edge">
<title>Node2&#45;&gt;Node4</title>
<path fill="none" stroke="midnightblue" d="M747.84,-67.48C757.55,-59.57 772.37,-47.48 785.15,-37.07"/>
<polygon fill="midnightblue" stroke="midnightblue" points="787.64,-39.55 793.18,-30.52 783.22,-34.13 787.64,-39.55"/>
</g>
<!-- Node5&#45;&gt;Node2 -->
<g id="edge5" class="edge">
<title>Node5&#45;&gt;Node2</title>
<path fill="none" stroke="midnightblue" d="M1247.45,-354.34C1370.31,-349.19 1652.39,-328.38 1652.39,-246 1652.39,-246 1652.39,-246 1652.39,-188 1652.39,-152.86 1638.08,-140.11 1607.39,-123 1537.7,-84.16 991.9,-78.78 802.14,-78.08"/>
<polygon fill="midnightblue" stroke="midnightblue" points="802.04,-74.58 792.03,-78.05 802.02,-81.58 802.04,-74.58"/>
</g>
<!-- Node6 -->
<g id="node6" class="node">
<title>Node6</title>
<g id="a_node6"><a xlink:href="layout_8h.html" target="_top" xlink:title=" ">
<polygon fill="white" stroke="black" points="688.39,-291.5 688.39,-310.5 786.39,-310.5 786.39,-291.5 688.39,-291.5"/>
<text text-anchor="middle" x="737.39" y="-298.5" font-family="'Souce Sans Pro', Roboto, FreeSans, sans-serif" font-size="10.00">log4cplus/layout.h</text>
</a>
</g>
</g>
<!-- Node5&#45;&gt;Node6 -->
<g id="edge6" class="edge">
<title>Node5&#45;&gt;Node6</title>
<path fill="none" stroke="midnightblue" d="M1135.26,-349.32C1049,-339.06 884.6,-319.51 796.54,-309.04"/>
<polygon fill="midnightblue" stroke="midnightblue" points="796.8,-305.54 786.45,-307.84 795.97,-312.49 796.8,-305.54"/>
</g>
<!-- Node7 -->
<g id="node7" class="node">
<title>Node7</title>
<g id="a_node7"><a xlink:href="loglevel_8h.html" target="_top" xlink:title="This header defines the LogLevel type.">
<polygon fill="white" stroke="black" points="900.39,-235.5 900.39,-254.5 1004.39,-254.5 1004.39,-235.5 900.39,-235.5"/>
<text text-anchor="middle" x="952.39" y="-242.5" font-family="'Souce Sans Pro', Roboto, FreeSans, sans-serif" font-size="10.00">log4cplus/loglevel.h</text>
</a>
</g>
</g>
<!-- Node5&#45;&gt;Node7 -->
<g id="edge29" class="edge">
<title>Node5&#45;&gt;Node7</title>
<path fill="none" stroke="midnightblue" d="M1172.63,-347.37C1130.75,-328.09 1029.42,-281.45 980.17,-258.79"/>
<polygon fill="midnightblue" stroke="midnightblue" points="981.6,-255.59 971.05,-254.59 978.67,-261.95 981.6,-255.59"/>
</g>
<!-- Node9 -->
<g id="node9" class="node">
<title>Node9</title>
<g id="a_node9"><a xlink:href="tstring_8h.html" target="_top" xlink:title=" ">
<polygon fill="white" stroke="black" points="514.89,-179.5 514.89,-198.5 613.89,-198.5 613.89,-179.5 514.89,-179.5"/>
<text text-anchor="middle" x="564.39" y="-186.5" font-family="'Souce Sans Pro', Roboto, FreeSans, sans-serif" font-size="10.00">log4cplus/tstring.h</text>
</a>
</g>
</g>
<!-- Node5&#45;&gt;Node9 -->
<g id="edge30" class="edge">
<title>Node5&#45;&gt;Node9</title>
<path fill="none" stroke="midnightblue" d="M1135.18,-354.59C1012.51,-351.01 724.34,-339.72 631.39,-311 583.46,-296.19 558.56,-298.39 533.39,-255 524.03,-238.88 536.08,-219.5 547.78,-206.11"/>
<polygon fill="midnightblue" stroke="midnightblue" points="550.51,-208.32 554.82,-198.64 545.42,-203.52 550.51,-208.32"/>
</g>
<!-- Node18 -->
<g id="node18" class="node">
<title>Node18</title>
<g id="a_node18"><a xlink:title=" ">
<polygon fill="white" stroke="#bfbfbf" points="542.39,-235.5 542.39,-254.5 596.39,-254.5 596.39,-235.5 542.39,-235.5"/>
<text text-anchor="middle" x="569.39" y="-242.5" font-family="'Souce Sans Pro', Roboto, FreeSans, sans-serif" font-size="10.00">memory</text>
</a>
</g>
</g>
<!-- Node5&#45;&gt;Node18 -->
<g id="edge49" class="edge">
<title>Node5&#45;&gt;Node18</title>
<path fill="none" stroke="midnightblue" d="M1135.23,-354.2C1020.5,-350 762.96,-337.84 679.39,-311 644.64,-299.84 609.13,-276.19 588.18,-260.7"/>
<polygon fill="midnightblue" stroke="midnightblue" points="590.23,-257.86 580.14,-254.62 586.01,-263.44 590.23,-257.86"/>
</g>
<!-- Node19 -->
<g id="node19" class="node">
<title>Node19</title>
<g id="a_node19"><a xlink:href="pointer_8h.html" target="_top" xlink:title=" ">
<polygon fill="white" stroke="black" points="1180.39,-235.5 1180.39,-254.5 1318.39,-254.5 1318.39,-235.5 1180.39,-235.5"/>
<text text-anchor="middle" x="1249.39" y="-242.5" font-family="'Souce Sans Pro', Roboto, FreeSans, sans-serif" font-size="10.00">log4cplus/helpers/pointer.h</text>
</a>
</g>
</g>
<!-- Node5&#45;&gt;Node19 -->
<g id="edge31" class="edge">
<title>Node5&#45;&gt;Node19</title>
<path fill="none" stroke="midnightblue" d="M1195.94,-347.37C1205.42,-329.38 1227.48,-287.55 1240.09,-263.63"/>
<polygon fill="midnightblue" stroke="midnightblue" points="1243.29,-265.07 1244.86,-254.59 1237.1,-261.8 1243.29,-265.07"/>
</g>
<!-- Node21 -->
<g id="node21" class="node">
<title>Node21</title>
<g id="a_node21"><a xlink:title=" ">
<polygon fill="white" stroke="#bfbfbf" points="1403.39,-123.5 1403.39,-142.5 1447.39,-142.5 1447.39,-123.5 1403.39,-123.5"/>
<text text-anchor="middle" x="1425.39" y="-130.5" font-family="'Souce Sans Pro', Roboto, FreeSans, sans-serif" font-size="10.00">mutex</text>
</a>
</g>
</g>
<!-- Node5&#45;&gt;Node21 -->
<g id="edge50" class="edge">
<title>Node5&#45;&gt;Node21</title>
<path fill="none" stroke="midnightblue" d="M1247.5,-351.03C1311.38,-344.5 1410.97,-331.41 1442.39,-311 1498.97,-274.25 1553.11,-236.24 1517.39,-179 1504.36,-158.13 1478.54,-146.67 1457.56,-140.55"/>
<polygon fill="midnightblue" stroke="midnightblue" points="1458.29,-137.13 1447.73,-137.96 1456.51,-143.89 1458.29,-137.13"/>
</g>
<!-- Node22 -->
<g id="node22" class="node">
<title>Node22</title>
<g id="a_node22"><a xlink:title=" ">
<polygon fill="white" stroke="#bfbfbf" points="1482.39,-123.5 1482.39,-142.5 1578.39,-142.5 1578.39,-123.5 1482.39,-123.5"/>
<text text-anchor="middle" x="1530.39" y="-130.5" font-family="'Souce Sans Pro', Roboto, FreeSans, sans-serif" font-size="10.00">condition_variable</text>
</a>
</g>
</g>
<!-- Node5&#45;&gt;Node22 -->
<g id="edge52" class="edge">
<title>Node5&#45;&gt;Node22</title>
<path fill="none" stroke="midnightblue" d="M1247.62,-356.16C1306.03,-354.26 1398.72,-345.38 1470.39,-311 1503.87,-294.94 1516.41,-288.52 1532.39,-255 1548.22,-221.78 1541.45,-177.37 1535.59,-152.63"/>
<polygon fill="midnightblue" stroke="midnightblue" points="1538.94,-151.58 1533.05,-142.77 1532.16,-153.32 1538.94,-151.58"/>
</g>
<!-- Node25 -->
<g id="node25" class="node">
<title>Node25</title>
<g id="a_node25"><a xlink:title=" ">
<polygon fill="white" stroke="#bfbfbf" points="1460.89,-179.5 1460.89,-198.5 1507.89,-198.5 1507.89,-179.5 1460.89,-179.5"/>
<text text-anchor="middle" x="1484.39" y="-186.5" font-family="'Souce Sans Pro', Roboto, FreeSans, sans-serif" font-size="10.00">atomic</text>
</a>
</g>
</g>
<!-- Node5&#45;&gt;Node25 -->
<g id="edge51" class="edge">
<title>Node5&#45;&gt;Node25</title>
<path fill="none" stroke="midnightblue" d="M1247.45,-350.45C1305.9,-343.72 1392.66,-330.75 1419.39,-311 1454.11,-285.34 1472.23,-235.45 1479.86,-208.44"/>
<polygon fill="midnightblue" stroke="midnightblue" points="1483.27,-209.27 1482.44,-198.7 1476.5,-207.48 1483.27,-209.27"/>
</g>
<!-- Node26 -->
<g id="node26" class="node">
<title>Node26</title>
<g id="a_node26"><a xlink:href="filter_8h.html" target="_top" xlink:title="This header defines Filter and all of it&#39;s subclasses.">
<polygon fill="white" stroke="black" points="1302.89,-291.5 1302.89,-310.5 1409.89,-310.5 1409.89,-291.5 1302.89,-291.5"/>
<text text-anchor="middle" x="1356.39" y="-298.5" font-family="'Souce Sans Pro', Roboto, FreeSans, sans-serif" font-size="10.00">log4cplus/spi/filter.h</text>
</a>
</g>
</g>
<!-- Node5&#45;&gt;Node26 -->
<g id="edge40" class="edge">
<title>Node5&#45;&gt;Node26</title>
<path fill="none" stroke="midnightblue" d="M1217.53,-347.44C1245.41,-338.32 1289.73,-323.81 1320.79,-313.65"/>
<polygon fill="midnightblue" stroke="midnightblue" points="1321.95,-316.95 1330.36,-310.52 1319.77,-310.3 1321.95,-316.95"/>
</g>
<!-- Node28 -->
<g id="node28" class="node">
<title>Node28</title>
<g id="a_node28"><a xlink:href="lockfile_8h.html" target="_top" xlink:title=" ">
<polygon fill="white" stroke="black" points="1022.39,-235.5 1022.39,-254.5 1162.39,-254.5 1162.39,-235.5 1022.39,-235.5"/>
<text text-anchor="middle" x="1092.39" y="-242.5" font-family="'Souce Sans Pro', Roboto, FreeSans, sans-serif" font-size="10.00">log4cplus/helpers/lockfile.h</text>
</a>
</g>
</g>
<!-- Node5&#45;&gt;Node28 -->
<g id="edge45" class="edge">
<title>Node5&#45;&gt;Node28</title>
<path fill="none" stroke="midnightblue" d="M1183.62,-347.37C1167.06,-328.97 1128.09,-285.67 1106.83,-262.05"/>
<polygon fill="midnightblue" stroke="midnightblue" points="1109.41,-259.68 1100.12,-254.59 1104.21,-264.37 1109.41,-259.68"/>
</g>
<!-- Node6&#45;&gt;Node2 -->
<g id="edge7" class="edge">
<title>Node6&#45;&gt;Node2</title>
<path fill="none" stroke="midnightblue" d="M688.05,-299.19C644.05,-296.26 579.61,-286.35 533.39,-255 477.36,-217.01 413.48,-174.53 457.39,-123 471.2,-106.79 594.19,-91.94 672.51,-84.01"/>
<polygon fill="midnightblue" stroke="midnightblue" points="673.17,-87.47 682.77,-82.99 672.47,-80.5 673.17,-87.47"/>
</g>
<!-- Node6&#45;&gt;Node7 -->
<g id="edge8" class="edge">
<title>Node6&#45;&gt;Node7</title>
<path fill="none" stroke="midnightblue" d="M771.45,-291.44C808.57,-282.12 868.05,-267.18 908.6,-257"/>
<polygon fill="midnightblue" stroke="midnightblue" points="909.63,-260.35 918.48,-254.52 907.93,-253.56 909.63,-260.35"/>
</g>
<!-- Node8 -->
<g id="node8" class="node">
<title>Node8</title>
<g id="a_node8"><a xlink:title=" ">
<polygon fill="white" stroke="#bfbfbf" points="920.39,-179.5 920.39,-198.5 964.39,-198.5 964.39,-179.5 920.39,-179.5"/>
<text text-anchor="middle" x="942.39" y="-186.5" font-family="'Souce Sans Pro', Roboto, FreeSans, sans-serif" font-size="10.00">vector</text>
</a>
</g>
</g>
<!-- Node6&#45;&gt;Node8 -->
<g id="edge27" class="edge">
<title>Node6&#45;&gt;Node8</title>
<path fill="none" stroke="midnightblue" d="M765.48,-291.4C789.55,-283.49 824.77,-270.65 853.39,-255 879.69,-240.62 907.14,-219.49 924.47,-205.26"/>
<polygon fill="midnightblue" stroke="midnightblue" points="927.11,-207.62 932.56,-198.52 922.63,-202.24 927.11,-207.62"/>
</g>
<!-- Node6&#45;&gt;Node9 -->
<g id="edge21" class="edge">
<title>Node6&#45;&gt;Node9</title>
<path fill="none" stroke="midnightblue" d="M723.81,-291.37C694.12,-272.49 623.18,-227.38 586.78,-204.24"/>
<polygon fill="midnightblue" stroke="midnightblue" points="588.21,-201 577.9,-198.59 584.46,-206.91 588.21,-201"/>
</g>
<!-- Node13 -->
<g id="node13" class="node">
<title>Node13</title>
<g id="a_node13"><a xlink:href="streams_8h.html" target="_top" xlink:title=" ">
<polygon fill="white" stroke="black" points="631.89,-179.5 631.89,-198.5 738.89,-198.5 738.89,-179.5 631.89,-179.5"/>
<text text-anchor="middle" x="685.39" y="-186.5" font-family="'Souce Sans Pro', Roboto, FreeSans, sans-serif" font-size="10.00">log4cplus/streams.h</text>
</a>
</g>
</g>
<!-- Node6&#45;&gt;Node13 -->
<g id="edge17" class="edge">
<title>Node6&#45;&gt;Node13</title>
<path fill="none" stroke="midnightblue" d="M719.88,-291.46C706.6,-283.92 689.31,-271.53 681.39,-255 674.44,-240.5 676.44,-222.06 679.6,-208.52"/>
<polygon fill="midnightblue" stroke="midnightblue" points="683.08,-209.07 682.35,-198.5 676.33,-207.22 683.08,-209.07"/>
</g>
<!-- Node15 -->
<g id="node15" class="node">
<title>Node15</title>
<g id="a_node15"><a xlink:href="timehelper_8h.html" target="_top" xlink:title=" ">
<polygon fill="white" stroke="black" points="690.39,-235.5 690.39,-254.5 844.39,-254.5 844.39,-235.5 690.39,-235.5"/>
<text text-anchor="middle" x="767.39" y="-242.5" font-family="'Souce Sans Pro', Roboto, FreeSans, sans-serif" font-size="10.00">log4cplus/helpers/timehelper.h</text>
</a>
</g>
</g>
<!-- Node6&#45;&gt;Node15 -->
<g id="edge22" class="edge">
<title>Node6&#45;&gt;Node15</title>
<path fill="none" stroke="midnightblue" d="M742.34,-291.08C746.49,-283.61 752.54,-272.72 757.65,-263.52"/>
<polygon fill="midnightblue" stroke="midnightblue" points="760.73,-265.19 762.52,-254.75 754.61,-261.79 760.73,-265.19"/>
</g>
<!-- Node6&#45;&gt;Node18 -->
<g id="edge28" class="edge">
<title>Node6&#45;&gt;Node18</title>
<path fill="none" stroke="midnightblue" d="M710.77,-291.44C682.38,-282.32 637.25,-267.81 605.63,-257.65"/>
<polygon fill="midnightblue" stroke="midnightblue" points="606.47,-254.24 595.88,-254.52 604.33,-260.91 606.47,-254.24"/>
</g>
<!-- Node7&#45;&gt;Node2 -->
<g id="edge9" class="edge">
<title>Node7&#45;&gt;Node2</title>
<path fill="none" stroke="midnightblue" d="M959.61,-235.36C969.64,-222.27 985.27,-197.02 973.39,-179 935.67,-121.83 858.18,-96.9 802.27,-86.11"/>
<polygon fill="midnightblue" stroke="midnightblue" points="802.56,-82.6 792.1,-84.25 801.31,-89.49 802.56,-82.6"/>
</g>
<!-- Node7&#45;&gt;Node8 -->
<g id="edge10" class="edge">
<title>Node7&#45;&gt;Node8</title>
<path fill="none" stroke="midnightblue" d="M950.73,-235.08C949.41,-227.93 947.5,-217.64 945.85,-208.69"/>
<polygon fill="midnightblue" stroke="midnightblue" points="949.27,-207.95 944.01,-198.75 942.39,-209.22 949.27,-207.95"/>
</g>
<!-- Node7&#45;&gt;Node9 -->
<g id="edge11" class="edge">
<title>Node7&#45;&gt;Node9</title>
<path fill="none" stroke="midnightblue" d="M900.33,-237.2C837.3,-228.91 727.64,-214.25 624.05,-199.22"/>
<polygon fill="midnightblue" stroke="midnightblue" points="624.45,-195.74 614.05,-197.77 623.44,-202.67 624.45,-195.74"/>
</g>
<!-- Node9&#45;&gt;Node2 -->
<g id="edge12" class="edge">
<title>Node9&#45;&gt;Node2</title>
<path fill="none" stroke="midnightblue" d="M577.96,-179.37C607.65,-160.49 678.59,-115.38 715,-92.24"/>
<polygon fill="midnightblue" stroke="midnightblue" points="717.31,-94.91 723.87,-86.59 713.56,-89 717.31,-94.91"/>
</g>
<!-- Node10 -->
<g id="node10" class="node">
<title>Node10</title>
<g id="a_node10"><a xlink:title=" ">
<polygon fill="white" stroke="#bfbfbf" points="466.89,-123.5 466.89,-142.5 507.89,-142.5 507.89,-123.5 466.89,-123.5"/>
<text text-anchor="middle" x="487.39" y="-130.5" font-family="'Souce Sans Pro', Roboto, FreeSans, sans-serif" font-size="10.00">string</text>
</a>
</g>
</g>
<!-- Node9&#45;&gt;Node10 -->
<g id="edge13" class="edge">
<title>Node9&#45;&gt;Node10</title>
<path fill="none" stroke="midnightblue" d="M552.01,-179.32C540.23,-171.06 522.25,-158.45 508.25,-148.63"/>
<polygon fill="midnightblue" stroke="midnightblue" points="509.92,-145.53 499.73,-142.65 505.9,-151.26 509.92,-145.53"/>
</g>
<!-- Node11 -->
<g id="node11" class="node">
<title>Node11</title>
<g id="a_node11"><a xlink:href="tchar_8h.html" target="_top" xlink:title=" ">
<polygon fill="white" stroke="black" points="525.89,-123.5 525.89,-142.5 618.89,-142.5 618.89,-123.5 525.89,-123.5"/>
<text text-anchor="middle" x="572.39" y="-130.5" font-family="'Souce Sans Pro', Roboto, FreeSans, sans-serif" font-size="10.00">log4cplus/tchar.h</text>
</a>
</g>
</g>
<!-- Node9&#45;&gt;Node11 -->
<g id="edge14" class="edge">
<title>Node9&#45;&gt;Node11</title>
<path fill="none" stroke="midnightblue" d="M565.71,-179.08C566.77,-171.93 568.29,-161.64 569.62,-152.69"/>
<polygon fill="midnightblue" stroke="midnightblue" points="573.09,-153.16 571.09,-142.75 566.16,-152.13 573.09,-153.16"/>
</g>
<!-- Node11&#45;&gt;Node2 -->
<g id="edge15" class="edge">
<title>Node11&#45;&gt;Node2</title>
<path fill="none" stroke="midnightblue" d="M598.53,-123.44C626.41,-114.32 670.73,-99.81 701.79,-89.65"/>
<polygon fill="midnightblue" stroke="midnightblue" points="702.95,-92.95 711.36,-86.52 700.77,-86.3 702.95,-92.95"/>
</g>
<!-- Node12 -->
<g id="node12" class="node">
<title>Node12</title>
<g id="a_node12"><a xlink:title=" ">
<polygon fill="white" stroke="#bfbfbf" points="546.89,-67.5 546.89,-86.5 597.89,-86.5 597.89,-67.5 546.89,-67.5"/>
<text text-anchor="middle" x="572.39" y="-74.5" font-family="'Souce Sans Pro', Roboto, FreeSans, sans-serif" font-size="10.00">cstddef</text>
</a>
</g>
</g>
<!-- Node11&#45;&gt;Node12 -->
<g id="edge16" class="edge">
<title>Node11&#45;&gt;Node12</title>
<path fill="none" stroke="midnightblue" d="M572.39,-123.08C572.39,-116.01 572.39,-105.86 572.39,-96.99"/>
<polygon fill="midnightblue" stroke="midnightblue" points="575.89,-96.75 572.39,-86.75 568.89,-96.75 575.89,-96.75"/>
</g>
<!-- Node13&#45;&gt;Node2 -->
<g id="edge18" class="edge">
<title>Node13&#45;&gt;Node2</title>
<path fill="none" stroke="midnightblue" d="M686.94,-179.23C689.43,-166.4 695.02,-141.98 704.39,-123 709.36,-112.92 716.61,-102.73 723.04,-94.61"/>
<polygon fill="midnightblue" stroke="midnightblue" points="725.9,-96.64 729.56,-86.7 720.5,-92.19 725.9,-96.64"/>
</g>
<!-- Node13&#45;&gt;Node11 -->
<g id="edge19" class="edge">
<title>Node13&#45;&gt;Node11</title>
<path fill="none" stroke="midnightblue" d="M667.48,-179.44C649.13,-170.68 620.38,-156.94 599.29,-146.86"/>
<polygon fill="midnightblue" stroke="midnightblue" points="600.74,-143.67 590.21,-142.52 597.72,-149.99 600.74,-143.67"/>
</g>
<!-- Node14 -->
<g id="node14" class="node">
<title>Node14</title>
<g id="a_node14"><a xlink:title=" ">
<polygon fill="white" stroke="#bfbfbf" points="713.89,-123.5 713.89,-142.5 760.89,-142.5 760.89,-123.5 713.89,-123.5"/>
<text text-anchor="middle" x="737.39" y="-130.5" font-family="'Souce Sans Pro', Roboto, FreeSans, sans-serif" font-size="10.00">iosfwd</text>
</a>
</g>
</g>
<!-- Node13&#45;&gt;Node14 -->
<g id="edge20" class="edge">
<title>Node13&#45;&gt;Node14</title>
<path fill="none" stroke="midnightblue" d="M693.97,-179.08C701.54,-171.22 712.76,-159.57 721.9,-150.08"/>
<polygon fill="midnightblue" stroke="midnightblue" points="724.54,-152.38 728.96,-142.75 719.5,-147.53 724.54,-152.38"/>
</g>
<!-- Node15&#45;&gt;Node2 -->
<g id="edge23" class="edge">
<title>Node15&#45;&gt;Node2</title>
<path fill="none" stroke="midnightblue" d="M769.4,-235.22C773.67,-214.88 782.23,-163.23 769.39,-123 766.05,-112.54 759.29,-102.43 752.84,-94.45"/>
<polygon fill="midnightblue" stroke="midnightblue" points="755.33,-91.98 746.14,-86.71 750.04,-96.56 755.33,-91.98"/>
</g>
<!-- Node15&#45;&gt;Node9 -->
<g id="edge24" class="edge">
<title>Node15&#45;&gt;Node9</title>
<path fill="none" stroke="midnightblue" d="M735.22,-235.44C700.33,-226.16 644.49,-211.31 606.21,-201.13"/>
<polygon fill="midnightblue" stroke="midnightblue" points="606.96,-197.7 596.4,-198.52 605.17,-204.47 606.96,-197.7"/>
</g>
<!-- Node16 -->
<g id="node16" class="node">
<title>Node16</title>
<g id="a_node16"><a xlink:title=" ">
<polygon fill="white" stroke="#bfbfbf" points="795.89,-179.5 795.89,-198.5 836.89,-198.5 836.89,-179.5 795.89,-179.5"/>
<text text-anchor="middle" x="816.39" y="-186.5" font-family="'Souce Sans Pro', Roboto, FreeSans, sans-serif" font-size="10.00">ctime</text>
</a>
</g>
</g>
<!-- Node15&#45;&gt;Node16 -->
<g id="edge25" class="edge">
<title>Node15&#45;&gt;Node16</title>
<path fill="none" stroke="midnightblue" d="M775.48,-235.08C782.54,-227.3 792.97,-215.8 801.53,-206.37"/>
<polygon fill="midnightblue" stroke="midnightblue" points="804.32,-208.51 808.44,-198.75 799.13,-203.8 804.32,-208.51"/>
</g>
<!-- Node17 -->
<g id="node17" class="node">
<title>Node17</title>
<g id="a_node17"><a xlink:title=" ">
<polygon fill="white" stroke="#bfbfbf" points="854.89,-179.5 854.89,-198.5 901.89,-198.5 901.89,-179.5 854.89,-179.5"/>
<text text-anchor="middle" x="878.39" y="-186.5" font-family="'Souce Sans Pro', Roboto, FreeSans, sans-serif" font-size="10.00">chrono</text>
</a>
</g>
</g>
<!-- Node15&#45;&gt;Node17 -->
<g id="edge26" class="edge">
<title>Node15&#45;&gt;Node17</title>
<path fill="none" stroke="midnightblue" d="M785.22,-235.32C803.1,-226.62 830.86,-213.12 851.43,-203.11"/>
<polygon fill="midnightblue" stroke="midnightblue" points="853.13,-206.18 860.6,-198.65 850.07,-199.88 853.13,-206.18"/>
</g>
<!-- Node19&#45;&gt;Node2 -->
<g id="edge32" class="edge">
<title>Node19&#45;&gt;Node2</title>
<path fill="none" stroke="midnightblue" d="M1227.59,-235.46C1205.13,-226.59 1169.16,-212.19 1138.39,-199 1063.06,-166.71 1048.49,-147.83 970.39,-123 914.79,-105.32 849.4,-93.43 802.07,-86.34"/>
<polygon fill="midnightblue" stroke="midnightblue" points="802.36,-82.84 791.96,-84.85 801.34,-89.77 802.36,-82.84"/>
</g>
<!-- Node19&#45;&gt;Node20 -->
<g id="edge33" class="edge">
<title>Node19&#45;&gt;Node20</title>
<path fill="none" stroke="midnightblue" d="M1267.92,-235.44C1287.01,-226.64 1316.96,-212.81 1338.82,-202.72"/>
<polygon fill="midnightblue" stroke="midnightblue" points="1340.32,-205.88 1347.93,-198.52 1337.39,-199.53 1340.32,-205.88"/>
</g>
<!-- Node23 -->
<g id="node23" class="node">
<title>Node23</title>
<g id="a_node23"><a xlink:title=" ">
<polygon fill="white" stroke="#bfbfbf" points="1146.89,-179.5 1146.89,-198.5 1205.89,-198.5 1205.89,-179.5 1146.89,-179.5"/>
<text text-anchor="middle" x="1176.39" y="-186.5" font-family="'Souce Sans Pro', Roboto, FreeSans, sans-serif" font-size="10.00">algorithm</text>
</a>
</g>
</g>
<!-- Node19&#45;&gt;Node23 -->
<g id="edge37" class="edge">
<title>Node19&#45;&gt;Node23</title>
<path fill="none" stroke="midnightblue" d="M1237.66,-235.32C1226.55,-227.11 1209.64,-214.6 1196.4,-204.81"/>
<polygon fill="midnightblue" stroke="midnightblue" points="1198.45,-201.97 1188.33,-198.83 1194.29,-207.59 1198.45,-201.97"/>
</g>
<!-- Node24 -->
<g id="node24" class="node">
<title>Node24</title>
<g id="a_node24"><a xlink:title=" ">
<polygon fill="white" stroke="#bfbfbf" points="1224.39,-179.5 1224.39,-198.5 1274.39,-198.5 1274.39,-179.5 1224.39,-179.5"/>
<text text-anchor="middle" x="1249.39" y="-186.5" font-family="'Souce Sans Pro', Roboto, FreeSans, sans-serif" font-size="10.00">cassert</text>
</a>
</g>
</g>
<!-- Node19&#45;&gt;Node24 -->
<g id="edge38" class="edge">
<title>Node19&#45;&gt;Node24</title>
<path fill="none" stroke="midnightblue" d="M1249.39,-235.08C1249.39,-228.01 1249.39,-217.86 1249.39,-208.99"/>
<polygon fill="midnightblue" stroke="midnightblue" points="1252.89,-208.75 1249.39,-198.75 1245.89,-208.75 1252.89,-208.75"/>
</g>
<!-- Node19&#45;&gt;Node25 -->
<g id="edge39" class="edge">
<title>Node19&#45;&gt;Node25</title>
<path fill="none" stroke="midnightblue" d="M1289.53,-235.49C1330.18,-226.76 1394.8,-212.57 1450.39,-199 1450.49,-198.97 1450.59,-198.95 1450.7,-198.92"/>
<polygon fill="midnightblue" stroke="midnightblue" points="1451.8,-202.26 1460.64,-196.41 1450.08,-195.47 1451.8,-202.26"/>
</g>
<!-- Node20&#45;&gt;Node2 -->
<g id="edge34" class="edge">
<title>Node20&#45;&gt;Node2</title>
<path fill="none" stroke="midnightblue" d="M1339.01,-179.4C1293.89,-165.55 1200.89,-138.29 1120.39,-123 1009.66,-101.98 878.95,-89.14 802.42,-82.82"/>
<polygon fill="midnightblue" stroke="midnightblue" points="802.23,-79.29 791.98,-81.97 801.67,-86.27 802.23,-79.29"/>
</g>
<!-- Node20&#45;&gt;Node21 -->
<g id="edge35" class="edge">
<title>Node20&#45;&gt;Node21</title>
<path fill="none" stroke="midnightblue" d="M1375.87,-179.32C1384.59,-171.34 1397.73,-159.31 1408.28,-149.65"/>
<polygon fill="midnightblue" stroke="midnightblue" points="1410.72,-152.17 1415.73,-142.83 1405.99,-147 1410.72,-152.17"/>
</g>
<!-- Node20&#45;&gt;Node22 -->
<g id="edge36" class="edge">
<title>Node20&#45;&gt;Node22</title>
<path fill="none" stroke="midnightblue" d="M1392.37,-179.44C1420.08,-170.32 1464.14,-155.81 1495,-145.65"/>
<polygon fill="midnightblue" stroke="midnightblue" points="1496.12,-148.97 1504.52,-142.52 1493.93,-142.32 1496.12,-148.97"/>
</g>
<!-- Node26&#45;&gt;Node2 -->
<g id="edge41" class="edge">
<title>Node26&#45;&gt;Node2</title>
<path fill="none" stroke="midnightblue" d="M1386.17,-291.45C1463.43,-267.94 1659.44,-198.97 1587.39,-123 1560.46,-94.61 996.08,-82.39 802.15,-79.02"/>
<polygon fill="midnightblue" stroke="midnightblue" points="802.16,-75.52 792.1,-78.85 802.04,-82.52 802.16,-75.52"/>
</g>
<!-- Node26&#45;&gt;Node7 -->
<g id="edge44" class="edge">
<title>Node26&#45;&gt;Node7</title>
<path fill="none" stroke="midnightblue" d="M1302.88,-293.25C1237.41,-284.93 1122.9,-270.19 1014.73,-255.17"/>
<polygon fill="midnightblue" stroke="midnightblue" points="1015.01,-251.67 1004.62,-253.76 1014.04,-258.61 1015.01,-251.67"/>
</g>
<!-- Node26&#45;&gt;Node19 -->
<g id="edge43" class="edge">
<title>Node26&#45;&gt;Node19</title>
<path fill="none" stroke="midnightblue" d="M1339.19,-291.32C1322.03,-282.66 1295.44,-269.24 1275.64,-259.25"/>
<polygon fill="midnightblue" stroke="midnightblue" points="1277.04,-256.04 1266.53,-254.65 1273.89,-262.28 1277.04,-256.04"/>
</g>
<!-- Node27 -->
<g id="node27" class="node">
<title>Node27</title>
<g id="a_node27"><a xlink:title=" ">
<polygon fill="white" stroke="#bfbfbf" points="1374.39,-235.5 1374.39,-254.5 1434.39,-254.5 1434.39,-235.5 1374.39,-235.5"/>
<text text-anchor="middle" x="1404.39" y="-242.5" font-family="'Souce Sans Pro', Roboto, FreeSans, sans-serif" font-size="10.00">functional</text>
</a>
</g>
</g>
<!-- Node26&#45;&gt;Node27 -->
<g id="edge42" class="edge">
<title>Node26&#45;&gt;Node27</title>
<path fill="none" stroke="midnightblue" d="M1364.31,-291.08C1371.23,-283.3 1381.45,-271.8 1389.84,-262.37"/>
<polygon fill="midnightblue" stroke="midnightblue" points="1392.58,-264.55 1396.61,-254.75 1387.35,-259.9 1392.58,-264.55"/>
</g>
<!-- Node28&#45;&gt;Node2 -->
<g id="edge46" class="edge">
<title>Node28&#45;&gt;Node2</title>
<path fill="none" stroke="midnightblue" d="M1084.37,-235.39C1063.06,-213.06 1002.38,-152.98 939.39,-123 896.17,-102.43 843.23,-91.09 802.39,-84.93"/>
<polygon fill="midnightblue" stroke="midnightblue" points="802.68,-81.44 792.29,-83.48 801.68,-88.37 802.68,-81.44"/>
</g>
<!-- Node28&#45;&gt;Node9 -->
<g id="edge47" class="edge">
<title>Node28&#45;&gt;Node9</title>
<path fill="none" stroke="midnightblue" d="M1022.18,-235.92C1019.21,-235.61 1016.27,-235.3 1013.39,-235 843.01,-217.45 797.27,-220.28 624,-199.14"/>
<polygon fill="midnightblue" stroke="midnightblue" points="624.38,-195.66 614.03,-197.91 623.53,-202.61 624.38,-195.66"/>
</g>
<!-- Node28&#45;&gt;Node20 -->
<g id="edge48" class="edge">
<title>Node28&#45;&gt;Node20</title>
<path fill="none" stroke="midnightblue" d="M1135.8,-235.44C1183.9,-225.96 1261.48,-210.67 1313.19,-200.48"/>
<polygon fill="midnightblue" stroke="midnightblue" points="1314.04,-203.88 1323.17,-198.52 1312.68,-197.02 1314.04,-203.88"/>
</g>
<!-- Node29&#45;&gt;Node2 -->
<g id="edge54" class="edge">
<title>Node29&#45;&gt;Node2</title>
<path fill="none" stroke="midnightblue" d="M96.15,-295.96C42.97,-289.8 -17.78,-274.24 5.39,-235 57.77,-146.27 109.78,-152.91 208.39,-123 230.25,-116.37 535.75,-93 672.28,-82.81"/>
<polygon fill="midnightblue" stroke="midnightblue" points="672.89,-86.28 682.6,-82.04 672.36,-79.3 672.89,-86.28"/>
</g>
<!-- Node29&#45;&gt;Node9 -->
<g id="edge56" class="edge">
<title>Node29&#45;&gt;Node9</title>
<path fill="none" stroke="midnightblue" d="M187.89,-291.46C223.49,-278.16 295.15,-252.24 357.39,-235 407.81,-221.03 466.12,-208.69 507.98,-200.48"/>
<polygon fill="midnightblue" stroke="midnightblue" points="508.83,-203.88 517.98,-198.54 507.5,-197.01 508.83,-203.88"/>
</g>
<!-- Node30 -->
<g id="node30" class="node">
<title>Node30</title>
<g id="a_node30"><a xlink:title=" ">
<polygon fill="white" stroke="#bfbfbf" points="196.39,-235.5 196.39,-254.5 234.39,-254.5 234.39,-235.5 196.39,-235.5"/>
<text text-anchor="middle" x="215.39" y="-242.5" font-family="'Souce Sans Pro', Roboto, FreeSans, sans-serif" font-size="10.00">array</text>
</a>
</g>
</g>
<!-- Node29&#45;&gt;Node30 -->
<g id="edge55" class="edge">
<title>Node29&#45;&gt;Node30</title>
<path fill="none" stroke="midnightblue" d="M173.64,-291.08C180.85,-283.3 191.5,-271.8 200.23,-262.37"/>
<polygon fill="midnightblue" stroke="midnightblue" points="203.06,-264.47 207.28,-254.75 197.92,-259.71 203.06,-264.47"/>
</g>
<!-- Node31 -->
<g id="node31" class="node">
<title>Node31</title>
<g id="a_node31"><a xlink:href="socketbuffer_8h.html" target="_top" xlink:title=" ">
<polygon fill="white" stroke="black" points="14.39,-235.5 14.39,-254.5 178.39,-254.5 178.39,-235.5 14.39,-235.5"/>
<text text-anchor="middle" x="96.39" y="-242.5" font-family="'Souce Sans Pro', Roboto, FreeSans, sans-serif" font-size="10.00">log4cplus/helpers/socketbuffer.h</text>
</a>
</g>
</g>
<!-- Node29&#45;&gt;Node31 -->
<g id="edge57" class="edge">
<title>Node29&#45;&gt;Node31</title>
<path fill="none" stroke="midnightblue" d="M154.3,-291.32C143.9,-283.18 128.13,-270.84 115.66,-261.09"/>
<polygon fill="midnightblue" stroke="midnightblue" points="117.71,-258.24 107.67,-254.83 113.39,-263.75 117.71,-258.24"/>
</g>
<!-- Node31&#45;&gt;Node2 -->
<g id="edge58" class="edge">
<title>Node31&#45;&gt;Node2</title>
<path fill="none" stroke="midnightblue" d="M103.84,-235.26C124.2,-212.08 183.6,-149.03 248.39,-123 267.76,-115.21 543.95,-92.98 672.48,-82.98"/>
<polygon fill="midnightblue" stroke="midnightblue" points="672.89,-86.46 682.58,-82.2 672.34,-79.48 672.89,-86.46"/>
</g>
<!-- Node31&#45;&gt;Node9 -->
<g id="edge59" class="edge">
<title>Node31&#45;&gt;Node9</title>
<path fill="none" stroke="midnightblue" d="M170.28,-235.47C262.73,-224.81 419.23,-206.75 504.55,-196.9"/>
<polygon fill="midnightblue" stroke="midnightblue" points="505.06,-200.37 514.59,-195.75 504.26,-193.41 505.06,-200.37"/>
</g>
<!-- Node32&#45;&gt;Node2 -->
<g id="edge62" class="edge">
<title>Node32&#45;&gt;Node2</title>
<path fill="none" stroke="midnightblue" d="M398.09,-291.48C383.96,-284.08 365.83,-271.89 357.39,-255 353.41,-247.05 354.55,-243.42 357.39,-235 377.32,-175.77 388.68,-154.94 442.39,-123 480.18,-100.52 597.58,-88.07 672.38,-82.23"/>
<polygon fill="midnightblue" stroke="midnightblue" points="672.94,-85.7 682.64,-81.45 672.4,-78.72 672.94,-85.7"/>
</g>
<!-- Node32&#45;&gt;Node9 -->
<g id="edge65" class="edge">
<title>Node32&#45;&gt;Node9</title>
<path fill="none" stroke="midnightblue" d="M427.99,-291.41C443.65,-278.79 473.93,-254.64 500.39,-235 514.43,-224.58 530.53,-213.25 543.08,-204.58"/>
<polygon fill="midnightblue" stroke="midnightblue" points="545.25,-207.33 551.5,-198.77 541.28,-201.56 545.25,-207.33"/>
</g>
<!-- Node32&#45;&gt;Node18 -->
<g id="edge63" class="edge">
<title>Node32&#45;&gt;Node18</title>
<path fill="none" stroke="midnightblue" d="M441.47,-291.44C466.93,-282.4 507.28,-268.06 535.84,-257.92"/>
<polygon fill="midnightblue" stroke="midnightblue" points="537.16,-261.16 545.41,-254.52 534.82,-254.57 537.16,-261.16"/>
</g>
<!-- Node32&#45;&gt;Node19 -->
<g id="edge66" class="edge">
<title>Node32&#45;&gt;Node19</title>
<path fill="none" stroke="midnightblue" d="M486.09,-297.17C616.99,-291.51 911.36,-277.43 1169.75,-255.1"/>
<polygon fill="midnightblue" stroke="midnightblue" points="1170.42,-258.55 1180.08,-254.2 1169.82,-251.58 1170.42,-258.55"/>
</g>
<!-- Node33 -->
<g id="node33" class="node">
<title>Node33</title>
<g id="a_node33"><a xlink:title=" ">
<polygon fill="white" stroke="#bfbfbf" points="366.39,-235.5 366.39,-254.5 410.39,-254.5 410.39,-235.5 366.39,-235.5"/>
<text text-anchor="middle" x="388.39" y="-242.5" font-family="'Souce Sans Pro', Roboto, FreeSans, sans-serif" font-size="10.00">thread</text>
</a>
</g>
</g>
<!-- Node32&#45;&gt;Node33 -->
<g id="edge64" class="edge">
<title>Node32&#45;&gt;Node33</title>
<path fill="none" stroke="midnightblue" d="M412.6,-291.08C408.63,-283.69 402.86,-272.95 397.95,-263.81"/>
<polygon fill="midnightblue" stroke="midnightblue" points="400.9,-261.91 393.09,-254.75 394.73,-265.22 400.9,-261.91"/>
</g>
<!-- Node34&#45;&gt;Node2 -->
<g id="edge68" class="edge">
<title>Node34&#45;&gt;Node2</title>
<path fill="none" stroke="midnightblue" d="M381.05,-347.39C335.23,-334.12 262.39,-303.91 262.39,-246 262.39,-246 262.39,-246 262.39,-188 262.39,-116.16 341.25,-142.53 410.39,-123 499.11,-97.94 605.48,-86.6 672.26,-81.64"/>
<polygon fill="midnightblue" stroke="midnightblue" points="672.91,-85.1 682.63,-80.9 672.41,-78.12 672.91,-85.1"/>
</g>
<!-- Node34&#45;&gt;Node20 -->
<g id="edge69" class="edge">
<title>Node34&#45;&gt;Node20</title>
<path fill="none" stroke="midnightblue" d="M508.24,-355.95C711.03,-354.27 1193.27,-341.05 1327.39,-255 1343.96,-244.36 1354.49,-223.95 1360.37,-208.82"/>
<polygon fill="midnightblue" stroke="midnightblue" points="1363.82,-209.55 1363.85,-198.96 1357.22,-207.22 1363.82,-209.55"/>
</g>
<!-- Node34&#45;&gt;Node29 -->
<g id="edge71" class="edge">
<title>Node34&#45;&gt;Node29</title>
<path fill="none" stroke="midnightblue" d="M377.46,-347.44C333.49,-338.02 262.76,-322.87 215.2,-312.68"/>
<polygon fill="midnightblue" stroke="midnightblue" points="215.64,-309.19 205.13,-310.52 214.17,-316.03 215.64,-309.19"/>
</g>
<!-- Node34&#45;&gt;Node32 -->
<g id="edge70" class="edge">
<title>Node34&#45;&gt;Node32</title>
<path fill="none" stroke="midnightblue" d="M417.39,-347.08C417.39,-340.01 417.39,-329.86 417.39,-320.99"/>
<polygon fill="midnightblue" stroke="midnightblue" points="420.89,-320.75 417.39,-310.75 413.89,-320.75 420.89,-320.75"/>
</g>
</g>
</svg>
