<?xml version="1.0" encoding="UTF-8" standalone="no"?>
<!DOCTYPE svg PUBLIC "-//W3C//DTD SVG 1.1//EN"
 "http://www.w3.org/Graphics/SVG/1.1/DTD/svg11.dtd">
<!-- Generated by graphviz version 2.43.0 (0)
 -->
<!-- Title: socketbuffer.h Pages: 1 -->
<svg width="394pt" height="252pt"
 viewBox="0.00 0.00 394.00 252.00" xmlns="http://www.w3.org/2000/svg" xmlns:xlink="http://www.w3.org/1999/xlink">
<g id="graph0" class="graph" transform="scale(1 1) rotate(0) translate(4 248)">
<title>socketbuffer.h</title>
<polygon fill="white" stroke="transparent" points="-4,4 -4,-248 390,-248 390,4 -4,4"/>
<!-- Node1 -->
<g id="node1" class="node">
<title>Node1</title>
<g id="a_node1"><a xlink:title=" ">
<polygon fill="#bfbfbf" stroke="black" points="141.5,-224.5 141.5,-243.5 221.5,-243.5 221.5,-224.5 141.5,-224.5"/>
<text text-anchor="middle" x="181.5" y="-231.5" font-family="'Souce Sans Pro', Roboto, FreeSans, sans-serif" font-size="10.00">socketbuffer.h</text>
</a>
</g>
</g>
<!-- Node2 -->
<g id="node2" class="node">
<title>Node2</title>
<g id="a_node2"><a xlink:href="helpers_2socket_8h.html" target="_top" xlink:title=" ">
<polygon fill="white" stroke="black" points="154,-168.5 154,-187.5 209,-187.5 209,-168.5 154,-168.5"/>
<text text-anchor="middle" x="181.5" y="-175.5" font-family="'Souce Sans Pro', Roboto, FreeSans, sans-serif" font-size="10.00">socket.h</text>
</a>
</g>
</g>
<!-- Node1&#45;&gt;Node2 -->
<g id="edge1" class="edge">
<title>Node1&#45;&gt;Node2</title>
<path fill="none" stroke="midnightblue" d="M181.5,-213.8C181.5,-204.91 181.5,-194.78 181.5,-187.75"/>
<polygon fill="midnightblue" stroke="midnightblue" points="178,-214.08 181.5,-224.08 185,-214.08 178,-214.08"/>
</g>
<!-- Node3 -->
<g id="node3" class="node">
<title>Node3</title>
<g id="a_node3"><a xlink:href="connectorthread_8h.html" target="_top" xlink:title=" ">
<polygon fill="white" stroke="black" points="55.5,-112.5 55.5,-131.5 153.5,-131.5 153.5,-112.5 55.5,-112.5"/>
<text text-anchor="middle" x="104.5" y="-119.5" font-family="'Souce Sans Pro', Roboto, FreeSans, sans-serif" font-size="10.00">connectorthread.h</text>
</a>
</g>
</g>
<!-- Node2&#45;&gt;Node3 -->
<g id="edge2" class="edge">
<title>Node2&#45;&gt;Node3</title>
<path fill="none" stroke="midnightblue" d="M160.6,-162.34C146.59,-152.52 128.62,-139.91 116.84,-131.65"/>
<polygon fill="midnightblue" stroke="midnightblue" points="158.93,-165.45 169.13,-168.32 162.95,-159.72 158.93,-165.45"/>
</g>
<!-- Node4 -->
<g id="node4" class="node">
<title>Node4</title>
<g id="a_node4"><a xlink:href="socketappender_8h.html" target="_top" xlink:title=" ">
<polygon fill="white" stroke="black" points="0,-56.5 0,-75.5 95,-75.5 95,-56.5 0,-56.5"/>
<text text-anchor="middle" x="47.5" y="-63.5" font-family="'Souce Sans Pro', Roboto, FreeSans, sans-serif" font-size="10.00">socketappender.h</text>
</a>
</g>
</g>
<!-- Node2&#45;&gt;Node4 -->
<g id="edge9" class="edge">
<title>Node2&#45;&gt;Node4</title>
<path fill="none" stroke="midnightblue" d="M143.53,-175.83C111.84,-172.59 68.43,-162.43 46.5,-132 34.36,-115.15 40.19,-88.94 44.43,-75.53"/>
<polygon fill="midnightblue" stroke="midnightblue" points="143.53,-179.34 153.78,-176.68 144.1,-172.36 143.53,-179.34"/>
</g>
<!-- Node6 -->
<g id="node6" class="node">
<title>Node6</title>
<g id="a_node6"><a xlink:href="syslogappender_8h.html" target="_top" xlink:title=" ">
<polygon fill="white" stroke="black" points="113.5,-56.5 113.5,-75.5 207.5,-75.5 207.5,-56.5 113.5,-56.5"/>
<text text-anchor="middle" x="160.5" y="-63.5" font-family="'Souce Sans Pro', Roboto, FreeSans, sans-serif" font-size="10.00">syslogappender.h</text>
</a>
</g>
</g>
<!-- Node2&#45;&gt;Node6 -->
<g id="edge10" class="edge">
<title>Node2&#45;&gt;Node6</title>
<path fill="none" stroke="midnightblue" d="M177.94,-158.35C173.34,-134.25 165.52,-93.31 162.14,-75.59"/>
<polygon fill="midnightblue" stroke="midnightblue" points="174.54,-159.2 179.85,-168.37 181.41,-157.89 174.54,-159.2"/>
</g>
<!-- Node7 -->
<g id="node7" class="node">
<title>Node7</title>
<g id="a_node7"><a xlink:href="internal_2socket_8h.html" target="_top" xlink:title="This header contains declaration internal to log4cplus.">
<polygon fill="white" stroke="black" points="210,-112.5 210,-131.5 265,-131.5 265,-112.5 210,-112.5"/>
<text text-anchor="middle" x="237.5" y="-119.5" font-family="'Souce Sans Pro', Roboto, FreeSans, sans-serif" font-size="10.00">socket.h</text>
</a>
</g>
</g>
<!-- Node2&#45;&gt;Node7 -->
<g id="edge7" class="edge">
<title>Node2&#45;&gt;Node7</title>
<path fill="none" stroke="midnightblue" d="M197.83,-161.25C207.76,-151.67 220.09,-139.79 228.34,-131.83"/>
<polygon fill="midnightblue" stroke="midnightblue" points="195.27,-158.86 190.5,-168.32 200.13,-163.9 195.27,-158.86"/>
</g>
<!-- Node8 -->
<g id="node8" class="node">
<title>Node8</title>
<g id="a_node8"><a xlink:href="log4judpappender_8h.html" target="_top" xlink:title=" ">
<polygon fill="white" stroke="black" points="283,-112.5 283,-131.5 386,-131.5 386,-112.5 283,-112.5"/>
<text text-anchor="middle" x="334.5" y="-119.5" font-family="'Souce Sans Pro', Roboto, FreeSans, sans-serif" font-size="10.00">log4judpappender.h</text>
</a>
</g>
</g>
<!-- Node2&#45;&gt;Node8 -->
<g id="edge8" class="edge">
<title>Node2&#45;&gt;Node8</title>
<path fill="none" stroke="midnightblue" d="M215.39,-165.04C244.18,-154.88 284.79,-140.55 310.37,-131.52"/>
<polygon fill="midnightblue" stroke="midnightblue" points="214.01,-161.81 205.74,-168.44 216.34,-168.42 214.01,-161.81"/>
</g>
<!-- Node3&#45;&gt;Node4 -->
<g id="edge3" class="edge">
<title>Node3&#45;&gt;Node4</title>
<path fill="none" stroke="midnightblue" d="M87.88,-105.25C77.77,-95.67 65.22,-83.79 56.82,-75.83"/>
<polygon fill="midnightblue" stroke="midnightblue" points="85.68,-107.99 95.34,-112.32 90.49,-102.91 85.68,-107.99"/>
</g>
<!-- Node3&#45;&gt;Node6 -->
<g id="edge5" class="edge">
<title>Node3&#45;&gt;Node6</title>
<path fill="none" stroke="midnightblue" d="M120.83,-105.25C130.76,-95.67 143.09,-83.79 151.34,-75.83"/>
<polygon fill="midnightblue" stroke="midnightblue" points="118.27,-102.86 113.5,-112.32 123.13,-107.9 118.27,-102.86"/>
</g>
<!-- Node5 -->
<g id="node5" class="node">
<title>Node5</title>
<g id="a_node5"><a xlink:href="log4cplus_8h.html" target="_top" xlink:title=" ">
<polygon fill="white" stroke="black" points="70,-0.5 70,-19.5 137,-19.5 137,-0.5 70,-0.5"/>
<text text-anchor="middle" x="103.5" y="-7.5" font-family="'Souce Sans Pro', Roboto, FreeSans, sans-serif" font-size="10.00">log4cplus.h</text>
</a>
</g>
</g>
<!-- Node4&#45;&gt;Node5 -->
<g id="edge4" class="edge">
<title>Node4&#45;&gt;Node5</title>
<path fill="none" stroke="midnightblue" d="M63.83,-49.25C73.76,-39.67 86.09,-27.79 94.34,-19.83"/>
<polygon fill="midnightblue" stroke="midnightblue" points="61.27,-46.86 56.5,-56.32 66.13,-51.9 61.27,-46.86"/>
</g>
<!-- Node6&#45;&gt;Node5 -->
<g id="edge6" class="edge">
<title>Node6&#45;&gt;Node5</title>
<path fill="none" stroke="midnightblue" d="M143.88,-49.25C133.77,-39.67 121.22,-27.79 112.82,-19.83"/>
<polygon fill="midnightblue" stroke="midnightblue" points="141.68,-51.99 151.34,-56.32 146.49,-46.91 141.68,-51.99"/>
</g>
</g>
</svg>
