<?xml version="1.0" encoding="UTF-8" standalone="no"?>
<!DOCTYPE svg PUBLIC "-//W3C//DTD SVG 1.1//EN"
 "http://www.w3.org/Graphics/SVG/1.1/DTD/svg11.dtd">
<!-- Generated by graphviz version 2.43.0 (0)
 -->
<!-- Title: threads&#45;impl.h Pages: 1 -->
<svg width="816pt" height="330pt"
 viewBox="0.00 0.00 816.00 330.00" xmlns="http://www.w3.org/2000/svg" xmlns:xlink="http://www.w3.org/1999/xlink">
<g id="graph0" class="graph" transform="scale(1 1) rotate(0) translate(4 326)">
<title>threads&#45;impl.h</title>
<polygon fill="white" stroke="transparent" points="-4,4 -4,-326 812,-326 812,4 -4,4"/>
<!-- Node1 -->
<g id="node1" class="node">
<title>Node1</title>
<g id="a_node1"><a xlink:title=" ">
<polygon fill="#bfbfbf" stroke="black" points="275.5,-302.5 275.5,-321.5 355.5,-321.5 355.5,-302.5 275.5,-302.5"/>
<text text-anchor="middle" x="315.5" y="-309.5" font-family="'Souce Sans Pro', Roboto, FreeSans, sans-serif" font-size="10.00">threads&#45;impl.h</text>
</a>
</g>
</g>
<!-- Node2 -->
<g id="node2" class="node">
<title>Node2</title>
<g id="a_node2"><a xlink:href="config_8hxx.html" target="_top" xlink:title=" ">
<polygon fill="white" stroke="black" points="183,-67.5 183,-86.5 292,-86.5 292,-67.5 183,-67.5"/>
<text text-anchor="middle" x="237.5" y="-74.5" font-family="'Souce Sans Pro', Roboto, FreeSans, sans-serif" font-size="10.00">log4cplus/config.hxx</text>
</a>
</g>
</g>
<!-- Node1&#45;&gt;Node2 -->
<g id="edge1" class="edge">
<title>Node1&#45;&gt;Node2</title>
<path fill="none" stroke="midnightblue" d="M286.38,-302.44C268.86,-295.62 247.98,-284.14 237.5,-266 205.98,-211.42 222.01,-132.21 231.79,-96.59"/>
<polygon fill="midnightblue" stroke="midnightblue" points="235.25,-97.22 234.68,-86.64 228.53,-95.26 235.25,-97.22"/>
</g>
<!-- Node5 -->
<g id="node5" class="node">
<title>Node5</title>
<g id="a_node5"><a xlink:href="windowsh-inc_8h.html" target="_top" xlink:title=" ">
<polygon fill="white" stroke="black" points="580.5,-235.5 580.5,-265.5 720.5,-265.5 720.5,-235.5 580.5,-235.5"/>
<text text-anchor="start" x="588.5" y="-253.5" font-family="'Souce Sans Pro', Roboto, FreeSans, sans-serif" font-size="10.00">log4cplus/config/windowsh</text>
<text text-anchor="middle" x="650.5" y="-242.5" font-family="'Souce Sans Pro', Roboto, FreeSans, sans-serif" font-size="10.00">&#45;inc.h</text>
</a>
</g>
</g>
<!-- Node1&#45;&gt;Node5 -->
<g id="edge4" class="edge">
<title>Node1&#45;&gt;Node5</title>
<path fill="none" stroke="midnightblue" d="M355.58,-303.88C408.35,-294.51 502.38,-277.81 570.1,-265.78"/>
<polygon fill="midnightblue" stroke="midnightblue" points="571.08,-269.16 580.31,-263.97 569.85,-262.27 571.08,-269.16"/>
</g>
<!-- Node9 -->
<g id="node9" class="node">
<title>Node9</title>
<g id="a_node9"><a xlink:href="tstring_8h.html" target="_top" xlink:title=" ">
<polygon fill="white" stroke="black" points="91,-179.5 91,-198.5 190,-198.5 190,-179.5 91,-179.5"/>
<text text-anchor="middle" x="140.5" y="-186.5" font-family="'Souce Sans Pro', Roboto, FreeSans, sans-serif" font-size="10.00">log4cplus/tstring.h</text>
</a>
</g>
</g>
<!-- Node1&#45;&gt;Node9 -->
<g id="edge8" class="edge">
<title>Node1&#45;&gt;Node9</title>
<path fill="none" stroke="midnightblue" d="M283.28,-302.5C259.93,-295.3 228.39,-283.35 204.5,-266 182.12,-249.75 162.67,-224.05 151.26,-207.11"/>
<polygon fill="midnightblue" stroke="midnightblue" points="154.18,-205.17 145.78,-198.71 148.32,-209 154.18,-205.17"/>
</g>
<!-- Node13 -->
<g id="node13" class="node">
<title>Node13</title>
<g id="a_node13"><a xlink:href="pointer_8h.html" target="_top" xlink:title=" ">
<polygon fill="white" stroke="black" points="418.5,-179.5 418.5,-198.5 556.5,-198.5 556.5,-179.5 418.5,-179.5"/>
<text text-anchor="middle" x="487.5" y="-186.5" font-family="'Souce Sans Pro', Roboto, FreeSans, sans-serif" font-size="10.00">log4cplus/helpers/pointer.h</text>
</a>
</g>
</g>
<!-- Node1&#45;&gt;Node13 -->
<g id="edge14" class="edge">
<title>Node1&#45;&gt;Node13</title>
<path fill="none" stroke="midnightblue" d="M331.85,-302.35C347.73,-293.75 372.33,-279.85 392.5,-266 420.73,-246.61 451.32,-221.29 469.95,-205.33"/>
<polygon fill="midnightblue" stroke="midnightblue" points="472.33,-207.9 477.61,-198.71 467.75,-202.6 472.33,-207.9"/>
</g>
<!-- Node20 -->
<g id="node20" class="node">
<title>Node20</title>
<g id="a_node20"><a xlink:href="threads_8h.html" target="_top" xlink:title=" ">
<polygon fill="white" stroke="black" points="247,-241 247,-260 384,-260 384,-241 247,-241"/>
<text text-anchor="middle" x="315.5" y="-248" font-family="'Souce Sans Pro', Roboto, FreeSans, sans-serif" font-size="10.00">log4cplus/thread/threads.h</text>
</a>
</g>
</g>
<!-- Node1&#45;&gt;Node20 -->
<g id="edge23" class="edge">
<title>Node1&#45;&gt;Node20</title>
<path fill="none" stroke="midnightblue" d="M315.5,-302.48C315.5,-294.08 315.5,-280.98 315.5,-270.16"/>
<polygon fill="midnightblue" stroke="midnightblue" points="319,-270.01 315.5,-260.01 312,-270.01 319,-270.01"/>
</g>
<!-- Node3 -->
<g id="node3" class="node">
<title>Node3</title>
<g id="a_node3"><a xlink:href="win32_8h.html" target="_top" xlink:title=" ">
<polygon fill="white" stroke="black" points="100.5,-6 100.5,-25 228.5,-25 228.5,-6 100.5,-6"/>
<text text-anchor="middle" x="164.5" y="-13" font-family="'Souce Sans Pro', Roboto, FreeSans, sans-serif" font-size="10.00">log4cplus/config/win32.h</text>
</a>
</g>
</g>
<!-- Node2&#45;&gt;Node3 -->
<g id="edge2" class="edge">
<title>Node2&#45;&gt;Node3</title>
<path fill="none" stroke="midnightblue" d="M227.04,-67.48C215.55,-58.11 196.87,-42.88 182.91,-31.51"/>
<polygon fill="midnightblue" stroke="midnightblue" points="184.9,-28.61 174.94,-25.01 180.48,-34.04 184.9,-28.61"/>
</g>
<!-- Node4 -->
<g id="node4" class="node">
<title>Node4</title>
<g id="a_node4"><a xlink:href="thread-config_8h.html" target="_top" xlink:title=" ">
<polygon fill="white" stroke="black" points="246.5,-0.5 246.5,-30.5 374.5,-30.5 374.5,-0.5 246.5,-0.5"/>
<text text-anchor="start" x="254.5" y="-18.5" font-family="'Souce Sans Pro', Roboto, FreeSans, sans-serif" font-size="10.00">log4cplus/helpers/thread</text>
<text text-anchor="middle" x="310.5" y="-7.5" font-family="'Souce Sans Pro', Roboto, FreeSans, sans-serif" font-size="10.00">&#45;config.h</text>
</a>
</g>
</g>
<!-- Node2&#45;&gt;Node4 -->
<g id="edge3" class="edge">
<title>Node2&#45;&gt;Node4</title>
<path fill="none" stroke="midnightblue" d="M247.96,-67.48C257.66,-59.57 272.49,-47.48 285.27,-37.07"/>
<polygon fill="midnightblue" stroke="midnightblue" points="287.76,-39.55 293.3,-30.52 283.33,-34.13 287.76,-39.55"/>
</g>
<!-- Node6 -->
<g id="node6" class="node">
<title>Node6</title>
<g id="a_node6"><a xlink:title=" ">
<polygon fill="white" stroke="#bfbfbf" points="575,-179.5 575,-198.5 642,-198.5 642,-179.5 575,-179.5"/>
<text text-anchor="middle" x="608.5" y="-186.5" font-family="'Souce Sans Pro', Roboto, FreeSans, sans-serif" font-size="10.00">winsock2.h</text>
</a>
</g>
</g>
<!-- Node5&#45;&gt;Node6 -->
<g id="edge5" class="edge">
<title>Node5&#45;&gt;Node6</title>
<path fill="none" stroke="midnightblue" d="M640.55,-235.4C634.51,-226.84 626.76,-215.87 620.4,-206.86"/>
<polygon fill="midnightblue" stroke="midnightblue" points="623.24,-204.81 614.61,-198.66 617.52,-208.85 623.24,-204.81"/>
</g>
<!-- Node7 -->
<g id="node7" class="node">
<title>Node7</title>
<g id="a_node7"><a xlink:title=" ">
<polygon fill="white" stroke="#bfbfbf" points="660.5,-179.5 660.5,-198.5 724.5,-198.5 724.5,-179.5 660.5,-179.5"/>
<text text-anchor="middle" x="692.5" y="-186.5" font-family="'Souce Sans Pro', Roboto, FreeSans, sans-serif" font-size="10.00">ws2tcpip.h</text>
</a>
</g>
</g>
<!-- Node5&#45;&gt;Node7 -->
<g id="edge6" class="edge">
<title>Node5&#45;&gt;Node7</title>
<path fill="none" stroke="midnightblue" d="M660.45,-235.4C666.49,-226.84 674.24,-215.87 680.6,-206.86"/>
<polygon fill="midnightblue" stroke="midnightblue" points="683.48,-208.85 686.39,-198.66 677.76,-204.81 683.48,-208.85"/>
</g>
<!-- Node8 -->
<g id="node8" class="node">
<title>Node8</title>
<g id="a_node8"><a xlink:title=" ">
<polygon fill="white" stroke="#bfbfbf" points="743,-179.5 743,-198.5 808,-198.5 808,-179.5 743,-179.5"/>
<text text-anchor="middle" x="775.5" y="-186.5" font-family="'Souce Sans Pro', Roboto, FreeSans, sans-serif" font-size="10.00">windows.h</text>
</a>
</g>
</g>
<!-- Node5&#45;&gt;Node8 -->
<g id="edge7" class="edge">
<title>Node5&#45;&gt;Node8</title>
<path fill="none" stroke="midnightblue" d="M680.12,-235.4C700.72,-225.59 727.98,-212.62 748.08,-203.05"/>
<polygon fill="midnightblue" stroke="midnightblue" points="749.79,-206.12 757.31,-198.66 746.78,-199.8 749.79,-206.12"/>
</g>
<!-- Node9&#45;&gt;Node2 -->
<g id="edge9" class="edge">
<title>Node9&#45;&gt;Node2</title>
<path fill="none" stroke="midnightblue" d="M148.11,-179.37C164.26,-161.05 202.18,-118.05 223.07,-94.36"/>
<polygon fill="midnightblue" stroke="midnightblue" points="225.94,-96.41 229.92,-86.59 220.68,-91.78 225.94,-96.41"/>
</g>
<!-- Node10 -->
<g id="node10" class="node">
<title>Node10</title>
<g id="a_node10"><a xlink:title=" ">
<polygon fill="white" stroke="#bfbfbf" points="111,-123.5 111,-142.5 152,-142.5 152,-123.5 111,-123.5"/>
<text text-anchor="middle" x="131.5" y="-130.5" font-family="'Souce Sans Pro', Roboto, FreeSans, sans-serif" font-size="10.00">string</text>
</a>
</g>
</g>
<!-- Node9&#45;&gt;Node10 -->
<g id="edge10" class="edge">
<title>Node9&#45;&gt;Node10</title>
<path fill="none" stroke="midnightblue" d="M139.01,-179.08C137.82,-171.93 136.11,-161.64 134.62,-152.69"/>
<polygon fill="midnightblue" stroke="midnightblue" points="138.05,-152.04 132.96,-142.75 131.15,-153.19 138.05,-152.04"/>
</g>
<!-- Node11 -->
<g id="node11" class="node">
<title>Node11</title>
<g id="a_node11"><a xlink:href="tchar_8h.html" target="_top" xlink:title=" ">
<polygon fill="white" stroke="black" points="0,-123.5 0,-142.5 93,-142.5 93,-123.5 0,-123.5"/>
<text text-anchor="middle" x="46.5" y="-130.5" font-family="'Souce Sans Pro', Roboto, FreeSans, sans-serif" font-size="10.00">log4cplus/tchar.h</text>
</a>
</g>
</g>
<!-- Node9&#45;&gt;Node11 -->
<g id="edge11" class="edge">
<title>Node9&#45;&gt;Node11</title>
<path fill="none" stroke="midnightblue" d="M125.4,-179.32C110.6,-170.82 87.81,-157.73 70.52,-147.8"/>
<polygon fill="midnightblue" stroke="midnightblue" points="71.98,-144.6 61.57,-142.65 68.49,-150.67 71.98,-144.6"/>
</g>
<!-- Node11&#45;&gt;Node2 -->
<g id="edge12" class="edge">
<title>Node11&#45;&gt;Node2</title>
<path fill="none" stroke="midnightblue" d="M76.76,-123.44C109.46,-114.2 161.68,-99.44 197.68,-89.26"/>
<polygon fill="midnightblue" stroke="midnightblue" points="198.71,-92.61 207.38,-86.52 196.8,-85.87 198.71,-92.61"/>
</g>
<!-- Node12 -->
<g id="node12" class="node">
<title>Node12</title>
<g id="a_node12"><a xlink:title=" ">
<polygon fill="white" stroke="#bfbfbf" points="21,-67.5 21,-86.5 72,-86.5 72,-67.5 21,-67.5"/>
<text text-anchor="middle" x="46.5" y="-74.5" font-family="'Souce Sans Pro', Roboto, FreeSans, sans-serif" font-size="10.00">cstddef</text>
</a>
</g>
</g>
<!-- Node11&#45;&gt;Node12 -->
<g id="edge13" class="edge">
<title>Node11&#45;&gt;Node12</title>
<path fill="none" stroke="midnightblue" d="M46.5,-123.08C46.5,-116.01 46.5,-105.86 46.5,-96.99"/>
<polygon fill="midnightblue" stroke="midnightblue" points="50,-96.75 46.5,-86.75 43,-96.75 50,-96.75"/>
</g>
<!-- Node13&#45;&gt;Node2 -->
<g id="edge15" class="edge">
<title>Node13&#45;&gt;Node2</title>
<path fill="none" stroke="midnightblue" d="M427.88,-179.5C393.1,-172.88 349.2,-161.6 313.5,-143 289.34,-130.41 266.24,-108.83 251.98,-94.01"/>
<polygon fill="midnightblue" stroke="midnightblue" points="254.41,-91.48 245.02,-86.58 249.3,-96.27 254.41,-91.48"/>
</g>
<!-- Node14 -->
<g id="node14" class="node">
<title>Node14</title>
<g id="a_node14"><a xlink:href="syncprims_8h.html" target="_top" xlink:title=" ">
<polygon fill="white" stroke="black" points="533,-123.5 533,-142.5 682,-142.5 682,-123.5 533,-123.5"/>
<text text-anchor="middle" x="607.5" y="-130.5" font-family="'Souce Sans Pro', Roboto, FreeSans, sans-serif" font-size="10.00">log4cplus/thread/syncprims.h</text>
</a>
</g>
</g>
<!-- Node13&#45;&gt;Node14 -->
<g id="edge16" class="edge">
<title>Node13&#45;&gt;Node14</title>
<path fill="none" stroke="midnightblue" d="M506.51,-179.44C526.09,-170.64 556.81,-156.81 579.23,-146.72"/>
<polygon fill="midnightblue" stroke="midnightblue" points="580.89,-149.81 588.57,-142.52 578.02,-143.43 580.89,-149.81"/>
</g>
<!-- Node17 -->
<g id="node17" class="node">
<title>Node17</title>
<g id="a_node17"><a xlink:title=" ">
<polygon fill="white" stroke="#bfbfbf" points="388,-123.5 388,-142.5 447,-142.5 447,-123.5 388,-123.5"/>
<text text-anchor="middle" x="417.5" y="-130.5" font-family="'Souce Sans Pro', Roboto, FreeSans, sans-serif" font-size="10.00">algorithm</text>
</a>
</g>
</g>
<!-- Node13&#45;&gt;Node17 -->
<g id="edge20" class="edge">
<title>Node13&#45;&gt;Node17</title>
<path fill="none" stroke="midnightblue" d="M476.25,-179.32C465.7,-171.18 449.7,-158.84 437.06,-149.09"/>
<polygon fill="midnightblue" stroke="midnightblue" points="439.01,-146.17 428.95,-142.83 434.73,-151.71 439.01,-146.17"/>
</g>
<!-- Node18 -->
<g id="node18" class="node">
<title>Node18</title>
<g id="a_node18"><a xlink:title=" ">
<polygon fill="white" stroke="#bfbfbf" points="465.5,-123.5 465.5,-142.5 515.5,-142.5 515.5,-123.5 465.5,-123.5"/>
<text text-anchor="middle" x="490.5" y="-130.5" font-family="'Souce Sans Pro', Roboto, FreeSans, sans-serif" font-size="10.00">cassert</text>
</a>
</g>
</g>
<!-- Node13&#45;&gt;Node18 -->
<g id="edge21" class="edge">
<title>Node13&#45;&gt;Node18</title>
<path fill="none" stroke="midnightblue" d="M488,-179.08C488.39,-172.01 488.95,-161.86 489.45,-152.99"/>
<polygon fill="midnightblue" stroke="midnightblue" points="492.95,-152.93 490.01,-142.75 485.96,-152.54 492.95,-152.93"/>
</g>
<!-- Node19 -->
<g id="node19" class="node">
<title>Node19</title>
<g id="a_node19"><a xlink:title=" ">
<polygon fill="white" stroke="#bfbfbf" points="323,-123.5 323,-142.5 370,-142.5 370,-123.5 323,-123.5"/>
<text text-anchor="middle" x="346.5" y="-130.5" font-family="'Souce Sans Pro', Roboto, FreeSans, sans-serif" font-size="10.00">atomic</text>
</a>
</g>
</g>
<!-- Node13&#45;&gt;Node19 -->
<g id="edge22" class="edge">
<title>Node13&#45;&gt;Node19</title>
<path fill="none" stroke="midnightblue" d="M465.16,-179.44C441.75,-170.48 404.76,-156.31 378.31,-146.18"/>
<polygon fill="midnightblue" stroke="midnightblue" points="379.33,-142.82 368.74,-142.52 376.82,-149.36 379.33,-142.82"/>
</g>
<!-- Node14&#45;&gt;Node2 -->
<g id="edge17" class="edge">
<title>Node14&#45;&gt;Node2</title>
<path fill="none" stroke="midnightblue" d="M548.87,-123.44C481.67,-113.64 371.86,-97.61 302.21,-87.44"/>
<polygon fill="midnightblue" stroke="midnightblue" points="302.64,-83.97 292.23,-85.99 301.62,-90.9 302.64,-83.97"/>
</g>
<!-- Node15 -->
<g id="node15" class="node">
<title>Node15</title>
<g id="a_node15"><a xlink:title=" ">
<polygon fill="white" stroke="#bfbfbf" points="541.5,-67.5 541.5,-86.5 585.5,-86.5 585.5,-67.5 541.5,-67.5"/>
<text text-anchor="middle" x="563.5" y="-74.5" font-family="'Souce Sans Pro', Roboto, FreeSans, sans-serif" font-size="10.00">mutex</text>
</a>
</g>
</g>
<!-- Node14&#45;&gt;Node15 -->
<g id="edge18" class="edge">
<title>Node14&#45;&gt;Node15</title>
<path fill="none" stroke="midnightblue" d="M600.23,-123.08C593.96,-115.38 584.71,-104.03 577.07,-94.65"/>
<polygon fill="midnightblue" stroke="midnightblue" points="579.66,-92.29 570.63,-86.75 574.23,-96.71 579.66,-92.29"/>
</g>
<!-- Node16 -->
<g id="node16" class="node">
<title>Node16</title>
<g id="a_node16"><a xlink:title=" ">
<polygon fill="white" stroke="#bfbfbf" points="603.5,-67.5 603.5,-86.5 699.5,-86.5 699.5,-67.5 603.5,-67.5"/>
<text text-anchor="middle" x="651.5" y="-74.5" font-family="'Souce Sans Pro', Roboto, FreeSans, sans-serif" font-size="10.00">condition_variable</text>
</a>
</g>
</g>
<!-- Node14&#45;&gt;Node16 -->
<g id="edge19" class="edge">
<title>Node14&#45;&gt;Node16</title>
<path fill="none" stroke="midnightblue" d="M614.77,-123.08C621.04,-115.38 630.29,-104.03 637.93,-94.65"/>
<polygon fill="midnightblue" stroke="midnightblue" points="640.77,-96.71 644.37,-86.75 635.34,-92.29 640.77,-96.71"/>
</g>
<!-- Node20&#45;&gt;Node2 -->
<g id="edge24" class="edge">
<title>Node20&#45;&gt;Node2</title>
<path fill="none" stroke="midnightblue" d="M307.04,-240.9C298.09,-231.38 284.09,-215.21 275.5,-199 257.53,-165.07 246.41,-121.22 241.14,-96.71"/>
<polygon fill="midnightblue" stroke="midnightblue" points="244.52,-95.73 239.08,-86.63 237.66,-97.13 244.52,-95.73"/>
</g>
<!-- Node20&#45;&gt;Node9 -->
<g id="edge27" class="edge">
<title>Node20&#45;&gt;Node9</title>
<path fill="none" stroke="midnightblue" d="M290.43,-240.98C260.15,-230.68 209.06,-213.31 175.06,-201.75"/>
<polygon fill="midnightblue" stroke="midnightblue" points="176.12,-198.41 165.53,-198.51 173.87,-205.04 176.12,-198.41"/>
</g>
<!-- Node20&#45;&gt;Node13 -->
<g id="edge28" class="edge">
<title>Node20&#45;&gt;Node13</title>
<path fill="none" stroke="midnightblue" d="M340.14,-240.98C369.78,-230.72 419.68,-213.46 453.1,-201.9"/>
<polygon fill="midnightblue" stroke="midnightblue" points="454.6,-205.09 462.9,-198.51 452.31,-198.47 454.6,-205.09"/>
</g>
<!-- Node21 -->
<g id="node21" class="node">
<title>Node21</title>
<g id="a_node21"><a xlink:title=" ">
<polygon fill="white" stroke="#bfbfbf" points="284.5,-179.5 284.5,-198.5 338.5,-198.5 338.5,-179.5 284.5,-179.5"/>
<text text-anchor="middle" x="311.5" y="-186.5" font-family="'Souce Sans Pro', Roboto, FreeSans, sans-serif" font-size="10.00">memory</text>
</a>
</g>
</g>
<!-- Node20&#45;&gt;Node21 -->
<g id="edge25" class="edge">
<title>Node20&#45;&gt;Node21</title>
<path fill="none" stroke="midnightblue" d="M314.93,-240.98C314.36,-232.58 313.48,-219.48 312.75,-208.66"/>
<polygon fill="midnightblue" stroke="midnightblue" points="316.24,-208.25 312.07,-198.51 309.25,-208.72 316.24,-208.25"/>
</g>
<!-- Node22 -->
<g id="node22" class="node">
<title>Node22</title>
<g id="a_node22"><a xlink:title=" ">
<polygon fill="white" stroke="#bfbfbf" points="356.5,-179.5 356.5,-198.5 400.5,-198.5 400.5,-179.5 356.5,-179.5"/>
<text text-anchor="middle" x="378.5" y="-186.5" font-family="'Souce Sans Pro', Roboto, FreeSans, sans-serif" font-size="10.00">thread</text>
</a>
</g>
</g>
<!-- Node20&#45;&gt;Node22 -->
<g id="edge26" class="edge">
<title>Node20&#45;&gt;Node22</title>
<path fill="none" stroke="midnightblue" d="M324.53,-240.98C334.26,-231.78 349.96,-216.96 361.92,-205.66"/>
<polygon fill="midnightblue" stroke="midnightblue" points="364.62,-207.92 369.49,-198.51 359.82,-202.83 364.62,-207.92"/>
</g>
</g>
</svg>
