<?xml version="1.0" encoding="UTF-8" standalone="no"?>
<!DOCTYPE svg PUBLIC "-//W3C//DTD SVG 1.1//EN"
 "http://www.w3.org/Graphics/SVG/1.1/DTD/svg11.dtd">
<!-- Generated by graphviz version 2.43.0 (0)
 -->
<!-- Title: threads.h Pages: 1 -->
<svg width="434pt" height="252pt"
 viewBox="0.00 0.00 433.50 252.00" xmlns="http://www.w3.org/2000/svg" xmlns:xlink="http://www.w3.org/1999/xlink">
<g id="graph0" class="graph" transform="scale(1 1) rotate(0) translate(4 248)">
<title>threads.h</title>
<polygon fill="white" stroke="transparent" points="-4,4 -4,-248 429.5,-248 429.5,4 -4,4"/>
<!-- Node1 -->
<g id="node1" class="node">
<title>Node1</title>
<g id="a_node1"><a xlink:title=" ">
<polygon fill="#bfbfbf" stroke="black" points="157.5,-224.5 157.5,-243.5 215.5,-243.5 215.5,-224.5 157.5,-224.5"/>
<text text-anchor="middle" x="186.5" y="-231.5" font-family="'Souce Sans Pro', Roboto, FreeSans, sans-serif" font-size="10.00">threads.h</text>
</a>
</g>
</g>
<!-- Node2 -->
<g id="node2" class="node">
<title>Node2</title>
<g id="a_node2"><a xlink:href="asyncappender_8h.html" target="_top" xlink:title=" ">
<polygon fill="white" stroke="black" points="0,-56.5 0,-75.5 91,-75.5 91,-56.5 0,-56.5"/>
<text text-anchor="middle" x="45.5" y="-63.5" font-family="'Souce Sans Pro', Roboto, FreeSans, sans-serif" font-size="10.00">asyncappender.h</text>
</a>
</g>
</g>
<!-- Node1&#45;&gt;Node2 -->
<g id="edge1" class="edge">
<title>Node1&#45;&gt;Node2</title>
<path fill="none" stroke="midnightblue" d="M147.6,-224.57C123.01,-217.79 91.62,-206.3 68.5,-188 44.91,-169.33 39.33,-160.75 30.5,-132 24.38,-112.07 34.28,-88.03 40.7,-75.52"/>
<polygon fill="midnightblue" stroke="midnightblue" points="146.78,-227.98 157.34,-227.12 148.55,-221.2 146.78,-227.98"/>
</g>
<!-- Node4 -->
<g id="node4" class="node">
<title>Node4</title>
<g id="a_node4"><a xlink:href="connectorthread_8h.html" target="_top" xlink:title=" ">
<polygon fill="white" stroke="black" points="191.5,-168.5 191.5,-187.5 289.5,-187.5 289.5,-168.5 191.5,-168.5"/>
<text text-anchor="middle" x="240.5" y="-175.5" font-family="'Souce Sans Pro', Roboto, FreeSans, sans-serif" font-size="10.00">connectorthread.h</text>
</a>
</g>
</g>
<!-- Node1&#45;&gt;Node4 -->
<g id="edge3" class="edge">
<title>Node1&#45;&gt;Node4</title>
<path fill="none" stroke="midnightblue" d="M202.5,-217C212.07,-207.43 223.86,-195.64 231.75,-187.75"/>
<polygon fill="midnightblue" stroke="midnightblue" points="200.01,-214.54 195.42,-224.08 204.96,-219.49 200.01,-214.54"/>
</g>
<!-- Node5 -->
<g id="node5" class="node">
<title>Node5</title>
<g id="a_node5"><a xlink:href="socketappender_8h.html" target="_top" xlink:title=" ">
<polygon fill="white" stroke="black" points="270,-112.5 270,-131.5 365,-131.5 365,-112.5 270,-112.5"/>
<text text-anchor="middle" x="317.5" y="-119.5" font-family="'Souce Sans Pro', Roboto, FreeSans, sans-serif" font-size="10.00">socketappender.h</text>
</a>
</g>
</g>
<!-- Node1&#45;&gt;Node5 -->
<g id="edge10" class="edge">
<title>Node1&#45;&gt;Node5</title>
<path fill="none" stroke="midnightblue" d="M225.78,-226.24C249.89,-220.13 279.65,-208.78 298.5,-188 313.03,-171.97 316.49,-145.41 317.29,-131.73"/>
<polygon fill="midnightblue" stroke="midnightblue" points="224.79,-222.87 215.84,-228.54 226.38,-229.69 224.79,-222.87"/>
</g>
<!-- Node7 -->
<g id="node7" class="node">
<title>Node7</title>
<g id="a_node7"><a xlink:href="queue_8h.html" target="_top" xlink:title=" ">
<polygon fill="white" stroke="black" points="39.5,-112.5 39.5,-131.5 91.5,-131.5 91.5,-112.5 39.5,-112.5"/>
<text text-anchor="middle" x="65.5" y="-119.5" font-family="'Souce Sans Pro', Roboto, FreeSans, sans-serif" font-size="10.00">queue.h</text>
</a>
</g>
</g>
<!-- Node1&#45;&gt;Node7 -->
<g id="edge8" class="edge">
<title>Node1&#45;&gt;Node7</title>
<path fill="none" stroke="midnightblue" d="M147.63,-224.43C126.24,-217.84 100.8,-206.59 84.5,-188 70.24,-171.73 66.66,-145.27 65.78,-131.67"/>
<polygon fill="midnightblue" stroke="midnightblue" points="146.86,-227.85 157.44,-227.23 148.78,-221.12 146.86,-227.85"/>
</g>
<!-- Node8 -->
<g id="node8" class="node">
<title>Node8</title>
<g id="a_node8"><a xlink:href="loggingevent_8h.html" target="_top" xlink:title=" ">
<polygon fill="white" stroke="black" points="93.5,-168.5 93.5,-187.5 173.5,-187.5 173.5,-168.5 93.5,-168.5"/>
<text text-anchor="middle" x="133.5" y="-175.5" font-family="'Souce Sans Pro', Roboto, FreeSans, sans-serif" font-size="10.00">loggingevent.h</text>
</a>
</g>
</g>
<!-- Node1&#45;&gt;Node8 -->
<g id="edge11" class="edge">
<title>Node1&#45;&gt;Node8</title>
<path fill="none" stroke="midnightblue" d="M170.52,-216.72C161.18,-207.2 149.75,-195.56 142.09,-187.75"/>
<polygon fill="midnightblue" stroke="midnightblue" points="168.25,-219.4 177.75,-224.08 173.24,-214.49 168.25,-219.4"/>
</g>
<!-- Node11 -->
<g id="node11" class="node">
<title>Node11</title>
<g id="a_node11"><a xlink:href="threads-impl_8h.html" target="_top" xlink:title=" ">
<polygon fill="white" stroke="black" points="345.5,-168.5 345.5,-187.5 425.5,-187.5 425.5,-168.5 345.5,-168.5"/>
<text text-anchor="middle" x="385.5" y="-175.5" font-family="'Souce Sans Pro', Roboto, FreeSans, sans-serif" font-size="10.00">threads&#45;impl.h</text>
</a>
</g>
</g>
<!-- Node1&#45;&gt;Node11 -->
<g id="edge16" class="edge">
<title>Node1&#45;&gt;Node11</title>
<path fill="none" stroke="midnightblue" d="M225.95,-222.3C263.53,-212.1 319.37,-196.95 354.04,-187.54"/>
<polygon fill="midnightblue" stroke="midnightblue" points="224.6,-219.04 215.86,-225.03 226.43,-225.79 224.6,-219.04"/>
</g>
<!-- Node3 -->
<g id="node3" class="node">
<title>Node3</title>
<g id="a_node3"><a xlink:href="log4cplus_8h.html" target="_top" xlink:title=" ">
<polygon fill="white" stroke="black" points="197,-0.5 197,-19.5 264,-19.5 264,-0.5 197,-0.5"/>
<text text-anchor="middle" x="230.5" y="-7.5" font-family="'Souce Sans Pro', Roboto, FreeSans, sans-serif" font-size="10.00">log4cplus.h</text>
</a>
</g>
</g>
<!-- Node2&#45;&gt;Node3 -->
<g id="edge2" class="edge">
<title>Node2&#45;&gt;Node3</title>
<path fill="none" stroke="midnightblue" d="M84.67,-53.57C119.57,-43.38 169.85,-28.7 201.32,-19.52"/>
<polygon fill="midnightblue" stroke="midnightblue" points="83.43,-50.28 74.81,-56.44 85.39,-57 83.43,-50.28"/>
</g>
<!-- Node4&#45;&gt;Node5 -->
<g id="edge4" class="edge">
<title>Node4&#45;&gt;Node5</title>
<path fill="none" stroke="midnightblue" d="M261.4,-162.34C275.41,-152.52 293.38,-139.91 305.16,-131.65"/>
<polygon fill="midnightblue" stroke="midnightblue" points="259.05,-159.72 252.87,-168.32 263.07,-165.45 259.05,-159.72"/>
</g>
<!-- Node6 -->
<g id="node6" class="node">
<title>Node6</title>
<g id="a_node6"><a xlink:href="syslogappender_8h.html" target="_top" xlink:title=" ">
<polygon fill="white" stroke="black" points="295.5,-56.5 295.5,-75.5 389.5,-75.5 389.5,-56.5 295.5,-56.5"/>
<text text-anchor="middle" x="342.5" y="-63.5" font-family="'Souce Sans Pro', Roboto, FreeSans, sans-serif" font-size="10.00">syslogappender.h</text>
</a>
</g>
</g>
<!-- Node4&#45;&gt;Node6 -->
<g id="edge6" class="edge">
<title>Node4&#45;&gt;Node6</title>
<path fill="none" stroke="midnightblue" d="M242.75,-158.48C245.28,-144.42 250.57,-125.3 261.5,-112 275.8,-94.6 298.69,-82.78 316.49,-75.63"/>
<polygon fill="midnightblue" stroke="midnightblue" points="239.28,-158.06 241.26,-168.47 246.2,-159.09 239.28,-158.06"/>
</g>
<!-- Node5&#45;&gt;Node3 -->
<g id="edge5" class="edge">
<title>Node5&#45;&gt;Node3</title>
<path fill="none" stroke="midnightblue" d="M353.83,-108.78C382.62,-97.1 415.41,-78.04 398.5,-56 382.28,-34.86 308.57,-21.48 264.35,-15.21"/>
<polygon fill="midnightblue" stroke="midnightblue" points="352.38,-105.59 344.3,-112.45 354.89,-112.12 352.38,-105.59"/>
</g>
<!-- Node6&#45;&gt;Node3 -->
<g id="edge7" class="edge">
<title>Node6&#45;&gt;Node3</title>
<path fill="none" stroke="midnightblue" d="M315.25,-51.86C294.48,-41.85 266.48,-28.35 248.45,-19.65"/>
<polygon fill="midnightblue" stroke="midnightblue" points="313.98,-55.13 324.51,-56.32 317.02,-48.83 313.98,-55.13"/>
</g>
<!-- Node7&#45;&gt;Node2 -->
<g id="edge9" class="edge">
<title>Node7&#45;&gt;Node2</title>
<path fill="none" stroke="midnightblue" d="M58.72,-102.69C55.35,-93.59 51.43,-83.01 48.74,-75.75"/>
<polygon fill="midnightblue" stroke="midnightblue" points="55.44,-103.92 62.2,-112.08 62.01,-101.49 55.44,-103.92"/>
</g>
<!-- Node8&#45;&gt;Node3 -->
<g id="edge15" class="edge">
<title>Node8&#45;&gt;Node3</title>
<path fill="none" stroke="midnightblue" d="M128.88,-158.75C123.59,-133.44 118.07,-87.28 138.5,-56 151.53,-36.05 176.13,-24.66 196.61,-18.33"/>
<polygon fill="midnightblue" stroke="midnightblue" points="125.47,-159.54 131.13,-168.5 132.3,-157.96 125.47,-159.54"/>
</g>
<!-- Node8&#45;&gt;Node7 -->
<g id="edge12" class="edge">
<title>Node8&#45;&gt;Node7</title>
<path fill="none" stroke="midnightblue" d="M114.74,-162.1C102.5,-152.38 86.94,-140.03 76.62,-131.83"/>
<polygon fill="midnightblue" stroke="midnightblue" points="112.57,-164.85 122.57,-168.32 116.92,-159.36 112.57,-164.85"/>
</g>
<!-- Node9 -->
<g id="node9" class="node">
<title>Node9</title>
<g id="a_node9"><a xlink:href="internal_8h.html" target="_top" xlink:title="This header contains declaration internal to log4cplus.">
<polygon fill="white" stroke="black" points="152,-112.5 152,-131.5 209,-131.5 209,-112.5 152,-112.5"/>
<text text-anchor="middle" x="180.5" y="-119.5" font-family="'Souce Sans Pro', Roboto, FreeSans, sans-serif" font-size="10.00">internal.h</text>
</a>
</g>
</g>
<!-- Node8&#45;&gt;Node9 -->
<g id="edge13" class="edge">
<title>Node8&#45;&gt;Node9</title>
<path fill="none" stroke="midnightblue" d="M147.92,-160.43C156.16,-150.97 166.15,-139.48 172.88,-131.75"/>
<polygon fill="midnightblue" stroke="midnightblue" points="145.19,-158.24 141.26,-168.08 150.47,-162.84 145.19,-158.24"/>
</g>
<!-- Node10 -->
<g id="node10" class="node">
<title>Node10</title>
<g id="a_node10"><a xlink:href="customloglevelmanager_8h.html" target="_top" xlink:title="This header contains declaration internal to log4cplus.">
<polygon fill="white" stroke="black" points="147.5,-56.5 147.5,-75.5 277.5,-75.5 277.5,-56.5 147.5,-56.5"/>
<text text-anchor="middle" x="212.5" y="-63.5" font-family="'Souce Sans Pro', Roboto, FreeSans, sans-serif" font-size="10.00">customloglevelmanager.h</text>
</a>
</g>
</g>
<!-- Node9&#45;&gt;Node10 -->
<g id="edge14" class="edge">
<title>Node9&#45;&gt;Node10</title>
<path fill="none" stroke="midnightblue" d="M191,-103.27C196.47,-94.05 202.92,-83.17 207.31,-75.75"/>
<polygon fill="midnightblue" stroke="midnightblue" points="187.87,-101.7 185.78,-112.08 193.89,-105.26 187.87,-101.7"/>
</g>
</g>
</svg>
