<?xml version="1.0" encoding="UTF-8" standalone="no"?>
<!DOCTYPE svg PUBLIC "-//W3C//DTD SVG 1.1//EN"
 "http://www.w3.org/Graphics/SVG/1.1/DTD/svg11.dtd">
<!-- Generated by graphviz version 2.43.0 (0)
 -->
<!-- Title: threads.h Pages: 1 -->
<svg width="696pt" height="263pt"
 viewBox="0.00 0.00 695.50 263.00" xmlns="http://www.w3.org/2000/svg" xmlns:xlink="http://www.w3.org/1999/xlink">
<g id="graph0" class="graph" transform="scale(1 1) rotate(0) translate(4 259)">
<title>threads.h</title>
<polygon fill="white" stroke="transparent" points="-4,4 -4,-259 691.5,-259 691.5,4 -4,4"/>
<!-- Node1 -->
<g id="node1" class="node">
<title>Node1</title>
<g id="a_node1"><a xlink:title=" ">
<polygon fill="#bfbfbf" stroke="black" points="182.5,-235.5 182.5,-254.5 240.5,-254.5 240.5,-235.5 182.5,-235.5"/>
<text text-anchor="middle" x="211.5" y="-242.5" font-family="'Souce Sans Pro', Roboto, FreeSans, sans-serif" font-size="10.00">threads.h</text>
</a>
</g>
</g>
<!-- Node2 -->
<g id="node2" class="node">
<title>Node2</title>
<g id="a_node2"><a xlink:href="config_8hxx.html" target="_top" xlink:title=" ">
<polygon fill="white" stroke="black" points="207,-67.5 207,-86.5 316,-86.5 316,-67.5 207,-67.5"/>
<text text-anchor="middle" x="261.5" y="-74.5" font-family="'Souce Sans Pro', Roboto, FreeSans, sans-serif" font-size="10.00">log4cplus/config.hxx</text>
</a>
</g>
</g>
<!-- Node1&#45;&gt;Node2 -->
<g id="edge1" class="edge">
<title>Node1&#45;&gt;Node2</title>
<path fill="none" stroke="midnightblue" d="M219.21,-235.39C226.44,-226.8 236.95,-212.92 242.5,-199 256.24,-164.56 260.08,-120.89 261.13,-96.55"/>
<polygon fill="midnightblue" stroke="midnightblue" points="264.62,-96.66 261.44,-86.55 257.63,-96.44 264.62,-96.66"/>
</g>
<!-- Node5 -->
<g id="node5" class="node">
<title>Node5</title>
<g id="a_node5"><a xlink:title=" ">
<polygon fill="white" stroke="#bfbfbf" points="117.5,-179.5 117.5,-198.5 171.5,-198.5 171.5,-179.5 117.5,-179.5"/>
<text text-anchor="middle" x="144.5" y="-186.5" font-family="'Souce Sans Pro', Roboto, FreeSans, sans-serif" font-size="10.00">memory</text>
</a>
</g>
</g>
<!-- Node1&#45;&gt;Node5 -->
<g id="edge4" class="edge">
<title>Node1&#45;&gt;Node5</title>
<path fill="none" stroke="midnightblue" d="M200.74,-235.32C190.73,-227.26 175.61,-215.08 163.57,-205.37"/>
<polygon fill="midnightblue" stroke="midnightblue" points="165.44,-202.38 155.46,-198.83 161.05,-207.83 165.44,-202.38"/>
</g>
<!-- Node6 -->
<g id="node6" class="node">
<title>Node6</title>
<g id="a_node6"><a xlink:title=" ">
<polygon fill="white" stroke="#bfbfbf" points="189.5,-179.5 189.5,-198.5 233.5,-198.5 233.5,-179.5 189.5,-179.5"/>
<text text-anchor="middle" x="211.5" y="-186.5" font-family="'Souce Sans Pro', Roboto, FreeSans, sans-serif" font-size="10.00">thread</text>
</a>
</g>
</g>
<!-- Node1&#45;&gt;Node6 -->
<g id="edge5" class="edge">
<title>Node1&#45;&gt;Node6</title>
<path fill="none" stroke="midnightblue" d="M211.5,-235.08C211.5,-228.01 211.5,-217.86 211.5,-208.99"/>
<polygon fill="midnightblue" stroke="midnightblue" points="215,-208.75 211.5,-198.75 208,-208.75 215,-208.75"/>
</g>
<!-- Node7 -->
<g id="node7" class="node">
<title>Node7</title>
<g id="a_node7"><a xlink:href="tstring_8h.html" target="_top" xlink:title=" ">
<polygon fill="white" stroke="black" points="0,-179.5 0,-198.5 99,-198.5 99,-179.5 0,-179.5"/>
<text text-anchor="middle" x="49.5" y="-186.5" font-family="'Souce Sans Pro', Roboto, FreeSans, sans-serif" font-size="10.00">log4cplus/tstring.h</text>
</a>
</g>
</g>
<!-- Node1&#45;&gt;Node7 -->
<g id="edge6" class="edge">
<title>Node1&#45;&gt;Node7</title>
<path fill="none" stroke="midnightblue" d="M185.83,-235.44C158.58,-226.36 115.32,-211.94 84.85,-201.78"/>
<polygon fill="midnightblue" stroke="midnightblue" points="85.64,-198.36 75.05,-198.52 83.43,-205 85.64,-198.36"/>
</g>
<!-- Node11 -->
<g id="node11" class="node">
<title>Node11</title>
<g id="a_node11"><a xlink:href="pointer_8h.html" target="_top" xlink:title=" ">
<polygon fill="white" stroke="black" points="343.5,-179.5 343.5,-198.5 481.5,-198.5 481.5,-179.5 343.5,-179.5"/>
<text text-anchor="middle" x="412.5" y="-186.5" font-family="'Souce Sans Pro', Roboto, FreeSans, sans-serif" font-size="10.00">log4cplus/helpers/pointer.h</text>
</a>
</g>
</g>
<!-- Node1&#45;&gt;Node11 -->
<g id="edge12" class="edge">
<title>Node1&#45;&gt;Node11</title>
<path fill="none" stroke="midnightblue" d="M240.73,-236.15C274.91,-226.96 331.76,-211.69 370.62,-201.25"/>
<polygon fill="midnightblue" stroke="midnightblue" points="371.83,-204.55 380.58,-198.58 370.01,-197.79 371.83,-204.55"/>
</g>
<!-- Node3 -->
<g id="node3" class="node">
<title>Node3</title>
<g id="a_node3"><a xlink:href="win32_8h.html" target="_top" xlink:title=" ">
<polygon fill="white" stroke="black" points="124.5,-6 124.5,-25 252.5,-25 252.5,-6 124.5,-6"/>
<text text-anchor="middle" x="188.5" y="-13" font-family="'Souce Sans Pro', Roboto, FreeSans, sans-serif" font-size="10.00">log4cplus/config/win32.h</text>
</a>
</g>
</g>
<!-- Node2&#45;&gt;Node3 -->
<g id="edge2" class="edge">
<title>Node2&#45;&gt;Node3</title>
<path fill="none" stroke="midnightblue" d="M251.04,-67.48C239.55,-58.11 220.87,-42.88 206.91,-31.51"/>
<polygon fill="midnightblue" stroke="midnightblue" points="208.9,-28.61 198.94,-25.01 204.48,-34.04 208.9,-28.61"/>
</g>
<!-- Node4 -->
<g id="node4" class="node">
<title>Node4</title>
<g id="a_node4"><a xlink:href="thread-config_8h.html" target="_top" xlink:title=" ">
<polygon fill="white" stroke="black" points="270.5,-0.5 270.5,-30.5 398.5,-30.5 398.5,-0.5 270.5,-0.5"/>
<text text-anchor="start" x="278.5" y="-18.5" font-family="'Souce Sans Pro', Roboto, FreeSans, sans-serif" font-size="10.00">log4cplus/helpers/thread</text>
<text text-anchor="middle" x="334.5" y="-7.5" font-family="'Souce Sans Pro', Roboto, FreeSans, sans-serif" font-size="10.00">&#45;config.h</text>
</a>
</g>
</g>
<!-- Node2&#45;&gt;Node4 -->
<g id="edge3" class="edge">
<title>Node2&#45;&gt;Node4</title>
<path fill="none" stroke="midnightblue" d="M271.96,-67.48C281.66,-59.57 296.49,-47.48 309.27,-37.07"/>
<polygon fill="midnightblue" stroke="midnightblue" points="311.76,-39.55 317.3,-30.52 307.33,-34.13 311.76,-39.55"/>
</g>
<!-- Node7&#45;&gt;Node2 -->
<g id="edge7" class="edge">
<title>Node7&#45;&gt;Node2</title>
<path fill="none" stroke="midnightblue" d="M75.54,-179.48C99.09,-171.36 134.45,-158.15 163.5,-143 192.1,-128.08 222.72,-106.82 241.98,-92.73"/>
<polygon fill="midnightblue" stroke="midnightblue" points="244.27,-95.39 250.22,-86.63 240.1,-89.77 244.27,-95.39"/>
</g>
<!-- Node8 -->
<g id="node8" class="node">
<title>Node8</title>
<g id="a_node8"><a xlink:title=" ">
<polygon fill="white" stroke="#bfbfbf" points="114,-123.5 114,-142.5 155,-142.5 155,-123.5 114,-123.5"/>
<text text-anchor="middle" x="134.5" y="-130.5" font-family="'Souce Sans Pro', Roboto, FreeSans, sans-serif" font-size="10.00">string</text>
</a>
</g>
</g>
<!-- Node7&#45;&gt;Node8 -->
<g id="edge8" class="edge">
<title>Node7&#45;&gt;Node8</title>
<path fill="none" stroke="midnightblue" d="M63.16,-179.32C76.42,-170.9 96.77,-157.97 112.35,-148.07"/>
<polygon fill="midnightblue" stroke="midnightblue" points="114.31,-150.97 120.88,-142.65 110.56,-145.06 114.31,-150.97"/>
</g>
<!-- Node9 -->
<g id="node9" class="node">
<title>Node9</title>
<g id="a_node9"><a xlink:href="tchar_8h.html" target="_top" xlink:title=" ">
<polygon fill="white" stroke="black" points="3,-123.5 3,-142.5 96,-142.5 96,-123.5 3,-123.5"/>
<text text-anchor="middle" x="49.5" y="-130.5" font-family="'Souce Sans Pro', Roboto, FreeSans, sans-serif" font-size="10.00">log4cplus/tchar.h</text>
</a>
</g>
</g>
<!-- Node7&#45;&gt;Node9 -->
<g id="edge9" class="edge">
<title>Node7&#45;&gt;Node9</title>
<path fill="none" stroke="midnightblue" d="M49.5,-179.08C49.5,-172.01 49.5,-161.86 49.5,-152.99"/>
<polygon fill="midnightblue" stroke="midnightblue" points="53,-152.75 49.5,-142.75 46,-152.75 53,-152.75"/>
</g>
<!-- Node9&#45;&gt;Node2 -->
<g id="edge10" class="edge">
<title>Node9&#45;&gt;Node2</title>
<path fill="none" stroke="midnightblue" d="M83.09,-123.44C119.69,-114.12 178.34,-99.18 218.33,-89"/>
<polygon fill="midnightblue" stroke="midnightblue" points="219.24,-92.38 228.07,-86.52 217.51,-85.59 219.24,-92.38"/>
</g>
<!-- Node10 -->
<g id="node10" class="node">
<title>Node10</title>
<g id="a_node10"><a xlink:title=" ">
<polygon fill="white" stroke="#bfbfbf" points="24,-67.5 24,-86.5 75,-86.5 75,-67.5 24,-67.5"/>
<text text-anchor="middle" x="49.5" y="-74.5" font-family="'Souce Sans Pro', Roboto, FreeSans, sans-serif" font-size="10.00">cstddef</text>
</a>
</g>
</g>
<!-- Node9&#45;&gt;Node10 -->
<g id="edge11" class="edge">
<title>Node9&#45;&gt;Node10</title>
<path fill="none" stroke="midnightblue" d="M49.5,-123.08C49.5,-116.01 49.5,-105.86 49.5,-96.99"/>
<polygon fill="midnightblue" stroke="midnightblue" points="53,-96.75 49.5,-86.75 46,-96.75 53,-96.75"/>
</g>
<!-- Node11&#45;&gt;Node2 -->
<g id="edge13" class="edge">
<title>Node11&#45;&gt;Node2</title>
<path fill="none" stroke="midnightblue" d="M387.82,-179.37C367.92,-171.69 339.84,-159.18 318.5,-143 300.45,-129.31 283.87,-109.17 273.3,-94.94"/>
<polygon fill="midnightblue" stroke="midnightblue" points="275.95,-92.64 267.27,-86.57 270.28,-96.73 275.95,-92.64"/>
</g>
<!-- Node12 -->
<g id="node12" class="node">
<title>Node12</title>
<g id="a_node12"><a xlink:href="syncprims_8h.html" target="_top" xlink:title=" ">
<polygon fill="white" stroke="black" points="393,-123.5 393,-142.5 542,-142.5 542,-123.5 393,-123.5"/>
<text text-anchor="middle" x="467.5" y="-130.5" font-family="'Souce Sans Pro', Roboto, FreeSans, sans-serif" font-size="10.00">log4cplus/thread/syncprims.h</text>
</a>
</g>
</g>
<!-- Node11&#45;&gt;Node12 -->
<g id="edge14" class="edge">
<title>Node11&#45;&gt;Node12</title>
<path fill="none" stroke="midnightblue" d="M421.58,-179.08C429.67,-171.14 441.7,-159.34 451.41,-149.8"/>
<polygon fill="midnightblue" stroke="midnightblue" points="453.9,-152.25 458.59,-142.75 449,-147.26 453.9,-152.25"/>
</g>
<!-- Node15 -->
<g id="node15" class="node">
<title>Node15</title>
<g id="a_node15"><a xlink:title=" ">
<polygon fill="white" stroke="#bfbfbf" points="560,-123.5 560,-142.5 619,-142.5 619,-123.5 560,-123.5"/>
<text text-anchor="middle" x="589.5" y="-130.5" font-family="'Souce Sans Pro', Roboto, FreeSans, sans-serif" font-size="10.00">algorithm</text>
</a>
</g>
</g>
<!-- Node11&#45;&gt;Node15 -->
<g id="edge18" class="edge">
<title>Node11&#45;&gt;Node15</title>
<path fill="none" stroke="midnightblue" d="M440.55,-179.44C470.58,-170.28 518.41,-155.69 551.74,-145.52"/>
<polygon fill="midnightblue" stroke="midnightblue" points="553.04,-148.78 561.59,-142.52 551,-142.09 553.04,-148.78"/>
</g>
<!-- Node16 -->
<g id="node16" class="node">
<title>Node16</title>
<g id="a_node16"><a xlink:title=" ">
<polygon fill="white" stroke="#bfbfbf" points="637.5,-123.5 637.5,-142.5 687.5,-142.5 687.5,-123.5 637.5,-123.5"/>
<text text-anchor="middle" x="662.5" y="-130.5" font-family="'Souce Sans Pro', Roboto, FreeSans, sans-serif" font-size="10.00">cassert</text>
</a>
</g>
</g>
<!-- Node11&#45;&gt;Node16 -->
<g id="edge19" class="edge">
<title>Node11&#45;&gt;Node16</title>
<path fill="none" stroke="midnightblue" d="M456.92,-179.47C498.56,-171.31 562.76,-158.31 627.34,-143.18"/>
<polygon fill="midnightblue" stroke="midnightblue" points="628.36,-146.54 637.29,-140.83 626.75,-139.72 628.36,-146.54"/>
</g>
<!-- Node17 -->
<g id="node17" class="node">
<title>Node17</title>
<g id="a_node17"><a xlink:title=" ">
<polygon fill="white" stroke="#bfbfbf" points="328,-123.5 328,-142.5 375,-142.5 375,-123.5 328,-123.5"/>
<text text-anchor="middle" x="351.5" y="-130.5" font-family="'Souce Sans Pro', Roboto, FreeSans, sans-serif" font-size="10.00">atomic</text>
</a>
</g>
</g>
<!-- Node11&#45;&gt;Node17 -->
<g id="edge20" class="edge">
<title>Node11&#45;&gt;Node17</title>
<path fill="none" stroke="midnightblue" d="M402.7,-179.32C393.68,-171.34 380.09,-159.31 369.18,-149.65"/>
<polygon fill="midnightblue" stroke="midnightblue" points="371.29,-146.84 361.48,-142.83 366.65,-152.08 371.29,-146.84"/>
</g>
<!-- Node12&#45;&gt;Node2 -->
<g id="edge15" class="edge">
<title>Node12&#45;&gt;Node2</title>
<path fill="none" stroke="midnightblue" d="M434.86,-123.44C399.45,-114.16 342.79,-99.31 303.95,-89.13"/>
<polygon fill="midnightblue" stroke="midnightblue" points="304.55,-85.67 293.99,-86.52 302.77,-92.44 304.55,-85.67"/>
</g>
<!-- Node13 -->
<g id="node13" class="node">
<title>Node13</title>
<g id="a_node13"><a xlink:title=" ">
<polygon fill="white" stroke="#bfbfbf" points="401.5,-67.5 401.5,-86.5 445.5,-86.5 445.5,-67.5 401.5,-67.5"/>
<text text-anchor="middle" x="423.5" y="-74.5" font-family="'Souce Sans Pro', Roboto, FreeSans, sans-serif" font-size="10.00">mutex</text>
</a>
</g>
</g>
<!-- Node12&#45;&gt;Node13 -->
<g id="edge16" class="edge">
<title>Node12&#45;&gt;Node13</title>
<path fill="none" stroke="midnightblue" d="M460.23,-123.08C453.96,-115.38 444.71,-104.03 437.07,-94.65"/>
<polygon fill="midnightblue" stroke="midnightblue" points="439.66,-92.29 430.63,-86.75 434.23,-96.71 439.66,-92.29"/>
</g>
<!-- Node14 -->
<g id="node14" class="node">
<title>Node14</title>
<g id="a_node14"><a xlink:title=" ">
<polygon fill="white" stroke="#bfbfbf" points="463.5,-67.5 463.5,-86.5 559.5,-86.5 559.5,-67.5 463.5,-67.5"/>
<text text-anchor="middle" x="511.5" y="-74.5" font-family="'Souce Sans Pro', Roboto, FreeSans, sans-serif" font-size="10.00">condition_variable</text>
</a>
</g>
</g>
<!-- Node12&#45;&gt;Node14 -->
<g id="edge17" class="edge">
<title>Node12&#45;&gt;Node14</title>
<path fill="none" stroke="midnightblue" d="M474.77,-123.08C481.04,-115.38 490.29,-104.03 497.93,-94.65"/>
<polygon fill="midnightblue" stroke="midnightblue" points="500.77,-96.71 504.37,-86.75 495.34,-92.29 500.77,-96.71"/>
</g>
</g>
</svg>
