<?xml version="1.0" encoding="UTF-8" standalone="no"?>
<!DOCTYPE svg PUBLIC "-//W3C//DTD SVG 1.1//EN"
 "http://www.w3.org/Graphics/SVG/1.1/DTD/svg11.dtd">
<!-- Generated by graphviz version 2.43.0 (0)
 -->
<!-- Title: tracelogger.h Pages: 1 -->
<svg width="1554pt" height="543pt"
 viewBox="0.00 0.00 1554.00 543.00" xmlns="http://www.w3.org/2000/svg" xmlns:xlink="http://www.w3.org/1999/xlink">
<g id="graph0" class="graph" transform="scale(1 1) rotate(0) translate(4 539)">
<title>tracelogger.h</title>
<polygon fill="white" stroke="transparent" points="-4,4 -4,-539 1550,-539 1550,4 -4,4"/>
<!-- Node1 -->
<g id="node1" class="node">
<title>Node1</title>
<g id="a_node1"><a xlink:title=" ">
<polygon fill="#bfbfbf" stroke="black" points="857,-515.5 857,-534.5 931,-534.5 931,-515.5 857,-515.5"/>
<text text-anchor="middle" x="894" y="-522.5" font-family="'Souce Sans Pro', Roboto, FreeSans, sans-serif" font-size="10.00">tracelogger.h</text>
</a>
</g>
</g>
<!-- Node2 -->
<g id="node2" class="node">
<title>Node2</title>
<g id="a_node2"><a xlink:href="config_8hxx.html" target="_top" xlink:title=" ">
<polygon fill="white" stroke="black" points="580.5,-67.5 580.5,-86.5 689.5,-86.5 689.5,-67.5 580.5,-67.5"/>
<text text-anchor="middle" x="635" y="-74.5" font-family="'Souce Sans Pro', Roboto, FreeSans, sans-serif" font-size="10.00">log4cplus/config.hxx</text>
</a>
</g>
</g>
<!-- Node1&#45;&gt;Node2 -->
<g id="edge1" class="edge">
<title>Node1&#45;&gt;Node2</title>
<path fill="none" stroke="midnightblue" d="M931.4,-521.68C1069.94,-512.59 1546,-476.78 1546,-414 1546,-414 1546,-414 1546,-188 1546,-147.77 1519.62,-139.66 1483,-123 1412.46,-90.9 885.68,-81.17 699.75,-78.72"/>
<polygon fill="midnightblue" stroke="midnightblue" points="699.62,-75.22 689.57,-78.59 699.53,-82.22 699.62,-75.22"/>
</g>
<!-- Node5 -->
<g id="node5" class="node">
<title>Node5</title>
<g id="a_node5"><a xlink:href="logger_8h.html" target="_top" xlink:title="This header defines the Logger class and the logging macros.">
<polygon fill="white" stroke="black" points="193,-459.5 193,-478.5 291,-478.5 291,-459.5 193,-459.5"/>
<text text-anchor="middle" x="242" y="-466.5" font-family="'Souce Sans Pro', Roboto, FreeSans, sans-serif" font-size="10.00">log4cplus/logger.h</text>
</a>
</g>
</g>
<!-- Node1&#45;&gt;Node5 -->
<g id="edge4" class="edge">
<title>Node1&#45;&gt;Node5</title>
<path fill="none" stroke="midnightblue" d="M856.6,-520.9C748.32,-511.93 433.87,-485.89 301.66,-474.94"/>
<polygon fill="midnightblue" stroke="midnightblue" points="301.59,-471.42 291.33,-474.09 301.01,-478.4 301.59,-471.42"/>
</g>
<!-- Node3 -->
<g id="node3" class="node">
<title>Node3</title>
<g id="a_node3"><a xlink:href="win32_8h.html" target="_top" xlink:title=" ">
<polygon fill="white" stroke="black" points="498,-6 498,-25 626,-25 626,-6 498,-6"/>
<text text-anchor="middle" x="562" y="-13" font-family="'Souce Sans Pro', Roboto, FreeSans, sans-serif" font-size="10.00">log4cplus/config/win32.h</text>
</a>
</g>
</g>
<!-- Node2&#45;&gt;Node3 -->
<g id="edge2" class="edge">
<title>Node2&#45;&gt;Node3</title>
<path fill="none" stroke="midnightblue" d="M624.54,-67.48C613.05,-58.11 594.37,-42.88 580.41,-31.51"/>
<polygon fill="midnightblue" stroke="midnightblue" points="582.4,-28.61 572.44,-25.01 577.98,-34.04 582.4,-28.61"/>
</g>
<!-- Node4 -->
<g id="node4" class="node">
<title>Node4</title>
<g id="a_node4"><a xlink:href="thread-config_8h.html" target="_top" xlink:title=" ">
<polygon fill="white" stroke="black" points="644,-0.5 644,-30.5 772,-30.5 772,-0.5 644,-0.5"/>
<text text-anchor="start" x="652" y="-18.5" font-family="'Souce Sans Pro', Roboto, FreeSans, sans-serif" font-size="10.00">log4cplus/helpers/thread</text>
<text text-anchor="middle" x="708" y="-7.5" font-family="'Souce Sans Pro', Roboto, FreeSans, sans-serif" font-size="10.00">&#45;config.h</text>
</a>
</g>
</g>
<!-- Node2&#45;&gt;Node4 -->
<g id="edge3" class="edge">
<title>Node2&#45;&gt;Node4</title>
<path fill="none" stroke="midnightblue" d="M645.46,-67.48C655.16,-59.57 669.99,-47.48 682.77,-37.07"/>
<polygon fill="midnightblue" stroke="midnightblue" points="685.26,-39.55 690.8,-30.52 680.83,-34.13 685.26,-39.55"/>
</g>
<!-- Node5&#45;&gt;Node2 -->
<g id="edge5" class="edge">
<title>Node5&#45;&gt;Node2</title>
<path fill="none" stroke="midnightblue" d="M192.74,-466.78C121.98,-462.1 0,-441.88 0,-358 0,-358 0,-358 0,-188 0,-130.59 408.16,-94.53 570.01,-82.49"/>
<polygon fill="midnightblue" stroke="midnightblue" points="570.59,-85.95 580.31,-81.73 570.08,-78.97 570.59,-85.95"/>
</g>
<!-- Node6 -->
<g id="node6" class="node">
<title>Node6</title>
<g id="a_node6"><a xlink:href="loglevel_8h.html" target="_top" xlink:title="This header defines the LogLevel type.">
<polygon fill="white" stroke="black" points="460,-235.5 460,-254.5 564,-254.5 564,-235.5 460,-235.5"/>
<text text-anchor="middle" x="512" y="-242.5" font-family="'Souce Sans Pro', Roboto, FreeSans, sans-serif" font-size="10.00">log4cplus/loglevel.h</text>
</a>
</g>
</g>
<!-- Node5&#45;&gt;Node6 -->
<g id="edge6" class="edge">
<title>Node5&#45;&gt;Node6</title>
<path fill="none" stroke="midnightblue" d="M291.34,-463.14C346.01,-456.8 429.55,-443.97 453,-423 499.84,-381.11 509.57,-301.06 511.54,-264.74"/>
<polygon fill="midnightblue" stroke="midnightblue" points="515.04,-264.72 511.94,-254.59 508.05,-264.45 515.04,-264.72"/>
</g>
<!-- Node7 -->
<g id="node7" class="node">
<title>Node7</title>
<g id="a_node7"><a xlink:title=" ">
<polygon fill="white" stroke="#bfbfbf" points="309,-179.5 309,-198.5 353,-198.5 353,-179.5 309,-179.5"/>
<text text-anchor="middle" x="331" y="-186.5" font-family="'Souce Sans Pro', Roboto, FreeSans, sans-serif" font-size="10.00">vector</text>
</a>
</g>
</g>
<!-- Node5&#45;&gt;Node7 -->
<g id="edge65" class="edge">
<title>Node5&#45;&gt;Node7</title>
<path fill="none" stroke="midnightblue" d="M238.4,-459.22C234.94,-450.28 229.97,-435.94 228,-423 219.19,-365 210.77,-347.08 228,-291 240.24,-251.17 280.08,-220.45 306.47,-203.82"/>
<polygon fill="midnightblue" stroke="midnightblue" points="308.44,-206.72 315.18,-198.54 304.81,-200.73 308.44,-206.72"/>
</g>
<!-- Node8 -->
<g id="node8" class="node">
<title>Node8</title>
<g id="a_node8"><a xlink:href="tstring_8h.html" target="_top" xlink:title=" ">
<polygon fill="white" stroke="black" points="385.5,-179.5 385.5,-198.5 484.5,-198.5 484.5,-179.5 385.5,-179.5"/>
<text text-anchor="middle" x="435" y="-186.5" font-family="'Souce Sans Pro', Roboto, FreeSans, sans-serif" font-size="10.00">log4cplus/tstring.h</text>
</a>
</g>
</g>
<!-- Node5&#45;&gt;Node8 -->
<g id="edge15" class="edge">
<title>Node5&#45;&gt;Node8</title>
<path fill="none" stroke="midnightblue" d="M243.42,-459.17C245.75,-446.25 251.14,-421.73 261,-403 304.66,-320.08 383.65,-239.11 418.13,-205.83"/>
<polygon fill="midnightblue" stroke="midnightblue" points="420.71,-208.21 425.53,-198.78 415.88,-203.15 420.71,-208.21"/>
</g>
<!-- Node12 -->
<g id="node12" class="node">
<title>Node12</title>
<g id="a_node12"><a xlink:href="appenderattachable_8h.html" target="_top" xlink:title=" ">
<polygon fill="white" stroke="black" points="270,-403.5 270,-422.5 444,-422.5 444,-403.5 270,-403.5"/>
<text text-anchor="middle" x="357" y="-410.5" font-family="'Souce Sans Pro', Roboto, FreeSans, sans-serif" font-size="10.00">log4cplus/spi/appenderattachable.h</text>
</a>
</g>
</g>
<!-- Node5&#45;&gt;Node12 -->
<g id="edge16" class="edge">
<title>Node5&#45;&gt;Node12</title>
<path fill="none" stroke="midnightblue" d="M260.22,-459.44C278.9,-450.68 308.16,-436.94 329.62,-426.86"/>
<polygon fill="midnightblue" stroke="midnightblue" points="331.3,-429.93 338.86,-422.52 328.32,-423.6 331.3,-429.93"/>
</g>
<!-- Node31 -->
<g id="node31" class="node">
<title>Node31</title>
<g id="a_node31"><a xlink:href="loggerfactory_8h.html" target="_top" xlink:title=" ">
<polygon fill="white" stroke="black" points="28,-235.5 28,-254.5 176,-254.5 176,-235.5 28,-235.5"/>
<text text-anchor="middle" x="102" y="-242.5" font-family="'Souce Sans Pro', Roboto, FreeSans, sans-serif" font-size="10.00">log4cplus/spi/loggerfactory.h</text>
</a>
</g>
</g>
<!-- Node5&#45;&gt;Node31 -->
<g id="edge62" class="edge">
<title>Node5&#45;&gt;Node31</title>
<path fill="none" stroke="midnightblue" d="M229.18,-459.18C217.79,-450.86 201.26,-437.53 190,-423 149.78,-371.11 120.53,-297.94 108.32,-264.26"/>
<polygon fill="midnightblue" stroke="midnightblue" points="111.6,-263.05 104.96,-254.79 105,-265.39 111.6,-263.05"/>
</g>
<!-- Node6&#45;&gt;Node2 -->
<g id="edge7" class="edge">
<title>Node6&#45;&gt;Node2</title>
<path fill="none" stroke="midnightblue" d="M514.68,-235.25C521.49,-214.09 541.14,-159.24 572,-123 582.66,-110.48 597.51,-99.66 610.12,-91.76"/>
<polygon fill="midnightblue" stroke="midnightblue" points="612.04,-94.69 618.81,-86.54 608.44,-88.69 612.04,-94.69"/>
</g>
<!-- Node6&#45;&gt;Node7 -->
<g id="edge8" class="edge">
<title>Node6&#45;&gt;Node7</title>
<path fill="none" stroke="midnightblue" d="M483.32,-235.44C450.62,-225.69 397.29,-209.78 363.19,-199.6"/>
<polygon fill="midnightblue" stroke="midnightblue" points="363.85,-196.15 353.27,-196.64 361.85,-202.86 363.85,-196.15"/>
</g>
<!-- Node6&#45;&gt;Node8 -->
<g id="edge9" class="edge">
<title>Node6&#45;&gt;Node8</title>
<path fill="none" stroke="midnightblue" d="M499.63,-235.32C487.84,-227.06 469.87,-214.45 455.86,-204.63"/>
<polygon fill="midnightblue" stroke="midnightblue" points="457.54,-201.53 447.34,-198.65 453.52,-207.26 457.54,-201.53"/>
</g>
<!-- Node8&#45;&gt;Node2 -->
<g id="edge10" class="edge">
<title>Node8&#45;&gt;Node2</title>
<path fill="none" stroke="midnightblue" d="M446.8,-179.34C464.98,-166.23 501.16,-140.94 534,-123 556.73,-110.58 583.55,-98.75 603.85,-90.34"/>
<polygon fill="midnightblue" stroke="midnightblue" points="605.3,-93.53 613.23,-86.5 602.65,-87.05 605.3,-93.53"/>
</g>
<!-- Node9 -->
<g id="node9" class="node">
<title>Node9</title>
<g id="a_node9"><a xlink:title=" ">
<polygon fill="white" stroke="#bfbfbf" points="329.5,-123.5 329.5,-142.5 370.5,-142.5 370.5,-123.5 329.5,-123.5"/>
<text text-anchor="middle" x="350" y="-130.5" font-family="'Souce Sans Pro', Roboto, FreeSans, sans-serif" font-size="10.00">string</text>
</a>
</g>
</g>
<!-- Node8&#45;&gt;Node9 -->
<g id="edge11" class="edge">
<title>Node8&#45;&gt;Node9</title>
<path fill="none" stroke="midnightblue" d="M421.34,-179.32C408.08,-170.9 387.73,-157.97 372.15,-148.07"/>
<polygon fill="midnightblue" stroke="midnightblue" points="373.94,-145.06 363.62,-142.65 370.19,-150.97 373.94,-145.06"/>
</g>
<!-- Node10 -->
<g id="node10" class="node">
<title>Node10</title>
<g id="a_node10"><a xlink:href="tchar_8h.html" target="_top" xlink:title=" ">
<polygon fill="white" stroke="black" points="388.5,-123.5 388.5,-142.5 481.5,-142.5 481.5,-123.5 388.5,-123.5"/>
<text text-anchor="middle" x="435" y="-130.5" font-family="'Souce Sans Pro', Roboto, FreeSans, sans-serif" font-size="10.00">log4cplus/tchar.h</text>
</a>
</g>
</g>
<!-- Node8&#45;&gt;Node10 -->
<g id="edge12" class="edge">
<title>Node8&#45;&gt;Node10</title>
<path fill="none" stroke="midnightblue" d="M435,-179.08C435,-172.01 435,-161.86 435,-152.99"/>
<polygon fill="midnightblue" stroke="midnightblue" points="438.5,-152.75 435,-142.75 431.5,-152.75 438.5,-152.75"/>
</g>
<!-- Node10&#45;&gt;Node2 -->
<g id="edge13" class="edge">
<title>Node10&#45;&gt;Node2</title>
<path fill="none" stroke="midnightblue" d="M466.69,-123.44C501.07,-114.16 556.08,-99.31 593.79,-89.13"/>
<polygon fill="midnightblue" stroke="midnightblue" points="594.72,-92.5 603.46,-86.52 592.89,-85.74 594.72,-92.5"/>
</g>
<!-- Node11 -->
<g id="node11" class="node">
<title>Node11</title>
<g id="a_node11"><a xlink:title=" ">
<polygon fill="white" stroke="#bfbfbf" points="409.5,-67.5 409.5,-86.5 460.5,-86.5 460.5,-67.5 409.5,-67.5"/>
<text text-anchor="middle" x="435" y="-74.5" font-family="'Souce Sans Pro', Roboto, FreeSans, sans-serif" font-size="10.00">cstddef</text>
</a>
</g>
</g>
<!-- Node10&#45;&gt;Node11 -->
<g id="edge14" class="edge">
<title>Node10&#45;&gt;Node11</title>
<path fill="none" stroke="midnightblue" d="M435,-123.08C435,-116.01 435,-105.86 435,-96.99"/>
<polygon fill="midnightblue" stroke="midnightblue" points="438.5,-96.75 435,-86.75 431.5,-96.75 438.5,-96.75"/>
</g>
<!-- Node12&#45;&gt;Node2 -->
<g id="edge17" class="edge">
<title>Node12&#45;&gt;Node2</title>
<path fill="none" stroke="midnightblue" d="M351.64,-403.45C327.34,-363.51 232.34,-194.28 321,-123 340.07,-107.67 483.98,-91.94 570.22,-83.75"/>
<polygon fill="midnightblue" stroke="midnightblue" points="570.55,-87.23 580.18,-82.81 569.89,-80.26 570.55,-87.23"/>
</g>
<!-- Node12&#45;&gt;Node7 -->
<g id="edge61" class="edge">
<title>Node12&#45;&gt;Node7</title>
<path fill="none" stroke="midnightblue" d="M353.31,-403.22C349.74,-394.28 344.51,-379.93 342,-367 330.96,-310.2 330.2,-241.41 330.58,-208.84"/>
<polygon fill="midnightblue" stroke="midnightblue" points="334.08,-208.63 330.75,-198.57 327.08,-208.51 334.08,-208.63"/>
</g>
<!-- Node12&#45;&gt;Node8 -->
<g id="edge59" class="edge">
<title>Node12&#45;&gt;Node8</title>
<path fill="none" stroke="midnightblue" d="M360.06,-403.3C371.58,-370.49 412.55,-253.88 428.54,-208.38"/>
<polygon fill="midnightblue" stroke="midnightblue" points="431.87,-209.48 431.88,-198.88 425.26,-207.16 431.87,-209.48"/>
</g>
<!-- Node13 -->
<g id="node13" class="node">
<title>Node13</title>
<g id="a_node13"><a xlink:href="appender_8h.html" target="_top" xlink:title=" ">
<polygon fill="white" stroke="black" points="918,-347.5 918,-366.5 1030,-366.5 1030,-347.5 918,-347.5"/>
<text text-anchor="middle" x="974" y="-354.5" font-family="'Souce Sans Pro', Roboto, FreeSans, sans-serif" font-size="10.00">log4cplus/appender.h</text>
</a>
</g>
</g>
<!-- Node12&#45;&gt;Node13 -->
<g id="edge18" class="edge">
<title>Node12&#45;&gt;Node13</title>
<path fill="none" stroke="midnightblue" d="M444.09,-404.38C568.75,-393.47 795.36,-373.63 907.49,-363.82"/>
<polygon fill="midnightblue" stroke="midnightblue" points="908,-367.29 917.65,-362.93 907.39,-360.32 908,-367.29"/>
</g>
<!-- Node21 -->
<g id="node21" class="node">
<title>Node21</title>
<g id="a_node21"><a xlink:href="pointer_8h.html" target="_top" xlink:title=" ">
<polygon fill="white" stroke="black" points="1252,-235.5 1252,-254.5 1390,-254.5 1390,-235.5 1252,-235.5"/>
<text text-anchor="middle" x="1321" y="-242.5" font-family="'Souce Sans Pro', Roboto, FreeSans, sans-serif" font-size="10.00">log4cplus/helpers/pointer.h</text>
</a>
</g>
</g>
<!-- Node12&#45;&gt;Node21 -->
<g id="edge60" class="edge">
<title>Node12&#45;&gt;Node21</title>
<path fill="none" stroke="midnightblue" d="M444.03,-409.92C601.7,-405.55 928.52,-393.52 1039,-367 1139.56,-342.86 1249.77,-285.75 1297.17,-259.56"/>
<polygon fill="midnightblue" stroke="midnightblue" points="1299.02,-262.53 1306.04,-254.6 1295.61,-256.42 1299.02,-262.53"/>
</g>
<!-- Node13&#45;&gt;Node2 -->
<g id="edge19" class="edge">
<title>Node13&#45;&gt;Node2</title>
<path fill="none" stroke="midnightblue" d="M917.73,-354.95C835.93,-352.32 689.49,-343.14 649,-311 600.67,-272.64 597.4,-240.1 606,-179 610.16,-149.43 620.86,-116.38 628.03,-96.39"/>
<polygon fill="midnightblue" stroke="midnightblue" points="631.41,-97.33 631.59,-86.74 624.85,-94.91 631.41,-97.33"/>
</g>
<!-- Node13&#45;&gt;Node6 -->
<g id="edge35" class="edge">
<title>Node13&#45;&gt;Node6</title>
<path fill="none" stroke="midnightblue" d="M917.7,-356.33C845.7,-355.11 718.1,-347.33 616,-311 583.32,-299.37 550.12,-276.23 530.3,-260.93"/>
<polygon fill="midnightblue" stroke="midnightblue" points="532.44,-258.16 522.42,-254.71 528.1,-263.65 532.44,-258.16"/>
</g>
<!-- Node13&#45;&gt;Node8 -->
<g id="edge36" class="edge">
<title>Node13&#45;&gt;Node8</title>
<path fill="none" stroke="midnightblue" d="M917.98,-355.37C839.3,-353.23 692.22,-344.59 572,-311 514.93,-295.05 488.69,-300.73 451,-255 440.27,-241.98 436.56,-222.82 435.37,-208.67"/>
<polygon fill="midnightblue" stroke="midnightblue" points="438.86,-208.43 434.86,-198.62 431.87,-208.78 438.86,-208.43"/>
</g>
<!-- Node14 -->
<g id="node14" class="node">
<title>Node14</title>
<g id="a_node14"><a xlink:href="layout_8h.html" target="_top" xlink:title=" ">
<polygon fill="white" stroke="black" points="658,-291.5 658,-310.5 756,-310.5 756,-291.5 658,-291.5"/>
<text text-anchor="middle" x="707" y="-298.5" font-family="'Souce Sans Pro', Roboto, FreeSans, sans-serif" font-size="10.00">log4cplus/layout.h</text>
</a>
</g>
</g>
<!-- Node13&#45;&gt;Node14 -->
<g id="edge20" class="edge">
<title>Node13&#45;&gt;Node14</title>
<path fill="none" stroke="midnightblue" d="M931.69,-347.44C884.92,-337.98 809.54,-322.74 759.15,-312.55"/>
<polygon fill="midnightblue" stroke="midnightblue" points="759.6,-309.07 749.11,-310.52 758.22,-315.93 759.6,-309.07"/>
</g>
<!-- Node20 -->
<g id="node20" class="node">
<title>Node20</title>
<g id="a_node20"><a xlink:title=" ">
<polygon fill="white" stroke="#bfbfbf" points="906,-235.5 906,-254.5 960,-254.5 960,-235.5 906,-235.5"/>
<text text-anchor="middle" x="933" y="-242.5" font-family="'Souce Sans Pro', Roboto, FreeSans, sans-serif" font-size="10.00">memory</text>
</a>
</g>
</g>
<!-- Node13&#45;&gt;Node20 -->
<g id="edge55" class="edge">
<title>Node13&#45;&gt;Node20</title>
<path fill="none" stroke="midnightblue" d="M969.45,-347.19C964.92,-338.23 957.96,-323.87 953,-311 947.03,-295.51 941.59,-277.42 937.89,-264.27"/>
<polygon fill="midnightblue" stroke="midnightblue" points="941.24,-263.26 935.22,-254.54 934.49,-265.11 941.24,-263.26"/>
</g>
<!-- Node13&#45;&gt;Node21 -->
<g id="edge37" class="edge">
<title>Node13&#45;&gt;Node21</title>
<path fill="none" stroke="midnightblue" d="M1000.94,-347.46C1062.56,-327.93 1213.86,-279.96 1284.09,-257.7"/>
<polygon fill="midnightblue" stroke="midnightblue" points="1285.36,-260.97 1293.84,-254.61 1283.25,-254.3 1285.36,-260.97"/>
</g>
<!-- Node23 -->
<g id="node23" class="node">
<title>Node23</title>
<g id="a_node23"><a xlink:title=" ">
<polygon fill="white" stroke="#bfbfbf" points="1228,-123.5 1228,-142.5 1272,-142.5 1272,-123.5 1228,-123.5"/>
<text text-anchor="middle" x="1250" y="-130.5" font-family="'Souce Sans Pro', Roboto, FreeSans, sans-serif" font-size="10.00">mutex</text>
</a>
</g>
</g>
<!-- Node13&#45;&gt;Node23 -->
<g id="edge56" class="edge">
<title>Node13&#45;&gt;Node23</title>
<path fill="none" stroke="midnightblue" d="M1030.18,-354.12C1097.56,-350.57 1213.27,-340.36 1308,-311 1360.78,-294.64 1378.93,-293.04 1419,-255 1445.58,-229.77 1473.91,-207.61 1451,-179 1430.24,-153.07 1333.75,-141.08 1282.38,-136.45"/>
<polygon fill="midnightblue" stroke="midnightblue" points="1282.41,-132.94 1272.15,-135.57 1281.81,-139.91 1282.41,-132.94"/>
</g>
<!-- Node24 -->
<g id="node24" class="node">
<title>Node24</title>
<g id="a_node24"><a xlink:title=" ">
<polygon fill="white" stroke="#bfbfbf" points="1378,-123.5 1378,-142.5 1474,-142.5 1474,-123.5 1378,-123.5"/>
<text text-anchor="middle" x="1426" y="-130.5" font-family="'Souce Sans Pro', Roboto, FreeSans, sans-serif" font-size="10.00">condition_variable</text>
</a>
</g>
</g>
<!-- Node13&#45;&gt;Node24 -->
<g id="edge58" class="edge">
<title>Node13&#45;&gt;Node24</title>
<path fill="none" stroke="midnightblue" d="M1030.13,-356.76C1105.46,-356.14 1242.47,-349.14 1352,-311 1419.98,-287.33 1453.48,-269.29 1469,-199 1470.92,-190.32 1472.31,-187.25 1469,-179 1464.32,-167.33 1455.01,-156.97 1446.24,-149.14"/>
<polygon fill="midnightblue" stroke="midnightblue" points="1448.42,-146.4 1438.5,-142.7 1443.95,-151.78 1448.42,-146.4"/>
</g>
<!-- Node27 -->
<g id="node27" class="node">
<title>Node27</title>
<g id="a_node27"><a xlink:title=" ">
<polygon fill="white" stroke="#bfbfbf" points="1394.5,-179.5 1394.5,-198.5 1441.5,-198.5 1441.5,-179.5 1394.5,-179.5"/>
<text text-anchor="middle" x="1418" y="-186.5" font-family="'Souce Sans Pro', Roboto, FreeSans, sans-serif" font-size="10.00">atomic</text>
</a>
</g>
</g>
<!-- Node13&#45;&gt;Node27 -->
<g id="edge57" class="edge">
<title>Node13&#45;&gt;Node27</title>
<path fill="none" stroke="midnightblue" d="M1030.11,-349.67C1132.99,-336.97 1346.15,-305.22 1399,-255 1411.51,-243.11 1415.92,-223.49 1417.41,-208.91"/>
<polygon fill="midnightblue" stroke="midnightblue" points="1420.92,-208.75 1418.07,-198.54 1413.94,-208.3 1420.92,-208.75"/>
</g>
<!-- Node28 -->
<g id="node28" class="node">
<title>Node28</title>
<g id="a_node28"><a xlink:href="filter_8h.html" target="_top" xlink:title="This header defines Filter and all of it&#39;s subclasses.">
<polygon fill="white" stroke="black" points="961.5,-291.5 961.5,-310.5 1068.5,-310.5 1068.5,-291.5 961.5,-291.5"/>
<text text-anchor="middle" x="1015" y="-298.5" font-family="'Souce Sans Pro', Roboto, FreeSans, sans-serif" font-size="10.00">log4cplus/spi/filter.h</text>
</a>
</g>
</g>
<!-- Node13&#45;&gt;Node28 -->
<g id="edge46" class="edge">
<title>Node13&#45;&gt;Node28</title>
<path fill="none" stroke="midnightblue" d="M980.77,-347.08C986.56,-339.46 995.06,-328.26 1002.14,-318.94"/>
<polygon fill="midnightblue" stroke="midnightblue" points="1005.1,-320.83 1008.36,-310.75 999.52,-316.6 1005.1,-320.83"/>
</g>
<!-- Node30 -->
<g id="node30" class="node">
<title>Node30</title>
<g id="a_node30"><a xlink:href="lockfile_8h.html" target="_top" xlink:title=" ">
<polygon fill="white" stroke="black" points="1094,-235.5 1094,-254.5 1234,-254.5 1234,-235.5 1094,-235.5"/>
<text text-anchor="middle" x="1164" y="-242.5" font-family="'Souce Sans Pro', Roboto, FreeSans, sans-serif" font-size="10.00">log4cplus/helpers/lockfile.h</text>
</a>
</g>
</g>
<!-- Node13&#45;&gt;Node30 -->
<g id="edge51" class="edge">
<title>Node13&#45;&gt;Node30</title>
<path fill="none" stroke="midnightblue" d="M998.33,-347.37C1019.93,-339.27 1052,-326.16 1078,-311 1103.2,-296.31 1129.59,-275.42 1146.38,-261.32"/>
<polygon fill="midnightblue" stroke="midnightblue" points="1148.88,-263.78 1154.23,-254.63 1144.34,-258.45 1148.88,-263.78"/>
</g>
<!-- Node14&#45;&gt;Node2 -->
<g id="edge21" class="edge">
<title>Node14&#45;&gt;Node2</title>
<path fill="none" stroke="midnightblue" d="M709.74,-291.47C715.13,-274.24 726.91,-233.91 731,-199 732.03,-190.17 731.86,-187.85 731,-179 728.54,-153.75 735.13,-143.36 720,-123 708.76,-107.87 690.92,-97.34 674.47,-90.29"/>
<polygon fill="midnightblue" stroke="midnightblue" points="675.59,-86.97 665.01,-86.53 673.01,-93.47 675.59,-86.97"/>
</g>
<!-- Node14&#45;&gt;Node6 -->
<g id="edge22" class="edge">
<title>Node14&#45;&gt;Node6</title>
<path fill="none" stroke="midnightblue" d="M676.1,-291.44C642.73,-282.2 589.41,-267.44 552.65,-257.26"/>
<polygon fill="midnightblue" stroke="midnightblue" points="553.33,-253.81 542.75,-254.52 551.46,-260.56 553.33,-253.81"/>
</g>
<!-- Node14&#45;&gt;Node7 -->
<g id="edge33" class="edge">
<title>Node14&#45;&gt;Node7</title>
<path fill="none" stroke="midnightblue" d="M657.69,-296.08C605.25,-290.82 520.46,-279.2 451,-255 414.26,-242.2 375.28,-219.08 352.05,-204.14"/>
<polygon fill="midnightblue" stroke="midnightblue" points="353.96,-201.21 343.68,-198.67 350.13,-207.07 353.96,-201.21"/>
</g>
<!-- Node14&#45;&gt;Node8 -->
<g id="edge27" class="edge">
<title>Node14&#45;&gt;Node8</title>
<path fill="none" stroke="midnightblue" d="M691.23,-291.48C666.5,-278.31 616.88,-252.7 573,-235 540.53,-221.9 502.66,-209.77 474.81,-201.41"/>
<polygon fill="midnightblue" stroke="midnightblue" points="475.61,-197.99 465.03,-198.5 473.62,-204.71 475.61,-197.99"/>
</g>
<!-- Node15 -->
<g id="node15" class="node">
<title>Node15</title>
<g id="a_node15"><a xlink:href="streams_8h.html" target="_top" xlink:title=" ">
<polygon fill="white" stroke="black" points="614.5,-179.5 614.5,-198.5 721.5,-198.5 721.5,-179.5 614.5,-179.5"/>
<text text-anchor="middle" x="668" y="-186.5" font-family="'Souce Sans Pro', Roboto, FreeSans, sans-serif" font-size="10.00">log4cplus/streams.h</text>
</a>
</g>
</g>
<!-- Node14&#45;&gt;Node15 -->
<g id="edge23" class="edge">
<title>Node14&#45;&gt;Node15</title>
<path fill="none" stroke="midnightblue" d="M703.94,-291.37C697.62,-273.54 683,-232.3 674.48,-208.27"/>
<polygon fill="midnightblue" stroke="midnightblue" points="677.69,-206.85 671.05,-198.59 671.09,-209.19 677.69,-206.85"/>
</g>
<!-- Node17 -->
<g id="node17" class="node">
<title>Node17</title>
<g id="a_node17"><a xlink:href="timehelper_8h.html" target="_top" xlink:title=" ">
<polygon fill="white" stroke="black" points="734,-235.5 734,-254.5 888,-254.5 888,-235.5 734,-235.5"/>
<text text-anchor="middle" x="811" y="-242.5" font-family="'Souce Sans Pro', Roboto, FreeSans, sans-serif" font-size="10.00">log4cplus/helpers/timehelper.h</text>
</a>
</g>
</g>
<!-- Node14&#45;&gt;Node17 -->
<g id="edge28" class="edge">
<title>Node14&#45;&gt;Node17</title>
<path fill="none" stroke="midnightblue" d="M723.71,-291.32C740.31,-282.7 766,-269.36 785.22,-259.39"/>
<polygon fill="midnightblue" stroke="midnightblue" points="787.07,-262.37 794.33,-254.65 783.84,-256.16 787.07,-262.37"/>
</g>
<!-- Node14&#45;&gt;Node20 -->
<g id="edge34" class="edge">
<title>Node14&#45;&gt;Node20</title>
<path fill="none" stroke="midnightblue" d="M743.81,-291.42C780.09,-282.94 837.36,-269.46 896.07,-255.21"/>
<polygon fill="midnightblue" stroke="midnightblue" points="896.99,-258.58 905.88,-252.82 895.34,-251.78 896.99,-258.58"/>
</g>
<!-- Node15&#45;&gt;Node2 -->
<g id="edge24" class="edge">
<title>Node15&#45;&gt;Node2</title>
<path fill="none" stroke="midnightblue" d="M665.41,-179.37C660.06,-161.54 647.69,-120.3 640.48,-96.27"/>
<polygon fill="midnightblue" stroke="midnightblue" points="643.8,-95.16 637.58,-86.59 637.1,-97.18 643.8,-95.16"/>
</g>
<!-- Node15&#45;&gt;Node10 -->
<g id="edge25" class="edge">
<title>Node15&#45;&gt;Node10</title>
<path fill="none" stroke="midnightblue" d="M631.08,-179.44C590.6,-170.06 525.58,-154.99 481.62,-144.8"/>
<polygon fill="midnightblue" stroke="midnightblue" points="482.28,-141.36 471.75,-142.52 480.7,-148.18 482.28,-141.36"/>
</g>
<!-- Node16 -->
<g id="node16" class="node">
<title>Node16</title>
<g id="a_node16"><a xlink:title=" ">
<polygon fill="white" stroke="#bfbfbf" points="663.5,-123.5 663.5,-142.5 710.5,-142.5 710.5,-123.5 663.5,-123.5"/>
<text text-anchor="middle" x="687" y="-130.5" font-family="'Souce Sans Pro', Roboto, FreeSans, sans-serif" font-size="10.00">iosfwd</text>
</a>
</g>
</g>
<!-- Node15&#45;&gt;Node16 -->
<g id="edge26" class="edge">
<title>Node15&#45;&gt;Node16</title>
<path fill="none" stroke="midnightblue" d="M671.14,-179.08C673.68,-171.85 677.36,-161.41 680.53,-152.4"/>
<polygon fill="midnightblue" stroke="midnightblue" points="683.9,-153.35 683.92,-142.75 677.3,-151.02 683.9,-153.35"/>
</g>
<!-- Node17&#45;&gt;Node2 -->
<g id="edge29" class="edge">
<title>Node17&#45;&gt;Node2</title>
<path fill="none" stroke="midnightblue" d="M810.1,-235.33C807.38,-213.38 797.23,-155.09 764,-123 746.54,-106.13 722.42,-95.56 699.75,-88.95"/>
<polygon fill="midnightblue" stroke="midnightblue" points="700.38,-85.49 689.81,-86.26 698.56,-92.25 700.38,-85.49"/>
</g>
<!-- Node17&#45;&gt;Node8 -->
<g id="edge30" class="edge">
<title>Node17&#45;&gt;Node8</title>
<path fill="none" stroke="midnightblue" d="M751.42,-235.44C681.16,-225.35 565.05,-208.68 494.73,-198.58"/>
<polygon fill="midnightblue" stroke="midnightblue" points="495.09,-195.09 484.69,-197.14 494.09,-202.02 495.09,-195.09"/>
</g>
<!-- Node18 -->
<g id="node18" class="node">
<title>Node18</title>
<g id="a_node18"><a xlink:title=" ">
<polygon fill="white" stroke="#bfbfbf" points="816.5,-179.5 816.5,-198.5 857.5,-198.5 857.5,-179.5 816.5,-179.5"/>
<text text-anchor="middle" x="837" y="-186.5" font-family="'Souce Sans Pro', Roboto, FreeSans, sans-serif" font-size="10.00">ctime</text>
</a>
</g>
</g>
<!-- Node17&#45;&gt;Node18 -->
<g id="edge31" class="edge">
<title>Node17&#45;&gt;Node18</title>
<path fill="none" stroke="midnightblue" d="M815.29,-235.08C818.85,-227.69 824.02,-216.95 828.42,-207.81"/>
<polygon fill="midnightblue" stroke="midnightblue" points="831.6,-209.28 832.79,-198.75 825.29,-206.24 831.6,-209.28"/>
</g>
<!-- Node19 -->
<g id="node19" class="node">
<title>Node19</title>
<g id="a_node19"><a xlink:title=" ">
<polygon fill="white" stroke="#bfbfbf" points="875.5,-179.5 875.5,-198.5 922.5,-198.5 922.5,-179.5 875.5,-179.5"/>
<text text-anchor="middle" x="899" y="-186.5" font-family="'Souce Sans Pro', Roboto, FreeSans, sans-serif" font-size="10.00">chrono</text>
</a>
</g>
</g>
<!-- Node17&#45;&gt;Node19 -->
<g id="edge32" class="edge">
<title>Node17&#45;&gt;Node19</title>
<path fill="none" stroke="midnightblue" d="M825.14,-235.32C838.87,-226.9 859.94,-213.97 876.06,-204.07"/>
<polygon fill="midnightblue" stroke="midnightblue" points="878.2,-206.87 884.9,-198.65 874.54,-200.9 878.2,-206.87"/>
</g>
<!-- Node21&#45;&gt;Node2 -->
<g id="edge38" class="edge">
<title>Node21&#45;&gt;Node2</title>
<path fill="none" stroke="midnightblue" d="M1261.21,-235.46C1193.02,-225.37 1088.86,-208.71 1073,-199 1036.76,-176.82 1051.91,-144.05 1015,-123 962.72,-93.18 794.06,-83.03 699.97,-79.64"/>
<polygon fill="midnightblue" stroke="midnightblue" points="699.82,-76.13 689.71,-79.29 699.58,-83.13 699.82,-76.13"/>
</g>
<!-- Node22 -->
<g id="node22" class="node">
<title>Node22</title>
<g id="a_node22"><a xlink:href="syncprims_8h.html" target="_top" xlink:title=" ">
<polygon fill="white" stroke="black" points="1081.5,-179.5 1081.5,-198.5 1230.5,-198.5 1230.5,-179.5 1081.5,-179.5"/>
<text text-anchor="middle" x="1156" y="-186.5" font-family="'Souce Sans Pro', Roboto, FreeSans, sans-serif" font-size="10.00">log4cplus/thread/syncprims.h</text>
</a>
</g>
</g>
<!-- Node21&#45;&gt;Node22 -->
<g id="edge39" class="edge">
<title>Node21&#45;&gt;Node22</title>
<path fill="none" stroke="midnightblue" d="M1294.86,-235.44C1266.98,-226.32 1222.65,-211.81 1191.6,-201.65"/>
<polygon fill="midnightblue" stroke="midnightblue" points="1192.62,-198.3 1182.02,-198.52 1190.44,-204.95 1192.62,-198.3"/>
</g>
<!-- Node25 -->
<g id="node25" class="node">
<title>Node25</title>
<g id="a_node25"><a xlink:title=" ">
<polygon fill="white" stroke="#bfbfbf" points="1248.5,-179.5 1248.5,-198.5 1307.5,-198.5 1307.5,-179.5 1248.5,-179.5"/>
<text text-anchor="middle" x="1278" y="-186.5" font-family="'Souce Sans Pro', Roboto, FreeSans, sans-serif" font-size="10.00">algorithm</text>
</a>
</g>
</g>
<!-- Node21&#45;&gt;Node25 -->
<g id="edge43" class="edge">
<title>Node21&#45;&gt;Node25</title>
<path fill="none" stroke="midnightblue" d="M1313.9,-235.08C1307.76,-227.38 1298.73,-216.03 1291.26,-206.65"/>
<polygon fill="midnightblue" stroke="midnightblue" points="1293.94,-204.39 1284.97,-198.75 1288.46,-208.75 1293.94,-204.39"/>
</g>
<!-- Node26 -->
<g id="node26" class="node">
<title>Node26</title>
<g id="a_node26"><a xlink:title=" ">
<polygon fill="white" stroke="#bfbfbf" points="1326,-179.5 1326,-198.5 1376,-198.5 1376,-179.5 1326,-179.5"/>
<text text-anchor="middle" x="1351" y="-186.5" font-family="'Souce Sans Pro', Roboto, FreeSans, sans-serif" font-size="10.00">cassert</text>
</a>
</g>
</g>
<!-- Node21&#45;&gt;Node26 -->
<g id="edge44" class="edge">
<title>Node21&#45;&gt;Node26</title>
<path fill="none" stroke="midnightblue" d="M1325.95,-235.08C1330.1,-227.61 1336.15,-216.72 1341.27,-207.52"/>
<polygon fill="midnightblue" stroke="midnightblue" points="1344.34,-209.19 1346.14,-198.75 1338.22,-205.79 1344.34,-209.19"/>
</g>
<!-- Node21&#45;&gt;Node27 -->
<g id="edge45" class="edge">
<title>Node21&#45;&gt;Node27</title>
<path fill="none" stroke="midnightblue" d="M1336.58,-235.32C1352,-226.74 1375.81,-213.49 1393.71,-203.52"/>
<polygon fill="midnightblue" stroke="midnightblue" points="1395.42,-206.58 1402.45,-198.65 1392.01,-200.46 1395.42,-206.58"/>
</g>
<!-- Node22&#45;&gt;Node2 -->
<g id="edge40" class="edge">
<title>Node22&#45;&gt;Node2</title>
<path fill="none" stroke="midnightblue" d="M1147.72,-179.41C1133.15,-164.91 1101.29,-135.91 1068,-123 1002.45,-97.58 803.47,-85.34 699.63,-80.55"/>
<polygon fill="midnightblue" stroke="midnightblue" points="699.73,-77.05 689.58,-80.1 699.41,-84.04 699.73,-77.05"/>
</g>
<!-- Node22&#45;&gt;Node23 -->
<g id="edge41" class="edge">
<title>Node22&#45;&gt;Node23</title>
<path fill="none" stroke="midnightblue" d="M1171.1,-179.32C1185.9,-170.82 1208.69,-157.73 1225.98,-147.8"/>
<polygon fill="midnightblue" stroke="midnightblue" points="1228.01,-150.67 1234.93,-142.65 1224.52,-144.6 1228.01,-150.67"/>
</g>
<!-- Node22&#45;&gt;Node24 -->
<g id="edge42" class="edge">
<title>Node22&#45;&gt;Node24</title>
<path fill="none" stroke="midnightblue" d="M1198.78,-179.44C1246.18,-169.96 1322.63,-154.67 1373.58,-144.48"/>
<polygon fill="midnightblue" stroke="midnightblue" points="1374.3,-147.91 1383.42,-142.52 1372.93,-141.05 1374.3,-147.91"/>
</g>
<!-- Node28&#45;&gt;Node2 -->
<g id="edge47" class="edge">
<title>Node28&#45;&gt;Node2</title>
<path fill="none" stroke="midnightblue" d="M1024.96,-291.29C1038.31,-278.53 1059,-254.2 1047,-235 973.19,-116.96 796.31,-87.4 700.06,-80.18"/>
<polygon fill="midnightblue" stroke="midnightblue" points="700.09,-76.67 689.87,-79.47 699.61,-83.65 700.09,-76.67"/>
</g>
<!-- Node28&#45;&gt;Node6 -->
<g id="edge50" class="edge">
<title>Node28&#45;&gt;Node6</title>
<path fill="none" stroke="midnightblue" d="M961.17,-294.22C867.3,-284.14 674.18,-263.41 574.53,-252.71"/>
<polygon fill="midnightblue" stroke="midnightblue" points="574.63,-249.2 564.31,-251.62 573.88,-256.16 574.63,-249.2"/>
</g>
<!-- Node28&#45;&gt;Node21 -->
<g id="edge49" class="edge">
<title>Node28&#45;&gt;Node21</title>
<path fill="none" stroke="midnightblue" d="M1063.49,-291.44C1117.54,-281.9 1204.93,-266.48 1262.67,-256.29"/>
<polygon fill="midnightblue" stroke="midnightblue" points="1263.5,-259.7 1272.74,-254.52 1262.28,-252.81 1263.5,-259.7"/>
</g>
<!-- Node29 -->
<g id="node29" class="node">
<title>Node29</title>
<g id="a_node29"><a xlink:title=" ">
<polygon fill="white" stroke="#bfbfbf" points="978,-235.5 978,-254.5 1038,-254.5 1038,-235.5 978,-235.5"/>
<text text-anchor="middle" x="1008" y="-242.5" font-family="'Souce Sans Pro', Roboto, FreeSans, sans-serif" font-size="10.00">functional</text>
</a>
</g>
</g>
<!-- Node28&#45;&gt;Node29 -->
<g id="edge48" class="edge">
<title>Node28&#45;&gt;Node29</title>
<path fill="none" stroke="midnightblue" d="M1013.84,-291.08C1012.92,-283.93 1011.58,-273.64 1010.42,-264.69"/>
<polygon fill="midnightblue" stroke="midnightblue" points="1013.89,-264.22 1009.13,-254.75 1006.95,-265.12 1013.89,-264.22"/>
</g>
<!-- Node30&#45;&gt;Node2 -->
<g id="edge52" class="edge">
<title>Node30&#45;&gt;Node2</title>
<path fill="none" stroke="midnightblue" d="M1119.72,-235.44C1094.32,-228.81 1063.01,-217.53 1040,-199 1008.88,-173.95 1025.71,-144.44 992,-123 944.86,-93.02 789.33,-82.97 699.87,-79.63"/>
<polygon fill="midnightblue" stroke="midnightblue" points="699.95,-76.13 689.84,-79.27 699.7,-83.13 699.95,-76.13"/>
</g>
<!-- Node30&#45;&gt;Node8 -->
<g id="edge53" class="edge">
<title>Node30&#45;&gt;Node8</title>
<path fill="none" stroke="midnightblue" d="M1093.78,-238.56C1078.37,-237.38 1062.13,-236.14 1047,-235 844.51,-219.77 604.29,-202.27 494.77,-194.33"/>
<polygon fill="midnightblue" stroke="midnightblue" points="494.81,-190.82 484.58,-193.59 494.3,-197.8 494.81,-190.82"/>
</g>
<!-- Node30&#45;&gt;Node22 -->
<g id="edge54" class="edge">
<title>Node30&#45;&gt;Node22</title>
<path fill="none" stroke="midnightblue" d="M1162.68,-235.08C1161.62,-227.93 1160.09,-217.64 1158.77,-208.69"/>
<polygon fill="midnightblue" stroke="midnightblue" points="1162.22,-208.13 1157.3,-198.75 1155.3,-209.16 1162.22,-208.13"/>
</g>
<!-- Node31&#45;&gt;Node2 -->
<g id="edge63" class="edge">
<title>Node31&#45;&gt;Node2</title>
<path fill="none" stroke="midnightblue" d="M105.31,-235.34C114.62,-212.36 143.38,-149.78 190,-123 222.19,-104.51 454.59,-88.53 570.14,-81.63"/>
<polygon fill="midnightblue" stroke="midnightblue" points="570.49,-85.12 580.27,-81.03 570.08,-78.13 570.49,-85.12"/>
</g>
<!-- Node31&#45;&gt;Node8 -->
<g id="edge64" class="edge">
<title>Node31&#45;&gt;Node8</title>
<path fill="none" stroke="midnightblue" d="M154.76,-235.44C214.79,-225.71 312.58,-209.85 375.33,-199.68"/>
<polygon fill="midnightblue" stroke="midnightblue" points="376.16,-203.09 385.47,-198.03 375.04,-196.18 376.16,-203.09"/>
</g>
</g>
</svg>
