<?xml version="1.0" encoding="UTF-8" standalone="no"?>
<!DOCTYPE svg PUBLIC "-//W3C//DTD SVG 1.1//EN"
 "http://www.w3.org/Graphics/SVG/1.1/DTD/svg11.dtd">
<!-- Generated by graphviz version 2.43.0 (0)
 -->
<!-- Title: windowsh&#45;inc.h Pages: 1 -->
<svg width="348pt" height="84pt"
 viewBox="0.00 0.00 348.00 84.00" xmlns="http://www.w3.org/2000/svg" xmlns:xlink="http://www.w3.org/1999/xlink">
<g id="graph0" class="graph" transform="scale(1 1) rotate(0) translate(4 80)">
<title>windowsh&#45;inc.h</title>
<polygon fill="white" stroke="transparent" points="-4,4 -4,-80 344,-80 344,4 -4,4"/>
<!-- Node1 -->
<g id="node1" class="node">
<title>Node1</title>
<g id="a_node1"><a xlink:title=" ">
<polygon fill="#bfbfbf" stroke="black" points="93,-56.5 93,-75.5 179,-75.5 179,-56.5 93,-56.5"/>
<text text-anchor="middle" x="136" y="-63.5" font-family="'Souce Sans Pro', Roboto, FreeSans, sans-serif" font-size="10.00">windowsh&#45;inc.h</text>
</a>
</g>
</g>
<!-- Node2 -->
<g id="node2" class="node">
<title>Node2</title>
<g id="a_node2"><a xlink:href="env_8h.html" target="_top" xlink:title=" ">
<polygon fill="white" stroke="black" points="0,-0.5 0,-19.5 40,-19.5 40,-0.5 0,-0.5"/>
<text text-anchor="middle" x="20" y="-7.5" font-family="'Souce Sans Pro', Roboto, FreeSans, sans-serif" font-size="10.00">env.h</text>
</a>
</g>
</g>
<!-- Node1&#45;&gt;Node2 -->
<g id="edge1" class="edge">
<title>Node1&#45;&gt;Node2</title>
<path fill="none" stroke="midnightblue" d="M108.28,-52.1C86.61,-42.01 57.1,-28.27 38.29,-19.52"/>
<polygon fill="midnightblue" stroke="midnightblue" points="107.08,-55.4 117.62,-56.44 110.03,-49.05 107.08,-55.4"/>
</g>
<!-- Node3 -->
<g id="node3" class="node">
<title>Node3</title>
<g id="a_node3"><a xlink:href="internal_2socket_8h.html" target="_top" xlink:title="This header contains declaration internal to log4cplus.">
<polygon fill="white" stroke="black" points="58.5,-0.5 58.5,-19.5 113.5,-19.5 113.5,-0.5 58.5,-0.5"/>
<text text-anchor="middle" x="86" y="-7.5" font-family="'Souce Sans Pro', Roboto, FreeSans, sans-serif" font-size="10.00">socket.h</text>
</a>
</g>
</g>
<!-- Node1&#45;&gt;Node3 -->
<g id="edge2" class="edge">
<title>Node1&#45;&gt;Node3</title>
<path fill="none" stroke="midnightblue" d="M120.92,-48.72C112.11,-39.2 101.33,-27.56 94.1,-19.75"/>
<polygon fill="midnightblue" stroke="midnightblue" points="118.38,-51.12 127.74,-56.08 123.52,-46.37 118.38,-51.12"/>
</g>
<!-- Node4 -->
<g id="node4" class="node">
<title>Node4</title>
<g id="a_node4"><a xlink:href="nteventlogappender_8h.html" target="_top" xlink:title=" ">
<polygon fill="white" stroke="black" points="132,-0.5 132,-19.5 242,-19.5 242,-0.5 132,-0.5"/>
<text text-anchor="middle" x="187" y="-7.5" font-family="'Souce Sans Pro', Roboto, FreeSans, sans-serif" font-size="10.00">nteventlogappender.h</text>
</a>
</g>
</g>
<!-- Node1&#45;&gt;Node4 -->
<g id="edge3" class="edge">
<title>Node1&#45;&gt;Node4</title>
<path fill="none" stroke="midnightblue" d="M151.38,-48.72C160.37,-39.2 171.36,-27.56 178.74,-19.75"/>
<polygon fill="midnightblue" stroke="midnightblue" points="148.74,-46.41 144.42,-56.08 153.83,-51.22 148.74,-46.41"/>
</g>
<!-- Node5 -->
<g id="node5" class="node">
<title>Node5</title>
<g id="a_node5"><a xlink:href="threads-impl_8h.html" target="_top" xlink:title=" ">
<polygon fill="white" stroke="black" points="260,-0.5 260,-19.5 340,-19.5 340,-0.5 260,-0.5"/>
<text text-anchor="middle" x="300" y="-7.5" font-family="'Souce Sans Pro', Roboto, FreeSans, sans-serif" font-size="10.00">threads&#45;impl.h</text>
</a>
</g>
</g>
<!-- Node1&#45;&gt;Node5 -->
<g id="edge4" class="edge">
<title>Node1&#45;&gt;Node5</title>
<path fill="none" stroke="midnightblue" d="M171.52,-53.3C202.42,-43.13 246.47,-28.62 274.14,-19.52"/>
<polygon fill="midnightblue" stroke="midnightblue" points="170.39,-49.99 161.99,-56.44 172.58,-56.64 170.39,-49.99"/>
</g>
</g>
</svg>
