<?xml version="1.0" encoding="UTF-8" standalone="no"?>
<!DOCTYPE svg PUBLIC "-//W3C//DTD SVG 1.1//EN"
 "http://www.w3.org/Graphics/SVG/1.1/DTD/svg11.dtd">
<!-- Generated by graphviz version 2.43.0 (0)
 -->
<!-- Title: appender.h Pages: 1 -->
<svg width="1087pt" height="375pt"
 viewBox="0.00 0.00 1087.42 375.00" xmlns="http://www.w3.org/2000/svg" xmlns:xlink="http://www.w3.org/1999/xlink">
<g id="graph0" class="graph" transform="scale(1 1) rotate(0) translate(4 371)">
<title>appender.h</title>
<polygon fill="white" stroke="transparent" points="-4,4 -4,-371 1083.42,-371 1083.42,4 -4,4"/>
<!-- Node1 -->
<g id="node1" class="node">
<title>Node1</title>
<g id="a_node1"><a xlink:title=" ">
<polygon fill="#bfbfbf" stroke="black" points="622.5,-347.5 622.5,-366.5 687.5,-366.5 687.5,-347.5 622.5,-347.5"/>
<text text-anchor="middle" x="655" y="-354.5" font-family="'Souce Sans Pro', Roboto, FreeSans, sans-serif" font-size="10.00">appender.h</text>
</a>
</g>
</g>
<!-- Node2 -->
<g id="node2" class="node">
<title>Node2</title>
<g id="a_node2"><a xlink:href="config_8hxx.html" target="_top" xlink:title=" ">
<polygon fill="white" stroke="black" points="431.5,-67.5 431.5,-86.5 540.5,-86.5 540.5,-67.5 431.5,-67.5"/>
<text text-anchor="middle" x="486" y="-74.5" font-family="'Souce Sans Pro', Roboto, FreeSans, sans-serif" font-size="10.00">log4cplus/config.hxx</text>
</a>
</g>
</g>
<!-- Node1&#45;&gt;Node2 -->
<g id="edge1" class="edge">
<title>Node1&#45;&gt;Node2</title>
<path fill="none" stroke="midnightblue" d="M622.07,-354C489.25,-345.48 0,-309.78 0,-246 0,-246 0,-246 0,-188 0,-151.82 17.49,-140.78 49,-123 111.03,-88 315.18,-80.12 421.04,-78.41"/>
<polygon fill="midnightblue" stroke="midnightblue" points="421.33,-81.91 431.28,-78.26 421.22,-74.91 421.33,-81.91"/>
</g>
<!-- Node5 -->
<g id="node5" class="node">
<title>Node5</title>
<g id="a_node5"><a xlink:href="layout_8h.html" target="_top" xlink:title=" ">
<polygon fill="white" stroke="black" points="290,-291.5 290,-310.5 388,-310.5 388,-291.5 290,-291.5"/>
<text text-anchor="middle" x="339" y="-298.5" font-family="'Souce Sans Pro', Roboto, FreeSans, sans-serif" font-size="10.00">log4cplus/layout.h</text>
</a>
</g>
</g>
<!-- Node1&#45;&gt;Node5 -->
<g id="edge4" class="edge">
<title>Node1&#45;&gt;Node5</title>
<path fill="none" stroke="midnightblue" d="M622.37,-350.42C569.5,-341.39 464.35,-323.42 398.07,-312.09"/>
<polygon fill="midnightblue" stroke="midnightblue" points="398.63,-308.64 388.18,-310.4 397.45,-315.54 398.63,-308.64"/>
</g>
<!-- Node6 -->
<g id="node6" class="node">
<title>Node6</title>
<g id="a_node6"><a xlink:href="loglevel_8h.html" target="_top" xlink:title="This header defines the LogLevel type.">
<polygon fill="white" stroke="black" points="424,-235.5 424,-254.5 528,-254.5 528,-235.5 424,-235.5"/>
<text text-anchor="middle" x="476" y="-242.5" font-family="'Souce Sans Pro', Roboto, FreeSans, sans-serif" font-size="10.00">log4cplus/loglevel.h</text>
</a>
</g>
</g>
<!-- Node1&#45;&gt;Node6 -->
<g id="edge27" class="edge">
<title>Node1&#45;&gt;Node6</title>
<path fill="none" stroke="midnightblue" d="M624.15,-347.4C600.49,-339.95 567.64,-327.74 542,-311 521.48,-297.6 502.01,-277.13 489.6,-262.74"/>
<polygon fill="midnightblue" stroke="midnightblue" points="491.95,-260.1 482.85,-254.69 486.59,-264.6 491.95,-260.1"/>
</g>
<!-- Node8 -->
<g id="node8" class="node">
<title>Node8</title>
<g id="a_node8"><a xlink:href="tstring_8h.html" target="_top" xlink:title=" ">
<polygon fill="white" stroke="black" points="416.5,-179.5 416.5,-198.5 515.5,-198.5 515.5,-179.5 416.5,-179.5"/>
<text text-anchor="middle" x="466" y="-186.5" font-family="'Souce Sans Pro', Roboto, FreeSans, sans-serif" font-size="10.00">log4cplus/tstring.h</text>
</a>
</g>
</g>
<!-- Node1&#45;&gt;Node8 -->
<g id="edge28" class="edge">
<title>Node1&#45;&gt;Node8</title>
<path fill="none" stroke="midnightblue" d="M640.75,-347.46C627.53,-339.13 607.72,-325.62 593,-311 563.23,-281.44 567.69,-263.61 537,-235 523.6,-222.51 506.28,-211.45 492.09,-203.42"/>
<polygon fill="midnightblue" stroke="midnightblue" points="493.75,-200.34 483.3,-198.6 490.38,-206.48 493.75,-200.34"/>
</g>
<!-- Node17 -->
<g id="node17" class="node">
<title>Node17</title>
<g id="a_node17"><a xlink:title=" ">
<polygon fill="white" stroke="#bfbfbf" points="28,-235.5 28,-254.5 82,-254.5 82,-235.5 28,-235.5"/>
<text text-anchor="middle" x="55" y="-242.5" font-family="'Souce Sans Pro', Roboto, FreeSans, sans-serif" font-size="10.00">memory</text>
</a>
</g>
</g>
<!-- Node1&#45;&gt;Node17 -->
<g id="edge47" class="edge">
<title>Node1&#45;&gt;Node17</title>
<path fill="none" stroke="midnightblue" d="M622.45,-353.85C557.18,-349.14 405.83,-336.29 281,-311 211.95,-297.01 133.31,-272.35 89.37,-257.76"/>
<polygon fill="midnightblue" stroke="midnightblue" points="90.35,-254.39 79.76,-254.54 88.13,-261.03 90.35,-254.39"/>
</g>
<!-- Node18 -->
<g id="node18" class="node">
<title>Node18</title>
<g id="a_node18"><a xlink:href="pointer_8h.html" target="_top" xlink:title=" ">
<polygon fill="white" stroke="black" points="858,-235.5 858,-254.5 996,-254.5 996,-235.5 858,-235.5"/>
<text text-anchor="middle" x="927" y="-242.5" font-family="'Souce Sans Pro', Roboto, FreeSans, sans-serif" font-size="10.00">log4cplus/helpers/pointer.h</text>
</a>
</g>
</g>
<!-- Node1&#45;&gt;Node18 -->
<g id="edge29" class="edge">
<title>Node1&#45;&gt;Node18</title>
<path fill="none" stroke="midnightblue" d="M676.34,-347.37C724.31,-327.97 840.78,-280.87 896.42,-258.37"/>
<polygon fill="midnightblue" stroke="midnightblue" points="897.8,-261.59 905.76,-254.59 895.17,-255.1 897.8,-261.59"/>
</g>
<!-- Node20 -->
<g id="node20" class="node">
<title>Node20</title>
<g id="a_node20"><a xlink:title=" ">
<polygon fill="white" stroke="#bfbfbf" points="774,-123.5 774,-142.5 818,-142.5 818,-123.5 774,-123.5"/>
<text text-anchor="middle" x="796" y="-130.5" font-family="'Souce Sans Pro', Roboto, FreeSans, sans-serif" font-size="10.00">mutex</text>
</a>
</g>
</g>
<!-- Node1&#45;&gt;Node20 -->
<g id="edge48" class="edge">
<title>Node1&#45;&gt;Node20</title>
<path fill="none" stroke="midnightblue" d="M687.68,-356.03C743.43,-355 859.58,-348.12 949,-311 1014.31,-283.89 1041.65,-266.72 1062,-199 1064.56,-190.49 1067.74,-185.79 1062,-179 1032.42,-144 892.65,-136.21 828.42,-134.49"/>
<polygon fill="midnightblue" stroke="midnightblue" points="828.15,-130.98 818.07,-134.25 827.98,-137.98 828.15,-130.98"/>
</g>
<!-- Node21 -->
<g id="node21" class="node">
<title>Node21</title>
<g id="a_node21"><a xlink:title=" ">
<polygon fill="white" stroke="#bfbfbf" points="967,-123.5 967,-142.5 1063,-142.5 1063,-123.5 967,-123.5"/>
<text text-anchor="middle" x="1015" y="-130.5" font-family="'Souce Sans Pro', Roboto, FreeSans, sans-serif" font-size="10.00">condition_variable</text>
</a>
</g>
</g>
<!-- Node1&#45;&gt;Node21 -->
<g id="edge50" class="edge">
<title>Node1&#45;&gt;Node21</title>
<path fill="none" stroke="midnightblue" d="M687.71,-353.69C759.95,-348.25 930.87,-333.37 984,-311 1043.63,-285.89 1065.46,-262.66 1077,-199 1078.59,-190.25 1081.04,-186.92 1077,-179 1070,-165.27 1056.63,-154.75 1044.1,-147.35"/>
<polygon fill="midnightblue" stroke="midnightblue" points="1045.68,-144.22 1035.22,-142.51 1042.33,-150.37 1045.68,-144.22"/>
</g>
<!-- Node24 -->
<g id="node24" class="node">
<title>Node24</title>
<g id="a_node24"><a xlink:title=" ">
<polygon fill="white" stroke="#bfbfbf" points="1005.5,-179.5 1005.5,-198.5 1052.5,-198.5 1052.5,-179.5 1005.5,-179.5"/>
<text text-anchor="middle" x="1029" y="-186.5" font-family="'Souce Sans Pro', Roboto, FreeSans, sans-serif" font-size="10.00">atomic</text>
</a>
</g>
</g>
<!-- Node1&#45;&gt;Node24 -->
<g id="edge49" class="edge">
<title>Node1&#45;&gt;Node24</title>
<path fill="none" stroke="midnightblue" d="M687.66,-355.9C755.68,-353.91 913.76,-339.84 1005,-255 1018.06,-242.86 1024.04,-222.99 1026.76,-208.41"/>
<polygon fill="midnightblue" stroke="midnightblue" points="1030.23,-208.92 1028.27,-198.5 1023.31,-207.86 1030.23,-208.92"/>
</g>
<!-- Node25 -->
<g id="node25" class="node">
<title>Node25</title>
<g id="a_node25"><a xlink:href="filter_8h.html" target="_top" xlink:title="This header defines Filter and all of it&#39;s subclasses.">
<polygon fill="white" stroke="black" points="601.5,-291.5 601.5,-310.5 708.5,-310.5 708.5,-291.5 601.5,-291.5"/>
<text text-anchor="middle" x="655" y="-298.5" font-family="'Souce Sans Pro', Roboto, FreeSans, sans-serif" font-size="10.00">log4cplus/spi/filter.h</text>
</a>
</g>
</g>
<!-- Node1&#45;&gt;Node25 -->
<g id="edge38" class="edge">
<title>Node1&#45;&gt;Node25</title>
<path fill="none" stroke="midnightblue" d="M655,-347.08C655,-340.01 655,-329.86 655,-320.99"/>
<polygon fill="midnightblue" stroke="midnightblue" points="658.5,-320.75 655,-310.75 651.5,-320.75 658.5,-320.75"/>
</g>
<!-- Node27 -->
<g id="node27" class="node">
<title>Node27</title>
<g id="a_node27"><a xlink:href="lockfile_8h.html" target="_top" xlink:title=" ">
<polygon fill="white" stroke="black" points="700,-235.5 700,-254.5 840,-254.5 840,-235.5 700,-235.5"/>
<text text-anchor="middle" x="770" y="-242.5" font-family="'Souce Sans Pro', Roboto, FreeSans, sans-serif" font-size="10.00">log4cplus/helpers/lockfile.h</text>
</a>
</g>
</g>
<!-- Node1&#45;&gt;Node27 -->
<g id="edge43" class="edge">
<title>Node1&#45;&gt;Node27</title>
<path fill="none" stroke="midnightblue" d="M669.36,-347.36C682.71,-338.97 702.77,-325.42 718,-311 733.52,-296.31 748.46,-276.9 758.31,-263.13"/>
<polygon fill="midnightblue" stroke="midnightblue" points="761.4,-264.82 764.26,-254.62 755.66,-260.81 761.4,-264.82"/>
</g>
<!-- Node3 -->
<g id="node3" class="node">
<title>Node3</title>
<g id="a_node3"><a xlink:href="win32_8h.html" target="_top" xlink:title=" ">
<polygon fill="white" stroke="black" points="349,-6 349,-25 477,-25 477,-6 349,-6"/>
<text text-anchor="middle" x="413" y="-13" font-family="'Souce Sans Pro', Roboto, FreeSans, sans-serif" font-size="10.00">log4cplus/config/win32.h</text>
</a>
</g>
</g>
<!-- Node2&#45;&gt;Node3 -->
<g id="edge2" class="edge">
<title>Node2&#45;&gt;Node3</title>
<path fill="none" stroke="midnightblue" d="M475.54,-67.48C464.05,-58.11 445.37,-42.88 431.41,-31.51"/>
<polygon fill="midnightblue" stroke="midnightblue" points="433.4,-28.61 423.44,-25.01 428.98,-34.04 433.4,-28.61"/>
</g>
<!-- Node4 -->
<g id="node4" class="node">
<title>Node4</title>
<g id="a_node4"><a xlink:href="thread-config_8h.html" target="_top" xlink:title=" ">
<polygon fill="white" stroke="black" points="495,-0.5 495,-30.5 623,-30.5 623,-0.5 495,-0.5"/>
<text text-anchor="start" x="503" y="-18.5" font-family="'Souce Sans Pro', Roboto, FreeSans, sans-serif" font-size="10.00">log4cplus/helpers/thread</text>
<text text-anchor="middle" x="559" y="-7.5" font-family="'Souce Sans Pro', Roboto, FreeSans, sans-serif" font-size="10.00">&#45;config.h</text>
</a>
</g>
</g>
<!-- Node2&#45;&gt;Node4 -->
<g id="edge3" class="edge">
<title>Node2&#45;&gt;Node4</title>
<path fill="none" stroke="midnightblue" d="M496.46,-67.48C506.16,-59.57 520.99,-47.48 533.77,-37.07"/>
<polygon fill="midnightblue" stroke="midnightblue" points="536.26,-39.55 541.8,-30.52 531.83,-34.13 536.26,-39.55"/>
</g>
<!-- Node5&#45;&gt;Node2 -->
<g id="edge5" class="edge">
<title>Node5&#45;&gt;Node2</title>
<path fill="none" stroke="midnightblue" d="M337.24,-291.23C333.52,-270.5 326.64,-217.31 345,-179 366.35,-134.45 418.25,-105.51 452.77,-90.48"/>
<polygon fill="midnightblue" stroke="midnightblue" points="454.14,-93.7 462.01,-86.61 451.43,-87.25 454.14,-93.7"/>
</g>
<!-- Node5&#45;&gt;Node6 -->
<g id="edge6" class="edge">
<title>Node5&#45;&gt;Node6</title>
<path fill="none" stroke="midnightblue" d="M360.71,-291.44C383.35,-282.52 419.07,-268.44 444.75,-258.32"/>
<polygon fill="midnightblue" stroke="midnightblue" points="446.37,-261.44 454.39,-254.52 443.81,-254.93 446.37,-261.44"/>
</g>
<!-- Node7 -->
<g id="node7" class="node">
<title>Node7</title>
<g id="a_node7"><a xlink:title=" ">
<polygon fill="white" stroke="#bfbfbf" points="354,-179.5 354,-198.5 398,-198.5 398,-179.5 354,-179.5"/>
<text text-anchor="middle" x="376" y="-186.5" font-family="'Souce Sans Pro', Roboto, FreeSans, sans-serif" font-size="10.00">vector</text>
</a>
</g>
</g>
<!-- Node5&#45;&gt;Node7 -->
<g id="edge25" class="edge">
<title>Node5&#45;&gt;Node7</title>
<path fill="none" stroke="midnightblue" d="M341.9,-291.37C347.9,-273.54 361.77,-232.3 369.85,-208.27"/>
<polygon fill="midnightblue" stroke="midnightblue" points="373.24,-209.19 373.11,-198.59 366.6,-206.95 373.24,-209.19"/>
</g>
<!-- Node5&#45;&gt;Node8 -->
<g id="edge19" class="edge">
<title>Node5&#45;&gt;Node8</title>
<path fill="none" stroke="midnightblue" d="M348.97,-291.37C370.39,-272.81 421.07,-228.91 448.18,-205.44"/>
<polygon fill="midnightblue" stroke="midnightblue" points="450.81,-207.78 456.08,-198.59 446.23,-202.49 450.81,-207.78"/>
</g>
<!-- Node12 -->
<g id="node12" class="node">
<title>Node12</title>
<g id="a_node12"><a xlink:href="streams_8h.html" target="_top" xlink:title=" ">
<polygon fill="white" stroke="black" points="28.5,-179.5 28.5,-198.5 135.5,-198.5 135.5,-179.5 28.5,-179.5"/>
<text text-anchor="middle" x="82" y="-186.5" font-family="'Souce Sans Pro', Roboto, FreeSans, sans-serif" font-size="10.00">log4cplus/streams.h</text>
</a>
</g>
</g>
<!-- Node5&#45;&gt;Node12 -->
<g id="edge15" class="edge">
<title>Node5&#45;&gt;Node12</title>
<path fill="none" stroke="midnightblue" d="M289.77,-299.28C244.61,-296.47 177.56,-286.67 129,-255 111.37,-243.5 98.18,-222.93 90.33,-208"/>
<polygon fill="midnightblue" stroke="midnightblue" points="93.32,-206.16 85.75,-198.75 87.05,-209.26 93.32,-206.16"/>
</g>
<!-- Node14 -->
<g id="node14" class="node">
<title>Node14</title>
<g id="a_node14"><a xlink:href="timehelper_8h.html" target="_top" xlink:title=" ">
<polygon fill="white" stroke="black" points="138,-235.5 138,-254.5 292,-254.5 292,-235.5 138,-235.5"/>
<text text-anchor="middle" x="215" y="-242.5" font-family="'Souce Sans Pro', Roboto, FreeSans, sans-serif" font-size="10.00">log4cplus/helpers/timehelper.h</text>
</a>
</g>
</g>
<!-- Node5&#45;&gt;Node14 -->
<g id="edge20" class="edge">
<title>Node5&#45;&gt;Node14</title>
<path fill="none" stroke="midnightblue" d="M319.35,-291.44C299.04,-282.6 267.1,-268.69 243.9,-258.59"/>
<polygon fill="midnightblue" stroke="midnightblue" points="245.12,-255.3 234.56,-254.52 242.33,-261.72 245.12,-255.3"/>
</g>
<!-- Node5&#45;&gt;Node17 -->
<g id="edge26" class="edge">
<title>Node5&#45;&gt;Node17</title>
<path fill="none" stroke="midnightblue" d="M290.04,-291.42C240.9,-282.7 163.07,-268.57 96,-255 94.75,-254.75 93.49,-254.49 92.21,-254.22"/>
<polygon fill="midnightblue" stroke="midnightblue" points="92.83,-250.78 82.32,-252.13 91.38,-257.63 92.83,-250.78"/>
</g>
<!-- Node6&#45;&gt;Node2 -->
<g id="edge7" class="edge">
<title>Node6&#45;&gt;Node2</title>
<path fill="none" stroke="midnightblue" d="M490.66,-235.4C502.41,-227.58 518.03,-214.86 525,-199 540.75,-163.14 515.93,-118.86 499.21,-95.06"/>
<polygon fill="midnightblue" stroke="midnightblue" points="501.84,-92.72 493.1,-86.73 496.2,-96.86 501.84,-92.72"/>
</g>
<!-- Node6&#45;&gt;Node7 -->
<g id="edge8" class="edge">
<title>Node6&#45;&gt;Node7</title>
<path fill="none" stroke="midnightblue" d="M459.93,-235.32C444.04,-226.74 419.49,-213.49 401.04,-203.52"/>
<polygon fill="midnightblue" stroke="midnightblue" points="402.49,-200.33 392.03,-198.65 399.16,-206.49 402.49,-200.33"/>
</g>
<!-- Node6&#45;&gt;Node8 -->
<g id="edge9" class="edge">
<title>Node6&#45;&gt;Node8</title>
<path fill="none" stroke="midnightblue" d="M474.35,-235.08C473.02,-227.93 471.12,-217.64 469.46,-208.69"/>
<polygon fill="midnightblue" stroke="midnightblue" points="472.88,-207.95 467.62,-198.75 466,-209.22 472.88,-207.95"/>
</g>
<!-- Node8&#45;&gt;Node2 -->
<g id="edge10" class="edge">
<title>Node8&#45;&gt;Node2</title>
<path fill="none" stroke="midnightblue" d="M467.57,-179.37C470.8,-161.62 478.24,-120.67 482.62,-96.6"/>
<polygon fill="midnightblue" stroke="midnightblue" points="486.09,-97.06 484.44,-86.59 479.21,-95.8 486.09,-97.06"/>
</g>
<!-- Node9 -->
<g id="node9" class="node">
<title>Node9</title>
<g id="a_node9"><a xlink:title=" ">
<polygon fill="white" stroke="#bfbfbf" points="416.5,-123.5 416.5,-142.5 457.5,-142.5 457.5,-123.5 416.5,-123.5"/>
<text text-anchor="middle" x="437" y="-130.5" font-family="'Souce Sans Pro', Roboto, FreeSans, sans-serif" font-size="10.00">string</text>
</a>
</g>
</g>
<!-- Node8&#45;&gt;Node9 -->
<g id="edge11" class="edge">
<title>Node8&#45;&gt;Node9</title>
<path fill="none" stroke="midnightblue" d="M461.21,-179.08C457.24,-171.69 451.47,-160.95 446.57,-151.81"/>
<polygon fill="midnightblue" stroke="midnightblue" points="449.51,-149.91 441.7,-142.75 443.35,-153.22 449.51,-149.91"/>
</g>
<!-- Node10 -->
<g id="node10" class="node">
<title>Node10</title>
<g id="a_node10"><a xlink:href="tchar_8h.html" target="_top" xlink:title=" ">
<polygon fill="white" stroke="black" points="128.5,-123.5 128.5,-142.5 221.5,-142.5 221.5,-123.5 128.5,-123.5"/>
<text text-anchor="middle" x="175" y="-130.5" font-family="'Souce Sans Pro', Roboto, FreeSans, sans-serif" font-size="10.00">log4cplus/tchar.h</text>
</a>
</g>
</g>
<!-- Node8&#45;&gt;Node10 -->
<g id="edge12" class="edge">
<title>Node8&#45;&gt;Node10</title>
<path fill="none" stroke="midnightblue" d="M419.89,-179.44C368.59,-169.92 285.73,-154.55 230.81,-144.36"/>
<polygon fill="midnightblue" stroke="midnightblue" points="231.36,-140.9 220.89,-142.52 230.09,-147.78 231.36,-140.9"/>
</g>
<!-- Node10&#45;&gt;Node2 -->
<g id="edge13" class="edge">
<title>Node10&#45;&gt;Node2</title>
<path fill="none" stroke="midnightblue" d="M221.56,-123.92C276.26,-114.42 367.11,-98.64 426.78,-88.28"/>
<polygon fill="midnightblue" stroke="midnightblue" points="427.55,-91.7 436.81,-86.54 426.36,-84.8 427.55,-91.7"/>
</g>
<!-- Node11 -->
<g id="node11" class="node">
<title>Node11</title>
<g id="a_node11"><a xlink:title=" ">
<polygon fill="white" stroke="#bfbfbf" points="149.5,-67.5 149.5,-86.5 200.5,-86.5 200.5,-67.5 149.5,-67.5"/>
<text text-anchor="middle" x="175" y="-74.5" font-family="'Souce Sans Pro', Roboto, FreeSans, sans-serif" font-size="10.00">cstddef</text>
</a>
</g>
</g>
<!-- Node10&#45;&gt;Node11 -->
<g id="edge14" class="edge">
<title>Node10&#45;&gt;Node11</title>
<path fill="none" stroke="midnightblue" d="M175,-123.08C175,-116.01 175,-105.86 175,-96.99"/>
<polygon fill="midnightblue" stroke="midnightblue" points="178.5,-96.75 175,-86.75 171.5,-96.75 178.5,-96.75"/>
</g>
<!-- Node12&#45;&gt;Node2 -->
<g id="edge16" class="edge">
<title>Node12&#45;&gt;Node2</title>
<path fill="none" stroke="midnightblue" d="M114.45,-179.46C144.72,-171.18 190.93,-157.75 230,-143 250.1,-135.41 253.6,-129.71 274,-123 322.31,-107.1 378.7,-95.45 421.18,-87.99"/>
<polygon fill="midnightblue" stroke="midnightblue" points="421.86,-91.42 431.11,-86.27 420.67,-84.53 421.86,-91.42"/>
</g>
<!-- Node12&#45;&gt;Node10 -->
<g id="edge17" class="edge">
<title>Node12&#45;&gt;Node10</title>
<path fill="none" stroke="midnightblue" d="M96.94,-179.32C111.59,-170.82 134.13,-157.73 151.24,-147.8"/>
<polygon fill="midnightblue" stroke="midnightblue" points="153.2,-150.7 160.1,-142.65 149.69,-144.65 153.2,-150.7"/>
</g>
<!-- Node13 -->
<g id="node13" class="node">
<title>Node13</title>
<g id="a_node13"><a xlink:title=" ">
<polygon fill="white" stroke="#bfbfbf" points="58.5,-123.5 58.5,-142.5 105.5,-142.5 105.5,-123.5 58.5,-123.5"/>
<text text-anchor="middle" x="82" y="-130.5" font-family="'Souce Sans Pro', Roboto, FreeSans, sans-serif" font-size="10.00">iosfwd</text>
</a>
</g>
</g>
<!-- Node12&#45;&gt;Node13 -->
<g id="edge18" class="edge">
<title>Node12&#45;&gt;Node13</title>
<path fill="none" stroke="midnightblue" d="M82,-179.08C82,-172.01 82,-161.86 82,-152.99"/>
<polygon fill="midnightblue" stroke="midnightblue" points="85.5,-152.75 82,-142.75 78.5,-152.75 85.5,-152.75"/>
</g>
<!-- Node14&#45;&gt;Node2 -->
<g id="edge21" class="edge">
<title>Node14&#45;&gt;Node2</title>
<path fill="none" stroke="midnightblue" d="M227.7,-235.46C239.42,-227.13 256.8,-213.62 269,-199 293.87,-169.2 281.21,-146.63 312,-123 343.2,-99.06 385.87,-87.78 421.14,-82.5"/>
<polygon fill="midnightblue" stroke="midnightblue" points="421.91,-85.93 431.35,-81.11 420.97,-79 421.91,-85.93"/>
</g>
<!-- Node14&#45;&gt;Node8 -->
<g id="edge22" class="edge">
<title>Node14&#45;&gt;Node8</title>
<path fill="none" stroke="midnightblue" d="M254.77,-235.44C298.56,-226.02 369.01,-210.87 416.38,-200.68"/>
<polygon fill="midnightblue" stroke="midnightblue" points="417.37,-204.04 426.41,-198.52 415.9,-197.2 417.37,-204.04"/>
</g>
<!-- Node15 -->
<g id="node15" class="node">
<title>Node15</title>
<g id="a_node15"><a xlink:title=" ">
<polygon fill="white" stroke="#bfbfbf" points="153.5,-179.5 153.5,-198.5 194.5,-198.5 194.5,-179.5 153.5,-179.5"/>
<text text-anchor="middle" x="174" y="-186.5" font-family="'Souce Sans Pro', Roboto, FreeSans, sans-serif" font-size="10.00">ctime</text>
</a>
</g>
</g>
<!-- Node14&#45;&gt;Node15 -->
<g id="edge23" class="edge">
<title>Node14&#45;&gt;Node15</title>
<path fill="none" stroke="midnightblue" d="M208.23,-235.08C202.44,-227.46 193.94,-216.26 186.86,-206.94"/>
<polygon fill="midnightblue" stroke="midnightblue" points="189.48,-204.6 180.64,-198.75 183.9,-208.83 189.48,-204.6"/>
</g>
<!-- Node16 -->
<g id="node16" class="node">
<title>Node16</title>
<g id="a_node16"><a xlink:title=" ">
<polygon fill="white" stroke="#bfbfbf" points="212.5,-179.5 212.5,-198.5 259.5,-198.5 259.5,-179.5 212.5,-179.5"/>
<text text-anchor="middle" x="236" y="-186.5" font-family="'Souce Sans Pro', Roboto, FreeSans, sans-serif" font-size="10.00">chrono</text>
</a>
</g>
</g>
<!-- Node14&#45;&gt;Node16 -->
<g id="edge24" class="edge">
<title>Node14&#45;&gt;Node16</title>
<path fill="none" stroke="midnightblue" d="M218.47,-235.08C221.31,-227.77 225.43,-217.18 228.96,-208.1"/>
<polygon fill="midnightblue" stroke="midnightblue" points="232.23,-209.34 232.6,-198.75 225.71,-206.8 232.23,-209.34"/>
</g>
<!-- Node18&#45;&gt;Node2 -->
<g id="edge30" class="edge">
<title>Node18&#45;&gt;Node2</title>
<path fill="none" stroke="midnightblue" d="M869.25,-235.47C802.74,-225.29 700.56,-208.48 685,-199 648.48,-176.75 661.03,-147.53 626,-123 602.36,-106.45 572.29,-95.74 546.09,-88.94"/>
<polygon fill="midnightblue" stroke="midnightblue" points="546.8,-85.51 536.25,-86.52 545.13,-92.31 546.8,-85.51"/>
</g>
<!-- Node19 -->
<g id="node19" class="node">
<title>Node19</title>
<g id="a_node19"><a xlink:href="syncprims_8h.html" target="_top" xlink:title=" ">
<polygon fill="white" stroke="black" points="693.5,-179.5 693.5,-198.5 842.5,-198.5 842.5,-179.5 693.5,-179.5"/>
<text text-anchor="middle" x="768" y="-186.5" font-family="'Souce Sans Pro', Roboto, FreeSans, sans-serif" font-size="10.00">log4cplus/thread/syncprims.h</text>
</a>
</g>
</g>
<!-- Node18&#45;&gt;Node19 -->
<g id="edge31" class="edge">
<title>Node18&#45;&gt;Node19</title>
<path fill="none" stroke="midnightblue" d="M901.81,-235.44C875.06,-226.36 832.6,-211.94 802.69,-201.78"/>
<polygon fill="midnightblue" stroke="midnightblue" points="803.67,-198.42 793.08,-198.52 801.42,-205.05 803.67,-198.42"/>
</g>
<!-- Node22 -->
<g id="node22" class="node">
<title>Node22</title>
<g id="a_node22"><a xlink:title=" ">
<polygon fill="white" stroke="#bfbfbf" points="928.5,-179.5 928.5,-198.5 987.5,-198.5 987.5,-179.5 928.5,-179.5"/>
<text text-anchor="middle" x="958" y="-186.5" font-family="'Souce Sans Pro', Roboto, FreeSans, sans-serif" font-size="10.00">algorithm</text>
</a>
</g>
</g>
<!-- Node18&#45;&gt;Node22 -->
<g id="edge35" class="edge">
<title>Node18&#45;&gt;Node22</title>
<path fill="none" stroke="midnightblue" d="M932.12,-235.08C936.41,-227.61 942.66,-216.72 947.94,-207.52"/>
<polygon fill="midnightblue" stroke="midnightblue" points="951.03,-209.17 952.98,-198.75 944.96,-205.68 951.03,-209.17"/>
</g>
<!-- Node23 -->
<g id="node23" class="node">
<title>Node23</title>
<g id="a_node23"><a xlink:title=" ">
<polygon fill="white" stroke="#bfbfbf" points="860,-179.5 860,-198.5 910,-198.5 910,-179.5 860,-179.5"/>
<text text-anchor="middle" x="885" y="-186.5" font-family="'Souce Sans Pro', Roboto, FreeSans, sans-serif" font-size="10.00">cassert</text>
</a>
</g>
</g>
<!-- Node18&#45;&gt;Node23 -->
<g id="edge36" class="edge">
<title>Node18&#45;&gt;Node23</title>
<path fill="none" stroke="midnightblue" d="M920.06,-235.08C914.07,-227.38 905.25,-216.03 897.95,-206.65"/>
<polygon fill="midnightblue" stroke="midnightblue" points="900.71,-204.5 891.81,-198.75 895.18,-208.79 900.71,-204.5"/>
</g>
<!-- Node18&#45;&gt;Node24 -->
<g id="edge37" class="edge">
<title>Node18&#45;&gt;Node24</title>
<path fill="none" stroke="midnightblue" d="M943.39,-235.32C959.67,-226.7 984.87,-213.36 1003.72,-203.39"/>
<polygon fill="midnightblue" stroke="midnightblue" points="1005.45,-206.43 1012.65,-198.65 1002.18,-200.24 1005.45,-206.43"/>
</g>
<!-- Node19&#45;&gt;Node2 -->
<g id="edge32" class="edge">
<title>Node19&#45;&gt;Node2</title>
<path fill="none" stroke="midnightblue" d="M759.06,-179.4C744,-165.4 712.08,-137.79 680,-123 639.07,-104.13 589.53,-92.81 550.75,-86.24"/>
<polygon fill="midnightblue" stroke="midnightblue" points="551.06,-82.75 540.63,-84.59 549.93,-89.65 551.06,-82.75"/>
</g>
<!-- Node19&#45;&gt;Node20 -->
<g id="edge33" class="edge">
<title>Node19&#45;&gt;Node20</title>
<path fill="none" stroke="midnightblue" d="M772.62,-179.08C776.46,-171.69 782.02,-160.95 786.76,-151.81"/>
<polygon fill="midnightblue" stroke="midnightblue" points="789.97,-153.24 791.46,-142.75 783.75,-150.02 789.97,-153.24"/>
</g>
<!-- Node19&#45;&gt;Node21 -->
<g id="edge34" class="edge">
<title>Node19&#45;&gt;Node21</title>
<path fill="none" stroke="midnightblue" d="M807.14,-179.44C850.23,-170.02 919.56,-154.87 966.17,-144.68"/>
<polygon fill="midnightblue" stroke="midnightblue" points="967.02,-148.07 976.05,-142.52 965.53,-141.23 967.02,-148.07"/>
</g>
<!-- Node25&#45;&gt;Node2 -->
<g id="edge39" class="edge">
<title>Node25&#45;&gt;Node2</title>
<path fill="none" stroke="midnightblue" d="M656.78,-291.11C658.95,-278.14 661.35,-253.53 653,-235 636.77,-199 545.36,-124.48 505.07,-92.78"/>
<polygon fill="midnightblue" stroke="midnightblue" points="507.11,-89.94 497.08,-86.53 502.8,-95.45 507.11,-89.94"/>
</g>
<!-- Node25&#45;&gt;Node6 -->
<g id="edge42" class="edge">
<title>Node25&#45;&gt;Node6</title>
<path fill="none" stroke="midnightblue" d="M626.64,-291.44C596.26,-282.28 547.89,-267.69 514.18,-257.52"/>
<polygon fill="midnightblue" stroke="midnightblue" points="514.82,-254.05 504.23,-254.52 512.79,-260.76 514.82,-254.05"/>
</g>
<!-- Node25&#45;&gt;Node18 -->
<g id="edge41" class="edge">
<title>Node25&#45;&gt;Node18</title>
<path fill="none" stroke="midnightblue" d="M698.1,-291.44C745.85,-281.96 822.86,-266.67 874.19,-256.48"/>
<polygon fill="midnightblue" stroke="midnightblue" points="874.98,-259.9 884.1,-254.52 873.61,-253.03 874.98,-259.9"/>
</g>
<!-- Node26 -->
<g id="node26" class="node">
<title>Node26</title>
<g id="a_node26"><a xlink:title=" ">
<polygon fill="white" stroke="#bfbfbf" points="584,-235.5 584,-254.5 644,-254.5 644,-235.5 584,-235.5"/>
<text text-anchor="middle" x="614" y="-242.5" font-family="'Souce Sans Pro', Roboto, FreeSans, sans-serif" font-size="10.00">functional</text>
</a>
</g>
</g>
<!-- Node25&#45;&gt;Node26 -->
<g id="edge40" class="edge">
<title>Node25&#45;&gt;Node26</title>
<path fill="none" stroke="midnightblue" d="M648.23,-291.08C642.44,-283.46 633.94,-272.26 626.86,-262.94"/>
<polygon fill="midnightblue" stroke="midnightblue" points="629.48,-260.6 620.64,-254.75 623.9,-264.83 629.48,-260.6"/>
</g>
<!-- Node27&#45;&gt;Node2 -->
<g id="edge44" class="edge">
<title>Node27&#45;&gt;Node2</title>
<path fill="none" stroke="midnightblue" d="M729.53,-235.46C705.07,-228.72 674.4,-217.33 652,-199 621.08,-173.7 634.92,-148.3 604,-123 584.49,-107.03 558.7,-96.33 536.21,-89.38"/>
<polygon fill="midnightblue" stroke="midnightblue" points="537.05,-85.98 526.47,-86.54 535.09,-92.7 537.05,-85.98"/>
</g>
<!-- Node27&#45;&gt;Node8 -->
<g id="edge45" class="edge">
<title>Node27&#45;&gt;Node8</title>
<path fill="none" stroke="midnightblue" d="M721.83,-235.44C668.13,-225.9 581.31,-210.48 523.95,-200.29"/>
<polygon fill="midnightblue" stroke="midnightblue" points="524.4,-196.82 513.94,-198.52 523.18,-203.71 524.4,-196.82"/>
</g>
<!-- Node27&#45;&gt;Node19 -->
<g id="edge46" class="edge">
<title>Node27&#45;&gt;Node19</title>
<path fill="none" stroke="midnightblue" d="M769.67,-235.08C769.41,-228.01 769.03,-217.86 768.7,-208.99"/>
<polygon fill="midnightblue" stroke="midnightblue" points="772.19,-208.61 768.32,-198.75 765.2,-208.87 772.19,-208.61"/>
</g>
</g>
</svg>
