<?xml version="1.0" encoding="UTF-8" standalone="no"?>
<!DOCTYPE svg PUBLIC "-//W3C//DTD SVG 1.1//EN"
 "http://www.w3.org/Graphics/SVG/1.1/DTD/svg11.dtd">
<!-- Generated by graphviz version 2.43.0 (0)
 -->
<!-- Title: appender.h Pages: 1 -->
<svg width="2040pt" height="308pt"
 viewBox="0.00 0.00 2039.50 308.00" xmlns="http://www.w3.org/2000/svg" xmlns:xlink="http://www.w3.org/1999/xlink">
<g id="graph0" class="graph" transform="scale(1 1) rotate(0) translate(4 304)">
<title>appender.h</title>
<polygon fill="white" stroke="transparent" points="-4,4 -4,-304 2035.5,-304 2035.5,4 -4,4"/>
<!-- Node1 -->
<g id="node1" class="node">
<title>Node1</title>
<g id="a_node1"><a xlink:title=" ">
<polygon fill="#bfbfbf" stroke="black" points="874,-280.5 874,-299.5 939,-299.5 939,-280.5 874,-280.5"/>
<text text-anchor="middle" x="906.5" y="-287.5" font-family="'Souce Sans Pro', Roboto, FreeSans, sans-serif" font-size="10.00">appender.h</text>
</a>
</g>
</g>
<!-- Node2 -->
<g id="node2" class="node">
<title>Node2</title>
<g id="a_node2"><a xlink:href="asyncappender_8h.html" target="_top" xlink:title=" ">
<polygon fill="white" stroke="black" points="0,-112.5 0,-131.5 91,-131.5 91,-112.5 0,-112.5"/>
<text text-anchor="middle" x="45.5" y="-119.5" font-family="'Souce Sans Pro', Roboto, FreeSans, sans-serif" font-size="10.00">asyncappender.h</text>
</a>
</g>
</g>
<!-- Node1&#45;&gt;Node2 -->
<g id="edge1" class="edge">
<title>Node1&#45;&gt;Node2</title>
<path fill="none" stroke="midnightblue" d="M863.71,-289.41C758.77,-289.68 480.64,-286.01 253.5,-244 169.86,-228.53 132.72,-246 70.5,-188 54.23,-172.83 48.43,-145.89 46.46,-131.93"/>
<polygon fill="midnightblue" stroke="midnightblue" points="863.91,-292.91 873.9,-289.37 863.88,-285.91 863.91,-292.91"/>
</g>
<!-- Node3 -->
<g id="node3" class="node">
<title>Node3</title>
<g id="a_node3"><a xlink:href="log4cplus_8h.html" target="_top" xlink:title=" ">
<polygon fill="white" stroke="black" points="520,-0.5 520,-19.5 587,-19.5 587,-0.5 520,-0.5"/>
<text text-anchor="middle" x="553.5" y="-7.5" font-family="'Souce Sans Pro', Roboto, FreeSans, sans-serif" font-size="10.00">log4cplus.h</text>
</a>
</g>
</g>
<!-- Node1&#45;&gt;Node3 -->
<g id="edge13" class="edge">
<title>Node1&#45;&gt;Node3</title>
<path fill="none" stroke="midnightblue" d="M915.26,-271.38C938.8,-222.84 999.74,-88.56 970.5,-56 945.02,-27.62 681.97,-15.55 587.25,-12.11"/>
<polygon fill="midnightblue" stroke="midnightblue" points="912.11,-269.85 910.85,-280.37 918.39,-272.94 912.11,-269.85"/>
</g>
<!-- Node4 -->
<g id="node4" class="node">
<title>Node4</title>
<g id="a_node4"><a xlink:href="deviceappender_8hxx.html" target="_top" xlink:title=" ">
<polygon fill="white" stroke="black" points="953.5,-224.5 953.5,-243.5 1057.5,-243.5 1057.5,-224.5 953.5,-224.5"/>
<text text-anchor="middle" x="1005.5" y="-231.5" font-family="'Souce Sans Pro', Roboto, FreeSans, sans-serif" font-size="10.00">deviceappender.hxx</text>
</a>
</g>
</g>
<!-- Node1&#45;&gt;Node4 -->
<g id="edge3" class="edge">
<title>Node1&#45;&gt;Node4</title>
<path fill="none" stroke="midnightblue" d="M931.34,-275.45C949.61,-265.48 973.92,-252.23 989.63,-243.65"/>
<polygon fill="midnightblue" stroke="midnightblue" points="929.51,-272.46 922.41,-280.32 932.86,-278.61 929.51,-272.46"/>
</g>
<!-- Node5 -->
<g id="node5" class="node">
<title>Node5</title>
<g id="a_node5"><a xlink:href="callbackappender_8h.html" target="_top" xlink:title=" ">
<polygon fill="white" stroke="black" points="1076,-224.5 1076,-243.5 1177,-243.5 1177,-224.5 1076,-224.5"/>
<text text-anchor="middle" x="1126.5" y="-231.5" font-family="'Souce Sans Pro', Roboto, FreeSans, sans-serif" font-size="10.00">callbackappender.h</text>
</a>
</g>
</g>
<!-- Node1&#45;&gt;Node5 -->
<g id="edge4" class="edge">
<title>Node1&#45;&gt;Node5</title>
<path fill="none" stroke="midnightblue" d="M949.25,-278.51C990.72,-268.33 1052.9,-253.07 1091.52,-243.59"/>
<polygon fill="midnightblue" stroke="midnightblue" points="948.31,-275.13 939.44,-280.92 949.98,-281.93 948.31,-275.13"/>
</g>
<!-- Node6 -->
<g id="node6" class="node">
<title>Node6</title>
<g id="a_node6"><a xlink:href="clfsappender_8h.html" target="_top" xlink:title=" ">
<polygon fill="white" stroke="black" points="1195.5,-224.5 1195.5,-243.5 1277.5,-243.5 1277.5,-224.5 1195.5,-224.5"/>
<text text-anchor="middle" x="1236.5" y="-231.5" font-family="'Souce Sans Pro', Roboto, FreeSans, sans-serif" font-size="10.00">clfsappender.h</text>
</a>
</g>
</g>
<!-- Node1&#45;&gt;Node6 -->
<g id="edge5" class="edge">
<title>Node1&#45;&gt;Node6</title>
<path fill="none" stroke="midnightblue" d="M949.37,-282.37C1004.34,-273.8 1102.6,-258.29 1186.5,-244 1189.37,-243.51 1192.33,-243 1195.31,-242.48"/>
<polygon fill="midnightblue" stroke="midnightblue" points="948.64,-278.94 939.29,-283.93 949.71,-285.85 948.64,-278.94"/>
</g>
<!-- Node7 -->
<g id="node7" class="node">
<title>Node7</title>
<g id="a_node7"><a xlink:href="configurator_8h.html" target="_top" xlink:title=" ">
<polygon fill="white" stroke="black" points="405,-112.5 405,-131.5 482,-131.5 482,-112.5 405,-112.5"/>
<text text-anchor="middle" x="443.5" y="-119.5" font-family="'Souce Sans Pro', Roboto, FreeSans, sans-serif" font-size="10.00">configurator.h</text>
</a>
</g>
</g>
<!-- Node1&#45;&gt;Node7 -->
<g id="edge6" class="edge">
<title>Node1&#45;&gt;Node7</title>
<path fill="none" stroke="midnightblue" d="M863.92,-287.35C781.61,-283.57 604.04,-272.3 550.5,-244 499.18,-216.87 460.89,-154.5 448.12,-131.62"/>
<polygon fill="midnightblue" stroke="midnightblue" points="863.8,-290.85 873.95,-287.8 864.11,-283.86 863.8,-290.85"/>
</g>
<!-- Node8 -->
<g id="node8" class="node">
<title>Node8</title>
<g id="a_node8"><a xlink:href="consoleappender_8h.html" target="_top" xlink:title=" ">
<polygon fill="white" stroke="black" points="528,-168.5 528,-187.5 629,-187.5 629,-168.5 528,-168.5"/>
<text text-anchor="middle" x="578.5" y="-175.5" font-family="'Souce Sans Pro', Roboto, FreeSans, sans-serif" font-size="10.00">consoleappender.h</text>
</a>
</g>
</g>
<!-- Node1&#45;&gt;Node8 -->
<g id="edge8" class="edge">
<title>Node1&#45;&gt;Node8</title>
<path fill="none" stroke="midnightblue" d="M863.46,-289.48C809.21,-288.38 714.47,-280.72 643.5,-244 617.14,-230.36 594.77,-202.23 584.51,-187.86"/>
<polygon fill="midnightblue" stroke="midnightblue" points="863.71,-292.98 873.76,-289.62 863.8,-285.98 863.71,-292.98"/>
</g>
<!-- Node9 -->
<g id="node9" class="node">
<title>Node9</title>
<g id="a_node9"><a xlink:href="fileappender_8h.html" target="_top" xlink:title=" ">
<polygon fill="white" stroke="black" points="581.5,-56.5 581.5,-75.5 659.5,-75.5 659.5,-56.5 581.5,-56.5"/>
<text text-anchor="middle" x="620.5" y="-63.5" font-family="'Souce Sans Pro', Roboto, FreeSans, sans-serif" font-size="10.00">fileappender.h</text>
</a>
</g>
</g>
<!-- Node1&#45;&gt;Node9 -->
<g id="edge10" class="edge">
<title>Node1&#45;&gt;Node9</title>
<path fill="none" stroke="midnightblue" d="M863.98,-282.15C811.84,-271.45 724.48,-245.68 676.5,-188 646.45,-151.87 628.85,-96.96 622.84,-75.77"/>
<polygon fill="midnightblue" stroke="midnightblue" points="863.43,-285.61 873.92,-284.09 864.78,-278.74 863.43,-285.61"/>
</g>
<!-- Node10 -->
<g id="node10" class="node">
<title>Node10</title>
<g id="a_node10"><a xlink:href="hierarchylocker_8h.html" target="_top" xlink:title=" ">
<polygon fill="white" stroke="black" points="500,-112.5 500,-131.5 591,-131.5 591,-112.5 500,-112.5"/>
<text text-anchor="middle" x="545.5" y="-119.5" font-family="'Souce Sans Pro', Roboto, FreeSans, sans-serif" font-size="10.00">hierarchylocker.h</text>
</a>
</g>
</g>
<!-- Node1&#45;&gt;Node10 -->
<g id="edge12" class="edge">
<title>Node1&#45;&gt;Node10</title>
<path fill="none" stroke="midnightblue" d="M863.58,-287.48C805.36,-284.29 698.84,-274.43 613.5,-244 567.34,-227.54 542.81,-230.56 518.5,-188 507.59,-168.9 525.37,-144.53 536.89,-131.74"/>
<polygon fill="midnightblue" stroke="midnightblue" points="863.71,-290.99 873.87,-288 864.06,-284 863.71,-290.99"/>
</g>
<!-- Node11 -->
<g id="node11" class="node">
<title>Node11</title>
<g id="a_node11"><a xlink:href="log4judpappender_8h.html" target="_top" xlink:title=" ">
<polygon fill="white" stroke="black" points="1296,-224.5 1296,-243.5 1399,-243.5 1399,-224.5 1296,-224.5"/>
<text text-anchor="middle" x="1347.5" y="-231.5" font-family="'Souce Sans Pro', Roboto, FreeSans, sans-serif" font-size="10.00">log4judpappender.h</text>
</a>
</g>
</g>
<!-- Node1&#45;&gt;Node11 -->
<g id="edge14" class="edge">
<title>Node1&#45;&gt;Node11</title>
<path fill="none" stroke="midnightblue" d="M949.32,-284.33C1019.73,-276.57 1164.36,-260.24 1286.5,-244 1289.58,-243.59 1292.74,-243.16 1295.93,-242.71"/>
<polygon fill="midnightblue" stroke="midnightblue" points="948.63,-280.89 939.07,-285.46 949.39,-287.85 948.63,-280.89"/>
</g>
<!-- Node12 -->
<g id="node12" class="node">
<title>Node12</title>
<g id="a_node12"><a xlink:href="msttsappender_8h.html" target="_top" xlink:title=" ">
<polygon fill="white" stroke="black" points="1417,-224.5 1417,-243.5 1508,-243.5 1508,-224.5 1417,-224.5"/>
<text text-anchor="middle" x="1462.5" y="-231.5" font-family="'Souce Sans Pro', Roboto, FreeSans, sans-serif" font-size="10.00">msttsappender.h</text>
</a>
</g>
</g>
<!-- Node1&#45;&gt;Node12 -->
<g id="edge15" class="edge">
<title>Node1&#45;&gt;Node12</title>
<path fill="none" stroke="midnightblue" d="M949.18,-286.27C1035.93,-280.48 1238.98,-265.69 1408.5,-244 1411.23,-243.65 1414.04,-243.26 1416.87,-242.85"/>
<polygon fill="midnightblue" stroke="midnightblue" points="948.94,-282.78 939.19,-286.93 949.4,-289.76 948.94,-282.78"/>
</g>
<!-- Node13 -->
<g id="node13" class="node">
<title>Node13</title>
<g id="a_node13"><a xlink:href="nteventlogappender_8h.html" target="_top" xlink:title=" ">
<polygon fill="white" stroke="black" points="1526.5,-224.5 1526.5,-243.5 1636.5,-243.5 1636.5,-224.5 1526.5,-224.5"/>
<text text-anchor="middle" x="1581.5" y="-231.5" font-family="'Souce Sans Pro', Roboto, FreeSans, sans-serif" font-size="10.00">nteventlogappender.h</text>
</a>
</g>
</g>
<!-- Node1&#45;&gt;Node13 -->
<g id="edge16" class="edge">
<title>Node1&#45;&gt;Node13</title>
<path fill="none" stroke="midnightblue" d="M949.3,-286.82C1049.06,-281.54 1304.74,-266.77 1517.5,-244 1520.4,-243.69 1523.37,-243.35 1526.37,-242.99"/>
<polygon fill="midnightblue" stroke="midnightblue" points="948.83,-283.34 939.02,-287.36 949.19,-290.34 948.83,-283.34"/>
</g>
<!-- Node14 -->
<g id="node14" class="node">
<title>Node14</title>
<g id="a_node14"><a xlink:href="nullappender_8h.html" target="_top" xlink:title=" ">
<polygon fill="white" stroke="black" points="685.5,-168.5 685.5,-187.5 765.5,-187.5 765.5,-168.5 685.5,-168.5"/>
<text text-anchor="middle" x="725.5" y="-175.5" font-family="'Souce Sans Pro', Roboto, FreeSans, sans-serif" font-size="10.00">nullappender.h</text>
</a>
</g>
</g>
<!-- Node1&#45;&gt;Node14 -->
<g id="edge17" class="edge">
<title>Node1&#45;&gt;Node14</title>
<path fill="none" stroke="midnightblue" d="M863.79,-279.98C837.79,-273.07 804.82,-261.66 779.5,-244 757.36,-228.56 739.15,-201.73 730.66,-187.87"/>
<polygon fill="midnightblue" stroke="midnightblue" points="863.19,-283.44 873.74,-282.5 864.91,-276.66 863.19,-283.44"/>
</g>
<!-- Node15 -->
<g id="node15" class="node">
<title>Node15</title>
<g id="a_node15"><a xlink:href="qt4debugappender_8h.html" target="_top" xlink:title=" ">
<polygon fill="white" stroke="black" points="1655,-224.5 1655,-243.5 1762,-243.5 1762,-224.5 1655,-224.5"/>
<text text-anchor="middle" x="1708.5" y="-231.5" font-family="'Souce Sans Pro', Roboto, FreeSans, sans-serif" font-size="10.00">qt4debugappender.h</text>
</a>
</g>
</g>
<!-- Node1&#45;&gt;Node15 -->
<g id="edge19" class="edge">
<title>Node1&#45;&gt;Node15</title>
<path fill="none" stroke="midnightblue" d="M949.4,-287.6C1063.13,-283.64 1381.68,-270.83 1645.5,-244 1648.58,-243.69 1651.74,-243.33 1654.92,-242.96"/>
<polygon fill="midnightblue" stroke="midnightblue" points="949.23,-284.11 939.36,-287.95 949.47,-291.1 949.23,-284.11"/>
</g>
<!-- Node16 -->
<g id="node16" class="node">
<title>Node16</title>
<g id="a_node16"><a xlink:href="qt5debugappender_8h.html" target="_top" xlink:title=" ">
<polygon fill="white" stroke="black" points="1780,-224.5 1780,-243.5 1887,-243.5 1887,-224.5 1780,-224.5"/>
<text text-anchor="middle" x="1833.5" y="-231.5" font-family="'Souce Sans Pro', Roboto, FreeSans, sans-serif" font-size="10.00">qt5debugappender.h</text>
</a>
</g>
</g>
<!-- Node1&#45;&gt;Node16 -->
<g id="edge20" class="edge">
<title>Node1&#45;&gt;Node16</title>
<path fill="none" stroke="midnightblue" d="M949.2,-288.17C1075.27,-285.43 1456.72,-274.97 1771.5,-244 1774.21,-243.73 1776.97,-243.43 1779.77,-243.11"/>
<polygon fill="midnightblue" stroke="midnightblue" points="949.1,-284.67 939.18,-288.38 949.25,-291.67 949.1,-284.67"/>
</g>
<!-- Node17 -->
<g id="node17" class="node">
<title>Node17</title>
<g id="a_node17"><a xlink:href="socketappender_8h.html" target="_top" xlink:title=" ">
<polygon fill="white" stroke="black" points="716,-56.5 716,-75.5 811,-75.5 811,-56.5 716,-56.5"/>
<text text-anchor="middle" x="763.5" y="-63.5" font-family="'Souce Sans Pro', Roboto, FreeSans, sans-serif" font-size="10.00">socketappender.h</text>
</a>
</g>
</g>
<!-- Node1&#45;&gt;Node17 -->
<g id="edge21" class="edge">
<title>Node1&#45;&gt;Node17</title>
<path fill="none" stroke="midnightblue" d="M890.09,-273.11C881.45,-264.61 870.75,-253.88 861.5,-244 838.91,-219.85 829.84,-216.16 812.5,-188 788.5,-149.01 771.87,-96.22 765.92,-75.68"/>
<polygon fill="midnightblue" stroke="midnightblue" points="887.76,-275.72 897.36,-280.21 892.65,-270.72 887.76,-275.72"/>
</g>
<!-- Node18 -->
<g id="node18" class="node">
<title>Node18</title>
<g id="a_node18"><a xlink:href="appenderattachable_8h.html" target="_top" xlink:title=" ">
<polygon fill="white" stroke="black" points="262.5,-224.5 262.5,-243.5 372.5,-243.5 372.5,-224.5 262.5,-224.5"/>
<text text-anchor="middle" x="317.5" y="-231.5" font-family="'Souce Sans Pro', Roboto, FreeSans, sans-serif" font-size="10.00">appenderattachable.h</text>
</a>
</g>
</g>
<!-- Node1&#45;&gt;Node18 -->
<g id="edge23" class="edge">
<title>Node1&#45;&gt;Node18</title>
<path fill="none" stroke="midnightblue" d="M863.8,-285.09C759.08,-275.48 489.55,-250.77 372.79,-240.07"/>
<polygon fill="midnightblue" stroke="midnightblue" points="863.72,-288.59 873.99,-286.02 864.36,-281.62 863.72,-288.59"/>
</g>
<!-- Node26 -->
<g id="node26" class="node">
<title>Node26</title>
<g id="a_node26"><a xlink:href="factory_8h.html" target="_top" xlink:title=" ">
<polygon fill="white" stroke="black" points="821.5,-168.5 821.5,-187.5 877.5,-187.5 877.5,-168.5 821.5,-168.5"/>
<text text-anchor="middle" x="849.5" y="-175.5" font-family="'Souce Sans Pro', Roboto, FreeSans, sans-serif" font-size="10.00">factory.h</text>
</a>
</g>
</g>
<!-- Node1&#45;&gt;Node26 -->
<g id="edge39" class="edge">
<title>Node1&#45;&gt;Node26</title>
<path fill="none" stroke="midnightblue" d="M892.47,-272.23C886.1,-264.07 878.82,-253.9 873.5,-244 863.25,-224.93 855.55,-200.54 851.88,-187.74"/>
<polygon fill="midnightblue" stroke="midnightblue" points="889.88,-274.6 898.88,-280.19 895.33,-270.21 889.88,-274.6"/>
</g>
<!-- Node27 -->
<g id="node27" class="node">
<title>Node27</title>
<g id="a_node27"><a xlink:href="syslogappender_8h.html" target="_top" xlink:title=" ">
<polygon fill="white" stroke="black" points="867.5,-56.5 867.5,-75.5 961.5,-75.5 961.5,-56.5 867.5,-56.5"/>
<text text-anchor="middle" x="914.5" y="-63.5" font-family="'Souce Sans Pro', Roboto, FreeSans, sans-serif" font-size="10.00">syslogappender.h</text>
</a>
</g>
</g>
<!-- Node1&#45;&gt;Node27 -->
<g id="edge41" class="edge">
<title>Node1&#45;&gt;Node27</title>
<path fill="none" stroke="midnightblue" d="M907.17,-270.3C908.82,-224.64 912.99,-108.85 914.18,-75.88"/>
<polygon fill="midnightblue" stroke="midnightblue" points="903.68,-270.18 906.81,-280.3 910.67,-270.43 903.68,-270.18"/>
</g>
<!-- Node28 -->
<g id="node28" class="node">
<title>Node28</title>
<g id="a_node28"><a xlink:href="win32consoleappender_8h.html" target="_top" xlink:title=" ">
<polygon fill="white" stroke="black" points="1905.5,-224.5 1905.5,-243.5 2031.5,-243.5 2031.5,-224.5 1905.5,-224.5"/>
<text text-anchor="middle" x="1968.5" y="-231.5" font-family="'Souce Sans Pro', Roboto, FreeSans, sans-serif" font-size="10.00">win32consoleappender.h</text>
</a>
</g>
</g>
<!-- Node1&#45;&gt;Node28 -->
<g id="edge43" class="edge">
<title>Node1&#45;&gt;Node28</title>
<path fill="none" stroke="midnightblue" d="M949.15,-288.26C1086.65,-285.63 1530.59,-275.14 1896.5,-244 1899.39,-243.75 1902.34,-243.48 1905.31,-243.18"/>
<polygon fill="midnightblue" stroke="midnightblue" points="948.97,-284.77 939.04,-288.45 949.1,-291.77 948.97,-284.77"/>
</g>
<!-- Node2&#45;&gt;Node3 -->
<g id="edge2" class="edge">
<title>Node2&#45;&gt;Node3</title>
<path fill="none" stroke="midnightblue" d="M55.1,-103.37C64.49,-88.02 80.32,-66.6 100.5,-56 173.35,-17.72 427.45,-11.94 519.7,-11.12"/>
<polygon fill="midnightblue" stroke="midnightblue" points="51.85,-102 49.87,-112.41 57.91,-105.51 51.85,-102"/>
</g>
<!-- Node7&#45;&gt;Node3 -->
<g id="edge7" class="edge">
<title>Node7&#45;&gt;Node3</title>
<path fill="none" stroke="midnightblue" d="M459.29,-105.21C482.87,-81.63 526.47,-38.03 544.91,-19.59"/>
<polygon fill="midnightblue" stroke="midnightblue" points="456.73,-102.82 452.13,-112.37 461.68,-107.77 456.73,-102.82"/>
</g>
<!-- Node8&#45;&gt;Node3 -->
<g id="edge9" class="edge">
<title>Node8&#45;&gt;Node3</title>
<path fill="none" stroke="midnightblue" d="M590.48,-159.27C597.8,-146.19 604.82,-127.96 599.5,-112 593.18,-93.03 581.45,-93.89 572.5,-76 563.03,-57.07 557.48,-32.63 555.03,-19.78"/>
<polygon fill="midnightblue" stroke="midnightblue" points="587.27,-157.8 585.02,-168.15 593.24,-161.46 587.27,-157.8"/>
</g>
<!-- Node9&#45;&gt;Node3 -->
<g id="edge11" class="edge">
<title>Node9&#45;&gt;Node3</title>
<path fill="none" stroke="midnightblue" d="M601.67,-49.82C589.66,-40.15 574.53,-27.95 564.46,-19.83"/>
<polygon fill="midnightblue" stroke="midnightblue" points="599.75,-52.77 609.74,-56.32 604.15,-47.32 599.75,-52.77"/>
</g>
<!-- Node14&#45;&gt;Node3 -->
<g id="edge18" class="edge">
<title>Node14&#45;&gt;Node3</title>
<path fill="none" stroke="midnightblue" d="M721.41,-158.61C714.7,-132.43 698.93,-84.45 668.5,-56 645.87,-34.84 612.15,-23.23 587.06,-17.13"/>
<polygon fill="midnightblue" stroke="midnightblue" points="718.02,-159.47 723.75,-168.38 724.83,-157.84 718.02,-159.47"/>
</g>
<!-- Node17&#45;&gt;Node3 -->
<g id="edge22" class="edge">
<title>Node17&#45;&gt;Node3</title>
<path fill="none" stroke="midnightblue" d="M720.31,-53.89C680.65,-43.7 622.73,-28.8 586.62,-19.52"/>
<polygon fill="midnightblue" stroke="midnightblue" points="719.67,-57.34 730.22,-56.44 721.41,-50.56 719.67,-57.34"/>
</g>
<!-- Node19 -->
<g id="node19" class="node">
<title>Node19</title>
<g id="a_node19"><a xlink:href="appenderattachableimpl_8h.html" target="_top" xlink:title=" ">
<polygon fill="white" stroke="black" points="80,-168.5 80,-187.5 209,-187.5 209,-168.5 80,-168.5"/>
<text text-anchor="middle" x="144.5" y="-175.5" font-family="'Souce Sans Pro', Roboto, FreeSans, sans-serif" font-size="10.00">appenderattachableimpl.h</text>
</a>
</g>
</g>
<!-- Node18&#45;&gt;Node19 -->
<g id="edge24" class="edge">
<title>Node18&#45;&gt;Node19</title>
<path fill="none" stroke="midnightblue" d="M280.45,-221.44C247.84,-211.26 201.09,-196.66 171.78,-187.52"/>
<polygon fill="midnightblue" stroke="midnightblue" points="279.5,-224.8 290.09,-224.44 281.58,-218.12 279.5,-224.8"/>
</g>
<!-- Node22 -->
<g id="node22" class="node">
<title>Node22</title>
<g id="a_node22"><a xlink:href="logger_8h.html" target="_top" xlink:title="This header defines the Logger class and the logging macros.">
<polygon fill="white" stroke="black" points="291.5,-168.5 291.5,-187.5 343.5,-187.5 343.5,-168.5 291.5,-168.5"/>
<text text-anchor="middle" x="317.5" y="-175.5" font-family="'Souce Sans Pro', Roboto, FreeSans, sans-serif" font-size="10.00">logger.h</text>
</a>
</g>
</g>
<!-- Node18&#45;&gt;Node22 -->
<g id="edge28" class="edge">
<title>Node18&#45;&gt;Node22</title>
<path fill="none" stroke="midnightblue" d="M317.5,-213.8C317.5,-204.91 317.5,-194.78 317.5,-187.75"/>
<polygon fill="midnightblue" stroke="midnightblue" points="314,-214.08 317.5,-224.08 321,-214.08 314,-214.08"/>
</g>
<!-- Node19&#45;&gt;Node2 -->
<g id="edge25" class="edge">
<title>Node19&#45;&gt;Node2</title>
<path fill="none" stroke="midnightblue" d="M119.66,-163.45C101.39,-153.48 77.08,-140.23 61.37,-131.65"/>
<polygon fill="midnightblue" stroke="midnightblue" points="118.14,-166.61 128.59,-168.32 121.49,-160.46 118.14,-166.61"/>
</g>
<!-- Node20 -->
<g id="node20" class="node">
<title>Node20</title>
<g id="a_node20"><a xlink:href="loggerimpl_8h.html" target="_top" xlink:title=" ">
<polygon fill="white" stroke="black" points="109,-112.5 109,-131.5 180,-131.5 180,-112.5 109,-112.5"/>
<text text-anchor="middle" x="144.5" y="-119.5" font-family="'Souce Sans Pro', Roboto, FreeSans, sans-serif" font-size="10.00">loggerimpl.h</text>
</a>
</g>
</g>
<!-- Node19&#45;&gt;Node20 -->
<g id="edge26" class="edge">
<title>Node19&#45;&gt;Node20</title>
<path fill="none" stroke="midnightblue" d="M144.5,-157.8C144.5,-148.91 144.5,-138.78 144.5,-131.75"/>
<polygon fill="midnightblue" stroke="midnightblue" points="141,-158.08 144.5,-168.08 148,-158.08 141,-158.08"/>
</g>
<!-- Node21 -->
<g id="node21" class="node">
<title>Node21</title>
<g id="a_node21"><a xlink:href="rootlogger_8h.html" target="_top" xlink:title=" ">
<polygon fill="white" stroke="black" points="109.5,-56.5 109.5,-75.5 179.5,-75.5 179.5,-56.5 109.5,-56.5"/>
<text text-anchor="middle" x="144.5" y="-63.5" font-family="'Souce Sans Pro', Roboto, FreeSans, sans-serif" font-size="10.00">rootlogger.h</text>
</a>
</g>
</g>
<!-- Node20&#45;&gt;Node21 -->
<g id="edge27" class="edge">
<title>Node20&#45;&gt;Node21</title>
<path fill="none" stroke="midnightblue" d="M144.5,-101.8C144.5,-92.91 144.5,-82.78 144.5,-75.75"/>
<polygon fill="midnightblue" stroke="midnightblue" points="141,-102.08 144.5,-112.08 148,-102.08 141,-102.08"/>
</g>
<!-- Node22&#45;&gt;Node3 -->
<g id="edge33" class="edge">
<title>Node22&#45;&gt;Node3</title>
<path fill="none" stroke="midnightblue" d="M293.94,-163.12C257.66,-140.06 195.47,-92.76 227.5,-56 265.18,-12.77 444.23,-9.67 519.77,-10.34"/>
<polygon fill="midnightblue" stroke="midnightblue" points="292.19,-166.15 302.54,-168.44 295.88,-160.2 292.19,-166.15"/>
</g>
<!-- Node22&#45;&gt;Node7 -->
<g id="edge29" class="edge">
<title>Node22&#45;&gt;Node7</title>
<path fill="none" stroke="midnightblue" d="M346.66,-164.5C370.28,-154.38 402.93,-140.39 423.63,-131.52"/>
<polygon fill="midnightblue" stroke="midnightblue" points="345.28,-161.29 337.47,-168.44 348.04,-167.72 345.28,-161.29"/>
</g>
<!-- Node22&#45;&gt;Node10 -->
<g id="edge32" class="edge">
<title>Node22&#45;&gt;Node10</title>
<path fill="none" stroke="midnightblue" d="M353.62,-168.45C396.31,-158.33 466.95,-141.61 509.57,-131.51"/>
<polygon fill="midnightblue" stroke="midnightblue" points="352.58,-165.09 343.65,-170.81 354.19,-171.91 352.58,-165.09"/>
</g>
<!-- Node23 -->
<g id="node23" class="node">
<title>Node23</title>
<g id="a_node23"><a xlink:href="hierarchy_8h.html" target="_top" xlink:title=" ">
<polygon fill="white" stroke="black" points="236.5,-56.5 236.5,-75.5 300.5,-75.5 300.5,-56.5 236.5,-56.5"/>
<text text-anchor="middle" x="268.5" y="-63.5" font-family="'Souce Sans Pro', Roboto, FreeSans, sans-serif" font-size="10.00">hierarchy.h</text>
</a>
</g>
</g>
<!-- Node22&#45;&gt;Node23 -->
<g id="edge30" class="edge">
<title>Node22&#45;&gt;Node23</title>
<path fill="none" stroke="midnightblue" d="M309.12,-159.35C305.22,-151.08 300.56,-141.06 296.5,-132 287.55,-112.04 277.51,-88.41 272.22,-75.87"/>
<polygon fill="midnightblue" stroke="midnightblue" points="305.96,-160.86 313.4,-168.41 312.29,-157.87 305.96,-160.86"/>
</g>
<!-- Node24 -->
<g id="node24" class="node">
<title>Node24</title>
<g id="a_node24"><a xlink:href="loggingmacros_8h.html" target="_top" xlink:title="This header defines the logging macros.">
<polygon fill="white" stroke="black" points="318.5,-56.5 318.5,-75.5 408.5,-75.5 408.5,-56.5 318.5,-56.5"/>
<text text-anchor="middle" x="363.5" y="-63.5" font-family="'Souce Sans Pro', Roboto, FreeSans, sans-serif" font-size="10.00">loggingmacros.h</text>
</a>
</g>
</g>
<!-- Node22&#45;&gt;Node24 -->
<g id="edge34" class="edge">
<title>Node22&#45;&gt;Node24</title>
<path fill="none" stroke="midnightblue" d="M307.47,-158.94C301.38,-145.43 296.1,-126.81 303.5,-112 311.94,-95.11 330.07,-82.92 344.2,-75.52"/>
<polygon fill="midnightblue" stroke="midnightblue" points="304.46,-160.76 312.07,-168.13 310.72,-157.62 304.46,-160.76"/>
</g>
<!-- Node25 -->
<g id="node25" class="node">
<title>Node25</title>
<g id="a_node25"><a xlink:href="tracelogger_8h.html" target="_top" xlink:title=" ">
<polygon fill="white" stroke="black" points="312.5,-112.5 312.5,-131.5 386.5,-131.5 386.5,-112.5 312.5,-112.5"/>
<text text-anchor="middle" x="349.5" y="-119.5" font-family="'Souce Sans Pro', Roboto, FreeSans, sans-serif" font-size="10.00">tracelogger.h</text>
</a>
</g>
</g>
<!-- Node22&#45;&gt;Node25 -->
<g id="edge36" class="edge">
<title>Node22&#45;&gt;Node25</title>
<path fill="none" stroke="midnightblue" d="M328,-159.27C333.47,-150.05 339.92,-139.17 344.31,-131.75"/>
<polygon fill="midnightblue" stroke="midnightblue" points="324.87,-157.7 322.78,-168.08 330.89,-161.26 324.87,-157.7"/>
</g>
<!-- Node23&#45;&gt;Node3 -->
<g id="edge31" class="edge">
<title>Node23&#45;&gt;Node3</title>
<path fill="none" stroke="midnightblue" d="M310.54,-55.84C391.28,-39.65 474.61,-24.76 519.88,-16.83"/>
<polygon fill="midnightblue" stroke="midnightblue" points="309.82,-52.42 300.71,-57.82 311.2,-59.28 309.82,-52.42"/>
</g>
<!-- Node24&#45;&gt;Node3 -->
<g id="edge35" class="edge">
<title>Node24&#45;&gt;Node3</title>
<path fill="none" stroke="midnightblue" d="M403.26,-53.7C439.12,-43.51 491.07,-28.74 523.53,-19.52"/>
<polygon fill="midnightblue" stroke="midnightblue" points="402.27,-50.34 393.61,-56.44 404.18,-57.08 402.27,-50.34"/>
</g>
<!-- Node25&#45;&gt;Node3 -->
<g id="edge37" class="edge">
<title>Node25&#45;&gt;Node3</title>
<path fill="none" stroke="midnightblue" d="M374.37,-107.59C416.84,-84.69 502.18,-38.67 537.57,-19.59"/>
<polygon fill="midnightblue" stroke="midnightblue" points="372.65,-104.54 365.51,-112.37 375.97,-110.7 372.65,-104.54"/>
</g>
<!-- Node25&#45;&gt;Node24 -->
<g id="edge38" class="edge">
<title>Node25&#45;&gt;Node24</title>
<path fill="none" stroke="midnightblue" d="M354.32,-102.4C356.67,-93.36 359.37,-82.94 361.23,-75.75"/>
<polygon fill="midnightblue" stroke="midnightblue" points="350.93,-101.52 351.81,-112.08 357.71,-103.28 350.93,-101.52"/>
</g>
<!-- Node26&#45;&gt;Node3 -->
<g id="edge40" class="edge">
<title>Node26&#45;&gt;Node3</title>
<path fill="none" stroke="midnightblue" d="M850.7,-158.09C851.27,-131.25 847.98,-82.41 819.5,-56 786.27,-25.19 651.3,-15.25 587.38,-12.23"/>
<polygon fill="midnightblue" stroke="midnightblue" points="847.19,-158.28 850.26,-168.42 854.18,-158.58 847.19,-158.28"/>
</g>
<!-- Node27&#45;&gt;Node3 -->
<g id="edge42" class="edge">
<title>Node27&#45;&gt;Node3</title>
<path fill="none" stroke="midnightblue" d="M857.4,-56.46C781.21,-45.06 648.77,-25.25 587,-16.01"/>
<polygon fill="midnightblue" stroke="midnightblue" points="856.9,-59.92 867.31,-57.94 857.93,-53 856.9,-59.92"/>
</g>
</g>
</svg>
