<?xml version="1.0" encoding="UTF-8" standalone="no"?>
<!DOCTYPE svg PUBLIC "-//W3C//DTD SVG 1.1//EN"
 "http://www.w3.org/Graphics/SVG/1.1/DTD/svg11.dtd">
<!-- Generated by graphviz version 2.43.0 (0)
 -->
<!-- Title: appenderattachable.h Pages: 1 -->
<svg width="1263pt" height="431pt"
 viewBox="0.00 0.00 1262.97 431.00" xmlns="http://www.w3.org/2000/svg" xmlns:xlink="http://www.w3.org/1999/xlink">
<g id="graph0" class="graph" transform="scale(1 1) rotate(0) translate(4 427)">
<title>appenderattachable.h</title>
<polygon fill="white" stroke="transparent" points="-4,4 -4,-427 1258.97,-427 1258.97,4 -4,4"/>
<!-- Node1 -->
<g id="node1" class="node">
<title>Node1</title>
<g id="a_node1"><a xlink:title=" ">
<polygon fill="#bfbfbf" stroke="black" points="408,-403.5 408,-422.5 518,-422.5 518,-403.5 408,-403.5"/>
<text text-anchor="middle" x="463" y="-410.5" font-family="'Souce Sans Pro', Roboto, FreeSans, sans-serif" font-size="10.00">appenderattachable.h</text>
</a>
</g>
</g>
<!-- Node2 -->
<g id="node2" class="node">
<title>Node2</title>
<g id="a_node2"><a xlink:href="config_8hxx.html" target="_top" xlink:title=" ">
<polygon fill="white" stroke="black" points="607.5,-67.5 607.5,-86.5 716.5,-86.5 716.5,-67.5 607.5,-67.5"/>
<text text-anchor="middle" x="662" y="-74.5" font-family="'Souce Sans Pro', Roboto, FreeSans, sans-serif" font-size="10.00">log4cplus/config.hxx</text>
</a>
</g>
</g>
<!-- Node1&#45;&gt;Node2 -->
<g id="edge1" class="edge">
<title>Node1&#45;&gt;Node2</title>
<path fill="none" stroke="midnightblue" d="M407.61,-410.43C284.72,-405.44 0,-384.93 0,-302 0,-302 0,-302 0,-188 0,-122.61 69,-140.51 132,-123 217.8,-99.15 475.17,-85.69 596.87,-80.51"/>
<polygon fill="midnightblue" stroke="midnightblue" points="597.32,-83.99 607.16,-80.08 597.02,-77 597.32,-83.99"/>
</g>
<!-- Node5 -->
<g id="node5" class="node">
<title>Node5</title>
<g id="a_node5"><a xlink:href="appender_8h.html" target="_top" xlink:title=" ">
<polygon fill="white" stroke="black" points="407,-347.5 407,-366.5 519,-366.5 519,-347.5 407,-347.5"/>
<text text-anchor="middle" x="463" y="-354.5" font-family="'Souce Sans Pro', Roboto, FreeSans, sans-serif" font-size="10.00">log4cplus/appender.h</text>
</a>
</g>
</g>
<!-- Node1&#45;&gt;Node5 -->
<g id="edge4" class="edge">
<title>Node1&#45;&gt;Node5</title>
<path fill="none" stroke="midnightblue" d="M463,-403.08C463,-396.01 463,-385.86 463,-376.99"/>
<polygon fill="midnightblue" stroke="midnightblue" points="466.5,-376.75 463,-366.75 459.5,-376.75 466.5,-376.75"/>
</g>
<!-- Node8 -->
<g id="node8" class="node">
<title>Node8</title>
<g id="a_node8"><a xlink:title=" ">
<polygon fill="white" stroke="#bfbfbf" points="1079,-179.5 1079,-198.5 1123,-198.5 1123,-179.5 1079,-179.5"/>
<text text-anchor="middle" x="1101" y="-186.5" font-family="'Souce Sans Pro', Roboto, FreeSans, sans-serif" font-size="10.00">vector</text>
</a>
</g>
</g>
<!-- Node1&#45;&gt;Node8 -->
<g id="edge55" class="edge">
<title>Node1&#45;&gt;Node8</title>
<path fill="none" stroke="midnightblue" d="M518.23,-410.19C682.74,-403.46 1163.55,-373.8 1251,-255 1256.27,-247.84 1256.31,-242.13 1251,-235 1249.18,-232.56 1176.46,-211.5 1132.95,-199.07"/>
<polygon fill="midnightblue" stroke="midnightblue" points="1133.68,-195.64 1123.11,-196.27 1131.76,-202.37 1133.68,-195.64"/>
</g>
<!-- Node9 -->
<g id="node9" class="node">
<title>Node9</title>
<g id="a_node9"><a xlink:href="tstring_8h.html" target="_top" xlink:title=" ">
<polygon fill="white" stroke="black" points="743.5,-179.5 743.5,-198.5 842.5,-198.5 842.5,-179.5 743.5,-179.5"/>
<text text-anchor="middle" x="793" y="-186.5" font-family="'Souce Sans Pro', Roboto, FreeSans, sans-serif" font-size="10.00">log4cplus/tstring.h</text>
</a>
</g>
</g>
<!-- Node1&#45;&gt;Node9 -->
<g id="edge53" class="edge">
<title>Node1&#45;&gt;Node9</title>
<path fill="none" stroke="midnightblue" d="M518.16,-406.86C601.18,-395.74 755.1,-361.13 817,-255 825.95,-239.66 816.59,-220.39 807.07,-206.83"/>
<polygon fill="midnightblue" stroke="midnightblue" points="809.82,-204.67 800.97,-198.84 804.25,-208.91 809.82,-204.67"/>
</g>
<!-- Node19 -->
<g id="node19" class="node">
<title>Node19</title>
<g id="a_node19"><a xlink:href="pointer_8h.html" target="_top" xlink:title=" ">
<polygon fill="white" stroke="black" points="160,-235.5 160,-254.5 298,-254.5 298,-235.5 160,-235.5"/>
<text text-anchor="middle" x="229" y="-242.5" font-family="'Souce Sans Pro', Roboto, FreeSans, sans-serif" font-size="10.00">log4cplus/helpers/pointer.h</text>
</a>
</g>
</g>
<!-- Node1&#45;&gt;Node19 -->
<g id="edge54" class="edge">
<title>Node1&#45;&gt;Node19</title>
<path fill="none" stroke="midnightblue" d="M441.09,-403.49C404.67,-388.62 330.6,-355.23 279,-311 263.01,-297.3 248.81,-277.74 239.67,-263.66"/>
<polygon fill="midnightblue" stroke="midnightblue" points="242.47,-261.54 234.19,-254.93 236.54,-265.26 242.47,-261.54"/>
</g>
<!-- Node3 -->
<g id="node3" class="node">
<title>Node3</title>
<g id="a_node3"><a xlink:href="win32_8h.html" target="_top" xlink:title=" ">
<polygon fill="white" stroke="black" points="525,-6 525,-25 653,-25 653,-6 525,-6"/>
<text text-anchor="middle" x="589" y="-13" font-family="'Souce Sans Pro', Roboto, FreeSans, sans-serif" font-size="10.00">log4cplus/config/win32.h</text>
</a>
</g>
</g>
<!-- Node2&#45;&gt;Node3 -->
<g id="edge2" class="edge">
<title>Node2&#45;&gt;Node3</title>
<path fill="none" stroke="midnightblue" d="M651.54,-67.48C640.05,-58.11 621.37,-42.88 607.41,-31.51"/>
<polygon fill="midnightblue" stroke="midnightblue" points="609.4,-28.61 599.44,-25.01 604.98,-34.04 609.4,-28.61"/>
</g>
<!-- Node4 -->
<g id="node4" class="node">
<title>Node4</title>
<g id="a_node4"><a xlink:href="thread-config_8h.html" target="_top" xlink:title=" ">
<polygon fill="white" stroke="black" points="671,-0.5 671,-30.5 799,-30.5 799,-0.5 671,-0.5"/>
<text text-anchor="start" x="679" y="-18.5" font-family="'Souce Sans Pro', Roboto, FreeSans, sans-serif" font-size="10.00">log4cplus/helpers/thread</text>
<text text-anchor="middle" x="735" y="-7.5" font-family="'Souce Sans Pro', Roboto, FreeSans, sans-serif" font-size="10.00">&#45;config.h</text>
</a>
</g>
</g>
<!-- Node2&#45;&gt;Node4 -->
<g id="edge3" class="edge">
<title>Node2&#45;&gt;Node4</title>
<path fill="none" stroke="midnightblue" d="M672.46,-67.48C682.16,-59.57 696.99,-47.48 709.77,-37.07"/>
<polygon fill="midnightblue" stroke="midnightblue" points="712.26,-39.55 717.8,-30.52 707.83,-34.13 712.26,-39.55"/>
</g>
<!-- Node5&#45;&gt;Node2 -->
<g id="edge5" class="edge">
<title>Node5&#45;&gt;Node2</title>
<path fill="none" stroke="midnightblue" d="M406.56,-353.18C290.95,-345.87 38,-321.26 38,-246 38,-246 38,-246 38,-188 38,-178.45 -40.89,-180.38 213,-123 347.51,-92.6 509.33,-82.73 597.31,-79.53"/>
<polygon fill="midnightblue" stroke="midnightblue" points="597.53,-83.03 607.4,-79.18 597.29,-76.03 597.53,-83.03"/>
</g>
<!-- Node6 -->
<g id="node6" class="node">
<title>Node6</title>
<g id="a_node6"><a xlink:href="layout_8h.html" target="_top" xlink:title=" ">
<polygon fill="white" stroke="black" points="916,-291.5 916,-310.5 1014,-310.5 1014,-291.5 916,-291.5"/>
<text text-anchor="middle" x="965" y="-298.5" font-family="'Souce Sans Pro', Roboto, FreeSans, sans-serif" font-size="10.00">log4cplus/layout.h</text>
</a>
</g>
</g>
<!-- Node5&#45;&gt;Node6 -->
<g id="edge6" class="edge">
<title>Node5&#45;&gt;Node6</title>
<path fill="none" stroke="midnightblue" d="M519.12,-349.96C614.75,-339.68 808.38,-318.85 905.96,-308.35"/>
<polygon fill="midnightblue" stroke="midnightblue" points="906.38,-311.83 915.95,-307.28 905.64,-304.87 906.38,-311.83"/>
</g>
<!-- Node7 -->
<g id="node7" class="node">
<title>Node7</title>
<g id="a_node7"><a xlink:href="loglevel_8h.html" target="_top" xlink:title="This header defines the LogLevel type.">
<polygon fill="white" stroke="black" points="704,-235.5 704,-254.5 808,-254.5 808,-235.5 704,-235.5"/>
<text text-anchor="middle" x="756" y="-242.5" font-family="'Souce Sans Pro', Roboto, FreeSans, sans-serif" font-size="10.00">log4cplus/loglevel.h</text>
</a>
</g>
</g>
<!-- Node5&#45;&gt;Node7 -->
<g id="edge29" class="edge">
<title>Node5&#45;&gt;Node7</title>
<path fill="none" stroke="midnightblue" d="M519.18,-353.82C567.04,-349.93 636.38,-339.38 690,-311 712.1,-299.3 731.7,-277.84 743.69,-262.78"/>
<polygon fill="midnightblue" stroke="midnightblue" points="746.51,-264.85 749.82,-254.78 740.96,-260.59 746.51,-264.85"/>
</g>
<!-- Node5&#45;&gt;Node9 -->
<g id="edge30" class="edge">
<title>Node5&#45;&gt;Node9</title>
<path fill="none" stroke="midnightblue" d="M479.62,-347.38C513.18,-329.97 591.4,-289.34 657,-255 673.91,-246.15 677.88,-243.43 695,-235 717.99,-223.68 744.41,-211.6 764.02,-202.81"/>
<polygon fill="midnightblue" stroke="midnightblue" points="765.63,-205.93 773.33,-198.66 762.77,-199.54 765.63,-205.93"/>
</g>
<!-- Node18 -->
<g id="node18" class="node">
<title>Node18</title>
<g id="a_node18"><a xlink:title=" ">
<polygon fill="white" stroke="#bfbfbf" points="1188,-235.5 1188,-254.5 1242,-254.5 1242,-235.5 1188,-235.5"/>
<text text-anchor="middle" x="1215" y="-242.5" font-family="'Souce Sans Pro', Roboto, FreeSans, sans-serif" font-size="10.00">memory</text>
</a>
</g>
</g>
<!-- Node5&#45;&gt;Node18 -->
<g id="edge49" class="edge">
<title>Node5&#45;&gt;Node18</title>
<path fill="none" stroke="midnightblue" d="M519.28,-356.03C620.94,-355.08 841.5,-348.42 1023,-311 1082.07,-298.82 1148.1,-273.82 1185.3,-258.62"/>
<polygon fill="midnightblue" stroke="midnightblue" points="1187.09,-261.66 1195,-254.61 1184.42,-255.19 1187.09,-261.66"/>
</g>
<!-- Node5&#45;&gt;Node19 -->
<g id="edge31" class="edge">
<title>Node5&#45;&gt;Node19</title>
<path fill="none" stroke="midnightblue" d="M419.04,-347.49C387.99,-340.39 346.02,-328.58 312,-311 286.52,-297.83 261.14,-276.43 245.28,-261.81"/>
<polygon fill="midnightblue" stroke="midnightblue" points="247.58,-259.17 237.9,-254.86 242.78,-264.27 247.58,-259.17"/>
</g>
<!-- Node21 -->
<g id="node21" class="node">
<title>Node21</title>
<g id="a_node21"><a xlink:title=" ">
<polygon fill="white" stroke="#bfbfbf" points="324,-123.5 324,-142.5 368,-142.5 368,-123.5 324,-123.5"/>
<text text-anchor="middle" x="346" y="-130.5" font-family="'Souce Sans Pro', Roboto, FreeSans, sans-serif" font-size="10.00">mutex</text>
</a>
</g>
</g>
<!-- Node5&#45;&gt;Node21 -->
<g id="edge50" class="edge">
<title>Node5&#45;&gt;Node21</title>
<path fill="none" stroke="midnightblue" d="M437.8,-347.35C420.22,-340.13 397.42,-328.23 383,-311 343.74,-264.08 342.64,-240.16 344,-179 344.19,-170.39 344.59,-160.86 344.98,-152.8"/>
<polygon fill="midnightblue" stroke="midnightblue" points="348.48,-152.79 345.5,-142.62 341.49,-152.43 348.48,-152.79"/>
</g>
<!-- Node22 -->
<g id="node22" class="node">
<title>Node22</title>
<g id="a_node22"><a xlink:title=" ">
<polygon fill="white" stroke="#bfbfbf" points="444,-123.5 444,-142.5 540,-142.5 540,-123.5 444,-123.5"/>
<text text-anchor="middle" x="492" y="-130.5" font-family="'Souce Sans Pro', Roboto, FreeSans, sans-serif" font-size="10.00">condition_variable</text>
</a>
</g>
</g>
<!-- Node5&#45;&gt;Node22 -->
<g id="edge52" class="edge">
<title>Node5&#45;&gt;Node22</title>
<path fill="none" stroke="midnightblue" d="M445.02,-347.36C430.84,-339.68 411.6,-327.16 400,-311 379.81,-282.88 362.1,-262.59 383,-235 418.68,-187.89 475.32,-246.11 511,-199 521.6,-185.01 513.37,-165.23 504.68,-151.17"/>
<polygon fill="midnightblue" stroke="midnightblue" points="507.58,-149.21 499.08,-142.88 501.77,-153.13 507.58,-149.21"/>
</g>
<!-- Node25 -->
<g id="node25" class="node">
<title>Node25</title>
<g id="a_node25"><a xlink:title=" ">
<polygon fill="white" stroke="#bfbfbf" points="66.5,-179.5 66.5,-198.5 113.5,-198.5 113.5,-179.5 66.5,-179.5"/>
<text text-anchor="middle" x="90" y="-186.5" font-family="'Souce Sans Pro', Roboto, FreeSans, sans-serif" font-size="10.00">atomic</text>
</a>
</g>
</g>
<!-- Node5&#45;&gt;Node25 -->
<g id="edge51" class="edge">
<title>Node5&#45;&gt;Node25</title>
<path fill="none" stroke="midnightblue" d="M406.92,-348.21C340.72,-336.81 229.72,-310.58 151,-255 131.74,-241.4 113.79,-220.96 102.42,-206.64"/>
<polygon fill="midnightblue" stroke="midnightblue" points="105.12,-204.41 96.24,-198.64 99.58,-208.69 105.12,-204.41"/>
</g>
<!-- Node26 -->
<g id="node26" class="node">
<title>Node26</title>
<g id="a_node26"><a xlink:href="filter_8h.html" target="_top" xlink:title="This header defines Filter and all of it&#39;s subclasses.">
<polygon fill="white" stroke="black" points="409.5,-291.5 409.5,-310.5 516.5,-310.5 516.5,-291.5 409.5,-291.5"/>
<text text-anchor="middle" x="463" y="-298.5" font-family="'Souce Sans Pro', Roboto, FreeSans, sans-serif" font-size="10.00">log4cplus/spi/filter.h</text>
</a>
</g>
</g>
<!-- Node5&#45;&gt;Node26 -->
<g id="edge40" class="edge">
<title>Node5&#45;&gt;Node26</title>
<path fill="none" stroke="midnightblue" d="M463,-347.08C463,-340.01 463,-329.86 463,-320.99"/>
<polygon fill="midnightblue" stroke="midnightblue" points="466.5,-320.75 463,-310.75 459.5,-320.75 466.5,-320.75"/>
</g>
<!-- Node28 -->
<g id="node28" class="node">
<title>Node28</title>
<g id="a_node28"><a xlink:href="lockfile_8h.html" target="_top" xlink:title=" ">
<polygon fill="white" stroke="black" points="508,-235.5 508,-254.5 648,-254.5 648,-235.5 508,-235.5"/>
<text text-anchor="middle" x="578" y="-242.5" font-family="'Souce Sans Pro', Roboto, FreeSans, sans-serif" font-size="10.00">log4cplus/helpers/lockfile.h</text>
</a>
</g>
</g>
<!-- Node5&#45;&gt;Node28 -->
<g id="edge45" class="edge">
<title>Node5&#45;&gt;Node28</title>
<path fill="none" stroke="midnightblue" d="M476.84,-347.45C489.94,-339.02 509.83,-325.34 525,-311 540.65,-296.21 555.9,-276.82 566,-263.08"/>
<polygon fill="midnightblue" stroke="midnightblue" points="569.1,-264.75 572.1,-254.59 563.42,-260.66 569.1,-264.75"/>
</g>
<!-- Node6&#45;&gt;Node2 -->
<g id="edge7" class="edge">
<title>Node6&#45;&gt;Node2</title>
<path fill="none" stroke="midnightblue" d="M958.39,-291.19C932.71,-257.08 840.14,-134.96 822,-123 793.64,-104.31 757.54,-93.3 726.81,-86.85"/>
<polygon fill="midnightblue" stroke="midnightblue" points="727.1,-83.34 716.61,-84.83 725.74,-90.2 727.1,-83.34"/>
</g>
<!-- Node6&#45;&gt;Node7 -->
<g id="edge8" class="edge">
<title>Node6&#45;&gt;Node7</title>
<path fill="none" stroke="midnightblue" d="M931.88,-291.44C895.88,-282.14 838.23,-267.25 798.81,-257.06"/>
<polygon fill="midnightblue" stroke="midnightblue" points="799.52,-253.63 788.96,-254.52 797.77,-260.41 799.52,-253.63"/>
</g>
<!-- Node6&#45;&gt;Node8 -->
<g id="edge27" class="edge">
<title>Node6&#45;&gt;Node8</title>
<path fill="none" stroke="midnightblue" d="M1014.27,-297.89C1045.18,-293.7 1082.87,-282.74 1103,-255 1112.63,-241.73 1110.69,-222.61 1107.21,-208.54"/>
<polygon fill="midnightblue" stroke="midnightblue" points="1110.45,-207.15 1104.28,-198.54 1103.74,-209.12 1110.45,-207.15"/>
</g>
<!-- Node6&#45;&gt;Node9 -->
<g id="edge21" class="edge">
<title>Node6&#45;&gt;Node9</title>
<path fill="none" stroke="midnightblue" d="M951.5,-291.37C921.99,-272.49 851.46,-227.38 815.26,-204.24"/>
<polygon fill="midnightblue" stroke="midnightblue" points="816.74,-201.03 806.43,-198.59 812.97,-206.93 816.74,-201.03"/>
</g>
<!-- Node13 -->
<g id="node13" class="node">
<title>Node13</title>
<g id="a_node13"><a xlink:href="streams_8h.html" target="_top" xlink:title=" ">
<polygon fill="white" stroke="black" points="1141.5,-179.5 1141.5,-198.5 1248.5,-198.5 1248.5,-179.5 1141.5,-179.5"/>
<text text-anchor="middle" x="1195" y="-186.5" font-family="'Souce Sans Pro', Roboto, FreeSans, sans-serif" font-size="10.00">log4cplus/streams.h</text>
</a>
</g>
</g>
<!-- Node6&#45;&gt;Node13 -->
<g id="edge17" class="edge">
<title>Node6&#45;&gt;Node13</title>
<path fill="none" stroke="midnightblue" d="M1013.88,-291.46C1045.49,-284.61 1086.77,-273.08 1120,-255 1143.5,-242.21 1166.08,-221.03 1180.21,-206.34"/>
<polygon fill="midnightblue" stroke="midnightblue" points="1182.86,-208.63 1187.15,-198.94 1177.76,-203.84 1182.86,-208.63"/>
</g>
<!-- Node15 -->
<g id="node15" class="node">
<title>Node15</title>
<g id="a_node15"><a xlink:href="timehelper_8h.html" target="_top" xlink:title=" ">
<polygon fill="white" stroke="black" points="940,-235.5 940,-254.5 1094,-254.5 1094,-235.5 940,-235.5"/>
<text text-anchor="middle" x="1017" y="-242.5" font-family="'Souce Sans Pro', Roboto, FreeSans, sans-serif" font-size="10.00">log4cplus/helpers/timehelper.h</text>
</a>
</g>
</g>
<!-- Node6&#45;&gt;Node15 -->
<g id="edge22" class="edge">
<title>Node6&#45;&gt;Node15</title>
<path fill="none" stroke="midnightblue" d="M973.59,-291.08C981.16,-283.22 992.38,-271.57 1001.51,-262.08"/>
<polygon fill="midnightblue" stroke="midnightblue" points="1004.16,-264.38 1008.57,-254.75 999.12,-259.53 1004.16,-264.38"/>
</g>
<!-- Node6&#45;&gt;Node18 -->
<g id="edge28" class="edge">
<title>Node6&#45;&gt;Node18</title>
<path fill="none" stroke="midnightblue" d="M1005.08,-291.42C1047.16,-282.4 1115.24,-267.77 1174,-255 1175.24,-254.73 1176.5,-254.46 1177.78,-254.18"/>
<polygon fill="midnightblue" stroke="midnightblue" points="1178.63,-257.57 1187.66,-252.02 1177.14,-250.73 1178.63,-257.57"/>
</g>
<!-- Node7&#45;&gt;Node2 -->
<g id="edge9" class="edge">
<title>Node7&#45;&gt;Node2</title>
<path fill="none" stroke="midnightblue" d="M750.95,-235.08C736.02,-208.72 691.94,-130.88 672,-95.66"/>
<polygon fill="midnightblue" stroke="midnightblue" points="674.82,-93.55 666.85,-86.57 668.73,-96.99 674.82,-93.55"/>
</g>
<!-- Node7&#45;&gt;Node8 -->
<g id="edge10" class="edge">
<title>Node7&#45;&gt;Node8</title>
<path fill="none" stroke="midnightblue" d="M808.07,-238.8C868.6,-232.25 971.63,-219.56 1068.76,-199.01"/>
<polygon fill="midnightblue" stroke="midnightblue" points="1069.7,-202.39 1078.74,-196.87 1068.23,-195.54 1069.7,-202.39"/>
</g>
<!-- Node7&#45;&gt;Node9 -->
<g id="edge11" class="edge">
<title>Node7&#45;&gt;Node9</title>
<path fill="none" stroke="midnightblue" d="M762.11,-235.08C767.28,-227.53 774.85,-216.49 781.19,-207.23"/>
<polygon fill="midnightblue" stroke="midnightblue" points="784.24,-208.98 787,-198.75 778.46,-205.02 784.24,-208.98"/>
</g>
<!-- Node9&#45;&gt;Node2 -->
<g id="edge12" class="edge">
<title>Node9&#45;&gt;Node2</title>
<path fill="none" stroke="midnightblue" d="M782.72,-179.37C760.53,-160.73 707.89,-116.53 680.02,-93.13"/>
<polygon fill="midnightblue" stroke="midnightblue" points="682.14,-90.34 672.23,-86.59 677.64,-95.7 682.14,-90.34"/>
</g>
<!-- Node10 -->
<g id="node10" class="node">
<title>Node10</title>
<g id="a_node10"><a xlink:title=" ">
<polygon fill="white" stroke="#bfbfbf" points="772.5,-123.5 772.5,-142.5 813.5,-142.5 813.5,-123.5 772.5,-123.5"/>
<text text-anchor="middle" x="793" y="-130.5" font-family="'Souce Sans Pro', Roboto, FreeSans, sans-serif" font-size="10.00">string</text>
</a>
</g>
</g>
<!-- Node9&#45;&gt;Node10 -->
<g id="edge13" class="edge">
<title>Node9&#45;&gt;Node10</title>
<path fill="none" stroke="midnightblue" d="M793,-179.08C793,-172.01 793,-161.86 793,-152.99"/>
<polygon fill="midnightblue" stroke="midnightblue" points="796.5,-152.75 793,-142.75 789.5,-152.75 796.5,-152.75"/>
</g>
<!-- Node11 -->
<g id="node11" class="node">
<title>Node11</title>
<g id="a_node11"><a xlink:href="tchar_8h.html" target="_top" xlink:title=" ">
<polygon fill="white" stroke="black" points="954.5,-123.5 954.5,-142.5 1047.5,-142.5 1047.5,-123.5 954.5,-123.5"/>
<text text-anchor="middle" x="1001" y="-130.5" font-family="'Souce Sans Pro', Roboto, FreeSans, sans-serif" font-size="10.00">log4cplus/tchar.h</text>
</a>
</g>
</g>
<!-- Node9&#45;&gt;Node11 -->
<g id="edge14" class="edge">
<title>Node9&#45;&gt;Node11</title>
<path fill="none" stroke="midnightblue" d="M825.96,-179.44C861.79,-170.14 919.16,-155.25 958.39,-145.06"/>
<polygon fill="midnightblue" stroke="midnightblue" points="959.4,-148.42 968.2,-142.52 957.64,-141.64 959.4,-148.42"/>
</g>
<!-- Node11&#45;&gt;Node2 -->
<g id="edge15" class="edge">
<title>Node11&#45;&gt;Node2</title>
<path fill="none" stroke="midnightblue" d="M954.22,-124.55C894.79,-115.08 791.97,-98.7 725.5,-88.11"/>
<polygon fill="midnightblue" stroke="midnightblue" points="725.98,-84.65 715.56,-86.53 724.88,-91.56 725.98,-84.65"/>
</g>
<!-- Node12 -->
<g id="node12" class="node">
<title>Node12</title>
<g id="a_node12"><a xlink:title=" ">
<polygon fill="white" stroke="#bfbfbf" points="975.5,-67.5 975.5,-86.5 1026.5,-86.5 1026.5,-67.5 975.5,-67.5"/>
<text text-anchor="middle" x="1001" y="-74.5" font-family="'Souce Sans Pro', Roboto, FreeSans, sans-serif" font-size="10.00">cstddef</text>
</a>
</g>
</g>
<!-- Node11&#45;&gt;Node12 -->
<g id="edge16" class="edge">
<title>Node11&#45;&gt;Node12</title>
<path fill="none" stroke="midnightblue" d="M1001,-123.08C1001,-116.01 1001,-105.86 1001,-96.99"/>
<polygon fill="midnightblue" stroke="midnightblue" points="1004.5,-96.75 1001,-86.75 997.5,-96.75 1004.5,-96.75"/>
</g>
<!-- Node13&#45;&gt;Node2 -->
<g id="edge18" class="edge">
<title>Node13&#45;&gt;Node2</title>
<path fill="none" stroke="midnightblue" d="M1180.71,-179.33C1156.31,-164.98 1104.64,-136.53 1057,-123 943.9,-90.87 806.41,-81.57 727.08,-78.95"/>
<polygon fill="midnightblue" stroke="midnightblue" points="726.85,-75.44 716.75,-78.64 726.64,-82.44 726.85,-75.44"/>
</g>
<!-- Node13&#45;&gt;Node11 -->
<g id="edge19" class="edge">
<title>Node13&#45;&gt;Node11</title>
<path fill="none" stroke="midnightblue" d="M1164.26,-179.44C1131.06,-170.2 1078.01,-155.44 1041.44,-145.26"/>
<polygon fill="midnightblue" stroke="midnightblue" points="1042.17,-141.83 1031.6,-142.52 1040.29,-148.57 1042.17,-141.83"/>
</g>
<!-- Node14 -->
<g id="node14" class="node">
<title>Node14</title>
<g id="a_node14"><a xlink:title=" ">
<polygon fill="white" stroke="#bfbfbf" points="1171.5,-123.5 1171.5,-142.5 1218.5,-142.5 1218.5,-123.5 1171.5,-123.5"/>
<text text-anchor="middle" x="1195" y="-130.5" font-family="'Souce Sans Pro', Roboto, FreeSans, sans-serif" font-size="10.00">iosfwd</text>
</a>
</g>
</g>
<!-- Node13&#45;&gt;Node14 -->
<g id="edge20" class="edge">
<title>Node13&#45;&gt;Node14</title>
<path fill="none" stroke="midnightblue" d="M1195,-179.08C1195,-172.01 1195,-161.86 1195,-152.99"/>
<polygon fill="midnightblue" stroke="midnightblue" points="1198.5,-152.75 1195,-142.75 1191.5,-152.75 1198.5,-152.75"/>
</g>
<!-- Node15&#45;&gt;Node2 -->
<g id="edge23" class="edge">
<title>Node15&#45;&gt;Node2</title>
<path fill="none" stroke="midnightblue" d="M998.36,-235.36C982.93,-227.52 961.17,-214.79 946,-199 918.96,-170.85 933.86,-145.54 902,-123 874.38,-103.46 787.9,-90.79 726.7,-84.02"/>
<polygon fill="midnightblue" stroke="midnightblue" points="727.05,-80.54 716.73,-82.95 726.3,-87.5 727.05,-80.54"/>
</g>
<!-- Node15&#45;&gt;Node9 -->
<g id="edge24" class="edge">
<title>Node15&#45;&gt;Node9</title>
<path fill="none" stroke="midnightblue" d="M981.51,-235.44C942.68,-226.08 880.34,-211.06 838.08,-200.87"/>
<polygon fill="midnightblue" stroke="midnightblue" points="838.87,-197.46 828.33,-198.52 837.23,-204.26 838.87,-197.46"/>
</g>
<!-- Node16 -->
<g id="node16" class="node">
<title>Node16</title>
<g id="a_node16"><a xlink:title=" ">
<polygon fill="white" stroke="#bfbfbf" points="954.5,-179.5 954.5,-198.5 995.5,-198.5 995.5,-179.5 954.5,-179.5"/>
<text text-anchor="middle" x="975" y="-186.5" font-family="'Souce Sans Pro', Roboto, FreeSans, sans-serif" font-size="10.00">ctime</text>
</a>
</g>
</g>
<!-- Node15&#45;&gt;Node16 -->
<g id="edge25" class="edge">
<title>Node15&#45;&gt;Node16</title>
<path fill="none" stroke="midnightblue" d="M1010.06,-235.08C1004.07,-227.38 995.25,-216.03 987.95,-206.65"/>
<polygon fill="midnightblue" stroke="midnightblue" points="990.71,-204.5 981.81,-198.75 985.18,-208.79 990.71,-204.5"/>
</g>
<!-- Node17 -->
<g id="node17" class="node">
<title>Node17</title>
<g id="a_node17"><a xlink:title=" ">
<polygon fill="white" stroke="#bfbfbf" points="1013.5,-179.5 1013.5,-198.5 1060.5,-198.5 1060.5,-179.5 1013.5,-179.5"/>
<text text-anchor="middle" x="1037" y="-186.5" font-family="'Souce Sans Pro', Roboto, FreeSans, sans-serif" font-size="10.00">chrono</text>
</a>
</g>
</g>
<!-- Node15&#45;&gt;Node17 -->
<g id="edge26" class="edge">
<title>Node15&#45;&gt;Node17</title>
<path fill="none" stroke="midnightblue" d="M1020.3,-235.08C1022.98,-227.85 1026.85,-217.41 1030.19,-208.4"/>
<polygon fill="midnightblue" stroke="midnightblue" points="1033.57,-209.34 1033.76,-198.75 1027,-206.91 1033.57,-209.34"/>
</g>
<!-- Node19&#45;&gt;Node2 -->
<g id="edge32" class="edge">
<title>Node19&#45;&gt;Node2</title>
<path fill="none" stroke="midnightblue" d="M207.52,-235.43C181.97,-223.94 144.7,-202.28 161,-179 210.45,-108.4 473.41,-86.79 597.32,-80.47"/>
<polygon fill="midnightblue" stroke="midnightblue" points="597.61,-83.96 607.43,-79.97 597.27,-76.97 597.61,-83.96"/>
</g>
<!-- Node20 -->
<g id="node20" class="node">
<title>Node20</title>
<g id="a_node20"><a xlink:href="syncprims_8h.html" target="_top" xlink:title=" ">
<polygon fill="white" stroke="black" points="353.5,-179.5 353.5,-198.5 502.5,-198.5 502.5,-179.5 353.5,-179.5"/>
<text text-anchor="middle" x="428" y="-186.5" font-family="'Souce Sans Pro', Roboto, FreeSans, sans-serif" font-size="10.00">log4cplus/thread/syncprims.h</text>
</a>
</g>
</g>
<!-- Node19&#45;&gt;Node20 -->
<g id="edge33" class="edge">
<title>Node19&#45;&gt;Node20</title>
<path fill="none" stroke="midnightblue" d="M260.53,-235.44C294.59,-226.2 349.01,-211.44 386.52,-201.26"/>
<polygon fill="midnightblue" stroke="midnightblue" points="387.88,-204.51 396.62,-198.52 386.05,-197.76 387.88,-204.51"/>
</g>
<!-- Node23 -->
<g id="node23" class="node">
<title>Node23</title>
<g id="a_node23"><a xlink:title=" ">
<polygon fill="white" stroke="#bfbfbf" points="170.5,-179.5 170.5,-198.5 229.5,-198.5 229.5,-179.5 170.5,-179.5"/>
<text text-anchor="middle" x="200" y="-186.5" font-family="'Souce Sans Pro', Roboto, FreeSans, sans-serif" font-size="10.00">algorithm</text>
</a>
</g>
</g>
<!-- Node19&#45;&gt;Node23 -->
<g id="edge37" class="edge">
<title>Node19&#45;&gt;Node23</title>
<path fill="none" stroke="midnightblue" d="M224.21,-235.08C220.24,-227.69 214.47,-216.95 209.57,-207.81"/>
<polygon fill="midnightblue" stroke="midnightblue" points="212.51,-205.91 204.7,-198.75 206.35,-209.22 212.51,-205.91"/>
</g>
<!-- Node24 -->
<g id="node24" class="node">
<title>Node24</title>
<g id="a_node24"><a xlink:title=" ">
<polygon fill="white" stroke="#bfbfbf" points="248,-179.5 248,-198.5 298,-198.5 298,-179.5 248,-179.5"/>
<text text-anchor="middle" x="273" y="-186.5" font-family="'Souce Sans Pro', Roboto, FreeSans, sans-serif" font-size="10.00">cassert</text>
</a>
</g>
</g>
<!-- Node19&#45;&gt;Node24 -->
<g id="edge38" class="edge">
<title>Node19&#45;&gt;Node24</title>
<path fill="none" stroke="midnightblue" d="M236.27,-235.08C242.54,-227.38 251.79,-216.03 259.43,-206.65"/>
<polygon fill="midnightblue" stroke="midnightblue" points="262.27,-208.71 265.87,-198.75 256.84,-204.29 262.27,-208.71"/>
</g>
<!-- Node19&#45;&gt;Node25 -->
<g id="edge39" class="edge">
<title>Node19&#45;&gt;Node25</title>
<path fill="none" stroke="midnightblue" d="M206.98,-235.44C183.9,-226.48 147.44,-212.31 121.36,-202.18"/>
<polygon fill="midnightblue" stroke="midnightblue" points="122.51,-198.88 111.92,-198.52 119.98,-205.4 122.51,-198.88"/>
</g>
<!-- Node20&#45;&gt;Node2 -->
<g id="edge34" class="edge">
<title>Node20&#45;&gt;Node2</title>
<path fill="none" stroke="midnightblue" d="M426,-179.12C423.45,-165.24 420.9,-138.41 435,-123 456.44,-99.57 537.98,-87.92 597.21,-82.43"/>
<polygon fill="midnightblue" stroke="midnightblue" points="597.6,-85.91 607.25,-81.54 596.98,-78.94 597.6,-85.91"/>
</g>
<!-- Node20&#45;&gt;Node21 -->
<g id="edge35" class="edge">
<title>Node20&#45;&gt;Node21</title>
<path fill="none" stroke="midnightblue" d="M414.83,-179.32C402.15,-170.98 382.77,-158.21 367.79,-148.35"/>
<polygon fill="midnightblue" stroke="midnightblue" points="369.42,-145.23 359.14,-142.65 365.57,-151.08 369.42,-145.23"/>
</g>
<!-- Node20&#45;&gt;Node22 -->
<g id="edge36" class="edge">
<title>Node20&#45;&gt;Node22</title>
<path fill="none" stroke="midnightblue" d="M438.28,-179.32C447.84,-171.26 462.28,-159.08 473.78,-149.37"/>
<polygon fill="midnightblue" stroke="midnightblue" points="476.14,-151.96 481.53,-142.83 471.63,-146.61 476.14,-151.96"/>
</g>
<!-- Node26&#45;&gt;Node2 -->
<g id="edge41" class="edge">
<title>Node26&#45;&gt;Node2</title>
<path fill="none" stroke="midnightblue" d="M466.89,-291.08C472.8,-278.07 484.86,-253.41 499,-235 543.85,-176.61 610.37,-119.58 642.81,-93.21"/>
<polygon fill="midnightblue" stroke="midnightblue" points="645.42,-95.6 651.01,-86.6 641.03,-90.15 645.42,-95.6"/>
</g>
<!-- Node26&#45;&gt;Node7 -->
<g id="edge44" class="edge">
<title>Node26&#45;&gt;Node7</title>
<path fill="none" stroke="midnightblue" d="M509.43,-291.44C561.08,-281.92 644.51,-266.55 699.81,-256.36"/>
<polygon fill="midnightblue" stroke="midnightblue" points="700.59,-259.77 709.79,-254.52 699.32,-252.89 700.59,-259.77"/>
</g>
<!-- Node26&#45;&gt;Node19 -->
<g id="edge43" class="edge">
<title>Node26&#45;&gt;Node19</title>
<path fill="none" stroke="midnightblue" d="M425.92,-291.44C385.27,-282.06 319.97,-266.99 275.82,-256.8"/>
<polygon fill="midnightblue" stroke="midnightblue" points="276.44,-253.35 265.9,-254.52 274.86,-260.18 276.44,-253.35"/>
</g>
<!-- Node27 -->
<g id="node27" class="node">
<title>Node27</title>
<g id="a_node27"><a xlink:title=" ">
<polygon fill="white" stroke="#bfbfbf" points="392,-235.5 392,-254.5 452,-254.5 452,-235.5 392,-235.5"/>
<text text-anchor="middle" x="422" y="-242.5" font-family="'Souce Sans Pro', Roboto, FreeSans, sans-serif" font-size="10.00">functional</text>
</a>
</g>
</g>
<!-- Node26&#45;&gt;Node27 -->
<g id="edge42" class="edge">
<title>Node26&#45;&gt;Node27</title>
<path fill="none" stroke="midnightblue" d="M456.23,-291.08C450.44,-283.46 441.94,-272.26 434.86,-262.94"/>
<polygon fill="midnightblue" stroke="midnightblue" points="437.48,-260.6 428.64,-254.75 431.9,-264.83 437.48,-260.6"/>
</g>
<!-- Node28&#45;&gt;Node2 -->
<g id="edge46" class="edge">
<title>Node28&#45;&gt;Node2</title>
<path fill="none" stroke="midnightblue" d="M582.52,-235.08C595.85,-208.72 635.24,-130.88 653.06,-95.66"/>
<polygon fill="midnightblue" stroke="midnightblue" points="656.27,-97.07 657.66,-86.57 650.03,-93.91 656.27,-97.07"/>
</g>
<!-- Node28&#45;&gt;Node9 -->
<g id="edge47" class="edge">
<title>Node28&#45;&gt;Node9</title>
<path fill="none" stroke="midnightblue" d="M612.07,-235.44C649.18,-226.12 708.66,-211.18 749.21,-201"/>
<polygon fill="midnightblue" stroke="midnightblue" points="750.25,-204.35 759.09,-198.52 748.54,-197.56 750.25,-204.35"/>
</g>
<!-- Node28&#45;&gt;Node20 -->
<g id="edge48" class="edge">
<title>Node28&#45;&gt;Node20</title>
<path fill="none" stroke="midnightblue" d="M554.23,-235.44C529.11,-226.4 489.29,-212.06 461.1,-201.92"/>
<polygon fill="midnightblue" stroke="midnightblue" points="462.25,-198.61 451.66,-198.52 459.88,-205.2 462.25,-198.61"/>
</g>
</g>
</svg>
