<?xml version="1.0" encoding="UTF-8" standalone="no"?>
<!DOCTYPE svg PUBLIC "-//W3C//DTD SVG 1.1//EN"
 "http://www.w3.org/Graphics/SVG/1.1/DTD/svg11.dtd">
<!-- Generated by graphviz version 2.43.0 (0)
 -->
<!-- Title: appenderattachableimpl.h Pages: 1 -->
<svg width="1473pt" height="487pt"
 viewBox="0.00 0.00 1472.50 487.00" xmlns="http://www.w3.org/2000/svg" xmlns:xlink="http://www.w3.org/1999/xlink">
<g id="graph0" class="graph" transform="scale(1 1) rotate(0) translate(4 483)">
<title>appenderattachableimpl.h</title>
<polygon fill="white" stroke="transparent" points="-4,4 -4,-483 1468.5,-483 1468.5,4 -4,4"/>
<!-- Node1 -->
<g id="node1" class="node">
<title>Node1</title>
<g id="a_node1"><a xlink:title=" ">
<polygon fill="#bfbfbf" stroke="black" points="790.5,-459.5 790.5,-478.5 919.5,-478.5 919.5,-459.5 790.5,-459.5"/>
<text text-anchor="middle" x="855" y="-466.5" font-family="'Souce Sans Pro', Roboto, FreeSans, sans-serif" font-size="10.00">appenderattachableimpl.h</text>
</a>
</g>
</g>
<!-- Node2 -->
<g id="node2" class="node">
<title>Node2</title>
<g id="a_node2"><a xlink:href="config_8hxx.html" target="_top" xlink:title=" ">
<polygon fill="white" stroke="black" points="721.5,-67.5 721.5,-86.5 830.5,-86.5 830.5,-67.5 721.5,-67.5"/>
<text text-anchor="middle" x="776" y="-74.5" font-family="'Souce Sans Pro', Roboto, FreeSans, sans-serif" font-size="10.00">log4cplus/config.hxx</text>
</a>
</g>
</g>
<!-- Node1&#45;&gt;Node2 -->
<g id="edge1" class="edge">
<title>Node1&#45;&gt;Node2</title>
<path fill="none" stroke="midnightblue" d="M790.34,-467.65C634.94,-466.22 244.09,-459.04 119,-423 61.09,-406.32 0,-418.26 0,-358 0,-358 0,-358 0,-188 0,-110.42 86.42,-140.49 162,-123 264.88,-99.2 574.76,-85.33 710.79,-80.24"/>
<polygon fill="midnightblue" stroke="midnightblue" points="711.19,-83.73 721.06,-79.86 710.93,-76.73 711.19,-83.73"/>
</g>
<!-- Node5 -->
<g id="node5" class="node">
<title>Node5</title>
<g id="a_node5"><a xlink:href="tstring_8h.html" target="_top" xlink:title=" ">
<polygon fill="white" stroke="black" points="844.5,-179.5 844.5,-198.5 943.5,-198.5 943.5,-179.5 844.5,-179.5"/>
<text text-anchor="middle" x="894" y="-186.5" font-family="'Souce Sans Pro', Roboto, FreeSans, sans-serif" font-size="10.00">log4cplus/tstring.h</text>
</a>
</g>
</g>
<!-- Node1&#45;&gt;Node5 -->
<g id="edge4" class="edge">
<title>Node1&#45;&gt;Node5</title>
<path fill="none" stroke="midnightblue" d="M896.47,-459.5C916.59,-453.06 938.95,-441.95 951,-423 996.18,-351.92 934.4,-247.73 906.46,-207.1"/>
<polygon fill="midnightblue" stroke="midnightblue" points="909.24,-204.97 900.61,-198.81 903.52,-209 909.24,-204.97"/>
</g>
<!-- Node9 -->
<g id="node9" class="node">
<title>Node9</title>
<g id="a_node9"><a xlink:href="pointer_8h.html" target="_top" xlink:title=" ">
<polygon fill="white" stroke="black" points="256,-235.5 256,-254.5 394,-254.5 394,-235.5 256,-235.5"/>
<text text-anchor="middle" x="325" y="-242.5" font-family="'Souce Sans Pro', Roboto, FreeSans, sans-serif" font-size="10.00">log4cplus/helpers/pointer.h</text>
</a>
</g>
</g>
<!-- Node1&#45;&gt;Node9 -->
<g id="edge10" class="edge">
<title>Node1&#45;&gt;Node9</title>
<path fill="none" stroke="midnightblue" d="M790.39,-459.61C705.8,-447.06 554.17,-419.09 434,-367 392.49,-349.01 377.13,-346.43 349,-311 338.26,-297.47 332.02,-278.66 328.61,-264.76"/>
<polygon fill="midnightblue" stroke="midnightblue" points="332,-263.88 326.44,-254.86 325.16,-265.37 332,-263.88"/>
</g>
<!-- Node10 -->
<g id="node10" class="node">
<title>Node10</title>
<g id="a_node10"><a xlink:href="syncprims_8h.html" target="_top" xlink:title=" ">
<polygon fill="white" stroke="black" points="255.5,-179.5 255.5,-198.5 404.5,-198.5 404.5,-179.5 255.5,-179.5"/>
<text text-anchor="middle" x="330" y="-186.5" font-family="'Souce Sans Pro', Roboto, FreeSans, sans-serif" font-size="10.00">log4cplus/thread/syncprims.h</text>
</a>
</g>
</g>
<!-- Node1&#45;&gt;Node10 -->
<g id="edge60" class="edge">
<title>Node1&#45;&gt;Node10</title>
<path fill="none" stroke="midnightblue" d="M790.21,-466.07C596.97,-459.45 38,-433.76 38,-358 38,-358 38,-358 38,-300 38,-251.15 182.94,-216.53 268.59,-200.34"/>
<polygon fill="midnightblue" stroke="midnightblue" points="269.28,-203.77 278.47,-198.5 268,-196.89 269.28,-203.77"/>
</g>
<!-- Node16 -->
<g id="node16" class="node">
<title>Node16</title>
<g id="a_node16"><a xlink:href="appenderattachable_8h.html" target="_top" xlink:title=" ">
<polygon fill="white" stroke="black" points="768,-403.5 768,-422.5 942,-422.5 942,-403.5 768,-403.5"/>
<text text-anchor="middle" x="855" y="-410.5" font-family="'Souce Sans Pro', Roboto, FreeSans, sans-serif" font-size="10.00">log4cplus/spi/appenderattachable.h</text>
</a>
</g>
</g>
<!-- Node1&#45;&gt;Node16 -->
<g id="edge19" class="edge">
<title>Node1&#45;&gt;Node16</title>
<path fill="none" stroke="midnightblue" d="M855,-459.08C855,-452.01 855,-441.86 855,-432.99"/>
<polygon fill="midnightblue" stroke="midnightblue" points="858.5,-432.75 855,-422.75 851.5,-432.75 858.5,-432.75"/>
</g>
<!-- Node20 -->
<g id="node20" class="node">
<title>Node20</title>
<g id="a_node20"><a xlink:title=" ">
<polygon fill="white" stroke="#bfbfbf" points="1199,-179.5 1199,-198.5 1243,-198.5 1243,-179.5 1199,-179.5"/>
<text text-anchor="middle" x="1221" y="-186.5" font-family="'Souce Sans Pro', Roboto, FreeSans, sans-serif" font-size="10.00">vector</text>
</a>
</g>
</g>
<!-- Node1&#45;&gt;Node20 -->
<g id="edge62" class="edge">
<title>Node1&#45;&gt;Node20</title>
<path fill="none" stroke="midnightblue" d="M919.59,-468.48C1064.72,-467.82 1404,-455.81 1404,-358 1404,-358 1404,-358 1404,-300 1404,-265.61 1389.32,-255.9 1362,-235 1353.17,-228.25 1291.86,-210.06 1253.05,-198.99"/>
<polygon fill="midnightblue" stroke="midnightblue" points="1253.81,-195.57 1243.23,-196.2 1251.9,-202.3 1253.81,-195.57"/>
</g>
<!-- Node26 -->
<g id="node26" class="node">
<title>Node26</title>
<g id="a_node26"><a xlink:title=" ">
<polygon fill="white" stroke="#bfbfbf" points="1284,-235.5 1284,-254.5 1338,-254.5 1338,-235.5 1284,-235.5"/>
<text text-anchor="middle" x="1311" y="-242.5" font-family="'Souce Sans Pro', Roboto, FreeSans, sans-serif" font-size="10.00">memory</text>
</a>
</g>
</g>
<!-- Node1&#45;&gt;Node26 -->
<g id="edge61" class="edge">
<title>Node1&#45;&gt;Node26</title>
<path fill="none" stroke="midnightblue" d="M883.69,-459.45C910.17,-451.22 950.37,-437.85 984,-423 1102.41,-370.71 1235.95,-291.74 1288.27,-259.97"/>
<polygon fill="midnightblue" stroke="midnightblue" points="1290.35,-262.8 1297.07,-254.6 1286.71,-256.82 1290.35,-262.8"/>
</g>
<!-- Node3 -->
<g id="node3" class="node">
<title>Node3</title>
<g id="a_node3"><a xlink:href="win32_8h.html" target="_top" xlink:title=" ">
<polygon fill="white" stroke="black" points="639,-6 639,-25 767,-25 767,-6 639,-6"/>
<text text-anchor="middle" x="703" y="-13" font-family="'Souce Sans Pro', Roboto, FreeSans, sans-serif" font-size="10.00">log4cplus/config/win32.h</text>
</a>
</g>
</g>
<!-- Node2&#45;&gt;Node3 -->
<g id="edge2" class="edge">
<title>Node2&#45;&gt;Node3</title>
<path fill="none" stroke="midnightblue" d="M765.54,-67.48C754.05,-58.11 735.37,-42.88 721.41,-31.51"/>
<polygon fill="midnightblue" stroke="midnightblue" points="723.4,-28.61 713.44,-25.01 718.98,-34.04 723.4,-28.61"/>
</g>
<!-- Node4 -->
<g id="node4" class="node">
<title>Node4</title>
<g id="a_node4"><a xlink:href="thread-config_8h.html" target="_top" xlink:title=" ">
<polygon fill="white" stroke="black" points="785,-0.5 785,-30.5 913,-30.5 913,-0.5 785,-0.5"/>
<text text-anchor="start" x="793" y="-18.5" font-family="'Souce Sans Pro', Roboto, FreeSans, sans-serif" font-size="10.00">log4cplus/helpers/thread</text>
<text text-anchor="middle" x="849" y="-7.5" font-family="'Souce Sans Pro', Roboto, FreeSans, sans-serif" font-size="10.00">&#45;config.h</text>
</a>
</g>
</g>
<!-- Node2&#45;&gt;Node4 -->
<g id="edge3" class="edge">
<title>Node2&#45;&gt;Node4</title>
<path fill="none" stroke="midnightblue" d="M786.46,-67.48C796.16,-59.57 810.99,-47.48 823.77,-37.07"/>
<polygon fill="midnightblue" stroke="midnightblue" points="826.26,-39.55 831.8,-30.52 821.83,-34.13 826.26,-39.55"/>
</g>
<!-- Node5&#45;&gt;Node2 -->
<g id="edge5" class="edge">
<title>Node5&#45;&gt;Node2</title>
<path fill="none" stroke="midnightblue" d="M884.74,-179.37C864.84,-160.81 817.74,-116.91 792.56,-93.44"/>
<polygon fill="midnightblue" stroke="midnightblue" points="794.92,-90.85 785.22,-86.59 790.14,-95.97 794.92,-90.85"/>
</g>
<!-- Node6 -->
<g id="node6" class="node">
<title>Node6</title>
<g id="a_node6"><a xlink:title=" ">
<polygon fill="white" stroke="#bfbfbf" points="873.5,-123.5 873.5,-142.5 914.5,-142.5 914.5,-123.5 873.5,-123.5"/>
<text text-anchor="middle" x="894" y="-130.5" font-family="'Souce Sans Pro', Roboto, FreeSans, sans-serif" font-size="10.00">string</text>
</a>
</g>
</g>
<!-- Node5&#45;&gt;Node6 -->
<g id="edge6" class="edge">
<title>Node5&#45;&gt;Node6</title>
<path fill="none" stroke="midnightblue" d="M894,-179.08C894,-172.01 894,-161.86 894,-152.99"/>
<polygon fill="midnightblue" stroke="midnightblue" points="897.5,-152.75 894,-142.75 890.5,-152.75 897.5,-152.75"/>
</g>
<!-- Node7 -->
<g id="node7" class="node">
<title>Node7</title>
<g id="a_node7"><a xlink:href="tchar_8h.html" target="_top" xlink:title=" ">
<polygon fill="white" stroke="black" points="1306.5,-123.5 1306.5,-142.5 1399.5,-142.5 1399.5,-123.5 1306.5,-123.5"/>
<text text-anchor="middle" x="1353" y="-130.5" font-family="'Souce Sans Pro', Roboto, FreeSans, sans-serif" font-size="10.00">log4cplus/tchar.h</text>
</a>
</g>
</g>
<!-- Node5&#45;&gt;Node7 -->
<g id="edge7" class="edge">
<title>Node5&#45;&gt;Node7</title>
<path fill="none" stroke="midnightblue" d="M943.56,-182.17C1029.49,-172.06 1205.63,-151.34 1296.3,-140.67"/>
<polygon fill="midnightblue" stroke="midnightblue" points="1296.87,-144.13 1306.4,-139.48 1296.05,-137.18 1296.87,-144.13"/>
</g>
<!-- Node7&#45;&gt;Node2 -->
<g id="edge8" class="edge">
<title>Node7&#45;&gt;Node2</title>
<path fill="none" stroke="midnightblue" d="M1306.41,-124.83C1301.55,-124.17 1296.68,-123.55 1292,-123 1130.05,-104.01 938.63,-89.34 840.75,-82.4"/>
<polygon fill="midnightblue" stroke="midnightblue" points="840.94,-78.91 830.72,-81.7 840.45,-85.89 840.94,-78.91"/>
</g>
<!-- Node8 -->
<g id="node8" class="node">
<title>Node8</title>
<g id="a_node8"><a xlink:title=" ">
<polygon fill="white" stroke="#bfbfbf" points="1327.5,-67.5 1327.5,-86.5 1378.5,-86.5 1378.5,-67.5 1327.5,-67.5"/>
<text text-anchor="middle" x="1353" y="-74.5" font-family="'Souce Sans Pro', Roboto, FreeSans, sans-serif" font-size="10.00">cstddef</text>
</a>
</g>
</g>
<!-- Node7&#45;&gt;Node8 -->
<g id="edge9" class="edge">
<title>Node7&#45;&gt;Node8</title>
<path fill="none" stroke="midnightblue" d="M1353,-123.08C1353,-116.01 1353,-105.86 1353,-96.99"/>
<polygon fill="midnightblue" stroke="midnightblue" points="1356.5,-96.75 1353,-86.75 1349.5,-96.75 1356.5,-96.75"/>
</g>
<!-- Node9&#45;&gt;Node2 -->
<g id="edge11" class="edge">
<title>Node9&#45;&gt;Node2</title>
<path fill="none" stroke="midnightblue" d="M394.21,-238.2C441.74,-232.42 505.49,-221.06 558,-199 612.79,-175.99 615.84,-151.47 668,-123 691.81,-110 720.17,-98.32 741.85,-90.12"/>
<polygon fill="midnightblue" stroke="midnightblue" points="743.15,-93.37 751.3,-86.6 740.71,-86.81 743.15,-93.37"/>
</g>
<!-- Node9&#45;&gt;Node10 -->
<g id="edge12" class="edge">
<title>Node9&#45;&gt;Node10</title>
<path fill="none" stroke="midnightblue" d="M325.83,-235.08C326.48,-228.01 327.42,-217.86 328.24,-208.99"/>
<polygon fill="midnightblue" stroke="midnightblue" points="331.75,-209.03 329.19,-198.75 324.78,-208.39 331.75,-209.03"/>
</g>
<!-- Node13 -->
<g id="node13" class="node">
<title>Node13</title>
<g id="a_node13"><a xlink:title=" ">
<polygon fill="white" stroke="#bfbfbf" points="490.5,-179.5 490.5,-198.5 549.5,-198.5 549.5,-179.5 490.5,-179.5"/>
<text text-anchor="middle" x="520" y="-186.5" font-family="'Souce Sans Pro', Roboto, FreeSans, sans-serif" font-size="10.00">algorithm</text>
</a>
</g>
</g>
<!-- Node9&#45;&gt;Node13 -->
<g id="edge16" class="edge">
<title>Node9&#45;&gt;Node13</title>
<path fill="none" stroke="midnightblue" d="M355.9,-235.44C389.57,-226.12 443.54,-211.17 480.32,-200.99"/>
<polygon fill="midnightblue" stroke="midnightblue" points="481.5,-204.29 490.21,-198.25 479.63,-197.55 481.5,-204.29"/>
</g>
<!-- Node14 -->
<g id="node14" class="node">
<title>Node14</title>
<g id="a_node14"><a xlink:title=" ">
<polygon fill="white" stroke="#bfbfbf" points="422,-179.5 422,-198.5 472,-198.5 472,-179.5 422,-179.5"/>
<text text-anchor="middle" x="447" y="-186.5" font-family="'Souce Sans Pro', Roboto, FreeSans, sans-serif" font-size="10.00">cassert</text>
</a>
</g>
</g>
<!-- Node9&#45;&gt;Node14 -->
<g id="edge17" class="edge">
<title>Node9&#45;&gt;Node14</title>
<path fill="none" stroke="midnightblue" d="M344.33,-235.44C364.32,-226.6 395.74,-212.69 418.56,-202.59"/>
<polygon fill="midnightblue" stroke="midnightblue" points="420.03,-205.76 427.76,-198.52 417.2,-199.36 420.03,-205.76"/>
</g>
<!-- Node15 -->
<g id="node15" class="node">
<title>Node15</title>
<g id="a_node15"><a xlink:title=" ">
<polygon fill="white" stroke="#bfbfbf" points="606.5,-179.5 606.5,-198.5 653.5,-198.5 653.5,-179.5 606.5,-179.5"/>
<text text-anchor="middle" x="630" y="-186.5" font-family="'Souce Sans Pro', Roboto, FreeSans, sans-serif" font-size="10.00">atomic</text>
</a>
</g>
</g>
<!-- Node9&#45;&gt;Node15 -->
<g id="edge18" class="edge">
<title>Node9&#45;&gt;Node15</title>
<path fill="none" stroke="midnightblue" d="M382.23,-235.47C436.43,-227.12 520.01,-213.58 592,-199 593.45,-198.71 594.94,-198.4 596.43,-198.08"/>
<polygon fill="midnightblue" stroke="midnightblue" points="597.34,-201.46 606.34,-195.86 595.81,-194.63 597.34,-201.46"/>
</g>
<!-- Node10&#45;&gt;Node2 -->
<g id="edge13" class="edge">
<title>Node10&#45;&gt;Node2</title>
<path fill="none" stroke="midnightblue" d="M358.67,-179.42C402.64,-166.4 489.46,-141.24 564,-123 617.46,-109.91 679.04,-97.09 722.01,-88.5"/>
<polygon fill="midnightblue" stroke="midnightblue" points="722.84,-91.9 731.97,-86.52 721.48,-85.04 722.84,-91.9"/>
</g>
<!-- Node11 -->
<g id="node11" class="node">
<title>Node11</title>
<g id="a_node11"><a xlink:title=" ">
<polygon fill="white" stroke="#bfbfbf" points="200,-123.5 200,-142.5 244,-142.5 244,-123.5 200,-123.5"/>
<text text-anchor="middle" x="222" y="-130.5" font-family="'Souce Sans Pro', Roboto, FreeSans, sans-serif" font-size="10.00">mutex</text>
</a>
</g>
</g>
<!-- Node10&#45;&gt;Node11 -->
<g id="edge14" class="edge">
<title>Node10&#45;&gt;Node11</title>
<path fill="none" stroke="midnightblue" d="M312.65,-179.32C295.33,-170.66 268.48,-157.24 248.5,-147.25"/>
<polygon fill="midnightblue" stroke="midnightblue" points="249.82,-144 239.31,-142.65 246.69,-150.26 249.82,-144"/>
</g>
<!-- Node12 -->
<g id="node12" class="node">
<title>Node12</title>
<g id="a_node12"><a xlink:title=" ">
<polygon fill="white" stroke="#bfbfbf" points="272,-123.5 272,-142.5 368,-142.5 368,-123.5 272,-123.5"/>
<text text-anchor="middle" x="320" y="-130.5" font-family="'Souce Sans Pro', Roboto, FreeSans, sans-serif" font-size="10.00">condition_variable</text>
</a>
</g>
</g>
<!-- Node10&#45;&gt;Node12 -->
<g id="edge15" class="edge">
<title>Node10&#45;&gt;Node12</title>
<path fill="none" stroke="midnightblue" d="M328.35,-179.08C327.02,-171.93 325.12,-161.64 323.46,-152.69"/>
<polygon fill="midnightblue" stroke="midnightblue" points="326.88,-151.95 321.62,-142.75 320,-153.22 326.88,-151.95"/>
</g>
<!-- Node16&#45;&gt;Node2 -->
<g id="edge20" class="edge">
<title>Node16&#45;&gt;Node2</title>
<path fill="none" stroke="midnightblue" d="M942.02,-412.8C1105.5,-410.8 1434.53,-388.2 1347,-235 1340.92,-224.36 1263.29,-183.75 1252,-179 1112.41,-120.24 934.89,-94.25 841.02,-83.94"/>
<polygon fill="midnightblue" stroke="midnightblue" points="841.14,-80.44 830.82,-82.85 840.39,-87.4 841.14,-80.44"/>
</g>
<!-- Node16&#45;&gt;Node5 -->
<g id="edge57" class="edge">
<title>Node16&#45;&gt;Node5</title>
<path fill="none" stroke="midnightblue" d="M856.53,-403.3C862.27,-370.63 882.6,-254.87 890.67,-208.96"/>
<polygon fill="midnightblue" stroke="midnightblue" points="894.16,-209.34 892.44,-198.88 887.26,-208.13 894.16,-209.34"/>
</g>
<!-- Node16&#45;&gt;Node9 -->
<g id="edge58" class="edge">
<title>Node16&#45;&gt;Node9</title>
<path fill="none" stroke="midnightblue" d="M767.7,-406.02C699.02,-399.97 601.34,-388.34 518,-367 451.08,-349.86 427.93,-352.9 373,-311 356.33,-298.28 342.76,-278.25 334.35,-263.78"/>
<polygon fill="midnightblue" stroke="midnightblue" points="337.29,-261.87 329.38,-254.82 331.17,-265.26 337.29,-261.87"/>
</g>
<!-- Node17 -->
<g id="node17" class="node">
<title>Node17</title>
<g id="a_node17"><a xlink:href="appender_8h.html" target="_top" xlink:title=" ">
<polygon fill="white" stroke="black" points="527,-347.5 527,-366.5 639,-366.5 639,-347.5 527,-347.5"/>
<text text-anchor="middle" x="583" y="-354.5" font-family="'Souce Sans Pro', Roboto, FreeSans, sans-serif" font-size="10.00">log4cplus/appender.h</text>
</a>
</g>
</g>
<!-- Node16&#45;&gt;Node17 -->
<g id="edge21" class="edge">
<title>Node16&#45;&gt;Node17</title>
<path fill="none" stroke="midnightblue" d="M811.9,-403.44C764.15,-393.96 687.14,-378.67 635.81,-368.48"/>
<polygon fill="midnightblue" stroke="midnightblue" points="636.39,-365.03 625.9,-366.52 635.02,-371.9 636.39,-365.03"/>
</g>
<!-- Node16&#45;&gt;Node20 -->
<g id="edge59" class="edge">
<title>Node16&#45;&gt;Node20</title>
<path fill="none" stroke="midnightblue" d="M906.04,-403.47C1020.95,-383.12 1294.06,-327.92 1347,-255 1352.22,-247.81 1352.12,-242.27 1347,-235 1341.37,-227.01 1288.64,-210.06 1253.2,-199.4"/>
<polygon fill="midnightblue" stroke="midnightblue" points="1253.85,-195.94 1243.27,-196.44 1251.85,-202.65 1253.85,-195.94"/>
</g>
<!-- Node17&#45;&gt;Node2 -->
<g id="edge22" class="edge">
<title>Node17&#45;&gt;Node2</title>
<path fill="none" stroke="midnightblue" d="M526.65,-353.39C409.83,-346.45 152,-322.45 152,-246 152,-246 152,-246 152,-188 152,-154.31 162.34,-140.71 191,-123 234.38,-96.19 567.81,-83.79 711,-79.66"/>
<polygon fill="midnightblue" stroke="midnightblue" points="711.49,-83.15 721.39,-79.36 711.29,-76.15 711.49,-83.15"/>
</g>
<!-- Node17&#45;&gt;Node5 -->
<g id="edge42" class="edge">
<title>Node17&#45;&gt;Node5</title>
<path fill="none" stroke="midnightblue" d="M618.85,-347.49C670.53,-334.02 767.41,-304.12 837,-255 855.51,-241.94 872.01,-221.68 882.43,-207.26"/>
<polygon fill="midnightblue" stroke="midnightblue" points="885.51,-208.96 888.36,-198.75 879.77,-204.95 885.51,-208.96"/>
</g>
<!-- Node17&#45;&gt;Node9 -->
<g id="edge43" class="edge">
<title>Node17&#45;&gt;Node9</title>
<path fill="none" stroke="midnightblue" d="M526.94,-347.67C491.54,-340.96 445.56,-329.52 408,-311 382,-298.18 356.4,-276.34 340.66,-261.55"/>
<polygon fill="midnightblue" stroke="midnightblue" points="343.01,-258.96 333.37,-254.55 338.15,-264 343.01,-258.96"/>
</g>
<!-- Node17&#45;&gt;Node11 -->
<g id="edge54" class="edge">
<title>Node17&#45;&gt;Node11</title>
<path fill="none" stroke="midnightblue" d="M526.8,-355.93C467.58,-353.88 372.84,-344.9 299,-311 264.04,-294.95 250.73,-289.14 233,-255 215.97,-222.19 217.1,-177.6 219.51,-152.73"/>
<polygon fill="midnightblue" stroke="midnightblue" points="223.02,-152.86 220.68,-142.52 216.06,-152.06 223.02,-152.86"/>
</g>
<!-- Node17&#45;&gt;Node12 -->
<g id="edge56" class="edge">
<title>Node17&#45;&gt;Node12</title>
<path fill="none" stroke="midnightblue" d="M526.98,-347.84C439.73,-333.8 278.12,-301.97 247,-255 228.34,-226.84 229.44,-208.45 246,-179 254.22,-164.38 269.33,-153.95 283.76,-146.85"/>
<polygon fill="midnightblue" stroke="midnightblue" points="285.4,-149.95 293.07,-142.64 282.52,-143.57 285.4,-149.95"/>
</g>
<!-- Node17&#45;&gt;Node15 -->
<g id="edge55" class="edge">
<title>Node17&#45;&gt;Node15</title>
<path fill="none" stroke="midnightblue" d="M547.87,-347.48C525.12,-340.58 495.95,-329.01 475,-311 446.94,-286.88 418.06,-264.04 441,-235 441.15,-234.81 542.38,-210.78 596.61,-197.92"/>
<polygon fill="midnightblue" stroke="midnightblue" points="597.55,-201.29 606.47,-195.58 595.93,-194.48 597.55,-201.29"/>
</g>
<!-- Node18 -->
<g id="node18" class="node">
<title>Node18</title>
<g id="a_node18"><a xlink:href="layout_8h.html" target="_top" xlink:title=" ">
<polygon fill="white" stroke="black" points="1021,-291.5 1021,-310.5 1119,-310.5 1119,-291.5 1021,-291.5"/>
<text text-anchor="middle" x="1070" y="-298.5" font-family="'Souce Sans Pro', Roboto, FreeSans, sans-serif" font-size="10.00">log4cplus/layout.h</text>
</a>
</g>
</g>
<!-- Node17&#45;&gt;Node18 -->
<g id="edge23" class="edge">
<title>Node17&#45;&gt;Node18</title>
<path fill="none" stroke="midnightblue" d="M639.34,-349.75C732.11,-339.47 916.13,-319.06 1010.76,-308.57"/>
<polygon fill="midnightblue" stroke="midnightblue" points="1011.18,-312.04 1020.74,-307.46 1010.41,-305.09 1011.18,-312.04"/>
</g>
<!-- Node19 -->
<g id="node19" class="node">
<title>Node19</title>
<g id="a_node19"><a xlink:href="loglevel_8h.html" target="_top" xlink:title="This header defines the LogLevel type.">
<polygon fill="white" stroke="black" points="724,-235.5 724,-254.5 828,-254.5 828,-235.5 724,-235.5"/>
<text text-anchor="middle" x="776" y="-242.5" font-family="'Souce Sans Pro', Roboto, FreeSans, sans-serif" font-size="10.00">log4cplus/loglevel.h</text>
</a>
</g>
</g>
<!-- Node17&#45;&gt;Node19 -->
<g id="edge41" class="edge">
<title>Node17&#45;&gt;Node19</title>
<path fill="none" stroke="midnightblue" d="M598.14,-347.37C631.55,-328.33 711.76,-282.62 752.05,-259.65"/>
<polygon fill="midnightblue" stroke="midnightblue" points="753.97,-262.58 760.93,-254.59 750.5,-256.5 753.97,-262.58"/>
</g>
<!-- Node17&#45;&gt;Node26 -->
<g id="edge53" class="edge">
<title>Node17&#45;&gt;Node26</title>
<path fill="none" stroke="midnightblue" d="M639.01,-356.12C738.55,-355.29 952.34,-348.78 1128,-311 1184.64,-298.82 1247.7,-273.7 1283.04,-258.51"/>
<polygon fill="midnightblue" stroke="midnightblue" points="1284.47,-261.7 1292.24,-254.5 1281.67,-255.28 1284.47,-261.7"/>
</g>
<!-- Node27 -->
<g id="node27" class="node">
<title>Node27</title>
<g id="a_node27"><a xlink:href="filter_8h.html" target="_top" xlink:title="This header defines Filter and all of it&#39;s subclasses.">
<polygon fill="white" stroke="black" points="484.5,-291.5 484.5,-310.5 591.5,-310.5 591.5,-291.5 484.5,-291.5"/>
<text text-anchor="middle" x="538" y="-298.5" font-family="'Souce Sans Pro', Roboto, FreeSans, sans-serif" font-size="10.00">log4cplus/spi/filter.h</text>
</a>
</g>
</g>
<!-- Node17&#45;&gt;Node27 -->
<g id="edge44" class="edge">
<title>Node17&#45;&gt;Node27</title>
<path fill="none" stroke="midnightblue" d="M575.57,-347.08C569.15,-339.38 559.69,-328.03 551.88,-318.65"/>
<polygon fill="midnightblue" stroke="midnightblue" points="554.38,-316.19 545.29,-310.75 549.01,-320.67 554.38,-316.19"/>
</g>
<!-- Node29 -->
<g id="node29" class="node">
<title>Node29</title>
<g id="a_node29"><a xlink:href="lockfile_8h.html" target="_top" xlink:title=" ">
<polygon fill="white" stroke="black" points="566,-235.5 566,-254.5 706,-254.5 706,-235.5 566,-235.5"/>
<text text-anchor="middle" x="636" y="-242.5" font-family="'Souce Sans Pro', Roboto, FreeSans, sans-serif" font-size="10.00">log4cplus/helpers/lockfile.h</text>
</a>
</g>
</g>
<!-- Node17&#45;&gt;Node29 -->
<g id="edge49" class="edge">
<title>Node17&#45;&gt;Node29</title>
<path fill="none" stroke="midnightblue" d="M587.16,-347.37C595.83,-329.38 615.98,-287.55 627.51,-263.63"/>
<polygon fill="midnightblue" stroke="midnightblue" points="630.67,-265.12 631.86,-254.59 624.37,-262.08 630.67,-265.12"/>
</g>
<!-- Node18&#45;&gt;Node2 -->
<g id="edge24" class="edge">
<title>Node18&#45;&gt;Node2</title>
<path fill="none" stroke="midnightblue" d="M1061.18,-291.27C1052.3,-282.37 1038.34,-268.06 1027,-255 978.03,-198.6 984.63,-165.19 923,-123 898.58,-106.28 867.74,-95.61 840.61,-88.87"/>
<polygon fill="midnightblue" stroke="midnightblue" points="841.34,-85.45 830.81,-86.56 839.74,-92.26 841.34,-85.45"/>
</g>
<!-- Node18&#45;&gt;Node5 -->
<g id="edge33" class="edge">
<title>Node18&#45;&gt;Node5</title>
<path fill="none" stroke="midnightblue" d="M1055.04,-291.39C1039.63,-282.46 1014.98,-268.02 994,-255 966.54,-237.96 935.39,-217.53 915.26,-204.18"/>
<polygon fill="midnightblue" stroke="midnightblue" points="917.1,-201.21 906.83,-198.59 913.23,-207.04 917.1,-201.21"/>
</g>
<!-- Node18&#45;&gt;Node19 -->
<g id="edge25" class="edge">
<title>Node18&#45;&gt;Node19</title>
<path fill="none" stroke="midnightblue" d="M1023.41,-291.44C971.59,-281.92 887.87,-266.55 832.38,-256.36"/>
<polygon fill="midnightblue" stroke="midnightblue" points="832.84,-252.88 822.37,-254.52 831.57,-259.77 832.84,-252.88"/>
</g>
<!-- Node18&#45;&gt;Node20 -->
<g id="edge39" class="edge">
<title>Node18&#45;&gt;Node20</title>
<path fill="none" stroke="midnightblue" d="M1119.11,-293.54C1145.88,-287.64 1177.8,-276.4 1199,-255 1211.17,-242.71 1216.62,-223.46 1219.05,-209.09"/>
<polygon fill="midnightblue" stroke="midnightblue" points="1222.56,-209.21 1220.42,-198.84 1215.62,-208.28 1222.56,-209.21"/>
</g>
<!-- Node21 -->
<g id="node21" class="node">
<title>Node21</title>
<g id="a_node21"><a xlink:href="streams_8h.html" target="_top" xlink:title=" ">
<polygon fill="white" stroke="black" points="1299.5,-179.5 1299.5,-198.5 1406.5,-198.5 1406.5,-179.5 1299.5,-179.5"/>
<text text-anchor="middle" x="1353" y="-186.5" font-family="'Souce Sans Pro', Roboto, FreeSans, sans-serif" font-size="10.00">log4cplus/streams.h</text>
</a>
</g>
</g>
<!-- Node18&#45;&gt;Node21 -->
<g id="edge29" class="edge">
<title>Node18&#45;&gt;Node21</title>
<path fill="none" stroke="midnightblue" d="M1103.65,-291.47C1134.19,-283.35 1180.24,-270.14 1219,-255 1258.25,-239.66 1301.84,-217.51 1328.33,-203.43"/>
<polygon fill="midnightblue" stroke="midnightblue" points="1330.11,-206.45 1337.28,-198.64 1326.81,-200.28 1330.11,-206.45"/>
</g>
<!-- Node23 -->
<g id="node23" class="node">
<title>Node23</title>
<g id="a_node23"><a xlink:href="timehelper_8h.html" target="_top" xlink:title=" ">
<polygon fill="white" stroke="black" points="1036,-235.5 1036,-254.5 1190,-254.5 1190,-235.5 1036,-235.5"/>
<text text-anchor="middle" x="1113" y="-242.5" font-family="'Souce Sans Pro', Roboto, FreeSans, sans-serif" font-size="10.00">log4cplus/helpers/timehelper.h</text>
</a>
</g>
</g>
<!-- Node18&#45;&gt;Node23 -->
<g id="edge34" class="edge">
<title>Node18&#45;&gt;Node23</title>
<path fill="none" stroke="midnightblue" d="M1077.1,-291.08C1083.24,-283.38 1092.27,-272.03 1099.74,-262.65"/>
<polygon fill="midnightblue" stroke="midnightblue" points="1102.54,-264.75 1106.03,-254.75 1097.06,-260.39 1102.54,-264.75"/>
</g>
<!-- Node18&#45;&gt;Node26 -->
<g id="edge40" class="edge">
<title>Node18&#45;&gt;Node26</title>
<path fill="none" stroke="midnightblue" d="M1108.19,-291.44C1153.62,-281.26 1228.97,-264.38 1273.92,-254.31"/>
<polygon fill="midnightblue" stroke="midnightblue" points="1274.84,-257.69 1283.84,-252.09 1273.31,-250.86 1274.84,-257.69"/>
</g>
<!-- Node19&#45;&gt;Node2 -->
<g id="edge26" class="edge">
<title>Node19&#45;&gt;Node2</title>
<path fill="none" stroke="midnightblue" d="M776,-235.08C776,-208.95 776,-132.21 776,-96.58"/>
<polygon fill="midnightblue" stroke="midnightblue" points="779.5,-96.57 776,-86.57 772.5,-96.57 779.5,-96.57"/>
</g>
<!-- Node19&#45;&gt;Node5 -->
<g id="edge28" class="edge">
<title>Node19&#45;&gt;Node5</title>
<path fill="none" stroke="midnightblue" d="M794.7,-235.44C813.94,-226.64 844.15,-212.81 866.2,-202.72"/>
<polygon fill="midnightblue" stroke="midnightblue" points="867.75,-205.86 875.39,-198.52 864.84,-199.5 867.75,-205.86"/>
</g>
<!-- Node19&#45;&gt;Node20 -->
<g id="edge27" class="edge">
<title>Node19&#45;&gt;Node20</title>
<path fill="none" stroke="midnightblue" d="M828.07,-241.26C905.05,-236.57 1053.79,-225.06 1188.66,-198.95"/>
<polygon fill="midnightblue" stroke="midnightblue" points="1189.63,-202.32 1198.76,-196.96 1188.28,-195.46 1189.63,-202.32"/>
</g>
<!-- Node21&#45;&gt;Node2 -->
<g id="edge30" class="edge">
<title>Node21&#45;&gt;Node2</title>
<path fill="none" stroke="midnightblue" d="M1343.48,-179.39C1326.77,-164.85 1290.48,-135.8 1254,-123 1179.44,-96.84 953.17,-84.75 840.78,-80.23"/>
<polygon fill="midnightblue" stroke="midnightblue" points="840.72,-76.73 830.59,-79.83 840.44,-83.72 840.72,-76.73"/>
</g>
<!-- Node21&#45;&gt;Node7 -->
<g id="edge31" class="edge">
<title>Node21&#45;&gt;Node7</title>
<path fill="none" stroke="midnightblue" d="M1353,-179.08C1353,-172.01 1353,-161.86 1353,-152.99"/>
<polygon fill="midnightblue" stroke="midnightblue" points="1356.5,-152.75 1353,-142.75 1349.5,-152.75 1356.5,-152.75"/>
</g>
<!-- Node22 -->
<g id="node22" class="node">
<title>Node22</title>
<g id="a_node22"><a xlink:title=" ">
<polygon fill="white" stroke="#bfbfbf" points="1417.5,-123.5 1417.5,-142.5 1464.5,-142.5 1464.5,-123.5 1417.5,-123.5"/>
<text text-anchor="middle" x="1441" y="-130.5" font-family="'Souce Sans Pro', Roboto, FreeSans, sans-serif" font-size="10.00">iosfwd</text>
</a>
</g>
</g>
<!-- Node21&#45;&gt;Node22 -->
<g id="edge32" class="edge">
<title>Node21&#45;&gt;Node22</title>
<path fill="none" stroke="midnightblue" d="M1367.14,-179.32C1380.87,-170.9 1401.94,-157.97 1418.06,-148.07"/>
<polygon fill="midnightblue" stroke="midnightblue" points="1420.2,-150.87 1426.9,-142.65 1416.54,-144.9 1420.2,-150.87"/>
</g>
<!-- Node23&#45;&gt;Node2 -->
<g id="edge35" class="edge">
<title>Node23&#45;&gt;Node2</title>
<path fill="none" stroke="midnightblue" d="M1102.46,-235.44C1092.35,-226.89 1077.03,-213.03 1066,-199 1041.89,-168.31 1053.91,-145.47 1022,-123 993.46,-102.9 903.72,-90.3 840.92,-83.7"/>
<polygon fill="midnightblue" stroke="midnightblue" points="841,-80.19 830.69,-82.66 840.29,-87.16 841,-80.19"/>
</g>
<!-- Node23&#45;&gt;Node5 -->
<g id="edge36" class="edge">
<title>Node23&#45;&gt;Node5</title>
<path fill="none" stroke="midnightblue" d="M1078.3,-235.44C1040.42,-226.1 979.65,-211.12 938.34,-200.93"/>
<polygon fill="midnightblue" stroke="midnightblue" points="939.09,-197.51 928.54,-198.52 937.41,-204.31 939.09,-197.51"/>
</g>
<!-- Node24 -->
<g id="node24" class="node">
<title>Node24</title>
<g id="a_node24"><a xlink:title=" ">
<polygon fill="white" stroke="#bfbfbf" points="1074.5,-179.5 1074.5,-198.5 1115.5,-198.5 1115.5,-179.5 1074.5,-179.5"/>
<text text-anchor="middle" x="1095" y="-186.5" font-family="'Souce Sans Pro', Roboto, FreeSans, sans-serif" font-size="10.00">ctime</text>
</a>
</g>
</g>
<!-- Node23&#45;&gt;Node24 -->
<g id="edge37" class="edge">
<title>Node23&#45;&gt;Node24</title>
<path fill="none" stroke="midnightblue" d="M1110.03,-235.08C1107.62,-227.85 1104.14,-217.41 1101.13,-208.4"/>
<polygon fill="midnightblue" stroke="midnightblue" points="1104.4,-207.13 1097.92,-198.75 1097.76,-209.34 1104.4,-207.13"/>
</g>
<!-- Node25 -->
<g id="node25" class="node">
<title>Node25</title>
<g id="a_node25"><a xlink:title=" ">
<polygon fill="white" stroke="#bfbfbf" points="1133.5,-179.5 1133.5,-198.5 1180.5,-198.5 1180.5,-179.5 1133.5,-179.5"/>
<text text-anchor="middle" x="1157" y="-186.5" font-family="'Souce Sans Pro', Roboto, FreeSans, sans-serif" font-size="10.00">chrono</text>
</a>
</g>
</g>
<!-- Node23&#45;&gt;Node25 -->
<g id="edge38" class="edge">
<title>Node23&#45;&gt;Node25</title>
<path fill="none" stroke="midnightblue" d="M1120.27,-235.08C1126.54,-227.38 1135.79,-216.03 1143.43,-206.65"/>
<polygon fill="midnightblue" stroke="midnightblue" points="1146.27,-208.71 1149.87,-198.75 1140.84,-204.29 1146.27,-208.71"/>
</g>
<!-- Node27&#45;&gt;Node2 -->
<g id="edge45" class="edge">
<title>Node27&#45;&gt;Node2</title>
<path fill="none" stroke="midnightblue" d="M538.12,-291.18C538.78,-277.38 542.06,-250.64 557,-235 591.07,-199.32 620.54,-225.74 662,-199 667.93,-195.18 731.3,-126.61 760.91,-94.43"/>
<polygon fill="midnightblue" stroke="midnightblue" points="763.79,-96.47 767.98,-86.74 758.63,-91.73 763.79,-96.47"/>
</g>
<!-- Node27&#45;&gt;Node9 -->
<g id="edge47" class="edge">
<title>Node27&#45;&gt;Node9</title>
<path fill="none" stroke="midnightblue" d="M504.25,-291.44C467.48,-282.12 408.55,-267.18 368.38,-257"/>
<polygon fill="midnightblue" stroke="midnightblue" points="369.15,-253.58 358.59,-254.52 367.43,-260.37 369.15,-253.58"/>
</g>
<!-- Node27&#45;&gt;Node19 -->
<g id="edge48" class="edge">
<title>Node27&#45;&gt;Node19</title>
<path fill="none" stroke="midnightblue" d="M575.71,-291.44C617.14,-282.04 683.76,-266.93 728.67,-256.74"/>
<polygon fill="midnightblue" stroke="midnightblue" points="729.49,-260.14 738.46,-254.52 727.94,-253.32 729.49,-260.14"/>
</g>
<!-- Node28 -->
<g id="node28" class="node">
<title>Node28</title>
<g id="a_node28"><a xlink:title=" ">
<polygon fill="white" stroke="#bfbfbf" points="450,-235.5 450,-254.5 510,-254.5 510,-235.5 450,-235.5"/>
<text text-anchor="middle" x="480" y="-242.5" font-family="'Souce Sans Pro', Roboto, FreeSans, sans-serif" font-size="10.00">functional</text>
</a>
</g>
</g>
<!-- Node27&#45;&gt;Node28 -->
<g id="edge46" class="edge">
<title>Node27&#45;&gt;Node28</title>
<path fill="none" stroke="midnightblue" d="M528.68,-291.32C520.11,-283.34 507.19,-271.31 496.81,-261.65"/>
<polygon fill="midnightblue" stroke="midnightblue" points="499.19,-259.09 489.49,-254.83 494.42,-264.21 499.19,-259.09"/>
</g>
<!-- Node29&#45;&gt;Node2 -->
<g id="edge50" class="edge">
<title>Node29&#45;&gt;Node2</title>
<path fill="none" stroke="midnightblue" d="M650.44,-235.21C663.33,-226.91 682.25,-213.59 696,-199 726.82,-166.3 753.54,-120.41 766.9,-95.59"/>
<polygon fill="midnightblue" stroke="midnightblue" points="770.06,-97.1 771.64,-86.63 763.87,-93.83 770.06,-97.1"/>
</g>
<!-- Node29&#45;&gt;Node5 -->
<g id="edge51" class="edge">
<title>Node29&#45;&gt;Node5</title>
<path fill="none" stroke="midnightblue" d="M676.88,-235.44C721.98,-226 794.61,-210.8 843.3,-200.61"/>
<polygon fill="midnightblue" stroke="midnightblue" points="844.24,-203.99 853.31,-198.52 842.81,-197.14 844.24,-203.99"/>
</g>
<!-- Node29&#45;&gt;Node10 -->
<g id="edge52" class="edge">
<title>Node29&#45;&gt;Node10</title>
<path fill="none" stroke="midnightblue" d="M587.51,-235.44C533.46,-225.9 446.07,-210.48 388.33,-200.29"/>
<polygon fill="midnightblue" stroke="midnightblue" points="388.72,-196.81 378.26,-198.52 387.5,-203.7 388.72,-196.81"/>
</g>
</g>
</svg>
