<?xml version="1.0" encoding="UTF-8" standalone="no"?>
<!DOCTYPE svg PUBLIC "-//W3C//DTD SVG 1.1//EN"
 "http://www.w3.org/Graphics/SVG/1.1/DTD/svg11.dtd">
<!-- Generated by graphviz version 2.43.0 (0)
 -->
<!-- Title: log4cplus::Layout Pages: 1 -->
<svg width="408pt" height="84pt"
 viewBox="0.00 0.00 408.00 84.00" xmlns="http://www.w3.org/2000/svg" xmlns:xlink="http://www.w3.org/1999/xlink">
<g id="graph0" class="graph" transform="scale(1 1) rotate(0) translate(4 80)">
<title>log4cplus::Layout</title>
<polygon fill="white" stroke="transparent" points="-4,4 -4,-80 404,-80 404,4 -4,4"/>
<!-- Node1 -->
<g id="node1" class="node">
<title>Node1</title>
<g id="a_node1"><a xlink:title="This class is used to layout strings sent to an {}.">
<polygon fill="#bfbfbf" stroke="black" points="157,-56.5 157,-75.5 249,-75.5 249,-56.5 157,-56.5"/>
<text text-anchor="middle" x="203" y="-63.5" font-family="'Souce Sans Pro', Roboto, FreeSans, sans-serif" font-size="10.00">log4cplus::Layout</text>
</a>
</g>
</g>
<!-- Node2 -->
<g id="node2" class="node">
<title>Node2</title>
<g id="a_node2"><a xlink:href="classlog4cplus_1_1PatternLayout.html" target="_top" xlink:title="A flexible layout configurable with pattern string.">
<polygon fill="white" stroke="black" points="0,-0.5 0,-19.5 124,-19.5 124,-0.5 0,-0.5"/>
<text text-anchor="middle" x="62" y="-7.5" font-family="'Souce Sans Pro', Roboto, FreeSans, sans-serif" font-size="10.00">log4cplus::PatternLayout</text>
</a>
</g>
</g>
<!-- Node1&#45;&gt;Node2 -->
<g id="edge1" class="edge">
<title>Node1&#45;&gt;Node2</title>
<path fill="none" stroke="midnightblue" d="M171.07,-52.77C144.59,-42.63 107.61,-28.47 84.24,-19.52"/>
<polygon fill="midnightblue" stroke="midnightblue" points="170.07,-56.14 180.66,-56.44 172.57,-49.6 170.07,-56.14"/>
</g>
<!-- Node3 -->
<g id="node3" class="node">
<title>Node3</title>
<g id="a_node3"><a xlink:href="classlog4cplus_1_1SimpleLayout.html" target="_top" xlink:title="SimpleLayout consists of the LogLevel of the log statement, followed by &quot; &#45; &quot; and then the log messag...">
<polygon fill="white" stroke="black" points="142,-0.5 142,-19.5 264,-19.5 264,-0.5 142,-0.5"/>
<text text-anchor="middle" x="203" y="-7.5" font-family="'Souce Sans Pro', Roboto, FreeSans, sans-serif" font-size="10.00">log4cplus::SimpleLayout</text>
</a>
</g>
</g>
<!-- Node1&#45;&gt;Node3 -->
<g id="edge2" class="edge">
<title>Node1&#45;&gt;Node3</title>
<path fill="none" stroke="midnightblue" d="M203,-45.8C203,-36.91 203,-26.78 203,-19.75"/>
<polygon fill="midnightblue" stroke="midnightblue" points="199.5,-46.08 203,-56.08 206.5,-46.08 199.5,-46.08"/>
</g>
<!-- Node4 -->
<g id="node4" class="node">
<title>Node4</title>
<g id="a_node4"><a xlink:href="classlog4cplus_1_1TTCCLayout.html" target="_top" xlink:title="TTCC layout format consists of time, thread, Logger and nested diagnostic context information,...">
<polygon fill="white" stroke="black" points="282,-0.5 282,-19.5 400,-19.5 400,-0.5 282,-0.5"/>
<text text-anchor="middle" x="341" y="-7.5" font-family="'Souce Sans Pro', Roboto, FreeSans, sans-serif" font-size="10.00">log4cplus::TTCCLayout</text>
</a>
</g>
</g>
<!-- Node1&#45;&gt;Node4 -->
<g id="edge3" class="edge">
<title>Node1&#45;&gt;Node4</title>
<path fill="none" stroke="midnightblue" d="M234.25,-52.77C260.17,-42.63 296.36,-28.47 319.24,-19.52"/>
<polygon fill="midnightblue" stroke="midnightblue" points="232.9,-49.54 224.87,-56.44 235.45,-56.06 232.9,-49.54"/>
</g>
</g>
</svg>
