<?xml version="1.0" encoding="UTF-8" standalone="no"?>
<!DOCTYPE svg PUBLIC "-//W3C//DTD SVG 1.1//EN"
 "http://www.w3.org/Graphics/SVG/1.1/DTD/svg11.dtd">
<!-- Generated by graphviz version 2.43.0 (0)
 -->
<!-- Title: log4cplus::spi::FactoryRegistry&lt; T &gt; Pages: 1 -->
<svg width="178pt" height="163pt"
 viewBox="0.00 0.00 178.00 163.00" xmlns="http://www.w3.org/2000/svg" xmlns:xlink="http://www.w3.org/1999/xlink">
<g id="graph0" class="graph" transform="scale(1 1) rotate(0) translate(4 159)">
<title>log4cplus::spi::FactoryRegistry&lt; T &gt;</title>
<polygon fill="white" stroke="transparent" points="-4,4 -4,-159 174,-159 174,4 -4,4"/>
<!-- Node1 -->
<g id="node1" class="node">
<title>Node1</title>
<g id="a_node1"><a xlink:title="This template class is used as a &quot;Factory Registry&quot;.">
<polygon fill="#bfbfbf" stroke="black" points="0,-0.5 0,-19.5 170,-19.5 170,-0.5 0,-0.5"/>
<text text-anchor="middle" x="85" y="-7.5" font-family="'Souce Sans Pro', Roboto, FreeSans, sans-serif" font-size="10.00">log4cplus::spi::FactoryRegistry&lt; T &gt;</text>
</a>
</g>
</g>
<!-- Node2 -->
<g id="node2" class="node">
<title>Node2</title>
<g id="a_node2"><a xlink:href="classlog4cplus_1_1spi_1_1ObjectRegistryBase.html" target="_top" xlink:title="This is the base class used to implement the functionality required by the ObjectRegistry template cl...">
<polygon fill="white" stroke="black" points="2.5,-57.5 2.5,-76.5 167.5,-76.5 167.5,-57.5 2.5,-57.5"/>
<text text-anchor="middle" x="85" y="-64.5" font-family="'Souce Sans Pro', Roboto, FreeSans, sans-serif" font-size="10.00">log4cplus::spi::ObjectRegistryBase</text>
</a>
</g>
</g>
<!-- Node2&#45;&gt;Node1 -->
<g id="edge1" class="edge">
<title>Node2&#45;&gt;Node1</title>
<path fill="none" stroke="midnightblue" d="M85,-47.12C85,-37.82 85,-27.06 85,-19.71"/>
<polygon fill="midnightblue" stroke="midnightblue" points="81.5,-47.41 85,-57.41 88.5,-47.41 81.5,-47.41"/>
</g>
<!-- Node3 -->
<g id="node3" class="node">
<title>Node3</title>
<g id="a_node3"><a xlink:href="classlog4cplus_1_1thread_1_1Mutex.html" target="_top" xlink:title=" ">
<polygon fill="white" stroke="black" points="37.5,-124.5 37.5,-154.5 132.5,-154.5 132.5,-124.5 37.5,-124.5"/>
<text text-anchor="start" x="45.5" y="-142.5" font-family="'Souce Sans Pro', Roboto, FreeSans, sans-serif" font-size="10.00">log4cplus::thread::</text>
<text text-anchor="middle" x="85" y="-131.5" font-family="'Souce Sans Pro', Roboto, FreeSans, sans-serif" font-size="10.00">Mutex</text>
</a>
</g>
</g>
<!-- Node3&#45;&gt;Node2 -->
<g id="edge2" class="edge">
<title>Node3&#45;&gt;Node2</title>
<path fill="none" stroke="#9a32cd" stroke-dasharray="5,2" d="M85,-114.09C85,-101.21 85,-86.2 85,-76.89"/>
<polygon fill="#9a32cd" stroke="#9a32cd" points="81.5,-114.23 85,-124.23 88.5,-114.23 81.5,-114.23"/>
<text text-anchor="middle" x="100.5" y="-98" font-family="'Souce Sans Pro', Roboto, FreeSans, sans-serif" font-size="10.00"> mutex</text>
</g>
</g>
</svg>
