<?xml version="1.0" encoding="UTF-8" standalone="no"?>
<!DOCTYPE svg PUBLIC "-//W3C//DTD SVG 1.1//EN"
 "http://www.w3.org/Graphics/SVG/1.1/DTD/svg11.dtd">
<!-- Generated by graphviz version 2.43.0 (0)
 -->
<!-- Title: log4cplus::PropertyConfigurator Pages: 1 -->
<svg width="226pt" height="106pt"
 viewBox="0.00 0.00 225.50 106.00" xmlns="http://www.w3.org/2000/svg" xmlns:xlink="http://www.w3.org/1999/xlink">
<g id="graph0" class="graph" transform="scale(1 1) rotate(0) translate(4 102)">
<title>log4cplus::PropertyConfigurator</title>
<polygon fill="white" stroke="transparent" points="-4,4 -4,-102 221.5,-102 221.5,4 -4,4"/>
<!-- Node1 -->
<g id="node1" class="node">
<title>Node1</title>
<g id="a_node1"><a xlink:title="Provides configuration from an external file.">
<polygon fill="#bfbfbf" stroke="black" points="29,-0.5 29,-19.5 184,-19.5 184,-0.5 29,-0.5"/>
<text text-anchor="middle" x="106.5" y="-7.5" font-family="'Souce Sans Pro', Roboto, FreeSans, sans-serif" font-size="10.00">log4cplus::PropertyConfigurator</text>
</a>
</g>
</g>
<!-- Node2 -->
<g id="node2" class="node">
<title>Node2</title>
<g id="a_node2"><a xlink:href="classlog4cplus_1_1helpers_1_1Properties.html" target="_top" xlink:title=" ">
<polygon fill="white" stroke="black" points="0,-67.5 0,-97.5 95,-97.5 95,-67.5 0,-67.5"/>
<text text-anchor="start" x="8" y="-85.5" font-family="'Souce Sans Pro', Roboto, FreeSans, sans-serif" font-size="10.00">log4cplus::helpers</text>
<text text-anchor="middle" x="47.5" y="-74.5" font-family="'Souce Sans Pro', Roboto, FreeSans, sans-serif" font-size="10.00">::Properties</text>
</a>
</g>
</g>
<!-- Node2&#45;&gt;Node1 -->
<g id="edge1" class="edge">
<title>Node2&#45;&gt;Node1</title>
<path fill="none" stroke="#9a32cd" stroke-dasharray="5,2" d="M66.01,-59.38C77.18,-46.04 90.8,-29.76 99.06,-19.89"/>
<polygon fill="#9a32cd" stroke="#9a32cd" points="63.17,-57.32 59.44,-67.23 68.54,-61.81 63.17,-57.32"/>
<text text-anchor="middle" x="106" y="-41" font-family="'Souce Sans Pro', Roboto, FreeSans, sans-serif" font-size="10.00"> properties</text>
</g>
<!-- Node3 -->
<g id="node3" class="node">
<title>Node3</title>
<g id="a_node3"><a xlink:href="classlog4cplus_1_1Hierarchy.html" target="_top" xlink:title="This class is specialized in retrieving loggers by name and also maintaining the logger hierarchy.">
<polygon fill="white" stroke="black" points="113.5,-73 113.5,-92 217.5,-92 217.5,-73 113.5,-73"/>
<text text-anchor="middle" x="165.5" y="-80" font-family="'Souce Sans Pro', Roboto, FreeSans, sans-serif" font-size="10.00">log4cplus::Hierarchy</text>
</a>
</g>
</g>
<!-- Node3&#45;&gt;Node1 -->
<g id="edge2" class="edge">
<title>Node3&#45;&gt;Node1</title>
<path fill="none" stroke="#9a32cd" stroke-dasharray="5,2" d="M153.87,-64.46C148.03,-56.24 140.69,-46.37 133.5,-38 127.97,-31.56 121.22,-24.81 115.85,-19.67"/>
<polygon fill="#9a32cd" stroke="#9a32cd" points="151.14,-66.67 159.73,-72.87 156.89,-62.67 151.14,-66.67"/>
<text text-anchor="middle" x="145.5" y="-41" font-family="'Souce Sans Pro', Roboto, FreeSans, sans-serif" font-size="10.00"> h</text>
</g>
</g>
</svg>
