<?xml version="1.0" encoding="UTF-8" standalone="no"?>
<!DOCTYPE svg PUBLIC "-//W3C//DTD SVG 1.1//EN"
 "http://www.w3.org/Graphics/SVG/1.1/DTD/svg11.dtd">
<!-- Generated by graphviz version 2.43.0 (0)
 -->
<!-- Title: log4cplus::FileAppenderBase Pages: 1 -->
<svg width="372pt" height="285pt"
 viewBox="0.00 0.00 371.50 285.00" xmlns="http://www.w3.org/2000/svg" xmlns:xlink="http://www.w3.org/1999/xlink">
<g id="graph0" class="graph" transform="scale(1 1) rotate(0) translate(4 281)">
<title>log4cplus::FileAppenderBase</title>
<polygon fill="white" stroke="transparent" points="-4,4 -4,-281 367.5,-281 367.5,4 -4,4"/>
<!-- Node1 -->
<g id="node1" class="node">
<title>Node1</title>
<g id="a_node1"><a xlink:title="Base class for Appenders writing log events to a file.">
<polygon fill="#bfbfbf" stroke="black" points="145.5,-134.5 145.5,-153.5 288.5,-153.5 288.5,-134.5 145.5,-134.5"/>
<text text-anchor="middle" x="217" y="-141.5" font-family="'Souce Sans Pro', Roboto, FreeSans, sans-serif" font-size="10.00">log4cplus::FileAppenderBase</text>
</a>
</g>
</g>
<!-- Node4 -->
<g id="node4" class="node">
<title>Node4</title>
<g id="a_node4"><a xlink:href="classlog4cplus_1_1FileAppender.html" target="_top" xlink:title="Appends log events to a file.">
<polygon fill="white" stroke="black" points="81.5,-73 81.5,-92 202.5,-92 202.5,-73 81.5,-73"/>
<text text-anchor="middle" x="142" y="-80" font-family="'Souce Sans Pro', Roboto, FreeSans, sans-serif" font-size="10.00">log4cplus::FileAppender</text>
</a>
</g>
</g>
<!-- Node1&#45;&gt;Node4 -->
<g id="edge3" class="edge">
<title>Node1&#45;&gt;Node4</title>
<path fill="none" stroke="midnightblue" d="M198.06,-127.97C183.71,-116.59 164.52,-101.37 152.73,-92.01"/>
<polygon fill="midnightblue" stroke="midnightblue" points="196.24,-131 206.25,-134.48 200.6,-125.52 196.24,-131"/>
</g>
<!-- Node7 -->
<g id="node7" class="node">
<title>Node7</title>
<g id="a_node7"><a xlink:href="classlog4cplus_1_1TimeBasedRollingFileAppender.html" target="_top" xlink:title="TimeBasedRollingFileAppender extends FileAppenderBase so that the underlying file is rolled over at a...">
<polygon fill="white" stroke="black" points="220.5,-67.5 220.5,-97.5 363.5,-97.5 363.5,-67.5 220.5,-67.5"/>
<text text-anchor="start" x="228.5" y="-85.5" font-family="'Souce Sans Pro', Roboto, FreeSans, sans-serif" font-size="10.00">log4cplus::TimeBasedRolling</text>
<text text-anchor="middle" x="292" y="-74.5" font-family="'Souce Sans Pro', Roboto, FreeSans, sans-serif" font-size="10.00">FileAppender</text>
</a>
</g>
</g>
<!-- Node1&#45;&gt;Node7 -->
<g id="edge6" class="edge">
<title>Node1&#45;&gt;Node7</title>
<path fill="none" stroke="midnightblue" d="M235.66,-128.2C247.49,-118.81 262.69,-106.75 274.32,-97.52"/>
<polygon fill="midnightblue" stroke="midnightblue" points="233.4,-125.52 227.75,-134.48 237.76,-131 233.4,-125.52"/>
</g>
<!-- Node2 -->
<g id="node2" class="node">
<title>Node2</title>
<g id="a_node2"><a xlink:href="classlog4cplus_1_1Appender.html" target="_top" xlink:title="Extend this class for implementing your own strategies for printing log statements.">
<polygon fill="white" stroke="black" points="164,-190.5 164,-209.5 270,-209.5 270,-190.5 164,-190.5"/>
<text text-anchor="middle" x="217" y="-197.5" font-family="'Souce Sans Pro', Roboto, FreeSans, sans-serif" font-size="10.00">log4cplus::Appender</text>
</a>
</g>
</g>
<!-- Node2&#45;&gt;Node1 -->
<g id="edge1" class="edge">
<title>Node2&#45;&gt;Node1</title>
<path fill="none" stroke="midnightblue" d="M217,-179.8C217,-170.91 217,-160.78 217,-153.75"/>
<polygon fill="midnightblue" stroke="midnightblue" points="213.5,-180.08 217,-190.08 220.5,-180.08 213.5,-180.08"/>
</g>
<!-- Node3 -->
<g id="node3" class="node">
<title>Node3</title>
<g id="a_node3"><a xlink:href="classlog4cplus_1_1helpers_1_1SharedObject.html" target="_top" xlink:title=" ">
<polygon fill="white" stroke="black" points="169.5,-246.5 169.5,-276.5 264.5,-276.5 264.5,-246.5 169.5,-246.5"/>
<text text-anchor="start" x="177.5" y="-264.5" font-family="'Souce Sans Pro', Roboto, FreeSans, sans-serif" font-size="10.00">log4cplus::helpers</text>
<text text-anchor="middle" x="217" y="-253.5" font-family="'Souce Sans Pro', Roboto, FreeSans, sans-serif" font-size="10.00">::SharedObject</text>
</a>
</g>
</g>
<!-- Node3&#45;&gt;Node2 -->
<g id="edge2" class="edge">
<title>Node3&#45;&gt;Node2</title>
<path fill="none" stroke="midnightblue" d="M217,-236.29C217,-226.86 217,-216.65 217,-209.66"/>
<polygon fill="midnightblue" stroke="midnightblue" points="213.5,-236.4 217,-246.4 220.5,-236.4 213.5,-236.4"/>
</g>
<!-- Node5 -->
<g id="node5" class="node">
<title>Node5</title>
<g id="a_node5"><a xlink:href="classlog4cplus_1_1DailyRollingFileAppender.html" target="_top" xlink:title="DailyRollingFileAppender extends FileAppender so that the underlying file is rolled over at a user ch...">
<polygon fill="white" stroke="black" points="0,-0.5 0,-30.5 128,-30.5 128,-0.5 0,-0.5"/>
<text text-anchor="start" x="8" y="-18.5" font-family="'Souce Sans Pro', Roboto, FreeSans, sans-serif" font-size="10.00">log4cplus::DailyRollingFile</text>
<text text-anchor="middle" x="64" y="-7.5" font-family="'Souce Sans Pro', Roboto, FreeSans, sans-serif" font-size="10.00">Appender</text>
</a>
</g>
</g>
<!-- Node4&#45;&gt;Node5 -->
<g id="edge4" class="edge">
<title>Node4&#45;&gt;Node5</title>
<path fill="none" stroke="midnightblue" d="M123.68,-66.24C110.74,-55.45 93.52,-41.1 80.91,-30.59"/>
<polygon fill="midnightblue" stroke="midnightblue" points="121.56,-69.02 131.48,-72.73 126.04,-63.64 121.56,-69.02"/>
</g>
<!-- Node6 -->
<g id="node6" class="node">
<title>Node6</title>
<g id="a_node6"><a xlink:href="classlog4cplus_1_1RollingFileAppender.html" target="_top" xlink:title="RollingFileAppender extends FileAppender to backup the log files when they reach a certain size.">
<polygon fill="white" stroke="black" points="146,-6 146,-25 296,-25 296,-6 146,-6"/>
<text text-anchor="middle" x="221" y="-13" font-family="'Souce Sans Pro', Roboto, FreeSans, sans-serif" font-size="10.00">log4cplus::RollingFileAppender</text>
</a>
</g>
</g>
<!-- Node4&#45;&gt;Node6 -->
<g id="edge5" class="edge">
<title>Node4&#45;&gt;Node6</title>
<path fill="none" stroke="midnightblue" d="M160.58,-66.21C176.14,-53.41 197.8,-35.59 210.51,-25.13"/>
<polygon fill="midnightblue" stroke="midnightblue" points="158.15,-63.68 152.65,-72.73 162.6,-69.08 158.15,-63.68"/>
</g>
</g>
</svg>
