<?xml version="1.0" encoding="UTF-8" standalone="no"?>
<!DOCTYPE svg PUBLIC "-//W3C//DTD SVG 1.1//EN"
 "http://www.w3.org/Graphics/SVG/1.1/DTD/svg11.dtd">
<!-- Generated by graphviz version 2.43.0 (0)
 -->
<!-- Title: log4cplus::BasicConfigurator Pages: 1 -->
<svg width="226pt" height="163pt"
 viewBox="0.00 0.00 225.50 163.00" xmlns="http://www.w3.org/2000/svg" xmlns:xlink="http://www.w3.org/1999/xlink">
<g id="graph0" class="graph" transform="scale(1 1) rotate(0) translate(4 159)">
<title>log4cplus::BasicConfigurator</title>
<polygon fill="white" stroke="transparent" points="-4,4 -4,-159 221.5,-159 221.5,4 -4,4"/>
<!-- Node1 -->
<g id="node1" class="node">
<title>Node1</title>
<g id="a_node1"><a xlink:title="Use this class to quickly configure the package.">
<polygon fill="#bfbfbf" stroke="black" points="35.5,-0.5 35.5,-19.5 177.5,-19.5 177.5,-0.5 35.5,-0.5"/>
<text text-anchor="middle" x="106.5" y="-7.5" font-family="'Souce Sans Pro', Roboto, FreeSans, sans-serif" font-size="10.00">log4cplus::BasicConfigurator</text>
</a>
</g>
</g>
<!-- Node2 -->
<g id="node2" class="node">
<title>Node2</title>
<g id="a_node2"><a xlink:href="classlog4cplus_1_1PropertyConfigurator.html" target="_top" xlink:title="Provides configuration from an external file.">
<polygon fill="white" stroke="black" points="29,-57.5 29,-76.5 184,-76.5 184,-57.5 29,-57.5"/>
<text text-anchor="middle" x="106.5" y="-64.5" font-family="'Souce Sans Pro', Roboto, FreeSans, sans-serif" font-size="10.00">log4cplus::PropertyConfigurator</text>
</a>
</g>
</g>
<!-- Node2&#45;&gt;Node1 -->
<g id="edge1" class="edge">
<title>Node2&#45;&gt;Node1</title>
<path fill="none" stroke="midnightblue" d="M106.5,-47.12C106.5,-37.82 106.5,-27.06 106.5,-19.71"/>
<polygon fill="midnightblue" stroke="midnightblue" points="103,-47.41 106.5,-57.41 110,-47.41 103,-47.41"/>
</g>
<!-- Node3 -->
<g id="node3" class="node">
<title>Node3</title>
<g id="a_node3"><a xlink:href="classlog4cplus_1_1helpers_1_1Properties.html" target="_top" xlink:title=" ">
<polygon fill="white" stroke="black" points="0,-124.5 0,-154.5 95,-154.5 95,-124.5 0,-124.5"/>
<text text-anchor="start" x="8" y="-142.5" font-family="'Souce Sans Pro', Roboto, FreeSans, sans-serif" font-size="10.00">log4cplus::helpers</text>
<text text-anchor="middle" x="47.5" y="-131.5" font-family="'Souce Sans Pro', Roboto, FreeSans, sans-serif" font-size="10.00">::Properties</text>
</a>
</g>
</g>
<!-- Node3&#45;&gt;Node2 -->
<g id="edge2" class="edge">
<title>Node3&#45;&gt;Node2</title>
<path fill="none" stroke="#9a32cd" stroke-dasharray="5,2" d="M66.01,-116.38C77.18,-103.04 90.8,-86.76 99.06,-76.89"/>
<polygon fill="#9a32cd" stroke="#9a32cd" points="63.17,-114.32 59.44,-124.23 68.54,-118.81 63.17,-114.32"/>
<text text-anchor="middle" x="106" y="-98" font-family="'Souce Sans Pro', Roboto, FreeSans, sans-serif" font-size="10.00"> properties</text>
</g>
<!-- Node4 -->
<g id="node4" class="node">
<title>Node4</title>
<g id="a_node4"><a xlink:href="classlog4cplus_1_1Hierarchy.html" target="_top" xlink:title="This class is specialized in retrieving loggers by name and also maintaining the logger hierarchy.">
<polygon fill="white" stroke="black" points="113.5,-130 113.5,-149 217.5,-149 217.5,-130 113.5,-130"/>
<text text-anchor="middle" x="165.5" y="-137" font-family="'Souce Sans Pro', Roboto, FreeSans, sans-serif" font-size="10.00">log4cplus::Hierarchy</text>
</a>
</g>
</g>
<!-- Node4&#45;&gt;Node2 -->
<g id="edge3" class="edge">
<title>Node4&#45;&gt;Node2</title>
<path fill="none" stroke="#9a32cd" stroke-dasharray="5,2" d="M153.87,-121.46C148.03,-113.24 140.69,-103.37 133.5,-95 127.97,-88.56 121.22,-81.81 115.85,-76.67"/>
<polygon fill="#9a32cd" stroke="#9a32cd" points="151.14,-123.67 159.73,-129.87 156.89,-119.67 151.14,-123.67"/>
<text text-anchor="middle" x="145.5" y="-98" font-family="'Souce Sans Pro', Roboto, FreeSans, sans-serif" font-size="10.00"> h</text>
</g>
</g>
</svg>
