<?xml version="1.0" encoding="UTF-8" standalone="no"?>
<!DOCTYPE svg PUBLIC "-//W3C//DTD SVG 1.1//EN"
 "http://www.w3.org/Graphics/SVG/1.1/DTD/svg11.dtd">
<!-- Generated by graphviz version 2.43.0 (0)
 -->
<!-- Title: log4cplus::helpers::AppenderAttachableImpl Pages: 1 -->
<svg width="291pt" height="218pt"
 viewBox="0.00 0.00 290.50 218.00" xmlns="http://www.w3.org/2000/svg" xmlns:xlink="http://www.w3.org/1999/xlink">
<g id="graph0" class="graph" transform="scale(1 1) rotate(0) translate(4 214)">
<title>log4cplus::helpers::AppenderAttachableImpl</title>
<polygon fill="white" stroke="transparent" points="-4,4 -4,-214 286.5,-214 286.5,4 -4,4"/>
<!-- Node1 -->
<g id="node1" class="node">
<title>Node1</title>
<g id="a_node1"><a xlink:title="This Interface is for attaching Appenders to objects.">
<polygon fill="#bfbfbf" stroke="black" points="76.5,-112.5 76.5,-142.5 206.5,-142.5 206.5,-112.5 76.5,-112.5"/>
<text text-anchor="start" x="84.5" y="-130.5" font-family="'Souce Sans Pro', Roboto, FreeSans, sans-serif" font-size="10.00">log4cplus::helpers</text>
<text text-anchor="middle" x="141.5" y="-119.5" font-family="'Souce Sans Pro', Roboto, FreeSans, sans-serif" font-size="10.00">::AppenderAttachableImpl</text>
</a>
</g>
</g>
<!-- Node3 -->
<g id="node3" class="node">
<title>Node3</title>
<g id="a_node3"><a xlink:href="classlog4cplus_1_1AsyncAppender.html" target="_top" xlink:title="This Appender is a wrapper to which other appenders can be attached.">
<polygon fill="white" stroke="black" points="0,-56.5 0,-75.5 133,-75.5 133,-56.5 0,-56.5"/>
<text text-anchor="middle" x="66.5" y="-63.5" font-family="'Souce Sans Pro', Roboto, FreeSans, sans-serif" font-size="10.00">log4cplus::AsyncAppender</text>
</a>
</g>
</g>
<!-- Node1&#45;&gt;Node3 -->
<g id="edge2" class="edge">
<title>Node1&#45;&gt;Node3</title>
<path fill="none" stroke="midnightblue" d="M115.53,-105.89C102.48,-95.54 87.37,-83.56 77.41,-75.66"/>
<polygon fill="midnightblue" stroke="midnightblue" points="113.72,-108.93 123.73,-112.4 118.07,-103.44 113.72,-108.93"/>
</g>
<!-- Node4 -->
<g id="node4" class="node">
<title>Node4</title>
<g id="a_node4"><a xlink:href="classlog4cplus_1_1spi_1_1LoggerImpl.html" target="_top" xlink:title="This is the central class in the log4cplus package.">
<polygon fill="white" stroke="black" points="151,-56.5 151,-75.5 282,-75.5 282,-56.5 151,-56.5"/>
<text text-anchor="middle" x="216.5" y="-63.5" font-family="'Souce Sans Pro', Roboto, FreeSans, sans-serif" font-size="10.00">log4cplus::spi::LoggerImpl</text>
</a>
</g>
</g>
<!-- Node1&#45;&gt;Node4 -->
<g id="edge3" class="edge">
<title>Node1&#45;&gt;Node4</title>
<path fill="none" stroke="midnightblue" d="M167.47,-105.89C180.52,-95.54 195.63,-83.56 205.59,-75.66"/>
<polygon fill="midnightblue" stroke="midnightblue" points="164.93,-103.44 159.27,-112.4 169.28,-108.93 164.93,-103.44"/>
</g>
<!-- Node2 -->
<g id="node2" class="node">
<title>Node2</title>
<g id="a_node2"><a xlink:href="classlog4cplus_1_1spi_1_1AppenderAttachable.html" target="_top" xlink:title="This Interface is for attaching Appenders to objects.">
<polygon fill="white" stroke="black" points="80,-179.5 80,-209.5 203,-209.5 203,-179.5 80,-179.5"/>
<text text-anchor="start" x="88" y="-197.5" font-family="'Souce Sans Pro', Roboto, FreeSans, sans-serif" font-size="10.00">log4cplus::spi::Appender</text>
<text text-anchor="middle" x="141.5" y="-186.5" font-family="'Souce Sans Pro', Roboto, FreeSans, sans-serif" font-size="10.00">Attachable</text>
</a>
</g>
</g>
<!-- Node2&#45;&gt;Node1 -->
<g id="edge1" class="edge">
<title>Node2&#45;&gt;Node1</title>
<path fill="none" stroke="midnightblue" d="M141.5,-169.11C141.5,-160.15 141.5,-150.32 141.5,-142.58"/>
<polygon fill="midnightblue" stroke="midnightblue" points="138,-169.4 141.5,-179.4 145,-169.4 138,-169.4"/>
</g>
<!-- Node5 -->
<g id="node5" class="node">
<title>Node5</title>
<g id="a_node5"><a xlink:href="classlog4cplus_1_1spi_1_1RootLogger.html" target="_top" xlink:title="RootLogger sits at the top of the logger hierachy.">
<polygon fill="white" stroke="black" points="150.5,-0.5 150.5,-19.5 282.5,-19.5 282.5,-0.5 150.5,-0.5"/>
<text text-anchor="middle" x="216.5" y="-7.5" font-family="'Souce Sans Pro', Roboto, FreeSans, sans-serif" font-size="10.00">log4cplus::spi::RootLogger</text>
</a>
</g>
</g>
<!-- Node4&#45;&gt;Node5 -->
<g id="edge4" class="edge">
<title>Node4&#45;&gt;Node5</title>
<path fill="none" stroke="midnightblue" d="M216.5,-45.8C216.5,-36.91 216.5,-26.78 216.5,-19.75"/>
<polygon fill="midnightblue" stroke="midnightblue" points="213,-46.08 216.5,-56.08 220,-46.08 213,-46.08"/>
</g>
</g>
</svg>
