<?xml version="1.0" encoding="UTF-8" standalone="no"?>
<!DOCTYPE svg PUBLIC "-//W3C//DTD SVG 1.1//EN"
 "http://www.w3.org/Graphics/SVG/1.1/DTD/svg11.dtd">
<!-- Generated by graphviz version 2.43.0 (0)
 -->
<!-- Title: log4cplus::TimeBasedRollingFileAppender Pages: 1 -->
<svg width="252pt" height="309pt"
 viewBox="0.00 0.00 251.50 309.00" xmlns="http://www.w3.org/2000/svg" xmlns:xlink="http://www.w3.org/1999/xlink">
<g id="graph0" class="graph" transform="scale(1 1) rotate(0) translate(4 305)">
<title>log4cplus::TimeBasedRollingFileAppender</title>
<polygon fill="white" stroke="transparent" points="-4,4 -4,-305 247.5,-305 247.5,4 -4,4"/>
<!-- Node1 -->
<g id="node1" class="node">
<title>Node1</title>
<g id="a_node1"><a xlink:title="TimeBasedRollingFileAppender extends FileAppenderBase so that the underlying file is rolled over at a...">
<polygon fill="#bfbfbf" stroke="black" points="41,-0.5 41,-30.5 184,-30.5 184,-0.5 41,-0.5"/>
<text text-anchor="start" x="49" y="-18.5" font-family="'Souce Sans Pro', Roboto, FreeSans, sans-serif" font-size="10.00">log4cplus::TimeBasedRolling</text>
<text text-anchor="middle" x="112.5" y="-7.5" font-family="'Souce Sans Pro', Roboto, FreeSans, sans-serif" font-size="10.00">FileAppender</text>
</a>
</g>
</g>
<!-- Node2 -->
<g id="node2" class="node">
<title>Node2</title>
<g id="a_node2"><a xlink:href="classlog4cplus_1_1FileAppenderBase.html" target="_top" xlink:title="Base class for Appenders writing log events to a file.">
<polygon fill="white" stroke="black" points="41,-68.5 41,-87.5 184,-87.5 184,-68.5 41,-68.5"/>
<text text-anchor="middle" x="112.5" y="-75.5" font-family="'Souce Sans Pro', Roboto, FreeSans, sans-serif" font-size="10.00">log4cplus::FileAppenderBase</text>
</a>
</g>
</g>
<!-- Node2&#45;&gt;Node1 -->
<g id="edge1" class="edge">
<title>Node2&#45;&gt;Node1</title>
<path fill="none" stroke="midnightblue" d="M112.5,-58.22C112.5,-49.36 112.5,-38.96 112.5,-30.76"/>
<polygon fill="midnightblue" stroke="midnightblue" points="109,-58.33 112.5,-68.33 116,-58.33 109,-58.33"/>
</g>
<!-- Node3 -->
<g id="node3" class="node">
<title>Node3</title>
<g id="a_node3"><a xlink:href="classlog4cplus_1_1Appender.html" target="_top" xlink:title="Extend this class for implementing your own strategies for printing log statements.">
<polygon fill="white" stroke="black" points="59.5,-125.5 59.5,-144.5 165.5,-144.5 165.5,-125.5 59.5,-125.5"/>
<text text-anchor="middle" x="112.5" y="-132.5" font-family="'Souce Sans Pro', Roboto, FreeSans, sans-serif" font-size="10.00">log4cplus::Appender</text>
</a>
</g>
</g>
<!-- Node3&#45;&gt;Node2 -->
<g id="edge2" class="edge">
<title>Node3&#45;&gt;Node2</title>
<path fill="none" stroke="midnightblue" d="M112.5,-115.12C112.5,-105.82 112.5,-95.06 112.5,-87.71"/>
<polygon fill="midnightblue" stroke="midnightblue" points="109,-115.41 112.5,-125.41 116,-115.41 109,-115.41"/>
</g>
<!-- Node4 -->
<g id="node4" class="node">
<title>Node4</title>
<g id="a_node4"><a xlink:href="classlog4cplus_1_1helpers_1_1SharedObject.html" target="_top" xlink:title=" ">
<polygon fill="white" stroke="black" points="0,-192.5 0,-222.5 95,-222.5 95,-192.5 0,-192.5"/>
<text text-anchor="start" x="8" y="-210.5" font-family="'Souce Sans Pro', Roboto, FreeSans, sans-serif" font-size="10.00">log4cplus::helpers</text>
<text text-anchor="middle" x="47.5" y="-199.5" font-family="'Souce Sans Pro', Roboto, FreeSans, sans-serif" font-size="10.00">::SharedObject</text>
</a>
</g>
</g>
<!-- Node4&#45;&gt;Node3 -->
<g id="edge3" class="edge">
<title>Node4&#45;&gt;Node3</title>
<path fill="none" stroke="midnightblue" d="M67.54,-184.76C79.91,-171.34 95.12,-154.85 104.3,-144.89"/>
<polygon fill="midnightblue" stroke="midnightblue" points="64.86,-182.51 60.65,-192.23 70.01,-187.25 64.86,-182.51"/>
</g>
<!-- Node5 -->
<g id="node5" class="node">
<title>Node5</title>
<g id="a_node5"><a xlink:href="classlog4cplus_1_1thread_1_1Mutex.html" target="_top" xlink:title=" ">
<polygon fill="white" stroke="black" points="0,-270.5 0,-300.5 95,-300.5 95,-270.5 0,-270.5"/>
<text text-anchor="start" x="8" y="-288.5" font-family="'Souce Sans Pro', Roboto, FreeSans, sans-serif" font-size="10.00">log4cplus::thread::</text>
<text text-anchor="middle" x="47.5" y="-277.5" font-family="'Souce Sans Pro', Roboto, FreeSans, sans-serif" font-size="10.00">Mutex</text>
</a>
</g>
</g>
<!-- Node5&#45;&gt;Node4 -->
<g id="edge4" class="edge">
<title>Node5&#45;&gt;Node4</title>
<path fill="none" stroke="#9a32cd" stroke-dasharray="5,2" d="M47.5,-260.09C47.5,-247.76 47.5,-233.22 47.5,-222.73"/>
<polygon fill="#9a32cd" stroke="#9a32cd" points="44,-260.2 47.5,-270.2 51,-260.21 44,-260.2"/>
<text text-anchor="middle" x="81" y="-244" font-family="'Souce Sans Pro', Roboto, FreeSans, sans-serif" font-size="10.00"> access_mutex</text>
</g>
<!-- Node6 -->
<g id="node6" class="node">
<title>Node6</title>
<g id="a_node6"><a xlink:href="classlog4cplus_1_1helpers_1_1SharedObjectPtr.html" target="_top" xlink:title=" ">
<polygon fill="white" stroke="black" points="113.5,-192.5 113.5,-222.5 243.5,-222.5 243.5,-192.5 113.5,-192.5"/>
<text text-anchor="start" x="121.5" y="-210.5" font-family="'Souce Sans Pro', Roboto, FreeSans, sans-serif" font-size="10.00">log4cplus::helpers</text>
<text text-anchor="middle" x="178.5" y="-199.5" font-family="'Souce Sans Pro', Roboto, FreeSans, sans-serif" font-size="10.00">::SharedObjectPtr&lt; Filter &gt;</text>
</a>
</g>
</g>
<!-- Node6&#45;&gt;Node3 -->
<g id="edge5" class="edge">
<title>Node6&#45;&gt;Node3</title>
<path fill="none" stroke="#9a32cd" stroke-dasharray="5,2" d="M158.15,-184.76C145.59,-171.34 130.15,-154.85 120.83,-144.89"/>
<polygon fill="#9a32cd" stroke="#9a32cd" points="155.75,-187.33 165.14,-192.23 160.86,-182.54 155.75,-187.33"/>
<text text-anchor="middle" x="158.5" y="-166" font-family="'Souce Sans Pro', Roboto, FreeSans, sans-serif" font-size="10.00"> filter</text>
</g>
<!-- Node7 -->
<g id="node7" class="node">
<title>Node7</title>
<g id="a_node7"><a xlink:href="classlog4cplus_1_1helpers_1_1SharedObjectPtr.html" target="_top" xlink:title=" ">
<polygon fill="white" stroke="black" points="121.5,-270.5 121.5,-300.5 235.5,-300.5 235.5,-270.5 121.5,-270.5"/>
<text text-anchor="start" x="129.5" y="-288.5" font-family="'Souce Sans Pro', Roboto, FreeSans, sans-serif" font-size="10.00">log4cplus::helpers</text>
<text text-anchor="middle" x="178.5" y="-277.5" font-family="'Souce Sans Pro', Roboto, FreeSans, sans-serif" font-size="10.00">::SharedObjectPtr&lt; T &gt;</text>
</a>
</g>
</g>
<!-- Node7&#45;&gt;Node6 -->
<g id="edge6" class="edge">
<title>Node7&#45;&gt;Node6</title>
<path fill="none" stroke="orange" stroke-dasharray="5,2" d="M178.5,-260.09C178.5,-247.76 178.5,-233.22 178.5,-222.73"/>
<polygon fill="orange" stroke="orange" points="175,-260.2 178.5,-270.2 182,-260.21 175,-260.2"/>
<text text-anchor="middle" x="198.5" y="-244" font-family="'Souce Sans Pro', Roboto, FreeSans, sans-serif" font-size="10.00"> &lt; Filter &gt;</text>
</g>
</g>
</svg>
