<?xml version="1.0" encoding="UTF-8" standalone="no"?>
<!DOCTYPE svg PUBLIC "-//W3C//DTD SVG 1.1//EN"
 "http://www.w3.org/Graphics/SVG/1.1/DTD/svg11.dtd">
<!-- Generated by graphviz version 2.43.0 (0)
 -->
<!-- Title: log4cplus::helpers::AppenderAttachableImpl Pages: 1 -->
<svg width="262pt" height="117pt"
 viewBox="0.00 0.00 261.50 117.00" xmlns="http://www.w3.org/2000/svg" xmlns:xlink="http://www.w3.org/1999/xlink">
<g id="graph0" class="graph" transform="scale(1 1) rotate(0) translate(4 113)">
<title>log4cplus::helpers::AppenderAttachableImpl</title>
<polygon fill="white" stroke="transparent" points="-4,4 -4,-113 257.5,-113 257.5,4 -4,4"/>
<!-- Node1 -->
<g id="node1" class="node">
<title>Node1</title>
<g id="a_node1"><a xlink:title="This Interface is for attaching Appenders to objects.">
<polygon fill="#bfbfbf" stroke="black" points="59.5,-0.5 59.5,-30.5 189.5,-30.5 189.5,-0.5 59.5,-0.5"/>
<text text-anchor="start" x="67.5" y="-18.5" font-family="'Souce Sans Pro', Roboto, FreeSans, sans-serif" font-size="10.00">log4cplus::helpers</text>
<text text-anchor="middle" x="124.5" y="-7.5" font-family="'Souce Sans Pro', Roboto, FreeSans, sans-serif" font-size="10.00">::AppenderAttachableImpl</text>
</a>
</g>
</g>
<!-- Node2 -->
<g id="node2" class="node">
<title>Node2</title>
<g id="a_node2"><a xlink:href="classlog4cplus_1_1spi_1_1AppenderAttachable.html" target="_top" xlink:title="This Interface is for attaching Appenders to objects.">
<polygon fill="white" stroke="black" points="0,-78.5 0,-108.5 123,-108.5 123,-78.5 0,-78.5"/>
<text text-anchor="start" x="8" y="-96.5" font-family="'Souce Sans Pro', Roboto, FreeSans, sans-serif" font-size="10.00">log4cplus::spi::Appender</text>
<text text-anchor="middle" x="61.5" y="-85.5" font-family="'Souce Sans Pro', Roboto, FreeSans, sans-serif" font-size="10.00">Attachable</text>
</a>
</g>
</g>
<!-- Node2&#45;&gt;Node1 -->
<g id="edge1" class="edge">
<title>Node2&#45;&gt;Node1</title>
<path fill="none" stroke="midnightblue" d="M79.9,-70.31C90.49,-57.53 103.48,-41.86 112.7,-30.73"/>
<polygon fill="midnightblue" stroke="midnightblue" points="77.04,-68.27 73.35,-78.2 82.43,-72.74 77.04,-68.27"/>
</g>
<!-- Node3 -->
<g id="node3" class="node">
<title>Node3</title>
<g id="a_node3"><a xlink:href="classlog4cplus_1_1thread_1_1Mutex.html" target="_top" xlink:title=" ">
<polygon fill="white" stroke="black" points="141,-78.5 141,-108.5 236,-108.5 236,-78.5 141,-78.5"/>
<text text-anchor="start" x="149" y="-96.5" font-family="'Souce Sans Pro', Roboto, FreeSans, sans-serif" font-size="10.00">log4cplus::thread::</text>
<text text-anchor="middle" x="188.5" y="-85.5" font-family="'Souce Sans Pro', Roboto, FreeSans, sans-serif" font-size="10.00">Mutex</text>
</a>
</g>
</g>
<!-- Node3&#45;&gt;Node1 -->
<g id="edge2" class="edge">
<title>Node3&#45;&gt;Node1</title>
<path fill="none" stroke="#9a32cd" stroke-dasharray="5,2" d="M169.81,-70.31C159.05,-57.53 145.86,-41.86 136.48,-30.73"/>
<polygon fill="#9a32cd" stroke="#9a32cd" points="167.34,-72.81 176.46,-78.2 172.7,-68.3 167.34,-72.81"/>
<text text-anchor="middle" x="206.5" y="-52" font-family="'Souce Sans Pro', Roboto, FreeSans, sans-serif" font-size="10.00"> appender_list_mutex</text>
</g>
</g>
</svg>
