<?xml version="1.0" encoding="UTF-8" standalone="no"?>
<!DOCTYPE svg PUBLIC "-//W3C//DTD SVG 1.1//EN"
 "http://www.w3.org/Graphics/SVG/1.1/DTD/svg11.dtd">
<!-- Generated by graphviz version 2.43.0 (0)
 -->
<!-- Title: log4cplus::spi::StringMatchFilter Pages: 1 -->
<svg width="142pt" height="162pt"
 viewBox="0.00 0.00 142.00 162.00" xmlns="http://www.w3.org/2000/svg" xmlns:xlink="http://www.w3.org/1999/xlink">
<g id="graph0" class="graph" transform="scale(1 1) rotate(0) translate(4 158)">
<title>log4cplus::spi::StringMatchFilter</title>
<polygon fill="white" stroke="transparent" points="-4,4 -4,-158 138,-158 138,4 -4,4"/>
<!-- Node1 -->
<g id="node1" class="node">
<title>Node1</title>
<g id="a_node1"><a xlink:title="This is a very simple filter based on string matching.">
<polygon fill="#bfbfbf" stroke="black" points="0,-0.5 0,-30.5 134,-30.5 134,-0.5 0,-0.5"/>
<text text-anchor="start" x="8" y="-18.5" font-family="'Souce Sans Pro', Roboto, FreeSans, sans-serif" font-size="10.00">log4cplus::spi::StringMatch</text>
<text text-anchor="middle" x="67" y="-7.5" font-family="'Souce Sans Pro', Roboto, FreeSans, sans-serif" font-size="10.00">Filter</text>
</a>
</g>
</g>
<!-- Node2 -->
<g id="node2" class="node">
<title>Node2</title>
<g id="a_node2"><a xlink:href="classlog4cplus_1_1spi_1_1Filter.html" target="_top" xlink:title="Users should extend this class to implement customized logging event filtering.">
<polygon fill="white" stroke="black" points="16,-67.5 16,-86.5 118,-86.5 118,-67.5 16,-67.5"/>
<text text-anchor="middle" x="67" y="-74.5" font-family="'Souce Sans Pro', Roboto, FreeSans, sans-serif" font-size="10.00">log4cplus::spi::Filter</text>
</a>
</g>
</g>
<!-- Node2&#45;&gt;Node1 -->
<g id="edge1" class="edge">
<title>Node2&#45;&gt;Node1</title>
<path fill="none" stroke="midnightblue" d="M67,-57.23C67,-48.59 67,-38.5 67,-30.52"/>
<polygon fill="midnightblue" stroke="midnightblue" points="63.5,-57.48 67,-67.48 70.5,-57.48 63.5,-57.48"/>
</g>
<!-- Node3 -->
<g id="node3" class="node">
<title>Node3</title>
<g id="a_node3"><a xlink:href="classlog4cplus_1_1helpers_1_1SharedObject.html" target="_top" xlink:title=" ">
<polygon fill="white" stroke="black" points="19.5,-123.5 19.5,-153.5 114.5,-153.5 114.5,-123.5 19.5,-123.5"/>
<text text-anchor="start" x="27.5" y="-141.5" font-family="'Souce Sans Pro', Roboto, FreeSans, sans-serif" font-size="10.00">log4cplus::helpers</text>
<text text-anchor="middle" x="67" y="-130.5" font-family="'Souce Sans Pro', Roboto, FreeSans, sans-serif" font-size="10.00">::SharedObject</text>
</a>
</g>
</g>
<!-- Node3&#45;&gt;Node2 -->
<g id="edge2" class="edge">
<title>Node3&#45;&gt;Node2</title>
<path fill="none" stroke="midnightblue" d="M67,-113.29C67,-103.86 67,-93.65 67,-86.66"/>
<polygon fill="midnightblue" stroke="midnightblue" points="63.5,-113.4 67,-123.4 70.5,-113.4 63.5,-113.4"/>
</g>
</g>
</svg>
