<?xml version="1.0" encoding="UTF-8" standalone="no"?>
<!DOCTYPE svg PUBLIC "-//W3C//DTD SVG 1.1//EN"
 "http://www.w3.org/Graphics/SVG/1.1/DTD/svg11.dtd">
<!-- Generated by graphviz version 2.43.0 (0)
 -->
<!-- Title: log4cplus::spi::AppenderAttachable Pages: 1 -->
<svg width="326pt" height="218pt"
 viewBox="0.00 0.00 326.00 218.00" xmlns="http://www.w3.org/2000/svg" xmlns:xlink="http://www.w3.org/1999/xlink">
<g id="graph0" class="graph" transform="scale(1 1) rotate(0) translate(4 214)">
<title>log4cplus::spi::AppenderAttachable</title>
<polygon fill="white" stroke="transparent" points="-4,4 -4,-214 322,-214 322,4 -4,4"/>
<!-- Node1 -->
<g id="node1" class="node">
<title>Node1</title>
<g id="a_node1"><a xlink:title="This Interface is for attaching Appenders to objects.">
<polygon fill="#bfbfbf" stroke="black" points="50.5,-179.5 50.5,-209.5 173.5,-209.5 173.5,-179.5 50.5,-179.5"/>
<text text-anchor="start" x="58.5" y="-197.5" font-family="'Souce Sans Pro', Roboto, FreeSans, sans-serif" font-size="10.00">log4cplus::spi::Appender</text>
<text text-anchor="middle" x="112" y="-186.5" font-family="'Souce Sans Pro', Roboto, FreeSans, sans-serif" font-size="10.00">Attachable</text>
</a>
</g>
</g>
<!-- Node2 -->
<g id="node2" class="node">
<title>Node2</title>
<g id="a_node2"><a xlink:href="classlog4cplus_1_1Logger.html" target="_top" xlink:title="This is the central class in the log4cplus package.">
<polygon fill="white" stroke="black" points="0,-118 0,-137 94,-137 94,-118 0,-118"/>
<text text-anchor="middle" x="47" y="-125" font-family="'Souce Sans Pro', Roboto, FreeSans, sans-serif" font-size="10.00">log4cplus::Logger</text>
</a>
</g>
</g>
<!-- Node1&#45;&gt;Node2 -->
<g id="edge1" class="edge">
<title>Node1&#45;&gt;Node2</title>
<path fill="none" stroke="midnightblue" d="M90.5,-172C78.63,-160.13 64.55,-146.05 55.69,-137.19"/>
<polygon fill="midnightblue" stroke="midnightblue" points="88.35,-174.8 97.9,-179.4 93.3,-169.85 88.35,-174.8"/>
</g>
<!-- Node3 -->
<g id="node3" class="node">
<title>Node3</title>
<g id="a_node3"><a xlink:href="classlog4cplus_1_1helpers_1_1AppenderAttachableImpl.html" target="_top" xlink:title="This Interface is for attaching Appenders to objects.">
<polygon fill="white" stroke="black" points="112,-112.5 112,-142.5 242,-142.5 242,-112.5 112,-112.5"/>
<text text-anchor="start" x="120" y="-130.5" font-family="'Souce Sans Pro', Roboto, FreeSans, sans-serif" font-size="10.00">log4cplus::helpers</text>
<text text-anchor="middle" x="177" y="-119.5" font-family="'Souce Sans Pro', Roboto, FreeSans, sans-serif" font-size="10.00">::AppenderAttachableImpl</text>
</a>
</g>
</g>
<!-- Node1&#45;&gt;Node3 -->
<g id="edge2" class="edge">
<title>Node1&#45;&gt;Node3</title>
<path fill="none" stroke="midnightblue" d="M133.19,-172.31C142.94,-162.56 154.24,-151.26 162.92,-142.58"/>
<polygon fill="midnightblue" stroke="midnightblue" points="130.7,-169.85 126.1,-179.4 135.65,-174.8 130.7,-169.85"/>
</g>
<!-- Node4 -->
<g id="node4" class="node">
<title>Node4</title>
<g id="a_node4"><a xlink:href="classlog4cplus_1_1AsyncAppender.html" target="_top" xlink:title="This Appender is a wrapper to which other appenders can be attached.">
<polygon fill="white" stroke="black" points="35.5,-56.5 35.5,-75.5 168.5,-75.5 168.5,-56.5 35.5,-56.5"/>
<text text-anchor="middle" x="102" y="-63.5" font-family="'Souce Sans Pro', Roboto, FreeSans, sans-serif" font-size="10.00">log4cplus::AsyncAppender</text>
</a>
</g>
</g>
<!-- Node3&#45;&gt;Node4 -->
<g id="edge3" class="edge">
<title>Node3&#45;&gt;Node4</title>
<path fill="none" stroke="midnightblue" d="M151.03,-105.89C137.98,-95.54 122.87,-83.56 112.91,-75.66"/>
<polygon fill="midnightblue" stroke="midnightblue" points="149.22,-108.93 159.23,-112.4 153.57,-103.44 149.22,-108.93"/>
</g>
<!-- Node5 -->
<g id="node5" class="node">
<title>Node5</title>
<g id="a_node5"><a xlink:href="classlog4cplus_1_1spi_1_1LoggerImpl.html" target="_top" xlink:title="This is the central class in the log4cplus package.">
<polygon fill="white" stroke="black" points="186.5,-56.5 186.5,-75.5 317.5,-75.5 317.5,-56.5 186.5,-56.5"/>
<text text-anchor="middle" x="252" y="-63.5" font-family="'Souce Sans Pro', Roboto, FreeSans, sans-serif" font-size="10.00">log4cplus::spi::LoggerImpl</text>
</a>
</g>
</g>
<!-- Node3&#45;&gt;Node5 -->
<g id="edge4" class="edge">
<title>Node3&#45;&gt;Node5</title>
<path fill="none" stroke="midnightblue" d="M202.97,-105.89C216.02,-95.54 231.13,-83.56 241.09,-75.66"/>
<polygon fill="midnightblue" stroke="midnightblue" points="200.43,-103.44 194.77,-112.4 204.78,-108.93 200.43,-103.44"/>
</g>
<!-- Node6 -->
<g id="node6" class="node">
<title>Node6</title>
<g id="a_node6"><a xlink:href="classlog4cplus_1_1spi_1_1RootLogger.html" target="_top" xlink:title="RootLogger sits at the top of the logger hierachy.">
<polygon fill="white" stroke="black" points="186,-0.5 186,-19.5 318,-19.5 318,-0.5 186,-0.5"/>
<text text-anchor="middle" x="252" y="-7.5" font-family="'Souce Sans Pro', Roboto, FreeSans, sans-serif" font-size="10.00">log4cplus::spi::RootLogger</text>
</a>
</g>
</g>
<!-- Node5&#45;&gt;Node6 -->
<g id="edge5" class="edge">
<title>Node5&#45;&gt;Node6</title>
<path fill="none" stroke="midnightblue" d="M252,-45.8C252,-36.91 252,-26.78 252,-19.75"/>
<polygon fill="midnightblue" stroke="midnightblue" points="248.5,-46.08 252,-56.08 255.5,-46.08 248.5,-46.08"/>
</g>
</g>
</svg>
