<?xml version="1.0" encoding="UTF-8" standalone="no"?>
<!DOCTYPE svg PUBLIC "-//W3C//DTD SVG 1.1//EN"
 "http://www.w3.org/Graphics/SVG/1.1/DTD/svg11.dtd">
<!-- Generated by graphviz version 2.43.0 (0)
 -->
<!-- Title: log4cplus::SocketAppender Pages: 1 -->
<svg width="889pt" height="231pt"
 viewBox="0.00 0.00 889.00 231.00" xmlns="http://www.w3.org/2000/svg" xmlns:xlink="http://www.w3.org/1999/xlink">
<g id="graph0" class="graph" transform="scale(1 1) rotate(0) translate(4 227)">
<title>log4cplus::SocketAppender</title>
<polygon fill="white" stroke="transparent" points="-4,4 -4,-227 885,-227 885,4 -4,4"/>
<!-- Node1 -->
<g id="node1" class="node">
<title>Node1</title>
<g id="a_node1"><a xlink:title="Sends spi::InternalLoggingEvent objects to a remote a log server.">
<polygon fill="#bfbfbf" stroke="black" points="744,-81 744,-100 881,-100 881,-81 744,-81"/>
<text text-anchor="middle" x="812.5" y="-88" font-family="'Souce Sans Pro', Roboto, FreeSans, sans-serif" font-size="10.00">log4cplus::SocketAppender</text>
</a>
</g>
</g>
<!-- Node2 -->
<g id="node2" class="node">
<title>Node2</title>
<g id="a_node2"><a xlink:href="classlog4cplus_1_1Appender.html" target="_top" xlink:title="Extend this class for implementing your own strategies for printing log statements.">
<polygon fill="white" stroke="black" points="559,-149 559,-168 665,-168 665,-149 559,-149"/>
<text text-anchor="middle" x="612" y="-156" font-family="'Souce Sans Pro', Roboto, FreeSans, sans-serif" font-size="10.00">log4cplus::Appender</text>
</a>
</g>
</g>
<!-- Node2&#45;&gt;Node1 -->
<g id="edge1" class="edge">
<title>Node2&#45;&gt;Node1</title>
<path fill="none" stroke="midnightblue" d="M669.92,-146.68C688.06,-142.31 708.08,-136.85 726,-130.5 750.1,-121.97 776.58,-108.98 793.59,-100.14"/>
<polygon fill="midnightblue" stroke="midnightblue" points="668.99,-143.3 660.06,-149 670.59,-150.12 668.99,-143.3"/>
</g>
<!-- Node3 -->
<g id="node3" class="node">
<title>Node3</title>
<g id="a_node3"><a xlink:href="classlog4cplus_1_1helpers_1_1SharedObject.html" target="_top" xlink:title=" ">
<polygon fill="white" stroke="black" points="257.5,-192.5 257.5,-222.5 352.5,-222.5 352.5,-192.5 257.5,-192.5"/>
<text text-anchor="start" x="265.5" y="-210.5" font-family="'Souce Sans Pro', Roboto, FreeSans, sans-serif" font-size="10.00">log4cplus::helpers</text>
<text text-anchor="middle" x="305" y="-199.5" font-family="'Souce Sans Pro', Roboto, FreeSans, sans-serif" font-size="10.00">::SharedObject</text>
</a>
</g>
</g>
<!-- Node3&#45;&gt;Node2 -->
<g id="edge2" class="edge">
<title>Node3&#45;&gt;Node2</title>
<path fill="none" stroke="midnightblue" d="M362.6,-199.51C408.15,-192.95 473.78,-183.18 531,-173.5 540.89,-171.83 551.45,-169.93 561.55,-168.06"/>
<polygon fill="midnightblue" stroke="midnightblue" points="362.02,-196.06 352.62,-200.95 363.01,-202.99 362.02,-196.06"/>
</g>
<!-- Node4 -->
<g id="node4" class="node">
<title>Node4</title>
<g id="a_node4"><a xlink:href="classlog4cplus_1_1thread_1_1Mutex.html" target="_top" xlink:title=" ">
<polygon fill="white" stroke="black" points="9.5,-192.5 9.5,-222.5 104.5,-222.5 104.5,-192.5 9.5,-192.5"/>
<text text-anchor="start" x="17.5" y="-210.5" font-family="'Souce Sans Pro', Roboto, FreeSans, sans-serif" font-size="10.00">log4cplus::thread::</text>
<text text-anchor="middle" x="57" y="-199.5" font-family="'Souce Sans Pro', Roboto, FreeSans, sans-serif" font-size="10.00">Mutex</text>
</a>
</g>
</g>
<!-- Node4&#45;&gt;Node3 -->
<g id="edge3" class="edge">
<title>Node4&#45;&gt;Node3</title>
<path fill="none" stroke="#9a32cd" stroke-dasharray="5,2" d="M114.63,-207.5C157.84,-207.5 216.65,-207.5 257.21,-207.5"/>
<polygon fill="#9a32cd" stroke="#9a32cd" points="114.56,-204 104.56,-207.5 114.56,-211 114.56,-204"/>
<text text-anchor="middle" x="177" y="-210.5" font-family="'Souce Sans Pro', Roboto, FreeSans, sans-serif" font-size="10.00"> access_mutex</text>
</g>
<!-- Node5 -->
<g id="node5" class="node">
<title>Node5</title>
<g id="a_node5"><a xlink:href="classlog4cplus_1_1helpers_1_1SharedObjectPtr.html" target="_top" xlink:title=" ">
<polygon fill="white" stroke="black" points="240,-143.5 240,-173.5 370,-173.5 370,-143.5 240,-143.5"/>
<text text-anchor="start" x="248" y="-161.5" font-family="'Souce Sans Pro', Roboto, FreeSans, sans-serif" font-size="10.00">log4cplus::helpers</text>
<text text-anchor="middle" x="305" y="-150.5" font-family="'Souce Sans Pro', Roboto, FreeSans, sans-serif" font-size="10.00">::SharedObjectPtr&lt; Filter &gt;</text>
</a>
</g>
</g>
<!-- Node5&#45;&gt;Node2 -->
<g id="edge4" class="edge">
<title>Node5&#45;&gt;Node2</title>
<path fill="none" stroke="#9a32cd" stroke-dasharray="5,2" d="M380.41,-158.5C435.73,-158.5 509.83,-158.5 558.93,-158.5"/>
<polygon fill="#9a32cd" stroke="#9a32cd" points="380.31,-155 370.31,-158.5 380.31,-162 380.31,-155"/>
<text text-anchor="middle" x="459.5" y="-161.5" font-family="'Souce Sans Pro', Roboto, FreeSans, sans-serif" font-size="10.00"> filter</text>
</g>
<!-- Node6 -->
<g id="node6" class="node">
<title>Node6</title>
<g id="a_node6"><a xlink:href="classlog4cplus_1_1helpers_1_1SharedObjectPtr.html" target="_top" xlink:title=" ">
<polygon fill="white" stroke="black" points="0,-121.5 0,-151.5 114,-151.5 114,-121.5 0,-121.5"/>
<text text-anchor="start" x="8" y="-139.5" font-family="'Souce Sans Pro', Roboto, FreeSans, sans-serif" font-size="10.00">log4cplus::helpers</text>
<text text-anchor="middle" x="57" y="-128.5" font-family="'Souce Sans Pro', Roboto, FreeSans, sans-serif" font-size="10.00">::SharedObjectPtr&lt; T &gt;</text>
</a>
</g>
</g>
<!-- Node6&#45;&gt;Node5 -->
<g id="edge5" class="edge">
<title>Node6&#45;&gt;Node5</title>
<path fill="none" stroke="orange" stroke-dasharray="5,2" d="M124.49,-142.45C160.34,-145.65 204.38,-149.59 239.86,-152.76"/>
<polygon fill="orange" stroke="orange" points="124.4,-138.92 114.13,-141.52 123.78,-145.9 124.4,-138.92"/>
<text text-anchor="middle" x="177" y="-153.5" font-family="'Souce Sans Pro', Roboto, FreeSans, sans-serif" font-size="10.00"> &lt; Filter &gt;</text>
</g>
<!-- Node8 -->
<g id="node8" class="node">
<title>Node8</title>
<g id="a_node8"><a xlink:href="classlog4cplus_1_1helpers_1_1SharedObjectPtr.html" target="_top" xlink:title=" ">
<polygon fill="white" stroke="black" points="388,-93 388,-134 531,-134 531,-93 388,-93"/>
<text text-anchor="start" x="396" y="-122" font-family="'Souce Sans Pro', Roboto, FreeSans, sans-serif" font-size="10.00">log4cplus::helpers</text>
<text text-anchor="start" x="396" y="-111" font-family="'Souce Sans Pro', Roboto, FreeSans, sans-serif" font-size="10.00">::SharedObjectPtr&lt; log4cplus</text>
<text text-anchor="middle" x="459.5" y="-100" font-family="'Souce Sans Pro', Roboto, FreeSans, sans-serif" font-size="10.00">::helpers::ConnectorThread &gt;</text>
</a>
</g>
</g>
<!-- Node6&#45;&gt;Node8 -->
<g id="edge8" class="edge">
<title>Node6&#45;&gt;Node8</title>
<path fill="none" stroke="orange" stroke-dasharray="5,2" d="M120.16,-119.41C124.15,-118.66 128.12,-118.01 132,-117.5 219.53,-105.9 321.4,-106.93 387.77,-109.52"/>
<polygon fill="orange" stroke="orange" points="119.34,-116 110.25,-121.44 120.75,-122.86 119.34,-116"/>
<text text-anchor="start" x="132" y="-131.5" font-family="'Souce Sans Pro', Roboto, FreeSans, sans-serif" font-size="10.00"> &lt; log4cplus::helpers</text>
<text text-anchor="middle" x="177" y="-120.5" font-family="'Souce Sans Pro', Roboto, FreeSans, sans-serif" font-size="10.00">::ConnectorThread &gt;</text>
</g>
<!-- Node7 -->
<g id="node7" class="node">
<title>Node7</title>
<g id="a_node7"><a xlink:href="classlog4cplus_1_1helpers_1_1IConnectorThreadClient.html" target="_top" xlink:title="Interface implemented by users of ConnectorThread.">
<polygon fill="white" stroke="black" points="549,-49.5 549,-79.5 675,-79.5 675,-49.5 549,-49.5"/>
<text text-anchor="start" x="557" y="-67.5" font-family="'Souce Sans Pro', Roboto, FreeSans, sans-serif" font-size="10.00">log4cplus::helpers</text>
<text text-anchor="middle" x="612" y="-56.5" font-family="'Souce Sans Pro', Roboto, FreeSans, sans-serif" font-size="10.00">::IConnectorThreadClient</text>
</a>
</g>
</g>
<!-- Node7&#45;&gt;Node1 -->
<g id="edge6" class="edge">
<title>Node7&#45;&gt;Node1</title>
<path fill="none" stroke="darkgreen" d="M685.41,-73.99C704.54,-76.49 725.1,-79.18 743.95,-81.65"/>
<polygon fill="darkgreen" stroke="darkgreen" points="685.63,-70.48 675.26,-72.66 684.72,-77.42 685.63,-70.48"/>
</g>
<!-- Node8&#45;&gt;Node1 -->
<g id="edge7" class="edge">
<title>Node8&#45;&gt;Node1</title>
<path fill="none" stroke="#9a32cd" stroke-dasharray="5,2" d="M541.15,-108.22C602.55,-104.19 686.09,-98.72 743.98,-94.92"/>
<polygon fill="#9a32cd" stroke="#9a32cd" points="540.86,-104.73 531.11,-108.87 541.32,-111.71 540.86,-104.73"/>
<text text-anchor="middle" x="612" y="-110.5" font-family="'Souce Sans Pro', Roboto, FreeSans, sans-serif" font-size="10.00"> connector</text>
</g>
<!-- Node9 -->
<g id="node9" class="node">
<title>Node9</title>
<g id="a_node9"><a xlink:href="classlog4cplus_1_1helpers_1_1Socket.html" target="_top" xlink:title="This class implements client sockets (also called just &quot;sockets&quot;).">
<polygon fill="white" stroke="black" points="564.5,-0.5 564.5,-30.5 659.5,-30.5 659.5,-0.5 564.5,-0.5"/>
<text text-anchor="start" x="572.5" y="-18.5" font-family="'Souce Sans Pro', Roboto, FreeSans, sans-serif" font-size="10.00">log4cplus::helpers</text>
<text text-anchor="middle" x="612" y="-7.5" font-family="'Souce Sans Pro', Roboto, FreeSans, sans-serif" font-size="10.00">::Socket</text>
</a>
</g>
</g>
<!-- Node9&#45;&gt;Node1 -->
<g id="edge9" class="edge">
<title>Node9&#45;&gt;Node1</title>
<path fill="none" stroke="#9a32cd" stroke-dasharray="5,2" d="M662.83,-34.33C702.09,-49.16 755.21,-69.23 786.17,-80.93"/>
<polygon fill="#9a32cd" stroke="#9a32cd" points="663.76,-30.94 653.17,-30.68 661.29,-37.49 663.76,-30.94"/>
<text text-anchor="middle" x="709.5" y="-59.5" font-family="'Souce Sans Pro', Roboto, FreeSans, sans-serif" font-size="10.00"> socket</text>
</g>
<!-- Node10 -->
<g id="node10" class="node">
<title>Node10</title>
<g id="a_node10"><a xlink:href="classlog4cplus_1_1helpers_1_1AbstractSocket.html" target="_top" xlink:title=" ">
<polygon fill="white" stroke="black" points="257.5,-0.5 257.5,-30.5 352.5,-30.5 352.5,-0.5 257.5,-0.5"/>
<text text-anchor="start" x="265.5" y="-18.5" font-family="'Souce Sans Pro', Roboto, FreeSans, sans-serif" font-size="10.00">log4cplus::helpers</text>
<text text-anchor="middle" x="305" y="-7.5" font-family="'Souce Sans Pro', Roboto, FreeSans, sans-serif" font-size="10.00">::AbstractSocket</text>
</a>
</g>
</g>
<!-- Node10&#45;&gt;Node9 -->
<g id="edge10" class="edge">
<title>Node10&#45;&gt;Node9</title>
<path fill="none" stroke="midnightblue" d="M362.77,-15.5C420.91,-15.5 510.2,-15.5 564.35,-15.5"/>
<polygon fill="midnightblue" stroke="midnightblue" points="362.65,-12 352.65,-15.5 362.65,-19 362.65,-12"/>
</g>
</g>
</svg>
