<?xml version="1.0" encoding="UTF-8" standalone="no"?>
<!DOCTYPE svg PUBLIC "-//W3C//DTD SVG 1.1//EN"
 "http://www.w3.org/Graphics/SVG/1.1/DTD/svg11.dtd">
<!-- Generated by graphviz version 2.43.0 (0)
 -->
<!-- Title: log4cplus::AsyncAppender Pages: 1 -->
<svg width="840pt" height="236pt"
 viewBox="0.00 0.00 840.00 235.50" xmlns="http://www.w3.org/2000/svg" xmlns:xlink="http://www.w3.org/1999/xlink">
<g id="graph0" class="graph" transform="scale(1 1) rotate(0) translate(4 231.5)">
<title>log4cplus::AsyncAppender</title>
<polygon fill="white" stroke="transparent" points="-4,4 -4,-231.5 836,-231.5 836,4 -4,4"/>
<!-- Node1 -->
<g id="node1" class="node">
<title>Node1</title>
<g id="a_node1"><a xlink:title="This Appender is a wrapper to which other appenders can be attached.">
<polygon fill="#bfbfbf" stroke="black" points="699,-77.5 699,-96.5 832,-96.5 832,-77.5 699,-77.5"/>
<text text-anchor="middle" x="765.5" y="-84.5" font-family="'Souce Sans Pro', Roboto, FreeSans, sans-serif" font-size="10.00">log4cplus::AsyncAppender</text>
</a>
</g>
</g>
<!-- Node2 -->
<g id="node2" class="node">
<title>Node2</title>
<g id="a_node2"><a xlink:href="classlog4cplus_1_1Appender.html" target="_top" xlink:title="Extend this class for implementing your own strategies for printing log statements.">
<polygon fill="white" stroke="black" points="556,-97.5 556,-116.5 662,-116.5 662,-97.5 556,-97.5"/>
<text text-anchor="middle" x="609" y="-104.5" font-family="'Souce Sans Pro', Roboto, FreeSans, sans-serif" font-size="10.00">log4cplus::Appender</text>
</a>
</g>
</g>
<!-- Node2&#45;&gt;Node1 -->
<g id="edge1" class="edge">
<title>Node2&#45;&gt;Node1</title>
<path fill="none" stroke="midnightblue" d="M672.38,-98.92C681.09,-97.8 690.06,-96.64 698.82,-95.5"/>
<polygon fill="midnightblue" stroke="midnightblue" points="671.77,-95.47 662.31,-100.23 672.67,-102.42 671.77,-95.47"/>
</g>
<!-- Node3 -->
<g id="node3" class="node">
<title>Node3</title>
<g id="a_node3"><a xlink:href="classlog4cplus_1_1helpers_1_1SharedObject.html" target="_top" xlink:title=" ">
<polygon fill="white" stroke="black" points="270.5,-137 270.5,-167 365.5,-167 365.5,-137 270.5,-137"/>
<text text-anchor="start" x="278.5" y="-155" font-family="'Souce Sans Pro', Roboto, FreeSans, sans-serif" font-size="10.00">log4cplus::helpers</text>
<text text-anchor="middle" x="318" y="-144" font-family="'Souce Sans Pro', Roboto, FreeSans, sans-serif" font-size="10.00">::SharedObject</text>
</a>
</g>
</g>
<!-- Node3&#45;&gt;Node2 -->
<g id="edge2" class="edge">
<title>Node3&#45;&gt;Node2</title>
<path fill="none" stroke="midnightblue" d="M375.64,-144.33C419.91,-138.2 482.96,-129.13 538,-120 544.46,-118.93 551.25,-117.74 557.95,-116.54"/>
<polygon fill="midnightblue" stroke="midnightblue" points="375.07,-140.88 365.65,-145.71 376.03,-147.81 375.07,-140.88"/>
</g>
<!-- Node4 -->
<g id="node4" class="node">
<title>Node4</title>
<g id="a_node4"><a xlink:href="classlog4cplus_1_1thread_1_1Mutex.html" target="_top" xlink:title=" ">
<polygon fill="white" stroke="black" points="14,-142 14,-172 109,-172 109,-142 14,-142"/>
<text text-anchor="start" x="22" y="-160" font-family="'Souce Sans Pro', Roboto, FreeSans, sans-serif" font-size="10.00">log4cplus::thread::</text>
<text text-anchor="middle" x="61.5" y="-149" font-family="'Souce Sans Pro', Roboto, FreeSans, sans-serif" font-size="10.00">Mutex</text>
</a>
</g>
</g>
<!-- Node4&#45;&gt;Node3 -->
<g id="edge3" class="edge">
<title>Node4&#45;&gt;Node3</title>
<path fill="none" stroke="#9a32cd" stroke-dasharray="5,2" d="M119.77,-153.78C126.92,-153.47 134.13,-153.19 141,-153 184.83,-151.76 234.82,-151.6 270.3,-151.69"/>
<polygon fill="#9a32cd" stroke="#9a32cd" points="119.22,-150.3 109.39,-154.26 119.54,-157.29 119.22,-150.3"/>
<text text-anchor="middle" x="188" y="-156" font-family="'Souce Sans Pro', Roboto, FreeSans, sans-serif" font-size="10.00"> access_mutex</text>
</g>
<!-- Node7 -->
<g id="node7" class="node">
<title>Node7</title>
<g id="a_node7"><a xlink:href="classlog4cplus_1_1helpers_1_1AppenderAttachableImpl.html" target="_top" xlink:title="This Interface is for attaching Appenders to objects.">
<polygon fill="white" stroke="black" points="253,-186 253,-216 383,-216 383,-186 253,-186"/>
<text text-anchor="start" x="261" y="-204" font-family="'Souce Sans Pro', Roboto, FreeSans, sans-serif" font-size="10.00">log4cplus::helpers</text>
<text text-anchor="middle" x="318" y="-193" font-family="'Souce Sans Pro', Roboto, FreeSans, sans-serif" font-size="10.00">::AppenderAttachableImpl</text>
</a>
</g>
</g>
<!-- Node4&#45;&gt;Node7 -->
<g id="edge8" class="edge">
<title>Node4&#45;&gt;Node7</title>
<path fill="none" stroke="#9a32cd" stroke-dasharray="5,2" d="M119.2,-166.8C158.81,-173.65 211.74,-182.8 252.89,-189.92"/>
<polygon fill="#9a32cd" stroke="#9a32cd" points="119.63,-163.33 109.18,-165.07 118.44,-170.22 119.63,-163.33"/>
<text text-anchor="middle" x="188" y="-189" font-family="'Souce Sans Pro', Roboto, FreeSans, sans-serif" font-size="10.00"> appender_list_mutex</text>
</g>
<!-- Node5 -->
<g id="node5" class="node">
<title>Node5</title>
<g id="a_node5"><a xlink:href="classlog4cplus_1_1helpers_1_1SharedObjectPtr.html" target="_top" xlink:title=" ">
<polygon fill="white" stroke="black" points="253,-88 253,-118 383,-118 383,-88 253,-88"/>
<text text-anchor="start" x="261" y="-106" font-family="'Souce Sans Pro', Roboto, FreeSans, sans-serif" font-size="10.00">log4cplus::helpers</text>
<text text-anchor="middle" x="318" y="-95" font-family="'Souce Sans Pro', Roboto, FreeSans, sans-serif" font-size="10.00">::SharedObjectPtr&lt; Filter &gt;</text>
</a>
</g>
</g>
<!-- Node5&#45;&gt;Node2 -->
<g id="edge4" class="edge">
<title>Node5&#45;&gt;Node2</title>
<path fill="none" stroke="#9a32cd" stroke-dasharray="5,2" d="M393.41,-104.03C444.22,-104.73 510.29,-105.65 555.62,-106.28"/>
<polygon fill="#9a32cd" stroke="#9a32cd" points="393.19,-100.53 383.14,-103.89 393.09,-107.53 393.19,-100.53"/>
<text text-anchor="middle" x="469.5" y="-108" font-family="'Souce Sans Pro', Roboto, FreeSans, sans-serif" font-size="10.00"> filter</text>
</g>
<!-- Node6 -->
<g id="node6" class="node">
<title>Node6</title>
<g id="a_node6"><a xlink:href="classlog4cplus_1_1helpers_1_1SharedObjectPtr.html" target="_top" xlink:title=" ">
<polygon fill="white" stroke="black" points="4.5,-44 4.5,-74 118.5,-74 118.5,-44 4.5,-44"/>
<text text-anchor="start" x="12.5" y="-62" font-family="'Souce Sans Pro', Roboto, FreeSans, sans-serif" font-size="10.00">log4cplus::helpers</text>
<text text-anchor="middle" x="61.5" y="-51" font-family="'Souce Sans Pro', Roboto, FreeSans, sans-serif" font-size="10.00">::SharedObjectPtr&lt; T &gt;</text>
</a>
</g>
</g>
<!-- Node6&#45;&gt;Node5 -->
<g id="edge5" class="edge">
<title>Node6&#45;&gt;Node5</title>
<path fill="none" stroke="orange" stroke-dasharray="5,2" d="M128.52,-71.74C132.74,-72.52 136.93,-73.28 141,-74 178.04,-80.59 219.57,-87.46 252.98,-92.85"/>
<polygon fill="orange" stroke="orange" points="129.11,-68.29 118.64,-69.91 127.83,-75.17 129.11,-68.29"/>
<text text-anchor="middle" x="188" y="-93" font-family="'Souce Sans Pro', Roboto, FreeSans, sans-serif" font-size="10.00"> &lt; Filter &gt;</text>
</g>
<!-- Node9 -->
<g id="node9" class="node">
<title>Node9</title>
<g id="a_node9"><a xlink:href="classlog4cplus_1_1helpers_1_1SharedObjectPtr.html" target="_top" xlink:title=" ">
<polygon fill="white" stroke="black" points="401,-0.5 401,-41.5 538,-41.5 538,-0.5 401,-0.5"/>
<text text-anchor="start" x="409" y="-29.5" font-family="'Souce Sans Pro', Roboto, FreeSans, sans-serif" font-size="10.00">log4cplus::helpers</text>
<text text-anchor="start" x="409" y="-18.5" font-family="'Souce Sans Pro', Roboto, FreeSans, sans-serif" font-size="10.00">::SharedObjectPtr&lt; Abstract</text>
<text text-anchor="middle" x="469.5" y="-7.5" font-family="'Souce Sans Pro', Roboto, FreeSans, sans-serif" font-size="10.00">Thread &gt;</text>
</a>
</g>
</g>
<!-- Node6&#45;&gt;Node9 -->
<g id="edge10" class="edge">
<title>Node6&#45;&gt;Node9</title>
<path fill="none" stroke="orange" stroke-dasharray="5,2" d="M128.45,-45.81C132.69,-45.15 136.9,-44.53 141,-44 230.44,-32.36 334.45,-26.32 400.84,-23.41"/>
<polygon fill="orange" stroke="orange" points="127.84,-42.37 118.54,-47.45 128.98,-49.27 127.84,-42.37"/>
<text text-anchor="middle" x="188" y="-47" font-family="'Souce Sans Pro', Roboto, FreeSans, sans-serif" font-size="10.00"> &lt; AbstractThread &gt;</text>
</g>
<!-- Node10 -->
<g id="node10" class="node">
<title>Node10</title>
<g id="a_node10"><a xlink:href="classlog4cplus_1_1helpers_1_1SharedObjectPtr.html" target="_top" xlink:title=" ">
<polygon fill="white" stroke="black" points="401.5,-50 401.5,-80 537.5,-80 537.5,-50 401.5,-50"/>
<text text-anchor="start" x="409.5" y="-68" font-family="'Souce Sans Pro', Roboto, FreeSans, sans-serif" font-size="10.00">log4cplus::helpers</text>
<text text-anchor="middle" x="469.5" y="-57" font-family="'Souce Sans Pro', Roboto, FreeSans, sans-serif" font-size="10.00">::SharedObjectPtr&lt; Queue &gt;</text>
</a>
</g>
</g>
<!-- Node6&#45;&gt;Node10 -->
<g id="edge12" class="edge">
<title>Node6&#45;&gt;Node10</title>
<path fill="none" stroke="orange" stroke-dasharray="5,2" d="M128.97,-58.6C161.02,-58.51 200.01,-58.55 235,-59 291.06,-59.72 354.67,-61.41 401.32,-62.82"/>
<polygon fill="orange" stroke="orange" points="128.82,-55.1 118.83,-58.64 128.84,-62.1 128.82,-55.1"/>
<text text-anchor="middle" x="188" y="-62" font-family="'Souce Sans Pro', Roboto, FreeSans, sans-serif" font-size="10.00"> &lt; Queue &gt;</text>
</g>
<!-- Node7&#45;&gt;Node1 -->
<g id="edge6" class="edge">
<title>Node7&#45;&gt;Node1</title>
<path fill="none" stroke="midnightblue" d="M393.31,-188.05C463.33,-175.07 570.82,-153.15 662,-126 690.1,-117.63 721.49,-105.22 742.03,-96.65"/>
<polygon fill="midnightblue" stroke="midnightblue" points="392.45,-184.65 383.25,-189.9 393.72,-191.53 392.45,-184.65"/>
</g>
<!-- Node8 -->
<g id="node8" class="node">
<title>Node8</title>
<g id="a_node8"><a xlink:href="classlog4cplus_1_1spi_1_1AppenderAttachable.html" target="_top" xlink:title="This Interface is for attaching Appenders to objects.">
<polygon fill="white" stroke="black" points="0,-197 0,-227 123,-227 123,-197 0,-197"/>
<text text-anchor="start" x="8" y="-215" font-family="'Souce Sans Pro', Roboto, FreeSans, sans-serif" font-size="10.00">log4cplus::spi::Appender</text>
<text text-anchor="middle" x="61.5" y="-204" font-family="'Souce Sans Pro', Roboto, FreeSans, sans-serif" font-size="10.00">Attachable</text>
</a>
</g>
</g>
<!-- Node8&#45;&gt;Node7 -->
<g id="edge7" class="edge">
<title>Node8&#45;&gt;Node7</title>
<path fill="none" stroke="midnightblue" d="M133.46,-208.93C170.89,-207.32 216.46,-205.35 252.83,-203.77"/>
<polygon fill="midnightblue" stroke="midnightblue" points="132.98,-205.45 123.14,-209.38 133.28,-212.44 132.98,-205.45"/>
</g>
<!-- Node9&#45;&gt;Node1 -->
<g id="edge9" class="edge">
<title>Node9&#45;&gt;Node1</title>
<path fill="none" stroke="#9a32cd" stroke-dasharray="5,2" d="M548.43,-32.54C583.38,-38.3 624.98,-45.97 662,-55 687.9,-61.32 716.85,-70.56 737.36,-77.49"/>
<polygon fill="#9a32cd" stroke="#9a32cd" points="548.72,-29.04 538.29,-30.89 547.6,-35.95 548.72,-29.04"/>
<text text-anchor="middle" x="609" y="-58" font-family="'Souce Sans Pro', Roboto, FreeSans, sans-serif" font-size="10.00"> queue_thread</text>
</g>
<!-- Node10&#45;&gt;Node1 -->
<g id="edge11" class="edge">
<title>Node10&#45;&gt;Node1</title>
<path fill="none" stroke="#9a32cd" stroke-dasharray="5,2" d="M548.01,-69.24C582.87,-71.31 624.52,-74 662,-77 673.94,-77.96 686.65,-79.1 698.91,-80.26"/>
<polygon fill="#9a32cd" stroke="#9a32cd" points="548.08,-65.74 537.9,-68.65 547.67,-72.73 548.08,-65.74"/>
<text text-anchor="middle" x="609" y="-80" font-family="'Souce Sans Pro', Roboto, FreeSans, sans-serif" font-size="10.00"> queue</text>
</g>
</g>
</svg>
