<?xml version="1.0" encoding="UTF-8" standalone="no"?>
<!DOCTYPE svg PUBLIC "-//W3C//DTD SVG 1.1//EN"
 "http://www.w3.org/Graphics/SVG/1.1/DTD/svg11.dtd">
<!-- Generated by graphviz version 2.43.0 (0)
 -->
<!-- Title: log4cplus::SysLogAppender Pages: 1 -->
<svg width="919pt" height="280pt"
 viewBox="0.00 0.00 919.00 280.00" xmlns="http://www.w3.org/2000/svg" xmlns:xlink="http://www.w3.org/1999/xlink">
<g id="graph0" class="graph" transform="scale(1 1) rotate(0) translate(4 276)">
<title>log4cplus::SysLogAppender</title>
<polygon fill="white" stroke="transparent" points="-4,4 -4,-276 915,-276 915,4 -4,4"/>
<!-- Node1 -->
<g id="node1" class="node">
<title>Node1</title>
<g id="a_node1"><a xlink:title="Appends log events to a file.">
<polygon fill="#bfbfbf" stroke="black" points="773,-104 773,-123 911,-123 911,-104 773,-104"/>
<text text-anchor="middle" x="842" y="-111" font-family="'Souce Sans Pro', Roboto, FreeSans, sans-serif" font-size="10.00">log4cplus::SysLogAppender</text>
</a>
</g>
</g>
<!-- Node2 -->
<g id="node2" class="node">
<title>Node2</title>
<g id="a_node2"><a xlink:href="classlog4cplus_1_1Appender.html" target="_top" xlink:title="Extend this class for implementing your own strategies for printing log statements.">
<polygon fill="white" stroke="black" points="559,-198 559,-217 665,-217 665,-198 559,-198"/>
<text text-anchor="middle" x="612" y="-205" font-family="'Souce Sans Pro', Roboto, FreeSans, sans-serif" font-size="10.00">log4cplus::Appender</text>
</a>
</g>
</g>
<!-- Node2&#45;&gt;Node1 -->
<g id="edge1" class="edge">
<title>Node2&#45;&gt;Node1</title>
<path fill="none" stroke="midnightblue" d="M674.99,-201.57C700.58,-197.54 730.04,-190.79 755,-179.5 786.21,-165.39 816.51,-137.98 831.42,-123.32"/>
<polygon fill="midnightblue" stroke="midnightblue" points="674.4,-198.12 665.02,-203.04 675.42,-205.04 674.4,-198.12"/>
</g>
<!-- Node3 -->
<g id="node3" class="node">
<title>Node3</title>
<g id="a_node3"><a xlink:href="classlog4cplus_1_1helpers_1_1SharedObject.html" target="_top" xlink:title=" ">
<polygon fill="white" stroke="black" points="257.5,-241.5 257.5,-271.5 352.5,-271.5 352.5,-241.5 257.5,-241.5"/>
<text text-anchor="start" x="265.5" y="-259.5" font-family="'Souce Sans Pro', Roboto, FreeSans, sans-serif" font-size="10.00">log4cplus::helpers</text>
<text text-anchor="middle" x="305" y="-248.5" font-family="'Souce Sans Pro', Roboto, FreeSans, sans-serif" font-size="10.00">::SharedObject</text>
</a>
</g>
</g>
<!-- Node3&#45;&gt;Node2 -->
<g id="edge2" class="edge">
<title>Node3&#45;&gt;Node2</title>
<path fill="none" stroke="midnightblue" d="M362.6,-248.51C408.15,-241.95 473.78,-232.18 531,-222.5 540.89,-220.83 551.45,-218.93 561.55,-217.06"/>
<polygon fill="midnightblue" stroke="midnightblue" points="362.02,-245.06 352.62,-249.95 363.01,-251.99 362.02,-245.06"/>
</g>
<!-- Node4 -->
<g id="node4" class="node">
<title>Node4</title>
<g id="a_node4"><a xlink:href="classlog4cplus_1_1thread_1_1Mutex.html" target="_top" xlink:title=" ">
<polygon fill="white" stroke="black" points="9.5,-241.5 9.5,-271.5 104.5,-271.5 104.5,-241.5 9.5,-241.5"/>
<text text-anchor="start" x="17.5" y="-259.5" font-family="'Souce Sans Pro', Roboto, FreeSans, sans-serif" font-size="10.00">log4cplus::thread::</text>
<text text-anchor="middle" x="57" y="-248.5" font-family="'Souce Sans Pro', Roboto, FreeSans, sans-serif" font-size="10.00">Mutex</text>
</a>
</g>
</g>
<!-- Node4&#45;&gt;Node3 -->
<g id="edge3" class="edge">
<title>Node4&#45;&gt;Node3</title>
<path fill="none" stroke="#9a32cd" stroke-dasharray="5,2" d="M114.63,-256.5C157.84,-256.5 216.65,-256.5 257.21,-256.5"/>
<polygon fill="#9a32cd" stroke="#9a32cd" points="114.56,-253 104.56,-256.5 114.56,-260 114.56,-253"/>
<text text-anchor="middle" x="177" y="-259.5" font-family="'Souce Sans Pro', Roboto, FreeSans, sans-serif" font-size="10.00"> access_mutex</text>
</g>
<!-- Node5 -->
<g id="node5" class="node">
<title>Node5</title>
<g id="a_node5"><a xlink:href="classlog4cplus_1_1helpers_1_1SharedObjectPtr.html" target="_top" xlink:title=" ">
<polygon fill="white" stroke="black" points="240,-192.5 240,-222.5 370,-222.5 370,-192.5 240,-192.5"/>
<text text-anchor="start" x="248" y="-210.5" font-family="'Souce Sans Pro', Roboto, FreeSans, sans-serif" font-size="10.00">log4cplus::helpers</text>
<text text-anchor="middle" x="305" y="-199.5" font-family="'Souce Sans Pro', Roboto, FreeSans, sans-serif" font-size="10.00">::SharedObjectPtr&lt; Filter &gt;</text>
</a>
</g>
</g>
<!-- Node5&#45;&gt;Node2 -->
<g id="edge4" class="edge">
<title>Node5&#45;&gt;Node2</title>
<path fill="none" stroke="#9a32cd" stroke-dasharray="5,2" d="M380.41,-207.5C435.73,-207.5 509.83,-207.5 558.93,-207.5"/>
<polygon fill="#9a32cd" stroke="#9a32cd" points="380.31,-204 370.31,-207.5 380.31,-211 380.31,-204"/>
<text text-anchor="middle" x="459.5" y="-210.5" font-family="'Souce Sans Pro', Roboto, FreeSans, sans-serif" font-size="10.00"> filter</text>
</g>
<!-- Node6 -->
<g id="node6" class="node">
<title>Node6</title>
<g id="a_node6"><a xlink:href="classlog4cplus_1_1helpers_1_1SharedObjectPtr.html" target="_top" xlink:title=" ">
<polygon fill="white" stroke="black" points="0,-170.5 0,-200.5 114,-200.5 114,-170.5 0,-170.5"/>
<text text-anchor="start" x="8" y="-188.5" font-family="'Souce Sans Pro', Roboto, FreeSans, sans-serif" font-size="10.00">log4cplus::helpers</text>
<text text-anchor="middle" x="57" y="-177.5" font-family="'Souce Sans Pro', Roboto, FreeSans, sans-serif" font-size="10.00">::SharedObjectPtr&lt; T &gt;</text>
</a>
</g>
</g>
<!-- Node6&#45;&gt;Node5 -->
<g id="edge5" class="edge">
<title>Node6&#45;&gt;Node5</title>
<path fill="none" stroke="orange" stroke-dasharray="5,2" d="M124.49,-191.45C160.34,-194.65 204.38,-198.59 239.86,-201.76"/>
<polygon fill="orange" stroke="orange" points="124.4,-187.92 114.13,-190.52 123.78,-194.9 124.4,-187.92"/>
<text text-anchor="middle" x="177" y="-202.5" font-family="'Souce Sans Pro', Roboto, FreeSans, sans-serif" font-size="10.00"> &lt; Filter &gt;</text>
</g>
<!-- Node8 -->
<g id="node8" class="node">
<title>Node8</title>
<g id="a_node8"><a xlink:href="classlog4cplus_1_1helpers_1_1SharedObjectPtr.html" target="_top" xlink:title=" ">
<polygon fill="white" stroke="black" points="388,-142 388,-183 531,-183 531,-142 388,-142"/>
<text text-anchor="start" x="396" y="-171" font-family="'Souce Sans Pro', Roboto, FreeSans, sans-serif" font-size="10.00">log4cplus::helpers</text>
<text text-anchor="start" x="396" y="-160" font-family="'Souce Sans Pro', Roboto, FreeSans, sans-serif" font-size="10.00">::SharedObjectPtr&lt; log4cplus</text>
<text text-anchor="middle" x="459.5" y="-149" font-family="'Souce Sans Pro', Roboto, FreeSans, sans-serif" font-size="10.00">::helpers::ConnectorThread &gt;</text>
</a>
</g>
</g>
<!-- Node6&#45;&gt;Node8 -->
<g id="edge8" class="edge">
<title>Node6&#45;&gt;Node8</title>
<path fill="none" stroke="orange" stroke-dasharray="5,2" d="M120.16,-168.41C124.15,-167.66 128.12,-167.01 132,-166.5 219.53,-154.9 321.4,-155.93 387.77,-158.52"/>
<polygon fill="orange" stroke="orange" points="119.34,-165 110.25,-170.44 120.75,-171.86 119.34,-165"/>
<text text-anchor="start" x="132" y="-180.5" font-family="'Souce Sans Pro', Roboto, FreeSans, sans-serif" font-size="10.00"> &lt; log4cplus::helpers</text>
<text text-anchor="middle" x="177" y="-169.5" font-family="'Souce Sans Pro', Roboto, FreeSans, sans-serif" font-size="10.00">::ConnectorThread &gt;</text>
</g>
<!-- Node7 -->
<g id="node7" class="node">
<title>Node7</title>
<g id="a_node7"><a xlink:href="classlog4cplus_1_1helpers_1_1IConnectorThreadClient.html" target="_top" xlink:title="Interface implemented by users of ConnectorThread.">
<polygon fill="white" stroke="black" points="549,-98.5 549,-128.5 675,-128.5 675,-98.5 549,-98.5"/>
<text text-anchor="start" x="557" y="-116.5" font-family="'Souce Sans Pro', Roboto, FreeSans, sans-serif" font-size="10.00">log4cplus::helpers</text>
<text text-anchor="middle" x="612" y="-105.5" font-family="'Souce Sans Pro', Roboto, FreeSans, sans-serif" font-size="10.00">::IConnectorThreadClient</text>
</a>
</g>
</g>
<!-- Node7&#45;&gt;Node1 -->
<g id="edge6" class="edge">
<title>Node7&#45;&gt;Node1</title>
<path fill="none" stroke="darkgreen" d="M685.12,-113.5C713.09,-113.5 744.98,-113.5 772.6,-113.5"/>
<polygon fill="darkgreen" stroke="darkgreen" points="685,-110 675,-113.5 685,-117 685,-110"/>
</g>
<!-- Node8&#45;&gt;Node1 -->
<g id="edge7" class="edge">
<title>Node8&#45;&gt;Node1</title>
<path fill="none" stroke="#9a32cd" stroke-dasharray="5,2" d="M541.23,-154.26C600.51,-147.88 682.92,-138.32 755,-127.5 764.27,-126.11 774.1,-124.57 783.67,-123.04"/>
<polygon fill="#9a32cd" stroke="#9a32cd" points="540.75,-150.79 531.18,-155.33 541.49,-157.75 540.75,-150.79"/>
<text text-anchor="middle" x="612" y="-155.5" font-family="'Souce Sans Pro', Roboto, FreeSans, sans-serif" font-size="10.00"> connector</text>
</g>
<!-- Node9 -->
<g id="node9" class="node">
<title>Node9</title>
<g id="a_node9"><a xlink:href="classlog4cplus_1_1helpers_1_1Socket.html" target="_top" xlink:title="This class implements client sockets (also called just &quot;sockets&quot;).">
<polygon fill="white" stroke="black" points="564.5,-49.5 564.5,-79.5 659.5,-79.5 659.5,-49.5 564.5,-49.5"/>
<text text-anchor="start" x="572.5" y="-67.5" font-family="'Souce Sans Pro', Roboto, FreeSans, sans-serif" font-size="10.00">log4cplus::helpers</text>
<text text-anchor="middle" x="612" y="-56.5" font-family="'Souce Sans Pro', Roboto, FreeSans, sans-serif" font-size="10.00">::Socket</text>
</a>
</g>
</g>
<!-- Node9&#45;&gt;Node1 -->
<g id="edge9" class="edge">
<title>Node9&#45;&gt;Node1</title>
<path fill="none" stroke="#9a32cd" stroke-dasharray="5,2" d="M669.64,-76.67C708.9,-85.11 760.43,-96.19 796.7,-103.98"/>
<polygon fill="#9a32cd" stroke="#9a32cd" points="670.2,-73.21 659.69,-74.53 668.73,-80.06 670.2,-73.21"/>
<text text-anchor="middle" x="724" y="-97.5" font-family="'Souce Sans Pro', Roboto, FreeSans, sans-serif" font-size="10.00"> syslogSocket</text>
</g>
<!-- Node10 -->
<g id="node10" class="node">
<title>Node10</title>
<g id="a_node10"><a xlink:href="classlog4cplus_1_1helpers_1_1AbstractSocket.html" target="_top" xlink:title=" ">
<polygon fill="white" stroke="black" points="257.5,-49.5 257.5,-79.5 352.5,-79.5 352.5,-49.5 257.5,-49.5"/>
<text text-anchor="start" x="265.5" y="-67.5" font-family="'Souce Sans Pro', Roboto, FreeSans, sans-serif" font-size="10.00">log4cplus::helpers</text>
<text text-anchor="middle" x="305" y="-56.5" font-family="'Souce Sans Pro', Roboto, FreeSans, sans-serif" font-size="10.00">::AbstractSocket</text>
</a>
</g>
</g>
<!-- Node10&#45;&gt;Node9 -->
<g id="edge10" class="edge">
<title>Node10&#45;&gt;Node9</title>
<path fill="none" stroke="midnightblue" d="M362.77,-64.5C420.91,-64.5 510.2,-64.5 564.35,-64.5"/>
<polygon fill="midnightblue" stroke="midnightblue" points="362.65,-61 352.65,-64.5 362.65,-68 362.65,-61"/>
</g>
<!-- Node11 -->
<g id="node11" class="node">
<title>Node11</title>
<g id="a_node11"><a xlink:href="classlog4cplus_1_1spi_1_1InternalLoggingEvent.html" target="_top" xlink:title="The internal representation of logging events.">
<polygon fill="white" stroke="black" points="555.5,-0.5 555.5,-30.5 668.5,-30.5 668.5,-0.5 555.5,-0.5"/>
<text text-anchor="start" x="563.5" y="-18.5" font-family="'Souce Sans Pro', Roboto, FreeSans, sans-serif" font-size="10.00">log4cplus::spi::Internal</text>
<text text-anchor="middle" x="612" y="-7.5" font-family="'Souce Sans Pro', Roboto, FreeSans, sans-serif" font-size="10.00">LoggingEvent</text>
</a>
</g>
</g>
<!-- Node11&#45;&gt;Node1 -->
<g id="edge11" class="edge">
<title>Node11&#45;&gt;Node1</title>
<path fill="none" stroke="#9a32cd" stroke-dasharray="5,2" d="M670.5,-33.88C696.66,-42.81 727.78,-54.26 755,-66.5 780.3,-77.87 808.24,-93.82 825.21,-103.9"/>
<polygon fill="#9a32cd" stroke="#9a32cd" points="671.33,-30.47 660.74,-30.58 669.09,-37.1 671.33,-30.47"/>
<text text-anchor="middle" x="724" y="-69.5" font-family="'Souce Sans Pro', Roboto, FreeSans, sans-serif" font-size="10.00"> appendFunc</text>
</g>
</g>
</svg>
