<?xml version="1.0" encoding="UTF-8" standalone="no"?>
<!DOCTYPE svg PUBLIC "-//W3C//DTD SVG 1.1//EN"
 "http://www.w3.org/Graphics/SVG/1.1/DTD/svg11.dtd">
<!-- Generated by graphviz version 2.43.0 (0)
 -->
<!-- Title: log4cplus::spi::FunctionFilter Pages: 1 -->
<svg width="126pt" height="162pt"
 viewBox="0.00 0.00 126.00 162.00" xmlns="http://www.w3.org/2000/svg" xmlns:xlink="http://www.w3.org/1999/xlink">
<g id="graph0" class="graph" transform="scale(1 1) rotate(0) translate(4 158)">
<title>log4cplus::spi::FunctionFilter</title>
<polygon fill="white" stroke="transparent" points="-4,4 -4,-158 122,-158 122,4 -4,4"/>
<!-- Node1 -->
<g id="node1" class="node">
<title>Node1</title>
<g id="a_node1"><a xlink:title="This filter allows using std::function&lt;FilterResult(const InternalLoggingEvent &amp;)&gt;.">
<polygon fill="#bfbfbf" stroke="black" points="0,-0.5 0,-30.5 118,-30.5 118,-0.5 0,-0.5"/>
<text text-anchor="start" x="8" y="-18.5" font-family="'Souce Sans Pro', Roboto, FreeSans, sans-serif" font-size="10.00">log4cplus::spi::Function</text>
<text text-anchor="middle" x="59" y="-7.5" font-family="'Souce Sans Pro', Roboto, FreeSans, sans-serif" font-size="10.00">Filter</text>
</a>
</g>
</g>
<!-- Node2 -->
<g id="node2" class="node">
<title>Node2</title>
<g id="a_node2"><a xlink:href="classlog4cplus_1_1spi_1_1Filter.html" target="_top" xlink:title="Users should extend this class to implement customized logging event filtering.">
<polygon fill="white" stroke="black" points="8,-67.5 8,-86.5 110,-86.5 110,-67.5 8,-67.5"/>
<text text-anchor="middle" x="59" y="-74.5" font-family="'Souce Sans Pro', Roboto, FreeSans, sans-serif" font-size="10.00">log4cplus::spi::Filter</text>
</a>
</g>
</g>
<!-- Node2&#45;&gt;Node1 -->
<g id="edge1" class="edge">
<title>Node2&#45;&gt;Node1</title>
<path fill="none" stroke="midnightblue" d="M59,-57.23C59,-48.59 59,-38.5 59,-30.52"/>
<polygon fill="midnightblue" stroke="midnightblue" points="55.5,-57.48 59,-67.48 62.5,-57.48 55.5,-57.48"/>
</g>
<!-- Node3 -->
<g id="node3" class="node">
<title>Node3</title>
<g id="a_node3"><a xlink:href="classlog4cplus_1_1helpers_1_1SharedObject.html" target="_top" xlink:title=" ">
<polygon fill="white" stroke="black" points="11.5,-123.5 11.5,-153.5 106.5,-153.5 106.5,-123.5 11.5,-123.5"/>
<text text-anchor="start" x="19.5" y="-141.5" font-family="'Souce Sans Pro', Roboto, FreeSans, sans-serif" font-size="10.00">log4cplus::helpers</text>
<text text-anchor="middle" x="59" y="-130.5" font-family="'Souce Sans Pro', Roboto, FreeSans, sans-serif" font-size="10.00">::SharedObject</text>
</a>
</g>
</g>
<!-- Node3&#45;&gt;Node2 -->
<g id="edge2" class="edge">
<title>Node3&#45;&gt;Node2</title>
<path fill="none" stroke="midnightblue" d="M59,-113.29C59,-103.86 59,-93.65 59,-86.66"/>
<polygon fill="midnightblue" stroke="midnightblue" points="55.5,-113.4 59,-123.4 62.5,-113.4 55.5,-113.4"/>
</g>
</g>
</svg>
