<?xml version="1.0" encoding="UTF-8" standalone="no"?>
<!DOCTYPE svg PUBLIC "-//W3C//DTD SVG 1.1//EN"
 "http://www.w3.org/Graphics/SVG/1.1/DTD/svg11.dtd">
<!-- Generated by graphviz version 2.43.0 (0)
 -->
<!-- Title: connectorthread.h Pages: 1 -->
<svg width="806pt" height="375pt"
 viewBox="0.00 0.00 805.50 375.00" xmlns="http://www.w3.org/2000/svg" xmlns:xlink="http://www.w3.org/1999/xlink">
<g id="graph0" class="graph" transform="scale(1 1) rotate(0) translate(4 371)">
<title>connectorthread.h</title>
<polygon fill="white" stroke="transparent" points="-4,4 -4,-371 801.5,-371 801.5,4 -4,4"/>
<!-- Node1 -->
<g id="node1" class="node">
<title>Node1</title>
<g id="a_node1"><a xlink:title=" ">
<polygon fill="#bfbfbf" stroke="black" points="389.5,-347.5 389.5,-366.5 487.5,-366.5 487.5,-347.5 389.5,-347.5"/>
<text text-anchor="middle" x="438.5" y="-354.5" font-family="'Souce Sans Pro', Roboto, FreeSans, sans-serif" font-size="10.00">connectorthread.h</text>
</a>
</g>
</g>
<!-- Node2 -->
<g id="node2" class="node">
<title>Node2</title>
<g id="a_node2"><a xlink:href="config_8hxx.html" target="_top" xlink:title=" ">
<polygon fill="white" stroke="black" points="428,-67.5 428,-86.5 537,-86.5 537,-67.5 428,-67.5"/>
<text text-anchor="middle" x="482.5" y="-74.5" font-family="'Souce Sans Pro', Roboto, FreeSans, sans-serif" font-size="10.00">log4cplus/config.hxx</text>
</a>
</g>
</g>
<!-- Node1&#45;&gt;Node2 -->
<g id="edge1" class="edge">
<title>Node1&#45;&gt;Node2</title>
<path fill="none" stroke="midnightblue" d="M441.87,-347.31C448.7,-328.92 463.5,-284.58 463.5,-246 463.5,-246 463.5,-246 463.5,-188 463.5,-155.49 471.66,-118.35 477.28,-96.61"/>
<polygon fill="midnightblue" stroke="midnightblue" points="480.72,-97.32 479.94,-86.75 473.96,-95.5 480.72,-97.32"/>
</g>
<!-- Node5 -->
<g id="node5" class="node">
<title>Node5</title>
<g id="a_node5"><a xlink:href="syncprims_8h.html" target="_top" xlink:title=" ">
<polygon fill="white" stroke="black" points="0,-123.5 0,-142.5 149,-142.5 149,-123.5 0,-123.5"/>
<text text-anchor="middle" x="74.5" y="-130.5" font-family="'Souce Sans Pro', Roboto, FreeSans, sans-serif" font-size="10.00">log4cplus/thread/syncprims.h</text>
</a>
</g>
</g>
<!-- Node1&#45;&gt;Node5 -->
<g id="edge4" class="edge">
<title>Node1&#45;&gt;Node5</title>
<path fill="none" stroke="midnightblue" d="M408.76,-347.5C348.01,-328.94 207.71,-279.87 116.5,-199 101.62,-185.8 89.9,-166.13 82.66,-151.88"/>
<polygon fill="midnightblue" stroke="midnightblue" points="85.7,-150.13 78.21,-142.64 79.4,-153.17 85.7,-150.13"/>
</g>
<!-- Node8 -->
<g id="node8" class="node">
<title>Node8</title>
<g id="a_node8"><a xlink:href="threads_8h.html" target="_top" xlink:title=" ">
<polygon fill="white" stroke="black" points="298,-235.5 298,-254.5 435,-254.5 435,-235.5 298,-235.5"/>
<text text-anchor="middle" x="366.5" y="-242.5" font-family="'Souce Sans Pro', Roboto, FreeSans, sans-serif" font-size="10.00">log4cplus/thread/threads.h</text>
</a>
</g>
</g>
<!-- Node1&#45;&gt;Node8 -->
<g id="edge8" class="edge">
<title>Node1&#45;&gt;Node8</title>
<path fill="none" stroke="midnightblue" d="M432.85,-347.37C420.97,-329.22 393.21,-286.8 377.62,-262.99"/>
<polygon fill="midnightblue" stroke="midnightblue" points="380.53,-261.04 372.12,-254.59 374.67,-264.88 380.53,-261.04"/>
</g>
<!-- Node19 -->
<g id="node19" class="node">
<title>Node19</title>
<g id="a_node19"><a xlink:href="helpers_2socket_8h.html" target="_top" xlink:title=" ">
<polygon fill="white" stroke="black" points="491.5,-291.5 491.5,-310.5 629.5,-310.5 629.5,-291.5 491.5,-291.5"/>
<text text-anchor="middle" x="560.5" y="-298.5" font-family="'Souce Sans Pro', Roboto, FreeSans, sans-serif" font-size="10.00">log4cplus/helpers/socket.h</text>
</a>
</g>
</g>
<!-- Node1&#45;&gt;Node19 -->
<g id="edge24" class="edge">
<title>Node1&#45;&gt;Node19</title>
<path fill="none" stroke="midnightblue" d="M457.83,-347.44C477.82,-338.6 509.24,-324.69 532.06,-314.59"/>
<polygon fill="midnightblue" stroke="midnightblue" points="533.53,-317.76 541.26,-310.52 530.7,-311.36 533.53,-317.76"/>
</g>
<!-- Node3 -->
<g id="node3" class="node">
<title>Node3</title>
<g id="a_node3"><a xlink:href="win32_8h.html" target="_top" xlink:title=" ">
<polygon fill="white" stroke="black" points="345.5,-6 345.5,-25 473.5,-25 473.5,-6 345.5,-6"/>
<text text-anchor="middle" x="409.5" y="-13" font-family="'Souce Sans Pro', Roboto, FreeSans, sans-serif" font-size="10.00">log4cplus/config/win32.h</text>
</a>
</g>
</g>
<!-- Node2&#45;&gt;Node3 -->
<g id="edge2" class="edge">
<title>Node2&#45;&gt;Node3</title>
<path fill="none" stroke="midnightblue" d="M472.04,-67.48C460.55,-58.11 441.87,-42.88 427.91,-31.51"/>
<polygon fill="midnightblue" stroke="midnightblue" points="429.9,-28.61 419.94,-25.01 425.48,-34.04 429.9,-28.61"/>
</g>
<!-- Node4 -->
<g id="node4" class="node">
<title>Node4</title>
<g id="a_node4"><a xlink:href="thread-config_8h.html" target="_top" xlink:title=" ">
<polygon fill="white" stroke="black" points="491.5,-0.5 491.5,-30.5 619.5,-30.5 619.5,-0.5 491.5,-0.5"/>
<text text-anchor="start" x="499.5" y="-18.5" font-family="'Souce Sans Pro', Roboto, FreeSans, sans-serif" font-size="10.00">log4cplus/helpers/thread</text>
<text text-anchor="middle" x="555.5" y="-7.5" font-family="'Souce Sans Pro', Roboto, FreeSans, sans-serif" font-size="10.00">&#45;config.h</text>
</a>
</g>
</g>
<!-- Node2&#45;&gt;Node4 -->
<g id="edge3" class="edge">
<title>Node2&#45;&gt;Node4</title>
<path fill="none" stroke="midnightblue" d="M492.96,-67.48C502.66,-59.57 517.49,-47.48 530.27,-37.07"/>
<polygon fill="midnightblue" stroke="midnightblue" points="532.76,-39.55 538.3,-30.52 528.33,-34.13 532.76,-39.55"/>
</g>
<!-- Node5&#45;&gt;Node2 -->
<g id="edge5" class="edge">
<title>Node5&#45;&gt;Node2</title>
<path fill="none" stroke="midnightblue" d="M139.15,-123.44C215.49,-113.34 341.7,-96.64 417.98,-86.54"/>
<polygon fill="midnightblue" stroke="midnightblue" points="418.49,-90 427.95,-85.22 417.57,-83.06 418.49,-90"/>
</g>
<!-- Node6 -->
<g id="node6" class="node">
<title>Node6</title>
<g id="a_node6"><a xlink:title=" ">
<polygon fill="white" stroke="#bfbfbf" points="8.5,-67.5 8.5,-86.5 52.5,-86.5 52.5,-67.5 8.5,-67.5"/>
<text text-anchor="middle" x="30.5" y="-74.5" font-family="'Souce Sans Pro', Roboto, FreeSans, sans-serif" font-size="10.00">mutex</text>
</a>
</g>
</g>
<!-- Node5&#45;&gt;Node6 -->
<g id="edge6" class="edge">
<title>Node5&#45;&gt;Node6</title>
<path fill="none" stroke="midnightblue" d="M67.23,-123.08C60.96,-115.38 51.71,-104.03 44.07,-94.65"/>
<polygon fill="midnightblue" stroke="midnightblue" points="46.66,-92.29 37.63,-86.75 41.23,-96.71 46.66,-92.29"/>
</g>
<!-- Node7 -->
<g id="node7" class="node">
<title>Node7</title>
<g id="a_node7"><a xlink:title=" ">
<polygon fill="white" stroke="#bfbfbf" points="70.5,-67.5 70.5,-86.5 166.5,-86.5 166.5,-67.5 70.5,-67.5"/>
<text text-anchor="middle" x="118.5" y="-74.5" font-family="'Souce Sans Pro', Roboto, FreeSans, sans-serif" font-size="10.00">condition_variable</text>
</a>
</g>
</g>
<!-- Node5&#45;&gt;Node7 -->
<g id="edge7" class="edge">
<title>Node5&#45;&gt;Node7</title>
<path fill="none" stroke="midnightblue" d="M81.77,-123.08C88.04,-115.38 97.29,-104.03 104.93,-94.65"/>
<polygon fill="midnightblue" stroke="midnightblue" points="107.77,-96.71 111.37,-86.75 102.34,-92.29 107.77,-96.71"/>
</g>
<!-- Node8&#45;&gt;Node2 -->
<g id="edge9" class="edge">
<title>Node8&#45;&gt;Node2</title>
<path fill="none" stroke="midnightblue" d="M375.37,-235.17C383.91,-226.43 396.89,-212.43 406.5,-199 429.07,-167.43 428.43,-155.59 449.5,-123 455.68,-113.44 463.14,-103.18 469.4,-94.87"/>
<polygon fill="midnightblue" stroke="midnightblue" points="472.32,-96.82 475.61,-86.75 466.75,-92.57 472.32,-96.82"/>
</g>
<!-- Node9 -->
<g id="node9" class="node">
<title>Node9</title>
<g id="a_node9"><a xlink:title=" ">
<polygon fill="white" stroke="#bfbfbf" points="343.5,-179.5 343.5,-198.5 397.5,-198.5 397.5,-179.5 343.5,-179.5"/>
<text text-anchor="middle" x="370.5" y="-186.5" font-family="'Souce Sans Pro', Roboto, FreeSans, sans-serif" font-size="10.00">memory</text>
</a>
</g>
</g>
<!-- Node8&#45;&gt;Node9 -->
<g id="edge10" class="edge">
<title>Node8&#45;&gt;Node9</title>
<path fill="none" stroke="midnightblue" d="M367.16,-235.08C367.68,-228.01 368.44,-217.86 369.09,-208.99"/>
<polygon fill="midnightblue" stroke="midnightblue" points="372.6,-208.98 369.85,-198.75 365.62,-208.47 372.6,-208.98"/>
</g>
<!-- Node10 -->
<g id="node10" class="node">
<title>Node10</title>
<g id="a_node10"><a xlink:title=" ">
<polygon fill="white" stroke="#bfbfbf" points="125.5,-179.5 125.5,-198.5 169.5,-198.5 169.5,-179.5 125.5,-179.5"/>
<text text-anchor="middle" x="147.5" y="-186.5" font-family="'Souce Sans Pro', Roboto, FreeSans, sans-serif" font-size="10.00">thread</text>
</a>
</g>
</g>
<!-- Node8&#45;&gt;Node10 -->
<g id="edge11" class="edge">
<title>Node8&#45;&gt;Node10</title>
<path fill="none" stroke="midnightblue" d="M328.56,-235.48C292.57,-227.27 236.77,-214.22 179.73,-199.24"/>
<polygon fill="midnightblue" stroke="midnightblue" points="180.38,-195.79 169.82,-196.62 178.59,-202.56 180.38,-195.79"/>
</g>
<!-- Node11 -->
<g id="node11" class="node">
<title>Node11</title>
<g id="a_node11"><a xlink:href="tstring_8h.html" target="_top" xlink:title=" ">
<polygon fill="white" stroke="black" points="535,-179.5 535,-198.5 634,-198.5 634,-179.5 535,-179.5"/>
<text text-anchor="middle" x="584.5" y="-186.5" font-family="'Souce Sans Pro', Roboto, FreeSans, sans-serif" font-size="10.00">log4cplus/tstring.h</text>
</a>
</g>
</g>
<!-- Node8&#45;&gt;Node11 -->
<g id="edge12" class="edge">
<title>Node8&#45;&gt;Node11</title>
<path fill="none" stroke="midnightblue" d="M401.04,-235.44C438.75,-226.1 499.24,-211.12 540.36,-200.93"/>
<polygon fill="midnightblue" stroke="midnightblue" points="541.25,-204.32 550.12,-198.52 539.57,-197.52 541.25,-204.32"/>
</g>
<!-- Node15 -->
<g id="node15" class="node">
<title>Node15</title>
<g id="a_node15"><a xlink:href="pointer_8h.html" target="_top" xlink:title=" ">
<polygon fill="white" stroke="black" points="187.5,-179.5 187.5,-198.5 325.5,-198.5 325.5,-179.5 187.5,-179.5"/>
<text text-anchor="middle" x="256.5" y="-186.5" font-family="'Souce Sans Pro', Roboto, FreeSans, sans-serif" font-size="10.00">log4cplus/helpers/pointer.h</text>
</a>
</g>
</g>
<!-- Node8&#45;&gt;Node15 -->
<g id="edge18" class="edge">
<title>Node8&#45;&gt;Node15</title>
<path fill="none" stroke="midnightblue" d="M348.83,-235.32C331.11,-226.62 303.6,-213.12 283.21,-203.11"/>
<polygon fill="midnightblue" stroke="midnightblue" points="284.65,-199.92 274.13,-198.65 281.56,-206.2 284.65,-199.92"/>
</g>
<!-- Node11&#45;&gt;Node2 -->
<g id="edge13" class="edge">
<title>Node11&#45;&gt;Node2</title>
<path fill="none" stroke="midnightblue" d="M576.5,-179.37C559.44,-160.97 519.29,-117.67 497.38,-94.05"/>
<polygon fill="midnightblue" stroke="midnightblue" points="499.83,-91.54 490.47,-86.59 494.7,-96.3 499.83,-91.54"/>
</g>
<!-- Node12 -->
<g id="node12" class="node">
<title>Node12</title>
<g id="a_node12"><a xlink:title=" ">
<polygon fill="white" stroke="#bfbfbf" points="568,-123.5 568,-142.5 609,-142.5 609,-123.5 568,-123.5"/>
<text text-anchor="middle" x="588.5" y="-130.5" font-family="'Souce Sans Pro', Roboto, FreeSans, sans-serif" font-size="10.00">string</text>
</a>
</g>
</g>
<!-- Node11&#45;&gt;Node12 -->
<g id="edge14" class="edge">
<title>Node11&#45;&gt;Node12</title>
<path fill="none" stroke="midnightblue" d="M585.16,-179.08C585.68,-172.01 586.44,-161.86 587.09,-152.99"/>
<polygon fill="midnightblue" stroke="midnightblue" points="590.6,-152.98 587.85,-142.75 583.62,-152.47 590.6,-152.98"/>
</g>
<!-- Node13 -->
<g id="node13" class="node">
<title>Node13</title>
<g id="a_node13"><a xlink:href="tchar_8h.html" target="_top" xlink:title=" ">
<polygon fill="white" stroke="black" points="627,-123.5 627,-142.5 720,-142.5 720,-123.5 627,-123.5"/>
<text text-anchor="middle" x="673.5" y="-130.5" font-family="'Souce Sans Pro', Roboto, FreeSans, sans-serif" font-size="10.00">log4cplus/tchar.h</text>
</a>
</g>
</g>
<!-- Node11&#45;&gt;Node13 -->
<g id="edge15" class="edge">
<title>Node11&#45;&gt;Node13</title>
<path fill="none" stroke="midnightblue" d="M598.8,-179.32C612.68,-170.9 633.99,-157.97 650.3,-148.07"/>
<polygon fill="midnightblue" stroke="midnightblue" points="652.5,-150.83 659.24,-142.65 648.87,-144.85 652.5,-150.83"/>
</g>
<!-- Node13&#45;&gt;Node2 -->
<g id="edge16" class="edge">
<title>Node13&#45;&gt;Node2</title>
<path fill="none" stroke="midnightblue" d="M643.24,-123.44C610.54,-114.2 558.32,-99.44 522.32,-89.26"/>
<polygon fill="midnightblue" stroke="midnightblue" points="523.2,-85.87 512.62,-86.52 521.29,-92.61 523.2,-85.87"/>
</g>
<!-- Node14 -->
<g id="node14" class="node">
<title>Node14</title>
<g id="a_node14"><a xlink:title=" ">
<polygon fill="white" stroke="#bfbfbf" points="648,-67.5 648,-86.5 699,-86.5 699,-67.5 648,-67.5"/>
<text text-anchor="middle" x="673.5" y="-74.5" font-family="'Souce Sans Pro', Roboto, FreeSans, sans-serif" font-size="10.00">cstddef</text>
</a>
</g>
</g>
<!-- Node13&#45;&gt;Node14 -->
<g id="edge17" class="edge">
<title>Node13&#45;&gt;Node14</title>
<path fill="none" stroke="midnightblue" d="M673.5,-123.08C673.5,-116.01 673.5,-105.86 673.5,-96.99"/>
<polygon fill="midnightblue" stroke="midnightblue" points="677,-96.75 673.5,-86.75 670,-96.75 677,-96.75"/>
</g>
<!-- Node15&#45;&gt;Node2 -->
<g id="edge19" class="edge">
<title>Node15&#45;&gt;Node2</title>
<path fill="none" stroke="midnightblue" d="M280.5,-179.44C303.46,-171 338.88,-157.31 368.5,-143 401.31,-127.14 437.63,-105.73 460.26,-91.89"/>
<polygon fill="midnightblue" stroke="midnightblue" points="462.11,-94.86 468.79,-86.63 458.44,-88.9 462.11,-94.86"/>
</g>
<!-- Node15&#45;&gt;Node5 -->
<g id="edge20" class="edge">
<title>Node15&#45;&gt;Node5</title>
<path fill="none" stroke="midnightblue" d="M227.66,-179.44C196.64,-170.24 147.17,-155.56 112.88,-145.39"/>
<polygon fill="midnightblue" stroke="midnightblue" points="113.79,-142.01 103.2,-142.52 111.79,-148.72 113.79,-142.01"/>
</g>
<!-- Node16 -->
<g id="node16" class="node">
<title>Node16</title>
<g id="a_node16"><a xlink:title=" ">
<polygon fill="white" stroke="#bfbfbf" points="232,-123.5 232,-142.5 291,-142.5 291,-123.5 232,-123.5"/>
<text text-anchor="middle" x="261.5" y="-130.5" font-family="'Souce Sans Pro', Roboto, FreeSans, sans-serif" font-size="10.00">algorithm</text>
</a>
</g>
</g>
<!-- Node15&#45;&gt;Node16 -->
<g id="edge21" class="edge">
<title>Node15&#45;&gt;Node16</title>
<path fill="none" stroke="midnightblue" d="M257.33,-179.08C257.98,-172.01 258.92,-161.86 259.74,-152.99"/>
<polygon fill="midnightblue" stroke="midnightblue" points="263.25,-153.03 260.69,-142.75 256.28,-152.39 263.25,-153.03"/>
</g>
<!-- Node17 -->
<g id="node17" class="node">
<title>Node17</title>
<g id="a_node17"><a xlink:title=" ">
<polygon fill="white" stroke="#bfbfbf" points="309.5,-123.5 309.5,-142.5 359.5,-142.5 359.5,-123.5 309.5,-123.5"/>
<text text-anchor="middle" x="334.5" y="-130.5" font-family="'Souce Sans Pro', Roboto, FreeSans, sans-serif" font-size="10.00">cassert</text>
</a>
</g>
</g>
<!-- Node15&#45;&gt;Node17 -->
<g id="edge22" class="edge">
<title>Node15&#45;&gt;Node17</title>
<path fill="none" stroke="midnightblue" d="M269.03,-179.32C281.09,-170.98 299.53,-158.21 313.77,-148.35"/>
<polygon fill="midnightblue" stroke="midnightblue" points="315.77,-151.22 322,-142.65 311.78,-145.47 315.77,-151.22"/>
</g>
<!-- Node18 -->
<g id="node18" class="node">
<title>Node18</title>
<g id="a_node18"><a xlink:title=" ">
<polygon fill="white" stroke="#bfbfbf" points="167,-123.5 167,-142.5 214,-142.5 214,-123.5 167,-123.5"/>
<text text-anchor="middle" x="190.5" y="-130.5" font-family="'Souce Sans Pro', Roboto, FreeSans, sans-serif" font-size="10.00">atomic</text>
</a>
</g>
</g>
<!-- Node15&#45;&gt;Node18 -->
<g id="edge23" class="edge">
<title>Node15&#45;&gt;Node18</title>
<path fill="none" stroke="midnightblue" d="M245.9,-179.32C236.04,-171.26 221.15,-159.08 209.28,-149.37"/>
<polygon fill="midnightblue" stroke="midnightblue" points="211.25,-146.46 201.3,-142.83 206.82,-151.88 211.25,-146.46"/>
</g>
<!-- Node19&#45;&gt;Node2 -->
<g id="edge25" class="edge">
<title>Node19&#45;&gt;Node2</title>
<path fill="none" stroke="midnightblue" d="M557.44,-291.3C545.92,-258.49 504.95,-141.88 488.96,-96.38"/>
<polygon fill="midnightblue" stroke="midnightblue" points="492.24,-95.16 485.62,-86.88 485.63,-97.48 492.24,-95.16"/>
</g>
<!-- Node19&#45;&gt;Node11 -->
<g id="edge27" class="edge">
<title>Node19&#45;&gt;Node11</title>
<path fill="none" stroke="midnightblue" d="M560.95,-291.48C561.75,-278.96 563.79,-254.92 568.5,-235 570.62,-226.02 573.92,-216.35 576.97,-208.28"/>
<polygon fill="midnightblue" stroke="midnightblue" points="580.3,-209.38 580.72,-198.79 573.79,-206.8 580.3,-209.38"/>
</g>
<!-- Node20 -->
<g id="node20" class="node">
<title>Node20</title>
<g id="a_node20"><a xlink:title=" ">
<polygon fill="white" stroke="#bfbfbf" points="759.5,-235.5 759.5,-254.5 797.5,-254.5 797.5,-235.5 759.5,-235.5"/>
<text text-anchor="middle" x="778.5" y="-242.5" font-family="'Souce Sans Pro', Roboto, FreeSans, sans-serif" font-size="10.00">array</text>
</a>
</g>
</g>
<!-- Node19&#45;&gt;Node20 -->
<g id="edge26" class="edge">
<title>Node19&#45;&gt;Node20</title>
<path fill="none" stroke="midnightblue" d="M600.77,-291.43C637.27,-283.44 692.75,-270.77 749.43,-255.14"/>
<polygon fill="midnightblue" stroke="midnightblue" points="750.59,-258.45 759.28,-252.4 748.71,-251.71 750.59,-258.45"/>
</g>
<!-- Node21 -->
<g id="node21" class="node">
<title>Node21</title>
<g id="a_node21"><a xlink:href="socketbuffer_8h.html" target="_top" xlink:title=" ">
<polygon fill="white" stroke="black" points="577.5,-235.5 577.5,-254.5 741.5,-254.5 741.5,-235.5 577.5,-235.5"/>
<text text-anchor="middle" x="659.5" y="-242.5" font-family="'Souce Sans Pro', Roboto, FreeSans, sans-serif" font-size="10.00">log4cplus/helpers/socketbuffer.h</text>
</a>
</g>
</g>
<!-- Node19&#45;&gt;Node21 -->
<g id="edge28" class="edge">
<title>Node19&#45;&gt;Node21</title>
<path fill="none" stroke="midnightblue" d="M576.41,-291.32C592.14,-282.74 616.44,-269.49 634.71,-259.52"/>
<polygon fill="midnightblue" stroke="midnightblue" points="636.53,-262.52 643.63,-254.65 633.18,-256.37 636.53,-262.52"/>
</g>
<!-- Node21&#45;&gt;Node2 -->
<g id="edge29" class="edge">
<title>Node21&#45;&gt;Node2</title>
<path fill="none" stroke="midnightblue" d="M671.32,-235.45C698.55,-214.75 761.06,-160.83 729.5,-123 706.71,-95.68 612.52,-84.9 547.28,-80.68"/>
<polygon fill="midnightblue" stroke="midnightblue" points="547.27,-77.17 537.07,-80.06 546.84,-84.16 547.27,-77.17"/>
</g>
<!-- Node21&#45;&gt;Node11 -->
<g id="edge30" class="edge">
<title>Node21&#45;&gt;Node11</title>
<path fill="none" stroke="midnightblue" d="M647.45,-235.32C636.04,-227.11 618.67,-214.6 605.07,-204.81"/>
<polygon fill="midnightblue" stroke="midnightblue" points="606.93,-201.84 596.77,-198.83 602.84,-207.52 606.93,-201.84"/>
</g>
</g>
</svg>
