<?xml version="1.0" encoding="UTF-8" standalone="no"?>
<!DOCTYPE svg PUBLIC "-//W3C//DTD SVG 1.1//EN"
 "http://www.w3.org/Graphics/SVG/1.1/DTD/svg11.dtd">
<!-- Generated by graphviz version 2.43.0 (0)
 -->
<!-- Title: customloglevelmanager.h Pages: 1 -->
<svg width="1563pt" height="453pt"
 viewBox="0.00 0.00 1562.50 453.00" xmlns="http://www.w3.org/2000/svg" xmlns:xlink="http://www.w3.org/1999/xlink">
<g id="graph0" class="graph" transform="scale(1 1) rotate(0) translate(4 449)">
<title>customloglevelmanager.h</title>
<polygon fill="white" stroke="transparent" points="-4,4 -4,-449 1558.5,-449 1558.5,4 -4,4"/>
<!-- Node1 -->
<g id="node1" class="node">
<title>Node1</title>
<g id="a_node1"><a xlink:title="This header contains declaration internal to log4cplus.">
<polygon fill="#bfbfbf" stroke="black" points="1149.5,-425.5 1149.5,-444.5 1279.5,-444.5 1279.5,-425.5 1149.5,-425.5"/>
<text text-anchor="middle" x="1214.5" y="-432.5" font-family="'Souce Sans Pro', Roboto, FreeSans, sans-serif" font-size="10.00">customloglevelmanager.h</text>
</a>
</g>
</g>
<!-- Node2 -->
<g id="node2" class="node">
<title>Node2</title>
<g id="a_node2"><a xlink:href="config_8hxx.html" target="_top" xlink:title=" ">
<polygon fill="white" stroke="black" points="792,-67.5 792,-86.5 901,-86.5 901,-67.5 792,-67.5"/>
<text text-anchor="middle" x="846.5" y="-74.5" font-family="'Souce Sans Pro', Roboto, FreeSans, sans-serif" font-size="10.00">log4cplus/config.hxx</text>
</a>
</g>
</g>
<!-- Node1&#45;&gt;Node2 -->
<g id="edge1" class="edge">
<title>Node1&#45;&gt;Node2</title>
<path fill="none" stroke="midnightblue" d="M1273.34,-425.45C1370.65,-409.64 1554.5,-371.97 1554.5,-313 1554.5,-313 1554.5,-313 1554.5,-193.5 1554.5,-130.49 1491.72,-141.54 1431.5,-123 1336,-93.6 1043.3,-82.83 911.74,-79.41"/>
<polygon fill="midnightblue" stroke="midnightblue" points="911.5,-75.9 901.42,-79.14 911.32,-82.9 911.5,-75.9"/>
</g>
<!-- Node5 -->
<g id="node5" class="node">
<title>Node5</title>
<g id="a_node5"><a xlink:title=" ">
<polygon fill="white" stroke="#bfbfbf" points="1114.5,-185 1114.5,-204 1150.5,-204 1150.5,-185 1114.5,-185"/>
<text text-anchor="middle" x="1132.5" y="-192" font-family="'Souce Sans Pro', Roboto, FreeSans, sans-serif" font-size="10.00">map</text>
</a>
</g>
</g>
<!-- Node1&#45;&gt;Node5 -->
<g id="edge4" class="edge">
<title>Node1&#45;&gt;Node5</title>
<path fill="none" stroke="midnightblue" d="M1224.99,-425.33C1249.25,-404.21 1305.36,-348.39 1281.5,-302 1255.97,-252.38 1195.42,-220.74 1159.86,-205.75"/>
<polygon fill="midnightblue" stroke="midnightblue" points="1161.13,-202.49 1150.55,-201.96 1158.49,-208.97 1161.13,-202.49"/>
</g>
<!-- Node6 -->
<g id="node6" class="node">
<title>Node6</title>
<g id="a_node6"><a xlink:href="syncprims_8h.html" target="_top" xlink:title=" ">
<polygon fill="white" stroke="black" points="0,-123.5 0,-142.5 149,-142.5 149,-123.5 0,-123.5"/>
<text text-anchor="middle" x="74.5" y="-130.5" font-family="'Souce Sans Pro', Roboto, FreeSans, sans-serif" font-size="10.00">log4cplus/thread/syncprims.h</text>
</a>
</g>
</g>
<!-- Node1&#45;&gt;Node6 -->
<g id="edge5" class="edge">
<title>Node1&#45;&gt;Node6</title>
<path fill="none" stroke="midnightblue" d="M1149.33,-433.77C911.82,-432.08 106.5,-418.58 106.5,-313 106.5,-313 106.5,-313 106.5,-255 106.5,-217.31 91.81,-175.15 82.34,-151.88"/>
<polygon fill="midnightblue" stroke="midnightblue" points="85.54,-150.45 78.42,-142.6 79.09,-153.17 85.54,-150.45"/>
</g>
<!-- Node9 -->
<g id="node9" class="node">
<title>Node9</title>
<g id="a_node9"><a xlink:href="internal_8h.html" target="_top" xlink:title="This header contains declaration internal to log4cplus.">
<polygon fill="white" stroke="black" points="1043,-358.5 1043,-388.5 1138,-388.5 1138,-358.5 1043,-358.5"/>
<text text-anchor="start" x="1051" y="-376.5" font-family="'Souce Sans Pro', Roboto, FreeSans, sans-serif" font-size="10.00">log4cplus/internal</text>
<text text-anchor="middle" x="1090.5" y="-365.5" font-family="'Souce Sans Pro', Roboto, FreeSans, sans-serif" font-size="10.00">/internal.h</text>
</a>
</g>
</g>
<!-- Node1&#45;&gt;Node9 -->
<g id="edge9" class="edge">
<title>Node1&#45;&gt;Node9</title>
<path fill="none" stroke="midnightblue" d="M1196.73,-425.48C1179.08,-417 1151.43,-403.74 1128.77,-392.86"/>
<polygon fill="midnightblue" stroke="midnightblue" points="1130.25,-389.69 1119.72,-388.52 1127.23,-396 1130.25,-389.69"/>
</g>
<!-- Node3 -->
<g id="node3" class="node">
<title>Node3</title>
<g id="a_node3"><a xlink:href="win32_8h.html" target="_top" xlink:title=" ">
<polygon fill="white" stroke="black" points="709.5,-6 709.5,-25 837.5,-25 837.5,-6 709.5,-6"/>
<text text-anchor="middle" x="773.5" y="-13" font-family="'Souce Sans Pro', Roboto, FreeSans, sans-serif" font-size="10.00">log4cplus/config/win32.h</text>
</a>
</g>
</g>
<!-- Node2&#45;&gt;Node3 -->
<g id="edge2" class="edge">
<title>Node2&#45;&gt;Node3</title>
<path fill="none" stroke="midnightblue" d="M836.04,-67.48C824.55,-58.11 805.87,-42.88 791.91,-31.51"/>
<polygon fill="midnightblue" stroke="midnightblue" points="793.9,-28.61 783.94,-25.01 789.48,-34.04 793.9,-28.61"/>
</g>
<!-- Node4 -->
<g id="node4" class="node">
<title>Node4</title>
<g id="a_node4"><a xlink:href="thread-config_8h.html" target="_top" xlink:title=" ">
<polygon fill="white" stroke="black" points="855.5,-0.5 855.5,-30.5 983.5,-30.5 983.5,-0.5 855.5,-0.5"/>
<text text-anchor="start" x="863.5" y="-18.5" font-family="'Souce Sans Pro', Roboto, FreeSans, sans-serif" font-size="10.00">log4cplus/helpers/thread</text>
<text text-anchor="middle" x="919.5" y="-7.5" font-family="'Souce Sans Pro', Roboto, FreeSans, sans-serif" font-size="10.00">&#45;config.h</text>
</a>
</g>
</g>
<!-- Node2&#45;&gt;Node4 -->
<g id="edge3" class="edge">
<title>Node2&#45;&gt;Node4</title>
<path fill="none" stroke="midnightblue" d="M856.96,-67.48C866.66,-59.57 881.49,-47.48 894.27,-37.07"/>
<polygon fill="midnightblue" stroke="midnightblue" points="896.76,-39.55 902.3,-30.52 892.33,-34.13 896.76,-39.55"/>
</g>
<!-- Node6&#45;&gt;Node2 -->
<g id="edge6" class="edge">
<title>Node6&#45;&gt;Node2</title>
<path fill="none" stroke="midnightblue" d="M149.38,-124.16C153.81,-123.75 158.22,-123.36 162.5,-123 389.79,-103.91 660.15,-88.18 781.68,-81.48"/>
<polygon fill="midnightblue" stroke="midnightblue" points="782.13,-84.96 791.92,-80.92 781.74,-77.97 782.13,-84.96"/>
</g>
<!-- Node7 -->
<g id="node7" class="node">
<title>Node7</title>
<g id="a_node7"><a xlink:title=" ">
<polygon fill="white" stroke="#bfbfbf" points="8.5,-67.5 8.5,-86.5 52.5,-86.5 52.5,-67.5 8.5,-67.5"/>
<text text-anchor="middle" x="30.5" y="-74.5" font-family="'Souce Sans Pro', Roboto, FreeSans, sans-serif" font-size="10.00">mutex</text>
</a>
</g>
</g>
<!-- Node6&#45;&gt;Node7 -->
<g id="edge7" class="edge">
<title>Node6&#45;&gt;Node7</title>
<path fill="none" stroke="midnightblue" d="M67.23,-123.08C60.96,-115.38 51.71,-104.03 44.07,-94.65"/>
<polygon fill="midnightblue" stroke="midnightblue" points="46.66,-92.29 37.63,-86.75 41.23,-96.71 46.66,-92.29"/>
</g>
<!-- Node8 -->
<g id="node8" class="node">
<title>Node8</title>
<g id="a_node8"><a xlink:title=" ">
<polygon fill="white" stroke="#bfbfbf" points="70.5,-67.5 70.5,-86.5 166.5,-86.5 166.5,-67.5 70.5,-67.5"/>
<text text-anchor="middle" x="118.5" y="-74.5" font-family="'Souce Sans Pro', Roboto, FreeSans, sans-serif" font-size="10.00">condition_variable</text>
</a>
</g>
</g>
<!-- Node6&#45;&gt;Node8 -->
<g id="edge8" class="edge">
<title>Node6&#45;&gt;Node8</title>
<path fill="none" stroke="midnightblue" d="M81.77,-123.08C88.04,-115.38 97.29,-104.03 104.93,-94.65"/>
<polygon fill="midnightblue" stroke="midnightblue" points="107.77,-96.71 111.37,-86.75 102.34,-92.29 107.77,-96.71"/>
</g>
<!-- Node9&#45;&gt;Node2 -->
<g id="edge10" class="edge">
<title>Node9&#45;&gt;Node2</title>
<path fill="none" stroke="midnightblue" d="M1042.97,-371.55C855.35,-367.17 176.5,-345.22 176.5,-257 176.5,-257 176.5,-257 176.5,-193.5 176.5,-154.3 195.09,-141.78 229.5,-123 277.06,-97.05 632.97,-84.05 781.6,-79.71"/>
<polygon fill="midnightblue" stroke="midnightblue" points="782.04,-83.2 791.93,-79.41 781.84,-76.2 782.04,-83.2"/>
</g>
<!-- Node10 -->
<g id="node10" class="node">
<title>Node10</title>
<g id="a_node10"><a xlink:title=" ">
<polygon fill="white" stroke="#bfbfbf" points="498.5,-185 498.5,-204 552.5,-204 552.5,-185 498.5,-185"/>
<text text-anchor="middle" x="525.5" y="-192" font-family="'Souce Sans Pro', Roboto, FreeSans, sans-serif" font-size="10.00">memory</text>
</a>
</g>
</g>
<!-- Node9&#45;&gt;Node10 -->
<g id="edge11" class="edge">
<title>Node9&#45;&gt;Node10</title>
<path fill="none" stroke="midnightblue" d="M1042.95,-370.71C966.46,-366.91 811.88,-355.44 685.5,-322 622.7,-305.39 595.21,-313.12 550.5,-266 536.98,-251.75 530.71,-229.72 527.84,-214.09"/>
<polygon fill="midnightblue" stroke="midnightblue" points="531.27,-213.39 526.3,-204.03 524.35,-214.45 531.27,-213.39"/>
</g>
<!-- Node11 -->
<g id="node11" class="node">
<title>Node11</title>
<g id="a_node11"><a xlink:title=" ">
<polygon fill="white" stroke="#bfbfbf" points="1206.5,-185 1206.5,-204 1250.5,-204 1250.5,-185 1206.5,-185"/>
<text text-anchor="middle" x="1228.5" y="-192" font-family="'Souce Sans Pro', Roboto, FreeSans, sans-serif" font-size="10.00">vector</text>
</a>
</g>
</g>
<!-- Node9&#45;&gt;Node11 -->
<g id="edge12" class="edge">
<title>Node9&#45;&gt;Node11</title>
<path fill="none" stroke="midnightblue" d="M1100.44,-358.34C1111.29,-343.42 1129.65,-319.67 1148.5,-302 1168.48,-283.27 1181.4,-287.39 1198.5,-266 1210.93,-250.45 1219.08,-228.99 1223.71,-213.84"/>
<polygon fill="midnightblue" stroke="midnightblue" points="1227.11,-214.67 1226.46,-204.1 1220.37,-212.77 1227.11,-214.67"/>
</g>
<!-- Node12 -->
<g id="node12" class="node">
<title>Node12</title>
<g id="a_node12"><a xlink:title=" ">
<polygon fill="white" stroke="#bfbfbf" points="1157,-302.5 1157,-321.5 1210,-321.5 1210,-302.5 1157,-302.5"/>
<text text-anchor="middle" x="1183.5" y="-309.5" font-family="'Souce Sans Pro', Roboto, FreeSans, sans-serif" font-size="10.00">sstream</text>
</a>
</g>
</g>
<!-- Node9&#45;&gt;Node12 -->
<g id="edge13" class="edge">
<title>Node9&#45;&gt;Node12</title>
<path fill="none" stroke="midnightblue" d="M1112.54,-358.4C1127.31,-348.95 1146.68,-336.56 1161.45,-327.11"/>
<polygon fill="midnightblue" stroke="midnightblue" points="1163.43,-330 1169.97,-321.66 1159.66,-324.1 1163.43,-330"/>
</g>
<!-- Node13 -->
<g id="node13" class="node">
<title>Node13</title>
<g id="a_node13"><a xlink:title=" ">
<polygon fill="white" stroke="#bfbfbf" points="1228.5,-302.5 1228.5,-321.5 1272.5,-321.5 1272.5,-302.5 1228.5,-302.5"/>
<text text-anchor="middle" x="1250.5" y="-309.5" font-family="'Souce Sans Pro', Roboto, FreeSans, sans-serif" font-size="10.00">cstdio</text>
</a>
</g>
</g>
<!-- Node9&#45;&gt;Node13 -->
<g id="edge14" class="edge">
<title>Node9&#45;&gt;Node13</title>
<path fill="none" stroke="midnightblue" d="M1128.42,-358.4C1155.95,-348.16 1192.78,-334.46 1218.76,-324.8"/>
<polygon fill="midnightblue" stroke="midnightblue" points="1219.99,-328.08 1228.15,-321.31 1217.55,-321.52 1219.99,-328.08"/>
</g>
<!-- Node14 -->
<g id="node14" class="node">
<title>Node14</title>
<g id="a_node14"><a xlink:href="tstring_8h.html" target="_top" xlink:title=" ">
<polygon fill="white" stroke="black" points="772,-185 772,-204 871,-204 871,-185 772,-185"/>
<text text-anchor="middle" x="821.5" y="-192" font-family="'Souce Sans Pro', Roboto, FreeSans, sans-serif" font-size="10.00">log4cplus/tstring.h</text>
</a>
</g>
</g>
<!-- Node9&#45;&gt;Node14 -->
<g id="edge15" class="edge">
<title>Node9&#45;&gt;Node14</title>
<path fill="none" stroke="midnightblue" d="M1067.8,-358.48C1051.89,-348.53 1030.2,-334.73 1011.5,-322 963.88,-289.58 954.65,-277.63 906.5,-246 886.41,-232.8 862.86,-218.93 845.65,-209.07"/>
<polygon fill="midnightblue" stroke="midnightblue" points="847.22,-205.94 836.8,-204.03 843.76,-212.02 847.22,-205.94"/>
</g>
<!-- Node18 -->
<g id="node18" class="node">
<title>Node18</title>
<g id="a_node18"><a xlink:href="streams_8h.html" target="_top" xlink:title=" ">
<polygon fill="white" stroke="black" points="889,-185 889,-204 996,-204 996,-185 889,-185"/>
<text text-anchor="middle" x="942.5" y="-192" font-family="'Souce Sans Pro', Roboto, FreeSans, sans-serif" font-size="10.00">log4cplus/streams.h</text>
</a>
</g>
</g>
<!-- Node9&#45;&gt;Node18 -->
<g id="edge21" class="edge">
<title>Node9&#45;&gt;Node18</title>
<path fill="none" stroke="midnightblue" d="M1073.33,-358.24C1050.71,-338.91 1010.54,-302.57 982.5,-266 969.7,-249.31 958.21,-228.07 950.86,-213.28"/>
<polygon fill="midnightblue" stroke="midnightblue" points="953.98,-211.69 946.47,-204.22 947.68,-214.74 953.98,-211.69"/>
</g>
<!-- Node20 -->
<g id="node20" class="node">
<title>Node20</title>
<g id="a_node20"><a xlink:href="ndc_8h.html" target="_top" xlink:title="This header defined the NDC class.">
<polygon fill="white" stroke="black" points="991.5,-246.5 991.5,-265.5 1079.5,-265.5 1079.5,-246.5 991.5,-246.5"/>
<text text-anchor="middle" x="1035.5" y="-253.5" font-family="'Souce Sans Pro', Roboto, FreeSans, sans-serif" font-size="10.00">log4cplus/ndc.h</text>
</a>
</g>
</g>
<!-- Node9&#45;&gt;Node20 -->
<g id="edge25" class="edge">
<title>Node9&#45;&gt;Node20</title>
<path fill="none" stroke="midnightblue" d="M1083.76,-358.34C1073.76,-337.34 1055,-297.96 1044.05,-274.96"/>
<polygon fill="midnightblue" stroke="midnightblue" points="1047.09,-273.19 1039.63,-265.67 1040.77,-276.2 1047.09,-273.19"/>
</g>
<!-- Node22 -->
<g id="node22" class="node">
<title>Node22</title>
<g id="a_node22"><a xlink:href="mdc_8h.html" target="_top" xlink:title=" ">
<polygon fill="white" stroke="black" points="1097.5,-246.5 1097.5,-265.5 1189.5,-265.5 1189.5,-246.5 1097.5,-246.5"/>
<text text-anchor="middle" x="1143.5" y="-253.5" font-family="'Souce Sans Pro', Roboto, FreeSans, sans-serif" font-size="10.00">log4cplus/mdc.h</text>
</a>
</g>
</g>
<!-- Node9&#45;&gt;Node22 -->
<g id="edge30" class="edge">
<title>Node9&#45;&gt;Node22</title>
<path fill="none" stroke="midnightblue" d="M1094.22,-358.32C1098.28,-343.79 1105.44,-320.74 1114.5,-302 1119.2,-292.27 1125.61,-282.1 1131.21,-273.89"/>
<polygon fill="midnightblue" stroke="midnightblue" points="1134.16,-275.78 1137.05,-265.59 1128.44,-271.75 1134.16,-275.78"/>
</g>
<!-- Node23 -->
<g id="node23" class="node">
<title>Node23</title>
<g id="a_node23"><a xlink:href="loggingevent_8h.html" target="_top" xlink:title=" ">
<polygon fill="white" stroke="black" points="694,-302.5 694,-321.5 837,-321.5 837,-302.5 694,-302.5"/>
<text text-anchor="middle" x="765.5" y="-309.5" font-family="'Souce Sans Pro', Roboto, FreeSans, sans-serif" font-size="10.00">log4cplus/spi/loggingevent.h</text>
</a>
</g>
</g>
<!-- Node9&#45;&gt;Node23 -->
<g id="edge34" class="edge">
<title>Node9&#45;&gt;Node23</title>
<path fill="none" stroke="midnightblue" d="M1042.89,-363.78C984.27,-353.05 884.81,-334.84 822.27,-323.39"/>
<polygon fill="midnightblue" stroke="midnightblue" points="822.65,-319.9 812.18,-321.55 821.38,-326.79 822.65,-319.9"/>
</g>
<!-- Node34 -->
<g id="node34" class="node">
<title>Node34</title>
<g id="a_node34"><a xlink:href="tls_8h.html" target="_top" xlink:title=" ">
<polygon fill="white" stroke="black" points="1268.5,-179.5 1268.5,-209.5 1382.5,-209.5 1382.5,-179.5 1268.5,-179.5"/>
<text text-anchor="start" x="1276.5" y="-197.5" font-family="'Souce Sans Pro', Roboto, FreeSans, sans-serif" font-size="10.00">log4cplus/thread/impl</text>
<text text-anchor="middle" x="1325.5" y="-186.5" font-family="'Souce Sans Pro', Roboto, FreeSans, sans-serif" font-size="10.00">/tls.h</text>
</a>
</g>
</g>
<!-- Node9&#45;&gt;Node34 -->
<g id="edge60" class="edge">
<title>Node9&#45;&gt;Node34</title>
<path fill="none" stroke="midnightblue" d="M1138.02,-371.99C1180.71,-369.02 1242.5,-358.13 1281.5,-322 1310.41,-295.21 1320.33,-248.44 1323.73,-219.89"/>
<polygon fill="midnightblue" stroke="midnightblue" points="1327.25,-219.88 1324.77,-209.58 1320.28,-219.18 1327.25,-219.88"/>
</g>
<!-- Node37 -->
<g id="node37" class="node">
<title>Node37</title>
<g id="a_node37"><a xlink:href="snprintf_8h.html" target="_top" xlink:title=" ">
<polygon fill="white" stroke="black" points="1339.5,-246.5 1339.5,-265.5 1481.5,-265.5 1481.5,-246.5 1339.5,-246.5"/>
<text text-anchor="middle" x="1410.5" y="-253.5" font-family="'Souce Sans Pro', Roboto, FreeSans, sans-serif" font-size="10.00">log4cplus/helpers/snprintf.h</text>
</a>
</g>
</g>
<!-- Node9&#45;&gt;Node37 -->
<g id="edge65" class="edge">
<title>Node9&#45;&gt;Node37</title>
<path fill="none" stroke="midnightblue" d="M1138.43,-366.96C1184.92,-360.39 1256.7,-347.02 1314.5,-322 1344.03,-309.22 1374.11,-287.06 1392.54,-272.21"/>
<polygon fill="midnightblue" stroke="midnightblue" points="1395.1,-274.64 1400.6,-265.59 1390.65,-269.23 1395.1,-274.64"/>
</g>
<!-- Node14&#45;&gt;Node2 -->
<g id="edge16" class="edge">
<title>Node14&#45;&gt;Node2</title>
<path fill="none" stroke="midnightblue" d="M823.38,-184.82C827.41,-166.17 836.99,-121.94 842.47,-96.63"/>
<polygon fill="midnightblue" stroke="midnightblue" points="845.9,-97.3 844.6,-86.78 839.06,-95.82 845.9,-97.3"/>
</g>
<!-- Node15 -->
<g id="node15" class="node">
<title>Node15</title>
<g id="a_node15"><a xlink:title=" ">
<polygon fill="white" stroke="#bfbfbf" points="777,-123.5 777,-142.5 818,-142.5 818,-123.5 777,-123.5"/>
<text text-anchor="middle" x="797.5" y="-130.5" font-family="'Souce Sans Pro', Roboto, FreeSans, sans-serif" font-size="10.00">string</text>
</a>
</g>
</g>
<!-- Node14&#45;&gt;Node15 -->
<g id="edge17" class="edge">
<title>Node14&#45;&gt;Node15</title>
<path fill="none" stroke="midnightblue" d="M818.06,-184.98C814.6,-176.4 809.17,-162.93 804.75,-151.98"/>
<polygon fill="midnightblue" stroke="midnightblue" points="807.92,-150.47 800.93,-142.51 801.43,-153.09 807.92,-150.47"/>
</g>
<!-- Node16 -->
<g id="node16" class="node">
<title>Node16</title>
<g id="a_node16"><a xlink:href="tchar_8h.html" target="_top" xlink:title=" ">
<polygon fill="white" stroke="black" points="1127,-123.5 1127,-142.5 1220,-142.5 1220,-123.5 1127,-123.5"/>
<text text-anchor="middle" x="1173.5" y="-130.5" font-family="'Souce Sans Pro', Roboto, FreeSans, sans-serif" font-size="10.00">log4cplus/tchar.h</text>
</a>
</g>
</g>
<!-- Node14&#45;&gt;Node16 -->
<g id="edge18" class="edge">
<title>Node14&#45;&gt;Node16</title>
<path fill="none" stroke="midnightblue" d="M854.15,-184.93C862.69,-182.84 871.91,-180.71 880.5,-179 962.04,-162.75 1057.35,-149.09 1116.58,-141.22"/>
<polygon fill="midnightblue" stroke="midnightblue" points="1117.39,-144.64 1126.84,-139.87 1116.47,-137.7 1117.39,-144.64"/>
</g>
<!-- Node16&#45;&gt;Node2 -->
<g id="edge19" class="edge">
<title>Node16&#45;&gt;Node2</title>
<path fill="none" stroke="midnightblue" d="M1127,-124.32C1069.59,-114.84 971.77,-98.69 908.14,-88.18"/>
<polygon fill="midnightblue" stroke="midnightblue" points="908.68,-84.72 898.24,-86.54 907.53,-91.63 908.68,-84.72"/>
</g>
<!-- Node17 -->
<g id="node17" class="node">
<title>Node17</title>
<g id="a_node17"><a xlink:title=" ">
<polygon fill="white" stroke="#bfbfbf" points="1148,-67.5 1148,-86.5 1199,-86.5 1199,-67.5 1148,-67.5"/>
<text text-anchor="middle" x="1173.5" y="-74.5" font-family="'Souce Sans Pro', Roboto, FreeSans, sans-serif" font-size="10.00">cstddef</text>
</a>
</g>
</g>
<!-- Node16&#45;&gt;Node17 -->
<g id="edge20" class="edge">
<title>Node16&#45;&gt;Node17</title>
<path fill="none" stroke="midnightblue" d="M1173.5,-123.08C1173.5,-116.01 1173.5,-105.86 1173.5,-96.99"/>
<polygon fill="midnightblue" stroke="midnightblue" points="1177,-96.75 1173.5,-86.75 1170,-96.75 1177,-96.75"/>
</g>
<!-- Node18&#45;&gt;Node2 -->
<g id="edge22" class="edge">
<title>Node18&#45;&gt;Node2</title>
<path fill="none" stroke="midnightblue" d="M935.28,-184.82C919.37,-165.67 881.03,-119.54 860.32,-94.63"/>
<polygon fill="midnightblue" stroke="midnightblue" points="862.88,-92.24 853.8,-86.78 857.5,-96.71 862.88,-92.24"/>
</g>
<!-- Node18&#45;&gt;Node16 -->
<g id="edge23" class="edge">
<title>Node18&#45;&gt;Node16</title>
<path fill="none" stroke="midnightblue" d="M975.6,-184.98C1016.42,-174.46 1085.91,-156.56 1130.74,-145.01"/>
<polygon fill="midnightblue" stroke="midnightblue" points="1131.65,-148.39 1140.46,-142.51 1129.91,-141.61 1131.65,-148.39"/>
</g>
<!-- Node19 -->
<g id="node19" class="node">
<title>Node19</title>
<g id="a_node19"><a xlink:title=" ">
<polygon fill="white" stroke="#bfbfbf" points="917,-123.5 917,-142.5 964,-142.5 964,-123.5 917,-123.5"/>
<text text-anchor="middle" x="940.5" y="-130.5" font-family="'Souce Sans Pro', Roboto, FreeSans, sans-serif" font-size="10.00">iosfwd</text>
</a>
</g>
</g>
<!-- Node18&#45;&gt;Node19 -->
<g id="edge24" class="edge">
<title>Node18&#45;&gt;Node19</title>
<path fill="none" stroke="midnightblue" d="M942.21,-184.98C941.93,-176.58 941.49,-163.48 941.13,-152.66"/>
<polygon fill="midnightblue" stroke="midnightblue" points="944.62,-152.39 940.79,-142.51 937.62,-152.62 944.62,-152.39"/>
</g>
<!-- Node20&#45;&gt;Node2 -->
<g id="edge26" class="edge">
<title>Node20&#45;&gt;Node2</title>
<path fill="none" stroke="midnightblue" d="M1044.25,-246.29C1052.06,-237.84 1062.95,-224.25 1067.5,-210 1079.78,-171.56 1072.84,-148.42 1041.5,-123 1004.98,-93.38 952.57,-82.5 911.28,-78.83"/>
<polygon fill="midnightblue" stroke="midnightblue" points="911.55,-75.34 901.31,-78.06 911.01,-82.32 911.55,-75.34"/>
</g>
<!-- Node20&#45;&gt;Node5 -->
<g id="edge28" class="edge">
<title>Node20&#45;&gt;Node5</title>
<path fill="none" stroke="midnightblue" d="M1049.4,-246.48C1065.17,-236.8 1091.14,-220.87 1109.85,-209.39"/>
<polygon fill="midnightblue" stroke="midnightblue" points="1111.93,-212.22 1118.63,-204.01 1108.27,-206.25 1111.93,-212.22"/>
</g>
<!-- Node20&#45;&gt;Node14 -->
<g id="edge27" class="edge">
<title>Node20&#45;&gt;Node14</title>
<path fill="none" stroke="midnightblue" d="M1004.84,-246.48C967.26,-236.03 903.46,-218.29 861.9,-206.73"/>
<polygon fill="midnightblue" stroke="midnightblue" points="862.68,-203.32 852.1,-204.01 860.8,-210.06 862.68,-203.32"/>
</g>
<!-- Node21 -->
<g id="node21" class="node">
<title>Node21</title>
<g id="a_node21"><a xlink:title=" ">
<polygon fill="white" stroke="#bfbfbf" points="1014.5,-185 1014.5,-204 1058.5,-204 1058.5,-185 1014.5,-185"/>
<text text-anchor="middle" x="1036.5" y="-192" font-family="'Souce Sans Pro', Roboto, FreeSans, sans-serif" font-size="10.00">deque</text>
</a>
</g>
</g>
<!-- Node20&#45;&gt;Node21 -->
<g id="edge29" class="edge">
<title>Node20&#45;&gt;Node21</title>
<path fill="none" stroke="midnightblue" d="M1035.64,-246.48C1035.78,-238.08 1036,-224.98 1036.19,-214.16"/>
<polygon fill="midnightblue" stroke="midnightblue" points="1039.69,-214.07 1036.36,-204.01 1032.69,-213.95 1039.69,-214.07"/>
</g>
<!-- Node22&#45;&gt;Node2 -->
<g id="edge31" class="edge">
<title>Node22&#45;&gt;Node2</title>
<path fill="none" stroke="midnightblue" d="M1148.95,-246.42C1157.55,-231.68 1172.08,-201.01 1159.5,-179 1147.34,-157.72 1087.36,-131.82 1064.5,-123 1014.83,-103.84 955.48,-92.27 911.26,-85.67"/>
<polygon fill="midnightblue" stroke="midnightblue" points="911.61,-82.18 901.21,-84.22 910.61,-89.11 911.61,-82.18"/>
</g>
<!-- Node22&#45;&gt;Node5 -->
<g id="edge33" class="edge">
<title>Node22&#45;&gt;Node5</title>
<path fill="none" stroke="midnightblue" d="M1141.92,-246.48C1140.37,-238.08 1137.95,-224.98 1135.95,-214.16"/>
<polygon fill="midnightblue" stroke="midnightblue" points="1139.33,-213.21 1134.07,-204.01 1132.45,-214.48 1139.33,-213.21"/>
</g>
<!-- Node22&#45;&gt;Node14 -->
<g id="edge32" class="edge">
<title>Node22&#45;&gt;Node14</title>
<path fill="none" stroke="midnightblue" d="M1097.46,-247.31C1027.76,-235.63 901.33,-214.34 880.5,-210 875.34,-208.93 869.95,-207.72 864.61,-206.47"/>
<polygon fill="midnightblue" stroke="midnightblue" points="865.02,-202.97 854.48,-204.05 863.39,-209.78 865.02,-202.97"/>
</g>
<!-- Node23&#45;&gt;Node2 -->
<g id="edge35" class="edge">
<title>Node23&#45;&gt;Node2</title>
<path fill="none" stroke="midnightblue" d="M693.96,-311.32C608.56,-309.92 462.26,-301.78 342.5,-266 290.31,-250.41 261.88,-256.49 233.5,-210 226.32,-198.24 232.28,-192.72 233.5,-179 235.73,-153.82 224.73,-139.94 243.5,-123 282.76,-87.56 633.93,-80.03 781.57,-78.43"/>
<polygon fill="midnightblue" stroke="midnightblue" points="781.88,-81.93 791.84,-78.33 781.81,-74.93 781.88,-81.93"/>
</g>
<!-- Node23&#45;&gt;Node10 -->
<g id="edge36" class="edge">
<title>Node23&#45;&gt;Node10</title>
<path fill="none" stroke="midnightblue" d="M693.84,-306.46C655.7,-301.15 609.57,-289.86 574.5,-266 555.49,-253.07 541.6,-230.13 533.56,-213.94"/>
<polygon fill="midnightblue" stroke="midnightblue" points="536.53,-212.02 529.13,-204.44 530.19,-214.99 536.53,-212.02"/>
</g>
<!-- Node23&#45;&gt;Node14 -->
<g id="edge43" class="edge">
<title>Node23&#45;&gt;Node14</title>
<path fill="none" stroke="midnightblue" d="M767.05,-302.23C769.55,-289.4 775.14,-264.98 784.5,-246 790.54,-233.76 799.55,-221.38 807.17,-211.94"/>
<polygon fill="midnightblue" stroke="midnightblue" points="809.93,-214.1 813.65,-204.19 804.56,-209.61 809.93,-214.1"/>
</g>
<!-- Node23&#45;&gt;Node20 -->
<g id="edge41" class="edge">
<title>Node23&#45;&gt;Node20</title>
<path fill="none" stroke="midnightblue" d="M808.28,-302.44C855.68,-292.96 932.13,-277.67 983.08,-267.48"/>
<polygon fill="midnightblue" stroke="midnightblue" points="983.8,-270.91 992.92,-265.52 982.43,-264.05 983.8,-270.91"/>
</g>
<!-- Node23&#45;&gt;Node22 -->
<g id="edge42" class="edge">
<title>Node23&#45;&gt;Node22</title>
<path fill="none" stroke="midnightblue" d="M829.91,-302.48C892.92,-294.05 991.88,-280.53 1087.2,-266.17"/>
<polygon fill="midnightblue" stroke="midnightblue" points="1087.93,-269.6 1097.3,-264.64 1086.89,-262.68 1087.93,-269.6"/>
</g>
<!-- Node24 -->
<g id="node24" class="node">
<title>Node24</title>
<g id="a_node24"><a xlink:href="loglevel_8h.html" target="_top" xlink:title="This header defines the LogLevel type.">
<polygon fill="white" stroke="black" points="793.5,-246.5 793.5,-265.5 897.5,-265.5 897.5,-246.5 793.5,-246.5"/>
<text text-anchor="middle" x="845.5" y="-253.5" font-family="'Souce Sans Pro', Roboto, FreeSans, sans-serif" font-size="10.00">log4cplus/loglevel.h</text>
</a>
</g>
</g>
<!-- Node23&#45;&gt;Node24 -->
<g id="edge37" class="edge">
<title>Node23&#45;&gt;Node24</title>
<path fill="none" stroke="midnightblue" d="M778.35,-302.32C790.72,-293.98 809.63,-281.21 824.24,-271.35"/>
<polygon fill="midnightblue" stroke="midnightblue" points="826.35,-274.15 832.68,-265.65 822.43,-268.35 826.35,-274.15"/>
</g>
<!-- Node25 -->
<g id="node25" class="node">
<title>Node25</title>
<g id="a_node25"><a xlink:href="timehelper_8h.html" target="_top" xlink:title=" ">
<polygon fill="white" stroke="black" points="583.5,-246.5 583.5,-265.5 737.5,-265.5 737.5,-246.5 583.5,-246.5"/>
<text text-anchor="middle" x="660.5" y="-253.5" font-family="'Souce Sans Pro', Roboto, FreeSans, sans-serif" font-size="10.00">log4cplus/helpers/timehelper.h</text>
</a>
</g>
</g>
<!-- Node23&#45;&gt;Node25 -->
<g id="edge44" class="edge">
<title>Node23&#45;&gt;Node25</title>
<path fill="none" stroke="midnightblue" d="M748.63,-302.32C731.79,-293.66 705.69,-280.24 686.26,-270.25"/>
<polygon fill="midnightblue" stroke="midnightblue" points="687.82,-267.12 677.33,-265.65 684.62,-273.34 687.82,-267.12"/>
</g>
<!-- Node28 -->
<g id="node28" class="node">
<title>Node28</title>
<g id="a_node28"><a xlink:href="threads_8h.html" target="_top" xlink:title=" ">
<polygon fill="white" stroke="black" points="352,-246.5 352,-265.5 489,-265.5 489,-246.5 352,-246.5"/>
<text text-anchor="middle" x="420.5" y="-253.5" font-family="'Souce Sans Pro', Roboto, FreeSans, sans-serif" font-size="10.00">log4cplus/thread/threads.h</text>
</a>
</g>
</g>
<!-- Node23&#45;&gt;Node28 -->
<g id="edge49" class="edge">
<title>Node23&#45;&gt;Node28</title>
<path fill="none" stroke="midnightblue" d="M710.83,-302.44C649.51,-292.85 550.14,-277.29 485.05,-267.1"/>
<polygon fill="midnightblue" stroke="midnightblue" points="485.33,-263.61 474.91,-265.52 484.25,-270.52 485.33,-263.61"/>
</g>
<!-- Node24&#45;&gt;Node2 -->
<g id="edge38" class="edge">
<title>Node24&#45;&gt;Node2</title>
<path fill="none" stroke="midnightblue" d="M813.69,-246.38C795.55,-239.66 774.34,-228.31 763.5,-210 756.48,-198.14 762.89,-192.76 763.5,-179 764.61,-154.04 755.05,-144.06 768.5,-123 777.98,-108.16 794.21,-97.67 809.42,-90.57"/>
<polygon fill="midnightblue" stroke="midnightblue" points="810.89,-93.75 818.69,-86.58 808.13,-87.32 810.89,-93.75"/>
</g>
<!-- Node24&#45;&gt;Node11 -->
<g id="edge39" class="edge">
<title>Node24&#45;&gt;Node11</title>
<path fill="none" stroke="midnightblue" d="M897.61,-248.58C960.04,-240.65 1067.71,-226.2 1159.5,-210 1171.5,-207.88 1184.6,-205.22 1196.13,-202.76"/>
<polygon fill="midnightblue" stroke="midnightblue" points="1197.17,-206.11 1206.2,-200.57 1195.68,-199.27 1197.17,-206.11"/>
</g>
<!-- Node24&#45;&gt;Node14 -->
<g id="edge40" class="edge">
<title>Node24&#45;&gt;Node14</title>
<path fill="none" stroke="midnightblue" d="M842.06,-246.48C838.6,-237.9 833.17,-224.43 828.75,-213.48"/>
<polygon fill="midnightblue" stroke="midnightblue" points="831.92,-211.97 824.93,-204.01 825.43,-214.59 831.92,-211.97"/>
</g>
<!-- Node25&#45;&gt;Node2 -->
<g id="edge45" class="edge">
<title>Node25&#45;&gt;Node2</title>
<path fill="none" stroke="midnightblue" d="M666,-246.36C682.79,-220.2 733.58,-142.41 756.5,-123 772.92,-109.09 794.38,-98.15 812.22,-90.54"/>
<polygon fill="midnightblue" stroke="midnightblue" points="813.78,-93.68 821.71,-86.65 811.13,-87.2 813.78,-93.68"/>
</g>
<!-- Node25&#45;&gt;Node14 -->
<g id="edge46" class="edge">
<title>Node25&#45;&gt;Node14</title>
<path fill="none" stroke="midnightblue" d="M683.57,-246.48C711.18,-236.27 757.62,-219.11 788.9,-207.55"/>
<polygon fill="midnightblue" stroke="midnightblue" points="790.31,-210.76 798.48,-204.01 787.88,-204.19 790.31,-210.76"/>
</g>
<!-- Node26 -->
<g id="node26" class="node">
<title>Node26</title>
<g id="a_node26"><a xlink:title=" ">
<polygon fill="white" stroke="#bfbfbf" points="636,-185 636,-204 677,-204 677,-185 636,-185"/>
<text text-anchor="middle" x="656.5" y="-192" font-family="'Souce Sans Pro', Roboto, FreeSans, sans-serif" font-size="10.00">ctime</text>
</a>
</g>
</g>
<!-- Node25&#45;&gt;Node26 -->
<g id="edge47" class="edge">
<title>Node25&#45;&gt;Node26</title>
<path fill="none" stroke="midnightblue" d="M659.93,-246.48C659.36,-238.08 658.48,-224.98 657.75,-214.16"/>
<polygon fill="midnightblue" stroke="midnightblue" points="661.24,-213.75 657.07,-204.01 654.25,-214.22 661.24,-213.75"/>
</g>
<!-- Node27 -->
<g id="node27" class="node">
<title>Node27</title>
<g id="a_node27"><a xlink:title=" ">
<polygon fill="white" stroke="#bfbfbf" points="571,-185 571,-204 618,-204 618,-185 571,-185"/>
<text text-anchor="middle" x="594.5" y="-192" font-family="'Souce Sans Pro', Roboto, FreeSans, sans-serif" font-size="10.00">chrono</text>
</a>
</g>
</g>
<!-- Node25&#45;&gt;Node27 -->
<g id="edge48" class="edge">
<title>Node25&#45;&gt;Node27</title>
<path fill="none" stroke="midnightblue" d="M651.04,-246.48C640.75,-237.2 624.08,-222.17 611.51,-210.83"/>
<polygon fill="midnightblue" stroke="midnightblue" points="613.71,-208.11 603.94,-204.01 609.02,-213.3 613.71,-208.11"/>
</g>
<!-- Node28&#45;&gt;Node2 -->
<g id="edge50" class="edge">
<title>Node28&#45;&gt;Node2</title>
<path fill="none" stroke="midnightblue" d="M425.99,-246.26C436.4,-230.41 460.56,-196.93 489.5,-179 581.54,-121.98 706.63,-96.29 781.68,-85.38"/>
<polygon fill="midnightblue" stroke="midnightblue" points="782.52,-88.79 791.93,-83.93 781.54,-81.86 782.52,-88.79"/>
</g>
<!-- Node28&#45;&gt;Node10 -->
<g id="edge51" class="edge">
<title>Node28&#45;&gt;Node10</title>
<path fill="none" stroke="midnightblue" d="M435.54,-246.48C452.78,-236.71 481.24,-220.58 501.53,-209.08"/>
<polygon fill="midnightblue" stroke="midnightblue" points="503.51,-211.98 510.48,-204.01 500.06,-205.89 503.51,-211.98"/>
</g>
<!-- Node28&#45;&gt;Node14 -->
<g id="edge53" class="edge">
<title>Node28&#45;&gt;Node14</title>
<path fill="none" stroke="midnightblue" d="M477.95,-246.48C553.4,-235.28 685.22,-215.72 761.77,-204.36"/>
<polygon fill="midnightblue" stroke="midnightblue" points="762.36,-207.81 771.74,-202.88 761.33,-200.89 762.36,-207.81"/>
</g>
<!-- Node29 -->
<g id="node29" class="node">
<title>Node29</title>
<g id="a_node29"><a xlink:title=" ">
<polygon fill="white" stroke="#bfbfbf" points="398.5,-185 398.5,-204 442.5,-204 442.5,-185 398.5,-185"/>
<text text-anchor="middle" x="420.5" y="-192" font-family="'Souce Sans Pro', Roboto, FreeSans, sans-serif" font-size="10.00">thread</text>
</a>
</g>
</g>
<!-- Node28&#45;&gt;Node29 -->
<g id="edge52" class="edge">
<title>Node28&#45;&gt;Node29</title>
<path fill="none" stroke="midnightblue" d="M420.5,-246.48C420.5,-238.08 420.5,-224.98 420.5,-214.16"/>
<polygon fill="midnightblue" stroke="midnightblue" points="424,-214.01 420.5,-204.01 417,-214.01 424,-214.01"/>
</g>
<!-- Node30 -->
<g id="node30" class="node">
<title>Node30</title>
<g id="a_node30"><a xlink:href="pointer_8h.html" target="_top" xlink:title=" ">
<polygon fill="white" stroke="black" points="242.5,-185 242.5,-204 380.5,-204 380.5,-185 242.5,-185"/>
<text text-anchor="middle" x="311.5" y="-192" font-family="'Souce Sans Pro', Roboto, FreeSans, sans-serif" font-size="10.00">log4cplus/helpers/pointer.h</text>
</a>
</g>
</g>
<!-- Node28&#45;&gt;Node30 -->
<g id="edge54" class="edge">
<title>Node28&#45;&gt;Node30</title>
<path fill="none" stroke="midnightblue" d="M404.88,-246.48C386.91,-236.67 357.18,-220.43 336.09,-208.92"/>
<polygon fill="midnightblue" stroke="midnightblue" points="337.54,-205.73 327.09,-204.01 334.19,-211.87 337.54,-205.73"/>
</g>
<!-- Node30&#45;&gt;Node2 -->
<g id="edge55" class="edge">
<title>Node30&#45;&gt;Node2</title>
<path fill="none" stroke="midnightblue" d="M325.26,-184.83C350.3,-169.51 405.44,-137.89 456.5,-123 567.65,-90.59 703.02,-81.38 781.52,-78.85"/>
<polygon fill="midnightblue" stroke="midnightblue" points="781.85,-82.34 791.74,-78.55 781.64,-75.34 781.85,-82.34"/>
</g>
<!-- Node30&#45;&gt;Node6 -->
<g id="edge56" class="edge">
<title>Node30&#45;&gt;Node6</title>
<path fill="none" stroke="midnightblue" d="M277.54,-184.98C235.66,-174.46 164.37,-156.56 118.37,-145.01"/>
<polygon fill="midnightblue" stroke="midnightblue" points="118.94,-141.55 108.39,-142.51 117.24,-148.34 118.94,-141.55"/>
</g>
<!-- Node31 -->
<g id="node31" class="node">
<title>Node31</title>
<g id="a_node31"><a xlink:title=" ">
<polygon fill="white" stroke="#bfbfbf" points="253,-123.5 253,-142.5 312,-142.5 312,-123.5 253,-123.5"/>
<text text-anchor="middle" x="282.5" y="-130.5" font-family="'Souce Sans Pro', Roboto, FreeSans, sans-serif" font-size="10.00">algorithm</text>
</a>
</g>
</g>
<!-- Node30&#45;&gt;Node31 -->
<g id="edge57" class="edge">
<title>Node30&#45;&gt;Node31</title>
<path fill="none" stroke="midnightblue" d="M307.35,-184.98C303.12,-176.32 296.46,-162.65 291.1,-151.65"/>
<polygon fill="midnightblue" stroke="midnightblue" points="294.17,-149.96 286.65,-142.51 287.88,-153.03 294.17,-149.96"/>
</g>
<!-- Node32 -->
<g id="node32" class="node">
<title>Node32</title>
<g id="a_node32"><a xlink:title=" ">
<polygon fill="white" stroke="#bfbfbf" points="982.5,-123.5 982.5,-142.5 1032.5,-142.5 1032.5,-123.5 982.5,-123.5"/>
<text text-anchor="middle" x="1007.5" y="-130.5" font-family="'Souce Sans Pro', Roboto, FreeSans, sans-serif" font-size="10.00">cassert</text>
</a>
</g>
</g>
<!-- Node30&#45;&gt;Node32 -->
<g id="edge58" class="edge">
<title>Node30&#45;&gt;Node32</title>
<path fill="none" stroke="midnightblue" d="M352.24,-184.95C364.2,-182.71 377.33,-180.5 389.5,-179 644.32,-147.58 714.99,-183.54 972.35,-142.85"/>
<polygon fill="midnightblue" stroke="midnightblue" points="973.05,-146.28 982.37,-141.24 971.94,-139.37 973.05,-146.28"/>
</g>
<!-- Node33 -->
<g id="node33" class="node">
<title>Node33</title>
<g id="a_node33"><a xlink:title=" ">
<polygon fill="white" stroke="#bfbfbf" points="330,-123.5 330,-142.5 377,-142.5 377,-123.5 330,-123.5"/>
<text text-anchor="middle" x="353.5" y="-130.5" font-family="'Souce Sans Pro', Roboto, FreeSans, sans-serif" font-size="10.00">atomic</text>
</a>
</g>
</g>
<!-- Node30&#45;&gt;Node33 -->
<g id="edge59" class="edge">
<title>Node30&#45;&gt;Node33</title>
<path fill="none" stroke="midnightblue" d="M317.52,-184.98C323.76,-176.14 333.67,-162.09 341.52,-150.98"/>
<polygon fill="midnightblue" stroke="midnightblue" points="344.59,-152.7 347.49,-142.51 338.87,-148.66 344.59,-152.7"/>
</g>
<!-- Node34&#45;&gt;Node2 -->
<g id="edge61" class="edge">
<title>Node34&#45;&gt;Node2</title>
<path fill="none" stroke="midnightblue" d="M1311.35,-179.34C1293.81,-162.74 1262.21,-135.88 1229.5,-123 1173.14,-100.8 1005.07,-87.5 911.39,-81.61"/>
<polygon fill="midnightblue" stroke="midnightblue" points="911.38,-78.1 901.18,-80.98 910.95,-85.09 911.38,-78.1"/>
</g>
<!-- Node34&#45;&gt;Node32 -->
<g id="edge63" class="edge">
<title>Node34&#45;&gt;Node32</title>
<path fill="none" stroke="midnightblue" d="M1268.29,-180.79C1265.32,-180.17 1262.38,-179.57 1259.5,-179 1182.35,-163.64 1091.41,-148.01 1042.63,-139.82"/>
<polygon fill="midnightblue" stroke="midnightblue" points="1043.04,-136.34 1032.6,-138.14 1041.88,-143.25 1043.04,-136.34"/>
</g>
<!-- Node35 -->
<g id="node35" class="node">
<title>Node35</title>
<g id="a_node35"><a xlink:title=" ">
<polygon fill="white" stroke="#bfbfbf" points="1370,-123.5 1370,-142.5 1405,-142.5 1405,-123.5 1370,-123.5"/>
<text text-anchor="middle" x="1387.5" y="-130.5" font-family="'Souce Sans Pro', Roboto, FreeSans, sans-serif" font-size="10.00">new</text>
</a>
</g>
</g>
<!-- Node34&#45;&gt;Node35 -->
<g id="edge62" class="edge">
<title>Node34&#45;&gt;Node35</title>
<path fill="none" stroke="midnightblue" d="M1340.19,-179.4C1349.48,-170.49 1361.5,-158.95 1371.1,-149.74"/>
<polygon fill="midnightblue" stroke="midnightblue" points="1373.69,-152.11 1378.48,-142.66 1368.84,-147.06 1373.69,-152.11"/>
</g>
<!-- Node36 -->
<g id="node36" class="node">
<title>Node36</title>
<g id="a_node36"><a xlink:title=" ">
<polygon fill="white" stroke="#bfbfbf" points="1277,-123.5 1277,-142.5 1352,-142.5 1352,-123.5 1277,-123.5"/>
<text text-anchor="middle" x="1314.5" y="-130.5" font-family="'Souce Sans Pro', Roboto, FreeSans, sans-serif" font-size="10.00">system_error</text>
</a>
</g>
</g>
<!-- Node34&#45;&gt;Node36 -->
<g id="edge64" class="edge">
<title>Node34&#45;&gt;Node36</title>
<path fill="none" stroke="midnightblue" d="M1322.89,-179.4C1321.41,-171.38 1319.53,-161.23 1317.93,-152.57"/>
<polygon fill="midnightblue" stroke="midnightblue" points="1321.36,-151.85 1316.1,-142.66 1314.48,-153.13 1321.36,-151.85"/>
</g>
<!-- Node37&#45;&gt;Node2 -->
<g id="edge66" class="edge">
<title>Node37&#45;&gt;Node2</title>
<path fill="none" stroke="midnightblue" d="M1412.28,-246.22C1417.43,-219.66 1430.99,-140.85 1414.5,-123 1397.62,-104.73 1056.52,-87.39 911.18,-80.79"/>
<polygon fill="midnightblue" stroke="midnightblue" points="911.21,-77.29 901.06,-80.34 910.89,-84.28 911.21,-77.29"/>
</g>
<!-- Node37&#45;&gt;Node11 -->
<g id="edge69" class="edge">
<title>Node37&#45;&gt;Node11</title>
<path fill="none" stroke="midnightblue" d="M1376.74,-246.48C1345.82,-238.31 1299,-225.03 1259.5,-210 1258.08,-209.46 1256.63,-208.88 1255.17,-208.28"/>
<polygon fill="midnightblue" stroke="midnightblue" points="1256.25,-204.93 1245.68,-204.09 1253.42,-211.33 1256.25,-204.93"/>
</g>
<!-- Node37&#45;&gt;Node16 -->
<g id="edge67" class="edge">
<title>Node37&#45;&gt;Node16</title>
<path fill="none" stroke="midnightblue" d="M1445.51,-246.45C1464.43,-239.84 1486.18,-228.59 1497.5,-210 1504.66,-198.23 1506.55,-189.39 1497.5,-179 1488.8,-169.01 1320.71,-149.68 1230.16,-139.93"/>
<polygon fill="midnightblue" stroke="midnightblue" points="1230.37,-136.43 1220.05,-138.85 1229.62,-143.39 1230.37,-136.43"/>
</g>
<!-- Node38 -->
<g id="node38" class="node">
<title>Node38</title>
<g id="a_node38"><a xlink:title=" ">
<polygon fill="white" stroke="#bfbfbf" points="1438.5,-185 1438.5,-204 1488.5,-204 1488.5,-185 1438.5,-185"/>
<text text-anchor="middle" x="1463.5" y="-192" font-family="'Souce Sans Pro', Roboto, FreeSans, sans-serif" font-size="10.00">cstdarg</text>
</a>
</g>
</g>
<!-- Node37&#45;&gt;Node38 -->
<g id="edge68" class="edge">
<title>Node37&#45;&gt;Node38</title>
<path fill="none" stroke="midnightblue" d="M1418.09,-246.48C1426.2,-237.37 1439.23,-222.74 1449.26,-211.48"/>
<polygon fill="midnightblue" stroke="midnightblue" points="1451.88,-213.8 1455.92,-204.01 1446.66,-209.15 1451.88,-213.8"/>
</g>
</g>
</svg>
