<?xml version="1.0" encoding="UTF-8" standalone="no"?>
<!DOCTYPE svg PUBLIC "-//W3C//DTD SVG 1.1//EN"
 "http://www.w3.org/Graphics/SVG/1.1/DTD/svg11.dtd">
<!-- Generated by graphviz version 2.43.0 (0)
 -->
<!-- Title: spi Pages: 1 -->
<svg width="114pt" height="239pt"
 viewBox="0.00 0.00 114.00 239.00" xmlns="http://www.w3.org/2000/svg" xmlns:xlink="http://www.w3.org/1999/xlink">
<g id="graph0" class="graph" transform="scale(1 1) rotate(0) translate(4 235)">
<title>spi</title>
<polygon fill="white" stroke="transparent" points="-4,4 -4,-235 110,-235 110,4 -4,4"/>
<g id="clust1" class="cluster">
<title>clusterdir_c1127a47df8dad6101631a17711b0d4b</title>
<g id="a_clust1"><a xlink:href="dir_c1127a47df8dad6101631a17711b0d4b.html" target="_top" xlink:title="log4cplus">
<polygon fill="#ddddee" stroke="black" points="8,-8 8,-223 98,-223 98,-8 8,-8"/>
<text text-anchor="middle" x="53" y="-211" font-family="'Souce Sans Pro', Roboto, FreeSans, sans-serif" font-size="10.00">log4cplus</text>
</a>
</g>
</g>
<!-- dir_15e0ad6291f54c01f72f2b7a09f5a39a -->
<g id="node1" class="node">
<title>dir_15e0ad6291f54c01f72f2b7a09f5a39a</title>
<g id="a_node1"><a xlink:href="dir_15e0ad6291f54c01f72f2b7a09f5a39a.html" target="_top" xlink:title="helpers">
<polygon fill="none" stroke="black" points="80,-196 26,-196 26,-160 80,-160 80,-196"/>
<text text-anchor="middle" x="53" y="-175.5" font-family="'Souce Sans Pro', Roboto, FreeSans, sans-serif" font-size="10.00">helpers</text>
</a>
</g>
</g>
<!-- dir_853879e30bdf8afe9a7079a6b1a108d0 -->
<g id="node2" class="node">
<title>dir_853879e30bdf8afe9a7079a6b1a108d0</title>
<g id="a_node2"><a xlink:href="dir_853879e30bdf8afe9a7079a6b1a108d0.html" target="_top" xlink:title="thread">
<polygon fill="white" stroke="red" points="70,-52 16,-52 16,-16 70,-16 70,-52"/>
<text text-anchor="middle" x="43" y="-31.5" font-family="'Souce Sans Pro', Roboto, FreeSans, sans-serif" font-size="10.00">thread</text>
</a>
</g>
</g>
<!-- dir_15e0ad6291f54c01f72f2b7a09f5a39a&#45;&gt;dir_853879e30bdf8afe9a7079a6b1a108d0 -->
<g id="edge1" class="edge">
<title>dir_15e0ad6291f54c01f72f2b7a09f5a39a&#45;&gt;dir_853879e30bdf8afe9a7079a6b1a108d0</title>
<path fill="none" stroke="black" d="M34.03,-159.61C27.26,-149.62 20.92,-136.58 18,-124 13.15,-103.1 18.04,-79.14 25.02,-61.36"/>
<polygon fill="black" stroke="black" points="28.24,-62.73 29.07,-52.17 21.83,-59.91 28.24,-62.73"/>
<g id="a_edge1&#45;headlabel"><a xlink:href="dir_000003_000007.html" target="_top" xlink:title="8">
<text text-anchor="middle" x="29.39" y="-64.66" font-family="'Souce Sans Pro', Roboto, FreeSans, sans-serif" font-size="10.00">8</text>
</a>
</g>
</g>
<!-- dir_978d533c27f1e6af39004a1d79354223 -->
<g id="node3" class="node">
<title>dir_978d533c27f1e6af39004a1d79354223</title>
<g id="a_node3"><a xlink:href="dir_978d533c27f1e6af39004a1d79354223.html" target="_top" xlink:title="spi">
<polygon fill="#eeeeff" stroke="black" points="90,-124 36,-124 36,-88 90,-88 90,-124"/>
<text text-anchor="middle" x="63" y="-103.5" font-family="'Souce Sans Pro', Roboto, FreeSans, sans-serif" font-size="10.00">spi</text>
</a>
</g>
</g>
<!-- dir_15e0ad6291f54c01f72f2b7a09f5a39a&#45;&gt;dir_978d533c27f1e6af39004a1d79354223 -->
<g id="edge2" class="edge">
<title>dir_15e0ad6291f54c01f72f2b7a09f5a39a&#45;&gt;dir_978d533c27f1e6af39004a1d79354223</title>
<path fill="none" stroke="black" d="M49.56,-159.7C49.86,-151.98 50.96,-142.71 52.53,-134.11"/>
<polygon fill="black" stroke="black" points="56,-134.61 54.66,-124.1 49.16,-133.16 56,-134.61"/>
<g id="a_edge2&#45;headlabel"><a xlink:href="dir_000003_000002.html" target="_top" xlink:title="2">
<text text-anchor="middle" x="58.03" y="-136.22" font-family="'Souce Sans Pro', Roboto, FreeSans, sans-serif" font-size="10.00">2</text>
</a>
</g>
</g>
<!-- dir_853879e30bdf8afe9a7079a6b1a108d0&#45;&gt;dir_15e0ad6291f54c01f72f2b7a09f5a39a -->
<g id="edge5" class="edge">
<title>dir_853879e30bdf8afe9a7079a6b1a108d0&#45;&gt;dir_15e0ad6291f54c01f72f2b7a09f5a39a</title>
<path fill="none" stroke="black" d="M42.51,-52.17C38.19,-70.17 30.25,-99.23 36,-124 38.08,-132.94 41.88,-142.12 45.57,-150.26"/>
<polygon fill="black" stroke="black" points="42.51,-152 49.88,-159.61 48.87,-149.06 42.51,-152"/>
<g id="a_edge5&#45;headlabel"><a xlink:href="dir_000007_000003.html" target="_top" xlink:title="2">
<text text-anchor="middle" x="38.43" y="-147.42" font-family="'Souce Sans Pro', Roboto, FreeSans, sans-serif" font-size="10.00">2</text>
</a>
</g>
</g>
<!-- dir_978d533c27f1e6af39004a1d79354223&#45;&gt;dir_15e0ad6291f54c01f72f2b7a09f5a39a -->
<g id="edge3" class="edge">
<title>dir_978d533c27f1e6af39004a1d79354223&#45;&gt;dir_15e0ad6291f54c01f72f2b7a09f5a39a</title>
<path fill="none" stroke="black" d="M66.45,-124.1C66.16,-131.79 65.07,-141.05 63.51,-149.67"/>
<polygon fill="black" stroke="black" points="60.03,-149.19 61.39,-159.7 66.88,-150.64 60.03,-149.19"/>
<g id="a_edge3&#45;headlabel"><a xlink:href="dir_000002_000003.html" target="_top" xlink:title="5">
<text text-anchor="middle" x="58" y="-142.58" font-family="'Souce Sans Pro', Roboto, FreeSans, sans-serif" font-size="10.00">5</text>
</a>
</g>
</g>
<!-- dir_978d533c27f1e6af39004a1d79354223&#45;&gt;dir_853879e30bdf8afe9a7079a6b1a108d0 -->
<g id="edge4" class="edge">
<title>dir_978d533c27f1e6af39004a1d79354223&#45;&gt;dir_853879e30bdf8afe9a7079a6b1a108d0</title>
<path fill="none" stroke="black" d="M58.06,-87.7C55.83,-79.9 53.15,-70.51 50.67,-61.83"/>
<polygon fill="black" stroke="black" points="54,-60.76 47.89,-52.1 47.27,-62.68 54,-60.76"/>
<g id="a_edge4&#45;headlabel"><a xlink:href="dir_000002_000007.html" target="_top" xlink:title="2">
<text text-anchor="middle" x="57.72" y="-60.93" font-family="'Souce Sans Pro', Roboto, FreeSans, sans-serif" font-size="10.00">2</text>
</a>
</g>
</g>
</g>
</svg>
