<?xml version="1.0" encoding="UTF-8" standalone="no"?>
<!DOCTYPE svg PUBLIC "-//W3C//DTD SVG 1.1//EN"
 "http://www.w3.org/Graphics/SVG/1.1/DTD/svg11.dtd">
<!-- Generated by graphviz version 2.43.0 (0)
 -->
<!-- Title: factory.h Pages: 1 -->
<svg width="1549pt" height="431pt"
 viewBox="0.00 0.00 1549.00 431.00" xmlns="http://www.w3.org/2000/svg" xmlns:xlink="http://www.w3.org/1999/xlink">
<g id="graph0" class="graph" transform="scale(1 1) rotate(0) translate(4 427)">
<title>factory.h</title>
<polygon fill="white" stroke="transparent" points="-4,4 -4,-427 1545,-427 1545,4 -4,4"/>
<!-- Node1 -->
<g id="node1" class="node">
<title>Node1</title>
<g id="a_node1"><a xlink:title=" ">
<polygon fill="#bfbfbf" stroke="black" points="940.5,-403.5 940.5,-422.5 996.5,-422.5 996.5,-403.5 940.5,-403.5"/>
<text text-anchor="middle" x="968.5" y="-410.5" font-family="'Souce Sans Pro', Roboto, FreeSans, sans-serif" font-size="10.00">factory.h</text>
</a>
</g>
</g>
<!-- Node2 -->
<g id="node2" class="node">
<title>Node2</title>
<g id="a_node2"><a xlink:href="config_8hxx.html" target="_top" xlink:title=" ">
<polygon fill="white" stroke="black" points="709,-67.5 709,-86.5 818,-86.5 818,-67.5 709,-67.5"/>
<text text-anchor="middle" x="763.5" y="-74.5" font-family="'Souce Sans Pro', Roboto, FreeSans, sans-serif" font-size="10.00">log4cplus/config.hxx</text>
</a>
</g>
</g>
<!-- Node1&#45;&gt;Node2 -->
<g id="edge1" class="edge">
<title>Node1&#45;&gt;Node2</title>
<path fill="none" stroke="midnightblue" d="M996.51,-411.89C1102.02,-410.71 1469.5,-399.62 1469.5,-302 1469.5,-302 1469.5,-302 1469.5,-188 1469.5,-130.83 1413.07,-140.04 1358.5,-123 1261.16,-92.61 961.65,-82.35 828.48,-79.23"/>
<polygon fill="midnightblue" stroke="midnightblue" points="828.5,-75.73 818.42,-79 828.34,-82.73 828.5,-75.73"/>
</g>
<!-- Node5 -->
<g id="node5" class="node">
<title>Node5</title>
<g id="a_node5"><a xlink:href="appender_8h.html" target="_top" xlink:title=" ">
<polygon fill="white" stroke="black" points="912.5,-347.5 912.5,-366.5 1024.5,-366.5 1024.5,-347.5 912.5,-347.5"/>
<text text-anchor="middle" x="968.5" y="-354.5" font-family="'Souce Sans Pro', Roboto, FreeSans, sans-serif" font-size="10.00">log4cplus/appender.h</text>
</a>
</g>
</g>
<!-- Node1&#45;&gt;Node5 -->
<g id="edge4" class="edge">
<title>Node1&#45;&gt;Node5</title>
<path fill="none" stroke="midnightblue" d="M968.5,-403.08C968.5,-396.01 968.5,-385.86 968.5,-376.99"/>
<polygon fill="midnightblue" stroke="midnightblue" points="972,-376.75 968.5,-366.75 965,-376.75 972,-376.75"/>
</g>
<!-- Node6 -->
<g id="node6" class="node">
<title>Node6</title>
<g id="a_node6"><a xlink:href="layout_8h.html" target="_top" xlink:title=" ">
<polygon fill="white" stroke="black" points="287.5,-291.5 287.5,-310.5 385.5,-310.5 385.5,-291.5 287.5,-291.5"/>
<text text-anchor="middle" x="336.5" y="-298.5" font-family="'Souce Sans Pro', Roboto, FreeSans, sans-serif" font-size="10.00">log4cplus/layout.h</text>
</a>
</g>
</g>
<!-- Node1&#45;&gt;Node6 -->
<g id="edge53" class="edge">
<title>Node1&#45;&gt;Node6</title>
<path fill="none" stroke="midnightblue" d="M940.4,-408.84C883.69,-402.3 751.57,-386.28 641.5,-367 548.99,-350.8 441.81,-326.71 382.32,-312.86"/>
<polygon fill="midnightblue" stroke="midnightblue" points="383.02,-309.43 372.49,-310.56 381.43,-316.25 383.02,-309.43"/>
</g>
<!-- Node8 -->
<g id="node8" class="node">
<title>Node8</title>
<g id="a_node8"><a xlink:title=" ">
<polygon fill="white" stroke="#bfbfbf" points="629.5,-179.5 629.5,-198.5 673.5,-198.5 673.5,-179.5 629.5,-179.5"/>
<text text-anchor="middle" x="651.5" y="-186.5" font-family="'Souce Sans Pro', Roboto, FreeSans, sans-serif" font-size="10.00">vector</text>
</a>
</g>
</g>
<!-- Node1&#45;&gt;Node8 -->
<g id="edge64" class="edge">
<title>Node1&#45;&gt;Node8</title>
<path fill="none" stroke="midnightblue" d="M954.11,-403.34C916.35,-380.45 811.65,-315.91 729.5,-255 707.99,-239.06 684.55,-219.15 669.04,-205.6"/>
<polygon fill="midnightblue" stroke="midnightblue" points="671.12,-202.77 661.3,-198.79 666.5,-208.02 671.12,-202.77"/>
</g>
<!-- Node9 -->
<g id="node9" class="node">
<title>Node9</title>
<g id="a_node9"><a xlink:href="tstring_8h.html" target="_top" xlink:title=" ">
<polygon fill="white" stroke="black" points="326,-179.5 326,-198.5 425,-198.5 425,-179.5 326,-179.5"/>
<text text-anchor="middle" x="375.5" y="-186.5" font-family="'Souce Sans Pro', Roboto, FreeSans, sans-serif" font-size="10.00">log4cplus/tstring.h</text>
</a>
</g>
</g>
<!-- Node1&#45;&gt;Node9 -->
<g id="edge54" class="edge">
<title>Node1&#45;&gt;Node9</title>
<path fill="none" stroke="midnightblue" d="M940.43,-410.11C816.31,-401.44 320.98,-363.74 278.5,-311 247.2,-272.15 312.03,-226.15 350.23,-203.7"/>
<polygon fill="midnightblue" stroke="midnightblue" points="352.35,-206.52 359.29,-198.52 348.87,-200.44 352.35,-206.52"/>
</g>
<!-- Node18 -->
<g id="node18" class="node">
<title>Node18</title>
<g id="a_node18"><a xlink:title=" ">
<polygon fill="white" stroke="#bfbfbf" points="1105.5,-235.5 1105.5,-254.5 1159.5,-254.5 1159.5,-235.5 1105.5,-235.5"/>
<text text-anchor="middle" x="1132.5" y="-242.5" font-family="'Souce Sans Pro', Roboto, FreeSans, sans-serif" font-size="10.00">memory</text>
</a>
</g>
</g>
<!-- Node1&#45;&gt;Node18 -->
<g id="edge63" class="edge">
<title>Node1&#45;&gt;Node18</title>
<path fill="none" stroke="midnightblue" d="M996.6,-408.85C1046.1,-401.63 1147.74,-378.86 1191.5,-311 1204.15,-291.39 1180.56,-271.98 1159.55,-259.55"/>
<polygon fill="midnightblue" stroke="midnightblue" points="1161.26,-256.5 1150.82,-254.67 1157.84,-262.61 1161.26,-256.5"/>
</g>
<!-- Node26 -->
<g id="node26" class="node">
<title>Node26</title>
<g id="a_node26"><a xlink:href="filter_8h.html" target="_top" xlink:title="This header defines Filter and all of it&#39;s subclasses.">
<polygon fill="white" stroke="black" points="552,-291.5 552,-310.5 659,-310.5 659,-291.5 552,-291.5"/>
<text text-anchor="middle" x="605.5" y="-298.5" font-family="'Souce Sans Pro', Roboto, FreeSans, sans-serif" font-size="10.00">log4cplus/spi/filter.h</text>
</a>
</g>
</g>
<!-- Node1&#45;&gt;Node26 -->
<g id="edge55" class="edge">
<title>Node1&#45;&gt;Node26</title>
<path fill="none" stroke="midnightblue" d="M940.45,-409.88C876.21,-404.69 720.34,-390.04 673.5,-367 650.71,-355.79 630.52,-334.22 618.18,-319.01"/>
<polygon fill="midnightblue" stroke="midnightblue" points="620.77,-316.64 611.86,-310.91 615.25,-320.95 620.77,-316.64"/>
</g>
<!-- Node29 -->
<g id="node29" class="node">
<title>Node29</title>
<g id="a_node29"><a xlink:href="objectregistry_8h.html" target="_top" xlink:title=" ">
<polygon fill="white" stroke="black" points="1034.5,-291.5 1034.5,-310.5 1182.5,-310.5 1182.5,-291.5 1034.5,-291.5"/>
<text text-anchor="middle" x="1108.5" y="-298.5" font-family="'Souce Sans Pro', Roboto, FreeSans, sans-serif" font-size="10.00">log4cplus/spi/objectregistry.h</text>
</a>
</g>
</g>
<!-- Node1&#45;&gt;Node29 -->
<g id="edge56" class="edge">
<title>Node1&#45;&gt;Node29</title>
<path fill="none" stroke="midnightblue" d="M981.75,-403.44C995.1,-394.67 1016.15,-380.46 1033.5,-367 1054.18,-350.96 1076.72,-331.07 1091.63,-317.55"/>
<polygon fill="midnightblue" stroke="midnightblue" points="1094.05,-320.09 1099.07,-310.76 1089.33,-314.92 1094.05,-320.09"/>
</g>
<!-- Node31 -->
<g id="node31" class="node">
<title>Node31</title>
<g id="a_node31"><a xlink:title=" ">
<polygon fill="white" stroke="#bfbfbf" points="1498,-347.5 1498,-366.5 1541,-366.5 1541,-347.5 1498,-347.5"/>
<text text-anchor="middle" x="1519.5" y="-354.5" font-family="'Souce Sans Pro', Roboto, FreeSans, sans-serif" font-size="10.00">locale</text>
</a>
</g>
</g>
<!-- Node1&#45;&gt;Node31 -->
<g id="edge65" class="edge">
<title>Node1&#45;&gt;Node31</title>
<path fill="none" stroke="midnightblue" d="M996.61,-411.1C1074.48,-408.28 1299.39,-397.86 1483.5,-367 1484.97,-366.75 1486.47,-366.48 1487.98,-366.18"/>
<polygon fill="midnightblue" stroke="midnightblue" points="1488.91,-369.56 1497.91,-363.98 1487.39,-362.73 1488.91,-369.56"/>
</g>
<!-- Node3 -->
<g id="node3" class="node">
<title>Node3</title>
<g id="a_node3"><a xlink:href="win32_8h.html" target="_top" xlink:title=" ">
<polygon fill="white" stroke="black" points="626.5,-6 626.5,-25 754.5,-25 754.5,-6 626.5,-6"/>
<text text-anchor="middle" x="690.5" y="-13" font-family="'Souce Sans Pro', Roboto, FreeSans, sans-serif" font-size="10.00">log4cplus/config/win32.h</text>
</a>
</g>
</g>
<!-- Node2&#45;&gt;Node3 -->
<g id="edge2" class="edge">
<title>Node2&#45;&gt;Node3</title>
<path fill="none" stroke="midnightblue" d="M753.04,-67.48C741.55,-58.11 722.87,-42.88 708.91,-31.51"/>
<polygon fill="midnightblue" stroke="midnightblue" points="710.9,-28.61 700.94,-25.01 706.48,-34.04 710.9,-28.61"/>
</g>
<!-- Node4 -->
<g id="node4" class="node">
<title>Node4</title>
<g id="a_node4"><a xlink:href="thread-config_8h.html" target="_top" xlink:title=" ">
<polygon fill="white" stroke="black" points="772.5,-0.5 772.5,-30.5 900.5,-30.5 900.5,-0.5 772.5,-0.5"/>
<text text-anchor="start" x="780.5" y="-18.5" font-family="'Souce Sans Pro', Roboto, FreeSans, sans-serif" font-size="10.00">log4cplus/helpers/thread</text>
<text text-anchor="middle" x="836.5" y="-7.5" font-family="'Souce Sans Pro', Roboto, FreeSans, sans-serif" font-size="10.00">&#45;config.h</text>
</a>
</g>
</g>
<!-- Node2&#45;&gt;Node4 -->
<g id="edge3" class="edge">
<title>Node2&#45;&gt;Node4</title>
<path fill="none" stroke="midnightblue" d="M773.96,-67.48C783.66,-59.57 798.49,-47.48 811.27,-37.07"/>
<polygon fill="midnightblue" stroke="midnightblue" points="813.76,-39.55 819.3,-30.52 809.33,-34.13 813.76,-39.55"/>
</g>
<!-- Node5&#45;&gt;Node2 -->
<g id="edge5" class="edge">
<title>Node5&#45;&gt;Node2</title>
<path fill="none" stroke="midnightblue" d="M1024.81,-354.39C1148.2,-349.34 1431.5,-328.72 1431.5,-246 1431.5,-246 1431.5,-246 1431.5,-188 1431.5,-116.97 1354.28,-140.74 1285.5,-123 1200.77,-101.15 948.57,-86.72 828.47,-80.91"/>
<polygon fill="midnightblue" stroke="midnightblue" points="828.47,-77.4 818.31,-80.42 828.14,-84.39 828.47,-77.4"/>
</g>
<!-- Node5&#45;&gt;Node6 -->
<g id="edge6" class="edge">
<title>Node5&#45;&gt;Node6</title>
<path fill="none" stroke="midnightblue" d="M912.26,-352.73C810,-346.52 586.88,-331.77 399.5,-311 398.23,-310.86 396.95,-310.71 395.66,-310.56"/>
<polygon fill="midnightblue" stroke="midnightblue" points="396,-307.08 385.64,-309.33 395.14,-314.02 396,-307.08"/>
</g>
<!-- Node7 -->
<g id="node7" class="node">
<title>Node7</title>
<g id="a_node7"><a xlink:href="loglevel_8h.html" target="_top" xlink:title="This header defines the LogLevel type.">
<polygon fill="white" stroke="black" points="439.5,-235.5 439.5,-254.5 543.5,-254.5 543.5,-235.5 439.5,-235.5"/>
<text text-anchor="middle" x="491.5" y="-242.5" font-family="'Souce Sans Pro', Roboto, FreeSans, sans-serif" font-size="10.00">log4cplus/loglevel.h</text>
</a>
</g>
</g>
<!-- Node5&#45;&gt;Node7 -->
<g id="edge29" class="edge">
<title>Node5&#45;&gt;Node7</title>
<path fill="none" stroke="midnightblue" d="M912.24,-355.35C811.64,-353.32 605.66,-345.02 543.5,-311 523.95,-300.3 509.08,-278.9 500.35,-263.58"/>
<polygon fill="midnightblue" stroke="midnightblue" points="503.33,-261.72 495.51,-254.56 497.16,-265.03 503.33,-261.72"/>
</g>
<!-- Node5&#45;&gt;Node9 -->
<g id="edge30" class="edge">
<title>Node5&#45;&gt;Node9</title>
<path fill="none" stroke="midnightblue" d="M912.49,-353.73C808.17,-348.97 588.2,-336.22 516.5,-311 473.47,-295.87 464.7,-285.17 430.5,-255 413.95,-240.4 398,-220.72 387.57,-206.85"/>
<polygon fill="midnightblue" stroke="midnightblue" points="390.32,-204.68 381.57,-198.69 384.68,-208.82 390.32,-204.68"/>
</g>
<!-- Node5&#45;&gt;Node18 -->
<g id="edge49" class="edge">
<title>Node5&#45;&gt;Node18</title>
<path fill="none" stroke="midnightblue" d="M974.17,-347.3C983.45,-333.66 1003.1,-307.15 1025.5,-291 1046.77,-275.67 1074.05,-264.3 1095.74,-256.83"/>
<polygon fill="midnightblue" stroke="midnightblue" points="1096.88,-260.14 1105.27,-253.67 1094.68,-253.49 1096.88,-260.14"/>
</g>
<!-- Node19 -->
<g id="node19" class="node">
<title>Node19</title>
<g id="a_node19"><a xlink:href="pointer_8h.html" target="_top" xlink:title=" ">
<polygon fill="white" stroke="black" points="949.5,-235.5 949.5,-254.5 1087.5,-254.5 1087.5,-235.5 949.5,-235.5"/>
<text text-anchor="middle" x="1018.5" y="-242.5" font-family="'Souce Sans Pro', Roboto, FreeSans, sans-serif" font-size="10.00">log4cplus/helpers/pointer.h</text>
</a>
</g>
</g>
<!-- Node5&#45;&gt;Node19 -->
<g id="edge31" class="edge">
<title>Node5&#45;&gt;Node19</title>
<path fill="none" stroke="midnightblue" d="M971.16,-347.4C975.17,-334.77 983.3,-310.6 992.5,-291 996.91,-281.61 1002.6,-271.57 1007.54,-263.37"/>
<polygon fill="midnightblue" stroke="midnightblue" points="1010.6,-265.08 1012.86,-254.72 1004.64,-261.4 1010.6,-265.08"/>
</g>
<!-- Node21 -->
<g id="node21" class="node">
<title>Node21</title>
<g id="a_node21"><a xlink:title=" ">
<polygon fill="white" stroke="#bfbfbf" points="986.5,-123.5 986.5,-142.5 1030.5,-142.5 1030.5,-123.5 986.5,-123.5"/>
<text text-anchor="middle" x="1008.5" y="-130.5" font-family="'Souce Sans Pro', Roboto, FreeSans, sans-serif" font-size="10.00">mutex</text>
</a>
</g>
</g>
<!-- Node5&#45;&gt;Node21 -->
<g id="edge50" class="edge">
<title>Node5&#45;&gt;Node21</title>
<path fill="none" stroke="midnightblue" d="M1024.53,-356.25C1078.77,-354.26 1161.77,-345.12 1224.5,-311 1275.25,-283.39 1283.44,-256.34 1290.5,-199 1291.59,-190.18 1296.27,-185.76 1290.5,-179 1274.43,-160.16 1111.76,-143.33 1041.04,-136.84"/>
<polygon fill="midnightblue" stroke="midnightblue" points="1041.18,-133.33 1030.91,-135.92 1040.55,-140.31 1041.18,-133.33"/>
</g>
<!-- Node22 -->
<g id="node22" class="node">
<title>Node22</title>
<g id="a_node22"><a xlink:title=" ">
<polygon fill="white" stroke="#bfbfbf" points="1157.5,-123.5 1157.5,-142.5 1253.5,-142.5 1253.5,-123.5 1157.5,-123.5"/>
<text text-anchor="middle" x="1205.5" y="-130.5" font-family="'Souce Sans Pro', Roboto, FreeSans, sans-serif" font-size="10.00">condition_variable</text>
</a>
</g>
</g>
<!-- Node5&#45;&gt;Node22 -->
<g id="edge52" class="edge">
<title>Node5&#45;&gt;Node22</title>
<path fill="none" stroke="midnightblue" d="M1024.53,-352.04C1096.03,-346.16 1214.96,-333.33 1252.5,-311 1306.84,-278.68 1339.83,-232.09 1305.5,-179 1295.12,-162.95 1277.5,-152.57 1259.92,-145.87"/>
<polygon fill="midnightblue" stroke="midnightblue" points="1260.79,-142.47 1250.2,-142.52 1258.51,-149.09 1260.79,-142.47"/>
</g>
<!-- Node25 -->
<g id="node25" class="node">
<title>Node25</title>
<g id="a_node25"><a xlink:title=" ">
<polygon fill="white" stroke="#bfbfbf" points="1234,-179.5 1234,-198.5 1281,-198.5 1281,-179.5 1234,-179.5"/>
<text text-anchor="middle" x="1257.5" y="-186.5" font-family="'Souce Sans Pro', Roboto, FreeSans, sans-serif" font-size="10.00">atomic</text>
</a>
</g>
</g>
<!-- Node5&#45;&gt;Node25 -->
<g id="edge51" class="edge">
<title>Node5&#45;&gt;Node25</title>
<path fill="none" stroke="midnightblue" d="M1024.91,-352.14C1071.46,-347.22 1138.27,-336.09 1191.5,-311 1227.23,-294.16 1243.52,-290.66 1260.5,-255 1267.41,-240.5 1265.72,-222.05 1262.85,-208.52"/>
<polygon fill="midnightblue" stroke="midnightblue" points="1266.16,-207.34 1260.32,-198.5 1259.37,-209.05 1266.16,-207.34"/>
</g>
<!-- Node5&#45;&gt;Node26 -->
<g id="edge40" class="edge">
<title>Node5&#45;&gt;Node26</title>
<path fill="none" stroke="midnightblue" d="M912.18,-347.62C846.55,-337.86 738.33,-321.76 669.56,-311.53"/>
<polygon fill="midnightblue" stroke="midnightblue" points="669.69,-308.01 659.29,-310 668.66,-314.93 669.69,-308.01"/>
</g>
<!-- Node28 -->
<g id="node28" class="node">
<title>Node28</title>
<g id="a_node28"><a xlink:href="lockfile_8h.html" target="_top" xlink:title=" ">
<polygon fill="white" stroke="black" points="791.5,-235.5 791.5,-254.5 931.5,-254.5 931.5,-235.5 791.5,-235.5"/>
<text text-anchor="middle" x="861.5" y="-242.5" font-family="'Souce Sans Pro', Roboto, FreeSans, sans-serif" font-size="10.00">log4cplus/helpers/lockfile.h</text>
</a>
</g>
</g>
<!-- Node5&#45;&gt;Node28 -->
<g id="edge45" class="edge">
<title>Node5&#45;&gt;Node28</title>
<path fill="none" stroke="midnightblue" d="M960.1,-347.37C942.21,-328.97 900.09,-285.67 877.11,-262.05"/>
<polygon fill="midnightblue" stroke="midnightblue" points="879.34,-259.32 869.86,-254.59 874.32,-264.2 879.34,-259.32"/>
</g>
<!-- Node6&#45;&gt;Node2 -->
<g id="edge7" class="edge">
<title>Node6&#45;&gt;Node2</title>
<path fill="none" stroke="midnightblue" d="M331.87,-291.37C321.59,-270.92 299.04,-218.3 316.5,-179 331.58,-145.07 344.68,-138.33 378.5,-123 434.09,-97.81 604.19,-85.72 698.62,-80.82"/>
<polygon fill="midnightblue" stroke="midnightblue" points="698.82,-84.31 708.63,-80.31 698.47,-77.32 698.82,-84.31"/>
</g>
<!-- Node6&#45;&gt;Node7 -->
<g id="edge8" class="edge">
<title>Node6&#45;&gt;Node7</title>
<path fill="none" stroke="midnightblue" d="M361.06,-291.44C387.02,-282.4 428.17,-268.06 457.3,-257.92"/>
<polygon fill="midnightblue" stroke="midnightblue" points="458.76,-261.11 467.05,-254.52 456.46,-254.5 458.76,-261.11"/>
</g>
<!-- Node6&#45;&gt;Node8 -->
<g id="edge27" class="edge">
<title>Node6&#45;&gt;Node8</title>
<path fill="none" stroke="midnightblue" d="M346.13,-291.32C362.31,-277.23 396.55,-249.47 430.5,-235 494.06,-207.91 574.99,-196.78 619.15,-192.49"/>
<polygon fill="midnightblue" stroke="midnightblue" points="619.66,-195.96 629.3,-191.56 619.02,-188.98 619.66,-195.96"/>
</g>
<!-- Node6&#45;&gt;Node9 -->
<g id="edge21" class="edge">
<title>Node6&#45;&gt;Node9</title>
<path fill="none" stroke="midnightblue" d="M339.62,-291.17C344.04,-278.66 352.38,-255.08 359.5,-235 362.62,-226.2 366.09,-216.43 369,-208.25"/>
<polygon fill="midnightblue" stroke="midnightblue" points="372.37,-209.22 372.43,-198.63 365.78,-206.87 372.37,-209.22"/>
</g>
<!-- Node13 -->
<g id="node13" class="node">
<title>Node13</title>
<g id="a_node13"><a xlink:href="streams_8h.html" target="_top" xlink:title=" ">
<polygon fill="white" stroke="black" points="0,-179.5 0,-198.5 107,-198.5 107,-179.5 0,-179.5"/>
<text text-anchor="middle" x="53.5" y="-186.5" font-family="'Souce Sans Pro', Roboto, FreeSans, sans-serif" font-size="10.00">log4cplus/streams.h</text>
</a>
</g>
</g>
<!-- Node6&#45;&gt;Node13 -->
<g id="edge17" class="edge">
<title>Node6&#45;&gt;Node13</title>
<path fill="none" stroke="midnightblue" d="M287.27,-298.12C218.69,-294.47 99.33,-284.02 68.5,-255 56.12,-243.35 53.01,-223.69 52.6,-209.04"/>
<polygon fill="midnightblue" stroke="midnightblue" points="56.11,-208.65 52.73,-198.61 49.11,-208.57 56.11,-208.65"/>
</g>
<!-- Node15 -->
<g id="node15" class="node">
<title>Node15</title>
<g id="a_node15"><a xlink:href="timehelper_8h.html" target="_top" xlink:title=" ">
<polygon fill="white" stroke="black" points="77.5,-235.5 77.5,-254.5 231.5,-254.5 231.5,-235.5 77.5,-235.5"/>
<text text-anchor="middle" x="154.5" y="-242.5" font-family="'Souce Sans Pro', Roboto, FreeSans, sans-serif" font-size="10.00">log4cplus/helpers/timehelper.h</text>
</a>
</g>
</g>
<!-- Node6&#45;&gt;Node15 -->
<g id="edge22" class="edge">
<title>Node6&#45;&gt;Node15</title>
<path fill="none" stroke="midnightblue" d="M307.66,-291.44C276.64,-282.24 227.17,-267.56 192.88,-257.39"/>
<polygon fill="midnightblue" stroke="midnightblue" points="193.79,-254.01 183.2,-254.52 191.79,-260.72 193.79,-254.01"/>
</g>
<!-- Node6&#45;&gt;Node18 -->
<g id="edge28" class="edge">
<title>Node6&#45;&gt;Node18</title>
<path fill="none" stroke="midnightblue" d="M385.51,-297.63C536.81,-290.24 992.04,-267.44 1095.38,-254.71"/>
<polygon fill="midnightblue" stroke="midnightblue" points="1096.05,-258.15 1105.48,-253.33 1095.1,-251.22 1096.05,-258.15"/>
</g>
<!-- Node7&#45;&gt;Node2 -->
<g id="edge9" class="edge">
<title>Node7&#45;&gt;Node2</title>
<path fill="none" stroke="midnightblue" d="M505.74,-235.31C550.17,-208.19 686.52,-124.98 740.83,-91.83"/>
<polygon fill="midnightblue" stroke="midnightblue" points="742.69,-94.8 749.4,-86.61 739.04,-88.83 742.69,-94.8"/>
</g>
<!-- Node7&#45;&gt;Node8 -->
<g id="edge10" class="edge">
<title>Node7&#45;&gt;Node8</title>
<path fill="none" stroke="midnightblue" d="M516.85,-235.44C544.72,-226.04 589.53,-210.91 619.72,-200.72"/>
<polygon fill="midnightblue" stroke="midnightblue" points="621,-203.99 629.36,-197.47 618.76,-197.35 621,-203.99"/>
</g>
<!-- Node7&#45;&gt;Node9 -->
<g id="edge11" class="edge">
<title>Node7&#45;&gt;Node9</title>
<path fill="none" stroke="midnightblue" d="M473.12,-235.44C454.28,-226.68 424.77,-212.94 403.12,-202.86"/>
<polygon fill="midnightblue" stroke="midnightblue" points="404.34,-199.56 393.79,-198.52 401.38,-205.91 404.34,-199.56"/>
</g>
<!-- Node9&#45;&gt;Node2 -->
<g id="edge12" class="edge">
<title>Node9&#45;&gt;Node2</title>
<path fill="none" stroke="midnightblue" d="M375.25,-179.25C375.35,-165.05 377.83,-137.15 394.5,-123 439.02,-85.21 604.99,-78.36 698.46,-77.59"/>
<polygon fill="midnightblue" stroke="midnightblue" points="698.67,-81.09 708.65,-77.53 698.63,-74.09 698.67,-81.09"/>
</g>
<!-- Node10 -->
<g id="node10" class="node">
<title>Node10</title>
<g id="a_node10"><a xlink:title=" ">
<polygon fill="white" stroke="#bfbfbf" points="404,-123.5 404,-142.5 445,-142.5 445,-123.5 404,-123.5"/>
<text text-anchor="middle" x="424.5" y="-130.5" font-family="'Souce Sans Pro', Roboto, FreeSans, sans-serif" font-size="10.00">string</text>
</a>
</g>
</g>
<!-- Node9&#45;&gt;Node10 -->
<g id="edge13" class="edge">
<title>Node9&#45;&gt;Node10</title>
<path fill="none" stroke="midnightblue" d="M383.59,-179.08C390.66,-171.3 401.09,-159.8 409.65,-150.37"/>
<polygon fill="midnightblue" stroke="midnightblue" points="412.43,-152.51 416.56,-142.75 407.25,-147.8 412.43,-152.51"/>
</g>
<!-- Node11 -->
<g id="node11" class="node">
<title>Node11</title>
<g id="a_node11"><a xlink:href="tchar_8h.html" target="_top" xlink:title=" ">
<polygon fill="white" stroke="black" points="138,-123.5 138,-142.5 231,-142.5 231,-123.5 138,-123.5"/>
<text text-anchor="middle" x="184.5" y="-130.5" font-family="'Souce Sans Pro', Roboto, FreeSans, sans-serif" font-size="10.00">log4cplus/tchar.h</text>
</a>
</g>
</g>
<!-- Node9&#45;&gt;Node11 -->
<g id="edge14" class="edge">
<title>Node9&#45;&gt;Node11</title>
<path fill="none" stroke="midnightblue" d="M345.24,-179.44C312.54,-170.2 260.32,-155.44 224.32,-145.26"/>
<polygon fill="midnightblue" stroke="midnightblue" points="225.2,-141.87 214.62,-142.52 223.29,-148.61 225.2,-141.87"/>
</g>
<!-- Node11&#45;&gt;Node2 -->
<g id="edge15" class="edge">
<title>Node11&#45;&gt;Node2</title>
<path fill="none" stroke="midnightblue" d="M231.09,-124.83C235.95,-124.17 240.82,-123.55 245.5,-123 408.29,-103.94 600.75,-89.28 698.89,-82.37"/>
<polygon fill="midnightblue" stroke="midnightblue" points="699.22,-85.85 708.95,-81.66 698.73,-78.87 699.22,-85.85"/>
</g>
<!-- Node12 -->
<g id="node12" class="node">
<title>Node12</title>
<g id="a_node12"><a xlink:title=" ">
<polygon fill="white" stroke="#bfbfbf" points="159,-67.5 159,-86.5 210,-86.5 210,-67.5 159,-67.5"/>
<text text-anchor="middle" x="184.5" y="-74.5" font-family="'Souce Sans Pro', Roboto, FreeSans, sans-serif" font-size="10.00">cstddef</text>
</a>
</g>
</g>
<!-- Node11&#45;&gt;Node12 -->
<g id="edge16" class="edge">
<title>Node11&#45;&gt;Node12</title>
<path fill="none" stroke="midnightblue" d="M184.5,-123.08C184.5,-116.01 184.5,-105.86 184.5,-96.99"/>
<polygon fill="midnightblue" stroke="midnightblue" points="188,-96.75 184.5,-86.75 181,-96.75 188,-96.75"/>
</g>
<!-- Node13&#45;&gt;Node2 -->
<g id="edge18" class="edge">
<title>Node13&#45;&gt;Node2</title>
<path fill="none" stroke="midnightblue" d="M60.23,-179.3C72.15,-164.64 98.57,-135.39 128.5,-123 230.24,-80.89 558.32,-77.07 698.75,-77.45"/>
<polygon fill="midnightblue" stroke="midnightblue" points="698.92,-80.95 708.93,-77.48 698.94,-73.95 698.92,-80.95"/>
</g>
<!-- Node13&#45;&gt;Node11 -->
<g id="edge19" class="edge">
<title>Node13&#45;&gt;Node11</title>
<path fill="none" stroke="midnightblue" d="M74.26,-179.44C95.82,-170.56 129.76,-156.56 154.29,-146.45"/>
<polygon fill="midnightblue" stroke="midnightblue" points="155.93,-149.56 163.84,-142.52 153.26,-143.09 155.93,-149.56"/>
</g>
<!-- Node14 -->
<g id="node14" class="node">
<title>Node14</title>
<g id="a_node14"><a xlink:title=" ">
<polygon fill="white" stroke="#bfbfbf" points="30,-123.5 30,-142.5 77,-142.5 77,-123.5 30,-123.5"/>
<text text-anchor="middle" x="53.5" y="-130.5" font-family="'Souce Sans Pro', Roboto, FreeSans, sans-serif" font-size="10.00">iosfwd</text>
</a>
</g>
</g>
<!-- Node13&#45;&gt;Node14 -->
<g id="edge20" class="edge">
<title>Node13&#45;&gt;Node14</title>
<path fill="none" stroke="midnightblue" d="M53.5,-179.08C53.5,-172.01 53.5,-161.86 53.5,-152.99"/>
<polygon fill="midnightblue" stroke="midnightblue" points="57,-152.75 53.5,-142.75 50,-152.75 57,-152.75"/>
</g>
<!-- Node15&#45;&gt;Node2 -->
<g id="edge23" class="edge">
<title>Node15&#45;&gt;Node2</title>
<path fill="none" stroke="midnightblue" d="M178.75,-235.43C197.11,-228 222.06,-215.79 239.5,-199 267.62,-171.93 250.63,-144.05 283.5,-123 317.69,-101.1 575.83,-86.54 698.77,-80.78"/>
<polygon fill="midnightblue" stroke="midnightblue" points="698.99,-84.28 708.81,-80.32 698.66,-77.28 698.99,-84.28"/>
</g>
<!-- Node15&#45;&gt;Node9 -->
<g id="edge24" class="edge">
<title>Node15&#45;&gt;Node9</title>
<path fill="none" stroke="midnightblue" d="M189.52,-235.44C227.75,-226.1 289.07,-211.12 330.76,-200.93"/>
<polygon fill="midnightblue" stroke="midnightblue" points="331.76,-204.29 340.65,-198.52 330.1,-197.49 331.76,-204.29"/>
</g>
<!-- Node16 -->
<g id="node16" class="node">
<title>Node16</title>
<g id="a_node16"><a xlink:title=" ">
<polygon fill="white" stroke="#bfbfbf" points="125,-179.5 125,-198.5 166,-198.5 166,-179.5 125,-179.5"/>
<text text-anchor="middle" x="145.5" y="-186.5" font-family="'Souce Sans Pro', Roboto, FreeSans, sans-serif" font-size="10.00">ctime</text>
</a>
</g>
</g>
<!-- Node15&#45;&gt;Node16 -->
<g id="edge25" class="edge">
<title>Node15&#45;&gt;Node16</title>
<path fill="none" stroke="midnightblue" d="M153.01,-235.08C151.82,-227.93 150.11,-217.64 148.62,-208.69"/>
<polygon fill="midnightblue" stroke="midnightblue" points="152.05,-208.04 146.96,-198.75 145.15,-209.19 152.05,-208.04"/>
</g>
<!-- Node17 -->
<g id="node17" class="node">
<title>Node17</title>
<g id="a_node17"><a xlink:title=" ">
<polygon fill="white" stroke="#bfbfbf" points="184,-179.5 184,-198.5 231,-198.5 231,-179.5 184,-179.5"/>
<text text-anchor="middle" x="207.5" y="-186.5" font-family="'Souce Sans Pro', Roboto, FreeSans, sans-serif" font-size="10.00">chrono</text>
</a>
</g>
</g>
<!-- Node15&#45;&gt;Node17 -->
<g id="edge26" class="edge">
<title>Node15&#45;&gt;Node17</title>
<path fill="none" stroke="midnightblue" d="M163.25,-235.08C170.97,-227.22 182.4,-215.57 191.72,-206.08"/>
<polygon fill="midnightblue" stroke="midnightblue" points="194.4,-208.34 198.91,-198.75 189.41,-203.44 194.4,-208.34"/>
</g>
<!-- Node19&#45;&gt;Node2 -->
<g id="edge32" class="edge">
<title>Node19&#45;&gt;Node2</title>
<path fill="none" stroke="midnightblue" d="M985.65,-235.46C960.41,-228.05 925.29,-215.85 897.5,-199 871.78,-183.4 809.29,-123.16 779.64,-94"/>
<polygon fill="midnightblue" stroke="midnightblue" points="781.78,-91.2 772.2,-86.66 776.86,-96.18 781.78,-91.2"/>
</g>
<!-- Node20 -->
<g id="node20" class="node">
<title>Node20</title>
<g id="a_node20"><a xlink:href="syncprims_8h.html" target="_top" xlink:title=" ">
<polygon fill="white" stroke="black" points="906,-179.5 906,-198.5 1055,-198.5 1055,-179.5 906,-179.5"/>
<text text-anchor="middle" x="980.5" y="-186.5" font-family="'Souce Sans Pro', Roboto, FreeSans, sans-serif" font-size="10.00">log4cplus/thread/syncprims.h</text>
</a>
</g>
</g>
<!-- Node19&#45;&gt;Node20 -->
<g id="edge33" class="edge">
<title>Node19&#45;&gt;Node20</title>
<path fill="none" stroke="midnightblue" d="M1012.23,-235.08C1006.86,-227.46 998.98,-216.26 992.42,-206.94"/>
<polygon fill="midnightblue" stroke="midnightblue" points="995.28,-204.91 986.66,-198.75 989.55,-208.94 995.28,-204.91"/>
</g>
<!-- Node23 -->
<g id="node23" class="node">
<title>Node23</title>
<g id="a_node23"><a xlink:title=" ">
<polygon fill="white" stroke="#bfbfbf" points="1141,-179.5 1141,-198.5 1200,-198.5 1200,-179.5 1141,-179.5"/>
<text text-anchor="middle" x="1170.5" y="-186.5" font-family="'Souce Sans Pro', Roboto, FreeSans, sans-serif" font-size="10.00">algorithm</text>
</a>
</g>
</g>
<!-- Node19&#45;&gt;Node23 -->
<g id="edge37" class="edge">
<title>Node19&#45;&gt;Node23</title>
<path fill="none" stroke="midnightblue" d="M1042.58,-235.44C1068.04,-226.4 1108.39,-212.06 1136.96,-201.92"/>
<polygon fill="midnightblue" stroke="midnightblue" points="1138.28,-205.16 1146.53,-198.52 1135.93,-198.57 1138.28,-205.16"/>
</g>
<!-- Node24 -->
<g id="node24" class="node">
<title>Node24</title>
<g id="a_node24"><a xlink:title=" ">
<polygon fill="white" stroke="#bfbfbf" points="1072.5,-179.5 1072.5,-198.5 1122.5,-198.5 1122.5,-179.5 1072.5,-179.5"/>
<text text-anchor="middle" x="1097.5" y="-186.5" font-family="'Souce Sans Pro', Roboto, FreeSans, sans-serif" font-size="10.00">cassert</text>
</a>
</g>
</g>
<!-- Node19&#45;&gt;Node24 -->
<g id="edge38" class="edge">
<title>Node19&#45;&gt;Node24</title>
<path fill="none" stroke="midnightblue" d="M1031.19,-235.32C1043.4,-226.98 1062.08,-214.21 1076.5,-204.35"/>
<polygon fill="midnightblue" stroke="midnightblue" points="1078.56,-207.19 1084.84,-198.65 1074.61,-201.41 1078.56,-207.19"/>
</g>
<!-- Node19&#45;&gt;Node25 -->
<g id="edge39" class="edge">
<title>Node19&#45;&gt;Node25</title>
<path fill="none" stroke="midnightblue" d="M1056.37,-235.44C1102.55,-225.01 1179.89,-207.53 1224,-197.57"/>
<polygon fill="midnightblue" stroke="midnightblue" points="1224.95,-200.94 1233.93,-195.32 1223.41,-194.11 1224.95,-200.94"/>
</g>
<!-- Node20&#45;&gt;Node2 -->
<g id="edge34" class="edge">
<title>Node20&#45;&gt;Node2</title>
<path fill="none" stroke="midnightblue" d="M970.33,-179.41C953.98,-165.93 920.41,-139.63 888.5,-123 861.41,-108.89 828.9,-97.33 803.83,-89.47"/>
<polygon fill="midnightblue" stroke="midnightblue" points="804.85,-86.12 794.26,-86.53 802.8,-92.81 804.85,-86.12"/>
</g>
<!-- Node20&#45;&gt;Node21 -->
<g id="edge35" class="edge">
<title>Node20&#45;&gt;Node21</title>
<path fill="none" stroke="midnightblue" d="M985.12,-179.08C988.96,-171.69 994.52,-160.95 999.26,-151.81"/>
<polygon fill="midnightblue" stroke="midnightblue" points="1002.47,-153.24 1003.96,-142.75 996.25,-150.02 1002.47,-153.24"/>
</g>
<!-- Node20&#45;&gt;Node22 -->
<g id="edge36" class="edge">
<title>Node20&#45;&gt;Node22</title>
<path fill="none" stroke="midnightblue" d="M1016.15,-179.44C1055.16,-170.08 1117.77,-155.06 1160.22,-144.87"/>
<polygon fill="midnightblue" stroke="midnightblue" points="1161.11,-148.25 1170.01,-142.52 1159.47,-141.45 1161.11,-148.25"/>
</g>
<!-- Node26&#45;&gt;Node2 -->
<g id="edge41" class="edge">
<title>Node26&#45;&gt;Node2</title>
<path fill="none" stroke="midnightblue" d="M612.27,-291.49C625.91,-274.27 657.5,-233.98 682.5,-199 708.47,-162.67 737.17,-118.86 752.47,-95.19"/>
<polygon fill="midnightblue" stroke="midnightblue" points="755.51,-96.93 757.98,-86.63 749.62,-93.14 755.51,-96.93"/>
</g>
<!-- Node26&#45;&gt;Node7 -->
<g id="edge44" class="edge">
<title>Node26&#45;&gt;Node7</title>
<path fill="none" stroke="midnightblue" d="M587.44,-291.44C568.93,-282.68 539.92,-268.94 518.64,-258.86"/>
<polygon fill="midnightblue" stroke="midnightblue" points="520.01,-255.63 509.48,-254.52 517.02,-261.96 520.01,-255.63"/>
</g>
<!-- Node26&#45;&gt;Node19 -->
<g id="edge43" class="edge">
<title>Node26&#45;&gt;Node19</title>
<path fill="none" stroke="midnightblue" d="M659.07,-293C731.56,-283.52 861.26,-266.56 943.44,-255.81"/>
<polygon fill="midnightblue" stroke="midnightblue" points="944,-259.27 953.47,-254.5 943.1,-252.33 944,-259.27"/>
</g>
<!-- Node27 -->
<g id="node27" class="node">
<title>Node27</title>
<g id="a_node27"><a xlink:title=" ">
<polygon fill="white" stroke="#bfbfbf" points="561.5,-235.5 561.5,-254.5 621.5,-254.5 621.5,-235.5 561.5,-235.5"/>
<text text-anchor="middle" x="591.5" y="-242.5" font-family="'Souce Sans Pro', Roboto, FreeSans, sans-serif" font-size="10.00">functional</text>
</a>
</g>
</g>
<!-- Node26&#45;&gt;Node27 -->
<g id="edge42" class="edge">
<title>Node26&#45;&gt;Node27</title>
<path fill="none" stroke="midnightblue" d="M603.19,-291.08C601.33,-283.93 598.66,-273.64 596.35,-264.69"/>
<polygon fill="midnightblue" stroke="midnightblue" points="599.67,-263.55 593.77,-254.75 592.89,-265.31 599.67,-263.55"/>
</g>
<!-- Node28&#45;&gt;Node2 -->
<g id="edge46" class="edge">
<title>Node28&#45;&gt;Node2</title>
<path fill="none" stroke="midnightblue" d="M856.23,-235.08C840.6,-208.61 794.32,-130.21 773.66,-95.21"/>
<polygon fill="midnightblue" stroke="midnightblue" points="776.66,-93.4 768.56,-86.57 770.63,-96.96 776.66,-93.4"/>
</g>
<!-- Node28&#45;&gt;Node9 -->
<g id="edge47" class="edge">
<title>Node28&#45;&gt;Node9</title>
<path fill="none" stroke="midnightblue" d="M791.35,-236.21C695.55,-225.56 525.43,-206.66 435.33,-196.65"/>
<polygon fill="midnightblue" stroke="midnightblue" points="435.61,-193.16 425.28,-195.53 434.83,-200.11 435.61,-193.16"/>
</g>
<!-- Node28&#45;&gt;Node20 -->
<g id="edge48" class="edge">
<title>Node28&#45;&gt;Node20</title>
<path fill="none" stroke="midnightblue" d="M880.36,-235.44C899.77,-226.64 930.23,-212.81 952.46,-202.72"/>
<polygon fill="midnightblue" stroke="midnightblue" points="954.07,-205.84 961.73,-198.52 951.18,-199.46 954.07,-205.84"/>
</g>
<!-- Node29&#45;&gt;Node2 -->
<g id="edge57" class="edge">
<title>Node29&#45;&gt;Node2</title>
<path fill="none" stroke="midnightblue" d="M1177.52,-291.44C1205.66,-285.11 1237.03,-274.12 1260.5,-255 1306,-217.95 1310.97,-156.06 1262.5,-123 1227.42,-99.08 955.55,-85.47 828.52,-80.36"/>
<polygon fill="midnightblue" stroke="midnightblue" points="828.29,-76.85 818.16,-79.95 828.01,-83.84 828.29,-76.85"/>
</g>
<!-- Node29&#45;&gt;Node8 -->
<g id="edge62" class="edge">
<title>Node29&#45;&gt;Node8</title>
<path fill="none" stroke="midnightblue" d="M1034.2,-296.58C967.15,-291.89 866.45,-280.87 782.5,-255 742.27,-242.6 699.19,-219 673.84,-203.9"/>
<polygon fill="midnightblue" stroke="midnightblue" points="675.4,-200.75 665.03,-198.57 671.78,-206.74 675.4,-200.75"/>
</g>
<!-- Node29&#45;&gt;Node9 -->
<g id="edge58" class="edge">
<title>Node29&#45;&gt;Node9</title>
<path fill="none" stroke="midnightblue" d="M1034.18,-292.98C957.58,-285.32 834.84,-271.87 729.5,-255 685.18,-247.9 674.61,-243.35 630.5,-235 563.83,-222.38 487.13,-209 435.41,-200.14"/>
<polygon fill="midnightblue" stroke="midnightblue" points="435.85,-196.67 425.41,-198.43 434.67,-203.57 435.85,-196.67"/>
</g>
<!-- Node29&#45;&gt;Node18 -->
<g id="edge61" class="edge">
<title>Node29&#45;&gt;Node18</title>
<path fill="none" stroke="midnightblue" d="M1112.46,-291.08C1115.71,-283.77 1120.42,-273.18 1124.45,-264.1"/>
<polygon fill="midnightblue" stroke="midnightblue" points="1127.75,-265.31 1128.61,-254.75 1121.35,-262.47 1127.75,-265.31"/>
</g>
<!-- Node29&#45;&gt;Node20 -->
<g id="edge59" class="edge">
<title>Node29&#45;&gt;Node20</title>
<path fill="none" stroke="midnightblue" d="M1126.92,-291.35C1150.21,-279.24 1185.34,-256.34 1168.5,-235 1155.27,-218.22 1108.69,-207 1065.21,-199.96"/>
<polygon fill="midnightblue" stroke="midnightblue" points="1065.54,-196.47 1055.12,-198.39 1064.46,-203.39 1065.54,-196.47"/>
</g>
<!-- Node30 -->
<g id="node30" class="node">
<title>Node30</title>
<g id="a_node30"><a xlink:title=" ">
<polygon fill="white" stroke="#bfbfbf" points="1215.5,-235.5 1215.5,-254.5 1251.5,-254.5 1251.5,-235.5 1215.5,-235.5"/>
<text text-anchor="middle" x="1233.5" y="-242.5" font-family="'Souce Sans Pro', Roboto, FreeSans, sans-serif" font-size="10.00">map</text>
</a>
</g>
</g>
<!-- Node29&#45;&gt;Node30 -->
<g id="edge60" class="edge">
<title>Node29&#45;&gt;Node30</title>
<path fill="none" stroke="midnightblue" d="M1128.31,-291.44C1149.27,-282.39 1182.5,-268.03 1206,-257.88"/>
<polygon fill="midnightblue" stroke="midnightblue" points="1207.62,-260.99 1215.41,-253.82 1204.84,-254.57 1207.62,-260.99"/>
</g>
</g>
</svg>
