<?xml version="1.0" encoding="UTF-8" standalone="no"?>
<!DOCTYPE svg PUBLIC "-//W3C//DTD SVG 1.1//EN"
 "http://www.w3.org/Graphics/SVG/1.1/DTD/svg11.dtd">
<!-- Generated by graphviz version 2.43.0 (0)
 -->
<!-- Title: fileappender.h Pages: 1 -->
<svg width="1445pt" height="431pt"
 viewBox="0.00 0.00 1444.50 431.00" xmlns="http://www.w3.org/2000/svg" xmlns:xlink="http://www.w3.org/1999/xlink">
<g id="graph0" class="graph" transform="scale(1 1) rotate(0) translate(4 427)">
<title>fileappender.h</title>
<polygon fill="white" stroke="transparent" points="-4,4 -4,-427 1440.5,-427 1440.5,4 -4,4"/>
<!-- Node1 -->
<g id="node1" class="node">
<title>Node1</title>
<g id="a_node1"><a xlink:title=" ">
<polygon fill="#bfbfbf" stroke="black" points="1108,-403.5 1108,-422.5 1186,-422.5 1186,-403.5 1108,-403.5"/>
<text text-anchor="middle" x="1147" y="-410.5" font-family="'Souce Sans Pro', Roboto, FreeSans, sans-serif" font-size="10.00">fileappender.h</text>
</a>
</g>
</g>
<!-- Node2 -->
<g id="node2" class="node">
<title>Node2</title>
<g id="a_node2"><a xlink:href="config_8hxx.html" target="_top" xlink:title=" ">
<polygon fill="white" stroke="black" points="678.5,-67.5 678.5,-86.5 787.5,-86.5 787.5,-67.5 678.5,-67.5"/>
<text text-anchor="middle" x="733" y="-74.5" font-family="'Souce Sans Pro', Roboto, FreeSans, sans-serif" font-size="10.00">log4cplus/config.hxx</text>
</a>
</g>
</g>
<!-- Node1&#45;&gt;Node2 -->
<g id="edge1" class="edge">
<title>Node1&#45;&gt;Node2</title>
<path fill="none" stroke="midnightblue" d="M1180.44,-403.41C1224.37,-389.88 1296,-359.07 1296,-302 1296,-302 1296,-302 1296,-188 1296,-121.81 1225.65,-141.17 1162,-123 1095.34,-103.97 900.72,-88.93 798.09,-82.06"/>
<polygon fill="midnightblue" stroke="midnightblue" points="798.05,-78.55 787.85,-81.38 797.59,-85.54 798.05,-78.55"/>
</g>
<!-- Node5 -->
<g id="node5" class="node">
<title>Node5</title>
<g id="a_node5"><a xlink:href="appender_8h.html" target="_top" xlink:title=" ">
<polygon fill="white" stroke="black" points="512,-347.5 512,-366.5 624,-366.5 624,-347.5 512,-347.5"/>
<text text-anchor="middle" x="568" y="-354.5" font-family="'Souce Sans Pro', Roboto, FreeSans, sans-serif" font-size="10.00">log4cplus/appender.h</text>
</a>
</g>
</g>
<!-- Node1&#45;&gt;Node5 -->
<g id="edge4" class="edge">
<title>Node1&#45;&gt;Node5</title>
<path fill="none" stroke="midnightblue" d="M1107.66,-408.33C1010.09,-399.23 756.12,-375.55 634.63,-364.21"/>
<polygon fill="midnightblue" stroke="midnightblue" points="634.64,-360.7 624.36,-363.26 633.99,-367.67 634.64,-360.7"/>
</g>
<!-- Node15 -->
<g id="node15" class="node">
<title>Node15</title>
<g id="a_node15"><a xlink:href="timehelper_8h.html" target="_top" xlink:title=" ">
<polygon fill="white" stroke="black" points="979,-235.5 979,-254.5 1133,-254.5 1133,-235.5 979,-235.5"/>
<text text-anchor="middle" x="1056" y="-242.5" font-family="'Souce Sans Pro', Roboto, FreeSans, sans-serif" font-size="10.00">log4cplus/helpers/timehelper.h</text>
</a>
</g>
</g>
<!-- Node1&#45;&gt;Node15 -->
<g id="edge57" class="edge">
<title>Node1&#45;&gt;Node15</title>
<path fill="none" stroke="midnightblue" d="M1142.11,-403.08C1127.66,-376.72 1084.99,-298.88 1065.68,-263.66"/>
<polygon fill="midnightblue" stroke="midnightblue" points="1068.57,-261.65 1060.7,-254.57 1062.43,-265.02 1068.57,-261.65"/>
</g>
<!-- Node18 -->
<g id="node18" class="node">
<title>Node18</title>
<g id="a_node18"><a xlink:title=" ">
<polygon fill="white" stroke="#bfbfbf" points="907,-235.5 907,-254.5 961,-254.5 961,-235.5 907,-235.5"/>
<text text-anchor="middle" x="934" y="-242.5" font-family="'Souce Sans Pro', Roboto, FreeSans, sans-serif" font-size="10.00">memory</text>
</a>
</g>
</g>
<!-- Node1&#45;&gt;Node18 -->
<g id="edge61" class="edge">
<title>Node1&#45;&gt;Node18</title>
<path fill="none" stroke="midnightblue" d="M1135.85,-403.31C1101.41,-376.47 996.48,-294.69 953.09,-260.88"/>
<polygon fill="midnightblue" stroke="midnightblue" points="955.08,-257.99 945.04,-254.61 950.78,-263.51 955.08,-257.99"/>
</g>
<!-- Node28 -->
<g id="node28" class="node">
<title>Node28</title>
<g id="a_node28"><a xlink:href="lockfile_8h.html" target="_top" xlink:title=" ">
<polygon fill="white" stroke="black" points="89,-235.5 89,-254.5 229,-254.5 229,-235.5 89,-235.5"/>
<text text-anchor="middle" x="159" y="-242.5" font-family="'Souce Sans Pro', Roboto, FreeSans, sans-serif" font-size="10.00">log4cplus/helpers/lockfile.h</text>
</a>
</g>
</g>
<!-- Node1&#45;&gt;Node28 -->
<g id="edge58" class="edge">
<title>Node1&#45;&gt;Node28</title>
<path fill="none" stroke="midnightblue" d="M1107.64,-410.86C1006.76,-407.58 730.87,-396.41 503,-367 370.21,-349.86 320.38,-382.22 207,-311 189.05,-299.72 175.56,-279.11 167.53,-264.11"/>
<polygon fill="midnightblue" stroke="midnightblue" points="170.47,-262.17 162.85,-254.81 164.22,-265.32 170.47,-262.17"/>
</g>
<!-- Node29 -->
<g id="node29" class="node">
<title>Node29</title>
<g id="a_node29"><a xlink:href="fstreams_8h.html" target="_top" xlink:title=" ">
<polygon fill="white" stroke="black" points="1156.5,-179.5 1156.5,-198.5 1267.5,-198.5 1267.5,-179.5 1156.5,-179.5"/>
<text text-anchor="middle" x="1212" y="-186.5" font-family="'Souce Sans Pro', Roboto, FreeSans, sans-serif" font-size="10.00">log4cplus/fstreams.h</text>
</a>
</g>
</g>
<!-- Node1&#45;&gt;Node29 -->
<g id="edge53" class="edge">
<title>Node1&#45;&gt;Node29</title>
<path fill="none" stroke="midnightblue" d="M1149.55,-403.3C1159.13,-370.56 1193.15,-254.38 1206.53,-208.67"/>
<polygon fill="midnightblue" stroke="midnightblue" points="1209.95,-209.46 1209.4,-198.88 1203.23,-207.5 1209.95,-209.46"/>
</g>
<!-- Node30 -->
<g id="node30" class="node">
<title>Node30</title>
<g id="a_node30"><a xlink:title=" ">
<polygon fill="white" stroke="#bfbfbf" points="1324.5,-347.5 1324.5,-366.5 1375.5,-366.5 1375.5,-347.5 1324.5,-347.5"/>
<text text-anchor="middle" x="1350" y="-354.5" font-family="'Souce Sans Pro', Roboto, FreeSans, sans-serif" font-size="10.00">fstream</text>
</a>
</g>
</g>
<!-- Node1&#45;&gt;Node30 -->
<g id="edge59" class="edge">
<title>Node1&#45;&gt;Node30</title>
<path fill="none" stroke="midnightblue" d="M1179.17,-403.44C1216.11,-393.62 1276.53,-377.54 1314.74,-367.38"/>
<polygon fill="midnightblue" stroke="midnightblue" points="1315.65,-370.76 1324.41,-364.81 1313.85,-364 1315.65,-370.76"/>
</g>
<!-- Node31 -->
<g id="node31" class="node">
<title>Node31</title>
<g id="a_node31"><a xlink:title=" ">
<polygon fill="white" stroke="#bfbfbf" points="1393.5,-347.5 1393.5,-366.5 1436.5,-366.5 1436.5,-347.5 1393.5,-347.5"/>
<text text-anchor="middle" x="1415" y="-354.5" font-family="'Souce Sans Pro', Roboto, FreeSans, sans-serif" font-size="10.00">locale</text>
</a>
</g>
</g>
<!-- Node1&#45;&gt;Node31 -->
<g id="edge60" class="edge">
<title>Node1&#45;&gt;Node31</title>
<path fill="none" stroke="midnightblue" d="M1186.02,-405.91C1231.35,-398.55 1308.55,-385.15 1383.38,-367.21"/>
<polygon fill="midnightblue" stroke="midnightblue" points="1384.55,-370.52 1393.44,-364.76 1382.9,-363.72 1384.55,-370.52"/>
</g>
<!-- Node3 -->
<g id="node3" class="node">
<title>Node3</title>
<g id="a_node3"><a xlink:href="win32_8h.html" target="_top" xlink:title=" ">
<polygon fill="white" stroke="black" points="596,-6 596,-25 724,-25 724,-6 596,-6"/>
<text text-anchor="middle" x="660" y="-13" font-family="'Souce Sans Pro', Roboto, FreeSans, sans-serif" font-size="10.00">log4cplus/config/win32.h</text>
</a>
</g>
</g>
<!-- Node2&#45;&gt;Node3 -->
<g id="edge2" class="edge">
<title>Node2&#45;&gt;Node3</title>
<path fill="none" stroke="midnightblue" d="M722.54,-67.48C711.05,-58.11 692.37,-42.88 678.41,-31.51"/>
<polygon fill="midnightblue" stroke="midnightblue" points="680.4,-28.61 670.44,-25.01 675.98,-34.04 680.4,-28.61"/>
</g>
<!-- Node4 -->
<g id="node4" class="node">
<title>Node4</title>
<g id="a_node4"><a xlink:href="thread-config_8h.html" target="_top" xlink:title=" ">
<polygon fill="white" stroke="black" points="742,-0.5 742,-30.5 870,-30.5 870,-0.5 742,-0.5"/>
<text text-anchor="start" x="750" y="-18.5" font-family="'Souce Sans Pro', Roboto, FreeSans, sans-serif" font-size="10.00">log4cplus/helpers/thread</text>
<text text-anchor="middle" x="806" y="-7.5" font-family="'Souce Sans Pro', Roboto, FreeSans, sans-serif" font-size="10.00">&#45;config.h</text>
</a>
</g>
</g>
<!-- Node2&#45;&gt;Node4 -->
<g id="edge3" class="edge">
<title>Node2&#45;&gt;Node4</title>
<path fill="none" stroke="midnightblue" d="M743.46,-67.48C753.16,-59.57 767.99,-47.48 780.77,-37.07"/>
<polygon fill="midnightblue" stroke="midnightblue" points="783.26,-39.55 788.8,-30.52 778.83,-34.13 783.26,-39.55"/>
</g>
<!-- Node5&#45;&gt;Node2 -->
<g id="edge5" class="edge">
<title>Node5&#45;&gt;Node2</title>
<path fill="none" stroke="midnightblue" d="M624.27,-350.49C684.09,-343.72 773.9,-330.65 802,-311 829.61,-291.7 841,-279.69 841,-246 841,-246 841,-246 841,-188 841,-156.37 833.24,-146.44 812,-123 799.36,-109.05 781.35,-98.34 765.72,-90.86"/>
<polygon fill="midnightblue" stroke="midnightblue" points="766.92,-87.57 756.37,-86.63 764.04,-93.94 766.92,-87.57"/>
</g>
<!-- Node6 -->
<g id="node6" class="node">
<title>Node6</title>
<g id="a_node6"><a xlink:href="layout_8h.html" target="_top" xlink:title=" ">
<polygon fill="white" stroke="black" points="677,-291.5 677,-310.5 775,-310.5 775,-291.5 677,-291.5"/>
<text text-anchor="middle" x="726" y="-298.5" font-family="'Souce Sans Pro', Roboto, FreeSans, sans-serif" font-size="10.00">log4cplus/layout.h</text>
</a>
</g>
</g>
<!-- Node5&#45;&gt;Node6 -->
<g id="edge6" class="edge">
<title>Node5&#45;&gt;Node6</title>
<path fill="none" stroke="midnightblue" d="M593.04,-347.44C619.62,-338.36 661.81,-323.94 691.52,-313.78"/>
<polygon fill="midnightblue" stroke="midnightblue" points="692.75,-317.06 701.08,-310.52 690.49,-310.44 692.75,-317.06"/>
</g>
<!-- Node7 -->
<g id="node7" class="node">
<title>Node7</title>
<g id="a_node7"><a xlink:href="loglevel_8h.html" target="_top" xlink:title="This header defines the LogLevel type.">
<polygon fill="white" stroke="black" points="557,-235.5 557,-254.5 661,-254.5 661,-235.5 557,-235.5"/>
<text text-anchor="middle" x="609" y="-242.5" font-family="'Souce Sans Pro', Roboto, FreeSans, sans-serif" font-size="10.00">log4cplus/loglevel.h</text>
</a>
</g>
</g>
<!-- Node5&#45;&gt;Node7 -->
<g id="edge29" class="edge">
<title>Node5&#45;&gt;Node7</title>
<path fill="none" stroke="midnightblue" d="M572.84,-347.24C577.64,-338.31 584.97,-323.97 590,-311 595.97,-295.58 601.12,-277.49 604.54,-264.31"/>
<polygon fill="midnightblue" stroke="midnightblue" points="607.95,-265.12 606.99,-254.57 601.16,-263.41 607.95,-265.12"/>
</g>
<!-- Node9 -->
<g id="node9" class="node">
<title>Node9</title>
<g id="a_node9"><a xlink:href="tstring_8h.html" target="_top" xlink:title=" ">
<polygon fill="white" stroke="black" points="713.5,-179.5 713.5,-198.5 812.5,-198.5 812.5,-179.5 713.5,-179.5"/>
<text text-anchor="middle" x="763" y="-186.5" font-family="'Souce Sans Pro', Roboto, FreeSans, sans-serif" font-size="10.00">log4cplus/tstring.h</text>
</a>
</g>
</g>
<!-- Node5&#45;&gt;Node9 -->
<g id="edge30" class="edge">
<title>Node5&#45;&gt;Node9</title>
<path fill="none" stroke="midnightblue" d="M624.22,-352.16C681.36,-346.95 764.21,-335.33 784,-311 808.22,-281.21 787.97,-233.45 773.83,-207.75"/>
<polygon fill="midnightblue" stroke="midnightblue" points="776.68,-205.68 768.64,-198.77 770.62,-209.18 776.68,-205.68"/>
</g>
<!-- Node5&#45;&gt;Node18 -->
<g id="edge49" class="edge">
<title>Node5&#45;&gt;Node18</title>
<path fill="none" stroke="midnightblue" d="M624.14,-355.84C683.86,-353.74 779.89,-344.72 855,-311 880.43,-299.58 904.37,-277.74 919.09,-262.54"/>
<polygon fill="midnightblue" stroke="midnightblue" points="921.98,-264.57 926.27,-254.89 916.87,-259.78 921.98,-264.57"/>
</g>
<!-- Node19 -->
<g id="node19" class="node">
<title>Node19</title>
<g id="a_node19"><a xlink:href="pointer_8h.html" target="_top" xlink:title=" ">
<polygon fill="white" stroke="black" points="285,-235.5 285,-254.5 423,-254.5 423,-235.5 285,-235.5"/>
<text text-anchor="middle" x="354" y="-242.5" font-family="'Souce Sans Pro', Roboto, FreeSans, sans-serif" font-size="10.00">log4cplus/helpers/pointer.h</text>
</a>
</g>
</g>
<!-- Node5&#45;&gt;Node19 -->
<g id="edge31" class="edge">
<title>Node5&#45;&gt;Node19</title>
<path fill="none" stroke="midnightblue" d="M546.35,-347.41C525.27,-338.85 492.48,-324.99 465,-311 433.31,-294.87 398.09,-273.65 376,-259.92"/>
<polygon fill="midnightblue" stroke="midnightblue" points="377.72,-256.87 367.38,-254.53 374,-262.8 377.72,-256.87"/>
</g>
<!-- Node21 -->
<g id="node21" class="node">
<title>Node21</title>
<g id="a_node21"><a xlink:title=" ">
<polygon fill="white" stroke="#bfbfbf" points="0,-123.5 0,-142.5 44,-142.5 44,-123.5 0,-123.5"/>
<text text-anchor="middle" x="22" y="-130.5" font-family="'Souce Sans Pro', Roboto, FreeSans, sans-serif" font-size="10.00">mutex</text>
</a>
</g>
</g>
<!-- Node5&#45;&gt;Node21 -->
<g id="edge50" class="edge">
<title>Node5&#45;&gt;Node21</title>
<path fill="none" stroke="midnightblue" d="M511.8,-354.4C409.52,-350.8 197.31,-340 130,-311 94.98,-295.91 86.55,-286.46 65,-255 42.82,-222.62 30.81,-177.56 25.47,-152.56"/>
<polygon fill="midnightblue" stroke="midnightblue" points="28.88,-151.73 23.48,-142.61 22.01,-153.1 28.88,-151.73"/>
</g>
<!-- Node22 -->
<g id="node22" class="node">
<title>Node22</title>
<g id="a_node22"><a xlink:title=" ">
<polygon fill="white" stroke="#bfbfbf" points="82,-123.5 82,-142.5 178,-142.5 178,-123.5 82,-123.5"/>
<text text-anchor="middle" x="130" y="-130.5" font-family="'Souce Sans Pro', Roboto, FreeSans, sans-serif" font-size="10.00">condition_variable</text>
</a>
</g>
</g>
<!-- Node5&#45;&gt;Node22 -->
<g id="edge52" class="edge">
<title>Node5&#45;&gt;Node22</title>
<path fill="none" stroke="midnightblue" d="M511.63,-353.35C394.43,-346.49 131.08,-323.62 80,-255 59.74,-227.79 58.21,-209.53 73,-179 79.4,-165.8 91.75,-155.3 103.33,-147.78"/>
<polygon fill="midnightblue" stroke="midnightblue" points="105.16,-150.77 111.92,-142.61 101.55,-144.77 105.16,-150.77"/>
</g>
<!-- Node25 -->
<g id="node25" class="node">
<title>Node25</title>
<g id="a_node25"><a xlink:title=" ">
<polygon fill="white" stroke="#bfbfbf" points="287.5,-179.5 287.5,-198.5 334.5,-198.5 334.5,-179.5 287.5,-179.5"/>
<text text-anchor="middle" x="311" y="-186.5" font-family="'Souce Sans Pro', Roboto, FreeSans, sans-serif" font-size="10.00">atomic</text>
</a>
</g>
</g>
<!-- Node5&#45;&gt;Node25 -->
<g id="edge51" class="edge">
<title>Node5&#45;&gt;Node25</title>
<path fill="none" stroke="midnightblue" d="M511.94,-355.02C443.05,-350.41 328.84,-330.96 276,-255 264.99,-239.17 279.01,-219.49 292.45,-205.96"/>
<polygon fill="midnightblue" stroke="midnightblue" points="295.2,-208.17 300.09,-198.78 290.41,-203.07 295.2,-208.17"/>
</g>
<!-- Node26 -->
<g id="node26" class="node">
<title>Node26</title>
<g id="a_node26"><a xlink:href="filter_8h.html" target="_top" xlink:title="This header defines Filter and all of it&#39;s subclasses.">
<polygon fill="white" stroke="black" points="473.5,-291.5 473.5,-310.5 580.5,-310.5 580.5,-291.5 473.5,-291.5"/>
<text text-anchor="middle" x="527" y="-298.5" font-family="'Souce Sans Pro', Roboto, FreeSans, sans-serif" font-size="10.00">log4cplus/spi/filter.h</text>
</a>
</g>
</g>
<!-- Node5&#45;&gt;Node26 -->
<g id="edge40" class="edge">
<title>Node5&#45;&gt;Node26</title>
<path fill="none" stroke="midnightblue" d="M561.23,-347.08C555.44,-339.46 546.94,-328.26 539.86,-318.94"/>
<polygon fill="midnightblue" stroke="midnightblue" points="542.48,-316.6 533.64,-310.75 536.9,-320.83 542.48,-316.6"/>
</g>
<!-- Node5&#45;&gt;Node28 -->
<g id="edge45" class="edge">
<title>Node5&#45;&gt;Node28</title>
<path fill="none" stroke="midnightblue" d="M511.95,-356.87C445.29,-356 331.87,-348.37 243,-311 216.08,-299.68 190.31,-277.48 174.58,-262.21"/>
<polygon fill="midnightblue" stroke="midnightblue" points="176.86,-259.54 167.32,-254.94 171.91,-264.49 176.86,-259.54"/>
</g>
<!-- Node6&#45;&gt;Node2 -->
<g id="edge7" class="edge">
<title>Node6&#45;&gt;Node2</title>
<path fill="none" stroke="midnightblue" d="M722.6,-291.23C715.3,-271.34 699.25,-221.25 705,-179 709.02,-149.49 719.34,-116.42 726.27,-96.41"/>
<polygon fill="midnightblue" stroke="midnightblue" points="729.65,-97.34 729.71,-86.75 723.06,-95 729.65,-97.34"/>
</g>
<!-- Node6&#45;&gt;Node7 -->
<g id="edge8" class="edge">
<title>Node6&#45;&gt;Node7</title>
<path fill="none" stroke="midnightblue" d="M707.46,-291.44C688.38,-282.64 658.43,-268.81 636.56,-258.72"/>
<polygon fill="midnightblue" stroke="midnightblue" points="638,-255.53 627.45,-254.52 635.07,-261.88 638,-255.53"/>
</g>
<!-- Node8 -->
<g id="node8" class="node">
<title>Node8</title>
<g id="a_node8"><a xlink:title=" ">
<polygon fill="white" stroke="#bfbfbf" points="613,-179.5 613,-198.5 657,-198.5 657,-179.5 613,-179.5"/>
<text text-anchor="middle" x="635" y="-186.5" font-family="'Souce Sans Pro', Roboto, FreeSans, sans-serif" font-size="10.00">vector</text>
</a>
</g>
</g>
<!-- Node6&#45;&gt;Node8 -->
<g id="edge27" class="edge">
<title>Node6&#45;&gt;Node8</title>
<path fill="none" stroke="midnightblue" d="M718.86,-291.37C703.71,-273.05 668.13,-230.05 648.54,-206.36"/>
<polygon fill="midnightblue" stroke="midnightblue" points="651.18,-204.07 642.11,-198.59 645.78,-208.53 651.18,-204.07"/>
</g>
<!-- Node6&#45;&gt;Node9 -->
<g id="edge21" class="edge">
<title>Node6&#45;&gt;Node9</title>
<path fill="none" stroke="midnightblue" d="M728.9,-291.37C734.9,-273.54 748.77,-232.3 756.85,-208.27"/>
<polygon fill="midnightblue" stroke="midnightblue" points="760.24,-209.19 760.11,-198.59 753.6,-206.95 760.24,-209.19"/>
</g>
<!-- Node13 -->
<g id="node13" class="node">
<title>Node13</title>
<g id="a_node13"><a xlink:href="streams_8h.html" target="_top" xlink:title=" ">
<polygon fill="white" stroke="black" points="907.5,-179.5 907.5,-198.5 1014.5,-198.5 1014.5,-179.5 907.5,-179.5"/>
<text text-anchor="middle" x="961" y="-186.5" font-family="'Souce Sans Pro', Roboto, FreeSans, sans-serif" font-size="10.00">log4cplus/streams.h</text>
</a>
</g>
</g>
<!-- Node6&#45;&gt;Node13 -->
<g id="edge17" class="edge">
<title>Node6&#45;&gt;Node13</title>
<path fill="none" stroke="midnightblue" d="M744.44,-291.37C785.54,-272.13 884.84,-225.65 933.37,-202.93"/>
<polygon fill="midnightblue" stroke="midnightblue" points="935.07,-206 942.65,-198.59 932.1,-199.66 935.07,-206"/>
</g>
<!-- Node6&#45;&gt;Node15 -->
<g id="edge22" class="edge">
<title>Node6&#45;&gt;Node15</title>
<path fill="none" stroke="midnightblue" d="M775.05,-291.97C833.33,-282.44 930.66,-266.51 994.08,-256.13"/>
<polygon fill="midnightblue" stroke="midnightblue" points="994.65,-259.59 1003.96,-254.52 993.52,-252.68 994.65,-259.59"/>
</g>
<!-- Node6&#45;&gt;Node18 -->
<g id="edge28" class="edge">
<title>Node6&#45;&gt;Node18</title>
<path fill="none" stroke="midnightblue" d="M758.96,-291.44C796.58,-281.68 857.95,-265.74 897.13,-255.57"/>
<polygon fill="midnightblue" stroke="midnightblue" points="898.03,-258.95 906.83,-253.05 896.27,-252.18 898.03,-258.95"/>
</g>
<!-- Node7&#45;&gt;Node2 -->
<g id="edge9" class="edge">
<title>Node7&#45;&gt;Node2</title>
<path fill="none" stroke="midnightblue" d="M605.66,-235.09C601.35,-222.09 595.37,-197.46 604,-179 623.92,-136.38 671.95,-106.68 703.45,-90.99"/>
<polygon fill="midnightblue" stroke="midnightblue" points="705.14,-94.05 712.64,-86.57 702.11,-87.74 705.14,-94.05"/>
</g>
<!-- Node7&#45;&gt;Node8 -->
<g id="edge10" class="edge">
<title>Node7&#45;&gt;Node8</title>
<path fill="none" stroke="midnightblue" d="M613.29,-235.08C616.85,-227.69 622.02,-216.95 626.42,-207.81"/>
<polygon fill="midnightblue" stroke="midnightblue" points="629.6,-209.28 630.79,-198.75 623.29,-206.24 629.6,-209.28"/>
</g>
<!-- Node7&#45;&gt;Node9 -->
<g id="edge11" class="edge">
<title>Node7&#45;&gt;Node9</title>
<path fill="none" stroke="midnightblue" d="M633.4,-235.44C659.2,-226.4 700.08,-212.06 729.02,-201.92"/>
<polygon fill="midnightblue" stroke="midnightblue" points="730.43,-205.13 738.71,-198.52 728.12,-198.52 730.43,-205.13"/>
</g>
<!-- Node9&#45;&gt;Node2 -->
<g id="edge12" class="edge">
<title>Node9&#45;&gt;Node2</title>
<path fill="none" stroke="midnightblue" d="M760.65,-179.37C755.78,-161.54 744.54,-120.3 737.98,-96.27"/>
<polygon fill="midnightblue" stroke="midnightblue" points="741.35,-95.32 735.34,-86.59 734.6,-97.16 741.35,-95.32"/>
</g>
<!-- Node10 -->
<g id="node10" class="node">
<title>Node10</title>
<g id="a_node10"><a xlink:title=" ">
<polygon fill="white" stroke="#bfbfbf" points="761.5,-123.5 761.5,-142.5 802.5,-142.5 802.5,-123.5 761.5,-123.5"/>
<text text-anchor="middle" x="782" y="-130.5" font-family="'Souce Sans Pro', Roboto, FreeSans, sans-serif" font-size="10.00">string</text>
</a>
</g>
</g>
<!-- Node9&#45;&gt;Node10 -->
<g id="edge13" class="edge">
<title>Node9&#45;&gt;Node10</title>
<path fill="none" stroke="midnightblue" d="M766.14,-179.08C768.68,-171.85 772.36,-161.41 775.53,-152.4"/>
<polygon fill="midnightblue" stroke="midnightblue" points="778.9,-153.35 778.92,-142.75 772.3,-151.02 778.9,-153.35"/>
</g>
<!-- Node11 -->
<g id="node11" class="node">
<title>Node11</title>
<g id="a_node11"><a xlink:href="tchar_8h.html" target="_top" xlink:title=" ">
<polygon fill="white" stroke="black" points="945.5,-123.5 945.5,-142.5 1038.5,-142.5 1038.5,-123.5 945.5,-123.5"/>
<text text-anchor="middle" x="992" y="-130.5" font-family="'Souce Sans Pro', Roboto, FreeSans, sans-serif" font-size="10.00">log4cplus/tchar.h</text>
</a>
</g>
</g>
<!-- Node9&#45;&gt;Node11 -->
<g id="edge14" class="edge">
<title>Node9&#45;&gt;Node11</title>
<path fill="none" stroke="midnightblue" d="M799.29,-179.44C838.98,-170.08 902.71,-155.06 945.91,-144.87"/>
<polygon fill="midnightblue" stroke="midnightblue" points="946.95,-148.22 955.88,-142.52 945.35,-141.41 946.95,-148.22"/>
</g>
<!-- Node11&#45;&gt;Node2 -->
<g id="edge15" class="edge">
<title>Node11&#45;&gt;Node2</title>
<path fill="none" stroke="midnightblue" d="M950.96,-123.44C905.68,-114 832.77,-98.8 783.89,-88.61"/>
<polygon fill="midnightblue" stroke="midnightblue" points="784.35,-85.13 773.85,-86.52 782.92,-91.98 784.35,-85.13"/>
</g>
<!-- Node12 -->
<g id="node12" class="node">
<title>Node12</title>
<g id="a_node12"><a xlink:title=" ">
<polygon fill="white" stroke="#bfbfbf" points="966.5,-67.5 966.5,-86.5 1017.5,-86.5 1017.5,-67.5 966.5,-67.5"/>
<text text-anchor="middle" x="992" y="-74.5" font-family="'Souce Sans Pro', Roboto, FreeSans, sans-serif" font-size="10.00">cstddef</text>
</a>
</g>
</g>
<!-- Node11&#45;&gt;Node12 -->
<g id="edge16" class="edge">
<title>Node11&#45;&gt;Node12</title>
<path fill="none" stroke="midnightblue" d="M992,-123.08C992,-116.01 992,-105.86 992,-96.99"/>
<polygon fill="midnightblue" stroke="midnightblue" points="995.5,-96.75 992,-86.75 988.5,-96.75 995.5,-96.75"/>
</g>
<!-- Node13&#45;&gt;Node2 -->
<g id="edge18" class="edge">
<title>Node13&#45;&gt;Node2</title>
<path fill="none" stroke="midnightblue" d="M954.45,-179.45C943.33,-165.55 919.38,-138.05 893,-123 863.84,-106.36 828.14,-95.55 797.86,-88.71"/>
<polygon fill="midnightblue" stroke="midnightblue" points="798.33,-85.23 787.82,-86.54 796.85,-92.07 798.33,-85.23"/>
</g>
<!-- Node13&#45;&gt;Node11 -->
<g id="edge19" class="edge">
<title>Node13&#45;&gt;Node11</title>
<path fill="none" stroke="midnightblue" d="M966.12,-179.08C970.41,-171.61 976.66,-160.72 981.94,-151.52"/>
<polygon fill="midnightblue" stroke="midnightblue" points="985.03,-153.17 986.98,-142.75 978.96,-149.68 985.03,-153.17"/>
</g>
<!-- Node14 -->
<g id="node14" class="node">
<title>Node14</title>
<g id="a_node14"><a xlink:title=" ">
<polygon fill="white" stroke="#bfbfbf" points="1076.5,-123.5 1076.5,-142.5 1123.5,-142.5 1123.5,-123.5 1076.5,-123.5"/>
<text text-anchor="middle" x="1100" y="-130.5" font-family="'Souce Sans Pro', Roboto, FreeSans, sans-serif" font-size="10.00">iosfwd</text>
</a>
</g>
</g>
<!-- Node13&#45;&gt;Node14 -->
<g id="edge20" class="edge">
<title>Node13&#45;&gt;Node14</title>
<path fill="none" stroke="midnightblue" d="M983.02,-179.44C1006.1,-170.48 1042.56,-156.31 1068.64,-146.18"/>
<polygon fill="midnightblue" stroke="midnightblue" points="1070.02,-149.4 1078.08,-142.52 1067.49,-142.88 1070.02,-149.4"/>
</g>
<!-- Node15&#45;&gt;Node2 -->
<g id="edge23" class="edge">
<title>Node15&#45;&gt;Node2</title>
<path fill="none" stroke="midnightblue" d="M984.65,-235.42C955.74,-229.09 923.48,-218.1 899,-199 868.23,-174.99 884.86,-148.13 855,-123 835.74,-106.79 810.12,-96.16 787.32,-89.33"/>
<polygon fill="midnightblue" stroke="midnightblue" points="787.99,-85.89 777.42,-86.54 786.1,-92.62 787.99,-85.89"/>
</g>
<!-- Node15&#45;&gt;Node9 -->
<g id="edge24" class="edge">
<title>Node15&#45;&gt;Node9</title>
<path fill="none" stroke="midnightblue" d="M1009.57,-235.44C957.92,-225.92 874.49,-210.55 819.19,-200.36"/>
<polygon fill="midnightblue" stroke="midnightblue" points="819.68,-196.89 809.21,-198.52 818.41,-203.77 819.68,-196.89"/>
</g>
<!-- Node16 -->
<g id="node16" class="node">
<title>Node16</title>
<g id="a_node16"><a xlink:title=" ">
<polygon fill="white" stroke="#bfbfbf" points="1097.5,-179.5 1097.5,-198.5 1138.5,-198.5 1138.5,-179.5 1097.5,-179.5"/>
<text text-anchor="middle" x="1118" y="-186.5" font-family="'Souce Sans Pro', Roboto, FreeSans, sans-serif" font-size="10.00">ctime</text>
</a>
</g>
</g>
<!-- Node15&#45;&gt;Node16 -->
<g id="edge25" class="edge">
<title>Node15&#45;&gt;Node16</title>
<path fill="none" stroke="midnightblue" d="M1065.96,-235.32C1075.13,-227.34 1088.94,-215.31 1100.03,-205.65"/>
<polygon fill="midnightblue" stroke="midnightblue" points="1102.62,-208.04 1107.86,-198.83 1098.02,-202.76 1102.62,-208.04"/>
</g>
<!-- Node17 -->
<g id="node17" class="node">
<title>Node17</title>
<g id="a_node17"><a xlink:title=" ">
<polygon fill="white" stroke="#bfbfbf" points="1032.5,-179.5 1032.5,-198.5 1079.5,-198.5 1079.5,-179.5 1032.5,-179.5"/>
<text text-anchor="middle" x="1056" y="-186.5" font-family="'Souce Sans Pro', Roboto, FreeSans, sans-serif" font-size="10.00">chrono</text>
</a>
</g>
</g>
<!-- Node15&#45;&gt;Node17 -->
<g id="edge26" class="edge">
<title>Node15&#45;&gt;Node17</title>
<path fill="none" stroke="midnightblue" d="M1056,-235.08C1056,-228.01 1056,-217.86 1056,-208.99"/>
<polygon fill="midnightblue" stroke="midnightblue" points="1059.5,-208.75 1056,-198.75 1052.5,-208.75 1059.5,-208.75"/>
</g>
<!-- Node19&#45;&gt;Node2 -->
<g id="edge32" class="edge">
<title>Node19&#45;&gt;Node2</title>
<path fill="none" stroke="midnightblue" d="M408.84,-235.43C435.62,-229.02 466.94,-217.94 490,-199 519.99,-174.36 501.84,-146.13 533,-123 571.94,-94.09 626.09,-83.21 668.23,-79.35"/>
<polygon fill="midnightblue" stroke="midnightblue" points="668.7,-82.83 678.39,-78.54 668.14,-75.85 668.7,-82.83"/>
</g>
<!-- Node20 -->
<g id="node20" class="node">
<title>Node20</title>
<g id="a_node20"><a xlink:href="syncprims_8h.html" target="_top" xlink:title=" ">
<polygon fill="white" stroke="black" points="82.5,-179.5 82.5,-198.5 231.5,-198.5 231.5,-179.5 82.5,-179.5"/>
<text text-anchor="middle" x="157" y="-186.5" font-family="'Souce Sans Pro', Roboto, FreeSans, sans-serif" font-size="10.00">log4cplus/thread/syncprims.h</text>
</a>
</g>
</g>
<!-- Node19&#45;&gt;Node20 -->
<g id="edge33" class="edge">
<title>Node19&#45;&gt;Node20</title>
<path fill="none" stroke="midnightblue" d="M322.78,-235.44C289.07,-226.2 235.2,-211.44 198.07,-201.26"/>
<polygon fill="midnightblue" stroke="midnightblue" points="198.64,-197.78 188.07,-198.52 196.79,-204.54 198.64,-197.78"/>
</g>
<!-- Node23 -->
<g id="node23" class="node">
<title>Node23</title>
<g id="a_node23"><a xlink:title=" ">
<polygon fill="white" stroke="#bfbfbf" points="421.5,-179.5 421.5,-198.5 480.5,-198.5 480.5,-179.5 421.5,-179.5"/>
<text text-anchor="middle" x="451" y="-186.5" font-family="'Souce Sans Pro', Roboto, FreeSans, sans-serif" font-size="10.00">algorithm</text>
</a>
</g>
</g>
<!-- Node19&#45;&gt;Node23 -->
<g id="edge37" class="edge">
<title>Node19&#45;&gt;Node23</title>
<path fill="none" stroke="midnightblue" d="M369.58,-235.32C385,-226.74 408.81,-213.49 426.71,-203.52"/>
<polygon fill="midnightblue" stroke="midnightblue" points="428.42,-206.58 435.45,-198.65 425.01,-200.46 428.42,-206.58"/>
</g>
<!-- Node24 -->
<g id="node24" class="node">
<title>Node24</title>
<g id="a_node24"><a xlink:title=" ">
<polygon fill="white" stroke="#bfbfbf" points="353,-179.5 353,-198.5 403,-198.5 403,-179.5 353,-179.5"/>
<text text-anchor="middle" x="378" y="-186.5" font-family="'Souce Sans Pro', Roboto, FreeSans, sans-serif" font-size="10.00">cassert</text>
</a>
</g>
</g>
<!-- Node19&#45;&gt;Node24 -->
<g id="edge38" class="edge">
<title>Node19&#45;&gt;Node24</title>
<path fill="none" stroke="midnightblue" d="M357.96,-235.08C361.21,-227.77 365.92,-217.18 369.95,-208.1"/>
<polygon fill="midnightblue" stroke="midnightblue" points="373.25,-209.31 374.11,-198.75 366.85,-206.47 373.25,-209.31"/>
</g>
<!-- Node19&#45;&gt;Node25 -->
<g id="edge39" class="edge">
<title>Node19&#45;&gt;Node25</title>
<path fill="none" stroke="midnightblue" d="M346.9,-235.08C340.76,-227.38 331.73,-216.03 324.26,-206.65"/>
<polygon fill="midnightblue" stroke="midnightblue" points="326.94,-204.39 317.97,-198.75 321.46,-208.75 326.94,-204.39"/>
</g>
<!-- Node20&#45;&gt;Node2 -->
<g id="edge34" class="edge">
<title>Node20&#45;&gt;Node2</title>
<path fill="none" stroke="midnightblue" d="M165.27,-179.37C179.81,-164.81 211.63,-135.71 245,-123 320.73,-94.14 553.98,-83.31 668.38,-79.66"/>
<polygon fill="midnightblue" stroke="midnightblue" points="668.52,-83.16 678.41,-79.35 668.3,-76.16 668.52,-83.16"/>
</g>
<!-- Node20&#45;&gt;Node21 -->
<g id="edge35" class="edge">
<title>Node20&#45;&gt;Node21</title>
<path fill="none" stroke="midnightblue" d="M135.61,-179.44C113.29,-170.52 78.1,-156.44 52.79,-146.32"/>
<polygon fill="midnightblue" stroke="midnightblue" points="53.88,-142.98 43.29,-142.52 51.28,-149.48 53.88,-142.98"/>
</g>
<!-- Node20&#45;&gt;Node22 -->
<g id="edge36" class="edge">
<title>Node20&#45;&gt;Node22</title>
<path fill="none" stroke="midnightblue" d="M152.54,-179.08C148.85,-171.69 143.48,-160.95 138.91,-151.81"/>
<polygon fill="midnightblue" stroke="midnightblue" points="141.98,-150.13 134.38,-142.75 135.72,-153.26 141.98,-150.13"/>
</g>
<!-- Node26&#45;&gt;Node2 -->
<g id="edge41" class="edge">
<title>Node26&#45;&gt;Node2</title>
<path fill="none" stroke="midnightblue" d="M528.93,-291.26C531.95,-278.47 538.46,-254.1 548,-235 575.23,-180.51 579.6,-161.25 627,-123 645.8,-107.83 670.48,-96.95 691.29,-89.7"/>
<polygon fill="midnightblue" stroke="midnightblue" points="692.46,-92.99 700.85,-86.52 690.25,-86.35 692.46,-92.99"/>
</g>
<!-- Node26&#45;&gt;Node7 -->
<g id="edge44" class="edge">
<title>Node26&#45;&gt;Node7</title>
<path fill="none" stroke="midnightblue" d="M540.17,-291.32C552.85,-282.98 572.23,-270.21 587.21,-260.35"/>
<polygon fill="midnightblue" stroke="midnightblue" points="589.43,-263.08 595.86,-254.65 585.58,-257.23 589.43,-263.08"/>
</g>
<!-- Node26&#45;&gt;Node19 -->
<g id="edge43" class="edge">
<title>Node26&#45;&gt;Node19</title>
<path fill="none" stroke="midnightblue" d="M499.59,-291.44C470.23,-282.28 423.48,-267.69 390.9,-257.52"/>
<polygon fill="midnightblue" stroke="midnightblue" points="391.87,-254.16 381.28,-254.52 389.79,-260.84 391.87,-254.16"/>
</g>
<!-- Node27 -->
<g id="node27" class="node">
<title>Node27</title>
<g id="a_node27"><a xlink:title=" ">
<polygon fill="white" stroke="#bfbfbf" points="441,-235.5 441,-254.5 501,-254.5 501,-235.5 441,-235.5"/>
<text text-anchor="middle" x="471" y="-242.5" font-family="'Souce Sans Pro', Roboto, FreeSans, sans-serif" font-size="10.00">functional</text>
</a>
</g>
</g>
<!-- Node26&#45;&gt;Node27 -->
<g id="edge42" class="edge">
<title>Node26&#45;&gt;Node27</title>
<path fill="none" stroke="midnightblue" d="M518,-291.32C509.81,-283.42 497.49,-271.55 487.53,-261.94"/>
<polygon fill="midnightblue" stroke="midnightblue" points="489.79,-259.26 480.16,-254.83 484.93,-264.29 489.79,-259.26"/>
</g>
<!-- Node28&#45;&gt;Node2 -->
<g id="edge46" class="edge">
<title>Node28&#45;&gt;Node2</title>
<path fill="none" stroke="midnightblue" d="M174.66,-235.3C205.72,-218.07 272.62,-181.07 278,-179 411.79,-127.5 578.33,-98.91 668.2,-86.18"/>
<polygon fill="midnightblue" stroke="midnightblue" points="668.82,-89.63 678.24,-84.78 667.86,-82.7 668.82,-89.63"/>
</g>
<!-- Node28&#45;&gt;Node9 -->
<g id="edge47" class="edge">
<title>Node28&#45;&gt;Node9</title>
<path fill="none" stroke="midnightblue" d="M229.13,-237.86C326.98,-229.28 510.01,-213.16 666,-199 677.97,-197.91 690.78,-196.74 703.03,-195.6"/>
<polygon fill="midnightblue" stroke="midnightblue" points="703.52,-199.07 713.16,-194.66 702.88,-192.1 703.52,-199.07"/>
</g>
<!-- Node28&#45;&gt;Node20 -->
<g id="edge48" class="edge">
<title>Node28&#45;&gt;Node20</title>
<path fill="none" stroke="midnightblue" d="M158.67,-235.08C158.41,-228.01 158.03,-217.86 157.7,-208.99"/>
<polygon fill="midnightblue" stroke="midnightblue" points="161.19,-208.61 157.32,-198.75 154.2,-208.87 161.19,-208.61"/>
</g>
<!-- Node29&#45;&gt;Node2 -->
<g id="edge54" class="edge">
<title>Node29&#45;&gt;Node2</title>
<path fill="none" stroke="midnightblue" d="M1204.75,-179.43C1191.94,-164.97 1163.75,-136.01 1133,-123 1074.1,-98.08 894.97,-85.79 797.63,-80.81"/>
<polygon fill="midnightblue" stroke="midnightblue" points="797.77,-77.31 787.61,-80.31 797.42,-84.3 797.77,-77.31"/>
</g>
<!-- Node29&#45;&gt;Node11 -->
<g id="edge55" class="edge">
<title>Node29&#45;&gt;Node11</title>
<path fill="none" stroke="midnightblue" d="M1177.14,-179.44C1139.08,-170.1 1078.04,-155.12 1036.54,-144.93"/>
<polygon fill="midnightblue" stroke="midnightblue" points="1037.24,-141.5 1026.7,-142.52 1035.57,-148.3 1037.24,-141.5"/>
</g>
<!-- Node29&#45;&gt;Node14 -->
<g id="edge56" class="edge">
<title>Node29&#45;&gt;Node14</title>
<path fill="none" stroke="midnightblue" d="M1194.01,-179.32C1175.96,-170.62 1147.95,-157.12 1127.2,-147.11"/>
<polygon fill="midnightblue" stroke="midnightblue" points="1128.48,-143.84 1117.95,-142.65 1125.44,-150.15 1128.48,-143.84"/>
</g>
</g>
</svg>
