<?xml version="1.0" encoding="UTF-8" standalone="no"?>
<!DOCTYPE svg PUBLIC "-//W3C//DTD SVG 1.1//EN"
 "http://www.w3.org/Graphics/SVG/1.1/DTD/svg11.dtd">
<!-- Generated by graphviz version 2.43.0 (0)
 -->
<!-- Title: socket.h Pages: 1 -->
<svg width="327pt" height="319pt"
 viewBox="0.00 0.00 326.50 319.00" xmlns="http://www.w3.org/2000/svg" xmlns:xlink="http://www.w3.org/1999/xlink">
<g id="graph0" class="graph" transform="scale(1 1) rotate(0) translate(4 315)">
<title>socket.h</title>
<polygon fill="white" stroke="transparent" points="-4,4 -4,-315 322.5,-315 322.5,4 -4,4"/>
<!-- Node1 -->
<g id="node1" class="node">
<title>Node1</title>
<g id="a_node1"><a xlink:title=" ">
<polygon fill="#bfbfbf" stroke="black" points="162.5,-291.5 162.5,-310.5 217.5,-310.5 217.5,-291.5 162.5,-291.5"/>
<text text-anchor="middle" x="190" y="-298.5" font-family="'Souce Sans Pro', Roboto, FreeSans, sans-serif" font-size="10.00">socket.h</text>
</a>
</g>
</g>
<!-- Node2 -->
<g id="node2" class="node">
<title>Node2</title>
<g id="a_node2"><a xlink:href="config_8hxx.html" target="_top" xlink:title=" ">
<polygon fill="white" stroke="black" points="82.5,-67.5 82.5,-86.5 191.5,-86.5 191.5,-67.5 82.5,-67.5"/>
<text text-anchor="middle" x="137" y="-74.5" font-family="'Souce Sans Pro', Roboto, FreeSans, sans-serif" font-size="10.00">log4cplus/config.hxx</text>
</a>
</g>
</g>
<!-- Node1&#45;&gt;Node2 -->
<g id="edge1" class="edge">
<title>Node1&#45;&gt;Node2</title>
<path fill="none" stroke="midnightblue" d="M162.21,-300.51C128.02,-299.45 71.17,-291.81 44,-255 3.37,-199.96 80.43,-124.75 118.04,-93.06"/>
<polygon fill="midnightblue" stroke="midnightblue" points="120.34,-95.7 125.83,-86.64 115.89,-90.3 120.34,-95.7"/>
</g>
<!-- Node5 -->
<g id="node5" class="node">
<title>Node5</title>
<g id="a_node5"><a xlink:title=" ">
<polygon fill="white" stroke="#bfbfbf" points="273,-235.5 273,-254.5 311,-254.5 311,-235.5 273,-235.5"/>
<text text-anchor="middle" x="292" y="-242.5" font-family="'Souce Sans Pro', Roboto, FreeSans, sans-serif" font-size="10.00">array</text>
</a>
</g>
</g>
<!-- Node1&#45;&gt;Node5 -->
<g id="edge4" class="edge">
<title>Node1&#45;&gt;Node5</title>
<path fill="none" stroke="midnightblue" d="M206.39,-291.32C222.67,-282.7 247.87,-269.36 266.72,-259.39"/>
<polygon fill="midnightblue" stroke="midnightblue" points="268.45,-262.43 275.65,-254.65 265.18,-256.24 268.45,-262.43"/>
</g>
<!-- Node6 -->
<g id="node6" class="node">
<title>Node6</title>
<g id="a_node6"><a xlink:href="tstring_8h.html" target="_top" xlink:title=" ">
<polygon fill="white" stroke="black" points="147.5,-179.5 147.5,-198.5 246.5,-198.5 246.5,-179.5 147.5,-179.5"/>
<text text-anchor="middle" x="197" y="-186.5" font-family="'Souce Sans Pro', Roboto, FreeSans, sans-serif" font-size="10.00">log4cplus/tstring.h</text>
</a>
</g>
</g>
<!-- Node1&#45;&gt;Node6 -->
<g id="edge5" class="edge">
<title>Node1&#45;&gt;Node6</title>
<path fill="none" stroke="midnightblue" d="M200.16,-291.19C208.91,-282.87 220.9,-269.54 226,-255 231.92,-238.14 221.89,-219.58 212.05,-206.63"/>
<polygon fill="midnightblue" stroke="midnightblue" points="214.53,-204.13 205.46,-198.65 209.13,-208.59 214.53,-204.13"/>
</g>
<!-- Node10 -->
<g id="node10" class="node">
<title>Node10</title>
<g id="a_node10"><a xlink:href="socketbuffer_8h.html" target="_top" xlink:title=" ">
<polygon fill="white" stroke="black" points="53,-235.5 53,-254.5 217,-254.5 217,-235.5 53,-235.5"/>
<text text-anchor="middle" x="135" y="-242.5" font-family="'Souce Sans Pro', Roboto, FreeSans, sans-serif" font-size="10.00">log4cplus/helpers/socketbuffer.h</text>
</a>
</g>
</g>
<!-- Node1&#45;&gt;Node10 -->
<g id="edge11" class="edge">
<title>Node1&#45;&gt;Node10</title>
<path fill="none" stroke="midnightblue" d="M180.92,-291.08C172.83,-283.14 160.8,-271.34 151.09,-261.8"/>
<polygon fill="midnightblue" stroke="midnightblue" points="153.5,-259.26 143.91,-254.75 148.6,-264.25 153.5,-259.26"/>
</g>
<!-- Node3 -->
<g id="node3" class="node">
<title>Node3</title>
<g id="a_node3"><a xlink:href="win32_8h.html" target="_top" xlink:title=" ">
<polygon fill="white" stroke="black" points="0,-6 0,-25 128,-25 128,-6 0,-6"/>
<text text-anchor="middle" x="64" y="-13" font-family="'Souce Sans Pro', Roboto, FreeSans, sans-serif" font-size="10.00">log4cplus/config/win32.h</text>
</a>
</g>
</g>
<!-- Node2&#45;&gt;Node3 -->
<g id="edge2" class="edge">
<title>Node2&#45;&gt;Node3</title>
<path fill="none" stroke="midnightblue" d="M126.54,-67.48C115.05,-58.11 96.37,-42.88 82.41,-31.51"/>
<polygon fill="midnightblue" stroke="midnightblue" points="84.4,-28.61 74.44,-25.01 79.98,-34.04 84.4,-28.61"/>
</g>
<!-- Node4 -->
<g id="node4" class="node">
<title>Node4</title>
<g id="a_node4"><a xlink:href="thread-config_8h.html" target="_top" xlink:title=" ">
<polygon fill="white" stroke="black" points="146,-0.5 146,-30.5 274,-30.5 274,-0.5 146,-0.5"/>
<text text-anchor="start" x="154" y="-18.5" font-family="'Souce Sans Pro', Roboto, FreeSans, sans-serif" font-size="10.00">log4cplus/helpers/thread</text>
<text text-anchor="middle" x="210" y="-7.5" font-family="'Souce Sans Pro', Roboto, FreeSans, sans-serif" font-size="10.00">&#45;config.h</text>
</a>
</g>
</g>
<!-- Node2&#45;&gt;Node4 -->
<g id="edge3" class="edge">
<title>Node2&#45;&gt;Node4</title>
<path fill="none" stroke="midnightblue" d="M147.46,-67.48C157.16,-59.57 171.99,-47.48 184.77,-37.07"/>
<polygon fill="midnightblue" stroke="midnightblue" points="187.26,-39.55 192.8,-30.52 182.83,-34.13 187.26,-39.55"/>
</g>
<!-- Node6&#45;&gt;Node2 -->
<g id="edge6" class="edge">
<title>Node6&#45;&gt;Node2</title>
<path fill="none" stroke="midnightblue" d="M195.71,-179.09C193.55,-166.09 188.36,-141.45 178,-123 171.88,-112.11 162.67,-101.68 154.53,-93.61"/>
<polygon fill="midnightblue" stroke="midnightblue" points="156.85,-90.99 147.19,-86.65 152.04,-96.07 156.85,-90.99"/>
</g>
<!-- Node7 -->
<g id="node7" class="node">
<title>Node7</title>
<g id="a_node7"><a xlink:title=" ">
<polygon fill="white" stroke="#bfbfbf" points="127.5,-123.5 127.5,-142.5 168.5,-142.5 168.5,-123.5 127.5,-123.5"/>
<text text-anchor="middle" x="148" y="-130.5" font-family="'Souce Sans Pro', Roboto, FreeSans, sans-serif" font-size="10.00">string</text>
</a>
</g>
</g>
<!-- Node6&#45;&gt;Node7 -->
<g id="edge7" class="edge">
<title>Node6&#45;&gt;Node7</title>
<path fill="none" stroke="midnightblue" d="M188.91,-179.08C181.84,-171.3 171.41,-159.8 162.85,-150.37"/>
<polygon fill="midnightblue" stroke="midnightblue" points="165.25,-147.8 155.94,-142.75 160.07,-152.51 165.25,-147.8"/>
</g>
<!-- Node8 -->
<g id="node8" class="node">
<title>Node8</title>
<g id="a_node8"><a xlink:href="tchar_8h.html" target="_top" xlink:title=" ">
<polygon fill="white" stroke="black" points="225.5,-123.5 225.5,-142.5 318.5,-142.5 318.5,-123.5 225.5,-123.5"/>
<text text-anchor="middle" x="272" y="-130.5" font-family="'Souce Sans Pro', Roboto, FreeSans, sans-serif" font-size="10.00">log4cplus/tchar.h</text>
</a>
</g>
</g>
<!-- Node6&#45;&gt;Node8 -->
<g id="edge8" class="edge">
<title>Node6&#45;&gt;Node8</title>
<path fill="none" stroke="midnightblue" d="M209.05,-179.32C220.46,-171.11 237.83,-158.6 251.43,-148.81"/>
<polygon fill="midnightblue" stroke="midnightblue" points="253.66,-151.52 259.73,-142.83 249.57,-145.84 253.66,-151.52"/>
</g>
<!-- Node8&#45;&gt;Node2 -->
<g id="edge9" class="edge">
<title>Node8&#45;&gt;Node2</title>
<path fill="none" stroke="midnightblue" d="M250.61,-123.44C228.29,-114.52 193.1,-100.44 167.79,-90.32"/>
<polygon fill="midnightblue" stroke="midnightblue" points="168.88,-86.98 158.29,-86.52 166.28,-93.48 168.88,-86.98"/>
</g>
<!-- Node9 -->
<g id="node9" class="node">
<title>Node9</title>
<g id="a_node9"><a xlink:title=" ">
<polygon fill="white" stroke="#bfbfbf" points="246.5,-67.5 246.5,-86.5 297.5,-86.5 297.5,-67.5 246.5,-67.5"/>
<text text-anchor="middle" x="272" y="-74.5" font-family="'Souce Sans Pro', Roboto, FreeSans, sans-serif" font-size="10.00">cstddef</text>
</a>
</g>
</g>
<!-- Node8&#45;&gt;Node9 -->
<g id="edge10" class="edge">
<title>Node8&#45;&gt;Node9</title>
<path fill="none" stroke="midnightblue" d="M272,-123.08C272,-116.01 272,-105.86 272,-96.99"/>
<polygon fill="midnightblue" stroke="midnightblue" points="275.5,-96.75 272,-86.75 268.5,-96.75 275.5,-96.75"/>
</g>
<!-- Node10&#45;&gt;Node2 -->
<g id="edge12" class="edge">
<title>Node10&#45;&gt;Node2</title>
<path fill="none" stroke="midnightblue" d="M131.81,-235.43C124.84,-215.55 109.54,-164.79 118,-123 119.89,-113.65 123.79,-103.83 127.57,-95.75"/>
<polygon fill="midnightblue" stroke="midnightblue" points="130.79,-97.14 132.12,-86.63 124.53,-94.01 130.79,-97.14"/>
</g>
<!-- Node10&#45;&gt;Node6 -->
<g id="edge13" class="edge">
<title>Node10&#45;&gt;Node6</title>
<path fill="none" stroke="midnightblue" d="M144.96,-235.32C154.13,-227.34 167.94,-215.31 179.03,-205.65"/>
<polygon fill="midnightblue" stroke="midnightblue" points="181.62,-208.04 186.86,-198.83 177.02,-202.76 181.62,-208.04"/>
</g>
</g>
</svg>
