<?xml version="1.0" encoding="UTF-8" standalone="no"?>
<!DOCTYPE svg PUBLIC "-//W3C//DTD SVG 1.1//EN"
 "http://www.w3.org/Graphics/SVG/1.1/DTD/svg11.dtd">
<!-- Generated by graphviz version 2.43.0 (0)
 -->
<!-- Title: hierarchylocker.h Pages: 1 -->
<svg width="1563pt" height="543pt"
 viewBox="0.00 0.00 1563.27 543.00" xmlns="http://www.w3.org/2000/svg" xmlns:xlink="http://www.w3.org/1999/xlink">
<g id="graph0" class="graph" transform="scale(1 1) rotate(0) translate(4 539)">
<title>hierarchylocker.h</title>
<polygon fill="white" stroke="transparent" points="-4,4 -4,-539 1559.27,-539 1559.27,4 -4,4"/>
<!-- Node1 -->
<g id="node1" class="node">
<title>Node1</title>
<g id="a_node1"><a xlink:title=" ">
<polygon fill="#bfbfbf" stroke="black" points="641.77,-515.5 641.77,-534.5 732.77,-534.5 732.77,-515.5 641.77,-515.5"/>
<text text-anchor="middle" x="687.27" y="-522.5" font-family="'Souce Sans Pro', Roboto, FreeSans, sans-serif" font-size="10.00">hierarchylocker.h</text>
</a>
</g>
</g>
<!-- Node2 -->
<g id="node2" class="node">
<title>Node2</title>
<g id="a_node2"><a xlink:href="config_8hxx.html" target="_top" xlink:title=" ">
<polygon fill="white" stroke="black" points="662.77,-67.5 662.77,-86.5 771.77,-86.5 771.77,-67.5 662.77,-67.5"/>
<text text-anchor="middle" x="717.27" y="-74.5" font-family="'Souce Sans Pro', Roboto, FreeSans, sans-serif" font-size="10.00">log4cplus/config.hxx</text>
</a>
</g>
</g>
<!-- Node1&#45;&gt;Node2 -->
<g id="edge1" class="edge">
<title>Node1&#45;&gt;Node2</title>
<path fill="none" stroke="midnightblue" d="M733.02,-523.06C912.04,-518.81 1555.27,-497.69 1555.27,-414 1555.27,-414 1555.27,-414 1555.27,-188 1555.27,-128.51 1495.36,-139.71 1438.27,-123 1316.27,-87.29 935.38,-79.92 782.12,-78.4"/>
<polygon fill="midnightblue" stroke="midnightblue" points="781.95,-74.89 771.92,-78.3 781.88,-81.89 781.95,-74.89"/>
</g>
<!-- Node5 -->
<g id="node5" class="node">
<title>Node5</title>
<g id="a_node5"><a xlink:href="tstring_8h.html" target="_top" xlink:title=" ">
<polygon fill="white" stroke="black" points="325.77,-179.5 325.77,-198.5 424.77,-198.5 424.77,-179.5 325.77,-179.5"/>
<text text-anchor="middle" x="375.27" y="-186.5" font-family="'Souce Sans Pro', Roboto, FreeSans, sans-serif" font-size="10.00">log4cplus/tstring.h</text>
</a>
</g>
</g>
<!-- Node1&#45;&gt;Node5 -->
<g id="edge4" class="edge">
<title>Node1&#45;&gt;Node5</title>
<path fill="none" stroke="midnightblue" d="M641.57,-524.28C511.95,-523.87 151.27,-513.74 151.27,-414 151.27,-414 151.27,-414 151.27,-356 151.27,-267.6 265.27,-220.85 330.61,-201.31"/>
<polygon fill="midnightblue" stroke="midnightblue" points="331.64,-204.66 340.27,-198.51 329.69,-197.93 331.64,-204.66"/>
</g>
<!-- Node9 -->
<g id="node9" class="node">
<title>Node9</title>
<g id="a_node9"><a xlink:href="appender_8h.html" target="_top" xlink:title=" ">
<polygon fill="white" stroke="black" points="939.27,-347.5 939.27,-366.5 1051.27,-366.5 1051.27,-347.5 939.27,-347.5"/>
<text text-anchor="middle" x="995.27" y="-354.5" font-family="'Souce Sans Pro', Roboto, FreeSans, sans-serif" font-size="10.00">log4cplus/appender.h</text>
</a>
</g>
</g>
<!-- Node1&#45;&gt;Node9 -->
<g id="edge10" class="edge">
<title>Node1&#45;&gt;Node9</title>
<path fill="none" stroke="midnightblue" d="M703.4,-515.31C753.92,-488.08 909.38,-404.29 970.36,-371.43"/>
<polygon fill="midnightblue" stroke="midnightblue" points="972.16,-374.43 979.31,-366.61 968.84,-368.27 972.16,-374.43"/>
</g>
<!-- Node29 -->
<g id="node29" class="node">
<title>Node29</title>
<g id="a_node29"><a xlink:href="logger_8h.html" target="_top" xlink:title="This header defines the Logger class and the logging macros.">
<polygon fill="white" stroke="black" points="331.27,-459.5 331.27,-478.5 429.27,-478.5 429.27,-459.5 331.27,-459.5"/>
<text text-anchor="middle" x="380.27" y="-466.5" font-family="'Souce Sans Pro', Roboto, FreeSans, sans-serif" font-size="10.00">log4cplus/logger.h</text>
</a>
</g>
</g>
<!-- Node1&#45;&gt;Node29 -->
<g id="edge54" class="edge">
<title>Node1&#45;&gt;Node29</title>
<path fill="none" stroke="midnightblue" d="M641.64,-515.97C587.64,-506.48 497.62,-490.64 438.61,-480.26"/>
<polygon fill="midnightblue" stroke="midnightblue" points="439.14,-476.8 428.69,-478.52 437.93,-483.7 439.14,-476.8"/>
</g>
<!-- Node3 -->
<g id="node3" class="node">
<title>Node3</title>
<g id="a_node3"><a xlink:href="win32_8h.html" target="_top" xlink:title=" ">
<polygon fill="white" stroke="black" points="580.27,-6 580.27,-25 708.27,-25 708.27,-6 580.27,-6"/>
<text text-anchor="middle" x="644.27" y="-13" font-family="'Souce Sans Pro', Roboto, FreeSans, sans-serif" font-size="10.00">log4cplus/config/win32.h</text>
</a>
</g>
</g>
<!-- Node2&#45;&gt;Node3 -->
<g id="edge2" class="edge">
<title>Node2&#45;&gt;Node3</title>
<path fill="none" stroke="midnightblue" d="M706.81,-67.48C695.32,-58.11 676.64,-42.88 662.68,-31.51"/>
<polygon fill="midnightblue" stroke="midnightblue" points="664.67,-28.61 654.71,-25.01 660.25,-34.04 664.67,-28.61"/>
</g>
<!-- Node4 -->
<g id="node4" class="node">
<title>Node4</title>
<g id="a_node4"><a xlink:href="thread-config_8h.html" target="_top" xlink:title=" ">
<polygon fill="white" stroke="black" points="726.27,-0.5 726.27,-30.5 854.27,-30.5 854.27,-0.5 726.27,-0.5"/>
<text text-anchor="start" x="734.27" y="-18.5" font-family="'Souce Sans Pro', Roboto, FreeSans, sans-serif" font-size="10.00">log4cplus/helpers/thread</text>
<text text-anchor="middle" x="790.27" y="-7.5" font-family="'Souce Sans Pro', Roboto, FreeSans, sans-serif" font-size="10.00">&#45;config.h</text>
</a>
</g>
</g>
<!-- Node2&#45;&gt;Node4 -->
<g id="edge3" class="edge">
<title>Node2&#45;&gt;Node4</title>
<path fill="none" stroke="midnightblue" d="M727.73,-67.48C737.43,-59.57 752.26,-47.48 765.04,-37.07"/>
<polygon fill="midnightblue" stroke="midnightblue" points="767.53,-39.55 773.07,-30.52 763.1,-34.13 767.53,-39.55"/>
</g>
<!-- Node5&#45;&gt;Node2 -->
<g id="edge5" class="edge">
<title>Node5&#45;&gt;Node2</title>
<path fill="none" stroke="midnightblue" d="M376.9,-179.16C380.03,-164.84 388.35,-136.76 407.27,-123 445.26,-95.37 573.13,-84.54 652.29,-80.42"/>
<polygon fill="midnightblue" stroke="midnightblue" points="652.83,-83.89 662.64,-79.9 652.48,-76.9 652.83,-83.89"/>
</g>
<!-- Node6 -->
<g id="node6" class="node">
<title>Node6</title>
<g id="a_node6"><a xlink:title=" ">
<polygon fill="white" stroke="#bfbfbf" points="317.77,-123.5 317.77,-142.5 358.77,-142.5 358.77,-123.5 317.77,-123.5"/>
<text text-anchor="middle" x="338.27" y="-130.5" font-family="'Souce Sans Pro', Roboto, FreeSans, sans-serif" font-size="10.00">string</text>
</a>
</g>
</g>
<!-- Node5&#45;&gt;Node6 -->
<g id="edge6" class="edge">
<title>Node5&#45;&gt;Node6</title>
<path fill="none" stroke="midnightblue" d="M369.16,-179.08C363.99,-171.53 356.43,-160.49 350.08,-151.23"/>
<polygon fill="midnightblue" stroke="midnightblue" points="352.81,-149.02 344.27,-142.75 347.03,-152.98 352.81,-149.02"/>
</g>
<!-- Node7 -->
<g id="node7" class="node">
<title>Node7</title>
<g id="a_node7"><a xlink:href="tchar_8h.html" target="_top" xlink:title=" ">
<polygon fill="white" stroke="black" points="415.77,-123.5 415.77,-142.5 508.77,-142.5 508.77,-123.5 415.77,-123.5"/>
<text text-anchor="middle" x="462.27" y="-130.5" font-family="'Souce Sans Pro', Roboto, FreeSans, sans-serif" font-size="10.00">log4cplus/tchar.h</text>
</a>
</g>
</g>
<!-- Node5&#45;&gt;Node7 -->
<g id="edge7" class="edge">
<title>Node5&#45;&gt;Node7</title>
<path fill="none" stroke="midnightblue" d="M389.25,-179.32C402.82,-170.9 423.65,-157.97 439.6,-148.07"/>
<polygon fill="midnightblue" stroke="midnightblue" points="441.68,-150.9 448.33,-142.65 437.99,-144.95 441.68,-150.9"/>
</g>
<!-- Node7&#45;&gt;Node2 -->
<g id="edge8" class="edge">
<title>Node7&#45;&gt;Node2</title>
<path fill="none" stroke="midnightblue" d="M502.68,-123.44C547.25,-114 619.04,-98.8 667.16,-88.61"/>
<polygon fill="midnightblue" stroke="midnightblue" points="668,-92.01 677.05,-86.52 666.55,-85.16 668,-92.01"/>
</g>
<!-- Node8 -->
<g id="node8" class="node">
<title>Node8</title>
<g id="a_node8"><a xlink:title=" ">
<polygon fill="white" stroke="#bfbfbf" points="436.77,-67.5 436.77,-86.5 487.77,-86.5 487.77,-67.5 436.77,-67.5"/>
<text text-anchor="middle" x="462.27" y="-74.5" font-family="'Souce Sans Pro', Roboto, FreeSans, sans-serif" font-size="10.00">cstddef</text>
</a>
</g>
</g>
<!-- Node7&#45;&gt;Node8 -->
<g id="edge9" class="edge">
<title>Node7&#45;&gt;Node8</title>
<path fill="none" stroke="midnightblue" d="M462.27,-123.08C462.27,-116.01 462.27,-105.86 462.27,-96.99"/>
<polygon fill="midnightblue" stroke="midnightblue" points="465.77,-96.75 462.27,-86.75 458.77,-96.75 465.77,-96.75"/>
</g>
<!-- Node9&#45;&gt;Node2 -->
<g id="edge11" class="edge">
<title>Node9&#45;&gt;Node2</title>
<path fill="none" stroke="midnightblue" d="M1051.74,-354.97C1179.41,-351.11 1479.27,-332.82 1479.27,-246 1479.27,-246 1479.27,-246 1479.27,-188 1479.27,-117.82 966.37,-88.75 782.16,-80.58"/>
<polygon fill="midnightblue" stroke="midnightblue" points="782.22,-77.08 772.07,-80.14 781.91,-84.07 782.22,-77.08"/>
</g>
<!-- Node9&#45;&gt;Node5 -->
<g id="edge31" class="edge">
<title>Node9&#45;&gt;Node5</title>
<path fill="none" stroke="midnightblue" d="M939.22,-355.08C854.37,-352.63 688.73,-343.66 552.27,-311 485.08,-294.92 458.24,-301.63 407.27,-255 393.66,-242.55 385.15,-223.04 380.35,-208.64"/>
<polygon fill="midnightblue" stroke="midnightblue" points="383.63,-207.39 377.39,-198.83 376.93,-209.41 383.63,-207.39"/>
</g>
<!-- Node10 -->
<g id="node10" class="node">
<title>Node10</title>
<g id="a_node10"><a xlink:href="layout_8h.html" target="_top" xlink:title=" ">
<polygon fill="white" stroke="black" points="602.27,-291.5 602.27,-310.5 700.27,-310.5 700.27,-291.5 602.27,-291.5"/>
<text text-anchor="middle" x="651.27" y="-298.5" font-family="'Souce Sans Pro', Roboto, FreeSans, sans-serif" font-size="10.00">log4cplus/layout.h</text>
</a>
</g>
</g>
<!-- Node9&#45;&gt;Node10 -->
<g id="edge12" class="edge">
<title>Node9&#45;&gt;Node10</title>
<path fill="none" stroke="midnightblue" d="M940.76,-347.44C878,-337.59 775.26,-321.46 710.55,-311.31"/>
<polygon fill="midnightblue" stroke="midnightblue" points="710.93,-307.82 700.51,-309.73 709.84,-314.74 710.93,-307.82"/>
</g>
<!-- Node11 -->
<g id="node11" class="node">
<title>Node11</title>
<g id="a_node11"><a xlink:href="loglevel_8h.html" target="_top" xlink:title="This header defines the LogLevel type.">
<polygon fill="white" stroke="black" points="445.27,-235.5 445.27,-254.5 549.27,-254.5 549.27,-235.5 445.27,-235.5"/>
<text text-anchor="middle" x="497.27" y="-242.5" font-family="'Souce Sans Pro', Roboto, FreeSans, sans-serif" font-size="10.00">log4cplus/loglevel.h</text>
</a>
</g>
</g>
<!-- Node9&#45;&gt;Node11 -->
<g id="edge30" class="edge">
<title>Node9&#45;&gt;Node11</title>
<path fill="none" stroke="midnightblue" d="M939.12,-353.04C843.98,-347.48 655.37,-333.9 593.27,-311 562.76,-299.75 532.53,-276.81 514.37,-261.42"/>
<polygon fill="midnightblue" stroke="midnightblue" points="516.32,-258.47 506.48,-254.55 511.72,-263.76 516.32,-258.47"/>
</g>
<!-- Node18 -->
<g id="node18" class="node">
<title>Node18</title>
<g id="a_node18"><a xlink:title=" ">
<polygon fill="white" stroke="#bfbfbf" points="853.27,-235.5 853.27,-254.5 907.27,-254.5 907.27,-235.5 853.27,-235.5"/>
<text text-anchor="middle" x="880.27" y="-242.5" font-family="'Souce Sans Pro', Roboto, FreeSans, sans-serif" font-size="10.00">memory</text>
</a>
</g>
</g>
<!-- Node9&#45;&gt;Node18 -->
<g id="edge50" class="edge">
<title>Node9&#45;&gt;Node18</title>
<path fill="none" stroke="midnightblue" d="M986.25,-347.37C966.93,-328.89 921.35,-285.29 896.73,-261.74"/>
<polygon fill="midnightblue" stroke="midnightblue" points="898.9,-258.97 889.25,-254.59 894.06,-264.03 898.9,-258.97"/>
</g>
<!-- Node19 -->
<g id="node19" class="node">
<title>Node19</title>
<g id="a_node19"><a xlink:href="pointer_8h.html" target="_top" xlink:title=" ">
<polygon fill="white" stroke="black" points="1275.27,-235.5 1275.27,-254.5 1413.27,-254.5 1413.27,-235.5 1275.27,-235.5"/>
<text text-anchor="middle" x="1344.27" y="-242.5" font-family="'Souce Sans Pro', Roboto, FreeSans, sans-serif" font-size="10.00">log4cplus/helpers/pointer.h</text>
</a>
</g>
</g>
<!-- Node9&#45;&gt;Node19 -->
<g id="edge32" class="edge">
<title>Node9&#45;&gt;Node19</title>
<path fill="none" stroke="midnightblue" d="M1051.3,-354.49C1106.77,-351.2 1193.04,-341.14 1261.27,-311 1287.79,-299.29 1313.27,-277.18 1328.84,-262.03"/>
<polygon fill="midnightblue" stroke="midnightblue" points="1331.44,-264.38 1336.03,-254.84 1326.49,-259.43 1331.44,-264.38"/>
</g>
<!-- Node21 -->
<g id="node21" class="node">
<title>Node21</title>
<g id="a_node21"><a xlink:title=" ">
<polygon fill="white" stroke="#bfbfbf" points="1165.27,-123.5 1165.27,-142.5 1209.27,-142.5 1209.27,-123.5 1165.27,-123.5"/>
<text text-anchor="middle" x="1187.27" y="-130.5" font-family="'Souce Sans Pro', Roboto, FreeSans, sans-serif" font-size="10.00">mutex</text>
</a>
</g>
</g>
<!-- Node9&#45;&gt;Node21 -->
<g id="edge51" class="edge">
<title>Node9&#45;&gt;Node21</title>
<path fill="none" stroke="midnightblue" d="M1048.48,-347.47C1115.45,-336.48 1222.53,-317.96 1228.27,-311 1260.32,-272.17 1230.76,-245.42 1211.27,-199 1204.72,-183.4 1198.13,-165.33 1193.51,-152.2"/>
<polygon fill="midnightblue" stroke="midnightblue" points="1196.73,-150.8 1190.15,-142.51 1190.12,-153.1 1196.73,-150.8"/>
</g>
<!-- Node22 -->
<g id="node22" class="node">
<title>Node22</title>
<g id="a_node22"><a xlink:title=" ">
<polygon fill="white" stroke="#bfbfbf" points="908.27,-123.5 908.27,-142.5 1004.27,-142.5 1004.27,-123.5 908.27,-123.5"/>
<text text-anchor="middle" x="956.27" y="-130.5" font-family="'Souce Sans Pro', Roboto, FreeSans, sans-serif" font-size="10.00">condition_variable</text>
</a>
</g>
</g>
<!-- Node9&#45;&gt;Node22 -->
<g id="edge53" class="edge">
<title>Node9&#45;&gt;Node22</title>
<path fill="none" stroke="midnightblue" d="M1008.84,-347.22C1038.6,-326.91 1104.6,-275.29 1074.27,-235 1039.5,-188.81 984.04,-245.19 949.27,-199 939.26,-185.7 943.02,-166.32 948.05,-152.18"/>
<polygon fill="midnightblue" stroke="midnightblue" points="951.43,-153.16 951.94,-142.57 944.94,-150.53 951.43,-153.16"/>
</g>
<!-- Node25 -->
<g id="node25" class="node">
<title>Node25</title>
<g id="a_node25"><a xlink:title=" ">
<polygon fill="white" stroke="#bfbfbf" points="1403.77,-179.5 1403.77,-198.5 1450.77,-198.5 1450.77,-179.5 1403.77,-179.5"/>
<text text-anchor="middle" x="1427.27" y="-186.5" font-family="'Souce Sans Pro', Roboto, FreeSans, sans-serif" font-size="10.00">atomic</text>
</a>
</g>
</g>
<!-- Node9&#45;&gt;Node25 -->
<g id="edge52" class="edge">
<title>Node9&#45;&gt;Node25</title>
<path fill="none" stroke="midnightblue" d="M1051.54,-351.71C1111.76,-346.14 1209.66,-334.24 1291.27,-311 1352.17,-293.66 1385.39,-306.47 1422.27,-255 1431.84,-241.64 1432.17,-222.53 1430.65,-208.49"/>
<polygon fill="midnightblue" stroke="midnightblue" points="1434.1,-207.9 1429.19,-198.52 1427.18,-208.92 1434.1,-207.9"/>
</g>
<!-- Node26 -->
<g id="node26" class="node">
<title>Node26</title>
<g id="a_node26"><a xlink:href="filter_8h.html" target="_top" xlink:title="This header defines Filter and all of it&#39;s subclasses.">
<polygon fill="white" stroke="black" points="1111.77,-291.5 1111.77,-310.5 1218.77,-310.5 1218.77,-291.5 1111.77,-291.5"/>
<text text-anchor="middle" x="1165.27" y="-298.5" font-family="'Souce Sans Pro', Roboto, FreeSans, sans-serif" font-size="10.00">log4cplus/spi/filter.h</text>
</a>
</g>
</g>
<!-- Node9&#45;&gt;Node26 -->
<g id="edge41" class="edge">
<title>Node9&#45;&gt;Node26</title>
<path fill="none" stroke="midnightblue" d="M1022.21,-347.44C1050.93,-338.32 1096.6,-323.81 1128.59,-313.65"/>
<polygon fill="midnightblue" stroke="midnightblue" points="1129.99,-316.88 1138.46,-310.52 1127.87,-310.21 1129.99,-316.88"/>
</g>
<!-- Node28 -->
<g id="node28" class="node">
<title>Node28</title>
<g id="a_node28"><a xlink:href="lockfile_8h.html" target="_top" xlink:title=" ">
<polygon fill="white" stroke="black" points="925.27,-235.5 925.27,-254.5 1065.27,-254.5 1065.27,-235.5 925.27,-235.5"/>
<text text-anchor="middle" x="995.27" y="-242.5" font-family="'Souce Sans Pro', Roboto, FreeSans, sans-serif" font-size="10.00">log4cplus/helpers/lockfile.h</text>
</a>
</g>
</g>
<!-- Node9&#45;&gt;Node28 -->
<g id="edge46" class="edge">
<title>Node9&#45;&gt;Node28</title>
<path fill="none" stroke="midnightblue" d="M995.27,-347.37C995.27,-329.62 995.27,-288.67 995.27,-264.6"/>
<polygon fill="midnightblue" stroke="midnightblue" points="998.77,-264.59 995.27,-254.59 991.77,-264.59 998.77,-264.59"/>
</g>
<!-- Node10&#45;&gt;Node2 -->
<g id="edge13" class="edge">
<title>Node10&#45;&gt;Node2</title>
<path fill="none" stroke="midnightblue" d="M653.86,-291.3C663.59,-258.56 698.13,-142.38 711.72,-96.67"/>
<polygon fill="midnightblue" stroke="midnightblue" points="715.14,-97.47 714.63,-86.88 708.43,-95.47 715.14,-97.47"/>
</g>
<!-- Node10&#45;&gt;Node5 -->
<g id="edge22" class="edge">
<title>Node10&#45;&gt;Node5</title>
<path fill="none" stroke="midnightblue" d="M601.94,-293.19C547.57,-285.08 464.12,-270.64 436.27,-255 415.49,-243.33 397.63,-222.17 386.7,-207.17"/>
<polygon fill="midnightblue" stroke="midnightblue" points="389.43,-204.95 380.83,-198.76 383.69,-208.96 389.43,-204.95"/>
</g>
<!-- Node10&#45;&gt;Node11 -->
<g id="edge14" class="edge">
<title>Node10&#45;&gt;Node11</title>
<path fill="none" stroke="midnightblue" d="M626.87,-291.44C601.07,-282.4 560.19,-268.06 531.25,-257.92"/>
<polygon fill="midnightblue" stroke="midnightblue" points="532.15,-254.52 521.56,-254.52 529.84,-261.13 532.15,-254.52"/>
</g>
<!-- Node12 -->
<g id="node12" class="node">
<title>Node12</title>
<g id="a_node12"><a xlink:title=" ">
<polygon fill="white" stroke="#bfbfbf" points="443.27,-179.5 443.27,-198.5 487.27,-198.5 487.27,-179.5 443.27,-179.5"/>
<text text-anchor="middle" x="465.27" y="-186.5" font-family="'Souce Sans Pro', Roboto, FreeSans, sans-serif" font-size="10.00">vector</text>
</a>
</g>
</g>
<!-- Node10&#45;&gt;Node12 -->
<g id="edge28" class="edge">
<title>Node10&#45;&gt;Node12</title>
<path fill="none" stroke="midnightblue" d="M640.2,-291.39C623.16,-278.34 589.2,-253.13 558.27,-235 537.58,-222.87 513.14,-211.14 494.5,-202.69"/>
<polygon fill="midnightblue" stroke="midnightblue" points="495.9,-199.48 485.34,-198.59 493.04,-205.87 495.9,-199.48"/>
</g>
<!-- Node13 -->
<g id="node13" class="node">
<title>Node13</title>
<g id="a_node13"><a xlink:href="streams_8h.html" target="_top" xlink:title=" ">
<polygon fill="white" stroke="black" points="505.77,-179.5 505.77,-198.5 612.77,-198.5 612.77,-179.5 505.77,-179.5"/>
<text text-anchor="middle" x="559.27" y="-186.5" font-family="'Souce Sans Pro', Roboto, FreeSans, sans-serif" font-size="10.00">log4cplus/streams.h</text>
</a>
</g>
</g>
<!-- Node10&#45;&gt;Node13 -->
<g id="edge18" class="edge">
<title>Node10&#45;&gt;Node13</title>
<path fill="none" stroke="midnightblue" d="M644.05,-291.37C628.74,-273.05 592.77,-230.05 572.96,-206.36"/>
<polygon fill="midnightblue" stroke="midnightblue" points="575.56,-204.02 566.46,-198.59 570.19,-208.51 575.56,-204.02"/>
</g>
<!-- Node15 -->
<g id="node15" class="node">
<title>Node15</title>
<g id="a_node15"><a xlink:href="timehelper_8h.html" target="_top" xlink:title=" ">
<polygon fill="white" stroke="black" points="681.27,-235.5 681.27,-254.5 835.27,-254.5 835.27,-235.5 681.27,-235.5"/>
<text text-anchor="middle" x="758.27" y="-242.5" font-family="'Souce Sans Pro', Roboto, FreeSans, sans-serif" font-size="10.00">log4cplus/helpers/timehelper.h</text>
</a>
</g>
</g>
<!-- Node10&#45;&gt;Node15 -->
<g id="edge23" class="edge">
<title>Node10&#45;&gt;Node15</title>
<path fill="none" stroke="midnightblue" d="M668.46,-291.32C685.62,-282.66 712.22,-269.24 732.02,-259.25"/>
<polygon fill="midnightblue" stroke="midnightblue" points="733.77,-262.28 741.12,-254.65 730.62,-256.04 733.77,-262.28"/>
</g>
<!-- Node10&#45;&gt;Node18 -->
<g id="edge29" class="edge">
<title>Node10&#45;&gt;Node18</title>
<path fill="none" stroke="midnightblue" d="M688.67,-291.46C725.53,-283.01 783.72,-269.56 843.21,-255.23"/>
<polygon fill="midnightblue" stroke="midnightblue" points="844.26,-258.58 853.16,-252.83 842.61,-251.77 844.26,-258.58"/>
</g>
<!-- Node11&#45;&gt;Node2 -->
<g id="edge15" class="edge">
<title>Node11&#45;&gt;Node2</title>
<path fill="none" stroke="midnightblue" d="M544.05,-235.47C569.43,-228.93 600.06,-217.74 622.27,-199 651.94,-173.98 640.68,-153.03 665.27,-123 674.49,-111.74 686.72,-101 697,-92.84"/>
<polygon fill="midnightblue" stroke="midnightblue" points="699.27,-95.51 705.07,-86.64 695.01,-89.96 699.27,-95.51"/>
</g>
<!-- Node11&#45;&gt;Node5 -->
<g id="edge17" class="edge">
<title>Node11&#45;&gt;Node5</title>
<path fill="none" stroke="midnightblue" d="M477.94,-235.44C457.95,-226.6 426.53,-212.69 403.71,-202.59"/>
<polygon fill="midnightblue" stroke="midnightblue" points="405.07,-199.36 394.51,-198.52 402.24,-205.76 405.07,-199.36"/>
</g>
<!-- Node11&#45;&gt;Node12 -->
<g id="edge16" class="edge">
<title>Node11&#45;&gt;Node12</title>
<path fill="none" stroke="midnightblue" d="M491.99,-235.08C487.56,-227.61 481.11,-216.72 475.65,-207.52"/>
<polygon fill="midnightblue" stroke="midnightblue" points="478.57,-205.57 470.46,-198.75 472.54,-209.14 478.57,-205.57"/>
</g>
<!-- Node13&#45;&gt;Node2 -->
<g id="edge19" class="edge">
<title>Node13&#45;&gt;Node2</title>
<path fill="none" stroke="midnightblue" d="M555.91,-179.4C551.25,-165.89 544.73,-139.56 557.27,-123 569.11,-107.38 613.44,-95.66 652.45,-88.11"/>
<polygon fill="midnightblue" stroke="midnightblue" points="653.57,-91.46 662.75,-86.18 652.28,-84.58 653.57,-91.46"/>
</g>
<!-- Node13&#45;&gt;Node7 -->
<g id="edge20" class="edge">
<title>Node13&#45;&gt;Node7</title>
<path fill="none" stroke="midnightblue" d="M543.69,-179.32C528.27,-170.74 504.46,-157.49 486.56,-147.52"/>
<polygon fill="midnightblue" stroke="midnightblue" points="488.26,-144.46 477.82,-142.65 484.85,-150.58 488.26,-144.46"/>
</g>
<!-- Node14 -->
<g id="node14" class="node">
<title>Node14</title>
<g id="a_node14"><a xlink:title=" ">
<polygon fill="white" stroke="#bfbfbf" points="565.77,-123.5 565.77,-142.5 612.77,-142.5 612.77,-123.5 565.77,-123.5"/>
<text text-anchor="middle" x="589.27" y="-130.5" font-family="'Souce Sans Pro', Roboto, FreeSans, sans-serif" font-size="10.00">iosfwd</text>
</a>
</g>
</g>
<!-- Node13&#45;&gt;Node14 -->
<g id="edge21" class="edge">
<title>Node13&#45;&gt;Node14</title>
<path fill="none" stroke="midnightblue" d="M564.23,-179.08C568.38,-171.61 574.42,-160.72 579.54,-151.52"/>
<polygon fill="midnightblue" stroke="midnightblue" points="582.61,-153.19 584.41,-142.75 576.49,-149.79 582.61,-153.19"/>
</g>
<!-- Node15&#45;&gt;Node2 -->
<g id="edge24" class="edge">
<title>Node15&#45;&gt;Node2</title>
<path fill="none" stroke="midnightblue" d="M753.35,-235.32C748.53,-226.46 741.35,-212.18 737.27,-199 726.39,-163.87 721.09,-121.06 718.79,-96.92"/>
<polygon fill="midnightblue" stroke="midnightblue" points="722.25,-96.35 717.89,-86.69 715.28,-96.96 722.25,-96.35"/>
</g>
<!-- Node15&#45;&gt;Node5 -->
<g id="edge25" class="edge">
<title>Node15&#45;&gt;Node5</title>
<path fill="none" stroke="midnightblue" d="M695.21,-235.5C632.07,-226.92 531.82,-213.16 434.82,-199.06"/>
<polygon fill="midnightblue" stroke="midnightblue" points="435.24,-195.59 424.84,-197.61 434.23,-202.51 435.24,-195.59"/>
</g>
<!-- Node16 -->
<g id="node16" class="node">
<title>Node16</title>
<g id="a_node16"><a xlink:title=" ">
<polygon fill="white" stroke="#bfbfbf" points="745.77,-179.5 745.77,-198.5 786.77,-198.5 786.77,-179.5 745.77,-179.5"/>
<text text-anchor="middle" x="766.27" y="-186.5" font-family="'Souce Sans Pro', Roboto, FreeSans, sans-serif" font-size="10.00">ctime</text>
</a>
</g>
</g>
<!-- Node15&#45;&gt;Node16 -->
<g id="edge26" class="edge">
<title>Node15&#45;&gt;Node16</title>
<path fill="none" stroke="midnightblue" d="M759.59,-235.08C760.65,-227.93 762.18,-217.64 763.5,-208.69"/>
<polygon fill="midnightblue" stroke="midnightblue" points="766.97,-209.16 764.97,-198.75 760.05,-208.13 766.97,-209.16"/>
</g>
<!-- Node17 -->
<g id="node17" class="node">
<title>Node17</title>
<g id="a_node17"><a xlink:title=" ">
<polygon fill="white" stroke="#bfbfbf" points="804.77,-179.5 804.77,-198.5 851.77,-198.5 851.77,-179.5 804.77,-179.5"/>
<text text-anchor="middle" x="828.27" y="-186.5" font-family="'Souce Sans Pro', Roboto, FreeSans, sans-serif" font-size="10.00">chrono</text>
</a>
</g>
</g>
<!-- Node15&#45;&gt;Node17 -->
<g id="edge27" class="edge">
<title>Node15&#45;&gt;Node17</title>
<path fill="none" stroke="midnightblue" d="M769.52,-235.32C780.07,-227.18 796.07,-214.84 808.71,-205.09"/>
<polygon fill="midnightblue" stroke="midnightblue" points="811.04,-207.71 816.82,-198.83 806.76,-202.17 811.04,-207.71"/>
</g>
<!-- Node19&#45;&gt;Node2 -->
<g id="edge33" class="edge">
<title>Node19&#45;&gt;Node2</title>
<path fill="none" stroke="midnightblue" d="M1349.62,-235.19C1356.95,-221.87 1367.94,-196.32 1356.27,-179 1319.3,-124.1 1282.6,-138.58 1218.27,-123 1064.93,-85.87 878.5,-78.74 782.05,-77.75"/>
<polygon fill="midnightblue" stroke="midnightblue" points="781.9,-74.25 771.88,-77.67 781.85,-81.25 781.9,-74.25"/>
</g>
<!-- Node20 -->
<g id="node20" class="node">
<title>Node20</title>
<g id="a_node20"><a xlink:href="syncprims_8h.html" target="_top" xlink:title=" ">
<polygon fill="white" stroke="black" points="957.77,-179.5 957.77,-198.5 1106.77,-198.5 1106.77,-179.5 957.77,-179.5"/>
<text text-anchor="middle" x="1032.27" y="-186.5" font-family="'Souce Sans Pro', Roboto, FreeSans, sans-serif" font-size="10.00">log4cplus/thread/syncprims.h</text>
</a>
</g>
</g>
<!-- Node19&#45;&gt;Node20 -->
<g id="edge34" class="edge">
<title>Node19&#45;&gt;Node20</title>
<path fill="none" stroke="midnightblue" d="M1294.83,-235.44C1239.61,-225.89 1150.25,-210.42 1091.38,-200.23"/>
<polygon fill="midnightblue" stroke="midnightblue" points="1091.93,-196.77 1081.48,-198.52 1090.73,-203.67 1091.93,-196.77"/>
</g>
<!-- Node23 -->
<g id="node23" class="node">
<title>Node23</title>
<g id="a_node23"><a xlink:title=" ">
<polygon fill="white" stroke="#bfbfbf" points="1219.77,-179.5 1219.77,-198.5 1278.77,-198.5 1278.77,-179.5 1219.77,-179.5"/>
<text text-anchor="middle" x="1249.27" y="-186.5" font-family="'Souce Sans Pro', Roboto, FreeSans, sans-serif" font-size="10.00">algorithm</text>
</a>
</g>
</g>
<!-- Node19&#45;&gt;Node23 -->
<g id="edge38" class="edge">
<title>Node19&#45;&gt;Node23</title>
<path fill="none" stroke="midnightblue" d="M1329.01,-235.32C1314.05,-226.82 1291.02,-213.73 1273.54,-203.8"/>
<polygon fill="midnightblue" stroke="midnightblue" points="1274.92,-200.55 1264.5,-198.65 1271.46,-206.64 1274.92,-200.55"/>
</g>
<!-- Node24 -->
<g id="node24" class="node">
<title>Node24</title>
<g id="a_node24"><a xlink:title=" ">
<polygon fill="white" stroke="#bfbfbf" points="1297.27,-179.5 1297.27,-198.5 1347.27,-198.5 1347.27,-179.5 1297.27,-179.5"/>
<text text-anchor="middle" x="1322.27" y="-186.5" font-family="'Souce Sans Pro', Roboto, FreeSans, sans-serif" font-size="10.00">cassert</text>
</a>
</g>
</g>
<!-- Node19&#45;&gt;Node24 -->
<g id="edge39" class="edge">
<title>Node19&#45;&gt;Node24</title>
<path fill="none" stroke="midnightblue" d="M1340.64,-235.08C1337.66,-227.77 1333.35,-217.18 1329.65,-208.1"/>
<polygon fill="midnightblue" stroke="midnightblue" points="1332.85,-206.69 1325.84,-198.75 1326.37,-209.33 1332.85,-206.69"/>
</g>
<!-- Node19&#45;&gt;Node25 -->
<g id="edge40" class="edge">
<title>Node19&#45;&gt;Node25</title>
<path fill="none" stroke="midnightblue" d="M1357.61,-235.32C1370.43,-226.98 1390.06,-214.21 1405.21,-204.35"/>
<polygon fill="midnightblue" stroke="midnightblue" points="1407.5,-207.04 1413.97,-198.65 1403.68,-201.17 1407.5,-207.04"/>
</g>
<!-- Node20&#45;&gt;Node2 -->
<g id="edge35" class="edge">
<title>Node20&#45;&gt;Node2</title>
<path fill="none" stroke="midnightblue" d="M1032.48,-179.31C1032.3,-165.19 1029.73,-137.4 1013.27,-123 979.76,-93.69 858.55,-83.45 782.02,-79.89"/>
<polygon fill="midnightblue" stroke="midnightblue" points="782.14,-76.39 771.99,-79.45 781.83,-83.39 782.14,-76.39"/>
</g>
<!-- Node20&#45;&gt;Node21 -->
<g id="edge36" class="edge">
<title>Node20&#45;&gt;Node21</title>
<path fill="none" stroke="midnightblue" d="M1056.83,-179.44C1083.4,-170.19 1125.88,-155.39 1155.1,-145.21"/>
<polygon fill="midnightblue" stroke="midnightblue" points="1156.55,-148.41 1164.84,-141.82 1154.24,-141.8 1156.55,-148.41"/>
</g>
<!-- Node20&#45;&gt;Node22 -->
<g id="edge37" class="edge">
<title>Node20&#45;&gt;Node22</title>
<path fill="none" stroke="midnightblue" d="M1020.06,-179.32C1008.5,-171.11 990.9,-158.6 977.11,-148.81"/>
<polygon fill="midnightblue" stroke="midnightblue" points="978.88,-145.77 968.7,-142.83 974.83,-151.48 978.88,-145.77"/>
</g>
<!-- Node26&#45;&gt;Node2 -->
<g id="edge42" class="edge">
<title>Node26&#45;&gt;Node2</title>
<path fill="none" stroke="midnightblue" d="M1162.54,-291.47C1154.63,-267.07 1131.25,-197.49 1116.27,-179 1088.25,-144.43 1074.8,-138.99 1033.27,-123 950.43,-91.11 847.54,-81.51 782.13,-78.79"/>
<polygon fill="midnightblue" stroke="midnightblue" points="782.08,-75.29 771.96,-78.41 781.82,-82.28 782.08,-75.29"/>
</g>
<!-- Node26&#45;&gt;Node11 -->
<g id="edge45" class="edge">
<title>Node26&#45;&gt;Node11</title>
<path fill="none" stroke="midnightblue" d="M1111.74,-295.67C989.5,-285.79 690.41,-261.61 559.9,-251.06"/>
<polygon fill="midnightblue" stroke="midnightblue" points="559.92,-247.55 549.67,-250.24 559.36,-254.53 559.92,-247.55"/>
</g>
<!-- Node26&#45;&gt;Node19 -->
<g id="edge44" class="edge">
<title>Node26&#45;&gt;Node19</title>
<path fill="none" stroke="midnightblue" d="M1193.63,-291.44C1224.01,-282.28 1272.38,-267.69 1306.09,-257.52"/>
<polygon fill="midnightblue" stroke="midnightblue" points="1307.48,-260.76 1316.04,-254.52 1305.46,-254.05 1307.48,-260.76"/>
</g>
<!-- Node27 -->
<g id="node27" class="node">
<title>Node27</title>
<g id="a_node27"><a xlink:title=" ">
<polygon fill="white" stroke="#bfbfbf" points="1159.27,-235.5 1159.27,-254.5 1219.27,-254.5 1219.27,-235.5 1159.27,-235.5"/>
<text text-anchor="middle" x="1189.27" y="-242.5" font-family="'Souce Sans Pro', Roboto, FreeSans, sans-serif" font-size="10.00">functional</text>
</a>
</g>
</g>
<!-- Node26&#45;&gt;Node27 -->
<g id="edge43" class="edge">
<title>Node26&#45;&gt;Node27</title>
<path fill="none" stroke="midnightblue" d="M1169.23,-291.08C1172.48,-283.77 1177.19,-273.18 1181.23,-264.1"/>
<polygon fill="midnightblue" stroke="midnightblue" points="1184.52,-265.31 1185.38,-254.75 1178.12,-262.47 1184.52,-265.31"/>
</g>
<!-- Node28&#45;&gt;Node2 -->
<g id="edge47" class="edge">
<title>Node28&#45;&gt;Node2</title>
<path fill="none" stroke="midnightblue" d="M979.76,-235.33C963.77,-226.37 938.17,-211.89 916.27,-199 851.98,-161.15 776.99,-115.01 740.12,-92.18"/>
<polygon fill="midnightblue" stroke="midnightblue" points="741.53,-88.94 731.18,-86.65 737.84,-94.89 741.53,-88.94"/>
</g>
<!-- Node28&#45;&gt;Node5 -->
<g id="edge48" class="edge">
<title>Node28&#45;&gt;Node5</title>
<path fill="none" stroke="midnightblue" d="M925.07,-235.86C922.1,-235.56 919.16,-235.27 916.27,-235 705.64,-215.14 649.41,-222.97 434.82,-198.97"/>
<polygon fill="midnightblue" stroke="midnightblue" points="435.14,-195.48 424.81,-197.84 434.35,-202.44 435.14,-195.48"/>
</g>
<!-- Node28&#45;&gt;Node20 -->
<g id="edge49" class="edge">
<title>Node28&#45;&gt;Node20</title>
<path fill="none" stroke="midnightblue" d="M1001.38,-235.08C1006.55,-227.53 1014.12,-216.49 1020.47,-207.23"/>
<polygon fill="midnightblue" stroke="midnightblue" points="1023.51,-208.98 1026.28,-198.75 1017.74,-205.02 1023.51,-208.98"/>
</g>
<!-- Node29&#45;&gt;Node2 -->
<g id="edge55" class="edge">
<title>Node29&#45;&gt;Node2</title>
<path fill="none" stroke="midnightblue" d="M429.49,-468.48C647.73,-469.98 1517.27,-469 1517.27,-358 1517.27,-358 1517.27,-358 1517.27,-188 1517.27,-109.59 1429.72,-140.42 1353.27,-123 1246,-98.56 921.87,-84.94 782.32,-80.08"/>
<polygon fill="midnightblue" stroke="midnightblue" points="782.31,-76.57 772.2,-79.73 782.07,-83.57 782.31,-76.57"/>
</g>
<!-- Node29&#45;&gt;Node5 -->
<g id="edge57" class="edge">
<title>Node29&#45;&gt;Node5</title>
<path fill="none" stroke="midnightblue" d="M331.23,-464.47C302.88,-459.61 269.33,-448.43 251.27,-423 217.3,-375.17 226.09,-343.99 251.27,-291 271.06,-249.36 317.34,-219.25 347.42,-203.23"/>
<polygon fill="midnightblue" stroke="midnightblue" points="349.27,-206.21 356.57,-198.52 346.07,-199.99 349.27,-206.21"/>
</g>
<!-- Node29&#45;&gt;Node11 -->
<g id="edge56" class="edge">
<title>Node29&#45;&gt;Node11</title>
<path fill="none" stroke="midnightblue" d="M419.38,-459.36C439.6,-452.82 462.8,-441.66 476.27,-423 510.93,-374.99 505.51,-299.85 500.56,-264.97"/>
<polygon fill="midnightblue" stroke="midnightblue" points="503.97,-264.12 498.96,-254.78 497.05,-265.2 503.97,-264.12"/>
</g>
<!-- Node29&#45;&gt;Node12 -->
<g id="edge67" class="edge">
<title>Node29&#45;&gt;Node12</title>
<path fill="none" stroke="midnightblue" d="M338.8,-459.5C318.69,-453.06 296.32,-441.95 284.27,-423 279.5,-415.5 281.25,-411.36 284.27,-403 316.68,-313.49 405.7,-236.09 445.54,-204.8"/>
<polygon fill="midnightblue" stroke="midnightblue" points="447.91,-207.39 453.69,-198.51 443.64,-201.85 447.91,-207.39"/>
</g>
<!-- Node30 -->
<g id="node30" class="node">
<title>Node30</title>
<g id="a_node30"><a xlink:href="appenderattachable_8h.html" target="_top" xlink:title=" ">
<polygon fill="white" stroke="black" points="293.27,-403.5 293.27,-422.5 467.27,-422.5 467.27,-403.5 293.27,-403.5"/>
<text text-anchor="middle" x="380.27" y="-410.5" font-family="'Souce Sans Pro', Roboto, FreeSans, sans-serif" font-size="10.00">log4cplus/spi/appenderattachable.h</text>
</a>
</g>
</g>
<!-- Node29&#45;&gt;Node30 -->
<g id="edge58" class="edge">
<title>Node29&#45;&gt;Node30</title>
<path fill="none" stroke="midnightblue" d="M380.27,-459.08C380.27,-452.01 380.27,-441.86 380.27,-432.99"/>
<polygon fill="midnightblue" stroke="midnightblue" points="383.77,-432.75 380.27,-422.75 376.77,-432.75 383.77,-432.75"/>
</g>
<!-- Node31 -->
<g id="node31" class="node">
<title>Node31</title>
<g id="a_node31"><a xlink:href="loggerfactory_8h.html" target="_top" xlink:title=" ">
<polygon fill="white" stroke="black" points="13.27,-235.5 13.27,-254.5 161.27,-254.5 161.27,-235.5 13.27,-235.5"/>
<text text-anchor="middle" x="87.27" y="-242.5" font-family="'Souce Sans Pro', Roboto, FreeSans, sans-serif" font-size="10.00">log4cplus/spi/loggerfactory.h</text>
</a>
</g>
</g>
<!-- Node29&#45;&gt;Node31 -->
<g id="edge64" class="edge">
<title>Node29&#45;&gt;Node31</title>
<path fill="none" stroke="midnightblue" d="M340.48,-459.48C313.75,-452.52 278.56,-440.86 251.27,-423 182.71,-378.12 123.17,-298.49 98.9,-263.41"/>
<polygon fill="midnightblue" stroke="midnightblue" points="101.53,-261.06 93.01,-254.76 95.75,-265 101.53,-261.06"/>
</g>
<!-- Node30&#45;&gt;Node2 -->
<g id="edge59" class="edge">
<title>Node30&#45;&gt;Node2</title>
<path fill="none" stroke="midnightblue" d="M345.67,-403.44C245.15,-377.7 -37.11,-298.89 4.27,-235 70.46,-132.81 136.58,-154.19 254.27,-123 327.72,-103.54 543.37,-88.37 652.47,-81.7"/>
<polygon fill="midnightblue" stroke="midnightblue" points="652.92,-85.18 662.69,-81.08 652.49,-78.2 652.92,-85.18"/>
</g>
<!-- Node30&#45;&gt;Node5 -->
<g id="edge61" class="edge">
<title>Node30&#45;&gt;Node5</title>
<path fill="none" stroke="midnightblue" d="M376.25,-403.4C365.62,-380.15 336.92,-313.76 327.27,-255 325.83,-246.23 323.74,-243.16 327.27,-235 332.54,-222.84 342.89,-212.46 352.64,-204.74"/>
<polygon fill="midnightblue" stroke="midnightblue" points="354.92,-207.41 360.9,-198.67 350.77,-201.77 354.92,-207.41"/>
</g>
<!-- Node30&#45;&gt;Node9 -->
<g id="edge60" class="edge">
<title>Node30&#45;&gt;Node9</title>
<path fill="none" stroke="midnightblue" d="M467.41,-404.35C591.76,-393.43 817.42,-373.62 929.06,-363.81"/>
<polygon fill="midnightblue" stroke="midnightblue" points="929.52,-367.29 939.18,-362.93 928.91,-360.31 929.52,-367.29"/>
</g>
<!-- Node30&#45;&gt;Node12 -->
<g id="edge63" class="edge">
<title>Node30&#45;&gt;Node12</title>
<path fill="none" stroke="midnightblue" d="M382.17,-403.22C388.06,-376.88 407.34,-296.55 436.27,-235 440.87,-225.22 447.27,-215.04 452.89,-206.85"/>
<polygon fill="midnightblue" stroke="midnightblue" points="455.84,-208.74 458.76,-198.56 450.13,-204.69 455.84,-208.74"/>
</g>
<!-- Node30&#45;&gt;Node19 -->
<g id="edge62" class="edge">
<title>Node30&#45;&gt;Node19</title>
<path fill="none" stroke="midnightblue" d="M467.47,-411.01C597.36,-408.45 849.03,-399.35 1060.27,-367 1164.69,-351.01 1201.9,-367.32 1291.27,-311 1310.07,-299.16 1325.28,-278.34 1334.51,-263.46"/>
<polygon fill="midnightblue" stroke="midnightblue" points="1337.62,-265.07 1339.69,-254.68 1331.59,-261.52 1337.62,-265.07"/>
</g>
<!-- Node31&#45;&gt;Node2 -->
<g id="edge65" class="edge">
<title>Node31&#45;&gt;Node2</title>
<path fill="none" stroke="midnightblue" d="M99.03,-235.39C130.94,-212.54 222.59,-150.24 309.27,-123 371.57,-103.43 553.76,-88.82 652.27,-82.09"/>
<polygon fill="midnightblue" stroke="midnightblue" points="652.66,-85.57 662.4,-81.41 652.19,-78.59 652.66,-85.57"/>
</g>
<!-- Node31&#45;&gt;Node5 -->
<g id="edge66" class="edge">
<title>Node31&#45;&gt;Node5</title>
<path fill="none" stroke="midnightblue" d="M132.91,-235.44C183.57,-225.94 265.35,-210.61 319.7,-200.42"/>
<polygon fill="midnightblue" stroke="midnightblue" points="320.67,-203.8 329.85,-198.52 319.38,-196.92 320.67,-203.8"/>
</g>
</g>
</svg>
