<?xml version="1.0" encoding="UTF-8" standalone="no"?>
<!DOCTYPE svg PUBLIC "-//W3C//DTD SVG 1.1//EN"
 "http://www.w3.org/Graphics/SVG/1.1/DTD/svg11.dtd">
<!-- Generated by graphviz version 2.43.0 (0)
 -->
<!-- Title: Graphical Class Hierarchy Pages: 1 -->
<svg width="322pt" height="154pt"
 viewBox="0.00 0.00 322.00 153.50" xmlns="http://www.w3.org/2000/svg" xmlns:xlink="http://www.w3.org/1999/xlink">
<g id="graph0" class="graph" transform="scale(1 1) rotate(0) translate(4 149.5)">
<title>Graphical Class Hierarchy</title>
<polygon fill="white" stroke="transparent" points="-4,4 -4,-149.5 318,-149.5 318,4 -4,4"/>
<!-- Node0 -->
<g id="node1" class="node">
<title>Node0</title>
<g id="a_node1"><a xlink:href="classlog4cplus_1_1spi_1_1BaseFactory.html" target="_top" xlink:title="This is the base class for all factories.">
<polygon fill="white" stroke="black" points="0,-57.5 0,-76.5 135,-76.5 135,-57.5 0,-57.5"/>
<text text-anchor="middle" x="67.5" y="-64.5" font-family="'Souce Sans Pro', Roboto, FreeSans, sans-serif" font-size="10.00">log4cplus::spi::BaseFactory</text>
</a>
</g>
</g>
<!-- Node1 -->
<g id="node2" class="node">
<title>Node1</title>
<g id="a_node2"><a xlink:href="classlog4cplus_1_1spi_1_1AppenderFactory.html" target="_top" xlink:title="This abstract class defines the &quot;Factory&quot; interface to create &quot;Appender&quot; objects.">
<polygon fill="white" stroke="black" points="181,-115 181,-145 304,-145 304,-115 181,-115"/>
<text text-anchor="start" x="189" y="-133" font-family="'Souce Sans Pro', Roboto, FreeSans, sans-serif" font-size="10.00">log4cplus::spi::Appender</text>
<text text-anchor="middle" x="242.5" y="-122" font-family="'Souce Sans Pro', Roboto, FreeSans, sans-serif" font-size="10.00">Factory</text>
</a>
</g>
</g>
<!-- Node0&#45;&gt;Node1 -->
<g id="edge1" class="edge">
<title>Node0&#45;&gt;Node1</title>
<path fill="none" stroke="midnightblue" d="M103.68,-80.18C123.44,-87.55 148.56,-96.86 171,-105 179.91,-108.23 189.47,-111.65 198.59,-114.89"/>
<polygon fill="midnightblue" stroke="midnightblue" points="104.75,-76.85 94.16,-76.63 102.3,-83.4 104.75,-76.85"/>
</g>
<!-- Node2 -->
<g id="node3" class="node">
<title>Node2</title>
<g id="a_node3"><a xlink:href="classlog4cplus_1_1spi_1_1FilterFactory.html" target="_top" xlink:title="This abstract class defines the &quot;Factory&quot; interface to create &quot;Appender&quot; objects.">
<polygon fill="white" stroke="black" points="175,-76.5 175,-95.5 310,-95.5 310,-76.5 175,-76.5"/>
<text text-anchor="middle" x="242.5" y="-83.5" font-family="'Souce Sans Pro', Roboto, FreeSans, sans-serif" font-size="10.00">log4cplus::spi::FilterFactory</text>
</a>
</g>
</g>
<!-- Node0&#45;&gt;Node2 -->
<g id="edge2" class="edge">
<title>Node0&#45;&gt;Node2</title>
<path fill="none" stroke="midnightblue" d="M145.49,-75.46C155.26,-76.53 165.2,-77.62 174.79,-78.67"/>
<polygon fill="midnightblue" stroke="midnightblue" points="145.71,-71.96 135.39,-74.35 144.94,-78.92 145.71,-71.96"/>
</g>
<!-- Node3 -->
<g id="node4" class="node">
<title>Node3</title>
<g id="a_node4"><a xlink:href="classlog4cplus_1_1spi_1_1LayoutFactory.html" target="_top" xlink:title="This abstract class defines the &quot;Factory&quot; interface to create &quot;Layout&quot; objects.">
<polygon fill="white" stroke="black" points="171,-38.5 171,-57.5 314,-57.5 314,-38.5 171,-38.5"/>
<text text-anchor="middle" x="242.5" y="-45.5" font-family="'Souce Sans Pro', Roboto, FreeSans, sans-serif" font-size="10.00">log4cplus::spi::LayoutFactory</text>
</a>
</g>
</g>
<!-- Node0&#45;&gt;Node3 -->
<g id="edge3" class="edge">
<title>Node0&#45;&gt;Node3</title>
<path fill="none" stroke="midnightblue" d="M145.55,-58.54C153.95,-57.62 162.46,-56.68 170.78,-55.77"/>
<polygon fill="midnightblue" stroke="midnightblue" points="144.94,-55.08 135.39,-59.65 145.71,-62.04 144.94,-55.08"/>
</g>
<!-- Node4 -->
<g id="node5" class="node">
<title>Node4</title>
<g id="a_node5"><a xlink:href="classlog4cplus_1_1spi_1_1LocaleFactory.html" target="_top" xlink:title="This abstract class defines the &quot;Factory&quot; interface to create std::locale instances.">
<polygon fill="white" stroke="black" points="171,-0.5 171,-19.5 314,-19.5 314,-0.5 171,-0.5"/>
<text text-anchor="middle" x="242.5" y="-7.5" font-family="'Souce Sans Pro', Roboto, FreeSans, sans-serif" font-size="10.00">log4cplus::spi::LocaleFactory</text>
</a>
</g>
</g>
<!-- Node0&#45;&gt;Node4 -->
<g id="edge4" class="edge">
<title>Node0&#45;&gt;Node4</title>
<path fill="none" stroke="midnightblue" d="M101.85,-53.75C121.76,-46.07 147.65,-36.46 171,-29 181.51,-25.64 193.01,-22.38 203.63,-19.52"/>
<polygon fill="midnightblue" stroke="midnightblue" points="100.36,-50.58 92.31,-57.47 102.9,-57.1 100.36,-50.58"/>
</g>
</g>
</svg>
