<?xml version="1.0" encoding="UTF-8" standalone="no"?>
<!DOCTYPE svg PUBLIC "-//W3C//DTD SVG 1.1//EN"
 "http://www.w3.org/Graphics/SVG/1.1/DTD/svg11.dtd">
<!-- Generated by graphviz version 2.43.0 (0)
 -->
<!-- Title: Graphical Class Hierarchy Pages: 1 -->
<svg width="234pt" height="88pt"
 viewBox="0.00 0.00 234.00 88.00" xmlns="http://www.w3.org/2000/svg" xmlns:xlink="http://www.w3.org/1999/xlink">
<g id="graph0" class="graph" transform="scale(1 1) rotate(0) translate(4 84)">
<title>Graphical Class Hierarchy</title>
<polygon fill="white" stroke="transparent" points="-4,4 -4,-84 230,-84 230,4 -4,4"/>
<!-- Node0 -->
<g id="node1" class="node">
<title>Node0</title>
<g id="a_node1"><a xlink:href="classlog4cplus_1_1helpers_1_1AbstractSocket.html" target="_top" xlink:title=" ">
<polygon fill="white" stroke="black" points="0,-24.5 0,-54.5 95,-54.5 95,-24.5 0,-24.5"/>
<text text-anchor="start" x="8" y="-42.5" font-family="'Souce Sans Pro', Roboto, FreeSans, sans-serif" font-size="10.00">log4cplus::helpers</text>
<text text-anchor="middle" x="47.5" y="-31.5" font-family="'Souce Sans Pro', Roboto, FreeSans, sans-serif" font-size="10.00">::AbstractSocket</text>
</a>
</g>
</g>
<!-- Node1 -->
<g id="node2" class="node">
<title>Node1</title>
<g id="a_node2"><a xlink:href="classlog4cplus_1_1helpers_1_1ServerSocket.html" target="_top" xlink:title="This class implements server sockets.">
<polygon fill="white" stroke="black" points="131,-49.5 131,-79.5 226,-79.5 226,-49.5 131,-49.5"/>
<text text-anchor="start" x="139" y="-67.5" font-family="'Souce Sans Pro', Roboto, FreeSans, sans-serif" font-size="10.00">log4cplus::helpers</text>
<text text-anchor="middle" x="178.5" y="-56.5" font-family="'Souce Sans Pro', Roboto, FreeSans, sans-serif" font-size="10.00">::ServerSocket</text>
</a>
</g>
</g>
<!-- Node0&#45;&gt;Node1 -->
<g id="edge1" class="edge">
<title>Node0&#45;&gt;Node1</title>
<path fill="none" stroke="midnightblue" d="M105.1,-50.47C113.75,-52.15 122.6,-53.86 131,-55.49"/>
<polygon fill="midnightblue" stroke="midnightblue" points="105.56,-46.99 95.07,-48.53 104.22,-53.86 105.56,-46.99"/>
</g>
<!-- Node2 -->
<g id="node3" class="node">
<title>Node2</title>
<g id="a_node3"><a xlink:href="classlog4cplus_1_1helpers_1_1Socket.html" target="_top" xlink:title="This class implements client sockets (also called just &quot;sockets&quot;).">
<polygon fill="white" stroke="black" points="131,-0.5 131,-30.5 226,-30.5 226,-0.5 131,-0.5"/>
<text text-anchor="start" x="139" y="-18.5" font-family="'Souce Sans Pro', Roboto, FreeSans, sans-serif" font-size="10.00">log4cplus::helpers</text>
<text text-anchor="middle" x="178.5" y="-7.5" font-family="'Souce Sans Pro', Roboto, FreeSans, sans-serif" font-size="10.00">::Socket</text>
</a>
</g>
</g>
<!-- Node0&#45;&gt;Node2 -->
<g id="edge2" class="edge">
<title>Node0&#45;&gt;Node2</title>
<path fill="none" stroke="midnightblue" d="M105.1,-28.97C113.75,-27.36 122.6,-25.71 131,-24.15"/>
<polygon fill="midnightblue" stroke="midnightblue" points="104.26,-25.57 95.07,-30.84 105.54,-32.45 104.26,-25.57"/>
</g>
</g>
</svg>
