<?xml version="1.0" encoding="UTF-8" standalone="no"?>
<!DOCTYPE svg PUBLIC "-//W3C//DTD SVG 1.1//EN"
 "http://www.w3.org/Graphics/SVG/1.1/DTD/svg11.dtd">
<!-- Generated by graphviz version 2.43.0 (0)
 -->
<!-- Title: Graphical Class Hierarchy Pages: 1 -->
<svg width="868pt" height="1032pt"
 viewBox="0.00 0.00 868.00 1031.50" xmlns="http://www.w3.org/2000/svg" xmlns:xlink="http://www.w3.org/1999/xlink">
<g id="graph0" class="graph" transform="scale(1 1) rotate(0) translate(4 1027.5)">
<title>Graphical Class Hierarchy</title>
<polygon fill="white" stroke="transparent" points="-4,4 -4,-1027.5 864,-1027.5 864,4 -4,4"/>
<!-- Node0 -->
<g id="node1" class="node">
<title>Node0</title>
<g id="a_node1"><a xlink:href="classlog4cplus_1_1spi_1_1AppenderAttachable.html" target="_top" xlink:title="This Interface is for attaching Appenders to objects.">
<polygon fill="white" stroke="black" points="0,-976.5 0,-1006.5 123,-1006.5 123,-976.5 0,-976.5"/>
<text text-anchor="start" x="8" y="-994.5" font-family="'Souce Sans Pro', Roboto, FreeSans, sans-serif" font-size="10.00">log4cplus::spi::Appender</text>
<text text-anchor="middle" x="61.5" y="-983.5" font-family="'Souce Sans Pro', Roboto, FreeSans, sans-serif" font-size="10.00">Attachable</text>
</a>
</g>
</g>
<!-- Node1 -->
<g id="node2" class="node">
<title>Node1</title>
<g id="a_node2"><a xlink:href="classlog4cplus_1_1Logger.html" target="_top" xlink:title="This is the central class in the log4cplus package.">
<polygon fill="white" stroke="black" points="177,-1004 177,-1023 271,-1023 271,-1004 177,-1004"/>
<text text-anchor="middle" x="224" y="-1011" font-family="'Souce Sans Pro', Roboto, FreeSans, sans-serif" font-size="10.00">log4cplus::Logger</text>
</a>
</g>
</g>
<!-- Node0&#45;&gt;Node1 -->
<g id="edge1" class="edge">
<title>Node0&#45;&gt;Node1</title>
<path fill="none" stroke="midnightblue" d="M133.28,-1001.2C148.02,-1003.22 163.18,-1005.3 176.75,-1007.16"/>
<polygon fill="midnightblue" stroke="midnightblue" points="133.56,-997.71 123.18,-999.82 132.61,-1004.64 133.56,-997.71"/>
</g>
<!-- Node2 -->
<g id="node3" class="node">
<title>Node2</title>
<g id="a_node3"><a xlink:href="classlog4cplus_1_1helpers_1_1AppenderAttachableImpl.html" target="_top" xlink:title="This Interface is for attaching Appenders to objects.">
<polygon fill="white" stroke="black" points="159,-954.5 159,-984.5 289,-984.5 289,-954.5 159,-954.5"/>
<text text-anchor="start" x="167" y="-972.5" font-family="'Souce Sans Pro', Roboto, FreeSans, sans-serif" font-size="10.00">log4cplus::helpers</text>
<text text-anchor="middle" x="224" y="-961.5" font-family="'Souce Sans Pro', Roboto, FreeSans, sans-serif" font-size="10.00">::AppenderAttachableImpl</text>
</a>
</g>
</g>
<!-- Node0&#45;&gt;Node2 -->
<g id="edge2" class="edge">
<title>Node0&#45;&gt;Node2</title>
<path fill="none" stroke="midnightblue" d="M133.11,-981.82C141.64,-980.65 150.32,-979.46 158.76,-978.31"/>
<polygon fill="midnightblue" stroke="midnightblue" points="132.61,-978.36 123.18,-983.18 133.56,-985.29 132.61,-978.36"/>
</g>
<!-- Node3 -->
<g id="node4" class="node">
<title>Node3</title>
<g id="a_node4"><a xlink:href="classlog4cplus_1_1AsyncAppender.html" target="_top" xlink:title="This Appender is a wrapper to which other appenders can be attached.">
<polygon fill="white" stroke="black" points="343.5,-926 343.5,-945 476.5,-945 476.5,-926 343.5,-926"/>
<text text-anchor="middle" x="410" y="-933" font-family="'Souce Sans Pro', Roboto, FreeSans, sans-serif" font-size="10.00">log4cplus::AsyncAppender</text>
</a>
</g>
</g>
<!-- Node2&#45;&gt;Node3 -->
<g id="edge3" class="edge">
<title>Node2&#45;&gt;Node3</title>
<path fill="none" stroke="midnightblue" d="M298.94,-955.84C318.6,-952.2 339.41,-948.36 357.57,-945"/>
<polygon fill="midnightblue" stroke="midnightblue" points="298.29,-952.4 289.1,-957.66 299.57,-959.28 298.29,-952.4"/>
</g>
<!-- Node4 -->
<g id="node5" class="node">
<title>Node4</title>
<g id="a_node5"><a xlink:href="classlog4cplus_1_1spi_1_1LoggerImpl.html" target="_top" xlink:title="This is the central class in the log4cplus package.">
<polygon fill="white" stroke="black" points="344.5,-964 344.5,-983 475.5,-983 475.5,-964 344.5,-964"/>
<text text-anchor="middle" x="410" y="-971" font-family="'Souce Sans Pro', Roboto, FreeSans, sans-serif" font-size="10.00">log4cplus::spi::LoggerImpl</text>
</a>
</g>
</g>
<!-- Node2&#45;&gt;Node4 -->
<g id="edge4" class="edge">
<title>Node2&#45;&gt;Node4</title>
<path fill="none" stroke="midnightblue" d="M299.27,-971.11C314.15,-971.44 329.67,-971.78 344.2,-972.09"/>
<polygon fill="midnightblue" stroke="midnightblue" points="299.17,-967.61 289.1,-970.89 299.02,-974.61 299.17,-967.61"/>
</g>
<!-- Node5 -->
<g id="node6" class="node">
<title>Node5</title>
<g id="a_node6"><a xlink:href="classlog4cplus_1_1spi_1_1RootLogger.html" target="_top" xlink:title="RootLogger sits at the top of the logger hierachy.">
<polygon fill="white" stroke="black" points="536.5,-964 536.5,-983 668.5,-983 668.5,-964 536.5,-964"/>
<text text-anchor="middle" x="602.5" y="-971" font-family="'Souce Sans Pro', Roboto, FreeSans, sans-serif" font-size="10.00">log4cplus::spi::RootLogger</text>
</a>
</g>
</g>
<!-- Node4&#45;&gt;Node5 -->
<g id="edge5" class="edge">
<title>Node4&#45;&gt;Node5</title>
<path fill="none" stroke="midnightblue" d="M485.98,-973.5C502.6,-973.5 520.08,-973.5 536.27,-973.5"/>
<polygon fill="midnightblue" stroke="midnightblue" points="485.76,-970 475.76,-973.5 485.76,-977 485.76,-970"/>
</g>
<!-- Node34 -->
<g id="node7" class="node">
<title>Node34</title>
<g id="a_node7"><a xlink:href="classlog4cplus_1_1helpers_1_1IConnectorThreadClient.html" target="_top" xlink:title="Interface implemented by users of ConnectorThread.">
<polygon fill="white" stroke="black" points="161,-847.5 161,-877.5 287,-877.5 287,-847.5 161,-847.5"/>
<text text-anchor="start" x="169" y="-865.5" font-family="'Souce Sans Pro', Roboto, FreeSans, sans-serif" font-size="10.00">log4cplus::helpers</text>
<text text-anchor="middle" x="224" y="-854.5" font-family="'Souce Sans Pro', Roboto, FreeSans, sans-serif" font-size="10.00">::IConnectorThreadClient</text>
</a>
</g>
</g>
<!-- Node35 -->
<g id="node8" class="node">
<title>Node35</title>
<g id="a_node8"><a xlink:href="classlog4cplus_1_1SocketAppender.html" target="_top" xlink:title="Sends spi::InternalLoggingEvent objects to a remote a log server.">
<polygon fill="white" stroke="black" points="341.5,-888 341.5,-907 478.5,-907 478.5,-888 341.5,-888"/>
<text text-anchor="middle" x="410" y="-895" font-family="'Souce Sans Pro', Roboto, FreeSans, sans-serif" font-size="10.00">log4cplus::SocketAppender</text>
</a>
</g>
</g>
<!-- Node34&#45;&gt;Node35 -->
<g id="edge6" class="edge">
<title>Node34&#45;&gt;Node35</title>
<path fill="none" stroke="darkgreen" d="M297.05,-876.2C317.71,-880.14 339.79,-884.33 358.83,-887.96"/>
<polygon fill="darkgreen" stroke="darkgreen" points="297.52,-872.73 287.04,-874.3 296.21,-879.61 297.52,-872.73"/>
</g>
<!-- Node36 -->
<g id="node9" class="node">
<title>Node36</title>
<g id="a_node9"><a xlink:href="classlog4cplus_1_1SysLogAppender.html" target="_top" xlink:title="Appends log events to a file.">
<polygon fill="white" stroke="black" points="341,-850 341,-869 479,-869 479,-850 341,-850"/>
<text text-anchor="middle" x="410" y="-857" font-family="'Souce Sans Pro', Roboto, FreeSans, sans-serif" font-size="10.00">log4cplus::SysLogAppender</text>
</a>
</g>
</g>
<!-- Node34&#45;&gt;Node36 -->
<g id="edge7" class="edge">
<title>Node34&#45;&gt;Node36</title>
<path fill="none" stroke="darkgreen" d="M297.35,-861.32C311.69,-861.09 326.71,-860.84 340.91,-860.61"/>
<polygon fill="darkgreen" stroke="darkgreen" points="296.98,-857.83 287.04,-861.49 297.09,-864.82 296.98,-857.83"/>
</g>
<!-- Node66 -->
<g id="node10" class="node">
<title>Node66</title>
<g id="a_node10"><a xlink:href="classlog4cplus_1_1helpers_1_1SharedObject.html" target="_top" xlink:title=" ">
<polygon fill="white" stroke="black" points="14,-221.5 14,-251.5 109,-251.5 109,-221.5 14,-221.5"/>
<text text-anchor="start" x="22" y="-239.5" font-family="'Souce Sans Pro', Roboto, FreeSans, sans-serif" font-size="10.00">log4cplus::helpers</text>
<text text-anchor="middle" x="61.5" y="-228.5" font-family="'Souce Sans Pro', Roboto, FreeSans, sans-serif" font-size="10.00">::SharedObject</text>
</a>
</g>
</g>
<!-- Node66&#45;&gt;Node4 -->
<g id="edge36" class="edge">
<title>Node66&#45;&gt;Node4</title>
<path fill="none" stroke="midnightblue" d="M62.98,-261.72C65.5,-369.14 80.31,-787.59 159,-887.5 184.63,-920.04 298.4,-949.45 363.28,-963.96"/>
<polygon fill="midnightblue" stroke="midnightblue" points="66.47,-261.43 62.76,-251.51 59.48,-261.59 66.47,-261.43"/>
</g>
<!-- Node67 -->
<g id="node11" class="node">
<title>Node67</title>
<g id="a_node11"><a xlink:href="classlog4cplus_1_1Appender.html" target="_top" xlink:title="Extend this class for implementing your own strategies for printing log statements.">
<polygon fill="white" stroke="black" points="171,-629 171,-648 277,-648 277,-629 171,-629"/>
<text text-anchor="middle" x="224" y="-636" font-family="'Souce Sans Pro', Roboto, FreeSans, sans-serif" font-size="10.00">log4cplus::Appender</text>
</a>
</g>
</g>
<!-- Node66&#45;&gt;Node67 -->
<g id="edge8" class="edge">
<title>Node66&#45;&gt;Node67</title>
<path fill="none" stroke="midnightblue" d="M72.39,-261.27C103.51,-339.22 198.6,-577.38 219.08,-628.69"/>
<polygon fill="midnightblue" stroke="midnightblue" points="75.55,-259.76 68.6,-251.77 69.05,-262.35 75.55,-259.76"/>
</g>
<!-- Node84 -->
<g id="node28" class="node">
<title>Node84</title>
<g id="a_node28"><a xlink:href="classlog4cplus_1_1spi_1_1Filter.html" target="_top" xlink:title="Users should extend this class to implement customized logging event filtering.">
<polygon fill="white" stroke="black" points="173,-227 173,-246 275,-246 275,-227 173,-227"/>
<text text-anchor="middle" x="224" y="-234" font-family="'Souce Sans Pro', Roboto, FreeSans, sans-serif" font-size="10.00">log4cplus::spi::Filter</text>
</a>
</g>
</g>
<!-- Node66&#45;&gt;Node84 -->
<g id="edge28" class="edge">
<title>Node66&#45;&gt;Node84</title>
<path fill="none" stroke="midnightblue" d="M119.39,-236.5C136.79,-236.5 155.8,-236.5 172.73,-236.5"/>
<polygon fill="midnightblue" stroke="midnightblue" points="119.35,-233 109.35,-236.5 119.35,-240 119.35,-233"/>
</g>
<!-- Node92 -->
<g id="node36" class="node">
<title>Node92</title>
<g id="a_node36"><a xlink:href="classlog4cplus_1_1thread_1_1AbstractThread.html" target="_top" xlink:title="There are many cross&#45;platform C++ Threading libraries.">
<polygon fill="white" stroke="black" points="176.5,-177.5 176.5,-207.5 271.5,-207.5 271.5,-177.5 176.5,-177.5"/>
<text text-anchor="start" x="184.5" y="-195.5" font-family="'Souce Sans Pro', Roboto, FreeSans, sans-serif" font-size="10.00">log4cplus::thread::</text>
<text text-anchor="middle" x="224" y="-184.5" font-family="'Souce Sans Pro', Roboto, FreeSans, sans-serif" font-size="10.00">AbstractThread</text>
</a>
</g>
</g>
<!-- Node66&#45;&gt;Node92 -->
<g id="edge37" class="edge">
<title>Node66&#45;&gt;Node92</title>
<path fill="none" stroke="midnightblue" d="M119.23,-220.95C137.93,-215.82 158.5,-210.18 176.36,-205.28"/>
<polygon fill="midnightblue" stroke="midnightblue" points="118.07,-217.64 109.35,-223.66 119.92,-224.39 118.07,-217.64"/>
</g>
<!-- Node94 -->
<g id="node38" class="node">
<title>Node94</title>
<g id="a_node38"><a xlink:href="classlog4cplus_1_1thread_1_1Queue.html" target="_top" xlink:title="Single consumer, multiple producers queue.">
<polygon fill="white" stroke="black" points="176.5,-128.5 176.5,-158.5 271.5,-158.5 271.5,-128.5 176.5,-128.5"/>
<text text-anchor="start" x="184.5" y="-146.5" font-family="'Souce Sans Pro', Roboto, FreeSans, sans-serif" font-size="10.00">log4cplus::thread::</text>
<text text-anchor="middle" x="224" y="-135.5" font-family="'Souce Sans Pro', Roboto, FreeSans, sans-serif" font-size="10.00">Queue</text>
</a>
</g>
</g>
<!-- Node66&#45;&gt;Node94 -->
<g id="edge39" class="edge">
<title>Node66&#45;&gt;Node94</title>
<path fill="none" stroke="midnightblue" d="M89.28,-214.97C108.04,-200.57 134.11,-181.88 159,-168.5 165.62,-164.94 172.86,-161.62 180.01,-158.64"/>
<polygon fill="midnightblue" stroke="midnightblue" points="86.95,-212.35 81.2,-221.25 91.24,-217.88 86.95,-212.35"/>
</g>
<!-- Node67&#45;&gt;Node3 -->
<g id="edge9" class="edge">
<title>Node67&#45;&gt;Node3</title>
<path fill="none" stroke="midnightblue" d="M230.85,-658.07C249.02,-718.38 304.56,-898.43 325,-916.5 330.38,-921.25 336.69,-924.89 343.4,-927.67"/>
<polygon fill="midnightblue" stroke="midnightblue" points="234.13,-656.84 227.9,-648.27 227.43,-658.85 234.13,-656.84"/>
</g>
<!-- Node67&#45;&gt;Node35 -->
<g id="edge25" class="edge">
<title>Node67&#45;&gt;Node35</title>
<path fill="none" stroke="midnightblue" d="M227.17,-658.27C233.32,-704.44 255.25,-819.85 325,-878.5 329.81,-882.54 335.3,-885.77 341.12,-888.34"/>
<polygon fill="midnightblue" stroke="midnightblue" points="230.61,-657.6 225.92,-648.1 223.66,-658.45 230.61,-657.6"/>
</g>
<!-- Node67&#45;&gt;Node36 -->
<g id="edge26" class="edge">
<title>Node67&#45;&gt;Node36</title>
<path fill="none" stroke="midnightblue" d="M228.84,-658.18C237.87,-698.96 264.44,-792.84 325,-840.5 329.82,-844.29 335.25,-847.36 340.97,-849.83"/>
<polygon fill="midnightblue" stroke="midnightblue" points="232.26,-657.45 226.79,-648.38 225.41,-658.89 232.26,-657.45"/>
</g>
<!-- Node68 -->
<g id="node12" class="node">
<title>Node68</title>
<g id="a_node12"><a xlink:href="classlog4cplus_1_1CLFSAppender.html" target="_top" xlink:title=" ">
<polygon fill="white" stroke="black" points="345.5,-812 345.5,-831 474.5,-831 474.5,-812 345.5,-812"/>
<text text-anchor="middle" x="410" y="-819" font-family="'Souce Sans Pro', Roboto, FreeSans, sans-serif" font-size="10.00">log4cplus::CLFSAppender</text>
</a>
</g>
</g>
<!-- Node67&#45;&gt;Node68 -->
<g id="edge10" class="edge">
<title>Node67&#45;&gt;Node68</title>
<path fill="none" stroke="midnightblue" d="M231.18,-657.99C243.25,-692.8 273.43,-765.46 325,-802.5 331.07,-806.86 337.98,-810.24 345.16,-812.86"/>
<polygon fill="midnightblue" stroke="midnightblue" points="234.37,-656.5 227.89,-648.12 227.73,-658.71 234.37,-656.5"/>
</g>
<!-- Node69 -->
<g id="node13" class="node">
<title>Node69</title>
<g id="a_node13"><a xlink:href="classlog4cplus_1_1CallbackAppender.html" target="_top" xlink:title="Send log events to a C function callback.">
<polygon fill="white" stroke="black" points="338.5,-774 338.5,-793 481.5,-793 481.5,-774 338.5,-774"/>
<text text-anchor="middle" x="410" y="-781" font-family="'Souce Sans Pro', Roboto, FreeSans, sans-serif" font-size="10.00">log4cplus::CallbackAppender</text>
</a>
</g>
</g>
<!-- Node67&#45;&gt;Node69 -->
<g id="edge11" class="edge">
<title>Node67&#45;&gt;Node69</title>
<path fill="none" stroke="midnightblue" d="M234.53,-657.36C249.69,-685.36 282.04,-737.5 325,-764.5 331.2,-768.4 338.11,-771.5 345.22,-773.97"/>
<polygon fill="midnightblue" stroke="midnightblue" points="237.48,-655.46 229.73,-648.23 231.28,-658.71 237.48,-655.46"/>
</g>
<!-- Node70 -->
<g id="node14" class="node">
<title>Node70</title>
<g id="a_node14"><a xlink:href="classlog4cplus_1_1ConsoleAppender.html" target="_top" xlink:title="ConsoleAppender appends log events to std::cout or std::cerr using a layout specified by the user.">
<polygon fill="white" stroke="black" points="338.5,-736 338.5,-755 481.5,-755 481.5,-736 338.5,-736"/>
<text text-anchor="middle" x="410" y="-743" font-family="'Souce Sans Pro', Roboto, FreeSans, sans-serif" font-size="10.00">log4cplus::ConsoleAppender</text>
</a>
</g>
</g>
<!-- Node67&#45;&gt;Node70 -->
<g id="edge12" class="edge">
<title>Node67&#45;&gt;Node70</title>
<path fill="none" stroke="midnightblue" d="M239.78,-655.97C257.81,-676.12 290.22,-708.74 325,-726.5 332.59,-730.38 340.97,-733.47 349.4,-735.93"/>
<polygon fill="midnightblue" stroke="midnightblue" points="242.18,-653.4 232.97,-648.18 236.91,-658.01 242.18,-653.4"/>
</g>
<!-- Node71 -->
<g id="node15" class="node">
<title>Node71</title>
<g id="a_node15"><a xlink:href="classlog4cplus_1_1DeviceAppender.html" target="_top" xlink:title=" ">
<polygon fill="white" stroke="black" points="342.5,-686.5 342.5,-716.5 477.5,-716.5 477.5,-686.5 342.5,-686.5"/>
<text text-anchor="start" x="350.5" y="-704.5" font-family="'Souce Sans Pro', Roboto, FreeSans, sans-serif" font-size="10.00">log4cplus::DeviceAppender</text>
<text text-anchor="middle" x="410" y="-693.5" font-family="'Souce Sans Pro', Roboto, FreeSans, sans-serif" font-size="10.00">&lt; Device &gt;</text>
</a>
</g>
</g>
<!-- Node67&#45;&gt;Node71 -->
<g id="edge13" class="edge">
<title>Node67&#45;&gt;Node71</title>
<path fill="none" stroke="midnightblue" d="M257.97,-651.73C277.36,-659.33 302.42,-668.86 325,-676.5 335.09,-679.91 345.94,-683.33 356.38,-686.49"/>
<polygon fill="midnightblue" stroke="midnightblue" points="259.25,-648.47 248.66,-648.06 256.68,-654.98 259.25,-648.47"/>
</g>
<!-- Node72 -->
<g id="node16" class="node">
<title>Node72</title>
<g id="a_node16"><a xlink:href="classlog4cplus_1_1FileAppenderBase.html" target="_top" xlink:title="Base class for Appenders writing log events to a file.">
<polygon fill="white" stroke="black" points="338.5,-648 338.5,-667 481.5,-667 481.5,-648 338.5,-648"/>
<text text-anchor="middle" x="410" y="-655" font-family="'Souce Sans Pro', Roboto, FreeSans, sans-serif" font-size="10.00">log4cplus::FileAppenderBase</text>
</a>
</g>
</g>
<!-- Node67&#45;&gt;Node72 -->
<g id="edge14" class="edge">
<title>Node67&#45;&gt;Node72</title>
<path fill="none" stroke="midnightblue" d="M287.27,-644.93C303.71,-646.63 321.58,-648.47 338.42,-650.21"/>
<polygon fill="midnightblue" stroke="midnightblue" points="287.54,-641.44 277.23,-643.89 286.82,-648.4 287.54,-641.44"/>
</g>
<!-- Node77 -->
<g id="node21" class="node">
<title>Node77</title>
<g id="a_node21"><a xlink:href="classlog4cplus_1_1Log4jUdpAppender.html" target="_top" xlink:title="Sends log events as Log4j XML to a remote a log server.">
<polygon fill="white" stroke="black" points="336,-610 336,-629 484,-629 484,-610 336,-610"/>
<text text-anchor="middle" x="410" y="-617" font-family="'Souce Sans Pro', Roboto, FreeSans, sans-serif" font-size="10.00">log4cplus::Log4jUdpAppender</text>
</a>
</g>
</g>
<!-- Node67&#45;&gt;Node77 -->
<g id="edge19" class="edge">
<title>Node67&#45;&gt;Node77</title>
<path fill="none" stroke="midnightblue" d="M287.26,-632.07C302.82,-630.46 319.65,-628.73 335.69,-627.07"/>
<polygon fill="midnightblue" stroke="midnightblue" points="286.82,-628.6 277.23,-633.11 287.54,-635.56 286.82,-628.6"/>
</g>
<!-- Node78 -->
<g id="node22" class="node">
<title>Node78</title>
<g id="a_node22"><a xlink:href="classlog4cplus_1_1MSTTSAppender.html" target="_top" xlink:title=" ">
<polygon fill="white" stroke="black" points="340.5,-572 340.5,-591 479.5,-591 479.5,-572 340.5,-572"/>
<text text-anchor="middle" x="410" y="-579" font-family="'Souce Sans Pro', Roboto, FreeSans, sans-serif" font-size="10.00">log4cplus::MSTTSAppender</text>
</a>
</g>
</g>
<!-- Node67&#45;&gt;Node78 -->
<g id="edge20" class="edge">
<title>Node67&#45;&gt;Node78</title>
<path fill="none" stroke="midnightblue" d="M256.63,-625.17C276.11,-617.29 301.73,-607.52 325,-600.5 336.6,-597 349.26,-593.82 361.16,-591.1"/>
<polygon fill="midnightblue" stroke="midnightblue" points="255.25,-621.95 247.33,-628.98 257.91,-628.43 255.25,-621.95"/>
</g>
<!-- Node79 -->
<g id="node23" class="node">
<title>Node79</title>
<g id="a_node23"><a xlink:href="classlog4cplus_1_1NTEventLogAppender.html" target="_top" xlink:title="Appends log events to NT EventLog.">
<polygon fill="white" stroke="black" points="331,-534 331,-553 489,-553 489,-534 331,-534"/>
<text text-anchor="middle" x="410" y="-541" font-family="'Souce Sans Pro', Roboto, FreeSans, sans-serif" font-size="10.00">log4cplus::NTEventLogAppender</text>
</a>
</g>
</g>
<!-- Node67&#45;&gt;Node79 -->
<g id="edge21" class="edge">
<title>Node67&#45;&gt;Node79</title>
<path fill="none" stroke="midnightblue" d="M241.98,-621.89C260.75,-604.47 292.63,-577.59 325,-562.5 333.27,-558.65 342.36,-555.55 351.42,-553.07"/>
<polygon fill="midnightblue" stroke="midnightblue" points="239.41,-619.51 234.55,-628.93 244.22,-624.59 239.41,-619.51"/>
</g>
<!-- Node80 -->
<g id="node24" class="node">
<title>Node80</title>
<g id="a_node24"><a xlink:href="classlog4cplus_1_1NullAppender.html" target="_top" xlink:title="Appends log events to a file.">
<polygon fill="white" stroke="black" points="348.5,-496 348.5,-515 471.5,-515 471.5,-496 348.5,-496"/>
<text text-anchor="middle" x="410" y="-503" font-family="'Souce Sans Pro', Roboto, FreeSans, sans-serif" font-size="10.00">log4cplus::NullAppender</text>
</a>
</g>
</g>
<!-- Node67&#45;&gt;Node80 -->
<g id="edge22" class="edge">
<title>Node67&#45;&gt;Node80</title>
<path fill="none" stroke="midnightblue" d="M235.91,-619.97C252.03,-594.33 284.67,-548.49 325,-524.5 332.2,-520.22 340.26,-516.9 348.48,-514.33"/>
<polygon fill="midnightblue" stroke="midnightblue" points="232.79,-618.36 230.57,-628.72 238.77,-622.01 232.79,-618.36"/>
</g>
<!-- Node81 -->
<g id="node25" class="node">
<title>Node81</title>
<g id="a_node25"><a xlink:href="classlog4cplus_1_1Qt4DebugAppender.html" target="_top" xlink:title=" ">
<polygon fill="white" stroke="black" points="335.5,-458 335.5,-477 484.5,-477 484.5,-458 335.5,-458"/>
<text text-anchor="middle" x="410" y="-465" font-family="'Souce Sans Pro', Roboto, FreeSans, sans-serif" font-size="10.00">log4cplus::Qt4DebugAppender</text>
</a>
</g>
</g>
<!-- Node67&#45;&gt;Node81 -->
<g id="edge23" class="edge">
<title>Node67&#45;&gt;Node81</title>
<path fill="none" stroke="midnightblue" d="M232.13,-619.06C245.21,-586.28 276.24,-520.27 325,-486.5 330.53,-482.67 336.71,-479.6 343.15,-477.14"/>
<polygon fill="midnightblue" stroke="midnightblue" points="228.71,-618.22 228.39,-628.81 235.24,-620.73 228.71,-618.22"/>
</g>
<!-- Node82 -->
<g id="node26" class="node">
<title>Node82</title>
<g id="a_node26"><a xlink:href="classlog4cplus_1_1Qt5DebugAppender.html" target="_top" xlink:title=" ">
<polygon fill="white" stroke="black" points="335.5,-420 335.5,-439 484.5,-439 484.5,-420 335.5,-420"/>
<text text-anchor="middle" x="410" y="-427" font-family="'Souce Sans Pro', Roboto, FreeSans, sans-serif" font-size="10.00">log4cplus::Qt5DebugAppender</text>
</a>
</g>
</g>
<!-- Node67&#45;&gt;Node82 -->
<g id="edge24" class="edge">
<title>Node67&#45;&gt;Node82</title>
<path fill="none" stroke="midnightblue" d="M229.47,-618.93C239.44,-580 267.27,-492.79 325,-448.5 329.98,-444.68 335.59,-441.6 341.49,-439.12"/>
<polygon fill="midnightblue" stroke="midnightblue" points="226.05,-618.21 227.08,-628.76 232.85,-619.87 226.05,-618.21"/>
</g>
<!-- Node83 -->
<g id="node27" class="node">
<title>Node83</title>
<g id="a_node27"><a xlink:href="classlog4cplus_1_1Win32ConsoleAppender.html" target="_top" xlink:title="Prints events to Win32 console.">
<polygon fill="white" stroke="black" points="325,-382 325,-401 495,-401 495,-382 325,-382"/>
<text text-anchor="middle" x="410" y="-389" font-family="'Souce Sans Pro', Roboto, FreeSans, sans-serif" font-size="10.00">log4cplus::Win32ConsoleAppender</text>
</a>
</g>
</g>
<!-- Node67&#45;&gt;Node83 -->
<g id="edge27" class="edge">
<title>Node67&#45;&gt;Node83</title>
<path fill="none" stroke="midnightblue" d="M227.63,-618.8C234.67,-574.32 258.15,-465.67 325,-410.5 329.61,-406.69 334.83,-403.61 340.36,-401.12"/>
<polygon fill="midnightblue" stroke="midnightblue" points="224.14,-618.48 226.15,-628.88 231.07,-619.5 224.14,-618.48"/>
</g>
<!-- Node73 -->
<g id="node17" class="node">
<title>Node73</title>
<g id="a_node17"><a xlink:href="classlog4cplus_1_1FileAppender.html" target="_top" xlink:title="Appends log events to a file.">
<polygon fill="white" stroke="black" points="542,-670 542,-689 663,-689 663,-670 542,-670"/>
<text text-anchor="middle" x="602.5" y="-677" font-family="'Souce Sans Pro', Roboto, FreeSans, sans-serif" font-size="10.00">log4cplus::FileAppender</text>
</a>
</g>
</g>
<!-- Node72&#45;&gt;Node73 -->
<g id="edge15" class="edge">
<title>Node72&#45;&gt;Node73</title>
<path fill="none" stroke="midnightblue" d="M491.99,-666.85C508.73,-668.79 526.07,-670.79 541.88,-672.61"/>
<polygon fill="midnightblue" stroke="midnightblue" points="492,-663.33 481.66,-665.66 491.2,-670.28 492,-663.33"/>
</g>
<!-- Node76 -->
<g id="node20" class="node">
<title>Node76</title>
<g id="a_node20"><a xlink:href="classlog4cplus_1_1TimeBasedRollingFileAppender.html" target="_top" xlink:title="TimeBasedRollingFileAppender extends FileAppenderBase so that the underlying file is rolled over at a...">
<polygon fill="white" stroke="black" points="531,-620.5 531,-650.5 674,-650.5 674,-620.5 531,-620.5"/>
<text text-anchor="start" x="539" y="-638.5" font-family="'Souce Sans Pro', Roboto, FreeSans, sans-serif" font-size="10.00">log4cplus::TimeBasedRolling</text>
<text text-anchor="middle" x="602.5" y="-627.5" font-family="'Souce Sans Pro', Roboto, FreeSans, sans-serif" font-size="10.00">FileAppender</text>
</a>
</g>
</g>
<!-- Node72&#45;&gt;Node76 -->
<g id="edge18" class="edge">
<title>Node72&#45;&gt;Node76</title>
<path fill="none" stroke="midnightblue" d="M491.96,-648.15C504.93,-646.65 518.25,-645.11 530.95,-643.65"/>
<polygon fill="midnightblue" stroke="midnightblue" points="491.2,-644.72 481.66,-649.34 492,-651.67 491.2,-644.72"/>
</g>
<!-- Node74 -->
<g id="node18" class="node">
<title>Node74</title>
<g id="a_node18"><a xlink:href="classlog4cplus_1_1DailyRollingFileAppender.html" target="_top" xlink:title="DailyRollingFileAppender extends FileAppender so that the underlying file is rolled over at a user ch...">
<polygon fill="white" stroke="black" points="721,-686.5 721,-716.5 849,-716.5 849,-686.5 721,-686.5"/>
<text text-anchor="start" x="729" y="-704.5" font-family="'Souce Sans Pro', Roboto, FreeSans, sans-serif" font-size="10.00">log4cplus::DailyRollingFile</text>
<text text-anchor="middle" x="785" y="-693.5" font-family="'Souce Sans Pro', Roboto, FreeSans, sans-serif" font-size="10.00">Appender</text>
</a>
</g>
</g>
<!-- Node73&#45;&gt;Node74 -->
<g id="edge16" class="edge">
<title>Node73&#45;&gt;Node74</title>
<path fill="none" stroke="midnightblue" d="M673.23,-688C688.87,-689.91 705.38,-691.92 720.74,-693.79"/>
<polygon fill="midnightblue" stroke="midnightblue" points="673.45,-684.5 663.1,-686.76 672.61,-691.45 673.45,-684.5"/>
</g>
<!-- Node75 -->
<g id="node19" class="node">
<title>Node75</title>
<g id="a_node19"><a xlink:href="classlog4cplus_1_1RollingFileAppender.html" target="_top" xlink:title="RollingFileAppender extends FileAppender to backup the log files when they reach a certain size.">
<polygon fill="white" stroke="black" points="710,-648 710,-667 860,-667 860,-648 710,-648"/>
<text text-anchor="middle" x="785" y="-655" font-family="'Souce Sans Pro', Roboto, FreeSans, sans-serif" font-size="10.00">log4cplus::RollingFileAppender</text>
</a>
</g>
</g>
<!-- Node73&#45;&gt;Node75 -->
<g id="edge17" class="edge">
<title>Node73&#45;&gt;Node75</title>
<path fill="none" stroke="midnightblue" d="M673.1,-671.02C685.18,-669.54 697.78,-668.01 709.97,-666.52"/>
<polygon fill="midnightblue" stroke="midnightblue" points="672.61,-667.55 663.1,-672.24 673.45,-674.5 672.61,-667.55"/>
</g>
<!-- Node85 -->
<g id="node29" class="node">
<title>Node85</title>
<g id="a_node29"><a xlink:href="classlog4cplus_1_1spi_1_1DenyAllFilter.html" target="_top" xlink:title="This filter drops all logging events.">
<polygon fill="white" stroke="black" points="342.5,-344 342.5,-363 477.5,-363 477.5,-344 342.5,-344"/>
<text text-anchor="middle" x="410" y="-351" font-family="'Souce Sans Pro', Roboto, FreeSans, sans-serif" font-size="10.00">log4cplus::spi::DenyAllFilter</text>
</a>
</g>
</g>
<!-- Node84&#45;&gt;Node85 -->
<g id="edge29" class="edge">
<title>Node84&#45;&gt;Node85</title>
<path fill="none" stroke="midnightblue" d="M238.03,-254.32C255.33,-276.64 288.04,-314.36 325,-334.5 332.09,-338.36 339.93,-341.44 347.88,-343.89"/>
<polygon fill="midnightblue" stroke="midnightblue" points="240.61,-251.93 231.79,-246.07 235.03,-256.15 240.61,-251.93"/>
</g>
<!-- Node86 -->
<g id="node30" class="node">
<title>Node86</title>
<g id="a_node30"><a xlink:href="classlog4cplus_1_1spi_1_1FunctionFilter.html" target="_top" xlink:title="This filter allows using std::function&lt;FilterResult(const InternalLoggingEvent &amp;)&gt;.">
<polygon fill="white" stroke="black" points="351,-294.5 351,-324.5 469,-324.5 469,-294.5 351,-294.5"/>
<text text-anchor="start" x="359" y="-312.5" font-family="'Souce Sans Pro', Roboto, FreeSans, sans-serif" font-size="10.00">log4cplus::spi::Function</text>
<text text-anchor="middle" x="410" y="-301.5" font-family="'Souce Sans Pro', Roboto, FreeSans, sans-serif" font-size="10.00">Filter</text>
</a>
</g>
</g>
<!-- Node84&#45;&gt;Node86 -->
<g id="edge30" class="edge">
<title>Node84&#45;&gt;Node86</title>
<path fill="none" stroke="midnightblue" d="M251.31,-250.99C271.15,-261.52 299.26,-275.6 325,-285.5 333.35,-288.71 342.32,-291.72 351.17,-294.44"/>
<polygon fill="midnightblue" stroke="midnightblue" points="252.75,-247.79 242.28,-246.14 249.43,-253.96 252.75,-247.79"/>
</g>
<!-- Node87 -->
<g id="node31" class="node">
<title>Node87</title>
<g id="a_node31"><a xlink:href="classlog4cplus_1_1spi_1_1LogLevelMatchFilter.html" target="_top" xlink:title="This is a very simple filter based on LogLevel matching.">
<polygon fill="white" stroke="black" points="350.5,-245.5 350.5,-275.5 469.5,-275.5 469.5,-245.5 350.5,-245.5"/>
<text text-anchor="start" x="358.5" y="-263.5" font-family="'Souce Sans Pro', Roboto, FreeSans, sans-serif" font-size="10.00">log4cplus::spi::LogLevel</text>
<text text-anchor="middle" x="410" y="-252.5" font-family="'Souce Sans Pro', Roboto, FreeSans, sans-serif" font-size="10.00">MatchFilter</text>
</a>
</g>
</g>
<!-- Node84&#45;&gt;Node87 -->
<g id="edge31" class="edge">
<title>Node84&#45;&gt;Node87</title>
<path fill="none" stroke="midnightblue" d="M285.31,-244.37C306.19,-247.09 329.56,-250.14 350.31,-252.84"/>
<polygon fill="midnightblue" stroke="midnightblue" points="285.65,-240.88 275.28,-243.06 284.74,-247.82 285.65,-240.88"/>
</g>
<!-- Node88 -->
<g id="node32" class="node">
<title>Node88</title>
<g id="a_node32"><a xlink:href="classlog4cplus_1_1spi_1_1LogLevelRangeFilter.html" target="_top" xlink:title="This is a very simple filter based on LogLevel matching, which can be used to reject messages with Lo...">
<polygon fill="white" stroke="black" points="350.5,-196.5 350.5,-226.5 469.5,-226.5 469.5,-196.5 350.5,-196.5"/>
<text text-anchor="start" x="358.5" y="-214.5" font-family="'Souce Sans Pro', Roboto, FreeSans, sans-serif" font-size="10.00">log4cplus::spi::LogLevel</text>
<text text-anchor="middle" x="410" y="-203.5" font-family="'Souce Sans Pro', Roboto, FreeSans, sans-serif" font-size="10.00">RangeFilter</text>
</a>
</g>
</g>
<!-- Node84&#45;&gt;Node88 -->
<g id="edge32" class="edge">
<title>Node84&#45;&gt;Node88</title>
<path fill="none" stroke="midnightblue" d="M285.31,-228.31C306.19,-225.47 329.56,-222.29 350.31,-219.47"/>
<polygon fill="midnightblue" stroke="midnightblue" points="284.72,-224.85 275.28,-229.67 285.66,-231.79 284.72,-224.85"/>
</g>
<!-- Node89 -->
<g id="node33" class="node">
<title>Node89</title>
<g id="a_node33"><a xlink:href="classlog4cplus_1_1spi_1_1MDCMatchFilter.html" target="_top" xlink:title="This is a simple filter based on the key/value pair stored in MDC.">
<polygon fill="white" stroke="black" points="344.5,-147.5 344.5,-177.5 475.5,-177.5 475.5,-147.5 344.5,-147.5"/>
<text text-anchor="start" x="352.5" y="-165.5" font-family="'Souce Sans Pro', Roboto, FreeSans, sans-serif" font-size="10.00">log4cplus::spi::MDCMatch</text>
<text text-anchor="middle" x="410" y="-154.5" font-family="'Souce Sans Pro', Roboto, FreeSans, sans-serif" font-size="10.00">Filter</text>
</a>
</g>
</g>
<!-- Node84&#45;&gt;Node89 -->
<g id="edge33" class="edge">
<title>Node84&#45;&gt;Node89</title>
<path fill="none" stroke="midnightblue" d="M275.75,-223.55C280.33,-221.75 284.81,-219.74 289,-217.5 307.36,-207.67 306.64,-197.34 325,-187.5 332.11,-183.69 339.87,-180.39 347.72,-177.54"/>
<polygon fill="midnightblue" stroke="midnightblue" points="274.51,-220.27 266.27,-226.94 276.87,-226.87 274.51,-220.27"/>
</g>
<!-- Node90 -->
<g id="node34" class="node">
<title>Node90</title>
<g id="a_node34"><a xlink:href="classlog4cplus_1_1spi_1_1NDCMatchFilter.html" target="_top" xlink:title="This is a simple filter based on the string returned by event.getNDC().">
<polygon fill="white" stroke="black" points="345.5,-98.5 345.5,-128.5 474.5,-128.5 474.5,-98.5 345.5,-98.5"/>
<text text-anchor="start" x="353.5" y="-116.5" font-family="'Souce Sans Pro', Roboto, FreeSans, sans-serif" font-size="10.00">log4cplus::spi::NDCMatch</text>
<text text-anchor="middle" x="410" y="-105.5" font-family="'Souce Sans Pro', Roboto, FreeSans, sans-serif" font-size="10.00">Filter</text>
</a>
</g>
</g>
<!-- Node84&#45;&gt;Node90 -->
<g id="edge34" class="edge">
<title>Node84&#45;&gt;Node90</title>
<path fill="none" stroke="midnightblue" d="M282.75,-222.15C284.95,-220.74 287.05,-219.2 289,-217.5 318.11,-192.18 295.9,-163.83 325,-138.5 330.97,-133.31 337.98,-129.19 345.36,-125.93"/>
<polygon fill="midnightblue" stroke="midnightblue" points="280.98,-219.13 273.81,-226.92 284.28,-225.3 280.98,-219.13"/>
</g>
<!-- Node91 -->
<g id="node35" class="node">
<title>Node91</title>
<g id="a_node35"><a xlink:href="classlog4cplus_1_1spi_1_1StringMatchFilter.html" target="_top" xlink:title="This is a very simple filter based on string matching.">
<polygon fill="white" stroke="black" points="343,-49.5 343,-79.5 477,-79.5 477,-49.5 343,-49.5"/>
<text text-anchor="start" x="351" y="-67.5" font-family="'Souce Sans Pro', Roboto, FreeSans, sans-serif" font-size="10.00">log4cplus::spi::StringMatch</text>
<text text-anchor="middle" x="410" y="-56.5" font-family="'Souce Sans Pro', Roboto, FreeSans, sans-serif" font-size="10.00">Filter</text>
</a>
</g>
</g>
<!-- Node84&#45;&gt;Node91 -->
<g id="edge35" class="edge">
<title>Node84&#45;&gt;Node91</title>
<path fill="none" stroke="midnightblue" d="M283.77,-222.02C285.63,-220.65 287.38,-219.14 289,-217.5 330.48,-175.41 283.53,-131.6 325,-89.5 330.13,-84.3 336.28,-80.17 342.9,-76.89"/>
<polygon fill="midnightblue" stroke="midnightblue" points="281.82,-219.11 275.04,-227.26 285.42,-225.11 281.82,-219.11"/>
</g>
<!-- Node93 -->
<g id="node37" class="node">
<title>Node93</title>
<g id="a_node37"><a xlink:href="classlog4cplus_1_1helpers_1_1ConnectorThread.html" target="_top" xlink:title="This class is used by SocketAppender and (remote) SysLogAppender to provide asynchronous re&#45;connectio...">
<polygon fill="white" stroke="black" points="361,-0.5 361,-30.5 459,-30.5 459,-0.5 361,-0.5"/>
<text text-anchor="start" x="369" y="-18.5" font-family="'Souce Sans Pro', Roboto, FreeSans, sans-serif" font-size="10.00">log4cplus::helpers</text>
<text text-anchor="middle" x="410" y="-7.5" font-family="'Souce Sans Pro', Roboto, FreeSans, sans-serif" font-size="10.00">::ConnectorThread</text>
</a>
</g>
</g>
<!-- Node92&#45;&gt;Node93 -->
<g id="edge38" class="edge">
<title>Node92&#45;&gt;Node93</title>
<path fill="none" stroke="midnightblue" d="M280.39,-175.93C283.53,-173.75 286.44,-171.29 289,-168.5 329.23,-124.63 283.04,-81.72 325,-39.5 334.62,-29.82 347.86,-23.98 360.98,-20.47"/>
<polygon fill="midnightblue" stroke="midnightblue" points="278.5,-172.99 271.64,-181.07 282.04,-179.03 278.5,-172.99"/>
</g>
</g>
</svg>
