<?xml version="1.0" encoding="UTF-8" standalone="no"?>
<!DOCTYPE svg PUBLIC "-//W3C//DTD SVG 1.1//EN"
 "http://www.w3.org/Graphics/SVG/1.1/DTD/svg11.dtd">
<!-- Generated by graphviz version 2.43.0 (0)
 -->
<!-- Title: Graphical Class Hierarchy Pages: 1 -->
<svg width="357pt" height="28pt"
 viewBox="0.00 0.00 357.00 28.00" xmlns="http://www.w3.org/2000/svg" xmlns:xlink="http://www.w3.org/1999/xlink">
<g id="graph0" class="graph" transform="scale(1 1) rotate(0) translate(4 24)">
<title>Graphical Class Hierarchy</title>
<polygon fill="white" stroke="transparent" points="-4,4 -4,-24 353,-24 353,4 -4,4"/>
<!-- Node27 -->
<g id="node1" class="node">
<title>Node27</title>
<g id="a_node1"><a xlink:title=" ">
<polygon fill="white" stroke="#bfbfbf" points="0,-0.5 0,-19.5 77,-19.5 77,-0.5 0,-0.5"/>
<text text-anchor="middle" x="38.5" y="-7.5" font-family="'Souce Sans Pro', Roboto, FreeSans, sans-serif" font-size="10.00">std::exception</text>
</a>
</g>
</g>
<!-- Node28 -->
<g id="node2" class="node">
<title>Node28</title>
<g id="a_node2"><a xlink:title=" ">
<polygon fill="white" stroke="#bfbfbf" points="113,-0.5 113,-19.5 208,-19.5 208,-0.5 113,-0.5"/>
<text text-anchor="middle" x="160.5" y="-7.5" font-family="'Souce Sans Pro', Roboto, FreeSans, sans-serif" font-size="10.00">std::runtime_error</text>
</a>
</g>
</g>
<!-- Node27&#45;&gt;Node28 -->
<g id="edge1" class="edge">
<title>Node27&#45;&gt;Node28</title>
<path fill="none" stroke="midnightblue" d="M87.18,-10C95.58,-10 104.32,-10 112.7,-10"/>
<polygon fill="midnightblue" stroke="midnightblue" points="87.14,-6.5 77.14,-10 87.14,-13.5 87.14,-6.5"/>
</g>
<!-- Node0 -->
<g id="node3" class="node">
<title>Node0</title>
<g id="a_node3"><a xlink:href="classlog4cplus_1_1exception.html" target="_top" xlink:title="Exception class thrown by LogLog.">
<polygon fill="white" stroke="black" points="244,-0.5 244,-19.5 349,-19.5 349,-0.5 244,-0.5"/>
<text text-anchor="middle" x="296.5" y="-7.5" font-family="'Souce Sans Pro', Roboto, FreeSans, sans-serif" font-size="10.00">log4cplus::exception</text>
</a>
</g>
</g>
<!-- Node28&#45;&gt;Node0 -->
<g id="edge2" class="edge">
<title>Node28&#45;&gt;Node0</title>
<path fill="none" stroke="midnightblue" d="M218.5,-10C226.92,-10 235.56,-10 243.86,-10"/>
<polygon fill="midnightblue" stroke="midnightblue" points="218.37,-6.5 208.37,-10 218.37,-13.5 218.37,-6.5"/>
</g>
</g>
</svg>
