<?xml version="1.0" encoding="UTF-8" standalone="no"?>
<!DOCTYPE svg PUBLIC "-//W3C//DTD SVG 1.1//EN"
 "http://www.w3.org/Graphics/SVG/1.1/DTD/svg11.dtd">
<!-- Generated by graphviz version 2.43.0 (0)
 -->
<!-- Title: socket.h Pages: 1 -->
<svg width="644pt" height="386pt"
 viewBox="0.00 0.00 644.00 386.00" xmlns="http://www.w3.org/2000/svg" xmlns:xlink="http://www.w3.org/1999/xlink">
<g id="graph0" class="graph" transform="scale(1 1) rotate(0) translate(4 382)">
<title>socket.h</title>
<polygon fill="white" stroke="transparent" points="-4,4 -4,-382 640,-382 640,4 -4,4"/>
<!-- Node1 -->
<g id="node1" class="node">
<title>Node1</title>
<g id="a_node1"><a xlink:title="This header contains declaration internal to log4cplus.">
<polygon fill="#bfbfbf" stroke="black" points="349.5,-358.5 349.5,-377.5 404.5,-377.5 404.5,-358.5 349.5,-358.5"/>
<text text-anchor="middle" x="377" y="-365.5" font-family="'Souce Sans Pro', Roboto, FreeSans, sans-serif" font-size="10.00">socket.h</text>
</a>
</g>
</g>
<!-- Node2 -->
<g id="node2" class="node">
<title>Node2</title>
<g id="a_node2"><a xlink:href="config_8hxx.html" target="_top" xlink:title=" ">
<polygon fill="white" stroke="black" points="82.5,-67.5 82.5,-86.5 191.5,-86.5 191.5,-67.5 82.5,-67.5"/>
<text text-anchor="middle" x="137" y="-74.5" font-family="'Souce Sans Pro', Roboto, FreeSans, sans-serif" font-size="10.00">log4cplus/config.hxx</text>
</a>
</g>
</g>
<!-- Node1&#45;&gt;Node2 -->
<g id="edge1" class="edge">
<title>Node1&#45;&gt;Node2</title>
<path fill="none" stroke="midnightblue" d="M349.23,-362.52C272.12,-349.29 61,-307.46 61,-246 61,-246 61,-246 61,-188 61,-148.28 94.96,-112.5 117.48,-93.15"/>
<polygon fill="midnightblue" stroke="midnightblue" points="119.98,-95.63 125.46,-86.57 115.52,-90.24 119.98,-95.63"/>
</g>
<!-- Node5 -->
<g id="node5" class="node">
<title>Node5</title>
<g id="a_node5"><a xlink:href="windowsh-inc_8h.html" target="_top" xlink:title=" ">
<polygon fill="white" stroke="black" points="386,-291.5 386,-321.5 526,-321.5 526,-291.5 386,-291.5"/>
<text text-anchor="start" x="394" y="-309.5" font-family="'Souce Sans Pro', Roboto, FreeSans, sans-serif" font-size="10.00">log4cplus/config/windowsh</text>
<text text-anchor="middle" x="456" y="-298.5" font-family="'Souce Sans Pro', Roboto, FreeSans, sans-serif" font-size="10.00">&#45;inc.h</text>
</a>
</g>
</g>
<!-- Node1&#45;&gt;Node5 -->
<g id="edge4" class="edge">
<title>Node1&#45;&gt;Node5</title>
<path fill="none" stroke="midnightblue" d="M388.32,-358.48C398.92,-350.49 415.17,-338.25 429.09,-327.77"/>
<polygon fill="midnightblue" stroke="midnightblue" points="431.5,-330.33 437.38,-321.52 427.29,-324.74 431.5,-330.33"/>
</g>
<!-- Node9 -->
<g id="node9" class="node">
<title>Node9</title>
<g id="a_node9"><a xlink:href="helpers_2socket_8h.html" target="_top" xlink:title=" ">
<polygon fill="white" stroke="black" points="230,-297 230,-316 368,-316 368,-297 230,-297"/>
<text text-anchor="middle" x="299" y="-304" font-family="'Souce Sans Pro', Roboto, FreeSans, sans-serif" font-size="10.00">log4cplus/helpers/socket.h</text>
</a>
</g>
</g>
<!-- Node1&#45;&gt;Node9 -->
<g id="edge8" class="edge">
<title>Node1&#45;&gt;Node9</title>
<path fill="none" stroke="midnightblue" d="M365.82,-358.48C353.43,-349.02 333.21,-333.6 318.25,-322.19"/>
<polygon fill="midnightblue" stroke="midnightblue" points="320.23,-319.29 310.15,-316.01 315.98,-324.86 320.23,-319.29"/>
</g>
<!-- Node16 -->
<g id="node16" class="node">
<title>Node16</title>
<g id="a_node16"><a xlink:title=" ">
<polygon fill="white" stroke="#bfbfbf" points="544,-297 544,-316 590,-316 590,-297 544,-297"/>
<text text-anchor="middle" x="567" y="-304" font-family="'Souce Sans Pro', Roboto, FreeSans, sans-serif" font-size="10.00">cerrno</text>
</a>
</g>
</g>
<!-- Node1&#45;&gt;Node16 -->
<g id="edge20" class="edge">
<title>Node1&#45;&gt;Node16</title>
<path fill="none" stroke="midnightblue" d="M404.51,-360.48C436.35,-352.64 490.15,-338.45 535,-322 536.61,-321.41 538.26,-320.77 539.91,-320.11"/>
<polygon fill="midnightblue" stroke="midnightblue" points="541.44,-323.26 549.25,-316.1 538.68,-316.82 541.44,-323.26"/>
</g>
<!-- Node3 -->
<g id="node3" class="node">
<title>Node3</title>
<g id="a_node3"><a xlink:href="win32_8h.html" target="_top" xlink:title=" ">
<polygon fill="white" stroke="black" points="0,-6 0,-25 128,-25 128,-6 0,-6"/>
<text text-anchor="middle" x="64" y="-13" font-family="'Souce Sans Pro', Roboto, FreeSans, sans-serif" font-size="10.00">log4cplus/config/win32.h</text>
</a>
</g>
</g>
<!-- Node2&#45;&gt;Node3 -->
<g id="edge2" class="edge">
<title>Node2&#45;&gt;Node3</title>
<path fill="none" stroke="midnightblue" d="M126.54,-67.48C115.05,-58.11 96.37,-42.88 82.41,-31.51"/>
<polygon fill="midnightblue" stroke="midnightblue" points="84.4,-28.61 74.44,-25.01 79.98,-34.04 84.4,-28.61"/>
</g>
<!-- Node4 -->
<g id="node4" class="node">
<title>Node4</title>
<g id="a_node4"><a xlink:href="thread-config_8h.html" target="_top" xlink:title=" ">
<polygon fill="white" stroke="black" points="146,-0.5 146,-30.5 274,-30.5 274,-0.5 146,-0.5"/>
<text text-anchor="start" x="154" y="-18.5" font-family="'Souce Sans Pro', Roboto, FreeSans, sans-serif" font-size="10.00">log4cplus/helpers/thread</text>
<text text-anchor="middle" x="210" y="-7.5" font-family="'Souce Sans Pro', Roboto, FreeSans, sans-serif" font-size="10.00">&#45;config.h</text>
</a>
</g>
</g>
<!-- Node2&#45;&gt;Node4 -->
<g id="edge3" class="edge">
<title>Node2&#45;&gt;Node4</title>
<path fill="none" stroke="midnightblue" d="M147.46,-67.48C157.16,-59.57 171.99,-47.48 184.77,-37.07"/>
<polygon fill="midnightblue" stroke="midnightblue" points="187.26,-39.55 192.8,-30.52 182.83,-34.13 187.26,-39.55"/>
</g>
<!-- Node6 -->
<g id="node6" class="node">
<title>Node6</title>
<g id="a_node6"><a xlink:title=" ">
<polygon fill="white" stroke="#bfbfbf" points="486.5,-235.5 486.5,-254.5 553.5,-254.5 553.5,-235.5 486.5,-235.5"/>
<text text-anchor="middle" x="520" y="-242.5" font-family="'Souce Sans Pro', Roboto, FreeSans, sans-serif" font-size="10.00">winsock2.h</text>
</a>
</g>
</g>
<!-- Node5&#45;&gt;Node6 -->
<g id="edge5" class="edge">
<title>Node5&#45;&gt;Node6</title>
<path fill="none" stroke="midnightblue" d="M471.17,-291.4C480.75,-282.49 493.16,-270.95 503.07,-261.74"/>
<polygon fill="midnightblue" stroke="midnightblue" points="505.75,-264.03 510.69,-254.66 500.98,-258.9 505.75,-264.03"/>
</g>
<!-- Node7 -->
<g id="node7" class="node">
<title>Node7</title>
<g id="a_node7"><a xlink:title=" ">
<polygon fill="white" stroke="#bfbfbf" points="572,-235.5 572,-254.5 636,-254.5 636,-235.5 572,-235.5"/>
<text text-anchor="middle" x="604" y="-242.5" font-family="'Souce Sans Pro', Roboto, FreeSans, sans-serif" font-size="10.00">ws2tcpip.h</text>
</a>
</g>
</g>
<!-- Node5&#45;&gt;Node7 -->
<g id="edge6" class="edge">
<title>Node5&#45;&gt;Node7</title>
<path fill="none" stroke="midnightblue" d="M491.07,-291.4C516.02,-281.37 549.21,-268.03 573.14,-258.4"/>
<polygon fill="midnightblue" stroke="midnightblue" points="574.49,-261.64 582.46,-254.66 571.88,-255.14 574.49,-261.64"/>
</g>
<!-- Node8 -->
<g id="node8" class="node">
<title>Node8</title>
<g id="a_node8"><a xlink:title=" ">
<polygon fill="white" stroke="#bfbfbf" points="403.5,-235.5 403.5,-254.5 468.5,-254.5 468.5,-235.5 403.5,-235.5"/>
<text text-anchor="middle" x="436" y="-242.5" font-family="'Souce Sans Pro', Roboto, FreeSans, sans-serif" font-size="10.00">windows.h</text>
</a>
</g>
</g>
<!-- Node5&#45;&gt;Node8 -->
<g id="edge7" class="edge">
<title>Node5&#45;&gt;Node8</title>
<path fill="none" stroke="midnightblue" d="M451.26,-291.4C448.53,-283.29 445.08,-273.01 442.14,-264.28"/>
<polygon fill="midnightblue" stroke="midnightblue" points="445.41,-263.02 438.91,-254.66 438.78,-265.25 445.41,-263.02"/>
</g>
<!-- Node9&#45;&gt;Node2 -->
<g id="edge9" class="edge">
<title>Node9&#45;&gt;Node2</title>
<path fill="none" stroke="midnightblue" d="M240.61,-296.96C193.59,-288.76 132.94,-274.68 118,-255 81.93,-207.48 111.06,-130.99 127.57,-96.23"/>
<polygon fill="midnightblue" stroke="midnightblue" points="130.91,-97.38 132.2,-86.87 124.63,-94.28 130.91,-97.38"/>
</g>
<!-- Node10 -->
<g id="node10" class="node">
<title>Node10</title>
<g id="a_node10"><a xlink:title=" ">
<polygon fill="white" stroke="#bfbfbf" points="347,-235.5 347,-254.5 385,-254.5 385,-235.5 347,-235.5"/>
<text text-anchor="middle" x="366" y="-242.5" font-family="'Souce Sans Pro', Roboto, FreeSans, sans-serif" font-size="10.00">array</text>
</a>
</g>
</g>
<!-- Node9&#45;&gt;Node10 -->
<g id="edge10" class="edge">
<title>Node9&#45;&gt;Node10</title>
<path fill="none" stroke="midnightblue" d="M308.6,-296.98C319.05,-287.7 335.97,-272.67 348.74,-261.33"/>
<polygon fill="midnightblue" stroke="midnightblue" points="351.27,-263.77 356.42,-254.51 346.62,-258.53 351.27,-263.77"/>
</g>
<!-- Node11 -->
<g id="node11" class="node">
<title>Node11</title>
<g id="a_node11"><a xlink:href="tstring_8h.html" target="_top" xlink:title=" ">
<polygon fill="white" stroke="black" points="174.5,-179.5 174.5,-198.5 273.5,-198.5 273.5,-179.5 174.5,-179.5"/>
<text text-anchor="middle" x="224" y="-186.5" font-family="'Souce Sans Pro', Roboto, FreeSans, sans-serif" font-size="10.00">log4cplus/tstring.h</text>
</a>
</g>
</g>
<!-- Node9&#45;&gt;Node11 -->
<g id="edge11" class="edge">
<title>Node9&#45;&gt;Node11</title>
<path fill="none" stroke="midnightblue" d="M301.84,-296.55C305.76,-282.43 311.15,-254.57 300,-235 291.59,-220.25 276.23,-209.84 261.52,-202.77"/>
<polygon fill="midnightblue" stroke="midnightblue" points="262.58,-199.42 252.02,-198.6 259.76,-205.83 262.58,-199.42"/>
</g>
<!-- Node15 -->
<g id="node15" class="node">
<title>Node15</title>
<g id="a_node15"><a xlink:href="socketbuffer_8h.html" target="_top" xlink:title=" ">
<polygon fill="white" stroke="black" points="127,-235.5 127,-254.5 291,-254.5 291,-235.5 127,-235.5"/>
<text text-anchor="middle" x="209" y="-242.5" font-family="'Souce Sans Pro', Roboto, FreeSans, sans-serif" font-size="10.00">log4cplus/helpers/socketbuffer.h</text>
</a>
</g>
</g>
<!-- Node9&#45;&gt;Node15 -->
<g id="edge17" class="edge">
<title>Node9&#45;&gt;Node15</title>
<path fill="none" stroke="midnightblue" d="M286.11,-296.98C271.54,-287.34 247.6,-271.52 230.25,-260.05"/>
<polygon fill="midnightblue" stroke="midnightblue" points="232.14,-257.1 221.87,-254.51 228.28,-262.94 232.14,-257.1"/>
</g>
<!-- Node11&#45;&gt;Node2 -->
<g id="edge12" class="edge">
<title>Node11&#45;&gt;Node2</title>
<path fill="none" stroke="midnightblue" d="M217.17,-179.37C202.75,-161.14 168.97,-118.43 150.19,-94.68"/>
<polygon fill="midnightblue" stroke="midnightblue" points="152.74,-92.26 143.8,-86.59 147.25,-96.61 152.74,-92.26"/>
</g>
<!-- Node12 -->
<g id="node12" class="node">
<title>Node12</title>
<g id="a_node12"><a xlink:title=" ">
<polygon fill="white" stroke="#bfbfbf" points="203.5,-123.5 203.5,-142.5 244.5,-142.5 244.5,-123.5 203.5,-123.5"/>
<text text-anchor="middle" x="224" y="-130.5" font-family="'Souce Sans Pro', Roboto, FreeSans, sans-serif" font-size="10.00">string</text>
</a>
</g>
</g>
<!-- Node11&#45;&gt;Node12 -->
<g id="edge13" class="edge">
<title>Node11&#45;&gt;Node12</title>
<path fill="none" stroke="midnightblue" d="M224,-179.08C224,-172.01 224,-161.86 224,-152.99"/>
<polygon fill="midnightblue" stroke="midnightblue" points="227.5,-152.75 224,-142.75 220.5,-152.75 227.5,-152.75"/>
</g>
<!-- Node13 -->
<g id="node13" class="node">
<title>Node13</title>
<g id="a_node13"><a xlink:href="tchar_8h.html" target="_top" xlink:title=" ">
<polygon fill="white" stroke="black" points="262.5,-123.5 262.5,-142.5 355.5,-142.5 355.5,-123.5 262.5,-123.5"/>
<text text-anchor="middle" x="309" y="-130.5" font-family="'Souce Sans Pro', Roboto, FreeSans, sans-serif" font-size="10.00">log4cplus/tchar.h</text>
</a>
</g>
</g>
<!-- Node11&#45;&gt;Node13 -->
<g id="edge14" class="edge">
<title>Node11&#45;&gt;Node13</title>
<path fill="none" stroke="midnightblue" d="M237.66,-179.32C250.92,-170.9 271.27,-157.97 286.85,-148.07"/>
<polygon fill="midnightblue" stroke="midnightblue" points="288.81,-150.97 295.38,-142.65 285.06,-145.06 288.81,-150.97"/>
</g>
<!-- Node13&#45;&gt;Node2 -->
<g id="edge15" class="edge">
<title>Node13&#45;&gt;Node2</title>
<path fill="none" stroke="midnightblue" d="M281.75,-123.44C252.56,-114.28 206.08,-99.69 173.69,-89.52"/>
<polygon fill="midnightblue" stroke="midnightblue" points="174.72,-86.17 164.13,-86.52 172.62,-92.85 174.72,-86.17"/>
</g>
<!-- Node14 -->
<g id="node14" class="node">
<title>Node14</title>
<g id="a_node14"><a xlink:title=" ">
<polygon fill="white" stroke="#bfbfbf" points="283.5,-67.5 283.5,-86.5 334.5,-86.5 334.5,-67.5 283.5,-67.5"/>
<text text-anchor="middle" x="309" y="-74.5" font-family="'Souce Sans Pro', Roboto, FreeSans, sans-serif" font-size="10.00">cstddef</text>
</a>
</g>
</g>
<!-- Node13&#45;&gt;Node14 -->
<g id="edge16" class="edge">
<title>Node13&#45;&gt;Node14</title>
<path fill="none" stroke="midnightblue" d="M309,-123.08C309,-116.01 309,-105.86 309,-96.99"/>
<polygon fill="midnightblue" stroke="midnightblue" points="312.5,-96.75 309,-86.75 305.5,-96.75 312.5,-96.75"/>
</g>
<!-- Node15&#45;&gt;Node2 -->
<g id="edge18" class="edge">
<title>Node15&#45;&gt;Node2</title>
<path fill="none" stroke="midnightblue" d="M197.46,-235.29C187.36,-227.05 173.08,-213.76 165,-199 146.95,-166.02 140.5,-121.82 138.22,-97"/>
<polygon fill="midnightblue" stroke="midnightblue" points="141.69,-96.48 137.42,-86.78 134.71,-97.02 141.69,-96.48"/>
</g>
<!-- Node15&#45;&gt;Node11 -->
<g id="edge19" class="edge">
<title>Node15&#45;&gt;Node11</title>
<path fill="none" stroke="midnightblue" d="M211.48,-235.08C213.49,-227.85 216.39,-217.41 218.89,-208.4"/>
<polygon fill="midnightblue" stroke="midnightblue" points="222.26,-209.32 221.57,-198.75 215.52,-207.45 222.26,-209.32"/>
</g>
</g>
</svg>
