<?xml version="1.0" encoding="UTF-8" standalone="no"?>
<!DOCTYPE svg PUBLIC "-//W3C//DTD SVG 1.1//EN"
 "http://www.w3.org/Graphics/SVG/1.1/DTD/svg11.dtd">
<!-- Generated by graphviz version 2.43.0 (0)
 -->
<!-- Title: layout.h Pages: 1 -->
<svg width="1614pt" height="364pt"
 viewBox="0.00 0.00 1614.37 364.00" xmlns="http://www.w3.org/2000/svg" xmlns:xlink="http://www.w3.org/1999/xlink">
<g id="graph0" class="graph" transform="scale(1 1) rotate(0) translate(4 360)">
<title>layout.h</title>
<polygon fill="white" stroke="transparent" points="-4,4 -4,-360 1610.37,-360 1610.37,4 -4,4"/>
<!-- Node1 -->
<g id="node1" class="node">
<title>Node1</title>
<g id="a_node1"><a xlink:title=" ">
<polygon fill="#bfbfbf" stroke="black" points="1524.87,-336.5 1524.87,-355.5 1575.87,-355.5 1575.87,-336.5 1524.87,-336.5"/>
<text text-anchor="middle" x="1550.37" y="-343.5" font-family="'Souce Sans Pro', Roboto, FreeSans, sans-serif" font-size="10.00">layout.h</text>
</a>
</g>
</g>
<!-- Node2 -->
<g id="node2" class="node">
<title>Node2</title>
<g id="a_node2"><a xlink:href="appender_8h.html" target="_top" xlink:title=" ">
<polygon fill="white" stroke="black" points="823.87,-280.5 823.87,-299.5 888.87,-299.5 888.87,-280.5 823.87,-280.5"/>
<text text-anchor="middle" x="856.37" y="-287.5" font-family="'Souce Sans Pro', Roboto, FreeSans, sans-serif" font-size="10.00">appender.h</text>
</a>
</g>
</g>
<!-- Node1&#45;&gt;Node2 -->
<g id="edge1" class="edge">
<title>Node1&#45;&gt;Node2</title>
<path fill="none" stroke="midnightblue" d="M1514.71,-342.23C1394.46,-332.87 1004.95,-302.56 889.14,-293.55"/>
<polygon fill="midnightblue" stroke="midnightblue" points="1514.61,-345.73 1524.85,-343.01 1515.15,-338.75 1514.61,-345.73"/>
</g>
<!-- Node4 -->
<g id="node4" class="node">
<title>Node4</title>
<g id="a_node4"><a xlink:href="log4cplus_8h.html" target="_top" xlink:title=" ">
<polygon fill="white" stroke="black" points="740.87,-0.5 740.87,-19.5 807.87,-19.5 807.87,-0.5 740.87,-0.5"/>
<text text-anchor="middle" x="774.37" y="-7.5" font-family="'Souce Sans Pro', Roboto, FreeSans, sans-serif" font-size="10.00">log4cplus.h</text>
</a>
</g>
</g>
<!-- Node1&#45;&gt;Node4 -->
<g id="edge45" class="edge">
<title>Node1&#45;&gt;Node4</title>
<path fill="none" stroke="midnightblue" d="M1564.9,-328.66C1581.49,-308.25 1606.37,-271.56 1606.37,-235 1606.37,-235 1606.37,-235 1606.37,-121 1606.37,-39.04 963.67,-16.18 808.02,-11.84"/>
<polygon fill="midnightblue" stroke="midnightblue" points="1562.17,-326.46 1558.39,-336.36 1567.52,-330.98 1562.17,-326.46"/>
</g>
<!-- Node27 -->
<g id="node27" class="node">
<title>Node27</title>
<g id="a_node27"><a xlink:href="factory_8h.html" target="_top" xlink:title=" ">
<polygon fill="white" stroke="black" points="1522.37,-224.5 1522.37,-243.5 1578.37,-243.5 1578.37,-224.5 1522.37,-224.5"/>
<text text-anchor="middle" x="1550.37" y="-231.5" font-family="'Souce Sans Pro', Roboto, FreeSans, sans-serif" font-size="10.00">factory.h</text>
</a>
</g>
</g>
<!-- Node1&#45;&gt;Node27 -->
<g id="edge46" class="edge">
<title>Node1&#45;&gt;Node27</title>
<path fill="none" stroke="midnightblue" d="M1550.37,-326.35C1550.37,-302.25 1550.37,-261.31 1550.37,-243.59"/>
<polygon fill="midnightblue" stroke="midnightblue" points="1546.87,-326.37 1550.37,-336.37 1553.87,-326.37 1546.87,-326.37"/>
</g>
<!-- Node3 -->
<g id="node3" class="node">
<title>Node3</title>
<g id="a_node3"><a xlink:href="asyncappender_8h.html" target="_top" xlink:title=" ">
<polygon fill="white" stroke="black" points="563.87,-112.5 563.87,-131.5 654.87,-131.5 654.87,-112.5 563.87,-112.5"/>
<text text-anchor="middle" x="609.37" y="-119.5" font-family="'Souce Sans Pro', Roboto, FreeSans, sans-serif" font-size="10.00">asyncappender.h</text>
</a>
</g>
</g>
<!-- Node2&#45;&gt;Node3 -->
<g id="edge2" class="edge">
<title>Node2&#45;&gt;Node3</title>
<path fill="none" stroke="midnightblue" d="M813.43,-289.32C736.98,-288.88 582.12,-283.04 548.37,-244 517.14,-207.87 573.79,-152.96 598.59,-131.77"/>
<polygon fill="midnightblue" stroke="midnightblue" points="813.67,-292.82 823.68,-289.35 813.69,-285.82 813.67,-292.82"/>
</g>
<!-- Node2&#45;&gt;Node4 -->
<g id="edge14" class="edge">
<title>Node2&#45;&gt;Node4</title>
<path fill="none" stroke="midnightblue" d="M847.86,-271.18C838.61,-251.27 823.89,-217.89 814.37,-188 794.21,-124.66 780.11,-45.49 775.77,-19.61"/>
<polygon fill="midnightblue" stroke="midnightblue" points="844.71,-272.72 852.14,-280.27 851.05,-269.74 844.71,-272.72"/>
</g>
<!-- Node5 -->
<g id="node5" class="node">
<title>Node5</title>
<g id="a_node5"><a xlink:href="deviceappender_8hxx.html" target="_top" xlink:title=" ">
<polygon fill="white" stroke="black" points="1104.37,-224.5 1104.37,-243.5 1208.37,-243.5 1208.37,-224.5 1104.37,-224.5"/>
<text text-anchor="middle" x="1156.37" y="-231.5" font-family="'Souce Sans Pro', Roboto, FreeSans, sans-serif" font-size="10.00">deviceappender.hxx</text>
</a>
</g>
</g>
<!-- Node2&#45;&gt;Node5 -->
<g id="edge4" class="edge">
<title>Node2&#45;&gt;Node5</title>
<path fill="none" stroke="midnightblue" d="M898.91,-281.34C954.4,-271.35 1051.2,-253.93 1108.98,-243.53"/>
<polygon fill="midnightblue" stroke="midnightblue" points="898.27,-277.9 889.05,-283.12 899.51,-284.79 898.27,-277.9"/>
</g>
<!-- Node6 -->
<g id="node6" class="node">
<title>Node6</title>
<g id="a_node6"><a xlink:href="callbackappender_8h.html" target="_top" xlink:title=" ">
<polygon fill="white" stroke="black" points="1226.87,-224.5 1226.87,-243.5 1327.87,-243.5 1327.87,-224.5 1226.87,-224.5"/>
<text text-anchor="middle" x="1277.37" y="-231.5" font-family="'Souce Sans Pro', Roboto, FreeSans, sans-serif" font-size="10.00">callbackappender.h</text>
</a>
</g>
</g>
<!-- Node2&#45;&gt;Node6 -->
<g id="edge5" class="edge">
<title>Node2&#45;&gt;Node6</title>
<path fill="none" stroke="midnightblue" d="M899.54,-283.97C967.3,-276 1102.74,-259.74 1217.37,-244 1220.4,-243.58 1223.51,-243.15 1226.64,-242.7"/>
<polygon fill="midnightblue" stroke="midnightblue" points="898.78,-280.54 889.26,-285.18 899.6,-287.49 898.78,-280.54"/>
</g>
<!-- Node7 -->
<g id="node7" class="node">
<title>Node7</title>
<g id="a_node7"><a xlink:href="clfsappender_8h.html" target="_top" xlink:title=" ">
<polygon fill="white" stroke="black" points="1384.37,-224.5 1384.37,-243.5 1466.37,-243.5 1466.37,-224.5 1384.37,-224.5"/>
<text text-anchor="middle" x="1425.37" y="-231.5" font-family="'Souce Sans Pro', Roboto, FreeSans, sans-serif" font-size="10.00">clfsappender.h</text>
</a>
</g>
</g>
<!-- Node2&#45;&gt;Node7 -->
<g id="edge6" class="edge">
<title>Node2&#45;&gt;Node7</title>
<path fill="none" stroke="midnightblue" d="M899.09,-286.35C987.35,-280.62 1196.13,-265.85 1370.37,-244 1374.88,-243.43 1379.59,-242.77 1384.27,-242.07"/>
<polygon fill="midnightblue" stroke="midnightblue" points="898.69,-282.86 888.93,-287 899.14,-289.85 898.69,-282.86"/>
</g>
<!-- Node8 -->
<g id="node8" class="node">
<title>Node8</title>
<g id="a_node8"><a xlink:href="configurator_8h.html" target="_top" xlink:title=" ">
<polygon fill="white" stroke="black" points="25.87,-112.5 25.87,-131.5 102.87,-131.5 102.87,-112.5 25.87,-112.5"/>
<text text-anchor="middle" x="64.37" y="-119.5" font-family="'Souce Sans Pro', Roboto, FreeSans, sans-serif" font-size="10.00">configurator.h</text>
</a>
</g>
</g>
<!-- Node2&#45;&gt;Node8 -->
<g id="edge7" class="edge">
<title>Node2&#45;&gt;Node8</title>
<path fill="none" stroke="midnightblue" d="M813.45,-288.34C645.18,-285.53 38.25,-273.4 10.37,-244 -21.92,-209.95 31.54,-153.33 54.59,-131.73"/>
<polygon fill="midnightblue" stroke="midnightblue" points="813.61,-291.84 823.66,-288.5 813.72,-284.84 813.61,-291.84"/>
</g>
<!-- Node9 -->
<g id="node9" class="node">
<title>Node9</title>
<g id="a_node9"><a xlink:href="consoleappender_8h.html" target="_top" xlink:title=" ">
<polygon fill="white" stroke="black" points="822.87,-168.5 822.87,-187.5 923.87,-187.5 923.87,-168.5 822.87,-168.5"/>
<text text-anchor="middle" x="873.37" y="-175.5" font-family="'Souce Sans Pro', Roboto, FreeSans, sans-serif" font-size="10.00">consoleappender.h</text>
</a>
</g>
</g>
<!-- Node2&#45;&gt;Node9 -->
<g id="edge9" class="edge">
<title>Node2&#45;&gt;Node9</title>
<path fill="none" stroke="midnightblue" d="M863.23,-270.71C865.94,-262.64 868.79,-252.97 870.37,-244 873.85,-224.19 873.94,-200.51 873.67,-187.91"/>
<polygon fill="midnightblue" stroke="midnightblue" points="859.9,-269.61 859.84,-280.2 866.5,-271.96 859.9,-269.61"/>
</g>
<!-- Node10 -->
<g id="node10" class="node">
<title>Node10</title>
<g id="a_node10"><a xlink:href="fileappender_8h.html" target="_top" xlink:title=" ">
<polygon fill="white" stroke="black" points="897.37,-56.5 897.37,-75.5 975.37,-75.5 975.37,-56.5 897.37,-56.5"/>
<text text-anchor="middle" x="936.37" y="-63.5" font-family="'Souce Sans Pro', Roboto, FreeSans, sans-serif" font-size="10.00">fileappender.h</text>
</a>
</g>
</g>
<!-- Node2&#45;&gt;Node10 -->
<g id="edge11" class="edge">
<title>Node2&#45;&gt;Node10</title>
<path fill="none" stroke="midnightblue" d="M873.35,-273.5C892.07,-255.18 921.15,-222.76 933.37,-188 947.45,-147.96 941.18,-95.77 937.9,-75.53"/>
<polygon fill="midnightblue" stroke="midnightblue" points="870.87,-271.03 866.04,-280.46 875.7,-276.1 870.87,-271.03"/>
</g>
<!-- Node11 -->
<g id="node11" class="node">
<title>Node11</title>
<g id="a_node11"><a xlink:href="hierarchylocker_8h.html" target="_top" xlink:title=" ">
<polygon fill="white" stroke="black" points="120.87,-112.5 120.87,-131.5 211.87,-131.5 211.87,-112.5 120.87,-112.5"/>
<text text-anchor="middle" x="166.37" y="-119.5" font-family="'Souce Sans Pro', Roboto, FreeSans, sans-serif" font-size="10.00">hierarchylocker.h</text>
</a>
</g>
</g>
<!-- Node2&#45;&gt;Node11 -->
<g id="edge13" class="edge">
<title>Node2&#45;&gt;Node11</title>
<path fill="none" stroke="midnightblue" d="M813.31,-288.3C646.5,-285.37 50.77,-272.92 23.37,-244 -20.92,-197.26 88.85,-150.44 140.86,-131.62"/>
<polygon fill="midnightblue" stroke="midnightblue" points="813.61,-291.8 823.66,-288.48 813.73,-284.8 813.61,-291.8"/>
</g>
<!-- Node12 -->
<g id="node12" class="node">
<title>Node12</title>
<g id="a_node12"><a xlink:href="log4judpappender_8h.html" target="_top" xlink:title=" ">
<polygon fill="white" stroke="black" points="160.87,-224.5 160.87,-243.5 263.87,-243.5 263.87,-224.5 160.87,-224.5"/>
<text text-anchor="middle" x="212.37" y="-231.5" font-family="'Souce Sans Pro', Roboto, FreeSans, sans-serif" font-size="10.00">log4judpappender.h</text>
</a>
</g>
</g>
<!-- Node2&#45;&gt;Node12 -->
<g id="edge15" class="edge">
<title>Node2&#45;&gt;Node12</title>
<path fill="none" stroke="midnightblue" d="M813.42,-286.75C716.65,-281.46 474.21,-266.88 272.37,-244 269.65,-243.69 266.86,-243.35 264.05,-242.99"/>
<polygon fill="midnightblue" stroke="midnightblue" points="813.51,-290.26 823.68,-287.31 813.89,-283.27 813.51,-290.26"/>
</g>
<!-- Node13 -->
<g id="node13" class="node">
<title>Node13</title>
<g id="a_node13"><a xlink:href="msttsappender_8h.html" target="_top" xlink:title=" ">
<polygon fill="white" stroke="black" points="281.87,-224.5 281.87,-243.5 372.87,-243.5 372.87,-224.5 281.87,-224.5"/>
<text text-anchor="middle" x="327.37" y="-231.5" font-family="'Souce Sans Pro', Roboto, FreeSans, sans-serif" font-size="10.00">msttsappender.h</text>
</a>
</g>
</g>
<!-- Node2&#45;&gt;Node13 -->
<g id="edge16" class="edge">
<title>Node2&#45;&gt;Node13</title>
<path fill="none" stroke="midnightblue" d="M813.74,-285.92C730.59,-279.71 540.98,-264.48 382.37,-244 379.3,-243.6 376.14,-243.17 372.95,-242.7"/>
<polygon fill="midnightblue" stroke="midnightblue" points="813.58,-289.42 823.82,-286.67 814.1,-282.44 813.58,-289.42"/>
</g>
<!-- Node14 -->
<g id="node14" class="node">
<title>Node14</title>
<g id="a_node14"><a xlink:href="nteventlogappender_8h.html" target="_top" xlink:title=" ">
<polygon fill="white" stroke="black" points="391.37,-224.5 391.37,-243.5 501.37,-243.5 501.37,-224.5 391.37,-224.5"/>
<text text-anchor="middle" x="446.37" y="-231.5" font-family="'Souce Sans Pro', Roboto, FreeSans, sans-serif" font-size="10.00">nteventlogappender.h</text>
</a>
</g>
</g>
<!-- Node2&#45;&gt;Node14 -->
<g id="edge17" class="edge">
<title>Node2&#45;&gt;Node14</title>
<path fill="none" stroke="midnightblue" d="M813.86,-283.4C739.15,-273.56 584.4,-253.18 501.55,-242.27"/>
<polygon fill="midnightblue" stroke="midnightblue" points="813.48,-286.88 823.85,-284.72 814.4,-279.94 813.48,-286.88"/>
</g>
<!-- Node15 -->
<g id="node15" class="node">
<title>Node15</title>
<g id="a_node15"><a xlink:href="nullappender_8h.html" target="_top" xlink:title=" ">
<polygon fill="white" stroke="black" points="1219.37,-168.5 1219.37,-187.5 1299.37,-187.5 1299.37,-168.5 1219.37,-168.5"/>
<text text-anchor="middle" x="1259.37" y="-175.5" font-family="'Souce Sans Pro', Roboto, FreeSans, sans-serif" font-size="10.00">nullappender.h</text>
</a>
</g>
</g>
<!-- Node2&#45;&gt;Node15 -->
<g id="edge18" class="edge">
<title>Node2&#45;&gt;Node15</title>
<path fill="none" stroke="midnightblue" d="M899.16,-288.21C1011.49,-285.71 1308.13,-276.1 1337.37,-244 1358.14,-221.19 1314.06,-199.19 1284.09,-187.55"/>
<polygon fill="midnightblue" stroke="midnightblue" points="898.81,-284.72 888.88,-288.44 898.96,-291.72 898.81,-284.72"/>
</g>
<!-- Node16 -->
<g id="node16" class="node">
<title>Node16</title>
<g id="a_node16"><a xlink:href="qt4debugappender_8h.html" target="_top" xlink:title=" ">
<polygon fill="white" stroke="black" points="557.87,-224.5 557.87,-243.5 664.87,-243.5 664.87,-224.5 557.87,-224.5"/>
<text text-anchor="middle" x="611.37" y="-231.5" font-family="'Souce Sans Pro', Roboto, FreeSans, sans-serif" font-size="10.00">qt4debugappender.h</text>
</a>
</g>
</g>
<!-- Node2&#45;&gt;Node16 -->
<g id="edge20" class="edge">
<title>Node2&#45;&gt;Node16</title>
<path fill="none" stroke="midnightblue" d="M813.85,-279.63C767.72,-269.46 694.7,-253.37 650.1,-243.54"/>
<polygon fill="midnightblue" stroke="midnightblue" points="813.32,-283.09 823.84,-281.83 814.82,-276.26 813.32,-283.09"/>
</g>
<!-- Node17 -->
<g id="node17" class="node">
<title>Node17</title>
<g id="a_node17"><a xlink:href="qt5debugappender_8h.html" target="_top" xlink:title=" ">
<polygon fill="white" stroke="black" points="682.87,-224.5 682.87,-243.5 789.87,-243.5 789.87,-224.5 682.87,-224.5"/>
<text text-anchor="middle" x="736.37" y="-231.5" font-family="'Souce Sans Pro', Roboto, FreeSans, sans-serif" font-size="10.00">qt5debugappender.h</text>
</a>
</g>
</g>
<!-- Node2&#45;&gt;Node17 -->
<g id="edge21" class="edge">
<title>Node2&#45;&gt;Node17</title>
<path fill="none" stroke="midnightblue" d="M828,-276.23C805.55,-266.13 774.83,-252.31 755.3,-243.52"/>
<polygon fill="midnightblue" stroke="midnightblue" points="826.8,-279.53 837.36,-280.44 829.67,-273.15 826.8,-279.53"/>
</g>
<!-- Node18 -->
<g id="node18" class="node">
<title>Node18</title>
<g id="a_node18"><a xlink:href="socketappender_8h.html" target="_top" xlink:title=" ">
<polygon fill="white" stroke="black" points="1263.87,-56.5 1263.87,-75.5 1358.87,-75.5 1358.87,-56.5 1263.87,-56.5"/>
<text text-anchor="middle" x="1311.37" y="-63.5" font-family="'Souce Sans Pro', Roboto, FreeSans, sans-serif" font-size="10.00">socketappender.h</text>
</a>
</g>
</g>
<!-- Node2&#45;&gt;Node18 -->
<g id="edge22" class="edge">
<title>Node2&#45;&gt;Node18</title>
<path fill="none" stroke="midnightblue" d="M899.16,-289.17C1032.87,-289.27 1436.26,-286.06 1475.37,-244 1535.42,-179.42 1385.83,-101.37 1330.76,-75.67"/>
<polygon fill="midnightblue" stroke="midnightblue" points="898.91,-285.67 888.91,-289.16 898.9,-292.67 898.91,-285.67"/>
</g>
<!-- Node19 -->
<g id="node19" class="node">
<title>Node19</title>
<g id="a_node19"><a xlink:href="appenderattachable_8h.html" target="_top" xlink:title=" ">
<polygon fill="white" stroke="black" points="32.37,-224.5 32.37,-243.5 142.37,-243.5 142.37,-224.5 32.37,-224.5"/>
<text text-anchor="middle" x="87.37" y="-231.5" font-family="'Souce Sans Pro', Roboto, FreeSans, sans-serif" font-size="10.00">appenderattachable.h</text>
</a>
</g>
</g>
<!-- Node2&#45;&gt;Node19 -->
<g id="edge24" class="edge">
<title>Node2&#45;&gt;Node19</title>
<path fill="none" stroke="midnightblue" d="M813.57,-287.4C703.5,-283.05 401.65,-269.55 151.37,-244 148.47,-243.7 145.49,-243.37 142.5,-243.02"/>
<polygon fill="midnightblue" stroke="midnightblue" points="813.49,-290.9 823.62,-287.8 813.76,-283.91 813.49,-290.9"/>
</g>
<!-- Node2&#45;&gt;Node27 -->
<g id="edge40" class="edge">
<title>Node2&#45;&gt;Node27</title>
<path fill="none" stroke="midnightblue" d="M899.27,-288.15C1003.88,-285.61 1280.26,-276.15 1508.37,-244 1512.8,-243.38 1517.46,-242.55 1522,-241.65"/>
<polygon fill="midnightblue" stroke="midnightblue" points="899.02,-284.65 889.1,-288.38 899.18,-291.65 899.02,-284.65"/>
</g>
<!-- Node28 -->
<g id="node28" class="node">
<title>Node28</title>
<g id="a_node28"><a xlink:href="syslogappender_8h.html" target="_top" xlink:title=" ">
<polygon fill="white" stroke="black" points="672.37,-168.5 672.37,-187.5 766.37,-187.5 766.37,-168.5 672.37,-168.5"/>
<text text-anchor="middle" x="719.37" y="-175.5" font-family="'Souce Sans Pro', Roboto, FreeSans, sans-serif" font-size="10.00">syslogappender.h</text>
</a>
</g>
</g>
<!-- Node2&#45;&gt;Node28 -->
<g id="edge42" class="edge">
<title>Node2&#45;&gt;Node28</title>
<path fill="none" stroke="midnightblue" d="M843.99,-271.89C833.26,-257.88 816.77,-238.12 799.37,-224 780.44,-208.64 755.56,-195.56 738.61,-187.53"/>
<polygon fill="midnightblue" stroke="midnightblue" points="841.37,-274.24 850.15,-280.16 846.98,-270.05 841.37,-274.24"/>
</g>
<!-- Node29 -->
<g id="node29" class="node">
<title>Node29</title>
<g id="a_node29"><a xlink:href="win32consoleappender_8h.html" target="_top" xlink:title=" ">
<polygon fill="white" stroke="black" points="960.37,-224.5 960.37,-243.5 1086.37,-243.5 1086.37,-224.5 960.37,-224.5"/>
<text text-anchor="middle" x="1023.37" y="-231.5" font-family="'Souce Sans Pro', Roboto, FreeSans, sans-serif" font-size="10.00">win32consoleappender.h</text>
</a>
</g>
</g>
<!-- Node2&#45;&gt;Node29 -->
<g id="edge44" class="edge">
<title>Node2&#45;&gt;Node29</title>
<path fill="none" stroke="midnightblue" d="M892.54,-277.3C924.01,-267.13 968.86,-252.62 997.03,-243.52"/>
<polygon fill="midnightblue" stroke="midnightblue" points="891.27,-274.04 882.83,-280.44 893.42,-280.7 891.27,-274.04"/>
</g>
<!-- Node3&#45;&gt;Node4 -->
<g id="edge3" class="edge">
<title>Node3&#45;&gt;Node4</title>
<path fill="none" stroke="midnightblue" d="M630.8,-106.71C665.57,-83.53 733.22,-38.43 761.48,-19.59"/>
<polygon fill="midnightblue" stroke="midnightblue" points="628.7,-103.91 622.32,-112.37 632.58,-109.73 628.7,-103.91"/>
</g>
<!-- Node8&#45;&gt;Node4 -->
<g id="edge8" class="edge">
<title>Node8&#45;&gt;Node4</title>
<path fill="none" stroke="midnightblue" d="M86.56,-107.12C112.52,-91.65 157.32,-67.34 199.37,-56 302.57,-28.17 633.57,-15.46 740.62,-12.01"/>
<polygon fill="midnightblue" stroke="midnightblue" points="84.63,-104.2 77.89,-112.37 88.26,-110.18 84.63,-104.2"/>
</g>
<!-- Node9&#45;&gt;Node4 -->
<g id="edge10" class="edge">
<title>Node9&#45;&gt;Node4</title>
<path fill="none" stroke="midnightblue" d="M864.75,-158.91C853.02,-134.82 830.9,-91.15 808.37,-56 799.92,-42.81 788.75,-28.53 781.56,-19.67"/>
<polygon fill="midnightblue" stroke="midnightblue" points="861.74,-160.74 869.24,-168.23 868.05,-157.7 861.74,-160.74"/>
</g>
<!-- Node10&#45;&gt;Node4 -->
<g id="edge12" class="edge">
<title>Node10&#45;&gt;Node4</title>
<path fill="none" stroke="midnightblue" d="M900.89,-53.17C870.38,-43 827.13,-28.59 799.92,-19.52"/>
<polygon fill="midnightblue" stroke="midnightblue" points="900.11,-56.6 910.7,-56.44 902.32,-49.96 900.11,-56.6"/>
</g>
<!-- Node15&#45;&gt;Node4 -->
<g id="edge19" class="edge">
<title>Node15&#45;&gt;Node4</title>
<path fill="none" stroke="midnightblue" d="M1234.11,-163.79C1186.46,-139.35 1079.55,-86.78 984.37,-56 923.53,-36.32 849.96,-22.81 808.02,-16.04"/>
<polygon fill="midnightblue" stroke="midnightblue" points="1232.6,-166.95 1243.09,-168.42 1235.81,-160.73 1232.6,-166.95"/>
</g>
<!-- Node18&#45;&gt;Node4 -->
<g id="edge23" class="edge">
<title>Node18&#45;&gt;Node4</title>
<path fill="none" stroke="midnightblue" d="M1253.6,-59.19C1141.41,-47.91 897.22,-23.35 807.93,-14.38"/>
<polygon fill="midnightblue" stroke="midnightblue" points="1253.41,-62.69 1263.71,-60.21 1254.11,-55.72 1253.41,-62.69"/>
</g>
<!-- Node20 -->
<g id="node20" class="node">
<title>Node20</title>
<g id="a_node20"><a xlink:href="appenderattachableimpl_8h.html" target="_top" xlink:title=" ">
<polygon fill="white" stroke="black" points="371.87,-168.5 371.87,-187.5 500.87,-187.5 500.87,-168.5 371.87,-168.5"/>
<text text-anchor="middle" x="436.37" y="-175.5" font-family="'Souce Sans Pro', Roboto, FreeSans, sans-serif" font-size="10.00">appenderattachableimpl.h</text>
</a>
</g>
</g>
<!-- Node19&#45;&gt;Node20 -->
<g id="edge25" class="edge">
<title>Node19&#45;&gt;Node20</title>
<path fill="none" stroke="midnightblue" d="M152.94,-222.85C218.88,-212.65 319.4,-197.1 381.33,-187.52"/>
<polygon fill="midnightblue" stroke="midnightblue" points="152.02,-219.46 142.67,-224.44 153.09,-226.37 152.02,-219.46"/>
</g>
<!-- Node23 -->
<g id="node23" class="node">
<title>Node23</title>
<g id="a_node23"><a xlink:href="logger_8h.html" target="_top" xlink:title="This header defines the Logger class and the logging macros.">
<polygon fill="white" stroke="black" points="214.37,-168.5 214.37,-187.5 266.37,-187.5 266.37,-168.5 214.37,-168.5"/>
<text text-anchor="middle" x="240.37" y="-175.5" font-family="'Souce Sans Pro', Roboto, FreeSans, sans-serif" font-size="10.00">logger.h</text>
</a>
</g>
</g>
<!-- Node19&#45;&gt;Node23 -->
<g id="edge29" class="edge">
<title>Node19&#45;&gt;Node23</title>
<path fill="none" stroke="midnightblue" d="M121.26,-221.04C150.05,-210.88 190.66,-196.55 216.24,-187.52"/>
<polygon fill="midnightblue" stroke="midnightblue" points="119.88,-217.81 111.61,-224.44 122.21,-224.42 119.88,-217.81"/>
</g>
<!-- Node20&#45;&gt;Node3 -->
<g id="edge26" class="edge">
<title>Node20&#45;&gt;Node3</title>
<path fill="none" stroke="midnightblue" d="M473.42,-165.44C506.03,-155.26 552.78,-140.66 582.09,-131.52"/>
<polygon fill="midnightblue" stroke="midnightblue" points="472.28,-162.12 463.78,-168.44 474.37,-168.8 472.28,-162.12"/>
</g>
<!-- Node21 -->
<g id="node21" class="node">
<title>Node21</title>
<g id="a_node21"><a xlink:href="loggerimpl_8h.html" target="_top" xlink:title=" ">
<polygon fill="white" stroke="black" points="474.87,-112.5 474.87,-131.5 545.87,-131.5 545.87,-112.5 474.87,-112.5"/>
<text text-anchor="middle" x="510.37" y="-119.5" font-family="'Souce Sans Pro', Roboto, FreeSans, sans-serif" font-size="10.00">loggerimpl.h</text>
</a>
</g>
</g>
<!-- Node20&#45;&gt;Node21 -->
<g id="edge27" class="edge">
<title>Node20&#45;&gt;Node21</title>
<path fill="none" stroke="midnightblue" d="M456.4,-162.38C469.78,-152.62 486.93,-140.11 498.26,-131.83"/>
<polygon fill="midnightblue" stroke="midnightblue" points="454.27,-159.6 448.26,-168.32 458.4,-165.26 454.27,-159.6"/>
</g>
<!-- Node22 -->
<g id="node22" class="node">
<title>Node22</title>
<g id="a_node22"><a xlink:href="rootlogger_8h.html" target="_top" xlink:title=" ">
<polygon fill="white" stroke="black" points="475.37,-56.5 475.37,-75.5 545.37,-75.5 545.37,-56.5 475.37,-56.5"/>
<text text-anchor="middle" x="510.37" y="-63.5" font-family="'Souce Sans Pro', Roboto, FreeSans, sans-serif" font-size="10.00">rootlogger.h</text>
</a>
</g>
</g>
<!-- Node21&#45;&gt;Node22 -->
<g id="edge28" class="edge">
<title>Node21&#45;&gt;Node22</title>
<path fill="none" stroke="midnightblue" d="M510.37,-101.8C510.37,-92.91 510.37,-82.78 510.37,-75.75"/>
<polygon fill="midnightblue" stroke="midnightblue" points="506.87,-102.08 510.37,-112.08 513.87,-102.08 506.87,-102.08"/>
</g>
<!-- Node23&#45;&gt;Node4 -->
<g id="edge34" class="edge">
<title>Node23&#45;&gt;Node4</title>
<path fill="none" stroke="midnightblue" d="M276.5,-171.18C307.98,-164.95 353.99,-153.02 389.37,-132 430.71,-107.44 423.33,-77.43 466.37,-56 514.08,-32.24 671.12,-18.38 740.69,-13.27"/>
<polygon fill="midnightblue" stroke="midnightblue" points="275.6,-167.78 266.42,-173.07 276.9,-174.66 275.6,-167.78"/>
</g>
<!-- Node23&#45;&gt;Node8 -->
<g id="edge30" class="edge">
<title>Node23&#45;&gt;Node8</title>
<path fill="none" stroke="midnightblue" d="M204.26,-165.92C171.1,-155.75 122.66,-140.88 92.36,-131.59"/>
<polygon fill="midnightblue" stroke="midnightblue" points="203.43,-169.33 214.02,-168.92 205.49,-162.64 203.43,-169.33"/>
</g>
<!-- Node23&#45;&gt;Node11 -->
<g id="edge33" class="edge">
<title>Node23&#45;&gt;Node11</title>
<path fill="none" stroke="midnightblue" d="M220.34,-162.38C206.96,-152.62 189.81,-140.11 178.48,-131.83"/>
<polygon fill="midnightblue" stroke="midnightblue" points="218.34,-165.26 228.48,-168.32 222.47,-159.6 218.34,-165.26"/>
</g>
<!-- Node24 -->
<g id="node24" class="node">
<title>Node24</title>
<g id="a_node24"><a xlink:href="hierarchy_8h.html" target="_top" xlink:title=" ">
<polygon fill="white" stroke="black" points="208.37,-56.5 208.37,-75.5 272.37,-75.5 272.37,-56.5 208.37,-56.5"/>
<text text-anchor="middle" x="240.37" y="-63.5" font-family="'Souce Sans Pro', Roboto, FreeSans, sans-serif" font-size="10.00">hierarchy.h</text>
</a>
</g>
</g>
<!-- Node23&#45;&gt;Node24 -->
<g id="edge31" class="edge">
<title>Node23&#45;&gt;Node24</title>
<path fill="none" stroke="midnightblue" d="M240.37,-158.35C240.37,-134.25 240.37,-93.31 240.37,-75.59"/>
<polygon fill="midnightblue" stroke="midnightblue" points="236.87,-158.37 240.37,-168.37 243.87,-158.37 236.87,-158.37"/>
</g>
<!-- Node25 -->
<g id="node25" class="node">
<title>Node25</title>
<g id="a_node25"><a xlink:href="loggingmacros_8h.html" target="_top" xlink:title="This header defines the logging macros.">
<polygon fill="white" stroke="black" points="290.37,-56.5 290.37,-75.5 380.37,-75.5 380.37,-56.5 290.37,-56.5"/>
<text text-anchor="middle" x="335.37" y="-63.5" font-family="'Souce Sans Pro', Roboto, FreeSans, sans-serif" font-size="10.00">loggingmacros.h</text>
</a>
</g>
</g>
<!-- Node23&#45;&gt;Node25 -->
<g id="edge35" class="edge">
<title>Node23&#45;&gt;Node25</title>
<path fill="none" stroke="midnightblue" d="M254.55,-160.59C275.03,-136.87 312.16,-93.87 327.95,-75.59"/>
<polygon fill="midnightblue" stroke="midnightblue" points="251.71,-158.51 247.82,-168.37 257.01,-163.09 251.71,-158.51"/>
</g>
<!-- Node26 -->
<g id="node26" class="node">
<title>Node26</title>
<g id="a_node26"><a xlink:href="tracelogger_8h.html" target="_top" xlink:title=" ">
<polygon fill="white" stroke="black" points="306.37,-112.5 306.37,-131.5 380.37,-131.5 380.37,-112.5 306.37,-112.5"/>
<text text-anchor="middle" x="343.37" y="-119.5" font-family="'Souce Sans Pro', Roboto, FreeSans, sans-serif" font-size="10.00">tracelogger.h</text>
</a>
</g>
</g>
<!-- Node23&#45;&gt;Node26 -->
<g id="edge37" class="edge">
<title>Node23&#45;&gt;Node26</title>
<path fill="none" stroke="midnightblue" d="M265.95,-163.59C284.99,-153.61 310.43,-140.27 326.86,-131.65"/>
<polygon fill="midnightblue" stroke="midnightblue" points="264.15,-160.58 256.92,-168.32 267.4,-166.78 264.15,-160.58"/>
</g>
<!-- Node24&#45;&gt;Node4 -->
<g id="edge32" class="edge">
<title>Node24&#45;&gt;Node4</title>
<path fill="none" stroke="midnightblue" d="M282.6,-55.99C460.6,-28.98 662.19,-16.7 740.72,-12.62"/>
<polygon fill="midnightblue" stroke="midnightblue" points="281.88,-52.56 272.53,-57.54 282.94,-59.48 281.88,-52.56"/>
</g>
<!-- Node25&#45;&gt;Node4 -->
<g id="edge36" class="edge">
<title>Node25&#45;&gt;Node4</title>
<path fill="none" stroke="midnightblue" d="M390.52,-56.53C391.81,-56.35 393.1,-56.17 394.37,-56 522.08,-38.7 674.46,-21.78 740.77,-14.6"/>
<polygon fill="midnightblue" stroke="midnightblue" points="389.85,-53.09 380.45,-57.97 390.84,-60.02 389.85,-53.09"/>
</g>
<!-- Node26&#45;&gt;Node4 -->
<g id="edge38" class="edge">
<title>Node26&#45;&gt;Node4</title>
<path fill="none" stroke="midnightblue" d="M359.59,-105.19C376.34,-89.88 403.98,-67.37 432.37,-56 488.04,-33.71 665.88,-18.76 740.7,-13.3"/>
<polygon fill="midnightblue" stroke="midnightblue" points="357.18,-102.65 352.28,-112.04 361.97,-107.75 357.18,-102.65"/>
</g>
<!-- Node26&#45;&gt;Node25 -->
<g id="edge39" class="edge">
<title>Node26&#45;&gt;Node25</title>
<path fill="none" stroke="midnightblue" d="M340.57,-102.1C339.24,-93.14 337.72,-82.86 336.67,-75.75"/>
<polygon fill="midnightblue" stroke="midnightblue" points="337.12,-102.7 342.05,-112.08 344.05,-101.68 337.12,-102.7"/>
</g>
<!-- Node27&#45;&gt;Node4 -->
<g id="edge41" class="edge">
<title>Node27&#45;&gt;Node4</title>
<path fill="none" stroke="midnightblue" d="M1539.01,-215.37C1513.71,-177.86 1448.55,-90.77 1368.37,-56 1266.61,-11.87 918.35,-10.1 808.12,-10.69"/>
<polygon fill="midnightblue" stroke="midnightblue" points="1536.39,-217.75 1544.83,-224.16 1542.23,-213.89 1536.39,-217.75"/>
</g>
<!-- Node28&#45;&gt;Node4 -->
<g id="edge43" class="edge">
<title>Node28&#45;&gt;Node4</title>
<path fill="none" stroke="midnightblue" d="M725.53,-158.39C737.4,-122.59 762.99,-45.34 771.53,-19.57"/>
<polygon fill="midnightblue" stroke="midnightblue" points="722.15,-157.48 722.33,-168.08 728.79,-159.68 722.15,-157.48"/>
</g>
</g>
</svg>
