<?xml version="1.0" encoding="UTF-8" standalone="no"?>
<!DOCTYPE svg PUBLIC "-//W3C//DTD SVG 1.1//EN"
 "http://www.w3.org/Graphics/SVG/1.1/DTD/svg11.dtd">
<!-- Generated by graphviz version 2.43.0 (0)
 -->
<!-- Title: lockfile.h Pages: 1 -->
<svg width="431pt" height="263pt"
 viewBox="0.00 0.00 430.94 263.00" xmlns="http://www.w3.org/2000/svg" xmlns:xlink="http://www.w3.org/1999/xlink">
<g id="graph0" class="graph" transform="scale(1 1) rotate(0) translate(4 259)">
<title>lockfile.h</title>
<polygon fill="white" stroke="transparent" points="-4,4 -4,-259 426.94,-259 426.94,4 -4,4"/>
<!-- Node1 -->
<g id="node1" class="node">
<title>Node1</title>
<g id="a_node1"><a xlink:title=" ">
<polygon fill="#bfbfbf" stroke="black" points="245.5,-235.5 245.5,-254.5 301.5,-254.5 301.5,-235.5 245.5,-235.5"/>
<text text-anchor="middle" x="273.5" y="-242.5" font-family="'Souce Sans Pro', Roboto, FreeSans, sans-serif" font-size="10.00">lockfile.h</text>
</a>
</g>
</g>
<!-- Node2 -->
<g id="node2" class="node">
<title>Node2</title>
<g id="a_node2"><a xlink:href="config_8hxx.html" target="_top" xlink:title=" ">
<polygon fill="white" stroke="black" points="145,-67.5 145,-86.5 254,-86.5 254,-67.5 145,-67.5"/>
<text text-anchor="middle" x="199.5" y="-74.5" font-family="'Souce Sans Pro', Roboto, FreeSans, sans-serif" font-size="10.00">log4cplus/config.hxx</text>
</a>
</g>
</g>
<!-- Node1&#45;&gt;Node2 -->
<g id="edge1" class="edge">
<title>Node1&#45;&gt;Node2</title>
<path fill="none" stroke="midnightblue" d="M299.12,-235.37C349.51,-217.07 453.28,-172.02 413.5,-123 394.95,-100.14 320.33,-88.46 264.38,-82.81"/>
<polygon fill="midnightblue" stroke="midnightblue" points="264.46,-79.3 254.17,-81.82 263.79,-86.27 264.46,-79.3"/>
</g>
<!-- Node5 -->
<g id="node5" class="node">
<title>Node5</title>
<g id="a_node5"><a xlink:href="tstring_8h.html" target="_top" xlink:title=" ">
<polygon fill="white" stroke="black" points="82,-179.5 82,-198.5 181,-198.5 181,-179.5 82,-179.5"/>
<text text-anchor="middle" x="131.5" y="-186.5" font-family="'Souce Sans Pro', Roboto, FreeSans, sans-serif" font-size="10.00">log4cplus/tstring.h</text>
</a>
</g>
</g>
<!-- Node1&#45;&gt;Node5 -->
<g id="edge4" class="edge">
<title>Node1&#45;&gt;Node5</title>
<path fill="none" stroke="midnightblue" d="M251,-235.44C227.42,-226.48 190.18,-212.31 163.54,-202.18"/>
<polygon fill="midnightblue" stroke="midnightblue" points="164.49,-198.8 153.9,-198.52 162,-205.34 164.49,-198.8"/>
</g>
<!-- Node9 -->
<g id="node9" class="node">
<title>Node9</title>
<g id="a_node9"><a xlink:href="syncprims_8h.html" target="_top" xlink:title=" ">
<polygon fill="white" stroke="black" points="199,-179.5 199,-198.5 348,-198.5 348,-179.5 199,-179.5"/>
<text text-anchor="middle" x="273.5" y="-186.5" font-family="'Souce Sans Pro', Roboto, FreeSans, sans-serif" font-size="10.00">log4cplus/thread/syncprims.h</text>
</a>
</g>
</g>
<!-- Node1&#45;&gt;Node9 -->
<g id="edge10" class="edge">
<title>Node1&#45;&gt;Node9</title>
<path fill="none" stroke="midnightblue" d="M273.5,-235.08C273.5,-228.01 273.5,-217.86 273.5,-208.99"/>
<polygon fill="midnightblue" stroke="midnightblue" points="277,-208.75 273.5,-198.75 270,-208.75 277,-208.75"/>
</g>
<!-- Node3 -->
<g id="node3" class="node">
<title>Node3</title>
<g id="a_node3"><a xlink:href="win32_8h.html" target="_top" xlink:title=" ">
<polygon fill="white" stroke="black" points="62.5,-6 62.5,-25 190.5,-25 190.5,-6 62.5,-6"/>
<text text-anchor="middle" x="126.5" y="-13" font-family="'Souce Sans Pro', Roboto, FreeSans, sans-serif" font-size="10.00">log4cplus/config/win32.h</text>
</a>
</g>
</g>
<!-- Node2&#45;&gt;Node3 -->
<g id="edge2" class="edge">
<title>Node2&#45;&gt;Node3</title>
<path fill="none" stroke="midnightblue" d="M189.04,-67.48C177.55,-58.11 158.87,-42.88 144.91,-31.51"/>
<polygon fill="midnightblue" stroke="midnightblue" points="146.9,-28.61 136.94,-25.01 142.48,-34.04 146.9,-28.61"/>
</g>
<!-- Node4 -->
<g id="node4" class="node">
<title>Node4</title>
<g id="a_node4"><a xlink:href="thread-config_8h.html" target="_top" xlink:title=" ">
<polygon fill="white" stroke="black" points="208.5,-0.5 208.5,-30.5 336.5,-30.5 336.5,-0.5 208.5,-0.5"/>
<text text-anchor="start" x="216.5" y="-18.5" font-family="'Souce Sans Pro', Roboto, FreeSans, sans-serif" font-size="10.00">log4cplus/helpers/thread</text>
<text text-anchor="middle" x="272.5" y="-7.5" font-family="'Souce Sans Pro', Roboto, FreeSans, sans-serif" font-size="10.00">&#45;config.h</text>
</a>
</g>
</g>
<!-- Node2&#45;&gt;Node4 -->
<g id="edge3" class="edge">
<title>Node2&#45;&gt;Node4</title>
<path fill="none" stroke="midnightblue" d="M209.96,-67.48C219.66,-59.57 234.49,-47.48 247.27,-37.07"/>
<polygon fill="midnightblue" stroke="midnightblue" points="249.76,-39.55 255.3,-30.52 245.33,-34.13 249.76,-39.55"/>
</g>
<!-- Node5&#45;&gt;Node2 -->
<g id="edge5" class="edge">
<title>Node5&#45;&gt;Node2</title>
<path fill="none" stroke="midnightblue" d="M137.14,-179.43C143.05,-170.41 152.55,-155.79 160.5,-143 170.36,-127.15 181.27,-108.91 189.03,-95.79"/>
<polygon fill="midnightblue" stroke="midnightblue" points="192.22,-97.28 194.29,-86.89 186.19,-93.72 192.22,-97.28"/>
</g>
<!-- Node6 -->
<g id="node6" class="node">
<title>Node6</title>
<g id="a_node6"><a xlink:title=" ">
<polygon fill="white" stroke="#bfbfbf" points="111,-123.5 111,-142.5 152,-142.5 152,-123.5 111,-123.5"/>
<text text-anchor="middle" x="131.5" y="-130.5" font-family="'Souce Sans Pro', Roboto, FreeSans, sans-serif" font-size="10.00">string</text>
</a>
</g>
</g>
<!-- Node5&#45;&gt;Node6 -->
<g id="edge6" class="edge">
<title>Node5&#45;&gt;Node6</title>
<path fill="none" stroke="midnightblue" d="M131.5,-179.08C131.5,-172.01 131.5,-161.86 131.5,-152.99"/>
<polygon fill="midnightblue" stroke="midnightblue" points="135,-152.75 131.5,-142.75 128,-152.75 135,-152.75"/>
</g>
<!-- Node7 -->
<g id="node7" class="node">
<title>Node7</title>
<g id="a_node7"><a xlink:href="tchar_8h.html" target="_top" xlink:title=" ">
<polygon fill="white" stroke="black" points="0,-123.5 0,-142.5 93,-142.5 93,-123.5 0,-123.5"/>
<text text-anchor="middle" x="46.5" y="-130.5" font-family="'Souce Sans Pro', Roboto, FreeSans, sans-serif" font-size="10.00">log4cplus/tchar.h</text>
</a>
</g>
</g>
<!-- Node5&#45;&gt;Node7 -->
<g id="edge7" class="edge">
<title>Node5&#45;&gt;Node7</title>
<path fill="none" stroke="midnightblue" d="M117.84,-179.32C104.58,-170.9 84.23,-157.97 68.65,-148.07"/>
<polygon fill="midnightblue" stroke="midnightblue" points="70.44,-145.06 60.12,-142.65 66.69,-150.97 70.44,-145.06"/>
</g>
<!-- Node7&#45;&gt;Node2 -->
<g id="edge8" class="edge">
<title>Node7&#45;&gt;Node2</title>
<path fill="none" stroke="midnightblue" d="M70.74,-123.44C96.37,-114.4 136.99,-100.06 165.74,-89.92"/>
<polygon fill="midnightblue" stroke="midnightblue" points="167.11,-93.15 175.37,-86.52 164.78,-86.54 167.11,-93.15"/>
</g>
<!-- Node8 -->
<g id="node8" class="node">
<title>Node8</title>
<g id="a_node8"><a xlink:title=" ">
<polygon fill="white" stroke="#bfbfbf" points="21,-67.5 21,-86.5 72,-86.5 72,-67.5 21,-67.5"/>
<text text-anchor="middle" x="46.5" y="-74.5" font-family="'Souce Sans Pro', Roboto, FreeSans, sans-serif" font-size="10.00">cstddef</text>
</a>
</g>
</g>
<!-- Node7&#45;&gt;Node8 -->
<g id="edge9" class="edge">
<title>Node7&#45;&gt;Node8</title>
<path fill="none" stroke="midnightblue" d="M46.5,-123.08C46.5,-116.01 46.5,-105.86 46.5,-96.99"/>
<polygon fill="midnightblue" stroke="midnightblue" points="50,-96.75 46.5,-86.75 43,-96.75 50,-96.75"/>
</g>
<!-- Node9&#45;&gt;Node2 -->
<g id="edge11" class="edge">
<title>Node9&#45;&gt;Node2</title>
<path fill="none" stroke="midnightblue" d="M265.93,-179.33C258.36,-170.47 246.56,-156.19 237.5,-143 226.88,-127.55 216.23,-109 208.92,-95.69"/>
<polygon fill="midnightblue" stroke="midnightblue" points="211.87,-93.79 204.04,-86.66 205.72,-97.12 211.87,-93.79"/>
</g>
<!-- Node10 -->
<g id="node10" class="node">
<title>Node10</title>
<g id="a_node10"><a xlink:title=" ">
<polygon fill="white" stroke="#bfbfbf" points="246.5,-123.5 246.5,-142.5 290.5,-142.5 290.5,-123.5 246.5,-123.5"/>
<text text-anchor="middle" x="268.5" y="-130.5" font-family="'Souce Sans Pro', Roboto, FreeSans, sans-serif" font-size="10.00">mutex</text>
</a>
</g>
</g>
<!-- Node9&#45;&gt;Node10 -->
<g id="edge12" class="edge">
<title>Node9&#45;&gt;Node10</title>
<path fill="none" stroke="midnightblue" d="M272.67,-179.08C272.02,-172.01 271.08,-161.86 270.26,-152.99"/>
<polygon fill="midnightblue" stroke="midnightblue" points="273.72,-152.39 269.31,-142.75 266.75,-153.03 273.72,-152.39"/>
</g>
<!-- Node11 -->
<g id="node11" class="node">
<title>Node11</title>
<g id="a_node11"><a xlink:title=" ">
<polygon fill="white" stroke="#bfbfbf" points="308.5,-123.5 308.5,-142.5 404.5,-142.5 404.5,-123.5 308.5,-123.5"/>
<text text-anchor="middle" x="356.5" y="-130.5" font-family="'Souce Sans Pro', Roboto, FreeSans, sans-serif" font-size="10.00">condition_variable</text>
</a>
</g>
</g>
<!-- Node9&#45;&gt;Node11 -->
<g id="edge13" class="edge">
<title>Node9&#45;&gt;Node11</title>
<path fill="none" stroke="midnightblue" d="M286.84,-179.32C299.66,-170.98 319.28,-158.21 334.44,-148.35"/>
<polygon fill="midnightblue" stroke="midnightblue" points="336.72,-151.04 343.2,-142.65 332.91,-145.17 336.72,-151.04"/>
</g>
</g>
</svg>
