<?xml version="1.0" encoding="UTF-8" standalone="no"?>
<!DOCTYPE svg PUBLIC "-//W3C//DTD SVG 1.1//EN"
 "http://www.w3.org/Graphics/SVG/1.1/DTD/svg11.dtd">
<!-- Generated by graphviz version 2.43.0 (0)
 -->
<!-- Title: log4judpappender.h Pages: 1 -->
<svg width="1467pt" height="431pt"
 viewBox="0.00 0.00 1466.71 431.00" xmlns="http://www.w3.org/2000/svg" xmlns:xlink="http://www.w3.org/1999/xlink">
<g id="graph0" class="graph" transform="scale(1 1) rotate(0) translate(4 427)">
<title>log4judpappender.h</title>
<polygon fill="white" stroke="transparent" points="-4,4 -4,-427 1462.71,-427 1462.71,4 -4,4"/>
<!-- Node1 -->
<g id="node1" class="node">
<title>Node1</title>
<g id="a_node1"><a xlink:title=" ">
<polygon fill="#bfbfbf" stroke="black" points="919.21,-403.5 919.21,-422.5 1022.21,-422.5 1022.21,-403.5 919.21,-403.5"/>
<text text-anchor="middle" x="970.71" y="-410.5" font-family="'Souce Sans Pro', Roboto, FreeSans, sans-serif" font-size="10.00">log4judpappender.h</text>
</a>
</g>
</g>
<!-- Node2 -->
<g id="node2" class="node">
<title>Node2</title>
<g id="a_node2"><a xlink:href="config_8hxx.html" target="_top" xlink:title=" ">
<polygon fill="white" stroke="black" points="650.21,-67.5 650.21,-86.5 759.21,-86.5 759.21,-67.5 650.21,-67.5"/>
<text text-anchor="middle" x="704.71" y="-74.5" font-family="'Souce Sans Pro', Roboto, FreeSans, sans-serif" font-size="10.00">log4cplus/config.hxx</text>
</a>
</g>
</g>
<!-- Node1&#45;&gt;Node2 -->
<g id="edge1" class="edge">
<title>Node1&#45;&gt;Node2</title>
<path fill="none" stroke="midnightblue" d="M1022.48,-411.21C1148.07,-407.88 1458.71,-390.69 1458.71,-302 1458.71,-302 1458.71,-302 1458.71,-188 1458.71,-147.77 1432.23,-139.88 1395.71,-123 1339.82,-97.16 930.82,-83.86 769.69,-79.58"/>
<polygon fill="midnightblue" stroke="midnightblue" points="769.53,-76.07 759.44,-79.31 769.35,-83.07 769.53,-76.07"/>
</g>
<!-- Node5 -->
<g id="node5" class="node">
<title>Node5</title>
<g id="a_node5"><a xlink:href="appender_8h.html" target="_top" xlink:title=" ">
<polygon fill="white" stroke="black" points="914.71,-347.5 914.71,-366.5 1026.71,-366.5 1026.71,-347.5 914.71,-347.5"/>
<text text-anchor="middle" x="970.71" y="-354.5" font-family="'Souce Sans Pro', Roboto, FreeSans, sans-serif" font-size="10.00">log4cplus/appender.h</text>
</a>
</g>
</g>
<!-- Node1&#45;&gt;Node5 -->
<g id="edge4" class="edge">
<title>Node1&#45;&gt;Node5</title>
<path fill="none" stroke="midnightblue" d="M970.71,-403.08C970.71,-396.01 970.71,-385.86 970.71,-376.99"/>
<polygon fill="midnightblue" stroke="midnightblue" points="974.21,-376.75 970.71,-366.75 967.21,-376.75 974.21,-376.75"/>
</g>
<!-- Node29 -->
<g id="node29" class="node">
<title>Node29</title>
<g id="a_node29"><a xlink:href="helpers_2socket_8h.html" target="_top" xlink:title=" ">
<polygon fill="white" stroke="black" points="132.71,-291.5 132.71,-310.5 270.71,-310.5 270.71,-291.5 132.71,-291.5"/>
<text text-anchor="middle" x="201.71" y="-298.5" font-family="'Souce Sans Pro', Roboto, FreeSans, sans-serif" font-size="10.00">log4cplus/helpers/socket.h</text>
</a>
</g>
</g>
<!-- Node1&#45;&gt;Node29 -->
<g id="edge53" class="edge">
<title>Node1&#45;&gt;Node29</title>
<path fill="none" stroke="midnightblue" d="M919.06,-404.61C784.67,-385.39 423.96,-333.79 271.39,-311.97"/>
<polygon fill="midnightblue" stroke="midnightblue" points="271.6,-308.46 261.21,-310.51 270.61,-315.39 271.6,-308.46"/>
</g>
<!-- Node3 -->
<g id="node3" class="node">
<title>Node3</title>
<g id="a_node3"><a xlink:href="win32_8h.html" target="_top" xlink:title=" ">
<polygon fill="white" stroke="black" points="567.71,-6 567.71,-25 695.71,-25 695.71,-6 567.71,-6"/>
<text text-anchor="middle" x="631.71" y="-13" font-family="'Souce Sans Pro', Roboto, FreeSans, sans-serif" font-size="10.00">log4cplus/config/win32.h</text>
</a>
</g>
</g>
<!-- Node2&#45;&gt;Node3 -->
<g id="edge2" class="edge">
<title>Node2&#45;&gt;Node3</title>
<path fill="none" stroke="midnightblue" d="M694.25,-67.48C682.76,-58.11 664.08,-42.88 650.13,-31.51"/>
<polygon fill="midnightblue" stroke="midnightblue" points="652.12,-28.61 642.15,-25.01 647.69,-34.04 652.12,-28.61"/>
</g>
<!-- Node4 -->
<g id="node4" class="node">
<title>Node4</title>
<g id="a_node4"><a xlink:href="thread-config_8h.html" target="_top" xlink:title=" ">
<polygon fill="white" stroke="black" points="713.71,-0.5 713.71,-30.5 841.71,-30.5 841.71,-0.5 713.71,-0.5"/>
<text text-anchor="start" x="721.71" y="-18.5" font-family="'Souce Sans Pro', Roboto, FreeSans, sans-serif" font-size="10.00">log4cplus/helpers/thread</text>
<text text-anchor="middle" x="777.71" y="-7.5" font-family="'Souce Sans Pro', Roboto, FreeSans, sans-serif" font-size="10.00">&#45;config.h</text>
</a>
</g>
</g>
<!-- Node2&#45;&gt;Node4 -->
<g id="edge3" class="edge">
<title>Node2&#45;&gt;Node4</title>
<path fill="none" stroke="midnightblue" d="M715.17,-67.48C724.87,-59.57 739.7,-47.48 752.48,-37.07"/>
<polygon fill="midnightblue" stroke="midnightblue" points="754.97,-39.55 760.51,-30.52 750.55,-34.13 754.97,-39.55"/>
</g>
<!-- Node5&#45;&gt;Node2 -->
<g id="edge5" class="edge">
<title>Node5&#45;&gt;Node2</title>
<path fill="none" stroke="midnightblue" d="M971.65,-347.23C973.46,-326.03 975.38,-271.1 951.71,-235 900.71,-157.19 796.31,-110.37 740.99,-90.01"/>
<polygon fill="midnightblue" stroke="midnightblue" points="741.84,-86.6 731.25,-86.52 739.48,-93.19 741.84,-86.6"/>
</g>
<!-- Node6 -->
<g id="node6" class="node">
<title>Node6</title>
<g id="a_node6"><a xlink:href="layout_8h.html" target="_top" xlink:title=" ">
<polygon fill="white" stroke="black" points="554.71,-291.5 554.71,-310.5 652.71,-310.5 652.71,-291.5 554.71,-291.5"/>
<text text-anchor="middle" x="603.71" y="-298.5" font-family="'Souce Sans Pro', Roboto, FreeSans, sans-serif" font-size="10.00">log4cplus/layout.h</text>
</a>
</g>
</g>
<!-- Node5&#45;&gt;Node6 -->
<g id="edge6" class="edge">
<title>Node5&#45;&gt;Node6</title>
<path fill="none" stroke="midnightblue" d="M914.57,-347.74C846.44,-337.71 732.09,-320.89 662.7,-310.68"/>
<polygon fill="midnightblue" stroke="midnightblue" points="663.2,-307.21 652.8,-309.22 662.18,-314.14 663.2,-307.21"/>
</g>
<!-- Node7 -->
<g id="node7" class="node">
<title>Node7</title>
<g id="a_node7"><a xlink:href="loglevel_8h.html" target="_top" xlink:title="This header defines the LogLevel type.">
<polygon fill="white" stroke="black" points="722.71,-235.5 722.71,-254.5 826.71,-254.5 826.71,-235.5 722.71,-235.5"/>
<text text-anchor="middle" x="774.71" y="-242.5" font-family="'Souce Sans Pro', Roboto, FreeSans, sans-serif" font-size="10.00">log4cplus/loglevel.h</text>
</a>
</g>
</g>
<!-- Node5&#45;&gt;Node7 -->
<g id="edge29" class="edge">
<title>Node5&#45;&gt;Node7</title>
<path fill="none" stroke="midnightblue" d="M918.45,-347.46C889.55,-340.9 854.07,-329.69 826.71,-311 808.51,-298.56 793.53,-277.86 784.4,-263.16"/>
<polygon fill="midnightblue" stroke="midnightblue" points="787.39,-261.33 779.27,-254.52 781.37,-264.91 787.39,-261.33"/>
</g>
<!-- Node9 -->
<g id="node9" class="node">
<title>Node9</title>
<g id="a_node9"><a xlink:href="tstring_8h.html" target="_top" xlink:title=" ">
<polygon fill="white" stroke="black" points="231.21,-179.5 231.21,-198.5 330.21,-198.5 330.21,-179.5 231.21,-179.5"/>
<text text-anchor="middle" x="280.71" y="-186.5" font-family="'Souce Sans Pro', Roboto, FreeSans, sans-serif" font-size="10.00">log4cplus/tstring.h</text>
</a>
</g>
</g>
<!-- Node5&#45;&gt;Node9 -->
<g id="edge30" class="edge">
<title>Node5&#45;&gt;Node9</title>
<path fill="none" stroke="midnightblue" d="M914.36,-352.33C778.71,-342.65 438.09,-313.1 341.71,-255 321.3,-242.69 303.37,-221.66 292.32,-206.86"/>
<polygon fill="midnightblue" stroke="midnightblue" points="295.05,-204.67 286.37,-198.59 289.37,-208.75 295.05,-204.67"/>
</g>
<!-- Node18 -->
<g id="node18" class="node">
<title>Node18</title>
<g id="a_node18"><a xlink:title=" ">
<polygon fill="white" stroke="#bfbfbf" points="650.71,-235.5 650.71,-254.5 704.71,-254.5 704.71,-235.5 650.71,-235.5"/>
<text text-anchor="middle" x="677.71" y="-242.5" font-family="'Souce Sans Pro', Roboto, FreeSans, sans-serif" font-size="10.00">memory</text>
</a>
</g>
</g>
<!-- Node5&#45;&gt;Node18 -->
<g id="edge49" class="edge">
<title>Node5&#45;&gt;Node18</title>
<path fill="none" stroke="midnightblue" d="M927.59,-347.43C892.7,-339.83 842.66,-327.39 800.71,-311 764.17,-296.72 724.48,-274.39 700.35,-259.98"/>
<polygon fill="midnightblue" stroke="midnightblue" points="701.98,-256.87 691.61,-254.69 698.35,-262.86 701.98,-256.87"/>
</g>
<!-- Node19 -->
<g id="node19" class="node">
<title>Node19</title>
<g id="a_node19"><a xlink:href="pointer_8h.html" target="_top" xlink:title=" ">
<polygon fill="white" stroke="black" points="1156.71,-235.5 1156.71,-254.5 1294.71,-254.5 1294.71,-235.5 1156.71,-235.5"/>
<text text-anchor="middle" x="1225.71" y="-242.5" font-family="'Souce Sans Pro', Roboto, FreeSans, sans-serif" font-size="10.00">log4cplus/helpers/pointer.h</text>
</a>
</g>
</g>
<!-- Node5&#45;&gt;Node19 -->
<g id="edge31" class="edge">
<title>Node5&#45;&gt;Node19</title>
<path fill="none" stroke="midnightblue" d="M990.72,-347.37C1035.51,-328.05 1143.98,-281.26 1196.39,-258.65"/>
<polygon fill="midnightblue" stroke="midnightblue" points="1198,-261.77 1205.8,-254.59 1195.23,-255.34 1198,-261.77"/>
</g>
<!-- Node21 -->
<g id="node21" class="node">
<title>Node21</title>
<g id="a_node21"><a xlink:title=" ">
<polygon fill="white" stroke="#bfbfbf" points="1140.71,-123.5 1140.71,-142.5 1184.71,-142.5 1184.71,-123.5 1140.71,-123.5"/>
<text text-anchor="middle" x="1162.71" y="-130.5" font-family="'Souce Sans Pro', Roboto, FreeSans, sans-serif" font-size="10.00">mutex</text>
</a>
</g>
</g>
<!-- Node5&#45;&gt;Node21 -->
<g id="edge50" class="edge">
<title>Node5&#45;&gt;Node21</title>
<path fill="none" stroke="midnightblue" d="M1026.89,-356.64C1125.16,-354.22 1321.85,-332.36 1363.71,-199 1366.38,-190.52 1369.27,-185.94 1363.71,-179 1342.95,-153.07 1246.46,-141.08 1195.1,-136.45"/>
<polygon fill="midnightblue" stroke="midnightblue" points="1195.13,-132.94 1184.86,-135.57 1194.53,-139.91 1195.13,-132.94"/>
</g>
<!-- Node22 -->
<g id="node22" class="node">
<title>Node22</title>
<g id="a_node22"><a xlink:title=" ">
<polygon fill="white" stroke="#bfbfbf" points="1290.71,-123.5 1290.71,-142.5 1386.71,-142.5 1386.71,-123.5 1290.71,-123.5"/>
<text text-anchor="middle" x="1338.71" y="-130.5" font-family="'Souce Sans Pro', Roboto, FreeSans, sans-serif" font-size="10.00">condition_variable</text>
</a>
</g>
</g>
<!-- Node5&#45;&gt;Node22 -->
<g id="edge52" class="edge">
<title>Node5&#45;&gt;Node22</title>
<path fill="none" stroke="midnightblue" d="M1026.72,-351.88C1105.13,-345.48 1243.14,-331.67 1288.71,-311 1346.87,-284.62 1365.41,-261.46 1378.71,-199 1380.57,-190.31 1381.87,-187.31 1378.71,-179 1374.38,-167.6 1365.68,-157.24 1357.5,-149.34"/>
<polygon fill="midnightblue" stroke="midnightblue" points="1359.75,-146.66 1349.98,-142.57 1355.07,-151.86 1359.75,-146.66"/>
</g>
<!-- Node25 -->
<g id="node25" class="node">
<title>Node25</title>
<g id="a_node25"><a xlink:title=" ">
<polygon fill="white" stroke="#bfbfbf" points="1307.21,-179.5 1307.21,-198.5 1354.21,-198.5 1354.21,-179.5 1307.21,-179.5"/>
<text text-anchor="middle" x="1330.71" y="-186.5" font-family="'Souce Sans Pro', Roboto, FreeSans, sans-serif" font-size="10.00">atomic</text>
</a>
</g>
</g>
<!-- Node5&#45;&gt;Node25 -->
<g id="edge51" class="edge">
<title>Node5&#45;&gt;Node25</title>
<path fill="none" stroke="midnightblue" d="M1026.71,-353.32C1099.23,-346.98 1225.57,-325.76 1303.71,-255 1317.14,-242.84 1324.07,-222.97 1327.53,-208.4"/>
<polygon fill="midnightblue" stroke="midnightblue" points="1330.98,-209 1329.54,-198.5 1324.12,-207.6 1330.98,-209"/>
</g>
<!-- Node26 -->
<g id="node26" class="node">
<title>Node26</title>
<g id="a_node26"><a xlink:href="filter_8h.html" target="_top" xlink:title="This header defines Filter and all of it&#39;s subclasses.">
<polygon fill="white" stroke="black" points="835.21,-291.5 835.21,-310.5 942.21,-310.5 942.21,-291.5 835.21,-291.5"/>
<text text-anchor="middle" x="888.71" y="-298.5" font-family="'Souce Sans Pro', Roboto, FreeSans, sans-serif" font-size="10.00">log4cplus/spi/filter.h</text>
</a>
</g>
</g>
<!-- Node5&#45;&gt;Node26 -->
<g id="edge40" class="edge">
<title>Node5&#45;&gt;Node26</title>
<path fill="none" stroke="midnightblue" d="M957.54,-347.32C944.87,-338.98 925.48,-326.21 910.51,-316.35"/>
<polygon fill="midnightblue" stroke="midnightblue" points="912.13,-313.23 901.86,-310.65 908.28,-319.08 912.13,-313.23"/>
</g>
<!-- Node28 -->
<g id="node28" class="node">
<title>Node28</title>
<g id="a_node28"><a xlink:href="lockfile_8h.html" target="_top" xlink:title=" ">
<polygon fill="white" stroke="black" points="998.71,-235.5 998.71,-254.5 1138.71,-254.5 1138.71,-235.5 998.71,-235.5"/>
<text text-anchor="middle" x="1068.71" y="-242.5" font-family="'Souce Sans Pro', Roboto, FreeSans, sans-serif" font-size="10.00">log4cplus/helpers/lockfile.h</text>
</a>
</g>
</g>
<!-- Node5&#45;&gt;Node28 -->
<g id="edge45" class="edge">
<title>Node5&#45;&gt;Node28</title>
<path fill="none" stroke="midnightblue" d="M978.4,-347.37C994.72,-329.05 1033.03,-286.05 1054.14,-262.36"/>
<polygon fill="midnightblue" stroke="midnightblue" points="1057.02,-264.39 1061.06,-254.59 1051.79,-259.73 1057.02,-264.39"/>
</g>
<!-- Node6&#45;&gt;Node2 -->
<g id="edge7" class="edge">
<title>Node6&#45;&gt;Node2</title>
<path fill="none" stroke="midnightblue" d="M605.83,-291.42C609.06,-278.82 615.68,-254.68 623.71,-235 645.17,-182.42 677.96,-123.76 694.47,-95.33"/>
<polygon fill="midnightblue" stroke="midnightblue" points="697.55,-96.99 699.58,-86.59 691.51,-93.46 697.55,-96.99"/>
</g>
<!-- Node6&#45;&gt;Node7 -->
<g id="edge8" class="edge">
<title>Node6&#45;&gt;Node7</title>
<path fill="none" stroke="midnightblue" d="M630.81,-291.44C659.7,-282.32 705.64,-267.81 737.82,-257.65"/>
<polygon fill="midnightblue" stroke="midnightblue" points="739.26,-260.87 747.75,-254.52 737.16,-254.19 739.26,-260.87"/>
</g>
<!-- Node8 -->
<g id="node8" class="node">
<title>Node8</title>
<g id="a_node8"><a xlink:title=" ">
<polygon fill="white" stroke="#bfbfbf" points="678.71,-179.5 678.71,-198.5 722.71,-198.5 722.71,-179.5 678.71,-179.5"/>
<text text-anchor="middle" x="700.71" y="-186.5" font-family="'Souce Sans Pro', Roboto, FreeSans, sans-serif" font-size="10.00">vector</text>
</a>
</g>
</g>
<!-- Node6&#45;&gt;Node8 -->
<g id="edge27" class="edge">
<title>Node6&#45;&gt;Node8</title>
<path fill="none" stroke="midnightblue" d="M607.45,-291.31C613.4,-278.16 625.95,-252.82 641.71,-235 652.19,-223.16 666.18,-212.33 677.91,-204.26"/>
<polygon fill="midnightblue" stroke="midnightblue" points="679.94,-207.11 686.34,-198.66 676.07,-201.28 679.94,-207.11"/>
</g>
<!-- Node6&#45;&gt;Node9 -->
<g id="edge21" class="edge">
<title>Node6&#45;&gt;Node9</title>
<path fill="none" stroke="midnightblue" d="M554.62,-295.1C509.05,-289.36 439.96,-277.62 383.71,-255 352.07,-242.27 319.41,-219.78 299.58,-204.88"/>
<polygon fill="midnightblue" stroke="midnightblue" points="301.49,-201.93 291.42,-198.63 297.23,-207.49 301.49,-201.93"/>
</g>
<!-- Node13 -->
<g id="node13" class="node">
<title>Node13</title>
<g id="a_node13"><a xlink:href="streams_8h.html" target="_top" xlink:title=" ">
<polygon fill="white" stroke="black" points="348.21,-179.5 348.21,-198.5 455.21,-198.5 455.21,-179.5 348.21,-179.5"/>
<text text-anchor="middle" x="401.71" y="-186.5" font-family="'Souce Sans Pro', Roboto, FreeSans, sans-serif" font-size="10.00">log4cplus/streams.h</text>
</a>
</g>
</g>
<!-- Node6&#45;&gt;Node13 -->
<g id="edge17" class="edge">
<title>Node6&#45;&gt;Node13</title>
<path fill="none" stroke="midnightblue" d="M554.3,-296.43C498.7,-291.26 413.52,-279.5 393.71,-255 383.13,-241.91 387.47,-222.22 393,-207.94"/>
<polygon fill="midnightblue" stroke="midnightblue" points="396.25,-209.24 397.05,-198.67 389.84,-206.43 396.25,-209.24"/>
</g>
<!-- Node15 -->
<g id="node15" class="node">
<title>Node15</title>
<g id="a_node15"><a xlink:href="timehelper_8h.html" target="_top" xlink:title=" ">
<polygon fill="white" stroke="black" points="402.71,-235.5 402.71,-254.5 556.71,-254.5 556.71,-235.5 402.71,-235.5"/>
<text text-anchor="middle" x="479.71" y="-242.5" font-family="'Souce Sans Pro', Roboto, FreeSans, sans-serif" font-size="10.00">log4cplus/helpers/timehelper.h</text>
</a>
</g>
</g>
<!-- Node6&#45;&gt;Node15 -->
<g id="edge22" class="edge">
<title>Node6&#45;&gt;Node15</title>
<path fill="none" stroke="midnightblue" d="M584.07,-291.44C563.75,-282.6 531.81,-268.69 508.62,-258.59"/>
<polygon fill="midnightblue" stroke="midnightblue" points="509.84,-255.3 499.27,-254.52 507.04,-261.72 509.84,-255.3"/>
</g>
<!-- Node6&#45;&gt;Node18 -->
<g id="edge28" class="edge">
<title>Node6&#45;&gt;Node18</title>
<path fill="none" stroke="midnightblue" d="M615.6,-291.32C626.86,-283.11 644,-270.6 657.42,-260.81"/>
<polygon fill="midnightblue" stroke="midnightblue" points="659.59,-263.56 665.61,-254.83 655.47,-257.9 659.59,-263.56"/>
</g>
<!-- Node7&#45;&gt;Node2 -->
<g id="edge9" class="edge">
<title>Node7&#45;&gt;Node2</title>
<path fill="none" stroke="midnightblue" d="M770.95,-235.08C759.88,-208.83 727.29,-131.55 712.35,-96.12"/>
<polygon fill="midnightblue" stroke="midnightblue" points="715.44,-94.42 708.33,-86.57 708.99,-97.14 715.44,-94.42"/>
</g>
<!-- Node7&#45;&gt;Node8 -->
<g id="edge10" class="edge">
<title>Node7&#45;&gt;Node8</title>
<path fill="none" stroke="midnightblue" d="M762.82,-235.32C751.56,-227.11 734.43,-214.6 721,-204.81"/>
<polygon fill="midnightblue" stroke="midnightblue" points="722.96,-201.9 712.82,-198.83 718.83,-207.56 722.96,-201.9"/>
</g>
<!-- Node7&#45;&gt;Node9 -->
<g id="edge11" class="edge">
<title>Node7&#45;&gt;Node9</title>
<path fill="none" stroke="midnightblue" d="M722.49,-236.12C719.53,-235.72 716.58,-235.35 713.71,-235 550.75,-215.17 506.56,-219.66 340.44,-199.15"/>
<polygon fill="midnightblue" stroke="midnightblue" points="340.72,-195.66 330.36,-197.9 339.85,-202.61 340.72,-195.66"/>
</g>
<!-- Node9&#45;&gt;Node2 -->
<g id="edge12" class="edge">
<title>Node9&#45;&gt;Node2</title>
<path fill="none" stroke="midnightblue" d="M289.87,-179.06C305.32,-164.59 338.14,-136.3 371.71,-123 460.06,-87.99 570.79,-79.32 639.66,-77.64"/>
<polygon fill="midnightblue" stroke="midnightblue" points="640,-81.13 649.93,-77.43 639.86,-74.13 640,-81.13"/>
</g>
<!-- Node10 -->
<g id="node10" class="node">
<title>Node10</title>
<g id="a_node10"><a xlink:title=" ">
<polygon fill="white" stroke="#bfbfbf" points="172.21,-123.5 172.21,-142.5 213.21,-142.5 213.21,-123.5 172.21,-123.5"/>
<text text-anchor="middle" x="192.71" y="-130.5" font-family="'Souce Sans Pro', Roboto, FreeSans, sans-serif" font-size="10.00">string</text>
</a>
</g>
</g>
<!-- Node9&#45;&gt;Node10 -->
<g id="edge13" class="edge">
<title>Node9&#45;&gt;Node10</title>
<path fill="none" stroke="midnightblue" d="M266.58,-179.32C252.85,-170.9 231.78,-157.97 215.65,-148.07"/>
<polygon fill="midnightblue" stroke="midnightblue" points="217.17,-144.9 206.82,-142.65 213.51,-150.87 217.17,-144.9"/>
</g>
<!-- Node11 -->
<g id="node11" class="node">
<title>Node11</title>
<g id="a_node11"><a xlink:href="tchar_8h.html" target="_top" xlink:title=" ">
<polygon fill="white" stroke="black" points="231.21,-123.5 231.21,-142.5 324.21,-142.5 324.21,-123.5 231.21,-123.5"/>
<text text-anchor="middle" x="277.71" y="-130.5" font-family="'Souce Sans Pro', Roboto, FreeSans, sans-serif" font-size="10.00">log4cplus/tchar.h</text>
</a>
</g>
</g>
<!-- Node9&#45;&gt;Node11 -->
<g id="edge14" class="edge">
<title>Node9&#45;&gt;Node11</title>
<path fill="none" stroke="midnightblue" d="M280.22,-179.08C279.83,-172.01 279.26,-161.86 278.77,-152.99"/>
<polygon fill="midnightblue" stroke="midnightblue" points="282.25,-152.54 278.2,-142.75 275.26,-152.93 282.25,-152.54"/>
</g>
<!-- Node11&#45;&gt;Node2 -->
<g id="edge15" class="edge">
<title>Node11&#45;&gt;Node2</title>
<path fill="none" stroke="midnightblue" d="M324.32,-125C329.18,-124.31 334.05,-123.63 338.71,-123 444.15,-108.74 566.93,-94.03 640.1,-85.47"/>
<polygon fill="midnightblue" stroke="midnightblue" points="640.57,-88.94 650.09,-84.3 639.75,-81.98 640.57,-88.94"/>
</g>
<!-- Node12 -->
<g id="node12" class="node">
<title>Node12</title>
<g id="a_node12"><a xlink:title=" ">
<polygon fill="white" stroke="#bfbfbf" points="252.21,-67.5 252.21,-86.5 303.21,-86.5 303.21,-67.5 252.21,-67.5"/>
<text text-anchor="middle" x="277.71" y="-74.5" font-family="'Souce Sans Pro', Roboto, FreeSans, sans-serif" font-size="10.00">cstddef</text>
</a>
</g>
</g>
<!-- Node11&#45;&gt;Node12 -->
<g id="edge16" class="edge">
<title>Node11&#45;&gt;Node12</title>
<path fill="none" stroke="midnightblue" d="M277.71,-123.08C277.71,-116.01 277.71,-105.86 277.71,-96.99"/>
<polygon fill="midnightblue" stroke="midnightblue" points="281.21,-96.75 277.71,-86.75 274.21,-96.75 281.21,-96.75"/>
</g>
<!-- Node13&#45;&gt;Node2 -->
<g id="edge18" class="edge">
<title>Node13&#45;&gt;Node2</title>
<path fill="none" stroke="midnightblue" d="M409.51,-179.26C422.69,-165.06 450.87,-137.17 480.71,-123 531.01,-99.11 593.51,-87.89 639.69,-82.63"/>
<polygon fill="midnightblue" stroke="midnightblue" points="640.31,-86.08 649.88,-81.53 639.57,-79.12 640.31,-86.08"/>
</g>
<!-- Node13&#45;&gt;Node11 -->
<g id="edge19" class="edge">
<title>Node13&#45;&gt;Node11</title>
<path fill="none" stroke="midnightblue" d="M382.07,-179.44C361.75,-170.6 329.81,-156.69 306.62,-146.59"/>
<polygon fill="midnightblue" stroke="midnightblue" points="307.84,-143.3 297.27,-142.52 305.04,-149.72 307.84,-143.3"/>
</g>
<!-- Node14 -->
<g id="node14" class="node">
<title>Node14</title>
<g id="a_node14"><a xlink:title=" ">
<polygon fill="white" stroke="#bfbfbf" points="381.21,-123.5 381.21,-142.5 428.21,-142.5 428.21,-123.5 381.21,-123.5"/>
<text text-anchor="middle" x="404.71" y="-130.5" font-family="'Souce Sans Pro', Roboto, FreeSans, sans-serif" font-size="10.00">iosfwd</text>
</a>
</g>
</g>
<!-- Node13&#45;&gt;Node14 -->
<g id="edge20" class="edge">
<title>Node13&#45;&gt;Node14</title>
<path fill="none" stroke="midnightblue" d="M402.21,-179.08C402.6,-172.01 403.17,-161.86 403.66,-152.99"/>
<polygon fill="midnightblue" stroke="midnightblue" points="407.17,-152.93 404.23,-142.75 400.18,-152.54 407.17,-152.93"/>
</g>
<!-- Node15&#45;&gt;Node2 -->
<g id="edge23" class="edge">
<title>Node15&#45;&gt;Node2</title>
<path fill="none" stroke="midnightblue" d="M480.69,-235.38C482.63,-221.86 488.13,-195.51 502.71,-179 544.92,-131.23 614.98,-103.4 660.5,-89.45"/>
<polygon fill="midnightblue" stroke="midnightblue" points="661.51,-92.8 670.1,-86.6 659.52,-86.09 661.51,-92.8"/>
</g>
<!-- Node15&#45;&gt;Node9 -->
<g id="edge24" class="edge">
<title>Node15&#45;&gt;Node9</title>
<path fill="none" stroke="midnightblue" d="M448.18,-235.44C414.12,-226.2 359.71,-211.44 322.2,-201.26"/>
<polygon fill="midnightblue" stroke="midnightblue" points="322.67,-197.76 312.1,-198.52 320.83,-204.51 322.67,-197.76"/>
</g>
<!-- Node16 -->
<g id="node16" class="node">
<title>Node16</title>
<g id="a_node16"><a xlink:title=" ">
<polygon fill="white" stroke="#bfbfbf" points="512.21,-179.5 512.21,-198.5 553.21,-198.5 553.21,-179.5 512.21,-179.5"/>
<text text-anchor="middle" x="532.71" y="-186.5" font-family="'Souce Sans Pro', Roboto, FreeSans, sans-serif" font-size="10.00">ctime</text>
</a>
</g>
</g>
<!-- Node15&#45;&gt;Node16 -->
<g id="edge25" class="edge">
<title>Node15&#45;&gt;Node16</title>
<path fill="none" stroke="midnightblue" d="M488.47,-235.08C496.18,-227.22 507.62,-215.57 516.93,-206.08"/>
<polygon fill="midnightblue" stroke="midnightblue" points="519.62,-208.34 524.12,-198.75 514.62,-203.44 519.62,-208.34"/>
</g>
<!-- Node17 -->
<g id="node17" class="node">
<title>Node17</title>
<g id="a_node17"><a xlink:title=" ">
<polygon fill="white" stroke="#bfbfbf" points="571.21,-179.5 571.21,-198.5 618.21,-198.5 618.21,-179.5 571.21,-179.5"/>
<text text-anchor="middle" x="594.71" y="-186.5" font-family="'Souce Sans Pro', Roboto, FreeSans, sans-serif" font-size="10.00">chrono</text>
</a>
</g>
</g>
<!-- Node15&#45;&gt;Node17 -->
<g id="edge26" class="edge">
<title>Node15&#45;&gt;Node17</title>
<path fill="none" stroke="midnightblue" d="M497.94,-235.44C516.61,-226.68 545.87,-212.94 567.33,-202.86"/>
<polygon fill="midnightblue" stroke="midnightblue" points="569.01,-205.93 576.58,-198.52 566.04,-199.6 569.01,-205.93"/>
</g>
<!-- Node19&#45;&gt;Node2 -->
<g id="edge32" class="edge">
<title>Node19&#45;&gt;Node2</title>
<path fill="none" stroke="midnightblue" d="M1168.73,-235.49C1102.77,-225.3 1001.16,-208.43 985.71,-199 949.21,-176.72 963.05,-145.54 926.71,-123 879.24,-93.54 816.08,-82.92 769.27,-79.3"/>
<polygon fill="midnightblue" stroke="midnightblue" points="769.46,-75.81 759.24,-78.61 768.98,-82.79 769.46,-75.81"/>
</g>
<!-- Node20 -->
<g id="node20" class="node">
<title>Node20</title>
<g id="a_node20"><a xlink:href="syncprims_8h.html" target="_top" xlink:title=" ">
<polygon fill="white" stroke="black" points="994.21,-179.5 994.21,-198.5 1143.21,-198.5 1143.21,-179.5 994.21,-179.5"/>
<text text-anchor="middle" x="1068.71" y="-186.5" font-family="'Souce Sans Pro', Roboto, FreeSans, sans-serif" font-size="10.00">log4cplus/thread/syncprims.h</text>
</a>
</g>
</g>
<!-- Node19&#45;&gt;Node20 -->
<g id="edge33" class="edge">
<title>Node19&#45;&gt;Node20</title>
<path fill="none" stroke="midnightblue" d="M1200.84,-235.44C1174.42,-226.36 1132.5,-211.94 1102.97,-201.78"/>
<polygon fill="midnightblue" stroke="midnightblue" points="1104.07,-198.46 1093.47,-198.52 1101.79,-205.08 1104.07,-198.46"/>
</g>
<!-- Node23 -->
<g id="node23" class="node">
<title>Node23</title>
<g id="a_node23"><a xlink:title=" ">
<polygon fill="white" stroke="#bfbfbf" points="1161.21,-179.5 1161.21,-198.5 1220.21,-198.5 1220.21,-179.5 1161.21,-179.5"/>
<text text-anchor="middle" x="1190.71" y="-186.5" font-family="'Souce Sans Pro', Roboto, FreeSans, sans-serif" font-size="10.00">algorithm</text>
</a>
</g>
</g>
<!-- Node19&#45;&gt;Node23 -->
<g id="edge37" class="edge">
<title>Node19&#45;&gt;Node23</title>
<path fill="none" stroke="midnightblue" d="M1219.93,-235.08C1215.04,-227.53 1207.89,-216.49 1201.88,-207.23"/>
<polygon fill="midnightblue" stroke="midnightblue" points="1204.76,-205.24 1196.39,-198.75 1198.89,-209.05 1204.76,-205.24"/>
</g>
<!-- Node24 -->
<g id="node24" class="node">
<title>Node24</title>
<g id="a_node24"><a xlink:title=" ">
<polygon fill="white" stroke="#bfbfbf" points="1238.71,-179.5 1238.71,-198.5 1288.71,-198.5 1288.71,-179.5 1238.71,-179.5"/>
<text text-anchor="middle" x="1263.71" y="-186.5" font-family="'Souce Sans Pro', Roboto, FreeSans, sans-serif" font-size="10.00">cassert</text>
</a>
</g>
</g>
<!-- Node19&#45;&gt;Node24 -->
<g id="edge38" class="edge">
<title>Node19&#45;&gt;Node24</title>
<path fill="none" stroke="midnightblue" d="M1231.99,-235.08C1237.36,-227.46 1245.23,-216.26 1251.79,-206.94"/>
<polygon fill="midnightblue" stroke="midnightblue" points="1254.66,-208.94 1257.56,-198.75 1248.94,-204.91 1254.66,-208.94"/>
</g>
<!-- Node19&#45;&gt;Node25 -->
<g id="edge39" class="edge">
<title>Node19&#45;&gt;Node25</title>
<path fill="none" stroke="midnightblue" d="M1242.58,-235.32C1259.42,-226.66 1285.52,-213.24 1304.95,-203.25"/>
<polygon fill="midnightblue" stroke="midnightblue" points="1306.59,-206.34 1313.89,-198.65 1303.39,-200.12 1306.59,-206.34"/>
</g>
<!-- Node20&#45;&gt;Node2 -->
<g id="edge34" class="edge">
<title>Node20&#45;&gt;Node2</title>
<path fill="none" stroke="midnightblue" d="M1059.88,-179.16C1044.97,-164.82 1013.27,-136.72 980.71,-123 912.24,-94.14 826.98,-83.7 769.49,-79.98"/>
<polygon fill="midnightblue" stroke="midnightblue" points="769.63,-76.48 759.44,-79.38 769.22,-83.47 769.63,-76.48"/>
</g>
<!-- Node20&#45;&gt;Node21 -->
<g id="edge35" class="edge">
<title>Node20&#45;&gt;Node21</title>
<path fill="none" stroke="midnightblue" d="M1083.82,-179.32C1098.62,-170.82 1121.41,-157.73 1138.7,-147.8"/>
<polygon fill="midnightblue" stroke="midnightblue" points="1140.72,-150.67 1147.65,-142.65 1137.23,-144.6 1140.72,-150.67"/>
</g>
<!-- Node20&#45;&gt;Node22 -->
<g id="edge36" class="edge">
<title>Node20&#45;&gt;Node22</title>
<path fill="none" stroke="midnightblue" d="M1111.5,-179.44C1158.89,-169.96 1235.34,-154.67 1286.3,-144.48"/>
<polygon fill="midnightblue" stroke="midnightblue" points="1287.01,-147.91 1296.13,-142.52 1285.64,-141.05 1287.01,-147.91"/>
</g>
<!-- Node26&#45;&gt;Node2 -->
<g id="edge41" class="edge">
<title>Node26&#45;&gt;Node2</title>
<path fill="none" stroke="midnightblue" d="M881.54,-291.14C871.39,-278.61 852.21,-254.99 835.71,-235 793.34,-183.63 742.72,-123.24 718.7,-94.64"/>
<polygon fill="midnightblue" stroke="midnightblue" points="721.25,-92.23 712.14,-86.82 715.89,-96.73 721.25,-92.23"/>
</g>
<!-- Node26&#45;&gt;Node7 -->
<g id="edge44" class="edge">
<title>Node26&#45;&gt;Node7</title>
<path fill="none" stroke="midnightblue" d="M870.65,-291.44C852.14,-282.68 823.13,-268.94 801.86,-258.86"/>
<polygon fill="midnightblue" stroke="midnightblue" points="803.23,-255.63 792.69,-254.52 800.23,-261.96 803.23,-255.63"/>
</g>
<!-- Node26&#45;&gt;Node19 -->
<g id="edge43" class="edge">
<title>Node26&#45;&gt;Node19</title>
<path fill="none" stroke="midnightblue" d="M942.11,-291.44C1002.01,-281.85 1099.08,-266.29 1162.66,-256.1"/>
<polygon fill="midnightblue" stroke="midnightblue" points="1163.24,-259.55 1172.56,-254.52 1162.14,-252.64 1163.24,-259.55"/>
</g>
<!-- Node27 -->
<g id="node27" class="node">
<title>Node27</title>
<g id="a_node27"><a xlink:title=" ">
<polygon fill="white" stroke="#bfbfbf" points="882.71,-235.5 882.71,-254.5 942.71,-254.5 942.71,-235.5 882.71,-235.5"/>
<text text-anchor="middle" x="912.71" y="-242.5" font-family="'Souce Sans Pro', Roboto, FreeSans, sans-serif" font-size="10.00">functional</text>
</a>
</g>
</g>
<!-- Node26&#45;&gt;Node27 -->
<g id="edge42" class="edge">
<title>Node26&#45;&gt;Node27</title>
<path fill="none" stroke="midnightblue" d="M892.68,-291.08C895.93,-283.77 900.63,-273.18 904.67,-264.1"/>
<polygon fill="midnightblue" stroke="midnightblue" points="907.96,-265.31 908.82,-254.75 901.56,-262.47 907.96,-265.31"/>
</g>
<!-- Node28&#45;&gt;Node2 -->
<g id="edge46" class="edge">
<title>Node28&#45;&gt;Node2</title>
<path fill="none" stroke="midnightblue" d="M1029.47,-235.46C1005.34,-228.69 974.89,-217.26 952.71,-199 921.87,-173.61 937.36,-146.03 904.71,-123 865.22,-95.14 811.35,-84.17 769.46,-80.02"/>
<polygon fill="midnightblue" stroke="midnightblue" points="769.63,-76.52 759.36,-79.12 769.01,-83.49 769.63,-76.52"/>
</g>
<!-- Node28&#45;&gt;Node9 -->
<g id="edge47" class="edge">
<title>Node28&#45;&gt;Node9</title>
<path fill="none" stroke="midnightblue" d="M998.51,-238.39C983.09,-237.22 966.86,-236.03 951.71,-235 682.75,-216.76 611.81,-227.68 340.5,-199.1"/>
<polygon fill="midnightblue" stroke="midnightblue" points="340.66,-195.6 330.35,-198.02 339.92,-202.56 340.66,-195.6"/>
</g>
<!-- Node28&#45;&gt;Node20 -->
<g id="edge48" class="edge">
<title>Node28&#45;&gt;Node20</title>
<path fill="none" stroke="midnightblue" d="M1068.71,-235.08C1068.71,-228.01 1068.71,-217.86 1068.71,-208.99"/>
<polygon fill="midnightblue" stroke="midnightblue" points="1072.21,-208.75 1068.71,-198.75 1065.21,-208.75 1072.21,-208.75"/>
</g>
<!-- Node29&#45;&gt;Node2 -->
<g id="edge54" class="edge">
<title>Node29&#45;&gt;Node2</title>
<path fill="none" stroke="midnightblue" d="M132.61,-293.39C82.12,-286.96 19.8,-275.15 3.71,-255 -1.83,-248.05 -0.05,-243.05 3.71,-235 36.58,-164.69 65.86,-152.34 137.71,-123 227.17,-86.47 511.2,-79.49 640.05,-78.23"/>
<polygon fill="midnightblue" stroke="midnightblue" points="640.2,-81.73 650.17,-78.14 640.14,-74.73 640.2,-81.73"/>
</g>
<!-- Node29&#45;&gt;Node9 -->
<g id="edge56" class="edge">
<title>Node29&#45;&gt;Node9</title>
<path fill="none" stroke="midnightblue" d="M203.03,-291.29C205.37,-278.1 211.21,-252.72 223.71,-235 232.37,-222.73 245.32,-212.13 256.69,-204.31"/>
<polygon fill="midnightblue" stroke="midnightblue" points="258.89,-207.05 265.35,-198.65 255.06,-201.19 258.89,-207.05"/>
</g>
<!-- Node30 -->
<g id="node30" class="node">
<title>Node30</title>
<g id="a_node30"><a xlink:title=" ">
<polygon fill="white" stroke="#bfbfbf" points="232.71,-235.5 232.71,-254.5 270.71,-254.5 270.71,-235.5 232.71,-235.5"/>
<text text-anchor="middle" x="251.71" y="-242.5" font-family="'Souce Sans Pro', Roboto, FreeSans, sans-serif" font-size="10.00">array</text>
</a>
</g>
</g>
<!-- Node29&#45;&gt;Node30 -->
<g id="edge55" class="edge">
<title>Node29&#45;&gt;Node30</title>
<path fill="none" stroke="midnightblue" d="M209.97,-291.08C217.18,-283.3 227.82,-271.8 236.56,-262.37"/>
<polygon fill="midnightblue" stroke="midnightblue" points="239.38,-264.47 243.61,-254.75 234.25,-259.71 239.38,-264.47"/>
</g>
<!-- Node31 -->
<g id="node31" class="node">
<title>Node31</title>
<g id="a_node31"><a xlink:href="socketbuffer_8h.html" target="_top" xlink:title=" ">
<polygon fill="white" stroke="black" points="12.71,-235.5 12.71,-254.5 176.71,-254.5 176.71,-235.5 12.71,-235.5"/>
<text text-anchor="middle" x="94.71" y="-242.5" font-family="'Souce Sans Pro', Roboto, FreeSans, sans-serif" font-size="10.00">log4cplus/helpers/socketbuffer.h</text>
</a>
</g>
</g>
<!-- Node29&#45;&gt;Node31 -->
<g id="edge57" class="edge">
<title>Node29&#45;&gt;Node31</title>
<path fill="none" stroke="midnightblue" d="M184.52,-291.32C167.36,-282.66 140.77,-269.24 120.97,-259.25"/>
<polygon fill="midnightblue" stroke="midnightblue" points="122.37,-256.04 111.86,-254.65 119.21,-262.28 122.37,-256.04"/>
</g>
<!-- Node31&#45;&gt;Node2 -->
<g id="edge58" class="edge">
<title>Node31&#45;&gt;Node2</title>
<path fill="none" stroke="midnightblue" d="M96.62,-235.36C102.19,-212.43 120.74,-149.95 162.71,-123 202.01,-97.77 504.29,-84.66 639.6,-80"/>
<polygon fill="midnightblue" stroke="midnightblue" points="639.95,-83.5 649.82,-79.66 639.71,-76.5 639.95,-83.5"/>
</g>
<!-- Node31&#45;&gt;Node9 -->
<g id="edge59" class="edge">
<title>Node31&#45;&gt;Node9</title>
<path fill="none" stroke="midnightblue" d="M124.19,-235.44C155.88,-226.24 206.45,-211.56 241.49,-201.39"/>
<polygon fill="midnightblue" stroke="midnightblue" points="242.75,-204.67 251.38,-198.52 240.8,-197.94 242.75,-204.67"/>
</g>
</g>
</svg>
