<?xml version="1.0" encoding="UTF-8" standalone="no"?>
<!DOCTYPE svg PUBLIC "-//W3C//DTD SVG 1.1//EN"
 "http://www.w3.org/Graphics/SVG/1.1/DTD/svg11.dtd">
<!-- Generated by graphviz version 2.43.0 (0)
 -->
<!-- Title: logger.h Pages: 1 -->
<svg width="402pt" height="196pt"
 viewBox="0.00 0.00 401.50 196.00" xmlns="http://www.w3.org/2000/svg" xmlns:xlink="http://www.w3.org/1999/xlink">
<g id="graph0" class="graph" transform="scale(1 1) rotate(0) translate(4 192)">
<title>logger.h</title>
<polygon fill="white" stroke="transparent" points="-4,4 -4,-192 397.5,-192 397.5,4 -4,4"/>
<!-- Node1 -->
<g id="node1" class="node">
<title>Node1</title>
<g id="a_node1"><a xlink:title="This header defines the Logger class and the logging macros.">
<polygon fill="#bfbfbf" stroke="black" points="154.5,-168.5 154.5,-187.5 206.5,-187.5 206.5,-168.5 154.5,-168.5"/>
<text text-anchor="middle" x="180.5" y="-175.5" font-family="'Souce Sans Pro', Roboto, FreeSans, sans-serif" font-size="10.00">logger.h</text>
</a>
</g>
</g>
<!-- Node2 -->
<g id="node2" class="node">
<title>Node2</title>
<g id="a_node2"><a xlink:href="configurator_8h.html" target="_top" xlink:title=" ">
<polygon fill="white" stroke="black" points="0,-56.5 0,-75.5 77,-75.5 77,-56.5 0,-56.5"/>
<text text-anchor="middle" x="38.5" y="-63.5" font-family="'Souce Sans Pro', Roboto, FreeSans, sans-serif" font-size="10.00">configurator.h</text>
</a>
</g>
</g>
<!-- Node1&#45;&gt;Node2 -->
<g id="edge1" class="edge">
<title>Node1&#45;&gt;Node2</title>
<path fill="none" stroke="midnightblue" d="M147.99,-164.5C130.23,-156.74 108.46,-145.64 91.5,-132 70.62,-115.21 52.38,-88.97 43.77,-75.55"/>
<polygon fill="midnightblue" stroke="midnightblue" points="146.81,-167.8 157.39,-168.46 149.53,-161.35 146.81,-167.8"/>
</g>
<!-- Node3 -->
<g id="node3" class="node">
<title>Node3</title>
<g id="a_node3"><a xlink:href="log4cplus_8h.html" target="_top" xlink:title=" ">
<polygon fill="white" stroke="black" points="132,-0.5 132,-19.5 199,-19.5 199,-0.5 132,-0.5"/>
<text text-anchor="middle" x="165.5" y="-7.5" font-family="'Souce Sans Pro', Roboto, FreeSans, sans-serif" font-size="10.00">log4cplus.h</text>
</a>
</g>
</g>
<!-- Node1&#45;&gt;Node3 -->
<g id="edge6" class="edge">
<title>Node1&#45;&gt;Node3</title>
<path fill="none" stroke="midnightblue" d="M167.66,-160.23C153.87,-141.07 132.83,-108.19 124.5,-76 122.27,-67.39 121.29,-64.29 124.5,-56 130.38,-40.82 144.02,-27.62 153.96,-19.51"/>
<polygon fill="midnightblue" stroke="midnightblue" points="164.99,-162.51 173.76,-168.47 170.62,-158.35 164.99,-162.51"/>
</g>
<!-- Node4 -->
<g id="node4" class="node">
<title>Node4</title>
<g id="a_node4"><a xlink:href="hierarchy_8h.html" target="_top" xlink:title=" ">
<polygon fill="white" stroke="black" points="133.5,-56.5 133.5,-75.5 197.5,-75.5 197.5,-56.5 133.5,-56.5"/>
<text text-anchor="middle" x="165.5" y="-63.5" font-family="'Souce Sans Pro', Roboto, FreeSans, sans-serif" font-size="10.00">hierarchy.h</text>
</a>
</g>
</g>
<!-- Node1&#45;&gt;Node4 -->
<g id="edge3" class="edge">
<title>Node1&#45;&gt;Node4</title>
<path fill="none" stroke="midnightblue" d="M171.56,-159.2C167.98,-151.11 164.29,-141.3 162.5,-132 158.65,-112.03 161.7,-88.01 163.85,-75.51"/>
<polygon fill="midnightblue" stroke="midnightblue" points="168.44,-160.79 175.88,-168.34 174.77,-157.8 168.44,-160.79"/>
</g>
<!-- Node5 -->
<g id="node5" class="node">
<title>Node5</title>
<g id="a_node5"><a xlink:href="hierarchylocker_8h.html" target="_top" xlink:title=" ">
<polygon fill="white" stroke="black" points="172,-112.5 172,-131.5 263,-131.5 263,-112.5 172,-112.5"/>
<text text-anchor="middle" x="217.5" y="-119.5" font-family="'Souce Sans Pro', Roboto, FreeSans, sans-serif" font-size="10.00">hierarchylocker.h</text>
</a>
</g>
</g>
<!-- Node1&#45;&gt;Node5 -->
<g id="edge5" class="edge">
<title>Node1&#45;&gt;Node5</title>
<path fill="none" stroke="midnightblue" d="M192.45,-159.57C198.81,-150.27 206.37,-139.25 211.5,-131.75"/>
<polygon fill="midnightblue" stroke="midnightblue" points="189.37,-157.86 186.61,-168.08 195.15,-161.81 189.37,-157.86"/>
</g>
<!-- Node6 -->
<g id="node6" class="node">
<title>Node6</title>
<g id="a_node6"><a xlink:href="loggingmacros_8h.html" target="_top" xlink:title="This header defines the logging macros.">
<polygon fill="white" stroke="black" points="238.5,-56.5 238.5,-75.5 328.5,-75.5 328.5,-56.5 238.5,-56.5"/>
<text text-anchor="middle" x="283.5" y="-63.5" font-family="'Souce Sans Pro', Roboto, FreeSans, sans-serif" font-size="10.00">loggingmacros.h</text>
</a>
</g>
</g>
<!-- Node1&#45;&gt;Node6 -->
<g id="edge7" class="edge">
<title>Node1&#45;&gt;Node6</title>
<path fill="none" stroke="midnightblue" d="M216.31,-167.82C235.55,-161.05 258.02,-149.84 271.5,-132 284.23,-115.15 284.86,-88.94 284.21,-75.53"/>
<polygon fill="midnightblue" stroke="midnightblue" points="215.04,-164.55 206.61,-170.97 217.2,-171.21 215.04,-164.55"/>
</g>
<!-- Node7 -->
<g id="node7" class="node">
<title>Node7</title>
<g id="a_node7"><a xlink:href="tracelogger_8h.html" target="_top" xlink:title=" ">
<polygon fill="white" stroke="black" points="319.5,-112.5 319.5,-131.5 393.5,-131.5 393.5,-112.5 319.5,-112.5"/>
<text text-anchor="middle" x="356.5" y="-119.5" font-family="'Souce Sans Pro', Roboto, FreeSans, sans-serif" font-size="10.00">tracelogger.h</text>
</a>
</g>
</g>
<!-- Node1&#45;&gt;Node7 -->
<g id="edge9" class="edge">
<title>Node1&#45;&gt;Node7</title>
<path fill="none" stroke="midnightblue" d="M216.61,-165.92C249.77,-155.75 298.21,-140.88 328.51,-131.59"/>
<polygon fill="midnightblue" stroke="midnightblue" points="215.38,-162.64 206.85,-168.92 217.44,-169.33 215.38,-162.64"/>
</g>
<!-- Node2&#45;&gt;Node3 -->
<g id="edge2" class="edge">
<title>Node2&#45;&gt;Node3</title>
<path fill="none" stroke="midnightblue" d="M67.89,-52.5C91.7,-42.38 124.61,-28.39 145.47,-19.52"/>
<polygon fill="midnightblue" stroke="midnightblue" points="66.46,-49.31 58.62,-56.44 69.2,-55.75 66.46,-49.31"/>
</g>
<!-- Node4&#45;&gt;Node3 -->
<g id="edge4" class="edge">
<title>Node4&#45;&gt;Node3</title>
<path fill="none" stroke="midnightblue" d="M165.5,-45.8C165.5,-36.91 165.5,-26.78 165.5,-19.75"/>
<polygon fill="midnightblue" stroke="midnightblue" points="162,-46.08 165.5,-56.08 169,-46.08 162,-46.08"/>
</g>
<!-- Node6&#45;&gt;Node3 -->
<g id="edge8" class="edge">
<title>Node6&#45;&gt;Node3</title>
<path fill="none" stroke="midnightblue" d="M255.6,-52.23C233.53,-42.13 203.32,-28.31 184.11,-19.52"/>
<polygon fill="midnightblue" stroke="midnightblue" points="254.25,-55.46 264.8,-56.44 257.17,-49.1 254.25,-55.46"/>
</g>
<!-- Node7&#45;&gt;Node3 -->
<g id="edge10" class="edge">
<title>Node7&#45;&gt;Node3</title>
<path fill="none" stroke="midnightblue" d="M355.83,-102.16C354.3,-87.63 349.87,-68.03 337.5,-56 300.31,-19.86 237.86,-11.77 199.32,-10.48"/>
<polygon fill="midnightblue" stroke="midnightblue" points="352.36,-102.76 356.53,-112.5 359.35,-102.28 352.36,-102.76"/>
</g>
<!-- Node7&#45;&gt;Node6 -->
<g id="edge11" class="edge">
<title>Node7&#45;&gt;Node6</title>
<path fill="none" stroke="midnightblue" d="M336.36,-106.1C323.22,-96.38 306.52,-84.03 295.44,-75.83"/>
<polygon fill="midnightblue" stroke="midnightblue" points="334.65,-109.19 344.77,-112.32 338.81,-103.56 334.65,-109.19"/>
</g>
</g>
</svg>
