<?xml version="1.0" encoding="UTF-8" standalone="no"?>
<!DOCTYPE svg PUBLIC "-//W3C//DTD SVG 1.1//EN"
 "http://www.w3.org/Graphics/SVG/1.1/DTD/svg11.dtd">
<!-- Generated by graphviz version 2.43.0 (0)
 -->
<!-- Title: loggingevent.h Pages: 1 -->
<svg width="1095pt" height="319pt"
 viewBox="0.00 0.00 1095.00 319.00" xmlns="http://www.w3.org/2000/svg" xmlns:xlink="http://www.w3.org/1999/xlink">
<g id="graph0" class="graph" transform="scale(1 1) rotate(0) translate(4 315)">
<title>loggingevent.h</title>
<polygon fill="white" stroke="transparent" points="-4,4 -4,-315 1091,-315 1091,4 -4,4"/>
<!-- Node1 -->
<g id="node1" class="node">
<title>Node1</title>
<g id="a_node1"><a xlink:title=" ">
<polygon fill="#bfbfbf" stroke="black" points="295,-291.5 295,-310.5 375,-310.5 375,-291.5 295,-291.5"/>
<text text-anchor="middle" x="335" y="-298.5" font-family="'Souce Sans Pro', Roboto, FreeSans, sans-serif" font-size="10.00">loggingevent.h</text>
</a>
</g>
</g>
<!-- Node2 -->
<g id="node2" class="node">
<title>Node2</title>
<g id="a_node2"><a xlink:href="config_8hxx.html" target="_top" xlink:title=" ">
<polygon fill="white" stroke="black" points="368.5,-67.5 368.5,-86.5 477.5,-86.5 477.5,-67.5 368.5,-67.5"/>
<text text-anchor="middle" x="423" y="-74.5" font-family="'Souce Sans Pro', Roboto, FreeSans, sans-serif" font-size="10.00">log4cplus/config.hxx</text>
</a>
</g>
</g>
<!-- Node1&#45;&gt;Node2 -->
<g id="edge1" class="edge">
<title>Node1&#45;&gt;Node2</title>
<path fill="none" stroke="midnightblue" d="M294.66,-295.06C249.29,-288.57 179.84,-275.54 164,-255 138.81,-222.32 83.96,-225.33 191,-123 214.55,-100.49 298.17,-88.59 358.26,-82.8"/>
<polygon fill="midnightblue" stroke="midnightblue" points="358.8,-86.26 368.44,-81.85 358.16,-79.29 358.8,-86.26"/>
</g>
<!-- Node5 -->
<g id="node5" class="node">
<title>Node5</title>
<g id="a_node5"><a xlink:title=" ">
<polygon fill="white" stroke="#bfbfbf" points="889,-179.5 889,-198.5 943,-198.5 943,-179.5 889,-179.5"/>
<text text-anchor="middle" x="916" y="-186.5" font-family="'Souce Sans Pro', Roboto, FreeSans, sans-serif" font-size="10.00">memory</text>
</a>
</g>
</g>
<!-- Node1&#45;&gt;Node5 -->
<g id="edge4" class="edge">
<title>Node1&#45;&gt;Node5</title>
<path fill="none" stroke="midnightblue" d="M375.02,-300.77C454.73,-301.26 638.24,-297.22 785,-255 825.67,-243.3 868.92,-219.27 894.15,-203.94"/>
<polygon fill="midnightblue" stroke="midnightblue" points="896.23,-206.77 902.89,-198.53 892.55,-200.81 896.23,-206.77"/>
</g>
<!-- Node6 -->
<g id="node6" class="node">
<title>Node6</title>
<g id="a_node6"><a xlink:href="loglevel_8h.html" target="_top" xlink:title="This header defines the LogLevel type.">
<polygon fill="white" stroke="black" points="0,-235.5 0,-254.5 104,-254.5 104,-235.5 0,-235.5"/>
<text text-anchor="middle" x="52" y="-242.5" font-family="'Souce Sans Pro', Roboto, FreeSans, sans-serif" font-size="10.00">log4cplus/loglevel.h</text>
</a>
</g>
</g>
<!-- Node1&#45;&gt;Node6 -->
<g id="edge5" class="edge">
<title>Node1&#45;&gt;Node6</title>
<path fill="none" stroke="midnightblue" d="M294.75,-292.32C245.48,-282.92 161.8,-266.95 106.72,-256.44"/>
<polygon fill="midnightblue" stroke="midnightblue" points="107.26,-252.98 96.78,-254.54 105.94,-259.86 107.26,-252.98"/>
</g>
<!-- Node8 -->
<g id="node8" class="node">
<title>Node8</title>
<g id="a_node8"><a xlink:href="tstring_8h.html" target="_top" xlink:title=" ">
<polygon fill="white" stroke="black" points="252.5,-179.5 252.5,-198.5 351.5,-198.5 351.5,-179.5 252.5,-179.5"/>
<text text-anchor="middle" x="302" y="-186.5" font-family="'Souce Sans Pro', Roboto, FreeSans, sans-serif" font-size="10.00">log4cplus/tstring.h</text>
</a>
</g>
</g>
<!-- Node1&#45;&gt;Node8 -->
<g id="edge23" class="edge">
<title>Node1&#45;&gt;Node8</title>
<path fill="none" stroke="midnightblue" d="M331.43,-291.48C327.76,-282.51 322.01,-267.92 318,-255 313.2,-239.55 308.89,-221.68 305.95,-208.59"/>
<polygon fill="midnightblue" stroke="midnightblue" points="309.3,-207.53 303.75,-198.5 302.46,-209.02 309.3,-207.53"/>
</g>
<!-- Node12 -->
<g id="node12" class="node">
<title>Node12</title>
<g id="a_node12"><a xlink:href="ndc_8h.html" target="_top" xlink:title="This header defined the NDC class.">
<polygon fill="white" stroke="black" points="327,-235.5 327,-254.5 415,-254.5 415,-235.5 327,-235.5"/>
<text text-anchor="middle" x="371" y="-242.5" font-family="'Souce Sans Pro', Roboto, FreeSans, sans-serif" font-size="10.00">log4cplus/ndc.h</text>
</a>
</g>
</g>
<!-- Node1&#45;&gt;Node12 -->
<g id="edge14" class="edge">
<title>Node1&#45;&gt;Node12</title>
<path fill="none" stroke="midnightblue" d="M340.94,-291.08C345.98,-283.53 353.34,-272.49 359.51,-263.23"/>
<polygon fill="midnightblue" stroke="midnightblue" points="362.53,-265.01 365.17,-254.75 356.71,-261.13 362.53,-265.01"/>
</g>
<!-- Node15 -->
<g id="node15" class="node">
<title>Node15</title>
<g id="a_node15"><a xlink:href="mdc_8h.html" target="_top" xlink:title=" ">
<polygon fill="white" stroke="black" points="173,-235.5 173,-254.5 265,-254.5 265,-235.5 173,-235.5"/>
<text text-anchor="middle" x="219" y="-242.5" font-family="'Souce Sans Pro', Roboto, FreeSans, sans-serif" font-size="10.00">log4cplus/mdc.h</text>
</a>
</g>
</g>
<!-- Node1&#45;&gt;Node15 -->
<g id="edge19" class="edge">
<title>Node1&#45;&gt;Node15</title>
<path fill="none" stroke="midnightblue" d="M316.62,-291.44C297.78,-282.68 268.27,-268.94 246.62,-258.86"/>
<polygon fill="midnightblue" stroke="midnightblue" points="247.84,-255.56 237.29,-254.52 244.88,-261.91 247.84,-255.56"/>
</g>
<!-- Node16 -->
<g id="node16" class="node">
<title>Node16</title>
<g id="a_node16"><a xlink:href="timehelper_8h.html" target="_top" xlink:title=" ">
<polygon fill="white" stroke="black" points="433,-235.5 433,-254.5 587,-254.5 587,-235.5 433,-235.5"/>
<text text-anchor="middle" x="510" y="-242.5" font-family="'Souce Sans Pro', Roboto, FreeSans, sans-serif" font-size="10.00">log4cplus/helpers/timehelper.h</text>
</a>
</g>
</g>
<!-- Node1&#45;&gt;Node16 -->
<g id="edge24" class="edge">
<title>Node1&#45;&gt;Node16</title>
<path fill="none" stroke="midnightblue" d="M362.73,-291.44C392.43,-282.28 439.72,-267.69 472.67,-257.52"/>
<polygon fill="midnightblue" stroke="midnightblue" points="473.88,-260.81 482.4,-254.52 471.81,-254.12 473.88,-260.81"/>
</g>
<!-- Node19 -->
<g id="node19" class="node">
<title>Node19</title>
<g id="a_node19"><a xlink:href="threads_8h.html" target="_top" xlink:title=" ">
<polygon fill="white" stroke="black" points="639.5,-235.5 639.5,-254.5 776.5,-254.5 776.5,-235.5 639.5,-235.5"/>
<text text-anchor="middle" x="708" y="-242.5" font-family="'Souce Sans Pro', Roboto, FreeSans, sans-serif" font-size="10.00">log4cplus/thread/threads.h</text>
</a>
</g>
</g>
<!-- Node1&#45;&gt;Node19 -->
<g id="edge29" class="edge">
<title>Node1&#45;&gt;Node19</title>
<path fill="none" stroke="midnightblue" d="M375.27,-294.17C438.46,-285.02 561.67,-267.18 639.13,-255.97"/>
<polygon fill="midnightblue" stroke="midnightblue" points="639.88,-259.4 649.28,-254.5 638.88,-252.47 639.88,-259.4"/>
</g>
<!-- Node3 -->
<g id="node3" class="node">
<title>Node3</title>
<g id="a_node3"><a xlink:href="win32_8h.html" target="_top" xlink:title=" ">
<polygon fill="white" stroke="black" points="286,-6 286,-25 414,-25 414,-6 286,-6"/>
<text text-anchor="middle" x="350" y="-13" font-family="'Souce Sans Pro', Roboto, FreeSans, sans-serif" font-size="10.00">log4cplus/config/win32.h</text>
</a>
</g>
</g>
<!-- Node2&#45;&gt;Node3 -->
<g id="edge2" class="edge">
<title>Node2&#45;&gt;Node3</title>
<path fill="none" stroke="midnightblue" d="M412.54,-67.48C401.05,-58.11 382.37,-42.88 368.41,-31.51"/>
<polygon fill="midnightblue" stroke="midnightblue" points="370.4,-28.61 360.44,-25.01 365.98,-34.04 370.4,-28.61"/>
</g>
<!-- Node4 -->
<g id="node4" class="node">
<title>Node4</title>
<g id="a_node4"><a xlink:href="thread-config_8h.html" target="_top" xlink:title=" ">
<polygon fill="white" stroke="black" points="432,-0.5 432,-30.5 560,-30.5 560,-0.5 432,-0.5"/>
<text text-anchor="start" x="440" y="-18.5" font-family="'Souce Sans Pro', Roboto, FreeSans, sans-serif" font-size="10.00">log4cplus/helpers/thread</text>
<text text-anchor="middle" x="496" y="-7.5" font-family="'Souce Sans Pro', Roboto, FreeSans, sans-serif" font-size="10.00">&#45;config.h</text>
</a>
</g>
</g>
<!-- Node2&#45;&gt;Node4 -->
<g id="edge3" class="edge">
<title>Node2&#45;&gt;Node4</title>
<path fill="none" stroke="midnightblue" d="M433.46,-67.48C443.16,-59.57 457.99,-47.48 470.77,-37.07"/>
<polygon fill="midnightblue" stroke="midnightblue" points="473.26,-39.55 478.8,-30.52 468.83,-34.13 473.26,-39.55"/>
</g>
<!-- Node6&#45;&gt;Node2 -->
<g id="edge6" class="edge">
<title>Node6&#45;&gt;Node2</title>
<path fill="none" stroke="midnightblue" d="M56.52,-235.21C70.55,-207.99 112.77,-126.64 118,-123 137.33,-109.52 274.47,-93.28 358.14,-84.47"/>
<polygon fill="midnightblue" stroke="midnightblue" points="358.73,-87.92 368.31,-83.4 358.01,-80.96 358.73,-87.92"/>
</g>
<!-- Node7 -->
<g id="node7" class="node">
<title>Node7</title>
<g id="a_node7"><a xlink:title=" ">
<polygon fill="white" stroke="#bfbfbf" points="22,-179.5 22,-198.5 66,-198.5 66,-179.5 22,-179.5"/>
<text text-anchor="middle" x="44" y="-186.5" font-family="'Souce Sans Pro', Roboto, FreeSans, sans-serif" font-size="10.00">vector</text>
</a>
</g>
</g>
<!-- Node6&#45;&gt;Node7 -->
<g id="edge7" class="edge">
<title>Node6&#45;&gt;Node7</title>
<path fill="none" stroke="midnightblue" d="M50.68,-235.08C49.62,-227.93 48.09,-217.64 46.77,-208.69"/>
<polygon fill="midnightblue" stroke="midnightblue" points="50.22,-208.13 45.3,-198.75 43.3,-209.16 50.22,-208.13"/>
</g>
<!-- Node6&#45;&gt;Node8 -->
<g id="edge8" class="edge">
<title>Node6&#45;&gt;Node8</title>
<path fill="none" stroke="midnightblue" d="M91.61,-235.44C135.23,-226.02 205.4,-210.87 252.58,-200.68"/>
<polygon fill="midnightblue" stroke="midnightblue" points="253.54,-204.05 262.57,-198.52 252.06,-197.21 253.54,-204.05"/>
</g>
<!-- Node8&#45;&gt;Node2 -->
<g id="edge9" class="edge">
<title>Node8&#45;&gt;Node2</title>
<path fill="none" stroke="midnightblue" d="M324.58,-179.47C342.31,-171.93 366.8,-159.55 384,-143 398.04,-129.49 408.89,-109.86 415.54,-95.72"/>
<polygon fill="midnightblue" stroke="midnightblue" points="418.75,-97.11 419.62,-86.55 412.35,-94.26 418.75,-97.11"/>
</g>
<!-- Node9 -->
<g id="node9" class="node">
<title>Node9</title>
<g id="a_node9"><a xlink:title=" ">
<polygon fill="white" stroke="#bfbfbf" points="334.5,-123.5 334.5,-142.5 375.5,-142.5 375.5,-123.5 334.5,-123.5"/>
<text text-anchor="middle" x="355" y="-130.5" font-family="'Souce Sans Pro', Roboto, FreeSans, sans-serif" font-size="10.00">string</text>
</a>
</g>
</g>
<!-- Node8&#45;&gt;Node9 -->
<g id="edge10" class="edge">
<title>Node8&#45;&gt;Node9</title>
<path fill="none" stroke="midnightblue" d="M310.75,-179.08C318.47,-171.22 329.9,-159.57 339.22,-150.08"/>
<polygon fill="midnightblue" stroke="midnightblue" points="341.9,-152.34 346.41,-142.75 336.91,-147.44 341.9,-152.34"/>
</g>
<!-- Node10 -->
<g id="node10" class="node">
<title>Node10</title>
<g id="a_node10"><a xlink:href="tchar_8h.html" target="_top" xlink:title=" ">
<polygon fill="white" stroke="black" points="223.5,-123.5 223.5,-142.5 316.5,-142.5 316.5,-123.5 223.5,-123.5"/>
<text text-anchor="middle" x="270" y="-130.5" font-family="'Souce Sans Pro', Roboto, FreeSans, sans-serif" font-size="10.00">log4cplus/tchar.h</text>
</a>
</g>
</g>
<!-- Node8&#45;&gt;Node10 -->
<g id="edge11" class="edge">
<title>Node8&#45;&gt;Node10</title>
<path fill="none" stroke="midnightblue" d="M296.72,-179.08C292.29,-171.61 285.84,-160.72 280.38,-151.52"/>
<polygon fill="midnightblue" stroke="midnightblue" points="283.29,-149.57 275.19,-142.75 277.27,-153.14 283.29,-149.57"/>
</g>
<!-- Node10&#45;&gt;Node2 -->
<g id="edge12" class="edge">
<title>Node10&#45;&gt;Node2</title>
<path fill="none" stroke="midnightblue" d="M294.24,-123.44C319.87,-114.4 360.49,-100.06 389.24,-89.92"/>
<polygon fill="midnightblue" stroke="midnightblue" points="390.61,-93.15 398.87,-86.52 388.28,-86.54 390.61,-93.15"/>
</g>
<!-- Node11 -->
<g id="node11" class="node">
<title>Node11</title>
<g id="a_node11"><a xlink:title=" ">
<polygon fill="white" stroke="#bfbfbf" points="244.5,-67.5 244.5,-86.5 295.5,-86.5 295.5,-67.5 244.5,-67.5"/>
<text text-anchor="middle" x="270" y="-74.5" font-family="'Souce Sans Pro', Roboto, FreeSans, sans-serif" font-size="10.00">cstddef</text>
</a>
</g>
</g>
<!-- Node10&#45;&gt;Node11 -->
<g id="edge13" class="edge">
<title>Node10&#45;&gt;Node11</title>
<path fill="none" stroke="midnightblue" d="M270,-123.08C270,-116.01 270,-105.86 270,-96.99"/>
<polygon fill="midnightblue" stroke="midnightblue" points="273.5,-96.75 270,-86.75 266.5,-96.75 273.5,-96.75"/>
</g>
<!-- Node12&#45;&gt;Node2 -->
<g id="edge15" class="edge">
<title>Node12&#45;&gt;Node2</title>
<path fill="none" stroke="midnightblue" d="M386.78,-235.47C399.2,-227.77 415.61,-215.18 423,-199 438.3,-165.53 432.66,-121.21 427.57,-96.56"/>
<polygon fill="midnightblue" stroke="midnightblue" points="430.97,-95.71 425.35,-86.73 424.14,-97.25 430.97,-95.71"/>
</g>
<!-- Node12&#45;&gt;Node8 -->
<g id="edge16" class="edge">
<title>Node12&#45;&gt;Node8</title>
<path fill="none" stroke="midnightblue" d="M359.91,-235.32C349.51,-227.18 333.74,-214.84 321.28,-205.09"/>
<polygon fill="midnightblue" stroke="midnightblue" points="323.32,-202.24 313.29,-198.83 319.01,-207.75 323.32,-202.24"/>
</g>
<!-- Node13 -->
<g id="node13" class="node">
<title>Node13</title>
<g id="a_node13"><a xlink:title=" ">
<polygon fill="white" stroke="#bfbfbf" points="198,-179.5 198,-198.5 234,-198.5 234,-179.5 198,-179.5"/>
<text text-anchor="middle" x="216" y="-186.5" font-family="'Souce Sans Pro', Roboto, FreeSans, sans-serif" font-size="10.00">map</text>
</a>
</g>
</g>
<!-- Node12&#45;&gt;Node13 -->
<g id="edge17" class="edge">
<title>Node12&#45;&gt;Node13</title>
<path fill="none" stroke="midnightblue" d="M346.44,-235.44C318.49,-225.71 272.95,-209.84 243.74,-199.67"/>
<polygon fill="midnightblue" stroke="midnightblue" points="244.74,-196.31 234.15,-196.32 242.44,-202.92 244.74,-196.31"/>
</g>
<!-- Node14 -->
<g id="node14" class="node">
<title>Node14</title>
<g id="a_node14"><a xlink:title=" ">
<polygon fill="white" stroke="#bfbfbf" points="370,-179.5 370,-198.5 414,-198.5 414,-179.5 370,-179.5"/>
<text text-anchor="middle" x="392" y="-186.5" font-family="'Souce Sans Pro', Roboto, FreeSans, sans-serif" font-size="10.00">deque</text>
</a>
</g>
</g>
<!-- Node12&#45;&gt;Node14 -->
<g id="edge18" class="edge">
<title>Node12&#45;&gt;Node14</title>
<path fill="none" stroke="midnightblue" d="M374.47,-235.08C377.31,-227.77 381.43,-217.18 384.96,-208.1"/>
<polygon fill="midnightblue" stroke="midnightblue" points="388.23,-209.34 388.6,-198.75 381.71,-206.8 388.23,-209.34"/>
</g>
<!-- Node15&#45;&gt;Node2 -->
<g id="edge20" class="edge">
<title>Node15&#45;&gt;Node2</title>
<path fill="none" stroke="midnightblue" d="M210.79,-235.18C203.46,-226.66 193.24,-213.02 189,-199 178.7,-164.97 186.38,-145.4 214,-123 235.87,-105.26 305.23,-92.74 358.1,-85.49"/>
<polygon fill="midnightblue" stroke="midnightblue" points="358.66,-88.94 368.1,-84.15 357.73,-82.01 358.66,-88.94"/>
</g>
<!-- Node15&#45;&gt;Node8 -->
<g id="edge21" class="edge">
<title>Node15&#45;&gt;Node8</title>
<path fill="none" stroke="midnightblue" d="M232.34,-235.32C245.16,-226.98 264.78,-214.21 279.94,-204.35"/>
<polygon fill="midnightblue" stroke="midnightblue" points="282.22,-207.04 288.7,-198.65 278.41,-201.17 282.22,-207.04"/>
</g>
<!-- Node15&#45;&gt;Node13 -->
<g id="edge22" class="edge">
<title>Node15&#45;&gt;Node13</title>
<path fill="none" stroke="midnightblue" d="M218.5,-235.08C218.11,-228.01 217.55,-217.86 217.05,-208.99"/>
<polygon fill="midnightblue" stroke="midnightblue" points="220.54,-208.54 216.49,-198.75 213.55,-208.93 220.54,-208.54"/>
</g>
<!-- Node16&#45;&gt;Node2 -->
<g id="edge25" class="edge">
<title>Node16&#45;&gt;Node2</title>
<path fill="none" stroke="midnightblue" d="M534.99,-235.4C561.92,-224.63 599.13,-204.46 585,-179 558.98,-132.11 501.14,-104.15 462.1,-89.92"/>
<polygon fill="midnightblue" stroke="midnightblue" points="463.2,-86.6 452.61,-86.59 460.89,-93.2 463.2,-86.6"/>
</g>
<!-- Node16&#45;&gt;Node8 -->
<g id="edge26" class="edge">
<title>Node16&#45;&gt;Node8</title>
<path fill="none" stroke="midnightblue" d="M477.04,-235.44C441.21,-226.14 383.84,-211.25 344.61,-201.06"/>
<polygon fill="midnightblue" stroke="midnightblue" points="345.36,-197.64 334.8,-198.52 343.6,-204.42 345.36,-197.64"/>
</g>
<!-- Node17 -->
<g id="node17" class="node">
<title>Node17</title>
<g id="a_node17"><a xlink:title=" ">
<polygon fill="white" stroke="#bfbfbf" points="470.5,-179.5 470.5,-198.5 511.5,-198.5 511.5,-179.5 470.5,-179.5"/>
<text text-anchor="middle" x="491" y="-186.5" font-family="'Souce Sans Pro', Roboto, FreeSans, sans-serif" font-size="10.00">ctime</text>
</a>
</g>
</g>
<!-- Node16&#45;&gt;Node17 -->
<g id="edge27" class="edge">
<title>Node16&#45;&gt;Node17</title>
<path fill="none" stroke="midnightblue" d="M506.86,-235.08C504.32,-227.85 500.64,-217.41 497.47,-208.4"/>
<polygon fill="midnightblue" stroke="midnightblue" points="500.7,-207.02 494.08,-198.75 494.1,-209.35 500.7,-207.02"/>
</g>
<!-- Node18 -->
<g id="node18" class="node">
<title>Node18</title>
<g id="a_node18"><a xlink:title=" ">
<polygon fill="white" stroke="#bfbfbf" points="529.5,-179.5 529.5,-198.5 576.5,-198.5 576.5,-179.5 529.5,-179.5"/>
<text text-anchor="middle" x="553" y="-186.5" font-family="'Souce Sans Pro', Roboto, FreeSans, sans-serif" font-size="10.00">chrono</text>
</a>
</g>
</g>
<!-- Node16&#45;&gt;Node18 -->
<g id="edge28" class="edge">
<title>Node16&#45;&gt;Node18</title>
<path fill="none" stroke="midnightblue" d="M517.1,-235.08C523.24,-227.38 532.27,-216.03 539.74,-206.65"/>
<polygon fill="midnightblue" stroke="midnightblue" points="542.54,-208.75 546.03,-198.75 537.06,-204.39 542.54,-208.75"/>
</g>
<!-- Node19&#45;&gt;Node2 -->
<g id="edge30" class="edge">
<title>Node19&#45;&gt;Node2</title>
<path fill="none" stroke="midnightblue" d="M699.68,-235.42C678.17,-213.7 618.18,-155.9 558,-123 530.32,-107.87 496.67,-96.64 469.89,-89.18"/>
<polygon fill="midnightblue" stroke="midnightblue" points="470.55,-85.73 459.98,-86.5 468.73,-92.49 470.55,-85.73"/>
</g>
<!-- Node19&#45;&gt;Node5 -->
<g id="edge31" class="edge">
<title>Node19&#45;&gt;Node5</title>
<path fill="none" stroke="midnightblue" d="M740.96,-235.44C778.58,-225.68 839.95,-209.74 879.13,-199.57"/>
<polygon fill="midnightblue" stroke="midnightblue" points="880.03,-202.95 888.83,-197.05 878.27,-196.18 880.03,-202.95"/>
</g>
<!-- Node19&#45;&gt;Node8 -->
<g id="edge33" class="edge">
<title>Node19&#45;&gt;Node8</title>
<path fill="none" stroke="midnightblue" d="M639.47,-235.57C571.61,-227.12 464.5,-213.51 361.51,-199.04"/>
<polygon fill="midnightblue" stroke="midnightblue" points="361.95,-195.57 351.56,-197.64 360.98,-202.5 361.95,-195.57"/>
</g>
<!-- Node20 -->
<g id="node20" class="node">
<title>Node20</title>
<g id="a_node20"><a xlink:title=" ">
<polygon fill="white" stroke="#bfbfbf" points="827,-179.5 827,-198.5 871,-198.5 871,-179.5 827,-179.5"/>
<text text-anchor="middle" x="849" y="-186.5" font-family="'Souce Sans Pro', Roboto, FreeSans, sans-serif" font-size="10.00">thread</text>
</a>
</g>
</g>
<!-- Node19&#45;&gt;Node20 -->
<g id="edge32" class="edge">
<title>Node19&#45;&gt;Node20</title>
<path fill="none" stroke="midnightblue" d="M730.34,-235.44C753.75,-226.48 790.74,-212.31 817.19,-202.18"/>
<polygon fill="midnightblue" stroke="midnightblue" points="818.68,-205.36 826.76,-198.52 816.17,-198.82 818.68,-205.36"/>
</g>
<!-- Node21 -->
<g id="node21" class="node">
<title>Node21</title>
<g id="a_node21"><a xlink:href="pointer_8h.html" target="_top" xlink:title=" ">
<polygon fill="white" stroke="black" points="671,-179.5 671,-198.5 809,-198.5 809,-179.5 671,-179.5"/>
<text text-anchor="middle" x="740" y="-186.5" font-family="'Souce Sans Pro', Roboto, FreeSans, sans-serif" font-size="10.00">log4cplus/helpers/pointer.h</text>
</a>
</g>
</g>
<!-- Node19&#45;&gt;Node21 -->
<g id="edge34" class="edge">
<title>Node19&#45;&gt;Node21</title>
<path fill="none" stroke="midnightblue" d="M713.28,-235.08C717.71,-227.61 724.16,-216.72 729.62,-207.52"/>
<polygon fill="midnightblue" stroke="midnightblue" points="732.73,-209.14 734.81,-198.75 726.71,-205.57 732.73,-209.14"/>
</g>
<!-- Node21&#45;&gt;Node2 -->
<g id="edge35" class="edge">
<title>Node21&#45;&gt;Node2</title>
<path fill="none" stroke="midnightblue" d="M731.73,-179.24C717.76,-165.03 687.98,-137.1 657,-123 603.04,-98.44 536.17,-87.27 487.74,-82.2"/>
<polygon fill="midnightblue" stroke="midnightblue" points="488,-78.71 477.7,-81.21 487.31,-85.68 488,-78.71"/>
</g>
<!-- Node22 -->
<g id="node22" class="node">
<title>Node22</title>
<g id="a_node22"><a xlink:href="syncprims_8h.html" target="_top" xlink:title=" ">
<polygon fill="white" stroke="black" points="920.5,-123.5 920.5,-142.5 1069.5,-142.5 1069.5,-123.5 920.5,-123.5"/>
<text text-anchor="middle" x="995" y="-130.5" font-family="'Souce Sans Pro', Roboto, FreeSans, sans-serif" font-size="10.00">log4cplus/thread/syncprims.h</text>
</a>
</g>
</g>
<!-- Node21&#45;&gt;Node22 -->
<g id="edge36" class="edge">
<title>Node21&#45;&gt;Node22</title>
<path fill="none" stroke="midnightblue" d="M780.41,-179.44C824.98,-170 896.77,-154.8 944.89,-144.61"/>
<polygon fill="midnightblue" stroke="midnightblue" points="945.73,-148.01 954.78,-142.52 944.28,-141.16 945.73,-148.01"/>
</g>
<!-- Node25 -->
<g id="node25" class="node">
<title>Node25</title>
<g id="a_node25"><a xlink:title=" ">
<polygon fill="white" stroke="#bfbfbf" points="709.5,-123.5 709.5,-142.5 768.5,-142.5 768.5,-123.5 709.5,-123.5"/>
<text text-anchor="middle" x="739" y="-130.5" font-family="'Souce Sans Pro', Roboto, FreeSans, sans-serif" font-size="10.00">algorithm</text>
</a>
</g>
</g>
<!-- Node21&#45;&gt;Node25 -->
<g id="edge40" class="edge">
<title>Node21&#45;&gt;Node25</title>
<path fill="none" stroke="midnightblue" d="M739.83,-179.08C739.7,-172.01 739.52,-161.86 739.35,-152.99"/>
<polygon fill="midnightblue" stroke="midnightblue" points="742.85,-152.68 739.16,-142.75 735.85,-152.81 742.85,-152.68"/>
</g>
<!-- Node26 -->
<g id="node26" class="node">
<title>Node26</title>
<g id="a_node26"><a xlink:title=" ">
<polygon fill="white" stroke="#bfbfbf" points="787,-123.5 787,-142.5 837,-142.5 837,-123.5 787,-123.5"/>
<text text-anchor="middle" x="812" y="-130.5" font-family="'Souce Sans Pro', Roboto, FreeSans, sans-serif" font-size="10.00">cassert</text>
</a>
</g>
</g>
<!-- Node21&#45;&gt;Node26 -->
<g id="edge41" class="edge">
<title>Node21&#45;&gt;Node26</title>
<path fill="none" stroke="midnightblue" d="M751.57,-179.32C762.42,-171.18 778.88,-158.84 791.88,-149.09"/>
<polygon fill="midnightblue" stroke="midnightblue" points="794.32,-151.63 800.22,-142.83 790.12,-146.03 794.32,-151.63"/>
</g>
<!-- Node27 -->
<g id="node27" class="node">
<title>Node27</title>
<g id="a_node27"><a xlink:title=" ">
<polygon fill="white" stroke="#bfbfbf" points="855.5,-123.5 855.5,-142.5 902.5,-142.5 902.5,-123.5 855.5,-123.5"/>
<text text-anchor="middle" x="879" y="-130.5" font-family="'Souce Sans Pro', Roboto, FreeSans, sans-serif" font-size="10.00">atomic</text>
</a>
</g>
</g>
<!-- Node21&#45;&gt;Node27 -->
<g id="edge42" class="edge">
<title>Node21&#45;&gt;Node27</title>
<path fill="none" stroke="midnightblue" d="M762.02,-179.44C785.1,-170.48 821.56,-156.31 847.64,-146.18"/>
<polygon fill="midnightblue" stroke="midnightblue" points="849.02,-149.4 857.08,-142.52 846.49,-142.88 849.02,-149.4"/>
</g>
<!-- Node22&#45;&gt;Node2 -->
<g id="edge37" class="edge">
<title>Node22&#45;&gt;Node2</title>
<path fill="none" stroke="midnightblue" d="M920.35,-123.85C917.53,-123.56 914.74,-123.27 912,-123 760.12,-107.78 581.5,-91.84 487.83,-83.63"/>
<polygon fill="midnightblue" stroke="midnightblue" points="487.93,-80.12 477.66,-82.74 487.32,-87.1 487.93,-80.12"/>
</g>
<!-- Node23 -->
<g id="node23" class="node">
<title>Node23</title>
<g id="a_node23"><a xlink:title=" ">
<polygon fill="white" stroke="#bfbfbf" points="929,-67.5 929,-86.5 973,-86.5 973,-67.5 929,-67.5"/>
<text text-anchor="middle" x="951" y="-74.5" font-family="'Souce Sans Pro', Roboto, FreeSans, sans-serif" font-size="10.00">mutex</text>
</a>
</g>
</g>
<!-- Node22&#45;&gt;Node23 -->
<g id="edge38" class="edge">
<title>Node22&#45;&gt;Node23</title>
<path fill="none" stroke="midnightblue" d="M987.73,-123.08C981.46,-115.38 972.21,-104.03 964.57,-94.65"/>
<polygon fill="midnightblue" stroke="midnightblue" points="967.16,-92.29 958.13,-86.75 961.73,-96.71 967.16,-92.29"/>
</g>
<!-- Node24 -->
<g id="node24" class="node">
<title>Node24</title>
<g id="a_node24"><a xlink:title=" ">
<polygon fill="white" stroke="#bfbfbf" points="991,-67.5 991,-86.5 1087,-86.5 1087,-67.5 991,-67.5"/>
<text text-anchor="middle" x="1039" y="-74.5" font-family="'Souce Sans Pro', Roboto, FreeSans, sans-serif" font-size="10.00">condition_variable</text>
</a>
</g>
</g>
<!-- Node22&#45;&gt;Node24 -->
<g id="edge39" class="edge">
<title>Node22&#45;&gt;Node24</title>
<path fill="none" stroke="midnightblue" d="M1002.27,-123.08C1008.54,-115.38 1017.79,-104.03 1025.43,-94.65"/>
<polygon fill="midnightblue" stroke="midnightblue" points="1028.27,-96.71 1031.87,-86.75 1022.84,-92.29 1028.27,-96.71"/>
</g>
</g>
</svg>
