<?xml version="1.0" encoding="UTF-8" standalone="no"?>
<!DOCTYPE svg PUBLIC "-//W3C//DTD SVG 1.1//EN"
 "http://www.w3.org/Graphics/SVG/1.1/DTD/svg11.dtd">
<!-- Generated by graphviz version 2.43.0 (0)
 -->
<!-- Title: loggerfactory.h Pages: 1 -->
<svg width="490pt" height="252pt"
 viewBox="0.00 0.00 489.50 252.00" xmlns="http://www.w3.org/2000/svg" xmlns:xlink="http://www.w3.org/1999/xlink">
<g id="graph0" class="graph" transform="scale(1 1) rotate(0) translate(4 248)">
<title>loggerfactory.h</title>
<polygon fill="white" stroke="transparent" points="-4,4 -4,-248 485.5,-248 485.5,4 -4,4"/>
<!-- Node1 -->
<g id="node1" class="node">
<title>Node1</title>
<g id="a_node1"><a xlink:title=" ">
<polygon fill="#bfbfbf" stroke="black" points="215.5,-224.5 215.5,-243.5 299.5,-243.5 299.5,-224.5 215.5,-224.5"/>
<text text-anchor="middle" x="257.5" y="-231.5" font-family="'Souce Sans Pro', Roboto, FreeSans, sans-serif" font-size="10.00">loggerfactory.h</text>
</a>
</g>
</g>
<!-- Node2 -->
<g id="node2" class="node">
<title>Node2</title>
<g id="a_node2"><a xlink:href="logger_8h.html" target="_top" xlink:title="This header defines the Logger class and the logging macros.">
<polygon fill="white" stroke="black" points="191.5,-168.5 191.5,-187.5 243.5,-187.5 243.5,-168.5 191.5,-168.5"/>
<text text-anchor="middle" x="217.5" y="-175.5" font-family="'Souce Sans Pro', Roboto, FreeSans, sans-serif" font-size="10.00">logger.h</text>
</a>
</g>
</g>
<!-- Node1&#45;&gt;Node2 -->
<g id="edge1" class="edge">
<title>Node1&#45;&gt;Node2</title>
<path fill="none" stroke="midnightblue" d="M244.8,-215.86C237.87,-206.5 229.59,-195.33 223.98,-187.75"/>
<polygon fill="midnightblue" stroke="midnightblue" points="242.13,-218.13 250.89,-224.08 247.75,-213.96 242.13,-218.13"/>
</g>
<!-- Node9 -->
<g id="node9" class="node">
<title>Node9</title>
<g id="a_node9"><a xlink:href="loggerimpl_8h.html" target="_top" xlink:title=" ">
<polygon fill="white" stroke="black" points="336,-168.5 336,-187.5 407,-187.5 407,-168.5 336,-168.5"/>
<text text-anchor="middle" x="371.5" y="-175.5" font-family="'Souce Sans Pro', Roboto, FreeSans, sans-serif" font-size="10.00">loggerimpl.h</text>
</a>
</g>
</g>
<!-- Node1&#45;&gt;Node9 -->
<g id="edge13" class="edge">
<title>Node1&#45;&gt;Node9</title>
<path fill="none" stroke="midnightblue" d="M284.74,-220.1C306.04,-210.01 335.04,-196.27 353.52,-187.52"/>
<polygon fill="midnightblue" stroke="midnightblue" points="283.1,-217 275.56,-224.44 286.1,-223.33 283.1,-217"/>
</g>
<!-- Node3 -->
<g id="node3" class="node">
<title>Node3</title>
<g id="a_node3"><a xlink:href="configurator_8h.html" target="_top" xlink:title=" ">
<polygon fill="white" stroke="black" points="0,-56.5 0,-75.5 77,-75.5 77,-56.5 0,-56.5"/>
<text text-anchor="middle" x="38.5" y="-63.5" font-family="'Souce Sans Pro', Roboto, FreeSans, sans-serif" font-size="10.00">configurator.h</text>
</a>
</g>
</g>
<!-- Node2&#45;&gt;Node3 -->
<g id="edge2" class="edge">
<title>Node2&#45;&gt;Node3</title>
<path fill="none" stroke="midnightblue" d="M181.39,-169.64C154.78,-162.96 118.64,-151.16 91.5,-132 69.62,-116.54 51.81,-89.73 43.53,-75.87"/>
<polygon fill="midnightblue" stroke="midnightblue" points="180.9,-173.12 191.44,-172.03 182.53,-166.31 180.9,-173.12"/>
</g>
<!-- Node4 -->
<g id="node4" class="node">
<title>Node4</title>
<g id="a_node4"><a xlink:href="log4cplus_8h.html" target="_top" xlink:title=" ">
<polygon fill="white" stroke="black" points="132,-0.5 132,-19.5 199,-19.5 199,-0.5 132,-0.5"/>
<text text-anchor="middle" x="165.5" y="-7.5" font-family="'Souce Sans Pro', Roboto, FreeSans, sans-serif" font-size="10.00">log4cplus.h</text>
</a>
</g>
</g>
<!-- Node2&#45;&gt;Node4 -->
<g id="edge7" class="edge">
<title>Node2&#45;&gt;Node4</title>
<path fill="none" stroke="midnightblue" d="M192.78,-163.1C180.22,-155.17 165.35,-144.35 154.5,-132 135.86,-110.79 131.37,-103.39 124.5,-76 122.34,-67.38 121.29,-64.29 124.5,-56 130.38,-40.82 144.02,-27.62 153.96,-19.51"/>
<polygon fill="midnightblue" stroke="midnightblue" points="191.07,-166.16 201.43,-168.35 194.7,-160.17 191.07,-166.16"/>
</g>
<!-- Node5 -->
<g id="node5" class="node">
<title>Node5</title>
<g id="a_node5"><a xlink:href="hierarchy_8h.html" target="_top" xlink:title=" ">
<polygon fill="white" stroke="black" points="133.5,-56.5 133.5,-75.5 197.5,-75.5 197.5,-56.5 133.5,-56.5"/>
<text text-anchor="middle" x="165.5" y="-63.5" font-family="'Souce Sans Pro', Roboto, FreeSans, sans-serif" font-size="10.00">hierarchy.h</text>
</a>
</g>
</g>
<!-- Node2&#45;&gt;Node5 -->
<g id="edge4" class="edge">
<title>Node2&#45;&gt;Node5</title>
<path fill="none" stroke="midnightblue" d="M191.64,-162.95C180.49,-155.38 168.63,-144.93 162.5,-132 153.79,-113.62 158.81,-88.95 162.56,-75.93"/>
<polygon fill="midnightblue" stroke="midnightblue" points="189.97,-166.03 200.3,-168.39 193.69,-160.1 189.97,-166.03"/>
</g>
<!-- Node6 -->
<g id="node6" class="node">
<title>Node6</title>
<g id="a_node6"><a xlink:href="hierarchylocker_8h.html" target="_top" xlink:title=" ">
<polygon fill="white" stroke="black" points="172,-112.5 172,-131.5 263,-131.5 263,-112.5 172,-112.5"/>
<text text-anchor="middle" x="217.5" y="-119.5" font-family="'Souce Sans Pro', Roboto, FreeSans, sans-serif" font-size="10.00">hierarchylocker.h</text>
</a>
</g>
</g>
<!-- Node2&#45;&gt;Node6 -->
<g id="edge6" class="edge">
<title>Node2&#45;&gt;Node6</title>
<path fill="none" stroke="midnightblue" d="M217.5,-157.8C217.5,-148.91 217.5,-138.78 217.5,-131.75"/>
<polygon fill="midnightblue" stroke="midnightblue" points="214,-158.08 217.5,-168.08 221,-158.08 214,-158.08"/>
</g>
<!-- Node7 -->
<g id="node7" class="node">
<title>Node7</title>
<g id="a_node7"><a xlink:href="loggingmacros_8h.html" target="_top" xlink:title="This header defines the logging macros.">
<polygon fill="white" stroke="black" points="238.5,-56.5 238.5,-75.5 328.5,-75.5 328.5,-56.5 238.5,-56.5"/>
<text text-anchor="middle" x="283.5" y="-63.5" font-family="'Souce Sans Pro', Roboto, FreeSans, sans-serif" font-size="10.00">loggingmacros.h</text>
</a>
</g>
</g>
<!-- Node2&#45;&gt;Node7 -->
<g id="edge8" class="edge">
<title>Node2&#45;&gt;Node7</title>
<path fill="none" stroke="midnightblue" d="M241.22,-162.77C252.11,-155.03 264.21,-144.47 271.5,-132 282.05,-113.97 283.66,-88.72 283.72,-75.63"/>
<polygon fill="midnightblue" stroke="midnightblue" points="239.22,-159.9 232.85,-168.37 243.11,-165.72 239.22,-159.9"/>
</g>
<!-- Node8 -->
<g id="node8" class="node">
<title>Node8</title>
<g id="a_node8"><a xlink:href="tracelogger_8h.html" target="_top" xlink:title=" ">
<polygon fill="white" stroke="black" points="319.5,-112.5 319.5,-131.5 393.5,-131.5 393.5,-112.5 319.5,-112.5"/>
<text text-anchor="middle" x="356.5" y="-119.5" font-family="'Souce Sans Pro', Roboto, FreeSans, sans-serif" font-size="10.00">tracelogger.h</text>
</a>
</g>
</g>
<!-- Node2&#45;&gt;Node8 -->
<g id="edge10" class="edge">
<title>Node2&#45;&gt;Node8</title>
<path fill="none" stroke="midnightblue" d="M248.98,-164.77C275.09,-154.63 311.54,-140.47 334.58,-131.52"/>
<polygon fill="midnightblue" stroke="midnightblue" points="247.58,-161.56 239.52,-168.44 250.11,-168.08 247.58,-161.56"/>
</g>
<!-- Node3&#45;&gt;Node4 -->
<g id="edge3" class="edge">
<title>Node3&#45;&gt;Node4</title>
<path fill="none" stroke="midnightblue" d="M67.89,-52.5C91.7,-42.38 124.61,-28.39 145.47,-19.52"/>
<polygon fill="midnightblue" stroke="midnightblue" points="66.46,-49.31 58.62,-56.44 69.2,-55.75 66.46,-49.31"/>
</g>
<!-- Node5&#45;&gt;Node4 -->
<g id="edge5" class="edge">
<title>Node5&#45;&gt;Node4</title>
<path fill="none" stroke="midnightblue" d="M165.5,-45.8C165.5,-36.91 165.5,-26.78 165.5,-19.75"/>
<polygon fill="midnightblue" stroke="midnightblue" points="162,-46.08 165.5,-56.08 169,-46.08 162,-46.08"/>
</g>
<!-- Node7&#45;&gt;Node4 -->
<g id="edge9" class="edge">
<title>Node7&#45;&gt;Node4</title>
<path fill="none" stroke="midnightblue" d="M255.6,-52.23C233.53,-42.13 203.32,-28.31 184.11,-19.52"/>
<polygon fill="midnightblue" stroke="midnightblue" points="254.25,-55.46 264.8,-56.44 257.17,-49.1 254.25,-55.46"/>
</g>
<!-- Node8&#45;&gt;Node4 -->
<g id="edge11" class="edge">
<title>Node8&#45;&gt;Node4</title>
<path fill="none" stroke="midnightblue" d="M355.83,-102.16C354.3,-87.63 349.87,-68.03 337.5,-56 300.31,-19.86 237.86,-11.77 199.32,-10.48"/>
<polygon fill="midnightblue" stroke="midnightblue" points="352.36,-102.76 356.53,-112.5 359.35,-102.28 352.36,-102.76"/>
</g>
<!-- Node8&#45;&gt;Node7 -->
<g id="edge12" class="edge">
<title>Node8&#45;&gt;Node7</title>
<path fill="none" stroke="midnightblue" d="M336.36,-106.1C323.22,-96.38 306.52,-84.03 295.44,-75.83"/>
<polygon fill="midnightblue" stroke="midnightblue" points="334.65,-109.19 344.77,-112.32 338.81,-103.56 334.65,-109.19"/>
</g>
<!-- Node10 -->
<g id="node10" class="node">
<title>Node10</title>
<g id="a_node10"><a xlink:href="rootlogger_8h.html" target="_top" xlink:title=" ">
<polygon fill="white" stroke="black" points="411.5,-112.5 411.5,-131.5 481.5,-131.5 481.5,-112.5 411.5,-112.5"/>
<text text-anchor="middle" x="446.5" y="-119.5" font-family="'Souce Sans Pro', Roboto, FreeSans, sans-serif" font-size="10.00">rootlogger.h</text>
</a>
</g>
</g>
<!-- Node9&#45;&gt;Node10 -->
<g id="edge14" class="edge">
<title>Node9&#45;&gt;Node10</title>
<path fill="none" stroke="midnightblue" d="M391.81,-162.38C405.36,-152.62 422.74,-140.11 434.23,-131.83"/>
<polygon fill="midnightblue" stroke="midnightblue" points="389.62,-159.64 383.55,-168.32 393.71,-165.32 389.62,-159.64"/>
</g>
</g>
</svg>
