<?xml version="1.0" encoding="UTF-8" standalone="no"?>
<!DOCTYPE svg PUBLIC "-//W3C//DTD SVG 1.1//EN"
 "http://www.w3.org/Graphics/SVG/1.1/DTD/svg11.dtd">
<!-- Generated by graphviz version 2.43.0 (0)
 -->
<!-- Title: loggingevent.h Pages: 1 -->
<svg width="286pt" height="196pt"
 viewBox="0.00 0.00 285.50 196.00" xmlns="http://www.w3.org/2000/svg" xmlns:xlink="http://www.w3.org/1999/xlink">
<g id="graph0" class="graph" transform="scale(1 1) rotate(0) translate(4 192)">
<title>loggingevent.h</title>
<polygon fill="white" stroke="transparent" points="-4,4 -4,-192 281.5,-192 281.5,4 -4,4"/>
<!-- Node1 -->
<g id="node1" class="node">
<title>Node1</title>
<g id="a_node1"><a xlink:title=" ">
<polygon fill="#bfbfbf" stroke="black" points="79.5,-168.5 79.5,-187.5 159.5,-187.5 159.5,-168.5 79.5,-168.5"/>
<text text-anchor="middle" x="119.5" y="-175.5" font-family="'Souce Sans Pro', Roboto, FreeSans, sans-serif" font-size="10.00">loggingevent.h</text>
</a>
</g>
</g>
<!-- Node2 -->
<g id="node2" class="node">
<title>Node2</title>
<g id="a_node2"><a xlink:href="queue_8h.html" target="_top" xlink:title=" ">
<polygon fill="white" stroke="black" points="29.5,-112.5 29.5,-131.5 81.5,-131.5 81.5,-112.5 29.5,-112.5"/>
<text text-anchor="middle" x="55.5" y="-119.5" font-family="'Souce Sans Pro', Roboto, FreeSans, sans-serif" font-size="10.00">queue.h</text>
</a>
</g>
</g>
<!-- Node1&#45;&gt;Node2 -->
<g id="edge1" class="edge">
<title>Node1&#45;&gt;Node2</title>
<path fill="none" stroke="midnightblue" d="M101.51,-161.82C90.04,-152.15 75.59,-139.95 65.97,-131.83"/>
<polygon fill="midnightblue" stroke="midnightblue" points="99.32,-164.55 109.22,-168.32 103.83,-159.2 99.32,-164.55"/>
</g>
<!-- Node4 -->
<g id="node4" class="node">
<title>Node4</title>
<g id="a_node4"><a xlink:href="log4cplus_8h.html" target="_top" xlink:title=" ">
<polygon fill="white" stroke="black" points="49,-0.5 49,-19.5 116,-19.5 116,-0.5 49,-0.5"/>
<text text-anchor="middle" x="82.5" y="-7.5" font-family="'Souce Sans Pro', Roboto, FreeSans, sans-serif" font-size="10.00">log4cplus.h</text>
</a>
</g>
</g>
<!-- Node1&#45;&gt;Node4 -->
<g id="edge6" class="edge">
<title>Node1&#45;&gt;Node4</title>
<path fill="none" stroke="midnightblue" d="M117.56,-158.2C114.81,-134.19 109.04,-91.52 99.5,-56 96.03,-43.1 90.26,-28.74 86.42,-19.79"/>
<polygon fill="midnightblue" stroke="midnightblue" points="114.1,-158.81 118.67,-168.37 121.06,-158.05 114.1,-158.81"/>
</g>
<!-- Node5 -->
<g id="node5" class="node">
<title>Node5</title>
<g id="a_node5"><a xlink:href="internal_8h.html" target="_top" xlink:title="This header contains declaration internal to log4cplus.">
<polygon fill="white" stroke="black" points="166,-112.5 166,-131.5 223,-131.5 223,-112.5 166,-112.5"/>
<text text-anchor="middle" x="194.5" y="-119.5" font-family="'Souce Sans Pro', Roboto, FreeSans, sans-serif" font-size="10.00">internal.h</text>
</a>
</g>
</g>
<!-- Node1&#45;&gt;Node5 -->
<g id="edge4" class="edge">
<title>Node1&#45;&gt;Node5</title>
<path fill="none" stroke="midnightblue" d="M139.81,-162.38C153.36,-152.62 170.74,-140.11 182.23,-131.83"/>
<polygon fill="midnightblue" stroke="midnightblue" points="137.62,-159.64 131.55,-168.32 141.71,-165.32 137.62,-159.64"/>
</g>
<!-- Node3 -->
<g id="node3" class="node">
<title>Node3</title>
<g id="a_node3"><a xlink:href="asyncappender_8h.html" target="_top" xlink:title=" ">
<polygon fill="white" stroke="black" points="0,-56.5 0,-75.5 91,-75.5 91,-56.5 0,-56.5"/>
<text text-anchor="middle" x="45.5" y="-63.5" font-family="'Souce Sans Pro', Roboto, FreeSans, sans-serif" font-size="10.00">asyncappender.h</text>
</a>
</g>
</g>
<!-- Node2&#45;&gt;Node3 -->
<g id="edge2" class="edge">
<title>Node2&#45;&gt;Node3</title>
<path fill="none" stroke="midnightblue" d="M52,-102.1C50.34,-93.14 48.44,-82.86 47.12,-75.75"/>
<polygon fill="midnightblue" stroke="midnightblue" points="48.59,-102.89 53.85,-112.08 55.47,-101.61 48.59,-102.89"/>
</g>
<!-- Node3&#45;&gt;Node4 -->
<g id="edge3" class="edge">
<title>Node3&#45;&gt;Node4</title>
<path fill="none" stroke="midnightblue" d="M57.45,-47.57C63.81,-38.27 71.37,-27.25 76.5,-19.75"/>
<polygon fill="midnightblue" stroke="midnightblue" points="54.37,-45.86 51.61,-56.08 60.15,-49.81 54.37,-45.86"/>
</g>
<!-- Node6 -->
<g id="node6" class="node">
<title>Node6</title>
<g id="a_node6"><a xlink:href="customloglevelmanager_8h.html" target="_top" xlink:title="This header contains declaration internal to log4cplus.">
<polygon fill="white" stroke="black" points="147.5,-56.5 147.5,-75.5 277.5,-75.5 277.5,-56.5 147.5,-56.5"/>
<text text-anchor="middle" x="212.5" y="-63.5" font-family="'Souce Sans Pro', Roboto, FreeSans, sans-serif" font-size="10.00">customloglevelmanager.h</text>
</a>
</g>
</g>
<!-- Node5&#45;&gt;Node6 -->
<g id="edge5" class="edge">
<title>Node5&#45;&gt;Node6</title>
<path fill="none" stroke="midnightblue" d="M200.7,-102.4C203.71,-93.36 207.19,-82.94 209.58,-75.75"/>
<polygon fill="midnightblue" stroke="midnightblue" points="197.31,-101.49 197.47,-112.08 203.96,-103.7 197.31,-101.49"/>
</g>
</g>
</svg>
