<?xml version="1.0" encoding="UTF-8" standalone="no"?>
<!DOCTYPE svg PUBLIC "-//W3C//DTD SVG 1.1//EN"
 "http://www.w3.org/Graphics/SVG/1.1/DTD/svg11.dtd">
<!-- Generated by graphviz version 2.43.0 (0)
 -->
<!-- Title: loggingmacros.h Pages: 1 -->
<svg width="1975pt" height="599pt"
 viewBox="0.00 0.00 1974.50 599.00" xmlns="http://www.w3.org/2000/svg" xmlns:xlink="http://www.w3.org/1999/xlink">
<g id="graph0" class="graph" transform="scale(1 1) rotate(0) translate(4 595)">
<title>loggingmacros.h</title>
<polygon fill="white" stroke="transparent" points="-4,4 -4,-595 1970.5,-595 1970.5,4 -4,4"/>
<!-- Node1 -->
<g id="node1" class="node">
<title>Node1</title>
<g id="a_node1"><a xlink:title="This header defines the logging macros.">
<polygon fill="#bfbfbf" stroke="black" points="1676,-571.5 1676,-590.5 1766,-590.5 1766,-571.5 1676,-571.5"/>
<text text-anchor="middle" x="1721" y="-578.5" font-family="'Souce Sans Pro', Roboto, FreeSans, sans-serif" font-size="10.00">loggingmacros.h</text>
</a>
</g>
</g>
<!-- Node2 -->
<g id="node2" class="node">
<title>Node2</title>
<g id="a_node2"><a xlink:href="config_8hxx.html" target="_top" xlink:title=" ">
<polygon fill="white" stroke="black" points="949.5,-67.5 949.5,-86.5 1058.5,-86.5 1058.5,-67.5 949.5,-67.5"/>
<text text-anchor="middle" x="1004" y="-74.5" font-family="'Souce Sans Pro', Roboto, FreeSans, sans-serif" font-size="10.00">log4cplus/config.hxx</text>
</a>
</g>
</g>
<!-- Node1&#45;&gt;Node2 -->
<g id="edge1" class="edge">
<title>Node1&#45;&gt;Node2</title>
<path fill="none" stroke="midnightblue" d="M1739.64,-571.44C1770.29,-555.93 1828,-520.09 1828,-470 1828,-470 1828,-470 1828,-188 1828,-139.02 1785.08,-139.61 1739,-123 1616.73,-78.93 1225.02,-76.48 1069.01,-77.33"/>
<polygon fill="midnightblue" stroke="midnightblue" points="1068.62,-73.84 1058.64,-77.4 1068.66,-80.84 1068.62,-73.84"/>
</g>
<!-- Node5 -->
<g id="node5" class="node">
<title>Node5</title>
<g id="a_node5"><a xlink:href="streams_8h.html" target="_top" xlink:title=" ">
<polygon fill="white" stroke="black" points="160.5,-235.5 160.5,-254.5 267.5,-254.5 267.5,-235.5 160.5,-235.5"/>
<text text-anchor="middle" x="214" y="-242.5" font-family="'Souce Sans Pro', Roboto, FreeSans, sans-serif" font-size="10.00">log4cplus/streams.h</text>
</a>
</g>
</g>
<!-- Node1&#45;&gt;Node5 -->
<g id="edge4" class="edge">
<title>Node1&#45;&gt;Node5</title>
<path fill="none" stroke="midnightblue" d="M1675.75,-579.07C1426.87,-573.69 236,-544.08 236,-470 236,-470 236,-470 236,-356 236,-323.33 226.55,-286.24 220.04,-264.55"/>
<polygon fill="midnightblue" stroke="midnightblue" points="223.29,-263.22 216.97,-254.72 216.61,-265.31 223.29,-263.22"/>
</g>
<!-- Node9 -->
<g id="node9" class="node">
<title>Node9</title>
<g id="a_node9"><a xlink:href="logger_8h.html" target="_top" xlink:title="This header defines the Logger class and the logging macros.">
<polygon fill="white" stroke="black" points="1271,-459.5 1271,-478.5 1369,-478.5 1369,-459.5 1271,-459.5"/>
<text text-anchor="middle" x="1320" y="-466.5" font-family="'Souce Sans Pro', Roboto, FreeSans, sans-serif" font-size="10.00">log4cplus/logger.h</text>
</a>
</g>
</g>
<!-- Node1&#45;&gt;Node9 -->
<g id="edge10" class="edge">
<title>Node1&#45;&gt;Node9</title>
<path fill="none" stroke="midnightblue" d="M1689.87,-571.46C1618.13,-551.78 1441.22,-503.25 1360.88,-481.21"/>
<polygon fill="midnightblue" stroke="midnightblue" points="1361.68,-477.8 1351.11,-478.53 1359.83,-484.56 1361.68,-477.8"/>
</g>
<!-- Node32 -->
<g id="node32" class="node">
<title>Node32</title>
<g id="a_node32"><a xlink:href="snprintf_8h.html" target="_top" xlink:title=" ">
<polygon fill="white" stroke="black" points="0,-235.5 0,-254.5 142,-254.5 142,-235.5 0,-235.5"/>
<text text-anchor="middle" x="71" y="-242.5" font-family="'Souce Sans Pro', Roboto, FreeSans, sans-serif" font-size="10.00">log4cplus/helpers/snprintf.h</text>
</a>
</g>
</g>
<!-- Node1&#45;&gt;Node32 -->
<g id="edge67" class="edge">
<title>Node1&#45;&gt;Node32</title>
<path fill="none" stroke="midnightblue" d="M1675.69,-579.57C1475.2,-577.47 666.62,-567.16 415,-535 283.55,-518.2 124,-602.52 124,-470 124,-470 124,-470 124,-356 124,-319.99 100.67,-283.34 84.96,-262.75"/>
<polygon fill="midnightblue" stroke="midnightblue" points="87.55,-260.38 78.59,-254.72 82.07,-264.73 87.55,-260.38"/>
</g>
<!-- Node34 -->
<g id="node34" class="node">
<title>Node34</title>
<g id="a_node34"><a xlink:href="tracelogger_8h.html" target="_top" xlink:title=" ">
<polygon fill="white" stroke="black" points="1661,-515.5 1661,-534.5 1781,-534.5 1781,-515.5 1661,-515.5"/>
<text text-anchor="middle" x="1721" y="-522.5" font-family="'Souce Sans Pro', Roboto, FreeSans, sans-serif" font-size="10.00">log4cplus/tracelogger.h</text>
</a>
</g>
</g>
<!-- Node1&#45;&gt;Node34 -->
<g id="edge72" class="edge">
<title>Node1&#45;&gt;Node34</title>
<path fill="none" stroke="midnightblue" d="M1721,-571.08C1721,-564.01 1721,-553.86 1721,-544.99"/>
<polygon fill="midnightblue" stroke="midnightblue" points="1724.5,-544.75 1721,-534.75 1717.5,-544.75 1724.5,-544.75"/>
</g>
<!-- Node35 -->
<g id="node35" class="node">
<title>Node35</title>
<g id="a_node35"><a xlink:title=" ">
<polygon fill="white" stroke="#bfbfbf" points="1856.5,-515.5 1856.5,-534.5 1909.5,-534.5 1909.5,-515.5 1856.5,-515.5"/>
<text text-anchor="middle" x="1883" y="-522.5" font-family="'Souce Sans Pro', Roboto, FreeSans, sans-serif" font-size="10.00">sstream</text>
</a>
</g>
</g>
<!-- Node1&#45;&gt;Node35 -->
<g id="edge75" class="edge">
<title>Node1&#45;&gt;Node35</title>
<path fill="none" stroke="midnightblue" d="M1746.67,-571.44C1773.92,-562.36 1817.18,-547.94 1847.65,-537.78"/>
<polygon fill="midnightblue" stroke="midnightblue" points="1849.07,-541 1857.45,-534.52 1846.86,-534.36 1849.07,-541"/>
</g>
<!-- Node36 -->
<g id="node36" class="node">
<title>Node36</title>
<g id="a_node36"><a xlink:title=" ">
<polygon fill="white" stroke="#bfbfbf" points="1927.5,-515.5 1927.5,-534.5 1966.5,-534.5 1966.5,-515.5 1927.5,-515.5"/>
<text text-anchor="middle" x="1947" y="-522.5" font-family="'Souce Sans Pro', Roboto, FreeSans, sans-serif" font-size="10.00">utility</text>
</a>
</g>
</g>
<!-- Node1&#45;&gt;Node36 -->
<g id="edge76" class="edge">
<title>Node1&#45;&gt;Node36</title>
<path fill="none" stroke="midnightblue" d="M1763.37,-571.49C1801.52,-563.58 1859.3,-550.99 1917.72,-535.18"/>
<polygon fill="midnightblue" stroke="midnightblue" points="1918.76,-538.53 1927.48,-532.51 1916.91,-531.78 1918.76,-538.53"/>
</g>
<!-- Node3 -->
<g id="node3" class="node">
<title>Node3</title>
<g id="a_node3"><a xlink:href="win32_8h.html" target="_top" xlink:title=" ">
<polygon fill="white" stroke="black" points="867,-6 867,-25 995,-25 995,-6 867,-6"/>
<text text-anchor="middle" x="931" y="-13" font-family="'Souce Sans Pro', Roboto, FreeSans, sans-serif" font-size="10.00">log4cplus/config/win32.h</text>
</a>
</g>
</g>
<!-- Node2&#45;&gt;Node3 -->
<g id="edge2" class="edge">
<title>Node2&#45;&gt;Node3</title>
<path fill="none" stroke="midnightblue" d="M993.54,-67.48C982.05,-58.11 963.37,-42.88 949.41,-31.51"/>
<polygon fill="midnightblue" stroke="midnightblue" points="951.4,-28.61 941.44,-25.01 946.98,-34.04 951.4,-28.61"/>
</g>
<!-- Node4 -->
<g id="node4" class="node">
<title>Node4</title>
<g id="a_node4"><a xlink:href="thread-config_8h.html" target="_top" xlink:title=" ">
<polygon fill="white" stroke="black" points="1013,-0.5 1013,-30.5 1141,-30.5 1141,-0.5 1013,-0.5"/>
<text text-anchor="start" x="1021" y="-18.5" font-family="'Souce Sans Pro', Roboto, FreeSans, sans-serif" font-size="10.00">log4cplus/helpers/thread</text>
<text text-anchor="middle" x="1077" y="-7.5" font-family="'Souce Sans Pro', Roboto, FreeSans, sans-serif" font-size="10.00">&#45;config.h</text>
</a>
</g>
</g>
<!-- Node2&#45;&gt;Node4 -->
<g id="edge3" class="edge">
<title>Node2&#45;&gt;Node4</title>
<path fill="none" stroke="midnightblue" d="M1014.46,-67.48C1024.16,-59.57 1038.99,-47.48 1051.77,-37.07"/>
<polygon fill="midnightblue" stroke="midnightblue" points="1054.26,-39.55 1059.8,-30.52 1049.83,-34.13 1054.26,-39.55"/>
</g>
<!-- Node5&#45;&gt;Node2 -->
<g id="edge5" class="edge">
<title>Node5&#45;&gt;Node2</title>
<path fill="none" stroke="midnightblue" d="M230.27,-235.41C261.93,-218.75 329.7,-183.27 341,-179 549.76,-100.15 817.56,-82.75 938.98,-78.99"/>
<polygon fill="midnightblue" stroke="midnightblue" points="939.32,-82.48 949.22,-78.69 939.12,-75.48 939.32,-82.48"/>
</g>
<!-- Node6 -->
<g id="node6" class="node">
<title>Node6</title>
<g id="a_node6"><a xlink:href="tchar_8h.html" target="_top" xlink:title=" ">
<polygon fill="white" stroke="black" points="182.5,-123.5 182.5,-142.5 275.5,-142.5 275.5,-123.5 182.5,-123.5"/>
<text text-anchor="middle" x="229" y="-130.5" font-family="'Souce Sans Pro', Roboto, FreeSans, sans-serif" font-size="10.00">log4cplus/tchar.h</text>
</a>
</g>
</g>
<!-- Node5&#45;&gt;Node6 -->
<g id="edge6" class="edge">
<title>Node5&#45;&gt;Node6</title>
<path fill="none" stroke="midnightblue" d="M215.18,-235.37C217.6,-217.62 223.18,-176.67 226.46,-152.6"/>
<polygon fill="midnightblue" stroke="midnightblue" points="229.95,-152.97 227.83,-142.59 223.01,-152.03 229.95,-152.97"/>
</g>
<!-- Node8 -->
<g id="node8" class="node">
<title>Node8</title>
<g id="a_node8"><a xlink:title=" ">
<polygon fill="white" stroke="#bfbfbf" points="242.5,-179.5 242.5,-198.5 289.5,-198.5 289.5,-179.5 242.5,-179.5"/>
<text text-anchor="middle" x="266" y="-186.5" font-family="'Souce Sans Pro', Roboto, FreeSans, sans-serif" font-size="10.00">iosfwd</text>
</a>
</g>
</g>
<!-- Node5&#45;&gt;Node8 -->
<g id="edge9" class="edge">
<title>Node5&#45;&gt;Node8</title>
<path fill="none" stroke="midnightblue" d="M222.59,-235.08C230.16,-227.22 241.38,-215.57 250.51,-206.08"/>
<polygon fill="midnightblue" stroke="midnightblue" points="253.16,-208.38 257.57,-198.75 248.12,-203.53 253.16,-208.38"/>
</g>
<!-- Node6&#45;&gt;Node2 -->
<g id="edge7" class="edge">
<title>Node6&#45;&gt;Node2</title>
<path fill="none" stroke="midnightblue" d="M275.79,-126.14C285.75,-125 296.21,-123.89 306,-123 538.61,-101.92 815.71,-87.11 939.14,-81.05"/>
<polygon fill="midnightblue" stroke="midnightblue" points="939.36,-84.55 949.18,-80.56 939.02,-77.56 939.36,-84.55"/>
</g>
<!-- Node7 -->
<g id="node7" class="node">
<title>Node7</title>
<g id="a_node7"><a xlink:title=" ">
<polygon fill="white" stroke="#bfbfbf" points="203.5,-67.5 203.5,-86.5 254.5,-86.5 254.5,-67.5 203.5,-67.5"/>
<text text-anchor="middle" x="229" y="-74.5" font-family="'Souce Sans Pro', Roboto, FreeSans, sans-serif" font-size="10.00">cstddef</text>
</a>
</g>
</g>
<!-- Node6&#45;&gt;Node7 -->
<g id="edge8" class="edge">
<title>Node6&#45;&gt;Node7</title>
<path fill="none" stroke="midnightblue" d="M229,-123.08C229,-116.01 229,-105.86 229,-96.99"/>
<polygon fill="midnightblue" stroke="midnightblue" points="232.5,-96.75 229,-86.75 225.5,-96.75 232.5,-96.75"/>
</g>
<!-- Node9&#45;&gt;Node2 -->
<g id="edge11" class="edge">
<title>Node9&#45;&gt;Node2</title>
<path fill="none" stroke="midnightblue" d="M1369.14,-465.84C1482.36,-459.52 1752,-436.26 1752,-358 1752,-358 1752,-358 1752,-188 1752,-128.51 1692.02,-139.96 1635,-123 1530.38,-91.88 1207.8,-81.96 1068.81,-79.07"/>
<polygon fill="midnightblue" stroke="midnightblue" points="1068.79,-75.57 1058.73,-78.87 1068.65,-82.57 1068.79,-75.57"/>
</g>
<!-- Node10 -->
<g id="node10" class="node">
<title>Node10</title>
<g id="a_node10"><a xlink:href="loglevel_8h.html" target="_top" xlink:title="This header defines the LogLevel type.">
<polygon fill="white" stroke="black" points="438,-235.5 438,-254.5 542,-254.5 542,-235.5 438,-235.5"/>
<text text-anchor="middle" x="490" y="-242.5" font-family="'Souce Sans Pro', Roboto, FreeSans, sans-serif" font-size="10.00">log4cplus/loglevel.h</text>
</a>
</g>
</g>
<!-- Node9&#45;&gt;Node10 -->
<g id="edge12" class="edge">
<title>Node9&#45;&gt;Node10</title>
<path fill="none" stroke="midnightblue" d="M1270.66,-464.81C1160.99,-456.74 889.53,-431.42 672,-367 613.63,-349.71 595.97,-347.16 547,-311 528.78,-297.54 512.23,-277.36 501.71,-263.06"/>
<polygon fill="midnightblue" stroke="midnightblue" points="504.37,-260.76 495.72,-254.64 498.67,-264.82 504.37,-260.76"/>
</g>
<!-- Node11 -->
<g id="node11" class="node">
<title>Node11</title>
<g id="a_node11"><a xlink:title=" ">
<polygon fill="white" stroke="#bfbfbf" points="350,-179.5 350,-198.5 394,-198.5 394,-179.5 350,-179.5"/>
<text text-anchor="middle" x="372" y="-186.5" font-family="'Souce Sans Pro', Roboto, FreeSans, sans-serif" font-size="10.00">vector</text>
</a>
</g>
</g>
<!-- Node9&#45;&gt;Node11 -->
<g id="edge66" class="edge">
<title>Node9&#45;&gt;Node11</title>
<path fill="none" stroke="midnightblue" d="M1270.83,-468.46C1106.43,-469.55 577.05,-469.28 414,-423 356.4,-406.65 296,-417.87 296,-358 296,-358 296,-358 296,-300 296,-260.28 329.96,-224.5 352.48,-205.15"/>
<polygon fill="midnightblue" stroke="midnightblue" points="354.98,-207.63 360.46,-198.57 350.52,-202.24 354.98,-207.63"/>
</g>
<!-- Node12 -->
<g id="node12" class="node">
<title>Node12</title>
<g id="a_node12"><a xlink:href="tstring_8h.html" target="_top" xlink:title=" ">
<polygon fill="white" stroke="black" points="556.5,-179.5 556.5,-198.5 655.5,-198.5 655.5,-179.5 556.5,-179.5"/>
<text text-anchor="middle" x="606" y="-186.5" font-family="'Souce Sans Pro', Roboto, FreeSans, sans-serif" font-size="10.00">log4cplus/tstring.h</text>
</a>
</g>
</g>
<!-- Node9&#45;&gt;Node12 -->
<g id="edge19" class="edge">
<title>Node9&#45;&gt;Node12</title>
<path fill="none" stroke="midnightblue" d="M1270.77,-467.74C1071.32,-466.04 334,-453.33 334,-358 334,-358 334,-358 334,-300 334,-253.59 471.79,-217.52 551.23,-200.58"/>
<polygon fill="midnightblue" stroke="midnightblue" points="552.02,-203.99 561.08,-198.52 550.58,-197.14 552.02,-203.99"/>
</g>
<!-- Node14 -->
<g id="node14" class="node">
<title>Node14</title>
<g id="a_node14"><a xlink:href="appenderattachable_8h.html" target="_top" xlink:title=" ">
<polygon fill="white" stroke="black" points="1086,-403.5 1086,-422.5 1260,-422.5 1260,-403.5 1086,-403.5"/>
<text text-anchor="middle" x="1173" y="-410.5" font-family="'Souce Sans Pro', Roboto, FreeSans, sans-serif" font-size="10.00">log4cplus/spi/appenderattachable.h</text>
</a>
</g>
</g>
<!-- Node9&#45;&gt;Node14 -->
<g id="edge20" class="edge">
<title>Node9&#45;&gt;Node14</title>
<path fill="none" stroke="midnightblue" d="M1296.71,-459.44C1272.19,-450.44 1233.4,-436.19 1205.8,-426.05"/>
<polygon fill="midnightblue" stroke="midnightblue" points="1206.78,-422.68 1196.18,-422.52 1204.36,-429.25 1206.78,-422.68"/>
</g>
<!-- Node31 -->
<g id="node31" class="node">
<title>Node31</title>
<g id="a_node31"><a xlink:href="loggerfactory_8h.html" target="_top" xlink:title=" ">
<polygon fill="white" stroke="black" points="1576,-235.5 1576,-254.5 1724,-254.5 1724,-235.5 1576,-235.5"/>
<text text-anchor="middle" x="1650" y="-242.5" font-family="'Souce Sans Pro', Roboto, FreeSans, sans-serif" font-size="10.00">log4cplus/spi/loggerfactory.h</text>
</a>
</g>
</g>
<!-- Node9&#45;&gt;Node31 -->
<g id="edge63" class="edge">
<title>Node9&#45;&gt;Node31</title>
<path fill="none" stroke="midnightblue" d="M1356.42,-459.47C1406.77,-446.28 1498.59,-417.1 1562,-367 1598.88,-337.86 1627.6,-289.45 1641.26,-263.58"/>
<polygon fill="midnightblue" stroke="midnightblue" points="1644.43,-265.06 1645.89,-254.56 1638.21,-261.86 1644.43,-265.06"/>
</g>
<!-- Node10&#45;&gt;Node2 -->
<g id="edge13" class="edge">
<title>Node10&#45;&gt;Node2</title>
<path fill="none" stroke="midnightblue" d="M494.33,-235.34C506.34,-212.35 542.54,-149.74 593,-123 651.48,-92.01 838.99,-82.31 939.28,-79.32"/>
<polygon fill="midnightblue" stroke="midnightblue" points="939.4,-82.82 949.3,-79.03 939.2,-75.82 939.4,-82.82"/>
</g>
<!-- Node10&#45;&gt;Node11 -->
<g id="edge14" class="edge">
<title>Node10&#45;&gt;Node11</title>
<path fill="none" stroke="midnightblue" d="M471.3,-235.44C452.06,-226.64 421.85,-212.81 399.8,-202.72"/>
<polygon fill="midnightblue" stroke="midnightblue" points="401.16,-199.5 390.61,-198.52 398.25,-205.86 401.16,-199.5"/>
</g>
<!-- Node10&#45;&gt;Node12 -->
<g id="edge15" class="edge">
<title>Node10&#45;&gt;Node12</title>
<path fill="none" stroke="midnightblue" d="M508.38,-235.44C527.22,-226.68 556.73,-212.94 578.38,-202.86"/>
<polygon fill="midnightblue" stroke="midnightblue" points="580.12,-205.91 587.71,-198.52 577.16,-199.56 580.12,-205.91"/>
</g>
<!-- Node12&#45;&gt;Node2 -->
<g id="edge16" class="edge">
<title>Node12&#45;&gt;Node2</title>
<path fill="none" stroke="midnightblue" d="M602.72,-179.14C598.22,-165.29 592.17,-138.49 606,-123 627.77,-98.63 832.08,-85.79 939.18,-80.68"/>
<polygon fill="midnightblue" stroke="midnightblue" points="939.4,-84.18 949.23,-80.21 939.07,-77.19 939.4,-84.18"/>
</g>
<!-- Node12&#45;&gt;Node6 -->
<g id="edge18" class="edge">
<title>Node12&#45;&gt;Node6</title>
<path fill="none" stroke="midnightblue" d="M556.33,-180.88C486.34,-170.86 359.06,-152.63 285.53,-142.1"/>
<polygon fill="midnightblue" stroke="midnightblue" points="285.92,-138.62 275.52,-140.66 284.93,-145.55 285.92,-138.62"/>
</g>
<!-- Node13 -->
<g id="node13" class="node">
<title>Node13</title>
<g id="a_node13"><a xlink:title=" ">
<polygon fill="white" stroke="#bfbfbf" points="614.5,-123.5 614.5,-142.5 655.5,-142.5 655.5,-123.5 614.5,-123.5"/>
<text text-anchor="middle" x="635" y="-130.5" font-family="'Souce Sans Pro', Roboto, FreeSans, sans-serif" font-size="10.00">string</text>
</a>
</g>
</g>
<!-- Node12&#45;&gt;Node13 -->
<g id="edge17" class="edge">
<title>Node12&#45;&gt;Node13</title>
<path fill="none" stroke="midnightblue" d="M610.79,-179.08C614.76,-171.69 620.53,-160.95 625.43,-151.81"/>
<polygon fill="midnightblue" stroke="midnightblue" points="628.65,-153.22 630.3,-142.75 622.49,-149.91 628.65,-153.22"/>
</g>
<!-- Node14&#45;&gt;Node2 -->
<g id="edge21" class="edge">
<title>Node14&#45;&gt;Node2</title>
<path fill="none" stroke="midnightblue" d="M1202.35,-403.49C1229.44,-395.28 1270.57,-381.93 1305,-367 1372.91,-337.54 1625.77,-237.19 1580,-179 1517.76,-99.87 1206.23,-82.73 1069.04,-79.02"/>
<polygon fill="midnightblue" stroke="midnightblue" points="1068.77,-75.51 1058.68,-78.76 1068.59,-82.51 1068.77,-75.51"/>
</g>
<!-- Node14&#45;&gt;Node11 -->
<g id="edge62" class="edge">
<title>Node14&#45;&gt;Node11</title>
<path fill="none" stroke="midnightblue" d="M1085.71,-412.09C984.7,-410.38 814.06,-401.88 672,-367 545.43,-335.93 494.42,-345.87 401,-255 388.01,-242.37 380.39,-222.88 376.25,-208.54"/>
<polygon fill="midnightblue" stroke="midnightblue" points="379.61,-207.58 373.72,-198.77 372.83,-209.33 379.61,-207.58"/>
</g>
<!-- Node14&#45;&gt;Node12 -->
<g id="edge60" class="edge">
<title>Node14&#45;&gt;Node12</title>
<path fill="none" stroke="midnightblue" d="M1085.89,-407.98C944.91,-399.64 675.74,-375.51 609,-311 581.65,-284.56 591.48,-234.99 599.59,-208.24"/>
<polygon fill="midnightblue" stroke="midnightblue" points="602.96,-209.19 602.74,-198.6 596.3,-207.02 602.96,-209.19"/>
</g>
<!-- Node15 -->
<g id="node15" class="node">
<title>Node15</title>
<g id="a_node15"><a xlink:href="appender_8h.html" target="_top" xlink:title=" ">
<polygon fill="white" stroke="black" points="1043,-347.5 1043,-366.5 1155,-366.5 1155,-347.5 1043,-347.5"/>
<text text-anchor="middle" x="1099" y="-354.5" font-family="'Souce Sans Pro', Roboto, FreeSans, sans-serif" font-size="10.00">log4cplus/appender.h</text>
</a>
</g>
</g>
<!-- Node14&#45;&gt;Node15 -->
<g id="edge22" class="edge">
<title>Node14&#45;&gt;Node15</title>
<path fill="none" stroke="midnightblue" d="M1161.11,-403.32C1149.85,-395.11 1132.71,-382.6 1119.29,-372.81"/>
<polygon fill="midnightblue" stroke="midnightblue" points="1121.25,-369.9 1111.11,-366.83 1117.12,-375.56 1121.25,-369.9"/>
</g>
<!-- Node21 -->
<g id="node21" class="node">
<title>Node21</title>
<g id="a_node21"><a xlink:href="pointer_8h.html" target="_top" xlink:title=" ">
<polygon fill="white" stroke="black" points="1344,-235.5 1344,-254.5 1482,-254.5 1482,-235.5 1344,-235.5"/>
<text text-anchor="middle" x="1413" y="-242.5" font-family="'Souce Sans Pro', Roboto, FreeSans, sans-serif" font-size="10.00">log4cplus/helpers/pointer.h</text>
</a>
</g>
</g>
<!-- Node14&#45;&gt;Node21 -->
<g id="edge61" class="edge">
<title>Node14&#45;&gt;Node21</title>
<path fill="none" stroke="midnightblue" d="M1195.14,-403.41C1231.96,-388.42 1306.97,-354.86 1360,-311 1376.75,-297.15 1391.99,-277.34 1401.78,-263.24"/>
<polygon fill="midnightblue" stroke="midnightblue" points="1404.71,-265.17 1407.39,-254.92 1398.9,-261.26 1404.71,-265.17"/>
</g>
<!-- Node15&#45;&gt;Node2 -->
<g id="edge23" class="edge">
<title>Node15&#45;&gt;Node2</title>
<path fill="none" stroke="midnightblue" d="M1066.89,-347.39C1045.82,-340.41 1018.79,-328.78 1000,-311 976.32,-288.59 966,-278.6 966,-246 966,-246 966,-246 966,-188 966,-153.81 982.6,-116.76 993.86,-95.57"/>
<polygon fill="midnightblue" stroke="midnightblue" points="996.95,-97.22 998.72,-86.77 990.82,-93.83 996.95,-97.22"/>
</g>
<!-- Node15&#45;&gt;Node10 -->
<g id="edge36" class="edge">
<title>Node15&#45;&gt;Node10</title>
<path fill="none" stroke="midnightblue" d="M1042.69,-354.28C929,-350.27 675.88,-338.48 594,-311 560.94,-299.91 527.62,-276.41 507.9,-260.91"/>
<polygon fill="midnightblue" stroke="midnightblue" points="510.07,-258.17 500.08,-254.63 505.68,-263.62 510.07,-258.17"/>
</g>
<!-- Node15&#45;&gt;Node12 -->
<g id="edge37" class="edge">
<title>Node15&#45;&gt;Node12</title>
<path fill="none" stroke="midnightblue" d="M1042.8,-354.41C924.24,-350.52 656.97,-338.75 627,-311 598.8,-284.89 599.9,-235.56 603.02,-208.65"/>
<polygon fill="midnightblue" stroke="midnightblue" points="606.5,-209.01 604.4,-198.63 599.57,-208.06 606.5,-209.01"/>
</g>
<!-- Node16 -->
<g id="node16" class="node">
<title>Node16</title>
<g id="a_node16"><a xlink:href="layout_8h.html" target="_top" xlink:title=" ">
<polygon fill="white" stroke="black" points="636,-291.5 636,-310.5 734,-310.5 734,-291.5 636,-291.5"/>
<text text-anchor="middle" x="685" y="-298.5" font-family="'Souce Sans Pro', Roboto, FreeSans, sans-serif" font-size="10.00">log4cplus/layout.h</text>
</a>
</g>
</g>
<!-- Node15&#45;&gt;Node16 -->
<g id="edge24" class="edge">
<title>Node15&#45;&gt;Node16</title>
<path fill="none" stroke="midnightblue" d="M1042.74,-348.66C964.66,-338.48 824.1,-320.14 744.39,-309.75"/>
<polygon fill="midnightblue" stroke="midnightblue" points="744.41,-306.22 734.04,-308.4 743.5,-313.16 744.41,-306.22"/>
</g>
<!-- Node20 -->
<g id="node20" class="node">
<title>Node20</title>
<g id="a_node20"><a xlink:title=" ">
<polygon fill="white" stroke="#bfbfbf" points="884,-235.5 884,-254.5 938,-254.5 938,-235.5 884,-235.5"/>
<text text-anchor="middle" x="911" y="-242.5" font-family="'Souce Sans Pro', Roboto, FreeSans, sans-serif" font-size="10.00">memory</text>
</a>
</g>
</g>
<!-- Node15&#45;&gt;Node20 -->
<g id="edge56" class="edge">
<title>Node15&#45;&gt;Node20</title>
<path fill="none" stroke="midnightblue" d="M1042.67,-348.4C1013.32,-342.19 978.19,-331.02 952,-311 936.13,-298.87 924.81,-278.71 918.13,-264.05"/>
<polygon fill="midnightblue" stroke="midnightblue" points="921.23,-262.38 914.1,-254.54 914.78,-265.11 921.23,-262.38"/>
</g>
<!-- Node15&#45;&gt;Node21 -->
<g id="edge38" class="edge">
<title>Node15&#45;&gt;Node21</title>
<path fill="none" stroke="midnightblue" d="M1155.38,-352.43C1203.59,-347.68 1273.88,-336.63 1330,-311 1356.37,-298.96 1381.88,-276.93 1397.5,-261.89"/>
<polygon fill="midnightblue" stroke="midnightblue" points="1400.07,-264.27 1404.72,-254.75 1395.15,-259.29 1400.07,-264.27"/>
</g>
<!-- Node23 -->
<g id="node23" class="node">
<title>Node23</title>
<g id="a_node23"><a xlink:title=" ">
<polygon fill="white" stroke="#bfbfbf" points="1091,-123.5 1091,-142.5 1135,-142.5 1135,-123.5 1091,-123.5"/>
<text text-anchor="middle" x="1113" y="-130.5" font-family="'Souce Sans Pro', Roboto, FreeSans, sans-serif" font-size="10.00">mutex</text>
</a>
</g>
</g>
<!-- Node15&#45;&gt;Node23 -->
<g id="edge57" class="edge">
<title>Node15&#45;&gt;Node23</title>
<path fill="none" stroke="midnightblue" d="M1127.93,-347.41C1165.93,-334.38 1231.09,-305.63 1259,-255 1296.85,-186.35 1201.34,-277.47 1127,-199 1115.47,-186.83 1112.52,-167.56 1112.12,-153.15"/>
<polygon fill="midnightblue" stroke="midnightblue" points="1115.62,-152.91 1112.23,-142.87 1108.62,-152.83 1115.62,-152.91"/>
</g>
<!-- Node24 -->
<g id="node24" class="node">
<title>Node24</title>
<g id="a_node24"><a xlink:title=" ">
<polygon fill="white" stroke="#bfbfbf" points="1221,-123.5 1221,-142.5 1317,-142.5 1317,-123.5 1221,-123.5"/>
<text text-anchor="middle" x="1269" y="-130.5" font-family="'Souce Sans Pro', Roboto, FreeSans, sans-serif" font-size="10.00">condition_variable</text>
</a>
</g>
</g>
<!-- Node15&#45;&gt;Node24 -->
<g id="edge59" class="edge">
<title>Node15&#45;&gt;Node24</title>
<path fill="none" stroke="midnightblue" d="M1142.1,-347.43C1169.05,-340.63 1203.54,-329.17 1230,-311 1256.79,-292.61 1261.52,-283.57 1277,-255 1293.49,-224.57 1302.68,-212.51 1294,-179 1291.45,-169.18 1286.25,-159.21 1281.24,-151.17"/>
<polygon fill="midnightblue" stroke="midnightblue" points="1284.08,-149.11 1275.63,-142.73 1278.25,-152.99 1284.08,-149.11"/>
</g>
<!-- Node27 -->
<g id="node27" class="node">
<title>Node27</title>
<g id="a_node27"><a xlink:title=" ">
<polygon fill="white" stroke="#bfbfbf" points="1523.5,-179.5 1523.5,-198.5 1570.5,-198.5 1570.5,-179.5 1523.5,-179.5"/>
<text text-anchor="middle" x="1547" y="-186.5" font-family="'Souce Sans Pro', Roboto, FreeSans, sans-serif" font-size="10.00">atomic</text>
</a>
</g>
</g>
<!-- Node15&#45;&gt;Node27 -->
<g id="edge58" class="edge">
<title>Node15&#45;&gt;Node27</title>
<path fill="none" stroke="midnightblue" d="M1155.14,-354.33C1236.59,-349.29 1388.92,-329.71 1491,-255 1509.14,-241.72 1525.36,-221.51 1535.61,-207.15"/>
<polygon fill="midnightblue" stroke="midnightblue" points="1538.65,-208.91 1541.45,-198.69 1532.89,-204.93 1538.65,-208.91"/>
</g>
<!-- Node28 -->
<g id="node28" class="node">
<title>Node28</title>
<g id="a_node28"><a xlink:href="filter_8h.html" target="_top" xlink:title="This header defines Filter and all of it&#39;s subclasses.">
<polygon fill="white" stroke="black" points="1008.5,-291.5 1008.5,-310.5 1115.5,-310.5 1115.5,-291.5 1008.5,-291.5"/>
<text text-anchor="middle" x="1062" y="-298.5" font-family="'Souce Sans Pro', Roboto, FreeSans, sans-serif" font-size="10.00">log4cplus/spi/filter.h</text>
</a>
</g>
</g>
<!-- Node15&#45;&gt;Node28 -->
<g id="edge47" class="edge">
<title>Node15&#45;&gt;Node28</title>
<path fill="none" stroke="midnightblue" d="M1092.89,-347.08C1087.72,-339.53 1080.15,-328.49 1073.81,-319.23"/>
<polygon fill="midnightblue" stroke="midnightblue" points="1076.54,-317.02 1068,-310.75 1070.76,-320.98 1076.54,-317.02"/>
</g>
<!-- Node30 -->
<g id="node30" class="node">
<title>Node30</title>
<g id="a_node30"><a xlink:href="lockfile_8h.html" target="_top" xlink:title=" ">
<polygon fill="white" stroke="black" points="1110,-235.5 1110,-254.5 1250,-254.5 1250,-235.5 1110,-235.5"/>
<text text-anchor="middle" x="1180" y="-242.5" font-family="'Souce Sans Pro', Roboto, FreeSans, sans-serif" font-size="10.00">log4cplus/helpers/lockfile.h</text>
</a>
</g>
</g>
<!-- Node15&#45;&gt;Node30 -->
<g id="edge52" class="edge">
<title>Node15&#45;&gt;Node30</title>
<path fill="none" stroke="midnightblue" d="M1105.36,-347.37C1118.78,-329.14 1150.23,-286.43 1167.72,-262.68"/>
<polygon fill="midnightblue" stroke="midnightblue" points="1170.56,-264.72 1173.67,-254.59 1164.93,-260.57 1170.56,-264.72"/>
</g>
<!-- Node16&#45;&gt;Node2 -->
<g id="edge25" class="edge">
<title>Node16&#45;&gt;Node2</title>
<path fill="none" stroke="midnightblue" d="M685.97,-291.47C687.75,-278.52 692.35,-253.46 703,-235 737.87,-174.57 752.21,-157.24 813,-123 851.69,-101.21 900.5,-89.94 939.1,-84.13"/>
<polygon fill="midnightblue" stroke="midnightblue" points="939.77,-87.57 949.18,-82.7 938.79,-80.64 939.77,-87.57"/>
</g>
<!-- Node16&#45;&gt;Node5 -->
<g id="edge27" class="edge">
<title>Node16&#45;&gt;Node5</title>
<path fill="none" stroke="midnightblue" d="M635.93,-294.37C550.11,-284.53 372.87,-264.21 277.71,-253.3"/>
<polygon fill="midnightblue" stroke="midnightblue" points="277.97,-249.81 267.64,-252.15 277.17,-256.77 277.97,-249.81"/>
</g>
<!-- Node16&#45;&gt;Node10 -->
<g id="edge26" class="edge">
<title>Node16&#45;&gt;Node10</title>
<path fill="none" stroke="midnightblue" d="M654.1,-291.44C620.73,-282.2 567.41,-267.44 530.65,-257.26"/>
<polygon fill="midnightblue" stroke="midnightblue" points="531.33,-253.81 520.75,-254.52 529.46,-260.56 531.33,-253.81"/>
</g>
<!-- Node16&#45;&gt;Node11 -->
<g id="edge34" class="edge">
<title>Node16&#45;&gt;Node11</title>
<path fill="none" stroke="midnightblue" d="M635.55,-300.82C581.48,-299.65 493.89,-291.51 429,-255 408.85,-243.66 392.31,-222.44 382.34,-207.33"/>
<polygon fill="midnightblue" stroke="midnightblue" points="385.29,-205.45 377,-198.85 379.37,-209.18 385.29,-205.45"/>
</g>
<!-- Node16&#45;&gt;Node12 -->
<g id="edge28" class="edge">
<title>Node16&#45;&gt;Node12</title>
<path fill="none" stroke="midnightblue" d="M678.8,-291.37C665.76,-273.22 635.3,-230.8 618.2,-206.99"/>
<polygon fill="midnightblue" stroke="midnightblue" points="620.85,-204.67 612.17,-198.59 615.16,-208.76 620.85,-204.67"/>
</g>
<!-- Node17 -->
<g id="node17" class="node">
<title>Node17</title>
<g id="a_node17"><a xlink:href="timehelper_8h.html" target="_top" xlink:title=" ">
<polygon fill="white" stroke="black" points="712,-235.5 712,-254.5 866,-254.5 866,-235.5 712,-235.5"/>
<text text-anchor="middle" x="789" y="-242.5" font-family="'Souce Sans Pro', Roboto, FreeSans, sans-serif" font-size="10.00">log4cplus/helpers/timehelper.h</text>
</a>
</g>
</g>
<!-- Node16&#45;&gt;Node17 -->
<g id="edge29" class="edge">
<title>Node16&#45;&gt;Node17</title>
<path fill="none" stroke="midnightblue" d="M701.71,-291.32C718.31,-282.7 744,-269.36 763.22,-259.39"/>
<polygon fill="midnightblue" stroke="midnightblue" points="765.07,-262.37 772.33,-254.65 761.84,-256.16 765.07,-262.37"/>
</g>
<!-- Node16&#45;&gt;Node20 -->
<g id="edge35" class="edge">
<title>Node16&#45;&gt;Node20</title>
<path fill="none" stroke="midnightblue" d="M721.81,-291.42C758.09,-282.94 815.36,-269.46 874.07,-255.21"/>
<polygon fill="midnightblue" stroke="midnightblue" points="874.99,-258.58 883.88,-252.82 873.34,-251.78 874.99,-258.58"/>
</g>
<!-- Node17&#45;&gt;Node2 -->
<g id="edge30" class="edge">
<title>Node17&#45;&gt;Node2</title>
<path fill="none" stroke="midnightblue" d="M784.99,-235.2C779.59,-221.89 771.85,-196.35 783,-179 817.27,-125.65 887.49,-100.13 939.63,-88.15"/>
<polygon fill="midnightblue" stroke="midnightblue" points="940.44,-91.56 949.47,-86 938.95,-84.72 940.44,-91.56"/>
</g>
<!-- Node17&#45;&gt;Node12 -->
<g id="edge31" class="edge">
<title>Node17&#45;&gt;Node12</title>
<path fill="none" stroke="midnightblue" d="M760,-235.44C728.82,-226.24 679.07,-211.56 644.59,-201.39"/>
<polygon fill="midnightblue" stroke="midnightblue" points="645.44,-197.99 634.86,-198.52 643.46,-204.7 645.44,-197.99"/>
</g>
<!-- Node18 -->
<g id="node18" class="node">
<title>Node18</title>
<g id="a_node18"><a xlink:title=" ">
<polygon fill="white" stroke="#bfbfbf" points="856.5,-179.5 856.5,-198.5 897.5,-198.5 897.5,-179.5 856.5,-179.5"/>
<text text-anchor="middle" x="877" y="-186.5" font-family="'Souce Sans Pro', Roboto, FreeSans, sans-serif" font-size="10.00">ctime</text>
</a>
</g>
</g>
<!-- Node17&#45;&gt;Node18 -->
<g id="edge32" class="edge">
<title>Node17&#45;&gt;Node18</title>
<path fill="none" stroke="midnightblue" d="M803.14,-235.32C816.87,-226.9 837.94,-213.97 854.06,-204.07"/>
<polygon fill="midnightblue" stroke="midnightblue" points="856.2,-206.87 862.9,-198.65 852.54,-200.9 856.2,-206.87"/>
</g>
<!-- Node19 -->
<g id="node19" class="node">
<title>Node19</title>
<g id="a_node19"><a xlink:title=" ">
<polygon fill="white" stroke="#bfbfbf" points="791.5,-179.5 791.5,-198.5 838.5,-198.5 838.5,-179.5 791.5,-179.5"/>
<text text-anchor="middle" x="815" y="-186.5" font-family="'Souce Sans Pro', Roboto, FreeSans, sans-serif" font-size="10.00">chrono</text>
</a>
</g>
</g>
<!-- Node17&#45;&gt;Node19 -->
<g id="edge33" class="edge">
<title>Node17&#45;&gt;Node19</title>
<path fill="none" stroke="midnightblue" d="M793.29,-235.08C796.85,-227.69 802.02,-216.95 806.42,-207.81"/>
<polygon fill="midnightblue" stroke="midnightblue" points="809.6,-209.28 810.79,-198.75 803.29,-206.24 809.6,-209.28"/>
</g>
<!-- Node21&#45;&gt;Node2 -->
<g id="edge39" class="edge">
<title>Node21&#45;&gt;Node2</title>
<path fill="none" stroke="midnightblue" d="M1403.15,-235.33C1393.7,-226.71 1379.37,-212.8 1369,-199 1345.68,-167.98 1358.09,-144.83 1326,-123 1285.27,-95.29 1150.41,-84.45 1068.7,-80.35"/>
<polygon fill="midnightblue" stroke="midnightblue" points="1068.67,-76.85 1058.52,-79.86 1068.34,-83.84 1068.67,-76.85"/>
</g>
<!-- Node22 -->
<g id="node22" class="node">
<title>Node22</title>
<g id="a_node22"><a xlink:href="syncprims_8h.html" target="_top" xlink:title=" ">
<polygon fill="white" stroke="black" points="1135.5,-179.5 1135.5,-198.5 1284.5,-198.5 1284.5,-179.5 1135.5,-179.5"/>
<text text-anchor="middle" x="1210" y="-186.5" font-family="'Souce Sans Pro', Roboto, FreeSans, sans-serif" font-size="10.00">log4cplus/thread/syncprims.h</text>
</a>
</g>
</g>
<!-- Node21&#45;&gt;Node22 -->
<g id="edge40" class="edge">
<title>Node21&#45;&gt;Node22</title>
<path fill="none" stroke="midnightblue" d="M1380.83,-235.44C1345.94,-226.16 1290.11,-211.31 1251.83,-201.13"/>
<polygon fill="midnightblue" stroke="midnightblue" points="1252.58,-197.7 1242.02,-198.52 1250.78,-204.47 1252.58,-197.7"/>
</g>
<!-- Node25 -->
<g id="node25" class="node">
<title>Node25</title>
<g id="a_node25"><a xlink:title=" ">
<polygon fill="white" stroke="#bfbfbf" points="1446.5,-179.5 1446.5,-198.5 1505.5,-198.5 1505.5,-179.5 1446.5,-179.5"/>
<text text-anchor="middle" x="1476" y="-186.5" font-family="'Souce Sans Pro', Roboto, FreeSans, sans-serif" font-size="10.00">algorithm</text>
</a>
</g>
</g>
<!-- Node21&#45;&gt;Node25 -->
<g id="edge44" class="edge">
<title>Node21&#45;&gt;Node25</title>
<path fill="none" stroke="midnightblue" d="M1423.12,-235.32C1432.53,-227.26 1446.74,-215.08 1458.07,-205.37"/>
<polygon fill="midnightblue" stroke="midnightblue" points="1460.38,-208 1465.69,-198.83 1455.82,-202.68 1460.38,-208"/>
</g>
<!-- Node26 -->
<g id="node26" class="node">
<title>Node26</title>
<g id="a_node26"><a xlink:title=" ">
<polygon fill="white" stroke="#bfbfbf" points="1378,-179.5 1378,-198.5 1428,-198.5 1428,-179.5 1378,-179.5"/>
<text text-anchor="middle" x="1403" y="-186.5" font-family="'Souce Sans Pro', Roboto, FreeSans, sans-serif" font-size="10.00">cassert</text>
</a>
</g>
</g>
<!-- Node21&#45;&gt;Node26 -->
<g id="edge45" class="edge">
<title>Node21&#45;&gt;Node26</title>
<path fill="none" stroke="midnightblue" d="M1411.35,-235.08C1410.02,-227.93 1408.12,-217.64 1406.46,-208.69"/>
<polygon fill="midnightblue" stroke="midnightblue" points="1409.88,-207.95 1404.62,-198.75 1403,-209.22 1409.88,-207.95"/>
</g>
<!-- Node21&#45;&gt;Node27 -->
<g id="edge46" class="edge">
<title>Node21&#45;&gt;Node27</title>
<path fill="none" stroke="midnightblue" d="M1434.23,-235.44C1456.38,-226.52 1491.32,-212.44 1516.44,-202.32"/>
<polygon fill="midnightblue" stroke="midnightblue" points="1517.9,-205.5 1525.87,-198.52 1515.28,-199.01 1517.9,-205.5"/>
</g>
<!-- Node22&#45;&gt;Node2 -->
<g id="edge41" class="edge">
<title>Node22&#45;&gt;Node2</title>
<path fill="none" stroke="midnightblue" d="M1203.28,-179.1C1192.33,-165.2 1169.31,-138.33 1144,-123 1117.55,-106.99 1084.78,-96.05 1057.61,-88.97"/>
<polygon fill="midnightblue" stroke="midnightblue" points="1058.42,-85.57 1047.87,-86.54 1056.72,-92.36 1058.42,-85.57"/>
</g>
<!-- Node22&#45;&gt;Node23 -->
<g id="edge42" class="edge">
<title>Node22&#45;&gt;Node23</title>
<path fill="none" stroke="midnightblue" d="M1194.42,-179.32C1179,-170.74 1155.19,-157.49 1137.29,-147.52"/>
<polygon fill="midnightblue" stroke="midnightblue" points="1138.99,-144.46 1128.55,-142.65 1135.58,-150.58 1138.99,-144.46"/>
</g>
<!-- Node22&#45;&gt;Node24 -->
<g id="edge43" class="edge">
<title>Node22&#45;&gt;Node24</title>
<path fill="none" stroke="midnightblue" d="M1219.48,-179.32C1228.2,-171.34 1241.34,-159.31 1251.9,-149.65"/>
<polygon fill="midnightblue" stroke="midnightblue" points="1254.33,-152.17 1259.35,-142.83 1249.61,-147 1254.33,-152.17"/>
</g>
<!-- Node28&#45;&gt;Node2 -->
<g id="edge48" class="edge">
<title>Node28&#45;&gt;Node2</title>
<path fill="none" stroke="midnightblue" d="M1051.39,-291.21C1042.18,-282.92 1029.35,-269.6 1023,-255 999.61,-201.26 1000.45,-130.01 1002.45,-96.68"/>
<polygon fill="midnightblue" stroke="midnightblue" points="1005.95,-96.79 1003.17,-86.56 998.97,-96.29 1005.95,-96.79"/>
</g>
<!-- Node28&#45;&gt;Node10 -->
<g id="edge51" class="edge">
<title>Node28&#45;&gt;Node10</title>
<path fill="none" stroke="midnightblue" d="M1008.44,-294.94C902.2,-284.91 665.29,-262.55 552.28,-251.88"/>
<polygon fill="midnightblue" stroke="midnightblue" points="552.36,-248.37 542.07,-250.92 551.7,-255.34 552.36,-248.37"/>
</g>
<!-- Node28&#45;&gt;Node21 -->
<g id="edge50" class="edge">
<title>Node28&#45;&gt;Node21</title>
<path fill="none" stroke="midnightblue" d="M1115.69,-291.74C1177.98,-282.16 1280.66,-266.36 1347.57,-256.07"/>
<polygon fill="midnightblue" stroke="midnightblue" points="1348.22,-259.51 1357.58,-254.53 1347.16,-252.59 1348.22,-259.51"/>
</g>
<!-- Node29 -->
<g id="node29" class="node">
<title>Node29</title>
<g id="a_node29"><a xlink:title=" ">
<polygon fill="white" stroke="#bfbfbf" points="1032,-235.5 1032,-254.5 1092,-254.5 1092,-235.5 1032,-235.5"/>
<text text-anchor="middle" x="1062" y="-242.5" font-family="'Souce Sans Pro', Roboto, FreeSans, sans-serif" font-size="10.00">functional</text>
</a>
</g>
</g>
<!-- Node28&#45;&gt;Node29 -->
<g id="edge49" class="edge">
<title>Node28&#45;&gt;Node29</title>
<path fill="none" stroke="midnightblue" d="M1062,-291.08C1062,-284.01 1062,-273.86 1062,-264.99"/>
<polygon fill="midnightblue" stroke="midnightblue" points="1065.5,-264.75 1062,-254.75 1058.5,-264.75 1065.5,-264.75"/>
</g>
<!-- Node30&#45;&gt;Node2 -->
<g id="edge53" class="edge">
<title>Node30&#45;&gt;Node2</title>
<path fill="none" stroke="midnightblue" d="M1157.12,-235.38C1138.75,-227.7 1112.97,-215.19 1094,-199 1058.14,-168.39 1028.19,-120.96 1013.59,-95.53"/>
<polygon fill="midnightblue" stroke="midnightblue" points="1016.55,-93.66 1008.6,-86.66 1010.45,-97.09 1016.55,-93.66"/>
</g>
<!-- Node30&#45;&gt;Node12 -->
<g id="edge54" class="edge">
<title>Node30&#45;&gt;Node12</title>
<path fill="none" stroke="midnightblue" d="M1109.8,-235.92C1106.83,-235.6 1103.88,-235.3 1101,-235 944,-218.92 758.68,-202.85 665.64,-194.98"/>
<polygon fill="midnightblue" stroke="midnightblue" points="665.83,-191.48 655.57,-194.13 665.24,-198.46 665.83,-191.48"/>
</g>
<!-- Node30&#45;&gt;Node22 -->
<g id="edge55" class="edge">
<title>Node30&#45;&gt;Node22</title>
<path fill="none" stroke="midnightblue" d="M1184.95,-235.08C1189.1,-227.61 1195.15,-216.72 1200.27,-207.52"/>
<polygon fill="midnightblue" stroke="midnightblue" points="1203.34,-209.19 1205.14,-198.75 1197.22,-205.79 1203.34,-209.19"/>
</g>
<!-- Node31&#45;&gt;Node2 -->
<g id="edge64" class="edge">
<title>Node31&#45;&gt;Node2</title>
<path fill="none" stroke="midnightblue" d="M1650.36,-235.19C1650.77,-212.38 1648.36,-151.24 1613,-123 1571.24,-89.65 1217.37,-80.92 1069.02,-78.71"/>
<polygon fill="midnightblue" stroke="midnightblue" points="1068.75,-75.21 1058.71,-78.57 1068.65,-82.21 1068.75,-75.21"/>
</g>
<!-- Node31&#45;&gt;Node12 -->
<g id="edge65" class="edge">
<title>Node31&#45;&gt;Node12</title>
<path fill="none" stroke="midnightblue" d="M1575.99,-239.72C1549.21,-238.2 1518.75,-236.49 1491,-235 1488.42,-234.86 864.37,-203.13 665.87,-193.04"/>
<polygon fill="midnightblue" stroke="midnightblue" points="665.8,-189.54 655.63,-192.52 665.44,-196.53 665.8,-189.54"/>
</g>
<!-- Node32&#45;&gt;Node2 -->
<g id="edge68" class="edge">
<title>Node32&#45;&gt;Node2</title>
<path fill="none" stroke="midnightblue" d="M77.63,-235.46C98.27,-208.96 160.84,-129.52 174,-123 241.82,-89.41 755.86,-80.65 939.25,-78.59"/>
<polygon fill="midnightblue" stroke="midnightblue" points="939.33,-82.09 949.29,-78.48 939.25,-75.09 939.33,-82.09"/>
</g>
<!-- Node32&#45;&gt;Node6 -->
<g id="edge69" class="edge">
<title>Node32&#45;&gt;Node6</title>
<path fill="none" stroke="midnightblue" d="M85.35,-235.35C99.84,-226.51 122.77,-212.25 142,-199 165.8,-182.6 192.29,-162.54 209.71,-149.08"/>
<polygon fill="midnightblue" stroke="midnightblue" points="212.19,-151.59 217.94,-142.69 207.89,-146.06 212.19,-151.59"/>
</g>
<!-- Node32&#45;&gt;Node11 -->
<g id="edge71" class="edge">
<title>Node32&#45;&gt;Node11</title>
<path fill="none" stroke="midnightblue" d="M118.69,-235.44C180.55,-224.35 286.78,-205.29 339.85,-195.77"/>
<polygon fill="midnightblue" stroke="midnightblue" points="340.51,-199.21 349.73,-194 339.27,-192.32 340.51,-199.21"/>
</g>
<!-- Node33 -->
<g id="node33" class="node">
<title>Node33</title>
<g id="a_node33"><a xlink:title=" ">
<polygon fill="white" stroke="#bfbfbf" points="46,-179.5 46,-198.5 96,-198.5 96,-179.5 46,-179.5"/>
<text text-anchor="middle" x="71" y="-186.5" font-family="'Souce Sans Pro', Roboto, FreeSans, sans-serif" font-size="10.00">cstdarg</text>
</a>
</g>
</g>
<!-- Node32&#45;&gt;Node33 -->
<g id="edge70" class="edge">
<title>Node32&#45;&gt;Node33</title>
<path fill="none" stroke="midnightblue" d="M71,-235.08C71,-228.01 71,-217.86 71,-208.99"/>
<polygon fill="midnightblue" stroke="midnightblue" points="74.5,-208.75 71,-198.75 67.5,-208.75 74.5,-208.75"/>
</g>
<!-- Node34&#45;&gt;Node2 -->
<g id="edge73" class="edge">
<title>Node34&#45;&gt;Node2</title>
<path fill="none" stroke="midnightblue" d="M1731.18,-515.46C1750.37,-498.35 1790,-457.73 1790,-414 1790,-414 1790,-414 1790,-188 1790,-135.73 1741.52,-139.71 1692,-123 1577.78,-84.45 1217.4,-78.71 1068.92,-78.01"/>
<polygon fill="midnightblue" stroke="midnightblue" points="1068.61,-74.51 1058.6,-77.97 1068.59,-81.51 1068.61,-74.51"/>
</g>
<!-- Node34&#45;&gt;Node9 -->
<g id="edge74" class="edge">
<title>Node34&#45;&gt;Node9</title>
<path fill="none" stroke="midnightblue" d="M1660.97,-515.92C1585.01,-505.69 1455,-488.18 1379.36,-477.99"/>
<polygon fill="midnightblue" stroke="midnightblue" points="1379.44,-474.47 1369.06,-476.61 1378.51,-481.41 1379.44,-474.47"/>
</g>
</g>
</svg>
