<?xml version="1.0" encoding="UTF-8" standalone="no"?>
<!DOCTYPE svg PUBLIC "-//W3C//DTD SVG 1.1//EN"
 "http://www.w3.org/Graphics/SVG/1.1/DTD/svg11.dtd">
<!-- Generated by graphviz version 2.43.0 (0)
 -->
<!-- Title: loggerimpl.h Pages: 1 -->
<svg width="1825pt" height="543pt"
 viewBox="0.00 0.00 1824.79 543.00" xmlns="http://www.w3.org/2000/svg" xmlns:xlink="http://www.w3.org/1999/xlink">
<g id="graph0" class="graph" transform="scale(1 1) rotate(0) translate(4 539)">
<title>loggerimpl.h</title>
<polygon fill="white" stroke="transparent" points="-4,4 -4,-539 1820.79,-539 1820.79,4 -4,4"/>
<!-- Node1 -->
<g id="node1" class="node">
<title>Node1</title>
<g id="a_node1"><a xlink:title=" ">
<polygon fill="#bfbfbf" stroke="black" points="245.29,-515.5 245.29,-534.5 316.29,-534.5 316.29,-515.5 245.29,-515.5"/>
<text text-anchor="middle" x="280.79" y="-522.5" font-family="'Souce Sans Pro', Roboto, FreeSans, sans-serif" font-size="10.00">loggerimpl.h</text>
</a>
</g>
</g>
<!-- Node2 -->
<g id="node2" class="node">
<title>Node2</title>
<g id="a_node2"><a xlink:href="config_8hxx.html" target="_top" xlink:title=" ">
<polygon fill="white" stroke="black" points="849.29,-67.5 849.29,-86.5 958.29,-86.5 958.29,-67.5 849.29,-67.5"/>
<text text-anchor="middle" x="903.79" y="-74.5" font-family="'Souce Sans Pro', Roboto, FreeSans, sans-serif" font-size="10.00">log4cplus/config.hxx</text>
</a>
</g>
</g>
<!-- Node1&#45;&gt;Node2 -->
<g id="edge1" class="edge">
<title>Node1&#45;&gt;Node2</title>
<path fill="none" stroke="midnightblue" d="M316.36,-523.43C490.26,-520.54 1252.17,-506.49 1487.79,-479 1635.84,-461.73 1816.79,-563.05 1816.79,-414 1816.79,-414 1816.79,-414 1816.79,-188 1816.79,-113.71 1735.14,-139.89 1662.79,-123 1531.58,-92.37 1126.99,-81.98 968.46,-79.02"/>
<polygon fill="midnightblue" stroke="midnightblue" points="968.44,-75.52 958.38,-78.84 968.31,-82.52 968.44,-75.52"/>
</g>
<!-- Node5 -->
<g id="node5" class="node">
<title>Node5</title>
<g id="a_node5"><a xlink:href="tstring_8h.html" target="_top" xlink:title=" ">
<polygon fill="white" stroke="black" points="473.29,-179.5 473.29,-198.5 572.29,-198.5 572.29,-179.5 473.29,-179.5"/>
<text text-anchor="middle" x="522.79" y="-186.5" font-family="'Souce Sans Pro', Roboto, FreeSans, sans-serif" font-size="10.00">log4cplus/tstring.h</text>
</a>
</g>
</g>
<!-- Node1&#45;&gt;Node5 -->
<g id="edge4" class="edge">
<title>Node1&#45;&gt;Node5</title>
<path fill="none" stroke="midnightblue" d="M278.92,-515.47C270.75,-475.63 242.4,-306.77 331.79,-235 368.77,-205.31 422.01,-194.6 462.89,-191.01"/>
<polygon fill="midnightblue" stroke="midnightblue" points="463.29,-194.49 473,-190.25 462.76,-187.51 463.29,-194.49"/>
</g>
<!-- Node9 -->
<g id="node9" class="node">
<title>Node9</title>
<g id="a_node9"><a xlink:href="appenderattachableimpl_8h.html" target="_top" xlink:title=" ">
<polygon fill="white" stroke="black" points="384.79,-459.5 384.79,-478.5 596.79,-478.5 596.79,-459.5 384.79,-459.5"/>
<text text-anchor="middle" x="490.79" y="-466.5" font-family="'Souce Sans Pro', Roboto, FreeSans, sans-serif" font-size="10.00">log4cplus/helpers/appenderattachableimpl.h</text>
</a>
</g>
</g>
<!-- Node1&#45;&gt;Node9 -->
<g id="edge10" class="edge">
<title>Node1&#45;&gt;Node9</title>
<path fill="none" stroke="midnightblue" d="M314.07,-515.44C350.24,-506.14 408.17,-491.25 447.77,-481.06"/>
<polygon fill="midnightblue" stroke="midnightblue" points="448.86,-484.4 457.67,-478.52 447.12,-477.62 448.86,-484.4"/>
</g>
<!-- Node10 -->
<g id="node10" class="node">
<title>Node10</title>
<g id="a_node10"><a xlink:href="pointer_8h.html" target="_top" xlink:title=" ">
<polygon fill="white" stroke="black" points="1412.79,-235.5 1412.79,-254.5 1550.79,-254.5 1550.79,-235.5 1412.79,-235.5"/>
<text text-anchor="middle" x="1481.79" y="-242.5" font-family="'Souce Sans Pro', Roboto, FreeSans, sans-serif" font-size="10.00">log4cplus/helpers/pointer.h</text>
</a>
</g>
</g>
<!-- Node1&#45;&gt;Node10 -->
<g id="edge66" class="edge">
<title>Node1&#45;&gt;Node10</title>
<path fill="none" stroke="midnightblue" d="M316.52,-523.23C540.42,-518.2 1740.79,-487.75 1740.79,-414 1740.79,-414 1740.79,-414 1740.79,-356 1740.79,-276.87 1637.1,-253.84 1560.94,-247.59"/>
<polygon fill="midnightblue" stroke="midnightblue" points="1561.09,-244.09 1550.86,-246.85 1560.58,-251.08 1561.09,-244.09"/>
</g>
<!-- Node21 -->
<g id="node21" class="node">
<title>Node21</title>
<g id="a_node21"><a xlink:title=" ">
<polygon fill="white" stroke="#bfbfbf" points="220.79,-179.5 220.79,-198.5 264.79,-198.5 264.79,-179.5 220.79,-179.5"/>
<text text-anchor="middle" x="242.79" y="-186.5" font-family="'Souce Sans Pro', Roboto, FreeSans, sans-serif" font-size="10.00">vector</text>
</a>
</g>
</g>
<!-- Node1&#45;&gt;Node21 -->
<g id="edge71" class="edge">
<title>Node1&#45;&gt;Node21</title>
<path fill="none" stroke="midnightblue" d="M245.05,-517.74C169.56,-503.52 0.79,-465.9 0.79,-414 0.79,-414 0.79,-414 0.79,-300 0.79,-269.9 -2.38,-255.36 19.79,-235 47.27,-209.77 155.62,-197.27 210.53,-192.45"/>
<polygon fill="midnightblue" stroke="midnightblue" points="211.09,-195.92 220.76,-191.59 210.5,-188.94 211.09,-195.92"/>
</g>
<!-- Node27 -->
<g id="node27" class="node">
<title>Node27</title>
<g id="a_node27"><a xlink:title=" ">
<polygon fill="white" stroke="#bfbfbf" points="422.79,-235.5 422.79,-254.5 476.79,-254.5 476.79,-235.5 422.79,-235.5"/>
<text text-anchor="middle" x="449.79" y="-242.5" font-family="'Souce Sans Pro', Roboto, FreeSans, sans-serif" font-size="10.00">memory</text>
</a>
</g>
</g>
<!-- Node1&#45;&gt;Node27 -->
<g id="edge70" class="edge">
<title>Node1&#45;&gt;Node27</title>
<path fill="none" stroke="midnightblue" d="M284.29,-515.22C292.52,-494.9 314.2,-443.27 337.79,-403 369.25,-349.3 414.08,-290.81 436.27,-262.8"/>
<polygon fill="midnightblue" stroke="midnightblue" points="439.13,-264.82 442.63,-254.82 433.66,-260.45 439.13,-264.82"/>
</g>
<!-- Node31 -->
<g id="node31" class="node">
<title>Node31</title>
<g id="a_node31"><a xlink:href="loggerfactory_8h.html" target="_top" xlink:title=" ">
<polygon fill="white" stroke="black" points="28.79,-235.5 28.79,-254.5 176.79,-254.5 176.79,-235.5 28.79,-235.5"/>
<text text-anchor="middle" x="102.79" y="-242.5" font-family="'Souce Sans Pro', Roboto, FreeSans, sans-serif" font-size="10.00">log4cplus/spi/loggerfactory.h</text>
</a>
</g>
</g>
<!-- Node1&#45;&gt;Node31 -->
<g id="edge67" class="edge">
<title>Node1&#45;&gt;Node31</title>
<path fill="none" stroke="midnightblue" d="M248.75,-515.44C205.77,-501.78 134.79,-470.65 134.79,-414 134.79,-414 134.79,-414 134.79,-356 134.79,-322.33 120.8,-285.08 111.32,-263.72"/>
<polygon fill="midnightblue" stroke="midnightblue" points="114.47,-262.21 107.11,-254.59 108.12,-265.14 114.47,-262.21"/>
</g>
<!-- Node3 -->
<g id="node3" class="node">
<title>Node3</title>
<g id="a_node3"><a xlink:href="win32_8h.html" target="_top" xlink:title=" ">
<polygon fill="white" stroke="black" points="766.79,-6 766.79,-25 894.79,-25 894.79,-6 766.79,-6"/>
<text text-anchor="middle" x="830.79" y="-13" font-family="'Souce Sans Pro', Roboto, FreeSans, sans-serif" font-size="10.00">log4cplus/config/win32.h</text>
</a>
</g>
</g>
<!-- Node2&#45;&gt;Node3 -->
<g id="edge2" class="edge">
<title>Node2&#45;&gt;Node3</title>
<path fill="none" stroke="midnightblue" d="M893.33,-67.48C881.84,-58.11 863.16,-42.88 849.21,-31.51"/>
<polygon fill="midnightblue" stroke="midnightblue" points="851.19,-28.61 841.23,-25.01 846.77,-34.04 851.19,-28.61"/>
</g>
<!-- Node4 -->
<g id="node4" class="node">
<title>Node4</title>
<g id="a_node4"><a xlink:href="thread-config_8h.html" target="_top" xlink:title=" ">
<polygon fill="white" stroke="black" points="912.79,-0.5 912.79,-30.5 1040.79,-30.5 1040.79,-0.5 912.79,-0.5"/>
<text text-anchor="start" x="920.79" y="-18.5" font-family="'Souce Sans Pro', Roboto, FreeSans, sans-serif" font-size="10.00">log4cplus/helpers/thread</text>
<text text-anchor="middle" x="976.79" y="-7.5" font-family="'Souce Sans Pro', Roboto, FreeSans, sans-serif" font-size="10.00">&#45;config.h</text>
</a>
</g>
</g>
<!-- Node2&#45;&gt;Node4 -->
<g id="edge3" class="edge">
<title>Node2&#45;&gt;Node4</title>
<path fill="none" stroke="midnightblue" d="M914.25,-67.48C923.95,-59.57 938.78,-47.48 951.56,-37.07"/>
<polygon fill="midnightblue" stroke="midnightblue" points="954.05,-39.55 959.59,-30.52 949.63,-34.13 954.05,-39.55"/>
</g>
<!-- Node5&#45;&gt;Node2 -->
<g id="edge5" class="edge">
<title>Node5&#45;&gt;Node2</title>
<path fill="none" stroke="midnightblue" d="M517.55,-179.19C510.09,-165.4 498.81,-138.68 512.79,-123 534.08,-99.12 733.45,-86.1 838.97,-80.83"/>
<polygon fill="midnightblue" stroke="midnightblue" points="839.37,-84.31 849.19,-80.33 839.03,-77.32 839.37,-84.31"/>
</g>
<!-- Node6 -->
<g id="node6" class="node">
<title>Node6</title>
<g id="a_node6"><a xlink:title=" ">
<polygon fill="white" stroke="#bfbfbf" points="521.29,-123.5 521.29,-142.5 562.29,-142.5 562.29,-123.5 521.29,-123.5"/>
<text text-anchor="middle" x="541.79" y="-130.5" font-family="'Souce Sans Pro', Roboto, FreeSans, sans-serif" font-size="10.00">string</text>
</a>
</g>
</g>
<!-- Node5&#45;&gt;Node6 -->
<g id="edge6" class="edge">
<title>Node5&#45;&gt;Node6</title>
<path fill="none" stroke="midnightblue" d="M525.93,-179.08C528.48,-171.85 532.15,-161.41 535.32,-152.4"/>
<polygon fill="midnightblue" stroke="midnightblue" points="538.7,-153.35 538.71,-142.75 532.09,-151.02 538.7,-153.35"/>
</g>
<!-- Node7 -->
<g id="node7" class="node">
<title>Node7</title>
<g id="a_node7"><a xlink:href="tchar_8h.html" target="_top" xlink:title=" ">
<polygon fill="white" stroke="black" points="580.29,-123.5 580.29,-142.5 673.29,-142.5 673.29,-123.5 580.29,-123.5"/>
<text text-anchor="middle" x="626.79" y="-130.5" font-family="'Souce Sans Pro', Roboto, FreeSans, sans-serif" font-size="10.00">log4cplus/tchar.h</text>
</a>
</g>
</g>
<!-- Node5&#45;&gt;Node7 -->
<g id="edge7" class="edge">
<title>Node5&#45;&gt;Node7</title>
<path fill="none" stroke="midnightblue" d="M539.5,-179.32C556.1,-170.7 581.79,-157.36 601.01,-147.39"/>
<polygon fill="midnightblue" stroke="midnightblue" points="602.86,-150.37 610.12,-142.65 599.64,-144.16 602.86,-150.37"/>
</g>
<!-- Node7&#45;&gt;Node2 -->
<g id="edge8" class="edge">
<title>Node7&#45;&gt;Node2</title>
<path fill="none" stroke="midnightblue" d="M670.68,-123.44C719.31,-113.96 797.74,-98.67 850.02,-88.48"/>
<polygon fill="midnightblue" stroke="midnightblue" points="850.96,-91.87 860.11,-86.52 849.62,-84.99 850.96,-91.87"/>
</g>
<!-- Node8 -->
<g id="node8" class="node">
<title>Node8</title>
<g id="a_node8"><a xlink:title=" ">
<polygon fill="white" stroke="#bfbfbf" points="601.29,-67.5 601.29,-86.5 652.29,-86.5 652.29,-67.5 601.29,-67.5"/>
<text text-anchor="middle" x="626.79" y="-74.5" font-family="'Souce Sans Pro', Roboto, FreeSans, sans-serif" font-size="10.00">cstddef</text>
</a>
</g>
</g>
<!-- Node7&#45;&gt;Node8 -->
<g id="edge9" class="edge">
<title>Node7&#45;&gt;Node8</title>
<path fill="none" stroke="midnightblue" d="M626.79,-123.08C626.79,-116.01 626.79,-105.86 626.79,-96.99"/>
<polygon fill="midnightblue" stroke="midnightblue" points="630.29,-96.75 626.79,-86.75 623.29,-96.75 630.29,-96.75"/>
</g>
<!-- Node9&#45;&gt;Node2 -->
<g id="edge11" class="edge">
<title>Node9&#45;&gt;Node2</title>
<path fill="none" stroke="midnightblue" d="M597.01,-465.88C836.41,-460.72 1403.82,-446.2 1487.79,-423 1558.02,-403.6 1778.79,-248.86 1778.79,-246 1778.79,-246 1778.79,-246 1778.79,-188 1778.79,-106.36 1171.39,-84.4 968.73,-79.35"/>
<polygon fill="midnightblue" stroke="midnightblue" points="968.61,-75.84 958.53,-79.1 968.44,-82.84 968.61,-75.84"/>
</g>
<!-- Node9&#45;&gt;Node5 -->
<g id="edge12" class="edge">
<title>Node9&#45;&gt;Node5</title>
<path fill="none" stroke="midnightblue" d="M409,-459.48C383.33,-453.07 356.77,-442.01 337.79,-423 316.53,-401.7 318.79,-388.1 318.79,-358 318.79,-358 318.79,-358 318.79,-300 318.79,-233.91 402.77,-207.35 462.96,-196.79"/>
<polygon fill="midnightblue" stroke="midnightblue" points="463.85,-200.19 473.15,-195.12 462.71,-193.29 463.85,-200.19"/>
</g>
<!-- Node9&#45;&gt;Node10 -->
<g id="edge13" class="edge">
<title>Node9&#45;&gt;Node10</title>
<path fill="none" stroke="midnightblue" d="M596.98,-460.5C748.55,-448.41 1035.02,-420.35 1273.79,-367 1353.08,-349.28 1385.66,-363.34 1447.79,-311 1462.07,-298.97 1471.15,-279.4 1476.3,-264.87"/>
<polygon fill="midnightblue" stroke="midnightblue" points="1479.76,-265.54 1479.49,-254.95 1473.09,-263.4 1479.76,-265.54"/>
</g>
<!-- Node11 -->
<g id="node11" class="node">
<title>Node11</title>
<g id="a_node11"><a xlink:href="syncprims_8h.html" target="_top" xlink:title=" ">
<polygon fill="white" stroke="black" points="1418.29,-179.5 1418.29,-198.5 1567.29,-198.5 1567.29,-179.5 1418.29,-179.5"/>
<text text-anchor="middle" x="1492.79" y="-186.5" font-family="'Souce Sans Pro', Roboto, FreeSans, sans-serif" font-size="10.00">log4cplus/thread/syncprims.h</text>
</a>
</g>
</g>
<!-- Node9&#45;&gt;Node11 -->
<g id="edge63" class="edge">
<title>Node9&#45;&gt;Node11</title>
<path fill="none" stroke="midnightblue" d="M597.1,-468.25C870.86,-467.48 1578.79,-456.01 1578.79,-358 1578.79,-358 1578.79,-358 1578.79,-300 1578.79,-269.9 1577.57,-259.29 1559.79,-235 1549.97,-221.59 1534.87,-210.94 1521.48,-203.38"/>
<polygon fill="midnightblue" stroke="midnightblue" points="1523.05,-200.25 1512.58,-198.64 1519.76,-206.43 1523.05,-200.25"/>
</g>
<!-- Node17 -->
<g id="node17" class="node">
<title>Node17</title>
<g id="a_node17"><a xlink:href="appenderattachable_8h.html" target="_top" xlink:title=" ">
<polygon fill="white" stroke="black" points="346.79,-403.5 346.79,-422.5 520.79,-422.5 520.79,-403.5 346.79,-403.5"/>
<text text-anchor="middle" x="433.79" y="-410.5" font-family="'Souce Sans Pro', Roboto, FreeSans, sans-serif" font-size="10.00">log4cplus/spi/appenderattachable.h</text>
</a>
</g>
</g>
<!-- Node9&#45;&gt;Node17 -->
<g id="edge22" class="edge">
<title>Node9&#45;&gt;Node17</title>
<path fill="none" stroke="midnightblue" d="M481.63,-459.32C473.29,-451.42 460.76,-439.55 450.62,-429.94"/>
<polygon fill="midnightblue" stroke="midnightblue" points="452.78,-427.17 443.12,-422.83 447.97,-432.25 452.78,-427.17"/>
</g>
<!-- Node9&#45;&gt;Node21 -->
<g id="edge65" class="edge">
<title>Node9&#45;&gt;Node21</title>
<path fill="none" stroke="midnightblue" d="M391.78,-459.48C365.36,-452.89 338.67,-441.73 318.79,-423 256.25,-364.07 245.09,-253.11 243.16,-208.89"/>
<polygon fill="midnightblue" stroke="midnightblue" points="246.65,-208.6 242.84,-198.72 239.66,-208.83 246.65,-208.6"/>
</g>
<!-- Node9&#45;&gt;Node27 -->
<g id="edge64" class="edge">
<title>Node9&#45;&gt;Node27</title>
<path fill="none" stroke="midnightblue" d="M501.78,-459.37C511.25,-451.17 524.23,-437.92 529.79,-423 532.9,-414.67 531.87,-411.64 529.79,-403 516.63,-348.19 480.97,-290.94 462.01,-263.16"/>
<polygon fill="midnightblue" stroke="midnightblue" points="464.66,-260.83 456.07,-254.62 458.91,-264.82 464.66,-260.83"/>
</g>
<!-- Node10&#45;&gt;Node2 -->
<g id="edge14" class="edge">
<title>Node10&#45;&gt;Node2</title>
<path fill="none" stroke="midnightblue" d="M1522.84,-235.38C1542.75,-228.92 1564.89,-217.81 1576.79,-199 1614.35,-139.65 1551.66,-145.57 1477.79,-123 1384.25,-94.42 1098.29,-83.24 968.76,-79.56"/>
<polygon fill="midnightblue" stroke="midnightblue" points="968.68,-76.05 958.59,-79.27 968.49,-83.05 968.68,-76.05"/>
</g>
<!-- Node10&#45;&gt;Node11 -->
<g id="edge15" class="edge">
<title>Node10&#45;&gt;Node11</title>
<path fill="none" stroke="midnightblue" d="M1483.61,-235.08C1485.07,-227.93 1487.16,-217.64 1488.99,-208.69"/>
<polygon fill="midnightblue" stroke="midnightblue" points="1492.44,-209.25 1491.01,-198.75 1485.58,-207.85 1492.44,-209.25"/>
</g>
<!-- Node14 -->
<g id="node14" class="node">
<title>Node14</title>
<g id="a_node14"><a xlink:title=" ">
<polygon fill="white" stroke="#bfbfbf" points="1691.29,-179.5 1691.29,-198.5 1750.29,-198.5 1750.29,-179.5 1691.29,-179.5"/>
<text text-anchor="middle" x="1720.79" y="-186.5" font-family="'Souce Sans Pro', Roboto, FreeSans, sans-serif" font-size="10.00">algorithm</text>
</a>
</g>
</g>
<!-- Node10&#45;&gt;Node14 -->
<g id="edge19" class="edge">
<title>Node10&#45;&gt;Node14</title>
<path fill="none" stroke="midnightblue" d="M1520.15,-235.44C1558.37,-226.89 1619.02,-213.28 1681.03,-199.17"/>
<polygon fill="midnightblue" stroke="midnightblue" points="1682.01,-202.53 1690.99,-196.9 1680.46,-195.71 1682.01,-202.53"/>
</g>
<!-- Node15 -->
<g id="node15" class="node">
<title>Node15</title>
<g id="a_node15"><a xlink:title=" ">
<polygon fill="white" stroke="#bfbfbf" points="1622.79,-179.5 1622.79,-198.5 1672.79,-198.5 1672.79,-179.5 1622.79,-179.5"/>
<text text-anchor="middle" x="1647.79" y="-186.5" font-family="'Souce Sans Pro', Roboto, FreeSans, sans-serif" font-size="10.00">cassert</text>
</a>
</g>
</g>
<!-- Node10&#45;&gt;Node15 -->
<g id="edge20" class="edge">
<title>Node10&#45;&gt;Node15</title>
<path fill="none" stroke="midnightblue" d="M1508.1,-235.44C1536.47,-226.21 1581.79,-211.47 1613.07,-201.29"/>
<polygon fill="midnightblue" stroke="midnightblue" points="1614.27,-204.58 1622.7,-198.16 1612.11,-197.93 1614.27,-204.58"/>
</g>
<!-- Node16 -->
<g id="node16" class="node">
<title>Node16</title>
<g id="a_node16"><a xlink:title=" ">
<polygon fill="white" stroke="#bfbfbf" points="1353.29,-179.5 1353.29,-198.5 1400.29,-198.5 1400.29,-179.5 1353.29,-179.5"/>
<text text-anchor="middle" x="1376.79" y="-186.5" font-family="'Souce Sans Pro', Roboto, FreeSans, sans-serif" font-size="10.00">atomic</text>
</a>
</g>
</g>
<!-- Node10&#45;&gt;Node16 -->
<g id="edge21" class="edge">
<title>Node10&#45;&gt;Node16</title>
<path fill="none" stroke="midnightblue" d="M1464.92,-235.32C1448.08,-226.66 1421.99,-213.24 1402.55,-203.25"/>
<polygon fill="midnightblue" stroke="midnightblue" points="1404.11,-200.12 1393.62,-198.65 1400.91,-206.34 1404.11,-200.12"/>
</g>
<!-- Node11&#45;&gt;Node2 -->
<g id="edge16" class="edge">
<title>Node11&#45;&gt;Node2</title>
<path fill="none" stroke="midnightblue" d="M1490.58,-179.45C1486.34,-165.01 1475.59,-136.09 1454.79,-123 1414.51,-97.66 1105.92,-84.57 968.94,-79.96"/>
<polygon fill="midnightblue" stroke="midnightblue" points="968.7,-76.45 958.59,-79.62 968.47,-83.45 968.7,-76.45"/>
</g>
<!-- Node12 -->
<g id="node12" class="node">
<title>Node12</title>
<g id="a_node12"><a xlink:title=" ">
<polygon fill="white" stroke="#bfbfbf" points="1280.79,-123.5 1280.79,-142.5 1324.79,-142.5 1324.79,-123.5 1280.79,-123.5"/>
<text text-anchor="middle" x="1302.79" y="-130.5" font-family="'Souce Sans Pro', Roboto, FreeSans, sans-serif" font-size="10.00">mutex</text>
</a>
</g>
</g>
<!-- Node11&#45;&gt;Node12 -->
<g id="edge17" class="edge">
<title>Node11&#45;&gt;Node12</title>
<path fill="none" stroke="midnightblue" d="M1462.69,-179.44C1427.83,-169.54 1370.65,-153.28 1334.94,-143.14"/>
<polygon fill="midnightblue" stroke="midnightblue" points="1335.62,-139.69 1325.04,-140.32 1333.7,-146.42 1335.62,-139.69"/>
</g>
<!-- Node13 -->
<g id="node13" class="node">
<title>Node13</title>
<g id="a_node13"><a xlink:title=" ">
<polygon fill="white" stroke="#bfbfbf" points="1349.79,-123.5 1349.79,-142.5 1445.79,-142.5 1445.79,-123.5 1349.79,-123.5"/>
<text text-anchor="middle" x="1397.79" y="-130.5" font-family="'Souce Sans Pro', Roboto, FreeSans, sans-serif" font-size="10.00">condition_variable</text>
</a>
</g>
</g>
<!-- Node11&#45;&gt;Node13 -->
<g id="edge18" class="edge">
<title>Node11&#45;&gt;Node13</title>
<path fill="none" stroke="midnightblue" d="M1477.53,-179.32C1462.57,-170.82 1439.54,-157.73 1422.07,-147.8"/>
<polygon fill="midnightblue" stroke="midnightblue" points="1423.44,-144.55 1413.02,-142.65 1419.98,-150.64 1423.44,-144.55"/>
</g>
<!-- Node17&#45;&gt;Node2 -->
<g id="edge23" class="edge">
<title>Node17&#45;&gt;Node2</title>
<path fill="none" stroke="midnightblue" d="M426.41,-403.31C407.14,-379.71 356.79,-311.76 356.79,-246 356.79,-246 356.79,-246 356.79,-188 356.79,-117.38 433.66,-141.6 501.79,-123 617.69,-91.37 758.2,-81.92 838.68,-79.13"/>
<polygon fill="midnightblue" stroke="midnightblue" points="839.27,-82.61 849.15,-78.79 839.04,-75.61 839.27,-82.61"/>
</g>
<!-- Node17&#45;&gt;Node5 -->
<g id="edge60" class="edge">
<title>Node17&#45;&gt;Node5</title>
<path fill="none" stroke="midnightblue" d="M431.36,-403.31C422.73,-371.67 395.05,-263.02 413.79,-235 425.19,-217.97 444.33,-207.38 463.43,-200.79"/>
<polygon fill="midnightblue" stroke="midnightblue" points="464.56,-204.1 473.06,-197.79 462.48,-197.42 464.56,-204.1"/>
</g>
<!-- Node17&#45;&gt;Node10 -->
<g id="edge61" class="edge">
<title>Node17&#45;&gt;Node10</title>
<path fill="none" stroke="midnightblue" d="M520.83,-411.49C660.67,-409.61 943.74,-401.43 1180.79,-367 1289.62,-351.19 1326.74,-366.29 1421.79,-311 1442.24,-299.11 1459.8,-277.99 1470.55,-263.06"/>
<polygon fill="midnightblue" stroke="midnightblue" points="1473.52,-264.92 1476.33,-254.7 1467.76,-260.94 1473.52,-264.92"/>
</g>
<!-- Node18 -->
<g id="node18" class="node">
<title>Node18</title>
<g id="a_node18"><a xlink:href="appender_8h.html" target="_top" xlink:title=" ">
<polygon fill="white" stroke="black" points="1059.79,-347.5 1059.79,-366.5 1171.79,-366.5 1171.79,-347.5 1059.79,-347.5"/>
<text text-anchor="middle" x="1115.79" y="-354.5" font-family="'Souce Sans Pro', Roboto, FreeSans, sans-serif" font-size="10.00">log4cplus/appender.h</text>
</a>
</g>
</g>
<!-- Node17&#45;&gt;Node18 -->
<g id="edge24" class="edge">
<title>Node17&#45;&gt;Node18</title>
<path fill="none" stroke="midnightblue" d="M520.86,-405.11C659,-394.17 925.41,-373.07 1049.35,-363.26"/>
<polygon fill="midnightblue" stroke="midnightblue" points="1049.77,-366.74 1059.46,-362.46 1049.22,-359.76 1049.77,-366.74"/>
</g>
<!-- Node17&#45;&gt;Node21 -->
<g id="edge62" class="edge">
<title>Node17&#45;&gt;Node21</title>
<path fill="none" stroke="midnightblue" d="M422.24,-403.32C411.09,-394.68 393.99,-380.76 380.79,-367 328.75,-312.74 276.76,-239.72 254.31,-207.05"/>
<polygon fill="midnightblue" stroke="midnightblue" points="257.08,-204.89 248.55,-198.61 251.3,-208.84 257.08,-204.89"/>
</g>
<!-- Node18&#45;&gt;Node2 -->
<g id="edge25" class="edge">
<title>Node18&#45;&gt;Node2</title>
<path fill="none" stroke="midnightblue" d="M1139.52,-347.43C1183.13,-330.19 1269.33,-288.38 1243.79,-235 1194.44,-131.86 1052.46,-96.34 968.39,-84.2"/>
<polygon fill="midnightblue" stroke="midnightblue" points="968.82,-80.73 958.44,-82.84 967.87,-87.66 968.82,-80.73"/>
</g>
<!-- Node18&#45;&gt;Node5 -->
<g id="edge45" class="edge">
<title>Node18&#45;&gt;Node5</title>
<path fill="none" stroke="midnightblue" d="M1059.67,-354.43C951.54,-350.79 718.38,-339.78 643.79,-311 604.98,-296.03 597.83,-284.79 568.79,-255 554.66,-240.5 541.64,-221.32 533.09,-207.56"/>
<polygon fill="midnightblue" stroke="midnightblue" points="535.87,-205.39 527.7,-198.64 529.88,-209.01 535.87,-205.39"/>
</g>
<!-- Node18&#45;&gt;Node10 -->
<g id="edge46" class="edge">
<title>Node18&#45;&gt;Node10</title>
<path fill="none" stroke="midnightblue" d="M1171.82,-354.26C1228.86,-350.81 1318.9,-340.65 1390.79,-311 1419.48,-299.17 1447.82,-276.77 1465.06,-261.61"/>
<polygon fill="midnightblue" stroke="midnightblue" points="1467.5,-264.13 1472.59,-254.83 1462.82,-258.93 1467.5,-264.13"/>
</g>
<!-- Node18&#45;&gt;Node12 -->
<g id="edge57" class="edge">
<title>Node18&#45;&gt;Node12</title>
<path fill="none" stroke="midnightblue" d="M1169.17,-347.49C1210.31,-339.81 1262.5,-327.23 1276.79,-311 1316.43,-265.99 1311.06,-188.17 1306.03,-152.65"/>
<polygon fill="midnightblue" stroke="midnightblue" points="1309.48,-152.04 1304.47,-142.7 1302.56,-153.12 1309.48,-152.04"/>
</g>
<!-- Node18&#45;&gt;Node13 -->
<g id="edge59" class="edge">
<title>Node18&#45;&gt;Node13</title>
<path fill="none" stroke="midnightblue" d="M1171.98,-347.79C1217.95,-340.05 1278.29,-327.23 1296.79,-311 1316.9,-293.37 1309.57,-280.1 1318.79,-255 1331.1,-221.49 1324.69,-208.5 1344.79,-179 1352.87,-167.16 1364.85,-156.62 1375.39,-148.72"/>
<polygon fill="midnightblue" stroke="midnightblue" points="1377.66,-151.4 1383.77,-142.74 1373.6,-145.7 1377.66,-151.4"/>
</g>
<!-- Node18&#45;&gt;Node16 -->
<g id="edge58" class="edge">
<title>Node18&#45;&gt;Node16</title>
<path fill="none" stroke="midnightblue" d="M1171.98,-352.46C1233.83,-347.38 1327.85,-335.74 1352.79,-311 1379.95,-284.07 1380.89,-235.83 1378.99,-209.12"/>
<polygon fill="midnightblue" stroke="midnightblue" points="1382.44,-208.44 1378.03,-198.81 1375.47,-209.09 1382.44,-208.44"/>
</g>
<!-- Node19 -->
<g id="node19" class="node">
<title>Node19</title>
<g id="a_node19"><a xlink:href="layout_8h.html" target="_top" xlink:title=" ">
<polygon fill="white" stroke="black" points="652.79,-291.5 652.79,-310.5 750.79,-310.5 750.79,-291.5 652.79,-291.5"/>
<text text-anchor="middle" x="701.79" y="-298.5" font-family="'Souce Sans Pro', Roboto, FreeSans, sans-serif" font-size="10.00">log4cplus/layout.h</text>
</a>
</g>
</g>
<!-- Node18&#45;&gt;Node19 -->
<g id="edge26" class="edge">
<title>Node18&#45;&gt;Node19</title>
<path fill="none" stroke="midnightblue" d="M1059.53,-348.66C981.45,-338.48 840.89,-320.14 761.19,-309.75"/>
<polygon fill="midnightblue" stroke="midnightblue" points="761.2,-306.22 750.83,-308.4 760.29,-313.16 761.2,-306.22"/>
</g>
<!-- Node20 -->
<g id="node20" class="node">
<title>Node20</title>
<g id="a_node20"><a xlink:href="loglevel_8h.html" target="_top" xlink:title="This header defines the LogLevel type.">
<polygon fill="white" stroke="black" points="608.79,-235.5 608.79,-254.5 712.79,-254.5 712.79,-235.5 608.79,-235.5"/>
<text text-anchor="middle" x="660.79" y="-242.5" font-family="'Souce Sans Pro', Roboto, FreeSans, sans-serif" font-size="10.00">log4cplus/loglevel.h</text>
</a>
</g>
</g>
<!-- Node18&#45;&gt;Node20 -->
<g id="edge44" class="edge">
<title>Node18&#45;&gt;Node20</title>
<path fill="none" stroke="midnightblue" d="M1080.47,-347.46C998.74,-327.7 796.7,-278.86 706.06,-256.94"/>
<polygon fill="midnightblue" stroke="midnightblue" points="706.64,-253.48 696.09,-254.53 704.99,-260.29 706.64,-253.48"/>
</g>
<!-- Node18&#45;&gt;Node27 -->
<g id="edge56" class="edge">
<title>Node18&#45;&gt;Node27</title>
<path fill="none" stroke="midnightblue" d="M1059.65,-354.92C936.4,-351.99 645.71,-341.93 552.79,-311 520.08,-300.11 487.26,-276.73 467.74,-261.18"/>
<polygon fill="midnightblue" stroke="midnightblue" points="469.71,-258.28 459.75,-254.66 465.28,-263.7 469.71,-258.28"/>
</g>
<!-- Node28 -->
<g id="node28" class="node">
<title>Node28</title>
<g id="a_node28"><a xlink:href="filter_8h.html" target="_top" xlink:title="This header defines Filter and all of it&#39;s subclasses.">
<polygon fill="white" stroke="black" points="1013.29,-291.5 1013.29,-310.5 1120.29,-310.5 1120.29,-291.5 1013.29,-291.5"/>
<text text-anchor="middle" x="1066.79" y="-298.5" font-family="'Souce Sans Pro', Roboto, FreeSans, sans-serif" font-size="10.00">log4cplus/spi/filter.h</text>
</a>
</g>
</g>
<!-- Node18&#45;&gt;Node28 -->
<g id="edge47" class="edge">
<title>Node18&#45;&gt;Node28</title>
<path fill="none" stroke="midnightblue" d="M1107.7,-347.08C1100.64,-339.3 1090.2,-327.8 1081.64,-318.37"/>
<polygon fill="midnightblue" stroke="midnightblue" points="1084.05,-315.8 1074.73,-310.75 1078.86,-320.51 1084.05,-315.8"/>
</g>
<!-- Node30 -->
<g id="node30" class="node">
<title>Node30</title>
<g id="a_node30"><a xlink:href="lockfile_8h.html" target="_top" xlink:title=" ">
<polygon fill="white" stroke="black" points="1094.79,-235.5 1094.79,-254.5 1234.79,-254.5 1234.79,-235.5 1094.79,-235.5"/>
<text text-anchor="middle" x="1164.79" y="-242.5" font-family="'Souce Sans Pro', Roboto, FreeSans, sans-serif" font-size="10.00">log4cplus/helpers/lockfile.h</text>
</a>
</g>
</g>
<!-- Node18&#45;&gt;Node30 -->
<g id="edge52" class="edge">
<title>Node18&#45;&gt;Node30</title>
<path fill="none" stroke="midnightblue" d="M1119.64,-347.37C1127.62,-329.46 1146.12,-287.92 1156.8,-263.95"/>
<polygon fill="midnightblue" stroke="midnightblue" points="1160.09,-265.15 1160.97,-254.59 1153.7,-262.3 1160.09,-265.15"/>
</g>
<!-- Node19&#45;&gt;Node2 -->
<g id="edge27" class="edge">
<title>Node19&#45;&gt;Node2</title>
<path fill="none" stroke="midnightblue" d="M705.74,-291.42C717.66,-265.51 752.94,-189.27 759.79,-179 778.3,-151.24 783.11,-143.04 809.79,-123 828.15,-109.21 851.4,-98.04 870.19,-90.27"/>
<polygon fill="midnightblue" stroke="midnightblue" points="871.57,-93.49 879.55,-86.53 868.97,-86.99 871.57,-93.49"/>
</g>
<!-- Node19&#45;&gt;Node5 -->
<g id="edge36" class="edge">
<title>Node19&#45;&gt;Node5</title>
<path fill="none" stroke="midnightblue" d="M677.32,-291.47C656.03,-283.53 624.75,-270.58 599.79,-255 577.01,-240.77 553.85,-220.22 538.97,-206.06"/>
<polygon fill="midnightblue" stroke="midnightblue" points="541.22,-203.37 531.61,-198.93 536.35,-208.4 541.22,-203.37"/>
</g>
<!-- Node19&#45;&gt;Node20 -->
<g id="edge28" class="edge">
<title>Node19&#45;&gt;Node20</title>
<path fill="none" stroke="midnightblue" d="M695.02,-291.08C689.23,-283.46 680.73,-272.26 673.65,-262.94"/>
<polygon fill="midnightblue" stroke="midnightblue" points="676.27,-260.6 667.44,-254.75 670.7,-264.83 676.27,-260.6"/>
</g>
<!-- Node19&#45;&gt;Node21 -->
<g id="edge42" class="edge">
<title>Node19&#45;&gt;Node21</title>
<path fill="none" stroke="midnightblue" d="M676.76,-291.49C636.77,-278.12 555.82,-251.97 485.79,-235 411.13,-216.91 322.04,-202.11 275.22,-194.85"/>
<polygon fill="midnightblue" stroke="midnightblue" points="275.49,-191.35 265.08,-193.29 274.43,-198.27 275.49,-191.35"/>
</g>
<!-- Node22 -->
<g id="node22" class="node">
<title>Node22</title>
<g id="a_node22"><a xlink:href="streams_8h.html" target="_top" xlink:title=" ">
<polygon fill="white" stroke="black" points="768.29,-179.5 768.29,-198.5 875.29,-198.5 875.29,-179.5 768.29,-179.5"/>
<text text-anchor="middle" x="821.79" y="-186.5" font-family="'Souce Sans Pro', Roboto, FreeSans, sans-serif" font-size="10.00">log4cplus/streams.h</text>
</a>
</g>
</g>
<!-- Node19&#45;&gt;Node22 -->
<g id="edge32" class="edge">
<title>Node19&#45;&gt;Node22</title>
<path fill="none" stroke="midnightblue" d="M712.53,-291.24C723.36,-282.31 740.49,-267.98 754.79,-255 772.68,-238.76 792.45,-219.4 805.85,-206.05"/>
<polygon fill="midnightblue" stroke="midnightblue" points="808.7,-208.15 813.29,-198.6 803.75,-203.2 808.7,-208.15"/>
</g>
<!-- Node24 -->
<g id="node24" class="node">
<title>Node24</title>
<g id="a_node24"><a xlink:href="timehelper_8h.html" target="_top" xlink:title=" ">
<polygon fill="white" stroke="black" points="806.79,-235.5 806.79,-254.5 960.79,-254.5 960.79,-235.5 806.79,-235.5"/>
<text text-anchor="middle" x="883.79" y="-242.5" font-family="'Souce Sans Pro', Roboto, FreeSans, sans-serif" font-size="10.00">log4cplus/helpers/timehelper.h</text>
</a>
</g>
</g>
<!-- Node19&#45;&gt;Node24 -->
<g id="edge37" class="edge">
<title>Node19&#45;&gt;Node24</title>
<path fill="none" stroke="midnightblue" d="M730.63,-291.44C761.65,-282.24 811.12,-267.56 845.41,-257.39"/>
<polygon fill="midnightblue" stroke="midnightblue" points="846.5,-260.72 855.09,-254.52 844.51,-254.01 846.5,-260.72"/>
</g>
<!-- Node19&#45;&gt;Node27 -->
<g id="edge43" class="edge">
<title>Node19&#45;&gt;Node27</title>
<path fill="none" stroke="midnightblue" d="M661.86,-291.44C613.86,-281.16 533.95,-264.03 487.13,-254"/>
<polygon fill="midnightblue" stroke="midnightblue" points="487.62,-250.53 477.11,-251.85 486.15,-257.37 487.62,-250.53"/>
</g>
<!-- Node20&#45;&gt;Node2 -->
<g id="edge29" class="edge">
<title>Node20&#45;&gt;Node2</title>
<path fill="none" stroke="midnightblue" d="M662.83,-235.41C668.58,-213.16 687.07,-153.22 725.79,-123 757.95,-97.9 802.43,-86.65 838.89,-81.68"/>
<polygon fill="midnightblue" stroke="midnightblue" points="839.45,-85.13 848.94,-80.43 838.59,-78.19 839.45,-85.13"/>
</g>
<!-- Node20&#45;&gt;Node5 -->
<g id="edge31" class="edge">
<title>Node20&#45;&gt;Node5</title>
<path fill="none" stroke="midnightblue" d="M638.93,-235.44C616.01,-226.48 579.82,-212.31 553.93,-202.18"/>
<polygon fill="midnightblue" stroke="midnightblue" points="555.14,-198.9 544.56,-198.52 552.59,-205.42 555.14,-198.9"/>
</g>
<!-- Node20&#45;&gt;Node21 -->
<g id="edge30" class="edge">
<title>Node20&#45;&gt;Node21</title>
<path fill="none" stroke="midnightblue" d="M608.7,-237.27C521.27,-225.98 347.51,-203.53 275.37,-194.21"/>
<polygon fill="midnightblue" stroke="midnightblue" points="275.45,-190.69 265.09,-192.88 274.56,-197.63 275.45,-190.69"/>
</g>
<!-- Node22&#45;&gt;Node2 -->
<g id="edge33" class="edge">
<title>Node22&#45;&gt;Node2</title>
<path fill="none" stroke="midnightblue" d="M818.74,-179.27C814.7,-166.05 809.24,-140.63 819.79,-123 828.94,-107.72 845.25,-97.33 861.08,-90.43"/>
<polygon fill="midnightblue" stroke="midnightblue" points="862.8,-93.51 870.81,-86.56 860.22,-87 862.8,-93.51"/>
</g>
<!-- Node22&#45;&gt;Node7 -->
<g id="edge34" class="edge">
<title>Node22&#45;&gt;Node7</title>
<path fill="none" stroke="midnightblue" d="M790.89,-179.44C757.52,-170.2 704.2,-155.44 667.44,-145.26"/>
<polygon fill="midnightblue" stroke="midnightblue" points="668.12,-141.81 657.55,-142.52 666.25,-148.56 668.12,-141.81"/>
</g>
<!-- Node23 -->
<g id="node23" class="node">
<title>Node23</title>
<g id="a_node23"><a xlink:title=" ">
<polygon fill="white" stroke="#bfbfbf" points="828.29,-123.5 828.29,-142.5 875.29,-142.5 875.29,-123.5 828.29,-123.5"/>
<text text-anchor="middle" x="851.79" y="-130.5" font-family="'Souce Sans Pro', Roboto, FreeSans, sans-serif" font-size="10.00">iosfwd</text>
</a>
</g>
</g>
<!-- Node22&#45;&gt;Node23 -->
<g id="edge35" class="edge">
<title>Node22&#45;&gt;Node23</title>
<path fill="none" stroke="midnightblue" d="M826.75,-179.08C830.9,-171.61 836.95,-160.72 842.06,-151.52"/>
<polygon fill="midnightblue" stroke="midnightblue" points="845.13,-153.19 846.93,-142.75 839.01,-149.79 845.13,-153.19"/>
</g>
<!-- Node24&#45;&gt;Node2 -->
<g id="edge38" class="edge">
<title>Node24&#45;&gt;Node2</title>
<path fill="none" stroke="midnightblue" d="M884.87,-235.08C888.02,-208.95 897.26,-132.21 901.55,-96.58"/>
<polygon fill="midnightblue" stroke="midnightblue" points="905.04,-96.92 902.76,-86.57 898.09,-96.08 905.04,-96.92"/>
</g>
<!-- Node24&#45;&gt;Node5 -->
<g id="edge39" class="edge">
<title>Node24&#45;&gt;Node5</title>
<path fill="none" stroke="midnightblue" d="M826.59,-235.44C759.93,-225.47 650.3,-209.07 582.56,-198.94"/>
<polygon fill="midnightblue" stroke="midnightblue" points="582.88,-195.45 572.47,-197.43 581.84,-202.37 582.88,-195.45"/>
</g>
<!-- Node25 -->
<g id="node25" class="node">
<title>Node25</title>
<g id="a_node25"><a xlink:title=" ">
<polygon fill="white" stroke="#bfbfbf" points="932.29,-179.5 932.29,-198.5 973.29,-198.5 973.29,-179.5 932.29,-179.5"/>
<text text-anchor="middle" x="952.79" y="-186.5" font-family="'Souce Sans Pro', Roboto, FreeSans, sans-serif" font-size="10.00">ctime</text>
</a>
</g>
</g>
<!-- Node24&#45;&gt;Node25 -->
<g id="edge40" class="edge">
<title>Node24&#45;&gt;Node25</title>
<path fill="none" stroke="midnightblue" d="M894.88,-235.32C905.28,-227.18 921.05,-214.84 933.51,-205.09"/>
<polygon fill="midnightblue" stroke="midnightblue" points="935.79,-207.75 941.5,-198.83 931.47,-202.24 935.79,-207.75"/>
</g>
<!-- Node26 -->
<g id="node26" class="node">
<title>Node26</title>
<g id="a_node26"><a xlink:title=" ">
<polygon fill="white" stroke="#bfbfbf" points="991.29,-179.5 991.29,-198.5 1038.29,-198.5 1038.29,-179.5 991.29,-179.5"/>
<text text-anchor="middle" x="1014.79" y="-186.5" font-family="'Souce Sans Pro', Roboto, FreeSans, sans-serif" font-size="10.00">chrono</text>
</a>
</g>
</g>
<!-- Node24&#45;&gt;Node26 -->
<g id="edge41" class="edge">
<title>Node24&#45;&gt;Node26</title>
<path fill="none" stroke="midnightblue" d="M904.55,-235.44C926.11,-226.56 960.06,-212.56 984.59,-202.45"/>
<polygon fill="midnightblue" stroke="midnightblue" points="986.22,-205.56 994.13,-198.52 983.55,-199.09 986.22,-205.56"/>
</g>
<!-- Node28&#45;&gt;Node2 -->
<g id="edge48" class="edge">
<title>Node28&#45;&gt;Node2</title>
<path fill="none" stroke="midnightblue" d="M1067.62,-291.3C1069.2,-270.25 1070.63,-215.63 1047.79,-179 1020.96,-135.96 968.32,-106.25 934.67,-90.69"/>
<polygon fill="midnightblue" stroke="midnightblue" points="935.85,-87.39 925.3,-86.5 932.99,-93.78 935.85,-87.39"/>
</g>
<!-- Node28&#45;&gt;Node10 -->
<g id="edge50" class="edge">
<title>Node28&#45;&gt;Node10</title>
<path fill="none" stroke="midnightblue" d="M1120.62,-293C1193.47,-283.52 1323.79,-266.56 1406.37,-255.81"/>
<polygon fill="midnightblue" stroke="midnightblue" points="1406.98,-259.26 1416.44,-254.5 1406.08,-252.32 1406.98,-259.26"/>
</g>
<!-- Node28&#45;&gt;Node20 -->
<g id="edge51" class="edge">
<title>Node28&#45;&gt;Node20</title>
<path fill="none" stroke="midnightblue" d="M1012.88,-292.83C937.94,-282.86 802.6,-264.86 723.33,-254.32"/>
<polygon fill="midnightblue" stroke="midnightblue" points="723.37,-250.79 713,-252.94 722.45,-257.73 723.37,-250.79"/>
</g>
<!-- Node29 -->
<g id="node29" class="node">
<title>Node29</title>
<g id="a_node29"><a xlink:title=" ">
<polygon fill="white" stroke="#bfbfbf" points="978.79,-235.5 978.79,-254.5 1038.79,-254.5 1038.79,-235.5 978.79,-235.5"/>
<text text-anchor="middle" x="1008.79" y="-242.5" font-family="'Souce Sans Pro', Roboto, FreeSans, sans-serif" font-size="10.00">functional</text>
</a>
</g>
</g>
<!-- Node28&#45;&gt;Node29 -->
<g id="edge49" class="edge">
<title>Node28&#45;&gt;Node29</title>
<path fill="none" stroke="midnightblue" d="M1057.47,-291.32C1048.9,-283.34 1035.98,-271.31 1025.6,-261.65"/>
<polygon fill="midnightblue" stroke="midnightblue" points="1027.98,-259.09 1018.28,-254.83 1023.21,-264.21 1027.98,-259.09"/>
</g>
<!-- Node30&#45;&gt;Node2 -->
<g id="edge53" class="edge">
<title>Node30&#45;&gt;Node2</title>
<path fill="none" stroke="midnightblue" d="M1161.38,-235.39C1152.09,-213.08 1124.08,-153.03 1080.79,-123 1047.95,-100.22 1004.54,-88.96 968.92,-83.4"/>
<polygon fill="midnightblue" stroke="midnightblue" points="969.02,-79.88 958.62,-81.92 968.02,-86.81 969.02,-79.88"/>
</g>
<!-- Node30&#45;&gt;Node5 -->
<g id="edge54" class="edge">
<title>Node30&#45;&gt;Node5</title>
<path fill="none" stroke="midnightblue" d="M1094.56,-238.09C967.47,-227.4 701.5,-205.03 582.54,-195.03"/>
<polygon fill="midnightblue" stroke="midnightblue" points="582.77,-191.53 572.52,-194.18 582.19,-198.51 582.77,-191.53"/>
</g>
<!-- Node30&#45;&gt;Node11 -->
<g id="edge55" class="edge">
<title>Node30&#45;&gt;Node11</title>
<path fill="none" stroke="midnightblue" d="M1216.77,-235.44C1274.94,-225.87 1369.15,-210.36 1431.04,-200.17"/>
<polygon fill="midnightblue" stroke="midnightblue" points="1431.76,-203.59 1441.06,-198.52 1430.63,-196.69 1431.76,-203.59"/>
</g>
<!-- Node31&#45;&gt;Node2 -->
<g id="edge68" class="edge">
<title>Node31&#45;&gt;Node2</title>
<path fill="none" stroke="midnightblue" d="M115,-235.29C149.02,-211.6 248.56,-146.26 342.79,-123 435.18,-100.2 711.73,-86.04 838.73,-80.58"/>
<polygon fill="midnightblue" stroke="midnightblue" points="839.23,-84.06 849.08,-80.14 838.94,-77.07 839.23,-84.06"/>
</g>
<!-- Node31&#45;&gt;Node5 -->
<g id="edge69" class="edge">
<title>Node31&#45;&gt;Node5</title>
<path fill="none" stroke="midnightblue" d="M169.34,-235.44C250.14,-225.06 385.21,-207.69 462.89,-197.7"/>
<polygon fill="midnightblue" stroke="midnightblue" points="463.52,-201.15 472.99,-196.4 462.63,-194.21 463.52,-201.15"/>
</g>
</g>
</svg>
