<?xml version="1.0" encoding="UTF-8" standalone="no"?>
<!DOCTYPE svg PUBLIC "-//W3C//DTD SVG 1.1//EN"
 "http://www.w3.org/Graphics/SVG/1.1/DTD/svg11.dtd">
<!-- Generated by graphviz version 2.43.0 (0)
 -->
<!-- Title: loglog.h Pages: 1 -->
<svg width="566pt" height="263pt"
 viewBox="0.00 0.00 565.50 263.00" xmlns="http://www.w3.org/2000/svg" xmlns:xlink="http://www.w3.org/1999/xlink">
<g id="graph0" class="graph" transform="scale(1 1) rotate(0) translate(4 259)">
<title>loglog.h</title>
<polygon fill="white" stroke="transparent" points="-4,4 -4,-259 561.5,-259 561.5,4 -4,4"/>
<!-- Node1 -->
<g id="node1" class="node">
<title>Node1</title>
<g id="a_node1"><a xlink:title=" ">
<polygon fill="#bfbfbf" stroke="black" points="252.5,-235.5 252.5,-254.5 304.5,-254.5 304.5,-235.5 252.5,-235.5"/>
<text text-anchor="middle" x="278.5" y="-242.5" font-family="'Souce Sans Pro', Roboto, FreeSans, sans-serif" font-size="10.00">loglog.h</text>
</a>
</g>
</g>
<!-- Node2 -->
<g id="node2" class="node">
<title>Node2</title>
<g id="a_node2"><a xlink:href="config_8hxx.html" target="_top" xlink:title=" ">
<polygon fill="white" stroke="black" points="164,-67.5 164,-86.5 273,-86.5 273,-67.5 164,-67.5"/>
<text text-anchor="middle" x="218.5" y="-74.5" font-family="'Souce Sans Pro', Roboto, FreeSans, sans-serif" font-size="10.00">log4cplus/config.hxx</text>
</a>
</g>
</g>
<!-- Node1&#45;&gt;Node2 -->
<g id="edge1" class="edge">
<title>Node1&#45;&gt;Node2</title>
<path fill="none" stroke="midnightblue" d="M284.03,-235.38C296.66,-214.53 324.83,-160.3 302.5,-123 293.35,-107.72 277.04,-97.33 261.21,-90.43"/>
<polygon fill="midnightblue" stroke="midnightblue" points="262.07,-87 251.49,-86.56 259.49,-93.51 262.07,-87"/>
</g>
<!-- Node5 -->
<g id="node5" class="node">
<title>Node5</title>
<g id="a_node5"><a xlink:href="tstring_8h.html" target="_top" xlink:title=" ">
<polygon fill="white" stroke="black" points="60,-179.5 60,-198.5 159,-198.5 159,-179.5 60,-179.5"/>
<text text-anchor="middle" x="109.5" y="-186.5" font-family="'Souce Sans Pro', Roboto, FreeSans, sans-serif" font-size="10.00">log4cplus/tstring.h</text>
</a>
</g>
</g>
<!-- Node1&#45;&gt;Node5 -->
<g id="edge4" class="edge">
<title>Node1&#45;&gt;Node5</title>
<path fill="none" stroke="midnightblue" d="M252.46,-235.68C223.97,-226.58 178.09,-211.92 146.01,-201.67"/>
<polygon fill="midnightblue" stroke="midnightblue" points="146.71,-198.22 136.12,-198.51 144.58,-204.88 146.71,-198.22"/>
</g>
<!-- Node9 -->
<g id="node9" class="node">
<title>Node9</title>
<g id="a_node9"><a xlink:href="streams_8h.html" target="_top" xlink:title=" ">
<polygon fill="white" stroke="black" points="184,-179.5 184,-198.5 291,-198.5 291,-179.5 184,-179.5"/>
<text text-anchor="middle" x="237.5" y="-186.5" font-family="'Souce Sans Pro', Roboto, FreeSans, sans-serif" font-size="10.00">log4cplus/streams.h</text>
</a>
</g>
</g>
<!-- Node1&#45;&gt;Node9 -->
<g id="edge10" class="edge">
<title>Node1&#45;&gt;Node9</title>
<path fill="none" stroke="midnightblue" d="M271.73,-235.08C265.94,-227.46 257.44,-216.26 250.36,-206.94"/>
<polygon fill="midnightblue" stroke="midnightblue" points="252.98,-204.6 244.14,-198.75 247.4,-208.83 252.98,-204.6"/>
</g>
<!-- Node11 -->
<g id="node11" class="node">
<title>Node11</title>
<g id="a_node11"><a xlink:href="syncprims_8h.html" target="_top" xlink:title=" ">
<polygon fill="white" stroke="black" points="350,-179.5 350,-198.5 499,-198.5 499,-179.5 350,-179.5"/>
<text text-anchor="middle" x="424.5" y="-186.5" font-family="'Souce Sans Pro', Roboto, FreeSans, sans-serif" font-size="10.00">log4cplus/thread/syncprims.h</text>
</a>
</g>
</g>
<!-- Node1&#45;&gt;Node11 -->
<g id="edge14" class="edge">
<title>Node1&#45;&gt;Node11</title>
<path fill="none" stroke="midnightblue" d="M301.63,-235.44C325.98,-226.44 364.51,-212.19 391.92,-202.05"/>
<polygon fill="midnightblue" stroke="midnightblue" points="393.31,-205.27 401.47,-198.52 390.88,-198.7 393.31,-205.27"/>
</g>
<!-- Node3 -->
<g id="node3" class="node">
<title>Node3</title>
<g id="a_node3"><a xlink:href="win32_8h.html" target="_top" xlink:title=" ">
<polygon fill="white" stroke="black" points="81.5,-6 81.5,-25 209.5,-25 209.5,-6 81.5,-6"/>
<text text-anchor="middle" x="145.5" y="-13" font-family="'Souce Sans Pro', Roboto, FreeSans, sans-serif" font-size="10.00">log4cplus/config/win32.h</text>
</a>
</g>
</g>
<!-- Node2&#45;&gt;Node3 -->
<g id="edge2" class="edge">
<title>Node2&#45;&gt;Node3</title>
<path fill="none" stroke="midnightblue" d="M208.04,-67.48C196.55,-58.11 177.87,-42.88 163.91,-31.51"/>
<polygon fill="midnightblue" stroke="midnightblue" points="165.9,-28.61 155.94,-25.01 161.48,-34.04 165.9,-28.61"/>
</g>
<!-- Node4 -->
<g id="node4" class="node">
<title>Node4</title>
<g id="a_node4"><a xlink:href="thread-config_8h.html" target="_top" xlink:title=" ">
<polygon fill="white" stroke="black" points="227.5,-0.5 227.5,-30.5 355.5,-30.5 355.5,-0.5 227.5,-0.5"/>
<text text-anchor="start" x="235.5" y="-18.5" font-family="'Souce Sans Pro', Roboto, FreeSans, sans-serif" font-size="10.00">log4cplus/helpers/thread</text>
<text text-anchor="middle" x="291.5" y="-7.5" font-family="'Souce Sans Pro', Roboto, FreeSans, sans-serif" font-size="10.00">&#45;config.h</text>
</a>
</g>
</g>
<!-- Node2&#45;&gt;Node4 -->
<g id="edge3" class="edge">
<title>Node2&#45;&gt;Node4</title>
<path fill="none" stroke="midnightblue" d="M228.96,-67.48C238.66,-59.57 253.49,-47.48 266.27,-37.07"/>
<polygon fill="midnightblue" stroke="midnightblue" points="268.76,-39.55 274.3,-30.52 264.33,-34.13 268.76,-39.55"/>
</g>
<!-- Node5&#45;&gt;Node2 -->
<g id="edge5" class="edge">
<title>Node5&#45;&gt;Node2</title>
<path fill="none" stroke="midnightblue" d="M119.99,-179.38C130.53,-170.57 147.1,-156.32 160.5,-143 176.33,-127.25 193.2,-108.05 204.64,-94.61"/>
<polygon fill="midnightblue" stroke="midnightblue" points="207.53,-96.61 211.3,-86.71 202.18,-92.1 207.53,-96.61"/>
</g>
<!-- Node6 -->
<g id="node6" class="node">
<title>Node6</title>
<g id="a_node6"><a xlink:title=" ">
<polygon fill="white" stroke="#bfbfbf" points="0,-123.5 0,-142.5 41,-142.5 41,-123.5 0,-123.5"/>
<text text-anchor="middle" x="20.5" y="-130.5" font-family="'Souce Sans Pro', Roboto, FreeSans, sans-serif" font-size="10.00">string</text>
</a>
</g>
</g>
<!-- Node5&#45;&gt;Node6 -->
<g id="edge6" class="edge">
<title>Node5&#45;&gt;Node6</title>
<path fill="none" stroke="midnightblue" d="M95.2,-179.32C81.32,-170.9 60.01,-157.97 43.7,-148.07"/>
<polygon fill="midnightblue" stroke="midnightblue" points="45.13,-144.85 34.76,-142.65 41.5,-150.83 45.13,-144.85"/>
</g>
<!-- Node7 -->
<g id="node7" class="node">
<title>Node7</title>
<g id="a_node7"><a xlink:href="tchar_8h.html" target="_top" xlink:title=" ">
<polygon fill="white" stroke="black" points="59,-123.5 59,-142.5 152,-142.5 152,-123.5 59,-123.5"/>
<text text-anchor="middle" x="105.5" y="-130.5" font-family="'Souce Sans Pro', Roboto, FreeSans, sans-serif" font-size="10.00">log4cplus/tchar.h</text>
</a>
</g>
</g>
<!-- Node5&#45;&gt;Node7 -->
<g id="edge7" class="edge">
<title>Node5&#45;&gt;Node7</title>
<path fill="none" stroke="midnightblue" d="M108.84,-179.08C108.32,-172.01 107.56,-161.86 106.91,-152.99"/>
<polygon fill="midnightblue" stroke="midnightblue" points="110.38,-152.47 106.15,-142.75 103.4,-152.98 110.38,-152.47"/>
</g>
<!-- Node7&#45;&gt;Node2 -->
<g id="edge8" class="edge">
<title>Node7&#45;&gt;Node2</title>
<path fill="none" stroke="midnightblue" d="M123.41,-123.44C141.75,-114.68 170.51,-100.94 191.59,-90.86"/>
<polygon fill="midnightblue" stroke="midnightblue" points="193.17,-93.99 200.68,-86.52 190.15,-87.67 193.17,-93.99"/>
</g>
<!-- Node8 -->
<g id="node8" class="node">
<title>Node8</title>
<g id="a_node8"><a xlink:title=" ">
<polygon fill="white" stroke="#bfbfbf" points="80,-67.5 80,-86.5 131,-86.5 131,-67.5 80,-67.5"/>
<text text-anchor="middle" x="105.5" y="-74.5" font-family="'Souce Sans Pro', Roboto, FreeSans, sans-serif" font-size="10.00">cstddef</text>
</a>
</g>
</g>
<!-- Node7&#45;&gt;Node8 -->
<g id="edge9" class="edge">
<title>Node7&#45;&gt;Node8</title>
<path fill="none" stroke="midnightblue" d="M105.5,-123.08C105.5,-116.01 105.5,-105.86 105.5,-96.99"/>
<polygon fill="midnightblue" stroke="midnightblue" points="109,-96.75 105.5,-86.75 102,-96.75 109,-96.75"/>
</g>
<!-- Node9&#45;&gt;Node2 -->
<g id="edge11" class="edge">
<title>Node9&#45;&gt;Node2</title>
<path fill="none" stroke="midnightblue" d="M236.01,-179.37C232.94,-161.62 225.87,-120.67 221.71,-96.6"/>
<polygon fill="midnightblue" stroke="midnightblue" points="225.14,-95.85 219.98,-86.59 218.24,-97.04 225.14,-95.85"/>
</g>
<!-- Node9&#45;&gt;Node7 -->
<g id="edge12" class="edge">
<title>Node9&#45;&gt;Node7</title>
<path fill="none" stroke="midnightblue" d="M216.58,-179.44C194.76,-170.52 160.35,-156.44 135.61,-146.32"/>
<polygon fill="midnightblue" stroke="midnightblue" points="136.9,-143.06 126.32,-142.52 134.25,-149.54 136.9,-143.06"/>
</g>
<!-- Node10 -->
<g id="node10" class="node">
<title>Node10</title>
<g id="a_node10"><a xlink:title=" ">
<polygon fill="white" stroke="#bfbfbf" points="247,-123.5 247,-142.5 294,-142.5 294,-123.5 247,-123.5"/>
<text text-anchor="middle" x="270.5" y="-130.5" font-family="'Souce Sans Pro', Roboto, FreeSans, sans-serif" font-size="10.00">iosfwd</text>
</a>
</g>
</g>
<!-- Node9&#45;&gt;Node10 -->
<g id="edge13" class="edge">
<title>Node9&#45;&gt;Node10</title>
<path fill="none" stroke="midnightblue" d="M242.95,-179.08C247.51,-171.61 254.17,-160.72 259.79,-151.52"/>
<polygon fill="midnightblue" stroke="midnightblue" points="262.92,-153.11 265.15,-142.75 256.95,-149.46 262.92,-153.11"/>
</g>
<!-- Node11&#45;&gt;Node2 -->
<g id="edge15" class="edge">
<title>Node11&#45;&gt;Node2</title>
<path fill="none" stroke="midnightblue" d="M414.81,-179.45C399.21,-166.01 367.17,-139.76 336.5,-123 311.25,-109.2 280.87,-97.72 257.27,-89.81"/>
<polygon fill="midnightblue" stroke="midnightblue" points="258.19,-86.43 247.6,-86.64 256.01,-93.08 258.19,-86.43"/>
</g>
<!-- Node12 -->
<g id="node12" class="node">
<title>Node12</title>
<g id="a_node12"><a xlink:title=" ">
<polygon fill="white" stroke="#bfbfbf" points="399.5,-123.5 399.5,-142.5 443.5,-142.5 443.5,-123.5 399.5,-123.5"/>
<text text-anchor="middle" x="421.5" y="-130.5" font-family="'Souce Sans Pro', Roboto, FreeSans, sans-serif" font-size="10.00">mutex</text>
</a>
</g>
</g>
<!-- Node11&#45;&gt;Node12 -->
<g id="edge16" class="edge">
<title>Node11&#45;&gt;Node12</title>
<path fill="none" stroke="midnightblue" d="M424,-179.08C423.61,-172.01 423.05,-161.86 422.55,-152.99"/>
<polygon fill="midnightblue" stroke="midnightblue" points="426.04,-152.54 421.99,-142.75 419.05,-152.93 426.04,-152.54"/>
</g>
<!-- Node13 -->
<g id="node13" class="node">
<title>Node13</title>
<g id="a_node13"><a xlink:title=" ">
<polygon fill="white" stroke="#bfbfbf" points="461.5,-123.5 461.5,-142.5 557.5,-142.5 557.5,-123.5 461.5,-123.5"/>
<text text-anchor="middle" x="509.5" y="-130.5" font-family="'Souce Sans Pro', Roboto, FreeSans, sans-serif" font-size="10.00">condition_variable</text>
</a>
</g>
</g>
<!-- Node11&#45;&gt;Node13 -->
<g id="edge17" class="edge">
<title>Node11&#45;&gt;Node13</title>
<path fill="none" stroke="midnightblue" d="M438.16,-179.32C451.42,-170.9 471.77,-157.97 487.35,-148.07"/>
<polygon fill="midnightblue" stroke="midnightblue" points="489.31,-150.97 495.88,-142.65 485.56,-145.06 489.31,-150.97"/>
</g>
</g>
</svg>
