<?xml version="1.0" encoding="UTF-8" standalone="no"?>
<!DOCTYPE svg PUBLIC "-//W3C//DTD SVG 1.1//EN"
 "http://www.w3.org/Graphics/SVG/1.1/DTD/svg11.dtd">
<!-- Generated by graphviz version 2.43.0 (0)
 -->
<!-- Title: loglevel.h Pages: 1 -->
<svg width="1996pt" height="420pt"
 viewBox="0.00 0.00 1996.32 420.00" xmlns="http://www.w3.org/2000/svg" xmlns:xlink="http://www.w3.org/1999/xlink">
<g id="graph0" class="graph" transform="scale(1 1) rotate(0) translate(4 416)">
<title>loglevel.h</title>
<polygon fill="white" stroke="transparent" points="-4,4 -4,-416 1992.32,-416 1992.32,4 -4,4"/>
<!-- Node1 -->
<g id="node1" class="node">
<title>Node1</title>
<g id="a_node1"><a xlink:title="This header defines the LogLevel type.">
<polygon fill="#bfbfbf" stroke="black" points="1490.12,-392.5 1490.12,-411.5 1548.12,-411.5 1548.12,-392.5 1490.12,-392.5"/>
<text text-anchor="middle" x="1519.12" y="-399.5" font-family="'Souce Sans Pro', Roboto, FreeSans, sans-serif" font-size="10.00">loglevel.h</text>
</a>
</g>
</g>
<!-- Node2 -->
<g id="node2" class="node">
<title>Node2</title>
<g id="a_node2"><a xlink:href="appender_8h.html" target="_top" xlink:title=" ">
<polygon fill="white" stroke="black" points="927.62,-280.5 927.62,-299.5 992.62,-299.5 992.62,-280.5 927.62,-280.5"/>
<text text-anchor="middle" x="960.12" y="-287.5" font-family="'Souce Sans Pro', Roboto, FreeSans, sans-serif" font-size="10.00">appender.h</text>
</a>
</g>
</g>
<!-- Node1&#45;&gt;Node2 -->
<g id="edge1" class="edge">
<title>Node1&#45;&gt;Node2</title>
<path fill="none" stroke="midnightblue" d="M1480,-393.3C1375.27,-372.69 1089.88,-316.54 992.89,-297.45"/>
<polygon fill="midnightblue" stroke="midnightblue" points="1479.36,-396.74 1489.85,-395.24 1480.71,-389.88 1479.36,-396.74"/>
</g>
<!-- Node4 -->
<g id="node4" class="node">
<title>Node4</title>
<g id="a_node4"><a xlink:href="log4cplus_8h.html" target="_top" xlink:title=" ">
<polygon fill="white" stroke="black" points="657.62,-0.5 657.62,-19.5 724.62,-19.5 724.62,-0.5 657.62,-0.5"/>
<text text-anchor="middle" x="691.12" y="-7.5" font-family="'Souce Sans Pro', Roboto, FreeSans, sans-serif" font-size="10.00">log4cplus.h</text>
</a>
</g>
</g>
<!-- Node1&#45;&gt;Node4 -->
<g id="edge49" class="edge">
<title>Node1&#45;&gt;Node4</title>
<path fill="none" stroke="midnightblue" d="M1558.41,-398.71C1660.12,-391.71 1924.12,-366.3 1924.12,-291 1924.12,-291 1924.12,-291 1924.12,-121 1924.12,-103.12 2175.63,-128.31 1681.12,-56 1490.45,-28.12 875.48,-14.58 724.72,-11.63"/>
<polygon fill="midnightblue" stroke="midnightblue" points="1557.99,-395.23 1548.24,-399.38 1558.45,-402.21 1557.99,-395.23"/>
</g>
<!-- Node23 -->
<g id="node23" class="node">
<title>Node23</title>
<g id="a_node23"><a xlink:href="logger_8h.html" target="_top" xlink:title="This header defines the Logger class and the logging macros.">
<polygon fill="white" stroke="black" points="475.12,-168.5 475.12,-187.5 527.12,-187.5 527.12,-168.5 475.12,-168.5"/>
<text text-anchor="middle" x="501.12" y="-175.5" font-family="'Souce Sans Pro', Roboto, FreeSans, sans-serif" font-size="10.00">logger.h</text>
</a>
</g>
</g>
<!-- Node1&#45;&gt;Node23 -->
<g id="edge50" class="edge">
<title>Node1&#45;&gt;Node23</title>
<path fill="none" stroke="midnightblue" d="M1479.73,-399.38C1270.48,-390.35 295.29,-343.13 210.12,-244 204.32,-237.26 204.33,-230.75 210.12,-224 244.14,-184.31 409.5,-179.32 474.65,-178.91"/>
<polygon fill="midnightblue" stroke="midnightblue" points="1479.8,-402.88 1489.94,-399.81 1480.1,-395.89 1479.8,-402.88"/>
</g>
<!-- Node30 -->
<g id="node30" class="node">
<title>Node30</title>
<g id="a_node30"><a xlink:href="layout_8h.html" target="_top" xlink:title=" ">
<polygon fill="white" stroke="black" points="954.62,-336.5 954.62,-355.5 1005.62,-355.5 1005.62,-336.5 954.62,-336.5"/>
<text text-anchor="middle" x="980.12" y="-343.5" font-family="'Souce Sans Pro', Roboto, FreeSans, sans-serif" font-size="10.00">layout.h</text>
</a>
</g>
</g>
<!-- Node1&#45;&gt;Node30 -->
<g id="edge45" class="edge">
<title>Node1&#45;&gt;Node30</title>
<path fill="none" stroke="midnightblue" d="M1479.61,-397.04C1374.88,-386.55 1092.24,-358.23 1005.67,-349.56"/>
<polygon fill="midnightblue" stroke="midnightblue" points="1479.46,-400.54 1489.75,-398.06 1480.15,-393.58 1479.46,-400.54"/>
</g>
<!-- Node31 -->
<g id="node31" class="node">
<title>Node31</title>
<g id="a_node31"><a xlink:href="filter_8h.html" target="_top" xlink:title="This header defines Filter and all of it&#39;s subclasses.">
<polygon fill="white" stroke="black" points="1518.12,-336.5 1518.12,-355.5 1562.12,-355.5 1562.12,-336.5 1518.12,-336.5"/>
<text text-anchor="middle" x="1540.12" y="-343.5" font-family="'Souce Sans Pro', Roboto, FreeSans, sans-serif" font-size="10.00">filter.h</text>
</a>
</g>
</g>
<!-- Node1&#45;&gt;Node31 -->
<g id="edge51" class="edge">
<title>Node1&#45;&gt;Node31</title>
<path fill="none" stroke="midnightblue" d="M1526.24,-382.69C1529.78,-373.59 1533.89,-363.01 1536.71,-355.75"/>
<polygon fill="midnightblue" stroke="midnightblue" points="1522.95,-381.49 1522.58,-392.08 1529.47,-384.03 1522.95,-381.49"/>
</g>
<!-- Node32 -->
<g id="node32" class="node">
<title>Node32</title>
<g id="a_node32"><a xlink:href="loggingevent_8h.html" target="_top" xlink:title=" ">
<polygon fill="white" stroke="black" points="1745.12,-224.5 1745.12,-243.5 1825.12,-243.5 1825.12,-224.5 1745.12,-224.5"/>
<text text-anchor="middle" x="1785.12" y="-231.5" font-family="'Souce Sans Pro', Roboto, FreeSans, sans-serif" font-size="10.00">loggingevent.h</text>
</a>
</g>
</g>
<!-- Node1&#45;&gt;Node32 -->
<g id="edge55" class="edge">
<title>Node1&#45;&gt;Node32</title>
<path fill="none" stroke="midnightblue" d="M1555.46,-389.16C1599.93,-373.51 1676.07,-342.82 1731.12,-300 1752.42,-283.43 1771,-257.1 1779.76,-243.6"/>
<polygon fill="midnightblue" stroke="midnightblue" points="1554.25,-385.88 1545.94,-392.46 1556.54,-392.5 1554.25,-385.88"/>
</g>
<!-- Node3 -->
<g id="node3" class="node">
<title>Node3</title>
<g id="a_node3"><a xlink:href="asyncappender_8h.html" target="_top" xlink:title=" ">
<polygon fill="white" stroke="black" points="1119.62,-112.5 1119.62,-131.5 1210.62,-131.5 1210.62,-112.5 1119.62,-112.5"/>
<text text-anchor="middle" x="1165.12" y="-119.5" font-family="'Souce Sans Pro', Roboto, FreeSans, sans-serif" font-size="10.00">asyncappender.h</text>
</a>
</g>
</g>
<!-- Node2&#45;&gt;Node3 -->
<g id="edge2" class="edge">
<title>Node2&#45;&gt;Node3</title>
<path fill="none" stroke="midnightblue" d="M1003.19,-287.52C1066.72,-284.33 1180.77,-274.41 1206.12,-244 1235.09,-209.25 1191.85,-153.04 1173.09,-131.65"/>
<polygon fill="midnightblue" stroke="midnightblue" points="1002.9,-284.03 993.08,-287.99 1003.23,-291.02 1002.9,-284.03"/>
</g>
<!-- Node2&#45;&gt;Node4 -->
<g id="edge14" class="edge">
<title>Node2&#45;&gt;Node4</title>
<path fill="none" stroke="midnightblue" d="M1002.67,-286.13C1068.16,-281 1189.78,-268.44 1225.12,-244 1252.64,-224.97 1263.12,-212.46 1263.12,-179 1263.12,-179 1263.12,-179 1263.12,-121 1263.12,-47.94 1182.79,-74.54 1112.12,-56 971.51,-19.12 796.92,-12.37 724.75,-11.2"/>
<polygon fill="midnightblue" stroke="midnightblue" points="1002.37,-282.64 992.67,-286.89 1002.9,-289.62 1002.37,-282.64"/>
</g>
<!-- Node5 -->
<g id="node5" class="node">
<title>Node5</title>
<g id="a_node5"><a xlink:href="deviceappender_8hxx.html" target="_top" xlink:title=" ">
<polygon fill="white" stroke="black" points="1291.12,-224.5 1291.12,-243.5 1395.12,-243.5 1395.12,-224.5 1291.12,-224.5"/>
<text text-anchor="middle" x="1343.12" y="-231.5" font-family="'Souce Sans Pro', Roboto, FreeSans, sans-serif" font-size="10.00">deviceappender.hxx</text>
</a>
</g>
</g>
<!-- Node2&#45;&gt;Node5 -->
<g id="edge4" class="edge">
<title>Node2&#45;&gt;Node5</title>
<path fill="none" stroke="midnightblue" d="M1003.1,-282.94C1073.88,-272.96 1214.71,-253.1 1291.04,-242.34"/>
<polygon fill="midnightblue" stroke="midnightblue" points="1002.18,-279.53 992.77,-284.4 1003.16,-286.47 1002.18,-279.53"/>
</g>
<!-- Node6 -->
<g id="node6" class="node">
<title>Node6</title>
<g id="a_node6"><a xlink:href="callbackappender_8h.html" target="_top" xlink:title=" ">
<polygon fill="white" stroke="black" points="1413.62,-224.5 1413.62,-243.5 1514.62,-243.5 1514.62,-224.5 1413.62,-224.5"/>
<text text-anchor="middle" x="1464.12" y="-231.5" font-family="'Souce Sans Pro', Roboto, FreeSans, sans-serif" font-size="10.00">callbackappender.h</text>
</a>
</g>
</g>
<!-- Node2&#45;&gt;Node6 -->
<g id="edge5" class="edge">
<title>Node2&#45;&gt;Node6</title>
<path fill="none" stroke="midnightblue" d="M1002.85,-285.35C1082.09,-278.44 1257.16,-262.46 1404.12,-244 1407.15,-243.62 1410.26,-243.21 1413.4,-242.78"/>
<polygon fill="midnightblue" stroke="midnightblue" points="1002.42,-281.88 992.76,-286.23 1003.03,-288.85 1002.42,-281.88"/>
</g>
<!-- Node7 -->
<g id="node7" class="node">
<title>Node7</title>
<g id="a_node7"><a xlink:href="clfsappender_8h.html" target="_top" xlink:title=" ">
<polygon fill="white" stroke="black" points="1533.12,-224.5 1533.12,-243.5 1615.12,-243.5 1615.12,-224.5 1533.12,-224.5"/>
<text text-anchor="middle" x="1574.12" y="-231.5" font-family="'Souce Sans Pro', Roboto, FreeSans, sans-serif" font-size="10.00">clfsappender.h</text>
</a>
</g>
</g>
<!-- Node2&#45;&gt;Node7 -->
<g id="edge6" class="edge">
<title>Node2&#45;&gt;Node7</title>
<path fill="none" stroke="midnightblue" d="M1002.92,-286.97C1097.2,-282.19 1329.76,-268.73 1523.12,-244 1526.33,-243.59 1529.64,-243.12 1532.97,-242.61"/>
<polygon fill="midnightblue" stroke="midnightblue" points="1002.72,-283.47 992.91,-287.47 1003.07,-290.46 1002.72,-283.47"/>
</g>
<!-- Node8 -->
<g id="node8" class="node">
<title>Node8</title>
<g id="a_node8"><a xlink:href="configurator_8h.html" target="_top" xlink:title=" ">
<polygon fill="white" stroke="black" points="728.62,-112.5 728.62,-131.5 805.62,-131.5 805.62,-112.5 728.62,-112.5"/>
<text text-anchor="middle" x="767.12" y="-119.5" font-family="'Souce Sans Pro', Roboto, FreeSans, sans-serif" font-size="10.00">configurator.h</text>
</a>
</g>
</g>
<!-- Node2&#45;&gt;Node8 -->
<g id="edge7" class="edge">
<title>Node2&#45;&gt;Node8</title>
<path fill="none" stroke="midnightblue" d="M938.21,-274.72C925.59,-266.21 909.6,-254.97 896.12,-244 848.01,-204.85 795.5,-152.15 775.49,-131.65"/>
<polygon fill="midnightblue" stroke="midnightblue" points="936.46,-277.76 946.73,-280.39 940.34,-271.93 936.46,-277.76"/>
</g>
<!-- Node9 -->
<g id="node9" class="node">
<title>Node9</title>
<g id="a_node9"><a xlink:href="consoleappender_8h.html" target="_top" xlink:title=" ">
<polygon fill="white" stroke="black" points="29.62,-56.5 29.62,-75.5 130.62,-75.5 130.62,-56.5 29.62,-56.5"/>
<text text-anchor="middle" x="80.12" y="-63.5" font-family="'Souce Sans Pro', Roboto, FreeSans, sans-serif" font-size="10.00">consoleappender.h</text>
</a>
</g>
</g>
<!-- Node2&#45;&gt;Node9 -->
<g id="edge9" class="edge">
<title>Node2&#45;&gt;Node9</title>
<path fill="none" stroke="midnightblue" d="M917.33,-289.3C754.69,-290.12 180.62,-289.69 114.12,-244 58.41,-205.72 72.5,-106.03 78.27,-75.81"/>
<polygon fill="midnightblue" stroke="midnightblue" points="917.46,-292.8 927.44,-289.25 917.42,-285.8 917.46,-292.8"/>
</g>
<!-- Node10 -->
<g id="node10" class="node">
<title>Node10</title>
<g id="a_node10"><a xlink:href="fileappender_8h.html" target="_top" xlink:title=" ">
<polygon fill="white" stroke="black" points="149.12,-56.5 149.12,-75.5 227.12,-75.5 227.12,-56.5 149.12,-56.5"/>
<text text-anchor="middle" x="188.12" y="-63.5" font-family="'Souce Sans Pro', Roboto, FreeSans, sans-serif" font-size="10.00">fileappender.h</text>
</a>
</g>
</g>
<!-- Node2&#45;&gt;Node10 -->
<g id="edge11" class="edge">
<title>Node2&#45;&gt;Node10</title>
<path fill="none" stroke="midnightblue" d="M917.43,-288.28C761.39,-285.44 227.3,-273.62 157.12,-244 117.21,-227.16 80.48,-208.39 96.12,-168 112.3,-126.2 154.73,-91.07 175.84,-75.54"/>
<polygon fill="midnightblue" stroke="midnightblue" points="917.52,-291.79 927.58,-288.47 917.64,-284.79 917.52,-291.79"/>
</g>
<!-- Node11 -->
<g id="node11" class="node">
<title>Node11</title>
<g id="a_node11"><a xlink:href="hierarchylocker_8h.html" target="_top" xlink:title=" ">
<polygon fill="white" stroke="black" points="283.62,-112.5 283.62,-131.5 374.62,-131.5 374.62,-112.5 283.62,-112.5"/>
<text text-anchor="middle" x="329.12" y="-119.5" font-family="'Souce Sans Pro', Roboto, FreeSans, sans-serif" font-size="10.00">hierarchylocker.h</text>
</a>
</g>
</g>
<!-- Node2&#45;&gt;Node11 -->
<g id="edge13" class="edge">
<title>Node2&#45;&gt;Node11</title>
<path fill="none" stroke="midnightblue" d="M917.04,-288.03C761.18,-284.31 234.49,-269.88 210.12,-244 169.61,-200.99 265.55,-151.13 309.05,-131.53"/>
<polygon fill="midnightblue" stroke="midnightblue" points="917.1,-291.53 927.18,-288.27 917.27,-284.53 917.1,-291.53"/>
</g>
<!-- Node12 -->
<g id="node12" class="node">
<title>Node12</title>
<g id="a_node12"><a xlink:href="log4judpappender_8h.html" target="_top" xlink:title=" ">
<polygon fill="white" stroke="black" points="219.62,-224.5 219.62,-243.5 322.62,-243.5 322.62,-224.5 219.62,-224.5"/>
<text text-anchor="middle" x="271.12" y="-231.5" font-family="'Souce Sans Pro', Roboto, FreeSans, sans-serif" font-size="10.00">log4judpappender.h</text>
</a>
</g>
</g>
<!-- Node2&#45;&gt;Node12 -->
<g id="edge15" class="edge">
<title>Node2&#45;&gt;Node12</title>
<path fill="none" stroke="midnightblue" d="M917.09,-287.07C815.1,-282.25 550.77,-268.29 331.12,-244 328.39,-243.7 325.61,-243.37 322.79,-243.01"/>
<polygon fill="midnightblue" stroke="midnightblue" points="917.14,-290.58 927.29,-287.55 917.47,-283.59 917.14,-290.58"/>
</g>
<!-- Node13 -->
<g id="node13" class="node">
<title>Node13</title>
<g id="a_node13"><a xlink:href="msttsappender_8h.html" target="_top" xlink:title=" ">
<polygon fill="white" stroke="black" points="340.62,-224.5 340.62,-243.5 431.62,-243.5 431.62,-224.5 340.62,-224.5"/>
<text text-anchor="middle" x="386.12" y="-231.5" font-family="'Souce Sans Pro', Roboto, FreeSans, sans-serif" font-size="10.00">msttsappender.h</text>
</a>
</g>
</g>
<!-- Node2&#45;&gt;Node13 -->
<g id="edge16" class="edge">
<title>Node2&#45;&gt;Node13</title>
<path fill="none" stroke="midnightblue" d="M917.31,-286.39C828.38,-280.72 617.26,-266.02 441.12,-244 438.04,-243.62 434.88,-243.19 431.7,-242.73"/>
<polygon fill="midnightblue" stroke="midnightblue" points="917.34,-289.9 927.54,-287.04 917.78,-282.91 917.34,-289.9"/>
</g>
<!-- Node14 -->
<g id="node14" class="node">
<title>Node14</title>
<g id="a_node14"><a xlink:href="nteventlogappender_8h.html" target="_top" xlink:title=" ">
<polygon fill="white" stroke="black" points="450.12,-224.5 450.12,-243.5 560.12,-243.5 560.12,-224.5 450.12,-224.5"/>
<text text-anchor="middle" x="505.12" y="-231.5" font-family="'Souce Sans Pro', Roboto, FreeSans, sans-serif" font-size="10.00">nteventlogappender.h</text>
</a>
</g>
</g>
<!-- Node2&#45;&gt;Node14 -->
<g id="edge17" class="edge">
<title>Node2&#45;&gt;Node14</title>
<path fill="none" stroke="midnightblue" d="M917.2,-284.19C845.92,-276.16 698.63,-259.38 574.12,-244 569.68,-243.45 565.09,-242.87 560.47,-242.29"/>
<polygon fill="midnightblue" stroke="midnightblue" points="917.24,-287.72 927.56,-285.36 918.02,-280.76 917.24,-287.72"/>
</g>
<!-- Node15 -->
<g id="node15" class="node">
<title>Node15</title>
<g id="a_node15"><a xlink:href="nullappender_8h.html" target="_top" xlink:title=" ">
<polygon fill="white" stroke="black" points="105.12,-168.5 105.12,-187.5 185.12,-187.5 185.12,-168.5 105.12,-168.5"/>
<text text-anchor="middle" x="145.12" y="-175.5" font-family="'Souce Sans Pro', Roboto, FreeSans, sans-serif" font-size="10.00">nullappender.h</text>
</a>
</g>
</g>
<!-- Node2&#45;&gt;Node15 -->
<g id="edge18" class="edge">
<title>Node2&#45;&gt;Node15</title>
<path fill="none" stroke="midnightblue" d="M917.55,-289.03C763.24,-288.8 238.97,-285 177.12,-244 157.41,-230.94 149.39,-202 146.52,-187.56"/>
<polygon fill="midnightblue" stroke="midnightblue" points="917.59,-292.53 927.59,-289.04 917.6,-285.53 917.59,-292.53"/>
</g>
<!-- Node16 -->
<g id="node16" class="node">
<title>Node16</title>
<g id="a_node16"><a xlink:href="qt4debugappender_8h.html" target="_top" xlink:title=" ">
<polygon fill="white" stroke="black" points="616.62,-224.5 616.62,-243.5 723.62,-243.5 723.62,-224.5 616.62,-224.5"/>
<text text-anchor="middle" x="670.12" y="-231.5" font-family="'Souce Sans Pro', Roboto, FreeSans, sans-serif" font-size="10.00">qt4debugappender.h</text>
</a>
</g>
</g>
<!-- Node2&#45;&gt;Node16 -->
<g id="edge20" class="edge">
<title>Node2&#45;&gt;Node16</title>
<path fill="none" stroke="midnightblue" d="M917.49,-281.06C863.57,-271.02 771.09,-253.8 715.77,-243.5"/>
<polygon fill="midnightblue" stroke="midnightblue" points="916.94,-284.52 927.41,-282.91 918.22,-277.64 916.94,-284.52"/>
</g>
<!-- Node17 -->
<g id="node17" class="node">
<title>Node17</title>
<g id="a_node17"><a xlink:href="qt5debugappender_8h.html" target="_top" xlink:title=" ">
<polygon fill="white" stroke="black" points="741.62,-224.5 741.62,-243.5 848.62,-243.5 848.62,-224.5 741.62,-224.5"/>
<text text-anchor="middle" x="795.12" y="-231.5" font-family="'Souce Sans Pro', Roboto, FreeSans, sans-serif" font-size="10.00">qt5debugappender.h</text>
</a>
</g>
</g>
<!-- Node2&#45;&gt;Node17 -->
<g id="edge21" class="edge">
<title>Node2&#45;&gt;Node17</title>
<path fill="none" stroke="midnightblue" d="M924.38,-277.3C893.29,-267.13 848.97,-252.62 821.14,-243.52"/>
<polygon fill="midnightblue" stroke="midnightblue" points="923.38,-280.66 933.97,-280.44 925.56,-274.01 923.38,-280.66"/>
</g>
<!-- Node18 -->
<g id="node18" class="node">
<title>Node18</title>
<g id="a_node18"><a xlink:href="socketappender_8h.html" target="_top" xlink:title=" ">
<polygon fill="white" stroke="black" points="643.62,-56.5 643.62,-75.5 738.62,-75.5 738.62,-56.5 643.62,-56.5"/>
<text text-anchor="middle" x="691.12" y="-63.5" font-family="'Souce Sans Pro', Roboto, FreeSans, sans-serif" font-size="10.00">socketappender.h</text>
</a>
</g>
</g>
<!-- Node2&#45;&gt;Node18 -->
<g id="edge22" class="edge">
<title>Node2&#45;&gt;Node18</title>
<path fill="none" stroke="midnightblue" d="M917.29,-286.66C827.75,-281.34 627.34,-266.97 607.12,-244 559.24,-189.63 649.18,-103.2 680.75,-75.7"/>
<polygon fill="midnightblue" stroke="midnightblue" points="917.2,-290.16 927.39,-287.25 917.61,-283.18 917.2,-290.16"/>
</g>
<!-- Node19 -->
<g id="node19" class="node">
<title>Node19</title>
<g id="a_node19"><a xlink:href="appenderattachable_8h.html" target="_top" xlink:title=" ">
<polygon fill="white" stroke="black" points="905.12,-224.5 905.12,-243.5 1015.12,-243.5 1015.12,-224.5 905.12,-224.5"/>
<text text-anchor="middle" x="960.12" y="-231.5" font-family="'Souce Sans Pro', Roboto, FreeSans, sans-serif" font-size="10.00">appenderattachable.h</text>
</a>
</g>
</g>
<!-- Node2&#45;&gt;Node19 -->
<g id="edge24" class="edge">
<title>Node2&#45;&gt;Node19</title>
<path fill="none" stroke="midnightblue" d="M960.12,-269.8C960.12,-260.91 960.12,-250.78 960.12,-243.75"/>
<polygon fill="midnightblue" stroke="midnightblue" points="956.62,-270.08 960.12,-280.08 963.62,-270.08 956.62,-270.08"/>
</g>
<!-- Node27 -->
<g id="node27" class="node">
<title>Node27</title>
<g id="a_node27"><a xlink:href="factory_8h.html" target="_top" xlink:title=" ">
<polygon fill="white" stroke="black" points="1633.12,-224.5 1633.12,-243.5 1689.12,-243.5 1689.12,-224.5 1633.12,-224.5"/>
<text text-anchor="middle" x="1661.12" y="-231.5" font-family="'Souce Sans Pro', Roboto, FreeSans, sans-serif" font-size="10.00">factory.h</text>
</a>
</g>
</g>
<!-- Node2&#45;&gt;Node27 -->
<g id="edge40" class="edge">
<title>Node2&#45;&gt;Node27</title>
<path fill="none" stroke="midnightblue" d="M1003.1,-288.62C1109.19,-287.15 1391.73,-279.87 1624.12,-244 1626.99,-243.56 1629.97,-243 1632.93,-242.38"/>
<polygon fill="midnightblue" stroke="midnightblue" points="1002.76,-285.13 992.81,-288.76 1002.85,-292.13 1002.76,-285.13"/>
</g>
<!-- Node28 -->
<g id="node28" class="node">
<title>Node28</title>
<g id="a_node28"><a xlink:href="syslogappender_8h.html" target="_top" xlink:title=" ">
<polygon fill="white" stroke="black" points="1053.12,-168.5 1053.12,-187.5 1147.12,-187.5 1147.12,-168.5 1053.12,-168.5"/>
<text text-anchor="middle" x="1100.12" y="-175.5" font-family="'Souce Sans Pro', Roboto, FreeSans, sans-serif" font-size="10.00">syslogappender.h</text>
</a>
</g>
</g>
<!-- Node2&#45;&gt;Node28 -->
<g id="edge42" class="edge">
<title>Node2&#45;&gt;Node28</title>
<path fill="none" stroke="midnightblue" d="M981.6,-274.65C994.2,-266.04 1010.3,-254.72 1024.12,-244 1048.8,-224.83 1076.35,-200.49 1090.53,-187.72"/>
<polygon fill="midnightblue" stroke="midnightblue" points="979.44,-271.88 973.12,-280.38 983.37,-277.68 979.44,-271.88"/>
</g>
<!-- Node29 -->
<g id="node29" class="node">
<title>Node29</title>
<g id="a_node29"><a xlink:href="win32consoleappender_8h.html" target="_top" xlink:title=" ">
<polygon fill="white" stroke="black" points="1071.12,-224.5 1071.12,-243.5 1197.12,-243.5 1197.12,-224.5 1071.12,-224.5"/>
<text text-anchor="middle" x="1134.12" y="-231.5" font-family="'Souce Sans Pro', Roboto, FreeSans, sans-serif" font-size="10.00">win32consoleappender.h</text>
</a>
</g>
</g>
<!-- Node2&#45;&gt;Node29 -->
<g id="edge44" class="edge">
<title>Node2&#45;&gt;Node29</title>
<path fill="none" stroke="midnightblue" d="M997.38,-277.44C1030.18,-267.26 1077.2,-252.66 1106.67,-243.52"/>
<polygon fill="midnightblue" stroke="midnightblue" points="996.2,-274.14 987.69,-280.44 998.28,-280.82 996.2,-274.14"/>
</g>
<!-- Node3&#45;&gt;Node4 -->
<g id="edge3" class="edge">
<title>Node3&#45;&gt;Node4</title>
<path fill="none" stroke="midnightblue" d="M1150.09,-105.15C1134.45,-89.76 1108.46,-67.13 1081.12,-56 1016.73,-29.78 807.31,-16.77 724.88,-12.57"/>
<polygon fill="midnightblue" stroke="midnightblue" points="1147.77,-107.78 1157.28,-112.45 1152.75,-102.87 1147.77,-107.78"/>
</g>
<!-- Node8&#45;&gt;Node4 -->
<g id="edge8" class="edge">
<title>Node8&#45;&gt;Node4</title>
<path fill="none" stroke="midnightblue" d="M764.36,-102.12C761.67,-88.4 756.54,-69.89 747.12,-56 736.54,-40.42 718.96,-27.56 706.31,-19.64"/>
<polygon fill="midnightblue" stroke="midnightblue" points="760.97,-103.03 766.09,-112.3 767.87,-101.86 760.97,-103.03"/>
</g>
<!-- Node9&#45;&gt;Node4 -->
<g id="edge10" class="edge">
<title>Node9&#45;&gt;Node4</title>
<path fill="none" stroke="midnightblue" d="M141.05,-55.97C343.35,-32.88 572.75,-18.05 657.5,-12.95"/>
<polygon fill="midnightblue" stroke="midnightblue" points="140.36,-52.53 130.82,-57.15 141.16,-59.48 140.36,-52.53"/>
</g>
<!-- Node10&#45;&gt;Node4 -->
<g id="edge12" class="edge">
<title>Node10&#45;&gt;Node4</title>
<path fill="none" stroke="midnightblue" d="M237.25,-56.54C238.55,-56.35 239.84,-56.17 241.12,-56 396.16,-35.11 582.46,-19.48 657.44,-13.57"/>
<polygon fill="midnightblue" stroke="midnightblue" points="236.51,-53.11 227.14,-58.06 237.55,-60.03 236.51,-53.11"/>
</g>
<!-- Node15&#45;&gt;Node4 -->
<g id="edge19" class="edge">
<title>Node15&#45;&gt;Node4</title>
<path fill="none" stroke="midnightblue" d="M166.14,-162.2C204.37,-136.08 288.66,-82.14 368.12,-56 469.77,-22.56 597.38,-13.97 657.21,-11.76"/>
<polygon fill="midnightblue" stroke="midnightblue" points="163.69,-159.64 157.45,-168.2 167.67,-165.4 163.69,-159.64"/>
</g>
<!-- Node18&#45;&gt;Node4 -->
<g id="edge23" class="edge">
<title>Node18&#45;&gt;Node4</title>
<path fill="none" stroke="midnightblue" d="M691.12,-45.8C691.12,-36.91 691.12,-26.78 691.12,-19.75"/>
<polygon fill="midnightblue" stroke="midnightblue" points="687.62,-46.08 691.12,-56.08 694.62,-46.08 687.62,-46.08"/>
</g>
<!-- Node20 -->
<g id="node20" class="node">
<title>Node20</title>
<g id="a_node20"><a xlink:href="appenderattachableimpl_8h.html" target="_top" xlink:title=" ">
<polygon fill="white" stroke="black" points="905.62,-168.5 905.62,-187.5 1034.62,-187.5 1034.62,-168.5 905.62,-168.5"/>
<text text-anchor="middle" x="970.12" y="-175.5" font-family="'Souce Sans Pro', Roboto, FreeSans, sans-serif" font-size="10.00">appenderattachableimpl.h</text>
</a>
</g>
</g>
<!-- Node19&#45;&gt;Node20 -->
<g id="edge25" class="edge">
<title>Node19&#45;&gt;Node20</title>
<path fill="none" stroke="midnightblue" d="M963.62,-214.1C965.28,-205.14 967.18,-194.86 968.5,-187.75"/>
<polygon fill="midnightblue" stroke="midnightblue" points="960.15,-213.61 961.77,-224.08 967.03,-214.89 960.15,-213.61"/>
</g>
<!-- Node19&#45;&gt;Node23 -->
<g id="edge29" class="edge">
<title>Node19&#45;&gt;Node23</title>
<path fill="none" stroke="midnightblue" d="M894.8,-225.32C792.09,-213.23 597.28,-190.31 527.12,-182.06"/>
<polygon fill="midnightblue" stroke="midnightblue" points="894.41,-228.79 904.75,-226.49 895.23,-221.84 894.41,-228.79"/>
</g>
<!-- Node20&#45;&gt;Node3 -->
<g id="edge26" class="edge">
<title>Node20&#45;&gt;Node3</title>
<path fill="none" stroke="midnightblue" d="M1010.93,-165.7C1047.73,-155.51 1101.04,-140.74 1134.36,-131.52"/>
<polygon fill="midnightblue" stroke="midnightblue" points="1009.72,-162.4 1001.01,-168.44 1011.59,-169.15 1009.72,-162.4"/>
</g>
<!-- Node21 -->
<g id="node21" class="node">
<title>Node21</title>
<g id="a_node21"><a xlink:href="loggerimpl_8h.html" target="_top" xlink:title=" ">
<polygon fill="white" stroke="black" points="934.62,-112.5 934.62,-131.5 1005.62,-131.5 1005.62,-112.5 934.62,-112.5"/>
<text text-anchor="middle" x="970.12" y="-119.5" font-family="'Souce Sans Pro', Roboto, FreeSans, sans-serif" font-size="10.00">loggerimpl.h</text>
</a>
</g>
</g>
<!-- Node20&#45;&gt;Node21 -->
<g id="edge27" class="edge">
<title>Node20&#45;&gt;Node21</title>
<path fill="none" stroke="midnightblue" d="M970.12,-157.8C970.12,-148.91 970.12,-138.78 970.12,-131.75"/>
<polygon fill="midnightblue" stroke="midnightblue" points="966.62,-158.08 970.12,-168.08 973.62,-158.08 966.62,-158.08"/>
</g>
<!-- Node22 -->
<g id="node22" class="node">
<title>Node22</title>
<g id="a_node22"><a xlink:href="rootlogger_8h.html" target="_top" xlink:title=" ">
<polygon fill="white" stroke="black" points="935.12,-56.5 935.12,-75.5 1005.12,-75.5 1005.12,-56.5 935.12,-56.5"/>
<text text-anchor="middle" x="970.12" y="-63.5" font-family="'Souce Sans Pro', Roboto, FreeSans, sans-serif" font-size="10.00">rootlogger.h</text>
</a>
</g>
</g>
<!-- Node21&#45;&gt;Node22 -->
<g id="edge28" class="edge">
<title>Node21&#45;&gt;Node22</title>
<path fill="none" stroke="midnightblue" d="M970.12,-101.8C970.12,-92.91 970.12,-82.78 970.12,-75.75"/>
<polygon fill="midnightblue" stroke="midnightblue" points="966.62,-102.08 970.12,-112.08 973.62,-102.08 966.62,-102.08"/>
</g>
<!-- Node23&#45;&gt;Node4 -->
<g id="edge34" class="edge">
<title>Node23&#45;&gt;Node4</title>
<path fill="none" stroke="midnightblue" d="M506.81,-158.52C516.43,-128.35 536.41,-70.41 552.12,-56 581.27,-29.25 626.51,-18.39 657.4,-13.99"/>
<polygon fill="midnightblue" stroke="midnightblue" points="503.41,-157.66 503.76,-168.25 510.09,-159.76 503.41,-157.66"/>
</g>
<!-- Node23&#45;&gt;Node8 -->
<g id="edge30" class="edge">
<title>Node23&#45;&gt;Node8</title>
<path fill="none" stroke="midnightblue" d="M537.65,-169.58C587.7,-159.42 677.19,-141.26 728.37,-130.87"/>
<polygon fill="midnightblue" stroke="midnightblue" points="536.7,-166.21 527.59,-171.62 538.09,-173.07 536.7,-166.21"/>
</g>
<!-- Node23&#45;&gt;Node11 -->
<g id="edge33" class="edge">
<title>Node23&#45;&gt;Node11</title>
<path fill="none" stroke="midnightblue" d="M465.44,-165.8C433,-155.61 385.83,-140.81 356.34,-131.55"/>
<polygon fill="midnightblue" stroke="midnightblue" points="464.4,-169.14 474.99,-168.8 466.5,-162.46 464.4,-169.14"/>
</g>
<!-- Node24 -->
<g id="node24" class="node">
<title>Node24</title>
<g id="a_node24"><a xlink:href="hierarchy_8h.html" target="_top" xlink:title=" ">
<polygon fill="white" stroke="black" points="561.12,-56.5 561.12,-75.5 625.12,-75.5 625.12,-56.5 561.12,-56.5"/>
<text text-anchor="middle" x="593.12" y="-63.5" font-family="'Souce Sans Pro', Roboto, FreeSans, sans-serif" font-size="10.00">hierarchy.h</text>
</a>
</g>
</g>
<!-- Node23&#45;&gt;Node24 -->
<g id="edge31" class="edge">
<title>Node23&#45;&gt;Node24</title>
<path fill="none" stroke="midnightblue" d="M518.35,-161.55C527.32,-153.16 538.24,-142.41 547.12,-132 563.26,-113.07 579.45,-88.62 587.63,-75.78"/>
<polygon fill="midnightblue" stroke="midnightblue" points="515.78,-159.16 510.78,-168.5 520.51,-164.32 515.78,-159.16"/>
</g>
<!-- Node25 -->
<g id="node25" class="node">
<title>Node25</title>
<g id="a_node25"><a xlink:href="loggingmacros_8h.html" target="_top" xlink:title="This header defines the logging macros.">
<polygon fill="white" stroke="black" points="377.12,-56.5 377.12,-75.5 467.12,-75.5 467.12,-56.5 377.12,-56.5"/>
<text text-anchor="middle" x="422.12" y="-63.5" font-family="'Souce Sans Pro', Roboto, FreeSans, sans-serif" font-size="10.00">loggingmacros.h</text>
</a>
</g>
</g>
<!-- Node23&#45;&gt;Node25 -->
<g id="edge35" class="edge">
<title>Node23&#45;&gt;Node25</title>
<path fill="none" stroke="midnightblue" d="M465.45,-166.03C449.2,-159.05 431.53,-148.2 422.12,-132 411.8,-114.24 416.15,-88.88 419.53,-75.7"/>
<polygon fill="midnightblue" stroke="midnightblue" points="464.18,-169.3 474.77,-169.7 466.75,-162.78 464.18,-169.3"/>
</g>
<!-- Node26 -->
<g id="node26" class="node">
<title>Node26</title>
<g id="a_node26"><a xlink:href="tracelogger_8h.html" target="_top" xlink:title=" ">
<polygon fill="white" stroke="black" points="431.12,-112.5 431.12,-131.5 505.12,-131.5 505.12,-112.5 431.12,-112.5"/>
<text text-anchor="middle" x="468.12" y="-119.5" font-family="'Souce Sans Pro', Roboto, FreeSans, sans-serif" font-size="10.00">tracelogger.h</text>
</a>
</g>
</g>
<!-- Node23&#45;&gt;Node26 -->
<g id="edge37" class="edge">
<title>Node23&#45;&gt;Node26</title>
<path fill="none" stroke="midnightblue" d="M490.28,-159.27C484.64,-150.05 478,-139.17 473.46,-131.75"/>
<polygon fill="midnightblue" stroke="midnightblue" points="487.47,-161.38 495.67,-168.08 493.44,-157.73 487.47,-161.38"/>
</g>
<!-- Node24&#45;&gt;Node4 -->
<g id="edge32" class="edge">
<title>Node24&#45;&gt;Node4</title>
<path fill="none" stroke="midnightblue" d="M617.7,-51.45C635.79,-41.48 659.85,-28.23 675.41,-19.65"/>
<polygon fill="midnightblue" stroke="midnightblue" points="615.93,-48.43 608.86,-56.32 619.31,-54.56 615.93,-48.43"/>
</g>
<!-- Node25&#45;&gt;Node4 -->
<g id="edge36" class="edge">
<title>Node25&#45;&gt;Node4</title>
<path fill="none" stroke="midnightblue" d="M474.85,-54.42C529.04,-43.54 611.78,-26.93 657.62,-17.73"/>
<polygon fill="midnightblue" stroke="midnightblue" points="473.86,-51.04 464.74,-56.44 475.23,-57.91 473.86,-51.04"/>
</g>
<!-- Node26&#45;&gt;Node4 -->
<g id="edge38" class="edge">
<title>Node26&#45;&gt;Node4</title>
<path fill="none" stroke="midnightblue" d="M477.4,-103.62C486.22,-88.79 500.82,-68.01 519.12,-56 561.7,-28.06 620.84,-17.44 657.51,-13.42"/>
<polygon fill="midnightblue" stroke="midnightblue" points="474.34,-101.93 472.47,-112.36 480.43,-105.38 474.34,-101.93"/>
</g>
<!-- Node26&#45;&gt;Node25 -->
<g id="edge39" class="edge">
<title>Node26&#45;&gt;Node25</title>
<path fill="none" stroke="midnightblue" d="M454,-104.43C445.94,-94.97 436.16,-83.48 429.57,-75.75"/>
<polygon fill="midnightblue" stroke="midnightblue" points="451.37,-106.74 460.52,-112.08 456.7,-102.2 451.37,-106.74"/>
</g>
<!-- Node27&#45;&gt;Node4 -->
<g id="edge41" class="edge">
<title>Node27&#45;&gt;Node4</title>
<path fill="none" stroke="midnightblue" d="M1638.48,-219.03C1580.78,-184.24 1422.49,-93.78 1277.12,-56 1171.45,-28.54 832.95,-15.54 724.73,-12.02"/>
<polygon fill="midnightblue" stroke="midnightblue" points="1636.8,-222.11 1647.16,-224.31 1640.43,-216.12 1636.8,-222.11"/>
</g>
<!-- Node28&#45;&gt;Node4 -->
<g id="edge43" class="edge">
<title>Node28&#45;&gt;Node4</title>
<path fill="none" stroke="midnightblue" d="M1092.91,-158.95C1080.98,-131.65 1054.37,-80.44 1014.12,-56 965.96,-26.76 797.5,-15.79 724.86,-12.35"/>
<polygon fill="midnightblue" stroke="midnightblue" points="1089.79,-160.57 1096.88,-168.44 1096.25,-157.87 1089.79,-160.57"/>
</g>
<!-- Node30&#45;&gt;Node2 -->
<g id="edge46" class="edge">
<title>Node30&#45;&gt;Node2</title>
<path fill="none" stroke="midnightblue" d="M973.33,-326.69C969.96,-317.59 966.05,-307.01 963.36,-299.75"/>
<polygon fill="midnightblue" stroke="midnightblue" points="970.06,-327.92 976.81,-336.08 976.62,-325.49 970.06,-327.92"/>
</g>
<!-- Node30&#45;&gt;Node4 -->
<g id="edge47" class="edge">
<title>Node30&#45;&gt;Node4</title>
<path fill="none" stroke="midnightblue" d="M944.26,-343.32C798.72,-336.14 252.32,-305.54 92.12,-244 45.72,-226.18 1.12,-228.7 1.12,-179 1.12,-179 1.12,-179 1.12,-121 1.12,-90.9 -3.35,-74.85 20.12,-56 70.12,-15.83 528.7,-11.47 657.57,-11.04"/>
<polygon fill="midnightblue" stroke="midnightblue" points="944.26,-346.83 954.42,-343.82 944.6,-339.83 944.26,-346.83"/>
</g>
<!-- Node30&#45;&gt;Node27 -->
<g id="edge48" class="edge">
<title>Node30&#45;&gt;Node27</title>
<path fill="none" stroke="midnightblue" d="M1015.65,-340.48C1113.27,-327.85 1393.63,-290.02 1624.12,-244 1626.97,-243.43 1629.93,-242.79 1632.89,-242.12"/>
<polygon fill="midnightblue" stroke="midnightblue" points="1015.19,-337.01 1005.72,-341.76 1016.08,-343.96 1015.19,-337.01"/>
</g>
<!-- Node31&#45;&gt;Node2 -->
<g id="edge52" class="edge">
<title>Node31&#45;&gt;Node2</title>
<path fill="none" stroke="midnightblue" d="M1507.86,-342C1406.42,-332.55 1094.64,-303.52 992.72,-294.04"/>
<polygon fill="midnightblue" stroke="midnightblue" points="1507.81,-345.51 1518.09,-342.95 1508.46,-338.54 1507.81,-345.51"/>
</g>
<!-- Node31&#45;&gt;Node4 -->
<g id="edge53" class="edge">
<title>Node31&#45;&gt;Node4</title>
<path fill="none" stroke="midnightblue" d="M1572.17,-336.41C1627.79,-319.83 1733.08,-280.01 1698.12,-224 1668.12,-175.94 1521.08,-134.55 1469.12,-112 1404.98,-84.17 1390.38,-71.09 1322.12,-56 1206.57,-30.45 838.42,-16.03 724.82,-12.1"/>
<polygon fill="midnightblue" stroke="midnightblue" points="1571.04,-333.1 1562.4,-339.24 1572.98,-339.82 1571.04,-333.1"/>
</g>
<!-- Node31&#45;&gt;Node27 -->
<g id="edge54" class="edge">
<title>Node31&#45;&gt;Node27</title>
<path fill="none" stroke="midnightblue" d="M1557.15,-329.51C1583.01,-306.01 1631.3,-262.11 1651.67,-243.59"/>
<polygon fill="midnightblue" stroke="midnightblue" points="1554.66,-327.05 1549.61,-336.37 1559.36,-332.23 1554.66,-327.05"/>
</g>
<!-- Node32&#45;&gt;Node4 -->
<g id="edge60" class="edge">
<title>Node32&#45;&gt;Node4</title>
<path fill="none" stroke="midnightblue" d="M1777.84,-214.54C1761.85,-176.79 1719.67,-91.36 1653.12,-56 1569.79,-11.73 885.34,-10.54 724.75,-10.88"/>
<polygon fill="midnightblue" stroke="midnightblue" points="1774.78,-216.3 1781.81,-224.23 1781.26,-213.65 1774.78,-216.3"/>
</g>
<!-- Node33 -->
<g id="node33" class="node">
<title>Node33</title>
<g id="a_node33"><a xlink:href="queue_8h.html" target="_top" xlink:title=" ">
<polygon fill="white" stroke="black" points="1667.12,-168.5 1667.12,-187.5 1719.12,-187.5 1719.12,-168.5 1667.12,-168.5"/>
<text text-anchor="middle" x="1693.12" y="-175.5" font-family="'Souce Sans Pro', Roboto, FreeSans, sans-serif" font-size="10.00">queue.h</text>
</a>
</g>
</g>
<!-- Node32&#45;&gt;Node33 -->
<g id="edge56" class="edge">
<title>Node32&#45;&gt;Node33</title>
<path fill="none" stroke="midnightblue" d="M1761.57,-219.18C1744.64,-209.24 1722.33,-196.15 1707.86,-187.65"/>
<polygon fill="midnightblue" stroke="midnightblue" points="1759.94,-222.28 1770.34,-224.32 1763.48,-216.24 1759.94,-222.28"/>
</g>
<!-- Node34 -->
<g id="node34" class="node">
<title>Node34</title>
<g id="a_node34"><a xlink:href="internal_8h.html" target="_top" xlink:title="This header contains declaration internal to log4cplus.">
<polygon fill="white" stroke="black" points="1793.62,-168.5 1793.62,-187.5 1850.62,-187.5 1850.62,-168.5 1793.62,-168.5"/>
<text text-anchor="middle" x="1822.12" y="-175.5" font-family="'Souce Sans Pro', Roboto, FreeSans, sans-serif" font-size="10.00">internal.h</text>
</a>
</g>
</g>
<!-- Node32&#45;&gt;Node34 -->
<g id="edge58" class="edge">
<title>Node32&#45;&gt;Node34</title>
<path fill="none" stroke="midnightblue" d="M1797.06,-215.57C1803.43,-206.27 1810.98,-195.25 1816.12,-187.75"/>
<polygon fill="midnightblue" stroke="midnightblue" points="1793.99,-213.86 1791.23,-224.08 1799.77,-217.81 1793.99,-213.86"/>
</g>
<!-- Node33&#45;&gt;Node3 -->
<g id="edge57" class="edge">
<title>Node33&#45;&gt;Node3</title>
<path fill="none" stroke="midnightblue" d="M1656.82,-173.29C1563.21,-163.71 1313.75,-138.2 1210.66,-127.66"/>
<polygon fill="midnightblue" stroke="midnightblue" points="1656.63,-176.79 1666.93,-174.32 1657.34,-169.82 1656.63,-176.79"/>
</g>
<!-- Node35 -->
<g id="node35" class="node">
<title>Node35</title>
<g id="a_node35"><a xlink:href="customloglevelmanager_8h.html" target="_top" xlink:title="This header contains declaration internal to log4cplus.">
<polygon fill="white" stroke="black" points="1766.12,-112.5 1766.12,-131.5 1896.12,-131.5 1896.12,-112.5 1766.12,-112.5"/>
<text text-anchor="middle" x="1831.12" y="-119.5" font-family="'Souce Sans Pro', Roboto, FreeSans, sans-serif" font-size="10.00">customloglevelmanager.h</text>
</a>
</g>
</g>
<!-- Node34&#45;&gt;Node35 -->
<g id="edge59" class="edge">
<title>Node34&#45;&gt;Node35</title>
<path fill="none" stroke="midnightblue" d="M1825.27,-158.1C1826.76,-149.14 1828.47,-138.86 1829.66,-131.75"/>
<polygon fill="midnightblue" stroke="midnightblue" points="1821.79,-157.64 1823.6,-168.08 1828.7,-158.79 1821.79,-157.64"/>
</g>
</g>
</svg>
