<?xml version="1.0" encoding="UTF-8" standalone="no"?>
<!DOCTYPE svg PUBLIC "-//W3C//DTD SVG 1.1//EN"
 "http://www.w3.org/Graphics/SVG/1.1/DTD/svg11.dtd">
<!-- Generated by graphviz version 2.43.0 (0)
 -->
<!-- Title: nteventlogappender.h Pages: 1 -->
<svg width="1170pt" height="442pt"
 viewBox="0.00 0.00 1169.50 442.00" xmlns="http://www.w3.org/2000/svg" xmlns:xlink="http://www.w3.org/1999/xlink">
<g id="graph0" class="graph" transform="scale(1 1) rotate(0) translate(4 438)">
<title>nteventlogappender.h</title>
<polygon fill="white" stroke="transparent" points="-4,4 -4,-438 1165.5,-438 1165.5,4 -4,4"/>
<!-- Node1 -->
<g id="node1" class="node">
<title>Node1</title>
<g id="a_node1"><a xlink:title=" ">
<polygon fill="#bfbfbf" stroke="black" points="334,-414.5 334,-433.5 444,-433.5 444,-414.5 334,-414.5"/>
<text text-anchor="middle" x="389" y="-421.5" font-family="'Souce Sans Pro', Roboto, FreeSans, sans-serif" font-size="10.00">nteventlogappender.h</text>
</a>
</g>
</g>
<!-- Node2 -->
<g id="node2" class="node">
<title>Node2</title>
<g id="a_node2"><a xlink:href="config_8hxx.html" target="_top" xlink:title=" ">
<polygon fill="white" stroke="black" points="569.5,-67.5 569.5,-86.5 678.5,-86.5 678.5,-67.5 569.5,-67.5"/>
<text text-anchor="middle" x="624" y="-74.5" font-family="'Souce Sans Pro', Roboto, FreeSans, sans-serif" font-size="10.00">log4cplus/config.hxx</text>
</a>
</g>
</g>
<!-- Node1&#45;&gt;Node2 -->
<g id="edge1" class="edge">
<title>Node1&#45;&gt;Node2</title>
<path fill="none" stroke="midnightblue" d="M333.68,-417.46C226.28,-405.16 0,-371.05 0,-302 0,-302 0,-302 0,-188 0,-150.44 20.66,-140.28 54,-123 97.9,-100.24 418.8,-85.65 558.89,-80.3"/>
<polygon fill="midnightblue" stroke="midnightblue" points="559.2,-83.79 569.06,-79.91 558.93,-76.79 559.2,-83.79"/>
</g>
<!-- Node5 -->
<g id="node5" class="node">
<title>Node5</title>
<g id="a_node5"><a xlink:href="appender_8h.html" target="_top" xlink:title=" ">
<polygon fill="white" stroke="black" points="333,-353 333,-372 445,-372 445,-353 333,-353"/>
<text text-anchor="middle" x="389" y="-360" font-family="'Souce Sans Pro', Roboto, FreeSans, sans-serif" font-size="10.00">log4cplus/appender.h</text>
</a>
</g>
</g>
<!-- Node1&#45;&gt;Node5 -->
<g id="edge4" class="edge">
<title>Node1&#45;&gt;Node5</title>
<path fill="none" stroke="midnightblue" d="M389,-414.48C389,-406.08 389,-392.98 389,-382.16"/>
<polygon fill="midnightblue" stroke="midnightblue" points="392.5,-382.01 389,-372.01 385.5,-382.01 392.5,-382.01"/>
</g>
<!-- Node29 -->
<g id="node29" class="node">
<title>Node29</title>
<g id="a_node29"><a xlink:href="windowsh-inc_8h.html" target="_top" xlink:title=" ">
<polygon fill="white" stroke="black" points="934,-347.5 934,-377.5 1074,-377.5 1074,-347.5 934,-347.5"/>
<text text-anchor="start" x="942" y="-365.5" font-family="'Souce Sans Pro', Roboto, FreeSans, sans-serif" font-size="10.00">log4cplus/config/windowsh</text>
<text text-anchor="middle" x="1004" y="-354.5" font-family="'Souce Sans Pro', Roboto, FreeSans, sans-serif" font-size="10.00">&#45;inc.h</text>
</a>
</g>
</g>
<!-- Node1&#45;&gt;Node29 -->
<g id="edge53" class="edge">
<title>Node1&#45;&gt;Node29</title>
<path fill="none" stroke="midnightblue" d="M444.12,-417.67C553.2,-407.11 796.99,-383.53 923.84,-371.26"/>
<polygon fill="midnightblue" stroke="midnightblue" points="924.27,-374.73 933.89,-370.28 923.6,-367.76 924.27,-374.73"/>
</g>
<!-- Node3 -->
<g id="node3" class="node">
<title>Node3</title>
<g id="a_node3"><a xlink:href="win32_8h.html" target="_top" xlink:title=" ">
<polygon fill="white" stroke="black" points="487,-6 487,-25 615,-25 615,-6 487,-6"/>
<text text-anchor="middle" x="551" y="-13" font-family="'Souce Sans Pro', Roboto, FreeSans, sans-serif" font-size="10.00">log4cplus/config/win32.h</text>
</a>
</g>
</g>
<!-- Node2&#45;&gt;Node3 -->
<g id="edge2" class="edge">
<title>Node2&#45;&gt;Node3</title>
<path fill="none" stroke="midnightblue" d="M613.54,-67.48C602.05,-58.11 583.37,-42.88 569.41,-31.51"/>
<polygon fill="midnightblue" stroke="midnightblue" points="571.4,-28.61 561.44,-25.01 566.98,-34.04 571.4,-28.61"/>
</g>
<!-- Node4 -->
<g id="node4" class="node">
<title>Node4</title>
<g id="a_node4"><a xlink:href="thread-config_8h.html" target="_top" xlink:title=" ">
<polygon fill="white" stroke="black" points="633,-0.5 633,-30.5 761,-30.5 761,-0.5 633,-0.5"/>
<text text-anchor="start" x="641" y="-18.5" font-family="'Souce Sans Pro', Roboto, FreeSans, sans-serif" font-size="10.00">log4cplus/helpers/thread</text>
<text text-anchor="middle" x="697" y="-7.5" font-family="'Souce Sans Pro', Roboto, FreeSans, sans-serif" font-size="10.00">&#45;config.h</text>
</a>
</g>
</g>
<!-- Node2&#45;&gt;Node4 -->
<g id="edge3" class="edge">
<title>Node2&#45;&gt;Node4</title>
<path fill="none" stroke="midnightblue" d="M634.46,-67.48C644.16,-59.57 658.99,-47.48 671.77,-37.07"/>
<polygon fill="midnightblue" stroke="midnightblue" points="674.26,-39.55 679.8,-30.52 669.83,-34.13 674.26,-39.55"/>
</g>
<!-- Node5&#45;&gt;Node2 -->
<g id="edge5" class="edge">
<title>Node5&#45;&gt;Node2</title>
<path fill="none" stroke="midnightblue" d="M332.99,-354.84C233.9,-341.49 38,-307.35 38,-246 38,-246 38,-246 38,-188 38,-151.82 55.32,-140.48 87,-123 127.47,-100.67 425.41,-86 559.23,-80.47"/>
<polygon fill="midnightblue" stroke="midnightblue" points="559.5,-83.96 569.35,-80.06 559.22,-76.97 559.5,-83.96"/>
</g>
<!-- Node6 -->
<g id="node6" class="node">
<title>Node6</title>
<g id="a_node6"><a xlink:href="layout_8h.html" target="_top" xlink:title=" ">
<polygon fill="white" stroke="black" points="774,-291.5 774,-310.5 872,-310.5 872,-291.5 774,-291.5"/>
<text text-anchor="middle" x="823" y="-298.5" font-family="'Souce Sans Pro', Roboto, FreeSans, sans-serif" font-size="10.00">log4cplus/layout.h</text>
</a>
</g>
</g>
<!-- Node5&#45;&gt;Node6 -->
<g id="edge6" class="edge">
<title>Node5&#45;&gt;Node6</title>
<path fill="none" stroke="midnightblue" d="M445.29,-353.78C527.53,-342.51 679.81,-321.63 763.71,-310.13"/>
<polygon fill="midnightblue" stroke="midnightblue" points="764.41,-313.57 773.84,-308.74 763.46,-306.63 764.41,-313.57"/>
</g>
<!-- Node7 -->
<g id="node7" class="node">
<title>Node7</title>
<g id="a_node7"><a xlink:href="loglevel_8h.html" target="_top" xlink:title="This header defines the LogLevel type.">
<polygon fill="white" stroke="black" points="653,-235.5 653,-254.5 757,-254.5 757,-235.5 653,-235.5"/>
<text text-anchor="middle" x="705" y="-242.5" font-family="'Souce Sans Pro', Roboto, FreeSans, sans-serif" font-size="10.00">log4cplus/loglevel.h</text>
</a>
</g>
</g>
<!-- Node5&#45;&gt;Node7 -->
<g id="edge29" class="edge">
<title>Node5&#45;&gt;Node7</title>
<path fill="none" stroke="midnightblue" d="M445.21,-359.28C498,-355.16 577.81,-343.52 639,-311 661.08,-299.26 680.69,-277.81 692.68,-262.77"/>
<polygon fill="midnightblue" stroke="midnightblue" points="695.5,-264.83 698.82,-254.77 689.95,-260.57 695.5,-264.83"/>
</g>
<!-- Node9 -->
<g id="node9" class="node">
<title>Node9</title>
<g id="a_node9"><a xlink:href="tstring_8h.html" target="_top" xlink:title=" ">
<polygon fill="white" stroke="black" points="671.5,-179.5 671.5,-198.5 770.5,-198.5 770.5,-179.5 671.5,-179.5"/>
<text text-anchor="middle" x="721" y="-186.5" font-family="'Souce Sans Pro', Roboto, FreeSans, sans-serif" font-size="10.00">log4cplus/tstring.h</text>
</a>
</g>
</g>
<!-- Node5&#45;&gt;Node9 -->
<g id="edge30" class="edge">
<title>Node5&#45;&gt;Node9</title>
<path fill="none" stroke="midnightblue" d="M407.47,-352.88C445.15,-335.2 533.43,-293.27 606,-255 638.09,-238.07 674.44,-217.24 697.52,-203.8"/>
<polygon fill="midnightblue" stroke="midnightblue" points="699.4,-206.76 706.27,-198.69 695.87,-200.72 699.4,-206.76"/>
</g>
<!-- Node18 -->
<g id="node18" class="node">
<title>Node18</title>
<g id="a_node18"><a xlink:title=" ">
<polygon fill="white" stroke="#bfbfbf" points="1099,-235.5 1099,-254.5 1153,-254.5 1153,-235.5 1099,-235.5"/>
<text text-anchor="middle" x="1126" y="-242.5" font-family="'Souce Sans Pro', Roboto, FreeSans, sans-serif" font-size="10.00">memory</text>
</a>
</g>
</g>
<!-- Node5&#45;&gt;Node18 -->
<g id="edge49" class="edge">
<title>Node5&#45;&gt;Node18</title>
<path fill="none" stroke="midnightblue" d="M445.41,-358.41C556.72,-351.88 800.76,-335.24 881,-311 899.27,-305.48 901.07,-297.53 919,-291 949.79,-279.78 1038.04,-262.38 1088.82,-252.83"/>
<polygon fill="midnightblue" stroke="midnightblue" points="1089.56,-256.25 1098.75,-250.98 1088.27,-249.37 1089.56,-256.25"/>
</g>
<!-- Node19 -->
<g id="node19" class="node">
<title>Node19</title>
<g id="a_node19"><a xlink:href="pointer_8h.html" target="_top" xlink:title=" ">
<polygon fill="white" stroke="black" points="185,-235.5 185,-254.5 323,-254.5 323,-235.5 185,-235.5"/>
<text text-anchor="middle" x="254" y="-242.5" font-family="'Souce Sans Pro', Roboto, FreeSans, sans-serif" font-size="10.00">log4cplus/helpers/pointer.h</text>
</a>
</g>
</g>
<!-- Node5&#45;&gt;Node19 -->
<g id="edge31" class="edge">
<title>Node5&#45;&gt;Node19</title>
<path fill="none" stroke="midnightblue" d="M377.69,-352.76C364.95,-342.84 343.72,-326.08 326,-311 306.7,-294.58 285.22,-275.01 270.78,-261.66"/>
<polygon fill="midnightblue" stroke="midnightblue" points="272.88,-258.83 263.17,-254.59 268.11,-263.96 272.88,-258.83"/>
</g>
<!-- Node21 -->
<g id="node21" class="node">
<title>Node21</title>
<g id="a_node21"><a xlink:title=" ">
<polygon fill="white" stroke="#bfbfbf" points="96,-123.5 96,-142.5 140,-142.5 140,-123.5 96,-123.5"/>
<text text-anchor="middle" x="118" y="-130.5" font-family="'Souce Sans Pro', Roboto, FreeSans, sans-serif" font-size="10.00">mutex</text>
</a>
</g>
</g>
<!-- Node5&#45;&gt;Node21 -->
<g id="edge50" class="edge">
<title>Node5&#45;&gt;Node21</title>
<path fill="none" stroke="midnightblue" d="M332.69,-358.72C287.91,-354.11 225.45,-342.08 180,-311 127.39,-275.02 118.98,-190.58 117.94,-152.82"/>
<polygon fill="midnightblue" stroke="midnightblue" points="121.44,-152.66 117.82,-142.71 114.44,-152.75 121.44,-152.66"/>
</g>
<!-- Node22 -->
<g id="node22" class="node">
<title>Node22</title>
<g id="a_node22"><a xlink:title=" ">
<polygon fill="white" stroke="#bfbfbf" points="277,-123.5 277,-142.5 373,-142.5 373,-123.5 277,-123.5"/>
<text text-anchor="middle" x="325" y="-130.5" font-family="'Souce Sans Pro', Roboto, FreeSans, sans-serif" font-size="10.00">condition_variable</text>
</a>
</g>
</g>
<!-- Node5&#45;&gt;Node22 -->
<g id="edge52" class="edge">
<title>Node5&#45;&gt;Node22</title>
<path fill="none" stroke="midnightblue" d="M332.91,-354.34C295.97,-347.6 247.81,-334.83 211,-311 160.08,-278.04 148.17,-257.73 133,-199 130.78,-190.39 127.48,-185.97 133,-179 149.47,-158.23 216.25,-146.12 266.46,-139.8"/>
<polygon fill="midnightblue" stroke="midnightblue" points="267.07,-143.25 276.58,-138.57 266.23,-136.3 267.07,-143.25"/>
</g>
<!-- Node25 -->
<g id="node25" class="node">
<title>Node25</title>
<g id="a_node25"><a xlink:title=" ">
<polygon fill="white" stroke="#bfbfbf" points="142.5,-179.5 142.5,-198.5 189.5,-198.5 189.5,-179.5 142.5,-179.5"/>
<text text-anchor="middle" x="166" y="-186.5" font-family="'Souce Sans Pro', Roboto, FreeSans, sans-serif" font-size="10.00">atomic</text>
</a>
</g>
</g>
<!-- Node5&#45;&gt;Node25 -->
<g id="edge51" class="edge">
<title>Node5&#45;&gt;Node25</title>
<path fill="none" stroke="midnightblue" d="M347.92,-352.97C298.69,-340.46 217.65,-312.13 176,-255 166.33,-241.74 164.37,-222.87 164.51,-208.88"/>
<polygon fill="midnightblue" stroke="midnightblue" points="168.02,-208.66 164.99,-198.5 161.03,-208.33 168.02,-208.66"/>
</g>
<!-- Node26 -->
<g id="node26" class="node">
<title>Node26</title>
<g id="a_node26"><a xlink:href="filter_8h.html" target="_top" xlink:title="This header defines Filter and all of it&#39;s subclasses.">
<polygon fill="white" stroke="black" points="335.5,-291.5 335.5,-310.5 442.5,-310.5 442.5,-291.5 335.5,-291.5"/>
<text text-anchor="middle" x="389" y="-298.5" font-family="'Souce Sans Pro', Roboto, FreeSans, sans-serif" font-size="10.00">log4cplus/spi/filter.h</text>
</a>
</g>
</g>
<!-- Node5&#45;&gt;Node26 -->
<g id="edge40" class="edge">
<title>Node5&#45;&gt;Node26</title>
<path fill="none" stroke="midnightblue" d="M389,-352.98C389,-344.58 389,-331.48 389,-320.66"/>
<polygon fill="midnightblue" stroke="midnightblue" points="392.5,-320.51 389,-310.51 385.5,-320.51 392.5,-320.51"/>
</g>
<!-- Node28 -->
<g id="node28" class="node">
<title>Node28</title>
<g id="a_node28"><a xlink:href="lockfile_8h.html" target="_top" xlink:title=" ">
<polygon fill="white" stroke="black" points="457,-235.5 457,-254.5 597,-254.5 597,-235.5 457,-235.5"/>
<text text-anchor="middle" x="527" y="-242.5" font-family="'Souce Sans Pro', Roboto, FreeSans, sans-serif" font-size="10.00">log4cplus/helpers/lockfile.h</text>
</a>
</g>
</g>
<!-- Node5&#45;&gt;Node28 -->
<g id="edge45" class="edge">
<title>Node5&#45;&gt;Node28</title>
<path fill="none" stroke="midnightblue" d="M399.59,-353C411.99,-343.02 433.09,-325.95 451,-311 471.02,-294.29 493.71,-274.82 509.04,-261.57"/>
<polygon fill="midnightblue" stroke="midnightblue" points="511.47,-264.1 516.74,-254.91 506.89,-258.81 511.47,-264.1"/>
</g>
<!-- Node6&#45;&gt;Node2 -->
<g id="edge7" class="edge">
<title>Node6&#45;&gt;Node2</title>
<path fill="none" stroke="midnightblue" d="M827.71,-291.49C838.44,-270.87 862.26,-217.12 842,-179 812.38,-123.29 741.67,-98.16 688.75,-86.91"/>
<polygon fill="midnightblue" stroke="midnightblue" points="689.25,-83.44 678.76,-84.91 687.87,-90.3 689.25,-83.44"/>
</g>
<!-- Node6&#45;&gt;Node7 -->
<g id="edge8" class="edge">
<title>Node6&#45;&gt;Node7</title>
<path fill="none" stroke="midnightblue" d="M804.3,-291.44C785.06,-282.64 754.85,-268.81 732.8,-258.72"/>
<polygon fill="midnightblue" stroke="midnightblue" points="734.16,-255.5 723.61,-254.52 731.25,-261.86 734.16,-255.5"/>
</g>
<!-- Node8 -->
<g id="node8" class="node">
<title>Node8</title>
<g id="a_node8"><a xlink:title=" ">
<polygon fill="white" stroke="#bfbfbf" points="789,-179.5 789,-198.5 833,-198.5 833,-179.5 789,-179.5"/>
<text text-anchor="middle" x="811" y="-186.5" font-family="'Souce Sans Pro', Roboto, FreeSans, sans-serif" font-size="10.00">vector</text>
</a>
</g>
</g>
<!-- Node6&#45;&gt;Node8 -->
<g id="edge27" class="edge">
<title>Node6&#45;&gt;Node8</title>
<path fill="none" stroke="midnightblue" d="M822.06,-291.37C820.12,-273.62 815.65,-232.67 813.03,-208.6"/>
<polygon fill="midnightblue" stroke="midnightblue" points="816.5,-208.15 811.94,-198.59 809.54,-208.91 816.5,-208.15"/>
</g>
<!-- Node6&#45;&gt;Node9 -->
<g id="edge21" class="edge">
<title>Node6&#45;&gt;Node9</title>
<path fill="none" stroke="midnightblue" d="M815.79,-291.43C805.15,-278.84 784.47,-254.72 766,-235 756.75,-225.12 746.05,-214.39 737.4,-205.89"/>
<polygon fill="midnightblue" stroke="midnightblue" points="739.74,-203.28 730.14,-198.8 734.85,-208.29 739.74,-203.28"/>
</g>
<!-- Node13 -->
<g id="node13" class="node">
<title>Node13</title>
<g id="a_node13"><a xlink:href="streams_8h.html" target="_top" xlink:title=" ">
<polygon fill="white" stroke="black" points="1051.5,-179.5 1051.5,-198.5 1158.5,-198.5 1158.5,-179.5 1051.5,-179.5"/>
<text text-anchor="middle" x="1105" y="-186.5" font-family="'Souce Sans Pro', Roboto, FreeSans, sans-serif" font-size="10.00">log4cplus/streams.h</text>
</a>
</g>
</g>
<!-- Node6&#45;&gt;Node13 -->
<g id="edge17" class="edge">
<title>Node6&#45;&gt;Node13</title>
<path fill="none" stroke="midnightblue" d="M872.17,-292.16C934.79,-281.9 1036.76,-264.15 1052,-255 1071.05,-243.57 1086.22,-222.68 1095.37,-207.66"/>
<polygon fill="midnightblue" stroke="midnightblue" points="1098.51,-209.21 1100.49,-198.8 1092.45,-205.7 1098.51,-209.21"/>
</g>
<!-- Node15 -->
<g id="node15" class="node">
<title>Node15</title>
<g id="a_node15"><a xlink:href="timehelper_8h.html" target="_top" xlink:title=" ">
<polygon fill="white" stroke="black" points="889,-235.5 889,-254.5 1043,-254.5 1043,-235.5 889,-235.5"/>
<text text-anchor="middle" x="966" y="-242.5" font-family="'Souce Sans Pro', Roboto, FreeSans, sans-serif" font-size="10.00">log4cplus/helpers/timehelper.h</text>
</a>
</g>
</g>
<!-- Node6&#45;&gt;Node15 -->
<g id="edge22" class="edge">
<title>Node6&#45;&gt;Node15</title>
<path fill="none" stroke="midnightblue" d="M845.66,-291.44C869.4,-282.48 906.91,-268.31 933.74,-258.18"/>
<polygon fill="midnightblue" stroke="midnightblue" points="935.33,-261.32 943.45,-254.52 932.86,-254.77 935.33,-261.32"/>
</g>
<!-- Node6&#45;&gt;Node18 -->
<g id="edge28" class="edge">
<title>Node6&#45;&gt;Node18</title>
<path fill="none" stroke="midnightblue" d="M872.38,-292.21C925.14,-283.73 1011.17,-269.44 1085,-255 1086.25,-254.76 1087.51,-254.5 1088.79,-254.25"/>
<polygon fill="midnightblue" stroke="midnightblue" points="1089.62,-257.65 1098.69,-252.18 1088.18,-250.8 1089.62,-257.65"/>
</g>
<!-- Node7&#45;&gt;Node2 -->
<g id="edge9" class="edge">
<title>Node7&#45;&gt;Node2</title>
<path fill="none" stroke="midnightblue" d="M694.37,-235.41C684.66,-227.05 670.57,-213.51 662,-199 642.39,-165.79 631.82,-121.37 627.11,-96.64"/>
<polygon fill="midnightblue" stroke="midnightblue" points="630.55,-96 625.34,-86.77 623.66,-97.23 630.55,-96"/>
</g>
<!-- Node7&#45;&gt;Node8 -->
<g id="edge10" class="edge">
<title>Node7&#45;&gt;Node8</title>
<path fill="none" stroke="midnightblue" d="M722.03,-235.32C739.03,-226.66 765.38,-213.24 784.99,-203.25"/>
<polygon fill="midnightblue" stroke="midnightblue" points="786.69,-206.31 794.01,-198.65 783.51,-200.08 786.69,-206.31"/>
</g>
<!-- Node7&#45;&gt;Node9 -->
<g id="edge11" class="edge">
<title>Node7&#45;&gt;Node9</title>
<path fill="none" stroke="midnightblue" d="M707.64,-235.08C709.79,-227.85 712.88,-217.41 715.55,-208.4"/>
<polygon fill="midnightblue" stroke="midnightblue" points="718.92,-209.33 718.41,-198.75 712.21,-207.34 718.92,-209.33"/>
</g>
<!-- Node9&#45;&gt;Node2 -->
<g id="edge12" class="edge">
<title>Node9&#45;&gt;Node2</title>
<path fill="none" stroke="midnightblue" d="M713.39,-179.37C697.24,-161.05 659.32,-118.05 638.43,-94.36"/>
<polygon fill="midnightblue" stroke="midnightblue" points="640.82,-91.78 631.58,-86.59 635.56,-96.41 640.82,-91.78"/>
</g>
<!-- Node10 -->
<g id="node10" class="node">
<title>Node10</title>
<g id="a_node10"><a xlink:title=" ">
<polygon fill="white" stroke="#bfbfbf" points="709.5,-123.5 709.5,-142.5 750.5,-142.5 750.5,-123.5 709.5,-123.5"/>
<text text-anchor="middle" x="730" y="-130.5" font-family="'Souce Sans Pro', Roboto, FreeSans, sans-serif" font-size="10.00">string</text>
</a>
</g>
</g>
<!-- Node9&#45;&gt;Node10 -->
<g id="edge13" class="edge">
<title>Node9&#45;&gt;Node10</title>
<path fill="none" stroke="midnightblue" d="M722.49,-179.08C723.68,-171.93 725.39,-161.64 726.88,-152.69"/>
<polygon fill="midnightblue" stroke="midnightblue" points="730.35,-153.19 728.54,-142.75 723.45,-152.04 730.35,-153.19"/>
</g>
<!-- Node11 -->
<g id="node11" class="node">
<title>Node11</title>
<g id="a_node11"><a xlink:href="tchar_8h.html" target="_top" xlink:title=" ">
<polygon fill="white" stroke="black" points="965.5,-123.5 965.5,-142.5 1058.5,-142.5 1058.5,-123.5 965.5,-123.5"/>
<text text-anchor="middle" x="1012" y="-130.5" font-family="'Souce Sans Pro', Roboto, FreeSans, sans-serif" font-size="10.00">log4cplus/tchar.h</text>
</a>
</g>
</g>
<!-- Node9&#45;&gt;Node11 -->
<g id="edge14" class="edge">
<title>Node9&#45;&gt;Node11</title>
<path fill="none" stroke="midnightblue" d="M767.11,-179.44C818.41,-169.92 901.27,-154.55 956.19,-144.36"/>
<polygon fill="midnightblue" stroke="midnightblue" points="956.91,-147.78 966.11,-142.52 955.64,-140.9 956.91,-147.78"/>
</g>
<!-- Node11&#45;&gt;Node2 -->
<g id="edge15" class="edge">
<title>Node11&#45;&gt;Node2</title>
<path fill="none" stroke="midnightblue" d="M965.38,-125.07C960.53,-124.37 955.66,-123.66 951,-123 860.13,-110.04 754.95,-95.68 688.95,-86.75"/>
<polygon fill="midnightblue" stroke="midnightblue" points="689.08,-83.23 678.7,-85.36 688.14,-90.17 689.08,-83.23"/>
</g>
<!-- Node12 -->
<g id="node12" class="node">
<title>Node12</title>
<g id="a_node12"><a xlink:title=" ">
<polygon fill="white" stroke="#bfbfbf" points="986.5,-67.5 986.5,-86.5 1037.5,-86.5 1037.5,-67.5 986.5,-67.5"/>
<text text-anchor="middle" x="1012" y="-74.5" font-family="'Souce Sans Pro', Roboto, FreeSans, sans-serif" font-size="10.00">cstddef</text>
</a>
</g>
</g>
<!-- Node11&#45;&gt;Node12 -->
<g id="edge16" class="edge">
<title>Node11&#45;&gt;Node12</title>
<path fill="none" stroke="midnightblue" d="M1012,-123.08C1012,-116.01 1012,-105.86 1012,-96.99"/>
<polygon fill="midnightblue" stroke="midnightblue" points="1015.5,-96.75 1012,-86.75 1008.5,-96.75 1015.5,-96.75"/>
</g>
<!-- Node13&#45;&gt;Node2 -->
<g id="edge18" class="edge">
<title>Node13&#45;&gt;Node2</title>
<path fill="none" stroke="midnightblue" d="M1072.55,-179.46C1042.28,-171.18 996.07,-157.75 957,-143 936.9,-135.41 933.58,-129.15 913,-123 837.69,-100.48 747.79,-88.74 688.48,-82.98"/>
<polygon fill="midnightblue" stroke="midnightblue" points="688.79,-79.49 678.5,-82.04 688.13,-86.46 688.79,-79.49"/>
</g>
<!-- Node13&#45;&gt;Node11 -->
<g id="edge19" class="edge">
<title>Node13&#45;&gt;Node11</title>
<path fill="none" stroke="midnightblue" d="M1090.06,-179.32C1075.41,-170.82 1052.87,-157.73 1035.76,-147.8"/>
<polygon fill="midnightblue" stroke="midnightblue" points="1037.31,-144.65 1026.9,-142.65 1033.8,-150.7 1037.31,-144.65"/>
</g>
<!-- Node14 -->
<g id="node14" class="node">
<title>Node14</title>
<g id="a_node14"><a xlink:title=" ">
<polygon fill="white" stroke="#bfbfbf" points="1081.5,-123.5 1081.5,-142.5 1128.5,-142.5 1128.5,-123.5 1081.5,-123.5"/>
<text text-anchor="middle" x="1105" y="-130.5" font-family="'Souce Sans Pro', Roboto, FreeSans, sans-serif" font-size="10.00">iosfwd</text>
</a>
</g>
</g>
<!-- Node13&#45;&gt;Node14 -->
<g id="edge20" class="edge">
<title>Node13&#45;&gt;Node14</title>
<path fill="none" stroke="midnightblue" d="M1105,-179.08C1105,-172.01 1105,-161.86 1105,-152.99"/>
<polygon fill="midnightblue" stroke="midnightblue" points="1108.5,-152.75 1105,-142.75 1101.5,-152.75 1108.5,-152.75"/>
</g>
<!-- Node15&#45;&gt;Node2 -->
<g id="edge23" class="edge">
<title>Node15&#45;&gt;Node2</title>
<path fill="none" stroke="midnightblue" d="M954.79,-235.18C944.43,-226.65 929.01,-213.01 918,-199 894.01,-168.49 906.66,-145.44 875,-123 845.73,-102.25 752.91,-89.74 688.75,-83.35"/>
<polygon fill="midnightblue" stroke="midnightblue" points="689,-79.86 678.71,-82.38 688.32,-86.82 689,-79.86"/>
</g>
<!-- Node15&#45;&gt;Node9 -->
<g id="edge24" class="edge">
<title>Node15&#45;&gt;Node9</title>
<path fill="none" stroke="midnightblue" d="M927.18,-235.44C884.44,-226.02 815.67,-210.87 769.43,-200.68"/>
<polygon fill="midnightblue" stroke="midnightblue" points="770.16,-197.25 759.64,-198.52 768.65,-204.09 770.16,-197.25"/>
</g>
<!-- Node16 -->
<g id="node16" class="node">
<title>Node16</title>
<g id="a_node16"><a xlink:title=" ">
<polygon fill="white" stroke="#bfbfbf" points="927.5,-179.5 927.5,-198.5 968.5,-198.5 968.5,-179.5 927.5,-179.5"/>
<text text-anchor="middle" x="948" y="-186.5" font-family="'Souce Sans Pro', Roboto, FreeSans, sans-serif" font-size="10.00">ctime</text>
</a>
</g>
</g>
<!-- Node15&#45;&gt;Node16 -->
<g id="edge25" class="edge">
<title>Node15&#45;&gt;Node16</title>
<path fill="none" stroke="midnightblue" d="M963.03,-235.08C960.62,-227.85 957.14,-217.41 954.13,-208.4"/>
<polygon fill="midnightblue" stroke="midnightblue" points="957.4,-207.13 950.92,-198.75 950.76,-209.34 957.4,-207.13"/>
</g>
<!-- Node17 -->
<g id="node17" class="node">
<title>Node17</title>
<g id="a_node17"><a xlink:title=" ">
<polygon fill="white" stroke="#bfbfbf" points="986.5,-179.5 986.5,-198.5 1033.5,-198.5 1033.5,-179.5 986.5,-179.5"/>
<text text-anchor="middle" x="1010" y="-186.5" font-family="'Souce Sans Pro', Roboto, FreeSans, sans-serif" font-size="10.00">chrono</text>
</a>
</g>
</g>
<!-- Node15&#45;&gt;Node17 -->
<g id="edge26" class="edge">
<title>Node15&#45;&gt;Node17</title>
<path fill="none" stroke="midnightblue" d="M973.27,-235.08C979.54,-227.38 988.79,-216.03 996.43,-206.65"/>
<polygon fill="midnightblue" stroke="midnightblue" points="999.27,-208.71 1002.87,-198.75 993.84,-204.29 999.27,-208.71"/>
</g>
<!-- Node19&#45;&gt;Node2 -->
<g id="edge32" class="edge">
<title>Node19&#45;&gt;Node2</title>
<path fill="none" stroke="midnightblue" d="M319.1,-235.49C389.73,-225.8 494.57,-209.9 510,-199 541.7,-176.61 526.25,-151.12 553,-123 565.38,-109.99 582.26,-99.09 596.45,-91.28"/>
<polygon fill="midnightblue" stroke="midnightblue" points="598.11,-94.36 605.32,-86.6 594.84,-88.17 598.11,-94.36"/>
</g>
<!-- Node20 -->
<g id="node20" class="node">
<title>Node20</title>
<g id="a_node20"><a xlink:href="syncprims_8h.html" target="_top" xlink:title=" ">
<polygon fill="white" stroke="black" points="352.5,-179.5 352.5,-198.5 501.5,-198.5 501.5,-179.5 352.5,-179.5"/>
<text text-anchor="middle" x="427" y="-186.5" font-family="'Souce Sans Pro', Roboto, FreeSans, sans-serif" font-size="10.00">log4cplus/thread/syncprims.h</text>
</a>
</g>
</g>
<!-- Node19&#45;&gt;Node20 -->
<g id="edge33" class="edge">
<title>Node19&#45;&gt;Node20</title>
<path fill="none" stroke="midnightblue" d="M281.41,-235.44C310.77,-226.28 357.52,-211.69 390.1,-201.52"/>
<polygon fill="midnightblue" stroke="midnightblue" points="391.21,-204.84 399.72,-198.52 389.13,-198.16 391.21,-204.84"/>
</g>
<!-- Node23 -->
<g id="node23" class="node">
<title>Node23</title>
<g id="a_node23"><a xlink:title=" ">
<polygon fill="white" stroke="#bfbfbf" points="207.5,-179.5 207.5,-198.5 266.5,-198.5 266.5,-179.5 207.5,-179.5"/>
<text text-anchor="middle" x="237" y="-186.5" font-family="'Souce Sans Pro', Roboto, FreeSans, sans-serif" font-size="10.00">algorithm</text>
</a>
</g>
</g>
<!-- Node19&#45;&gt;Node23 -->
<g id="edge37" class="edge">
<title>Node19&#45;&gt;Node23</title>
<path fill="none" stroke="midnightblue" d="M251.19,-235.08C248.92,-227.85 245.63,-217.41 242.79,-208.4"/>
<polygon fill="midnightblue" stroke="midnightblue" points="246.1,-207.24 239.75,-198.75 239.42,-209.34 246.1,-207.24"/>
</g>
<!-- Node24 -->
<g id="node24" class="node">
<title>Node24</title>
<g id="a_node24"><a xlink:title=" ">
<polygon fill="white" stroke="#bfbfbf" points="285,-179.5 285,-198.5 335,-198.5 335,-179.5 285,-179.5"/>
<text text-anchor="middle" x="310" y="-186.5" font-family="'Souce Sans Pro', Roboto, FreeSans, sans-serif" font-size="10.00">cassert</text>
</a>
</g>
</g>
<!-- Node19&#45;&gt;Node24 -->
<g id="edge38" class="edge">
<title>Node19&#45;&gt;Node24</title>
<path fill="none" stroke="midnightblue" d="M263,-235.32C271.19,-227.42 283.51,-215.55 293.47,-205.94"/>
<polygon fill="midnightblue" stroke="midnightblue" points="296.07,-208.29 300.84,-198.83 291.21,-203.26 296.07,-208.29"/>
</g>
<!-- Node19&#45;&gt;Node25 -->
<g id="edge39" class="edge">
<title>Node19&#45;&gt;Node25</title>
<path fill="none" stroke="midnightblue" d="M239.86,-235.32C226.13,-226.9 205.06,-213.97 188.94,-204.07"/>
<polygon fill="midnightblue" stroke="midnightblue" points="190.46,-200.9 180.1,-198.65 186.8,-206.87 190.46,-200.9"/>
</g>
<!-- Node20&#45;&gt;Node2 -->
<g id="edge34" class="edge">
<title>Node20&#45;&gt;Node2</title>
<path fill="none" stroke="midnightblue" d="M437,-179.33C452.77,-165.96 484.73,-140.09 515,-123 538.66,-109.65 567.07,-98.05 588.96,-89.97"/>
<polygon fill="midnightblue" stroke="midnightblue" points="590.3,-93.21 598.51,-86.51 587.92,-86.63 590.3,-93.21"/>
</g>
<!-- Node20&#45;&gt;Node21 -->
<g id="edge35" class="edge">
<title>Node20&#45;&gt;Node21</title>
<path fill="none" stroke="midnightblue" d="M378.04,-179.44C314.22,-168.29 204.39,-149.1 150.18,-139.62"/>
<polygon fill="midnightblue" stroke="midnightblue" points="150.57,-136.14 140.11,-137.86 149.36,-143.03 150.57,-136.14"/>
</g>
<!-- Node20&#45;&gt;Node22 -->
<g id="edge36" class="edge">
<title>Node20&#45;&gt;Node22</title>
<path fill="none" stroke="midnightblue" d="M410.61,-179.32C394.33,-170.7 369.13,-157.36 350.28,-147.39"/>
<polygon fill="midnightblue" stroke="midnightblue" points="351.82,-144.24 341.35,-142.65 348.55,-150.43 351.82,-144.24"/>
</g>
<!-- Node26&#45;&gt;Node2 -->
<g id="edge41" class="edge">
<title>Node26&#45;&gt;Node2</title>
<path fill="none" stroke="midnightblue" d="M394.95,-291.32C404.66,-277.71 425.13,-251.23 448,-235 481.46,-211.26 500.67,-224.26 533,-199 570.48,-169.71 600.45,-121.36 614.79,-95.54"/>
<polygon fill="midnightblue" stroke="midnightblue" points="617.98,-97 619.66,-86.54 611.82,-93.67 617.98,-97"/>
</g>
<!-- Node26&#45;&gt;Node7 -->
<g id="edge44" class="edge">
<title>Node26&#45;&gt;Node7</title>
<path fill="none" stroke="midnightblue" d="M439.07,-291.44C495.01,-281.89 585.51,-266.42 645.14,-256.23"/>
<polygon fill="midnightblue" stroke="midnightblue" points="645.9,-259.65 655.16,-254.52 644.72,-252.75 645.9,-259.65"/>
</g>
<!-- Node26&#45;&gt;Node19 -->
<g id="edge43" class="edge">
<title>Node26&#45;&gt;Node19</title>
<path fill="none" stroke="midnightblue" d="M367.61,-291.44C345.29,-282.52 310.1,-268.44 284.79,-258.32"/>
<polygon fill="midnightblue" stroke="midnightblue" points="285.88,-254.98 275.29,-254.52 283.28,-261.48 285.88,-254.98"/>
</g>
<!-- Node27 -->
<g id="node27" class="node">
<title>Node27</title>
<g id="a_node27"><a xlink:title=" ">
<polygon fill="white" stroke="#bfbfbf" points="341,-235.5 341,-254.5 401,-254.5 401,-235.5 341,-235.5"/>
<text text-anchor="middle" x="371" y="-242.5" font-family="'Souce Sans Pro', Roboto, FreeSans, sans-serif" font-size="10.00">functional</text>
</a>
</g>
</g>
<!-- Node26&#45;&gt;Node27 -->
<g id="edge42" class="edge">
<title>Node26&#45;&gt;Node27</title>
<path fill="none" stroke="midnightblue" d="M386.03,-291.08C383.62,-283.85 380.14,-273.41 377.13,-264.4"/>
<polygon fill="midnightblue" stroke="midnightblue" points="380.4,-263.13 373.92,-254.75 373.76,-265.34 380.4,-263.13"/>
</g>
<!-- Node28&#45;&gt;Node2 -->
<g id="edge46" class="edge">
<title>Node28&#45;&gt;Node2</title>
<path fill="none" stroke="midnightblue" d="M541.24,-235.29C553.34,-227.23 570.39,-214.22 581,-199 603.44,-166.8 615.35,-121.67 620.6,-96.62"/>
<polygon fill="midnightblue" stroke="midnightblue" points="624.07,-97.12 622.56,-86.64 617.2,-95.78 624.07,-97.12"/>
</g>
<!-- Node28&#45;&gt;Node9 -->
<g id="edge47" class="edge">
<title>Node28&#45;&gt;Node9</title>
<path fill="none" stroke="midnightblue" d="M557.74,-235.44C590.94,-226.2 643.99,-211.44 680.56,-201.26"/>
<polygon fill="midnightblue" stroke="midnightblue" points="681.71,-204.57 690.4,-198.52 679.83,-197.83 681.71,-204.57"/>
</g>
<!-- Node28&#45;&gt;Node20 -->
<g id="edge48" class="edge">
<title>Node28&#45;&gt;Node20</title>
<path fill="none" stroke="midnightblue" d="M510.93,-235.32C495.04,-226.74 470.49,-213.49 452.04,-203.52"/>
<polygon fill="midnightblue" stroke="midnightblue" points="453.49,-200.33 443.03,-198.65 450.16,-206.49 453.49,-200.33"/>
</g>
<!-- Node30 -->
<g id="node30" class="node">
<title>Node30</title>
<g id="a_node30"><a xlink:title=" ">
<polygon fill="white" stroke="#bfbfbf" points="928.5,-291.5 928.5,-310.5 995.5,-310.5 995.5,-291.5 928.5,-291.5"/>
<text text-anchor="middle" x="962" y="-298.5" font-family="'Souce Sans Pro', Roboto, FreeSans, sans-serif" font-size="10.00">winsock2.h</text>
</a>
</g>
</g>
<!-- Node29&#45;&gt;Node30 -->
<g id="edge54" class="edge">
<title>Node29&#45;&gt;Node30</title>
<path fill="none" stroke="midnightblue" d="M994.05,-347.4C988.01,-338.84 980.26,-327.87 973.9,-318.86"/>
<polygon fill="midnightblue" stroke="midnightblue" points="976.74,-316.81 968.11,-310.66 971.02,-320.85 976.74,-316.81"/>
</g>
<!-- Node31 -->
<g id="node31" class="node">
<title>Node31</title>
<g id="a_node31"><a xlink:title=" ">
<polygon fill="white" stroke="#bfbfbf" points="1014,-291.5 1014,-310.5 1078,-310.5 1078,-291.5 1014,-291.5"/>
<text text-anchor="middle" x="1046" y="-298.5" font-family="'Souce Sans Pro', Roboto, FreeSans, sans-serif" font-size="10.00">ws2tcpip.h</text>
</a>
</g>
</g>
<!-- Node29&#45;&gt;Node31 -->
<g id="edge55" class="edge">
<title>Node29&#45;&gt;Node31</title>
<path fill="none" stroke="midnightblue" d="M1013.95,-347.4C1019.99,-338.84 1027.74,-327.87 1034.1,-318.86"/>
<polygon fill="midnightblue" stroke="midnightblue" points="1036.98,-320.85 1039.89,-310.66 1031.26,-316.81 1036.98,-320.85"/>
</g>
<!-- Node32 -->
<g id="node32" class="node">
<title>Node32</title>
<g id="a_node32"><a xlink:title=" ">
<polygon fill="white" stroke="#bfbfbf" points="1096.5,-291.5 1096.5,-310.5 1161.5,-310.5 1161.5,-291.5 1096.5,-291.5"/>
<text text-anchor="middle" x="1129" y="-298.5" font-family="'Souce Sans Pro', Roboto, FreeSans, sans-serif" font-size="10.00">windows.h</text>
</a>
</g>
</g>
<!-- Node29&#45;&gt;Node32 -->
<g id="edge56" class="edge">
<title>Node29&#45;&gt;Node32</title>
<path fill="none" stroke="midnightblue" d="M1033.62,-347.4C1054.22,-337.59 1081.48,-324.62 1101.58,-315.05"/>
<polygon fill="midnightblue" stroke="midnightblue" points="1103.29,-318.12 1110.81,-310.66 1100.28,-311.8 1103.29,-318.12"/>
</g>
</g>
</svg>
