<?xml version="1.0" encoding="UTF-8" standalone="no"?>
<!DOCTYPE svg PUBLIC "-//W3C//DTD SVG 1.1//EN"
 "http://www.w3.org/Graphics/SVG/1.1/DTD/svg11.dtd">
<!-- Generated by graphviz version 2.43.0 (0)
 -->
<!-- Title: pointer.h Pages: 1 -->
<svg width="2343pt" height="420pt"
 viewBox="0.00 0.00 2343.00 420.00" xmlns="http://www.w3.org/2000/svg" xmlns:xlink="http://www.w3.org/1999/xlink">
<g id="graph0" class="graph" transform="scale(1 1) rotate(0) translate(4 416)">
<title>pointer.h</title>
<polygon fill="white" stroke="transparent" points="-4,4 -4,-416 2339,-416 2339,4 -4,4"/>
<!-- Node1 -->
<g id="node1" class="node">
<title>Node1</title>
<g id="a_node1"><a xlink:title=" ">
<polygon fill="#bfbfbf" stroke="black" points="681.5,-392.5 681.5,-411.5 736.5,-411.5 736.5,-392.5 681.5,-392.5"/>
<text text-anchor="middle" x="709" y="-399.5" font-family="'Souce Sans Pro', Roboto, FreeSans, sans-serif" font-size="10.00">pointer.h</text>
</a>
</g>
</g>
<!-- Node2 -->
<g id="node2" class="node">
<title>Node2</title>
<g id="a_node2"><a xlink:href="appender_8h.html" target="_top" xlink:title=" ">
<polygon fill="white" stroke="black" points="1196.5,-280.5 1196.5,-299.5 1261.5,-299.5 1261.5,-280.5 1196.5,-280.5"/>
<text text-anchor="middle" x="1229" y="-287.5" font-family="'Souce Sans Pro', Roboto, FreeSans, sans-serif" font-size="10.00">appender.h</text>
</a>
</g>
</g>
<!-- Node1&#45;&gt;Node2 -->
<g id="edge1" class="edge">
<title>Node1&#45;&gt;Node2</title>
<path fill="none" stroke="midnightblue" d="M746.59,-393.05C844.17,-372.41 1104.29,-317.38 1196.24,-297.93"/>
<polygon fill="midnightblue" stroke="midnightblue" points="745.65,-389.67 736.59,-395.16 747.1,-396.52 745.65,-389.67"/>
</g>
<!-- Node8 -->
<g id="node8" class="node">
<title>Node8</title>
<g id="a_node8"><a xlink:href="configurator_8h.html" target="_top" xlink:title=" ">
<polygon fill="white" stroke="black" points="798.5,-112.5 798.5,-131.5 875.5,-131.5 875.5,-112.5 798.5,-112.5"/>
<text text-anchor="middle" x="837" y="-119.5" font-family="'Souce Sans Pro', Roboto, FreeSans, sans-serif" font-size="10.00">configurator.h</text>
</a>
</g>
</g>
<!-- Node1&#45;&gt;Node8 -->
<g id="edge45" class="edge">
<title>Node1&#45;&gt;Node8</title>
<path fill="none" stroke="midnightblue" d="M746.54,-394.89C798.49,-384.05 886,-356.12 886,-291 886,-291 886,-291 886,-233 886,-192.02 857.28,-149.31 843.81,-131.54"/>
<polygon fill="midnightblue" stroke="midnightblue" points="745.79,-391.47 736.66,-396.84 747.14,-398.34 745.79,-391.47"/>
</g>
<!-- Node19 -->
<g id="node19" class="node">
<title>Node19</title>
<g id="a_node19"><a xlink:href="appenderattachable_8h.html" target="_top" xlink:title=" ">
<polygon fill="white" stroke="black" points="704,-224.5 704,-243.5 814,-243.5 814,-224.5 704,-224.5"/>
<text text-anchor="middle" x="759" y="-231.5" font-family="'Souce Sans Pro', Roboto, FreeSans, sans-serif" font-size="10.00">appenderattachable.h</text>
</a>
</g>
</g>
<!-- Node1&#45;&gt;Node19 -->
<g id="edge47" class="edge">
<title>Node1&#45;&gt;Node19</title>
<path fill="none" stroke="midnightblue" d="M714.6,-382.39C725.39,-346.59 748.66,-269.34 756.42,-243.57"/>
<polygon fill="midnightblue" stroke="midnightblue" points="711.22,-381.49 711.69,-392.08 717.92,-383.51 711.22,-381.49"/>
</g>
<!-- Node20 -->
<g id="node20" class="node">
<title>Node20</title>
<g id="a_node20"><a xlink:href="appenderattachableimpl_8h.html" target="_top" xlink:title=" ">
<polygon fill="white" stroke="black" points="508.5,-168.5 508.5,-187.5 637.5,-187.5 637.5,-168.5 508.5,-168.5"/>
<text text-anchor="middle" x="573" y="-175.5" font-family="'Souce Sans Pro', Roboto, FreeSans, sans-serif" font-size="10.00">appenderattachableimpl.h</text>
</a>
</g>
</g>
<!-- Node1&#45;&gt;Node20 -->
<g id="edge46" class="edge">
<title>Node1&#45;&gt;Node20</title>
<path fill="none" stroke="midnightblue" d="M685.99,-386.73C674.95,-378.86 662.36,-368.21 654,-356 619.16,-305.08 641.02,-277.91 611,-224 603.14,-209.88 590.51,-196.05 581.99,-187.53"/>
<polygon fill="midnightblue" stroke="midnightblue" points="684.14,-389.71 694.39,-392.42 688.07,-383.91 684.14,-389.71"/>
</g>
<!-- Node21 -->
<g id="node21" class="node">
<title>Node21</title>
<g id="a_node21"><a xlink:href="loggerimpl_8h.html" target="_top" xlink:title=" ">
<polygon fill="white" stroke="black" points="464.5,-112.5 464.5,-131.5 535.5,-131.5 535.5,-112.5 464.5,-112.5"/>
<text text-anchor="middle" x="500" y="-119.5" font-family="'Souce Sans Pro', Roboto, FreeSans, sans-serif" font-size="10.00">loggerimpl.h</text>
</a>
</g>
</g>
<!-- Node1&#45;&gt;Node21 -->
<g id="edge52" class="edge">
<title>Node1&#45;&gt;Node21</title>
<path fill="none" stroke="midnightblue" d="M709.62,-382.37C710.03,-338.71 704.79,-228.88 646,-168 617.07,-138.04 568.71,-127.91 535.64,-124.54"/>
<polygon fill="midnightblue" stroke="midnightblue" points="706.12,-382.34 709.41,-392.41 713.12,-382.48 706.12,-382.34"/>
</g>
<!-- Node30 -->
<g id="node30" class="node">
<title>Node30</title>
<g id="a_node30"><a xlink:href="filter_8h.html" target="_top" xlink:title="This header defines Filter and all of it&#39;s subclasses.">
<polygon fill="white" stroke="black" points="1279,-336.5 1279,-355.5 1323,-355.5 1323,-336.5 1279,-336.5"/>
<text text-anchor="middle" x="1301" y="-343.5" font-family="'Souce Sans Pro', Roboto, FreeSans, sans-serif" font-size="10.00">filter.h</text>
</a>
</g>
</g>
<!-- Node1&#45;&gt;Node30 -->
<g id="edge48" class="edge">
<title>Node1&#45;&gt;Node30</title>
<path fill="none" stroke="midnightblue" d="M746.97,-397.54C859.71,-387.25 1190.11,-357.11 1278.85,-349.02"/>
<polygon fill="midnightblue" stroke="midnightblue" points="746.4,-394.07 736.76,-398.47 747.04,-401.04 746.4,-394.07"/>
</g>
<!-- Node31 -->
<g id="node31" class="node">
<title>Node31</title>
<g id="a_node31"><a xlink:href="threads-impl_8h.html" target="_top" xlink:title=" ">
<polygon fill="white" stroke="black" points="330,-224.5 330,-243.5 410,-243.5 410,-224.5 330,-224.5"/>
<text text-anchor="middle" x="370" y="-231.5" font-family="'Souce Sans Pro', Roboto, FreeSans, sans-serif" font-size="10.00">threads&#45;impl.h</text>
</a>
</g>
</g>
<!-- Node1&#45;&gt;Node31 -->
<g id="edge53" class="edge">
<title>Node1&#45;&gt;Node31</title>
<path fill="none" stroke="midnightblue" d="M682.1,-388.04C663.52,-379.07 638.24,-366.85 616,-356 530.02,-314.05 427.4,-263.38 387.28,-243.55"/>
<polygon fill="midnightblue" stroke="midnightblue" points="680.63,-391.22 691.15,-392.41 683.67,-384.91 680.63,-391.22"/>
</g>
<!-- Node32 -->
<g id="node32" class="node">
<title>Node32</title>
<g id="a_node32"><a xlink:href="threads_8h.html" target="_top" xlink:title=" ">
<polygon fill="white" stroke="black" points="273,-280.5 273,-299.5 331,-299.5 331,-280.5 273,-280.5"/>
<text text-anchor="middle" x="302" y="-287.5" font-family="'Souce Sans Pro', Roboto, FreeSans, sans-serif" font-size="10.00">threads.h</text>
</a>
</g>
</g>
<!-- Node1&#45;&gt;Node32 -->
<g id="edge54" class="edge">
<title>Node1&#45;&gt;Node32</title>
<path fill="none" stroke="midnightblue" d="M671.3,-393.05C632.07,-384.6 568.95,-370.47 515,-356 447.04,-337.77 368.05,-312.61 328.07,-299.58"/>
<polygon fill="midnightblue" stroke="midnightblue" points="670.71,-396.51 681.22,-395.18 672.18,-389.66 670.71,-396.51"/>
</g>
<!-- Node3 -->
<g id="node3" class="node">
<title>Node3</title>
<g id="a_node3"><a xlink:href="asyncappender_8h.html" target="_top" xlink:title=" ">
<polygon fill="white" stroke="black" points="316.5,-112.5 316.5,-131.5 407.5,-131.5 407.5,-112.5 316.5,-112.5"/>
<text text-anchor="middle" x="362" y="-119.5" font-family="'Souce Sans Pro', Roboto, FreeSans, sans-serif" font-size="10.00">asyncappender.h</text>
</a>
</g>
</g>
<!-- Node2&#45;&gt;Node3 -->
<g id="edge2" class="edge">
<title>Node2&#45;&gt;Node3</title>
<path fill="none" stroke="midnightblue" d="M1185.84,-289.49C1045.18,-290.61 601.32,-290.3 467,-244 425.62,-229.74 412.83,-222.58 386,-188 372.58,-170.7 366.11,-145.15 363.49,-131.82"/>
<polygon fill="midnightblue" stroke="midnightblue" points="1186.24,-292.99 1196.21,-289.4 1186.18,-285.99 1186.24,-292.99"/>
</g>
<!-- Node4 -->
<g id="node4" class="node">
<title>Node4</title>
<g id="a_node4"><a xlink:href="log4cplus_8h.html" target="_top" xlink:title=" ">
<polygon fill="white" stroke="black" points="796.5,-0.5 796.5,-19.5 863.5,-19.5 863.5,-0.5 796.5,-0.5"/>
<text text-anchor="middle" x="830" y="-7.5" font-family="'Souce Sans Pro', Roboto, FreeSans, sans-serif" font-size="10.00">log4cplus.h</text>
</a>
</g>
</g>
<!-- Node2&#45;&gt;Node4 -->
<g id="edge14" class="edge">
<title>Node2&#45;&gt;Node4</title>
<path fill="none" stroke="midnightblue" d="M1271.77,-288.4C1455.09,-285.66 2166.88,-273.18 2204,-244 2227.66,-225.4 2223,-209.1 2223,-179 2223,-179 2223,-179 2223,-121 2223,-50.57 1076.48,-17.4 863.74,-11.85"/>
<polygon fill="midnightblue" stroke="midnightblue" points="1271.64,-284.9 1261.7,-288.55 1271.75,-291.9 1271.64,-284.9"/>
</g>
<!-- Node5 -->
<g id="node5" class="node">
<title>Node5</title>
<g id="a_node5"><a xlink:href="deviceappender_8hxx.html" target="_top" xlink:title=" ">
<polygon fill="white" stroke="black" points="1117,-224.5 1117,-243.5 1221,-243.5 1221,-224.5 1117,-224.5"/>
<text text-anchor="middle" x="1169" y="-231.5" font-family="'Souce Sans Pro', Roboto, FreeSans, sans-serif" font-size="10.00">deviceappender.hxx</text>
</a>
</g>
</g>
<!-- Node2&#45;&gt;Node5 -->
<g id="edge4" class="edge">
<title>Node2&#45;&gt;Node5</title>
<path fill="none" stroke="midnightblue" d="M1211.82,-273.54C1201.12,-263.91 1187.74,-251.87 1178.82,-243.83"/>
<polygon fill="midnightblue" stroke="midnightblue" points="1209.59,-276.24 1219.36,-280.32 1214.27,-271.03 1209.59,-276.24"/>
</g>
<!-- Node6 -->
<g id="node6" class="node">
<title>Node6</title>
<g id="a_node6"><a xlink:href="callbackappender_8h.html" target="_top" xlink:title=" ">
<polygon fill="white" stroke="black" points="1239.5,-224.5 1239.5,-243.5 1340.5,-243.5 1340.5,-224.5 1239.5,-224.5"/>
<text text-anchor="middle" x="1290" y="-231.5" font-family="'Souce Sans Pro', Roboto, FreeSans, sans-serif" font-size="10.00">callbackappender.h</text>
</a>
</g>
</g>
<!-- Node2&#45;&gt;Node6 -->
<g id="edge5" class="edge">
<title>Node2&#45;&gt;Node6</title>
<path fill="none" stroke="midnightblue" d="M1246.47,-273.54C1257.34,-263.91 1270.94,-251.87 1280.02,-243.83"/>
<polygon fill="midnightblue" stroke="midnightblue" points="1243.97,-271.07 1238.8,-280.32 1248.61,-276.32 1243.97,-271.07"/>
</g>
<!-- Node7 -->
<g id="node7" class="node">
<title>Node7</title>
<g id="a_node7"><a xlink:href="clfsappender_8h.html" target="_top" xlink:title=" ">
<polygon fill="white" stroke="black" points="1359,-224.5 1359,-243.5 1441,-243.5 1441,-224.5 1359,-224.5"/>
<text text-anchor="middle" x="1400" y="-231.5" font-family="'Souce Sans Pro', Roboto, FreeSans, sans-serif" font-size="10.00">clfsappender.h</text>
</a>
</g>
</g>
<!-- Node2&#45;&gt;Node7 -->
<g id="edge6" class="edge">
<title>Node2&#45;&gt;Node7</title>
<path fill="none" stroke="midnightblue" d="M1266.04,-277.3C1298.26,-267.13 1344.19,-252.62 1373.03,-243.52"/>
<polygon fill="midnightblue" stroke="midnightblue" points="1264.58,-274.09 1256.1,-280.44 1266.69,-280.77 1264.58,-274.09"/>
</g>
<!-- Node2&#45;&gt;Node8 -->
<g id="edge7" class="edge">
<title>Node2&#45;&gt;Node8</title>
<path fill="none" stroke="midnightblue" d="M1186.18,-288.96C1133.98,-287.26 1044.38,-278.89 977,-244 934.3,-221.89 936.79,-198.96 900,-168 883.75,-154.33 863.56,-140.39 850.48,-131.72"/>
<polygon fill="midnightblue" stroke="midnightblue" points="1186.33,-292.47 1196.42,-289.22 1186.51,-285.47 1186.33,-292.47"/>
</g>
<!-- Node9 -->
<g id="node9" class="node">
<title>Node9</title>
<g id="a_node9"><a xlink:href="consoleappender_8h.html" target="_top" xlink:title=" ">
<polygon fill="white" stroke="black" points="896.5,-56.5 896.5,-75.5 997.5,-75.5 997.5,-56.5 896.5,-56.5"/>
<text text-anchor="middle" x="947" y="-63.5" font-family="'Souce Sans Pro', Roboto, FreeSans, sans-serif" font-size="10.00">consoleappender.h</text>
</a>
</g>
</g>
<!-- Node2&#45;&gt;Node9 -->
<g id="edge9" class="edge">
<title>Node2&#45;&gt;Node9</title>
<path fill="none" stroke="midnightblue" d="M1186.21,-284.53C1153.57,-279.31 1108.93,-268.07 1077,-244 1021.47,-202.14 1036.81,-166 993,-112 981.88,-98.29 966.96,-84.36 957.17,-75.71"/>
<polygon fill="midnightblue" stroke="midnightblue" points="1185.95,-288.03 1196.36,-286.03 1186.97,-281.11 1185.95,-288.03"/>
</g>
<!-- Node10 -->
<g id="node10" class="node">
<title>Node10</title>
<g id="a_node10"><a xlink:href="fileappender_8h.html" target="_top" xlink:title=" ">
<polygon fill="white" stroke="black" points="1016,-56.5 1016,-75.5 1094,-75.5 1094,-56.5 1016,-56.5"/>
<text text-anchor="middle" x="1055" y="-63.5" font-family="'Souce Sans Pro', Roboto, FreeSans, sans-serif" font-size="10.00">fileappender.h</text>
</a>
</g>
</g>
<!-- Node2&#45;&gt;Node10 -->
<g id="edge11" class="edge">
<title>Node2&#45;&gt;Node10</title>
<path fill="none" stroke="midnightblue" d="M1186.14,-285.45C1156.43,-280.71 1118.17,-269.66 1095,-244 1049.81,-193.97 1052.22,-103.9 1054.23,-75.69"/>
<polygon fill="midnightblue" stroke="midnightblue" points="1185.87,-288.95 1196.26,-286.88 1186.85,-282.02 1185.87,-288.95"/>
</g>
<!-- Node11 -->
<g id="node11" class="node">
<title>Node11</title>
<g id="a_node11"><a xlink:href="hierarchylocker_8h.html" target="_top" xlink:title=" ">
<polygon fill="white" stroke="black" points="893.5,-112.5 893.5,-131.5 984.5,-131.5 984.5,-112.5 893.5,-112.5"/>
<text text-anchor="middle" x="939" y="-119.5" font-family="'Souce Sans Pro', Roboto, FreeSans, sans-serif" font-size="10.00">hierarchylocker.h</text>
</a>
</g>
</g>
<!-- Node2&#45;&gt;Node11 -->
<g id="edge13" class="edge">
<title>Node2&#45;&gt;Node11</title>
<path fill="none" stroke="midnightblue" d="M1186.26,-285.16C1128.07,-279.19 1027.84,-266 999,-244 960.6,-214.7 945.15,-154.2 940.58,-131.69"/>
<polygon fill="midnightblue" stroke="midnightblue" points="1185.97,-288.65 1196.26,-286.16 1186.66,-281.68 1185.97,-288.65"/>
</g>
<!-- Node12 -->
<g id="node12" class="node">
<title>Node12</title>
<g id="a_node12"><a xlink:href="log4judpappender_8h.html" target="_top" xlink:title=" ">
<polygon fill="white" stroke="black" points="1459.5,-224.5 1459.5,-243.5 1562.5,-243.5 1562.5,-224.5 1459.5,-224.5"/>
<text text-anchor="middle" x="1511" y="-231.5" font-family="'Souce Sans Pro', Roboto, FreeSans, sans-serif" font-size="10.00">log4judpappender.h</text>
</a>
</g>
</g>
<!-- Node2&#45;&gt;Node12 -->
<g id="edge15" class="edge">
<title>Node2&#45;&gt;Node12</title>
<path fill="none" stroke="midnightblue" d="M1271.61,-280.84C1324.06,-270.8 1412.72,-253.82 1466.16,-243.59"/>
<polygon fill="midnightblue" stroke="midnightblue" points="1270.79,-277.43 1261.62,-282.75 1272.1,-284.31 1270.79,-277.43"/>
</g>
<!-- Node13 -->
<g id="node13" class="node">
<title>Node13</title>
<g id="a_node13"><a xlink:href="msttsappender_8h.html" target="_top" xlink:title=" ">
<polygon fill="white" stroke="black" points="1580.5,-224.5 1580.5,-243.5 1671.5,-243.5 1671.5,-224.5 1580.5,-224.5"/>
<text text-anchor="middle" x="1626" y="-231.5" font-family="'Souce Sans Pro', Roboto, FreeSans, sans-serif" font-size="10.00">msttsappender.h</text>
</a>
</g>
</g>
<!-- Node2&#45;&gt;Node13 -->
<g id="edge16" class="edge">
<title>Node2&#45;&gt;Node13</title>
<path fill="none" stroke="midnightblue" d="M1271.82,-283.8C1336.64,-275.84 1463.53,-259.86 1571,-244 1574.06,-243.55 1577.22,-243.07 1580.4,-242.58"/>
<polygon fill="midnightblue" stroke="midnightblue" points="1271.08,-280.37 1261.58,-285.06 1271.94,-287.32 1271.08,-280.37"/>
</g>
<!-- Node14 -->
<g id="node14" class="node">
<title>Node14</title>
<g id="a_node14"><a xlink:href="nteventlogappender_8h.html" target="_top" xlink:title=" ">
<polygon fill="white" stroke="black" points="1690,-224.5 1690,-243.5 1800,-243.5 1800,-224.5 1690,-224.5"/>
<text text-anchor="middle" x="1745" y="-231.5" font-family="'Souce Sans Pro', Roboto, FreeSans, sans-serif" font-size="10.00">nteventlogappender.h</text>
</a>
</g>
</g>
<!-- Node2&#45;&gt;Node14 -->
<g id="edge17" class="edge">
<title>Node2&#45;&gt;Node14</title>
<path fill="none" stroke="midnightblue" d="M1271.78,-285.28C1351.96,-278.18 1530.26,-261.83 1680,-244 1683.17,-243.62 1686.42,-243.22 1689.7,-242.8"/>
<polygon fill="midnightblue" stroke="midnightblue" points="1271.24,-281.81 1261.59,-286.18 1271.86,-288.79 1271.24,-281.81"/>
</g>
<!-- Node15 -->
<g id="node15" class="node">
<title>Node15</title>
<g id="a_node15"><a xlink:href="nullappender_8h.html" target="_top" xlink:title=" ">
<polygon fill="white" stroke="black" points="1112,-56.5 1112,-75.5 1192,-75.5 1192,-56.5 1112,-56.5"/>
<text text-anchor="middle" x="1152" y="-63.5" font-family="'Souce Sans Pro', Roboto, FreeSans, sans-serif" font-size="10.00">nullappender.h</text>
</a>
</g>
</g>
<!-- Node2&#45;&gt;Node15 -->
<g id="edge18" class="edge">
<title>Node2&#45;&gt;Node15</title>
<path fill="none" stroke="midnightblue" d="M1186.23,-285.21C1158.94,-280.33 1125.52,-269.21 1108,-244 1069.51,-188.62 1125.53,-102.86 1145.43,-75.62"/>
<polygon fill="midnightblue" stroke="midnightblue" points="1185.92,-288.71 1196.34,-286.8 1187,-281.79 1185.92,-288.71"/>
</g>
<!-- Node16 -->
<g id="node16" class="node">
<title>Node16</title>
<g id="a_node16"><a xlink:href="qt4debugappender_8h.html" target="_top" xlink:title=" ">
<polygon fill="white" stroke="black" points="1818.5,-224.5 1818.5,-243.5 1925.5,-243.5 1925.5,-224.5 1818.5,-224.5"/>
<text text-anchor="middle" x="1872" y="-231.5" font-family="'Souce Sans Pro', Roboto, FreeSans, sans-serif" font-size="10.00">qt4debugappender.h</text>
</a>
</g>
</g>
<!-- Node2&#45;&gt;Node16 -->
<g id="edge20" class="edge">
<title>Node2&#45;&gt;Node16</title>
<path fill="none" stroke="midnightblue" d="M1271.99,-286.62C1368.31,-281.07 1608.7,-266.05 1809,-244 1812.08,-243.66 1815.23,-243.29 1818.41,-242.89"/>
<polygon fill="midnightblue" stroke="midnightblue" points="1271.56,-283.13 1261.77,-287.2 1271.96,-290.12 1271.56,-283.13"/>
</g>
<!-- Node17 -->
<g id="node17" class="node">
<title>Node17</title>
<g id="a_node17"><a xlink:href="qt5debugappender_8h.html" target="_top" xlink:title=" ">
<polygon fill="white" stroke="black" points="1943.5,-224.5 1943.5,-243.5 2050.5,-243.5 2050.5,-224.5 1943.5,-224.5"/>
<text text-anchor="middle" x="1997" y="-231.5" font-family="'Souce Sans Pro', Roboto, FreeSans, sans-serif" font-size="10.00">qt5debugappender.h</text>
</a>
</g>
</g>
<!-- Node2&#45;&gt;Node17 -->
<g id="edge21" class="edge">
<title>Node2&#45;&gt;Node17</title>
<path fill="none" stroke="midnightblue" d="M1271.86,-287.47C1382.11,-283.28 1684.42,-270.13 1935,-244 1937.7,-243.72 1940.47,-243.41 1943.26,-243.07"/>
<polygon fill="midnightblue" stroke="midnightblue" points="1271.67,-283.98 1261.8,-287.85 1271.93,-290.97 1271.67,-283.98"/>
</g>
<!-- Node18 -->
<g id="node18" class="node">
<title>Node18</title>
<g id="a_node18"><a xlink:href="socketappender_8h.html" target="_top" xlink:title=" ">
<polygon fill="white" stroke="black" points="395.5,-168.5 395.5,-187.5 490.5,-187.5 490.5,-168.5 395.5,-168.5"/>
<text text-anchor="middle" x="443" y="-175.5" font-family="'Souce Sans Pro', Roboto, FreeSans, sans-serif" font-size="10.00">socketappender.h</text>
</a>
</g>
</g>
<!-- Node2&#45;&gt;Node18 -->
<g id="edge22" class="edge">
<title>Node2&#45;&gt;Node18</title>
<path fill="none" stroke="midnightblue" d="M1186.46,-288.39C1039.13,-286.01 556.35,-275.83 495,-244 470.88,-231.49 454.14,-202.3 446.95,-187.67"/>
<polygon fill="midnightblue" stroke="midnightblue" points="1186.42,-291.89 1196.47,-288.55 1186.53,-284.89 1186.42,-291.89"/>
</g>
<!-- Node2&#45;&gt;Node19 -->
<g id="edge24" class="edge">
<title>Node2&#45;&gt;Node19</title>
<path fill="none" stroke="midnightblue" d="M1186.16,-284.28C1113.35,-276.24 960.85,-259.24 832,-244 826.17,-243.31 820.07,-242.58 814,-241.84"/>
<polygon fill="midnightblue" stroke="midnightblue" points="1185.98,-287.79 1196.31,-285.4 1186.75,-280.83 1185.98,-287.79"/>
</g>
<!-- Node27 -->
<g id="node27" class="node">
<title>Node27</title>
<g id="a_node27"><a xlink:href="factory_8h.html" target="_top" xlink:title=" ">
<polygon fill="white" stroke="black" points="2251,-224.5 2251,-243.5 2307,-243.5 2307,-224.5 2251,-224.5"/>
<text text-anchor="middle" x="2279" y="-231.5" font-family="'Souce Sans Pro', Roboto, FreeSans, sans-serif" font-size="10.00">factory.h</text>
</a>
</g>
</g>
<!-- Node2&#45;&gt;Node27 -->
<g id="edge40" class="edge">
<title>Node2&#45;&gt;Node27</title>
<path fill="none" stroke="midnightblue" d="M1272.04,-288.03C1439.25,-284.13 2045.95,-268.56 2237,-244 2241.44,-243.43 2246.1,-242.63 2250.64,-241.75"/>
<polygon fill="midnightblue" stroke="midnightblue" points="1271.58,-284.54 1261.67,-288.27 1271.74,-291.54 1271.58,-284.54"/>
</g>
<!-- Node28 -->
<g id="node28" class="node">
<title>Node28</title>
<g id="a_node28"><a xlink:href="syslogappender_8h.html" target="_top" xlink:title=" ">
<polygon fill="white" stroke="black" points="694,-168.5 694,-187.5 788,-187.5 788,-168.5 694,-168.5"/>
<text text-anchor="middle" x="741" y="-175.5" font-family="'Souce Sans Pro', Roboto, FreeSans, sans-serif" font-size="10.00">syslogappender.h</text>
</a>
</g>
</g>
<!-- Node2&#45;&gt;Node28 -->
<g id="edge42" class="edge">
<title>Node2&#45;&gt;Node28</title>
<path fill="none" stroke="midnightblue" d="M1186.25,-285.7C1125.62,-280.38 1011.52,-267.99 917,-244 858.28,-229.1 791.98,-201.54 760.11,-187.58"/>
<polygon fill="midnightblue" stroke="midnightblue" points="1185.96,-289.19 1196.22,-286.56 1186.56,-282.22 1185.96,-289.19"/>
</g>
<!-- Node29 -->
<g id="node29" class="node">
<title>Node29</title>
<g id="a_node29"><a xlink:href="win32consoleappender_8h.html" target="_top" xlink:title=" ">
<polygon fill="white" stroke="black" points="2069,-224.5 2069,-243.5 2195,-243.5 2195,-224.5 2069,-224.5"/>
<text text-anchor="middle" x="2132" y="-231.5" font-family="'Souce Sans Pro', Roboto, FreeSans, sans-serif" font-size="10.00">win32consoleappender.h</text>
</a>
</g>
</g>
<!-- Node2&#45;&gt;Node29 -->
<g id="edge44" class="edge">
<title>Node2&#45;&gt;Node29</title>
<path fill="none" stroke="midnightblue" d="M1271.63,-287.75C1394.3,-283.92 1758.66,-270.96 2060,-244 2062.89,-243.74 2065.83,-243.46 2068.81,-243.15"/>
<polygon fill="midnightblue" stroke="midnightblue" points="1271.42,-284.25 1261.53,-288.06 1271.63,-291.25 1271.42,-284.25"/>
</g>
<!-- Node3&#45;&gt;Node4 -->
<g id="edge3" class="edge">
<title>Node3&#45;&gt;Node4</title>
<path fill="none" stroke="midnightblue" d="M372.59,-103.84C383.08,-88.49 400.66,-66.78 422,-56 487.36,-22.99 710.7,-13.98 796.26,-11.71"/>
<polygon fill="midnightblue" stroke="midnightblue" points="369.52,-102.14 367,-112.43 375.39,-105.96 369.52,-102.14"/>
</g>
<!-- Node8&#45;&gt;Node4 -->
<g id="edge8" class="edge">
<title>Node8&#45;&gt;Node4</title>
<path fill="none" stroke="midnightblue" d="M841.61,-102.08C844.15,-89.08 846.35,-71.45 844,-56 842.03,-43.06 837.06,-28.72 833.6,-19.78"/>
<polygon fill="midnightblue" stroke="midnightblue" points="838.13,-101.62 839.4,-112.14 844.96,-103.12 838.13,-101.62"/>
</g>
<!-- Node9&#45;&gt;Node4 -->
<g id="edge10" class="edge">
<title>Node9&#45;&gt;Node4</title>
<path fill="none" stroke="midnightblue" d="M919.34,-52.23C897.45,-42.13 867.5,-28.31 848.45,-19.52"/>
<polygon fill="midnightblue" stroke="midnightblue" points="917.91,-55.43 928.46,-56.44 920.85,-49.08 917.91,-55.43"/>
</g>
<!-- Node10&#45;&gt;Node4 -->
<g id="edge12" class="edge">
<title>Node10&#45;&gt;Node4</title>
<path fill="none" stroke="midnightblue" d="M1009.38,-54.05C966.2,-43.69 902.38,-28.37 863.65,-19.08"/>
<polygon fill="midnightblue" stroke="midnightblue" points="1008.81,-57.51 1019.35,-56.44 1010.44,-50.71 1008.81,-57.51"/>
</g>
<!-- Node15&#45;&gt;Node4 -->
<g id="edge19" class="edge">
<title>Node15&#45;&gt;Node4</title>
<path fill="none" stroke="midnightblue" d="M1101.85,-55.83C1009.79,-39.85 913.41,-24.29 863.66,-16.34"/>
<polygon fill="midnightblue" stroke="midnightblue" points="1101.45,-59.31 1111.9,-57.57 1102.65,-52.41 1101.45,-59.31"/>
</g>
<!-- Node18&#45;&gt;Node4 -->
<g id="edge23" class="edge">
<title>Node18&#45;&gt;Node4</title>
<path fill="none" stroke="midnightblue" d="M438.64,-158.22C433.68,-131.55 429.37,-82.97 456,-56 479.75,-31.95 709.08,-17.39 796.44,-12.68"/>
<polygon fill="midnightblue" stroke="midnightblue" points="435.25,-159.1 440.72,-168.18 442.1,-157.67 435.25,-159.1"/>
</g>
<!-- Node19&#45;&gt;Node20 -->
<g id="edge25" class="edge">
<title>Node19&#45;&gt;Node20</title>
<path fill="none" stroke="midnightblue" d="M719.62,-221.57C684.53,-211.38 633.98,-196.7 602.33,-187.52"/>
<polygon fill="midnightblue" stroke="midnightblue" points="718.95,-225.02 729.53,-224.44 720.9,-218.29 718.95,-225.02"/>
</g>
<!-- Node23 -->
<g id="node23" class="node">
<title>Node23</title>
<g id="a_node23"><a xlink:href="logger_8h.html" target="_top" xlink:title="This header defines the Logger class and the logging macros.">
<polygon fill="white" stroke="black" points="806,-168.5 806,-187.5 858,-187.5 858,-168.5 806,-168.5"/>
<text text-anchor="middle" x="832" y="-175.5" font-family="'Souce Sans Pro', Roboto, FreeSans, sans-serif" font-size="10.00">logger.h</text>
</a>
</g>
</g>
<!-- Node19&#45;&gt;Node23 -->
<g id="edge29" class="edge">
<title>Node19&#45;&gt;Node23</title>
<path fill="none" stroke="midnightblue" d="M779.14,-218.1C792.28,-208.38 808.98,-196.03 820.06,-187.83"/>
<polygon fill="midnightblue" stroke="midnightblue" points="776.69,-215.56 770.73,-224.32 780.85,-221.19 776.69,-215.56"/>
</g>
<!-- Node20&#45;&gt;Node3 -->
<g id="edge26" class="edge">
<title>Node20&#45;&gt;Node3</title>
<path fill="none" stroke="midnightblue" d="M529.86,-165.96C490.01,-155.76 431.64,-140.82 395.28,-131.52"/>
<polygon fill="midnightblue" stroke="midnightblue" points="529.01,-169.35 539.57,-168.44 530.75,-162.57 529.01,-169.35"/>
</g>
<!-- Node20&#45;&gt;Node21 -->
<g id="edge27" class="edge">
<title>Node20&#45;&gt;Node21</title>
<path fill="none" stroke="midnightblue" d="M552.86,-162.1C539.72,-152.38 523.02,-140.03 511.94,-131.83"/>
<polygon fill="midnightblue" stroke="midnightblue" points="551.15,-165.19 561.27,-168.32 555.31,-159.56 551.15,-165.19"/>
</g>
<!-- Node22 -->
<g id="node22" class="node">
<title>Node22</title>
<g id="a_node22"><a xlink:href="rootlogger_8h.html" target="_top" xlink:title=" ">
<polygon fill="white" stroke="black" points="465,-56.5 465,-75.5 535,-75.5 535,-56.5 465,-56.5"/>
<text text-anchor="middle" x="500" y="-63.5" font-family="'Souce Sans Pro', Roboto, FreeSans, sans-serif" font-size="10.00">rootlogger.h</text>
</a>
</g>
</g>
<!-- Node21&#45;&gt;Node22 -->
<g id="edge28" class="edge">
<title>Node21&#45;&gt;Node22</title>
<path fill="none" stroke="midnightblue" d="M500,-101.8C500,-92.91 500,-82.78 500,-75.75"/>
<polygon fill="midnightblue" stroke="midnightblue" points="496.5,-102.08 500,-112.08 503.5,-102.08 496.5,-102.08"/>
</g>
<!-- Node23&#45;&gt;Node4 -->
<g id="edge34" class="edge">
<title>Node23&#45;&gt;Node4</title>
<path fill="none" stroke="midnightblue" d="M796.02,-167.49C750.24,-155.31 676.41,-135.37 671,-132 636.68,-110.62 595.6,-87.46 621,-56 642.63,-29.22 742.65,-17.62 796.1,-13.27"/>
<polygon fill="midnightblue" stroke="midnightblue" points="795.32,-170.93 805.88,-170.11 797.12,-164.16 795.32,-170.93"/>
</g>
<!-- Node23&#45;&gt;Node8 -->
<g id="edge30" class="edge">
<title>Node23&#45;&gt;Node8</title>
<path fill="none" stroke="midnightblue" d="M833.75,-158.1C834.58,-149.14 835.53,-138.86 836.19,-131.75"/>
<polygon fill="midnightblue" stroke="midnightblue" points="830.26,-157.8 832.83,-168.08 837.23,-158.45 830.26,-157.8"/>
</g>
<!-- Node23&#45;&gt;Node11 -->
<g id="edge33" class="edge">
<title>Node23&#45;&gt;Node11</title>
<path fill="none" stroke="midnightblue" d="M858.3,-163.73C878.11,-153.73 904.71,-140.31 921.85,-131.65"/>
<polygon fill="midnightblue" stroke="midnightblue" points="856.54,-160.69 849.19,-168.32 859.7,-166.94 856.54,-160.69"/>
</g>
<!-- Node24 -->
<g id="node24" class="node">
<title>Node24</title>
<g id="a_node24"><a xlink:href="hierarchy_8h.html" target="_top" xlink:title=" ">
<polygon fill="white" stroke="black" points="630,-56.5 630,-75.5 694,-75.5 694,-56.5 630,-56.5"/>
<text text-anchor="middle" x="662" y="-63.5" font-family="'Souce Sans Pro', Roboto, FreeSans, sans-serif" font-size="10.00">hierarchy.h</text>
</a>
</g>
</g>
<!-- Node23&#45;&gt;Node24 -->
<g id="edge31" class="edge">
<title>Node23&#45;&gt;Node24</title>
<path fill="none" stroke="midnightblue" d="M796.03,-167.39C756.37,-156.52 697.08,-139.39 689,-132 672.41,-116.82 665.72,-89.88 663.27,-75.93"/>
<polygon fill="midnightblue" stroke="midnightblue" points="795.32,-170.82 805.89,-170.07 797.16,-164.07 795.32,-170.82"/>
</g>
<!-- Node25 -->
<g id="node25" class="node">
<title>Node25</title>
<g id="a_node25"><a xlink:href="loggingmacros_8h.html" target="_top" xlink:title="This header defines the logging macros.">
<polygon fill="white" stroke="black" points="712,-56.5 712,-75.5 802,-75.5 802,-56.5 712,-56.5"/>
<text text-anchor="middle" x="757" y="-63.5" font-family="'Souce Sans Pro', Roboto, FreeSans, sans-serif" font-size="10.00">loggingmacros.h</text>
</a>
</g>
</g>
<!-- Node23&#45;&gt;Node25 -->
<g id="edge35" class="edge">
<title>Node23&#45;&gt;Node25</title>
<path fill="none" stroke="midnightblue" d="M796,-167.34C758.08,-156.8 703,-140.33 697,-132 681.2,-110.07 715.48,-87.57 738.45,-75.65"/>
<polygon fill="midnightblue" stroke="midnightblue" points="795.14,-170.73 805.71,-170.01 797,-163.98 795.14,-170.73"/>
</g>
<!-- Node26 -->
<g id="node26" class="node">
<title>Node26</title>
<g id="a_node26"><a xlink:href="tracelogger_8h.html" target="_top" xlink:title=" ">
<polygon fill="white" stroke="black" points="706,-112.5 706,-131.5 780,-131.5 780,-112.5 706,-112.5"/>
<text text-anchor="middle" x="743" y="-119.5" font-family="'Souce Sans Pro', Roboto, FreeSans, sans-serif" font-size="10.00">tracelogger.h</text>
</a>
</g>
</g>
<!-- Node23&#45;&gt;Node26 -->
<g id="edge37" class="edge">
<title>Node23&#45;&gt;Node26</title>
<path fill="none" stroke="midnightblue" d="M808.76,-162.9C792.44,-153 771.13,-140.07 757.26,-131.65"/>
<polygon fill="midnightblue" stroke="midnightblue" points="807.34,-166.13 817.7,-168.32 810.97,-160.14 807.34,-166.13"/>
</g>
<!-- Node24&#45;&gt;Node4 -->
<g id="edge32" class="edge">
<title>Node24&#45;&gt;Node4</title>
<path fill="none" stroke="midnightblue" d="M698.39,-53.3C730.04,-43.13 775.17,-28.62 803.5,-19.52"/>
<polygon fill="midnightblue" stroke="midnightblue" points="697.07,-50.05 688.62,-56.44 699.21,-56.72 697.07,-50.05"/>
</g>
<!-- Node25&#45;&gt;Node4 -->
<g id="edge36" class="edge">
<title>Node25&#45;&gt;Node4</title>
<path fill="none" stroke="midnightblue" d="M777.14,-50.1C790.28,-40.38 806.98,-28.03 818.06,-19.83"/>
<polygon fill="midnightblue" stroke="midnightblue" points="774.69,-47.56 768.73,-56.32 778.85,-53.19 774.69,-47.56"/>
</g>
<!-- Node26&#45;&gt;Node4 -->
<g id="edge38" class="edge">
<title>Node26&#45;&gt;Node4</title>
<path fill="none" stroke="midnightblue" d="M772.12,-107.71C785.7,-100.17 801.03,-89.52 811,-76 823.7,-58.78 827.94,-33.19 829.34,-19.84"/>
<polygon fill="midnightblue" stroke="midnightblue" points="770.33,-104.7 763.08,-112.43 773.57,-110.9 770.33,-104.7"/>
</g>
<!-- Node26&#45;&gt;Node25 -->
<g id="edge39" class="edge">
<title>Node26&#45;&gt;Node25</title>
<path fill="none" stroke="midnightblue" d="M747.82,-102.4C750.17,-93.36 752.87,-82.94 754.73,-75.75"/>
<polygon fill="midnightblue" stroke="midnightblue" points="744.43,-101.52 745.31,-112.08 751.21,-103.28 744.43,-101.52"/>
</g>
<!-- Node27&#45;&gt;Node4 -->
<g id="edge41" class="edge">
<title>Node27&#45;&gt;Node4</title>
<path fill="none" stroke="midnightblue" d="M2281.15,-213.71C2284.1,-176.42 2284.45,-94.76 2237,-56 2182.14,-11.19 1072.35,-10.64 863.67,-10.93"/>
<polygon fill="midnightblue" stroke="midnightblue" points="2277.62,-213.85 2280.16,-224.14 2284.59,-214.52 2277.62,-213.85"/>
</g>
<!-- Node28&#45;&gt;Node4 -->
<g id="edge43" class="edge">
<title>Node28&#45;&gt;Node4</title>
<path fill="none" stroke="midnightblue" d="M695.59,-165.21C675.69,-158.21 653.22,-147.57 637,-132 611.14,-107.18 587.33,-83.77 610,-56 633.11,-27.68 740.38,-16.71 796.14,-12.86"/>
<polygon fill="midnightblue" stroke="midnightblue" points="694.52,-168.55 705.12,-168.37 696.72,-161.9 694.52,-168.55"/>
</g>
<!-- Node30&#45;&gt;Node2 -->
<g id="edge49" class="edge">
<title>Node30&#45;&gt;Node2</title>
<path fill="none" stroke="midnightblue" d="M1281.13,-330.1C1268.18,-320.38 1251.7,-308.03 1240.78,-299.83"/>
<polygon fill="midnightblue" stroke="midnightblue" points="1279.33,-333.12 1289.43,-336.32 1283.53,-327.52 1279.33,-333.12"/>
</g>
<!-- Node30&#45;&gt;Node4 -->
<g id="edge50" class="edge">
<title>Node30&#45;&gt;Node4</title>
<path fill="none" stroke="midnightblue" d="M1333.18,-345.04C1507.92,-344.82 2335,-338.33 2335,-235 2335,-235 2335,-235 2335,-121 2335,-76.55 2300.45,-72.05 2259,-56 2191.88,-30 1072.79,-14.17 863.55,-11.43"/>
<polygon fill="midnightblue" stroke="midnightblue" points="1333.07,-341.54 1323.07,-345.04 1333.08,-348.54 1333.07,-341.54"/>
</g>
<!-- Node30&#45;&gt;Node27 -->
<g id="edge51" class="edge">
<title>Node30&#45;&gt;Node27</title>
<path fill="none" stroke="midnightblue" d="M1333.22,-342.74C1453.16,-334.07 1884.94,-300.56 2237,-244 2241.42,-243.29 2246.07,-242.42 2250.61,-241.5"/>
<polygon fill="midnightblue" stroke="midnightblue" points="1332.95,-339.25 1323.22,-343.46 1333.45,-346.23 1332.95,-339.25"/>
</g>
<!-- Node32&#45;&gt;Node3 -->
<g id="edge55" class="edge">
<title>Node32&#45;&gt;Node3</title>
<path fill="none" stroke="midnightblue" d="M300.99,-270.2C300.8,-257.01 301.59,-239.11 306,-224 316.84,-186.85 343.16,-148.31 355.46,-131.59"/>
<polygon fill="midnightblue" stroke="midnightblue" points="297.49,-270.51 301.34,-280.38 304.49,-270.26 297.49,-270.51"/>
</g>
<!-- Node32&#45;&gt;Node18 -->
<g id="edge61" class="edge">
<title>Node32&#45;&gt;Node18</title>
<path fill="none" stroke="midnightblue" d="M303.05,-270.02C304.81,-255.71 309.35,-236.48 321,-224 340.33,-203.29 370.03,-192.07 395.28,-186.01"/>
<polygon fill="midnightblue" stroke="midnightblue" points="299.54,-269.95 302.16,-280.22 306.52,-270.56 299.54,-269.95"/>
</g>
<!-- Node32&#45;&gt;Node31 -->
<g id="edge67" class="edge">
<title>Node32&#45;&gt;Node31</title>
<path fill="none" stroke="midnightblue" d="M320.76,-274.1C333,-264.38 348.56,-252.03 358.88,-243.83"/>
<polygon fill="midnightblue" stroke="midnightblue" points="318.58,-271.36 312.93,-280.32 322.93,-276.85 318.58,-271.36"/>
</g>
<!-- Node33 -->
<g id="node33" class="node">
<title>Node33</title>
<g id="a_node33"><a xlink:href="connectorthread_8h.html" target="_top" xlink:title=" ">
<polygon fill="white" stroke="black" points="504,-224.5 504,-243.5 602,-243.5 602,-224.5 504,-224.5"/>
<text text-anchor="middle" x="553" y="-231.5" font-family="'Souce Sans Pro', Roboto, FreeSans, sans-serif" font-size="10.00">connectorthread.h</text>
</a>
</g>
</g>
<!-- Node32&#45;&gt;Node33 -->
<g id="edge56" class="edge">
<title>Node32&#45;&gt;Node33</title>
<path fill="none" stroke="midnightblue" d="M341.07,-280.6C387.91,-270.52 466,-253.72 513.18,-243.57"/>
<polygon fill="midnightblue" stroke="midnightblue" points="340.32,-277.17 331.28,-282.7 341.8,-284.02 340.32,-277.17"/>
</g>
<!-- Node34 -->
<g id="node34" class="node">
<title>Node34</title>
<g id="a_node34"><a xlink:href="queue_8h.html" target="_top" xlink:title=" ">
<polygon fill="white" stroke="black" points="186,-168.5 186,-187.5 238,-187.5 238,-168.5 186,-168.5"/>
<text text-anchor="middle" x="212" y="-175.5" font-family="'Souce Sans Pro', Roboto, FreeSans, sans-serif" font-size="10.00">queue.h</text>
</a>
</g>
</g>
<!-- Node32&#45;&gt;Node34 -->
<g id="edge59" class="edge">
<title>Node32&#45;&gt;Node34</title>
<path fill="none" stroke="midnightblue" d="M281.79,-274.1C271.53,-265.93 259.3,-255.19 250,-244 234.8,-225.7 222,-200.57 215.88,-187.57"/>
<polygon fill="midnightblue" stroke="midnightblue" points="279.79,-276.98 289.84,-280.32 284.07,-271.44 279.79,-276.98"/>
</g>
<!-- Node35 -->
<g id="node35" class="node">
<title>Node35</title>
<g id="a_node35"><a xlink:href="loggingevent_8h.html" target="_top" xlink:title=" ">
<polygon fill="white" stroke="black" points="118,-224.5 118,-243.5 198,-243.5 198,-224.5 118,-224.5"/>
<text text-anchor="middle" x="158" y="-231.5" font-family="'Souce Sans Pro', Roboto, FreeSans, sans-serif" font-size="10.00">loggingevent.h</text>
</a>
</g>
</g>
<!-- Node32&#45;&gt;Node35 -->
<g id="edge62" class="edge">
<title>Node32&#45;&gt;Node35</title>
<path fill="none" stroke="midnightblue" d="M269.75,-276.91C242.68,-266.75 204.68,-252.51 180.71,-243.52"/>
<polygon fill="midnightblue" stroke="midnightblue" points="268.59,-280.21 279.18,-280.44 271.05,-273.66 268.59,-280.21"/>
</g>
<!-- Node33&#45;&gt;Node18 -->
<g id="edge57" class="edge">
<title>Node33&#45;&gt;Node18</title>
<path fill="none" stroke="midnightblue" d="M526.24,-219.86C505.84,-209.85 478.33,-196.35 460.63,-187.65"/>
<polygon fill="midnightblue" stroke="midnightblue" points="524.81,-223.06 535.33,-224.32 527.89,-216.78 524.81,-223.06"/>
</g>
<!-- Node33&#45;&gt;Node28 -->
<g id="edge58" class="edge">
<title>Node33&#45;&gt;Node28</title>
<path fill="none" stroke="midnightblue" d="M592.8,-221.57C628.27,-211.38 679.37,-196.7 711.35,-187.52"/>
<polygon fill="midnightblue" stroke="midnightblue" points="591.43,-218.32 582.79,-224.44 593.37,-225.05 591.43,-218.32"/>
</g>
<!-- Node34&#45;&gt;Node3 -->
<g id="edge60" class="edge">
<title>Node34&#45;&gt;Node3</title>
<path fill="none" stroke="midnightblue" d="M245.22,-165.04C273.45,-154.88 313.26,-140.55 338.34,-131.52"/>
<polygon fill="midnightblue" stroke="midnightblue" points="243.99,-161.76 235.77,-168.44 246.36,-168.35 243.99,-161.76"/>
</g>
<!-- Node35&#45;&gt;Node4 -->
<g id="edge66" class="edge">
<title>Node35&#45;&gt;Node4</title>
<path fill="none" stroke="midnightblue" d="M159.5,-214.42C161.5,-200.32 166.16,-181.18 177,-168 245.7,-84.49 289.39,-86.97 393,-56 538.42,-12.53 721.82,-9.45 796.28,-10.23"/>
<polygon fill="midnightblue" stroke="midnightblue" points="156.02,-214.11 158.4,-224.43 162.97,-214.87 156.02,-214.11"/>
</g>
<!-- Node35&#45;&gt;Node34 -->
<g id="edge63" class="edge">
<title>Node35&#45;&gt;Node34</title>
<path fill="none" stroke="midnightblue" d="M174,-217C183.57,-207.43 195.36,-195.64 203.25,-187.75"/>
<polygon fill="midnightblue" stroke="midnightblue" points="171.51,-214.54 166.92,-224.08 176.46,-219.49 171.51,-214.54"/>
</g>
<!-- Node36 -->
<g id="node36" class="node">
<title>Node36</title>
<g id="a_node36"><a xlink:href="internal_8h.html" target="_top" xlink:title="This header contains declaration internal to log4cplus.">
<polygon fill="white" stroke="black" points="54.5,-168.5 54.5,-187.5 111.5,-187.5 111.5,-168.5 54.5,-168.5"/>
<text text-anchor="middle" x="83" y="-175.5" font-family="'Souce Sans Pro', Roboto, FreeSans, sans-serif" font-size="10.00">internal.h</text>
</a>
</g>
</g>
<!-- Node35&#45;&gt;Node36 -->
<g id="edge64" class="edge">
<title>Node35&#45;&gt;Node36</title>
<path fill="none" stroke="midnightblue" d="M137.69,-218.38C124.14,-208.62 106.76,-196.11 95.27,-187.83"/>
<polygon fill="midnightblue" stroke="midnightblue" points="135.79,-221.32 145.95,-224.32 139.88,-215.64 135.79,-221.32"/>
</g>
<!-- Node37 -->
<g id="node37" class="node">
<title>Node37</title>
<g id="a_node37"><a xlink:href="customloglevelmanager_8h.html" target="_top" xlink:title="This header contains declaration internal to log4cplus.">
<polygon fill="white" stroke="black" points="0,-112.5 0,-131.5 130,-131.5 130,-112.5 0,-112.5"/>
<text text-anchor="middle" x="65" y="-119.5" font-family="'Souce Sans Pro', Roboto, FreeSans, sans-serif" font-size="10.00">customloglevelmanager.h</text>
</a>
</g>
</g>
<!-- Node36&#45;&gt;Node37 -->
<g id="edge65" class="edge">
<title>Node36&#45;&gt;Node37</title>
<path fill="none" stroke="midnightblue" d="M76.8,-158.4C73.79,-149.36 70.31,-138.94 67.92,-131.75"/>
<polygon fill="midnightblue" stroke="midnightblue" points="73.54,-159.7 80.03,-168.08 80.19,-157.49 73.54,-159.7"/>
</g>
</g>
</svg>
