<?xml version="1.0" encoding="UTF-8" standalone="no"?>
<!DOCTYPE svg PUBLIC "-//W3C//DTD SVG 1.1//EN"
 "http://www.w3.org/Graphics/SVG/1.1/DTD/svg11.dtd">
<!-- Generated by graphviz version 2.43.0 (0)
 -->
<!-- Title: property.h Pages: 1 -->
<svg width="432pt" height="263pt"
 viewBox="0.00 0.00 432.00 263.00" xmlns="http://www.w3.org/2000/svg" xmlns:xlink="http://www.w3.org/1999/xlink">
<g id="graph0" class="graph" transform="scale(1 1) rotate(0) translate(4 259)">
<title>property.h</title>
<polygon fill="white" stroke="transparent" points="-4,4 -4,-259 428,-259 428,4 -4,4"/>
<!-- Node1 -->
<g id="node1" class="node">
<title>Node1</title>
<g id="a_node1"><a xlink:title=" ">
<polygon fill="#bfbfbf" stroke="black" points="227.5,-235.5 227.5,-254.5 288.5,-254.5 288.5,-235.5 227.5,-235.5"/>
<text text-anchor="middle" x="258" y="-242.5" font-family="'Souce Sans Pro', Roboto, FreeSans, sans-serif" font-size="10.00">property.h</text>
</a>
</g>
</g>
<!-- Node2 -->
<g id="node2" class="node">
<title>Node2</title>
<g id="a_node2"><a xlink:href="config_8hxx.html" target="_top" xlink:title=" ">
<polygon fill="white" stroke="black" points="82.5,-67.5 82.5,-86.5 191.5,-86.5 191.5,-67.5 82.5,-67.5"/>
<text text-anchor="middle" x="137" y="-74.5" font-family="'Souce Sans Pro', Roboto, FreeSans, sans-serif" font-size="10.00">log4cplus/config.hxx</text>
</a>
</g>
</g>
<!-- Node1&#45;&gt;Node2 -->
<g id="edge1" class="edge">
<title>Node1&#45;&gt;Node2</title>
<path fill="none" stroke="midnightblue" d="M227.41,-244.71C187.41,-243.99 117.34,-236.87 74,-199 47.52,-175.86 33.86,-153.13 52,-123 61.29,-107.57 77.83,-97.16 93.87,-90.27"/>
<polygon fill="midnightblue" stroke="midnightblue" points="95.17,-93.52 103.2,-86.61 92.61,-87.01 95.17,-93.52"/>
</g>
<!-- Node5 -->
<g id="node5" class="node">
<title>Node5</title>
<g id="a_node5"><a xlink:href="streams_8h.html" target="_top" xlink:title=" ">
<polygon fill="white" stroke="black" points="83.5,-179.5 83.5,-198.5 190.5,-198.5 190.5,-179.5 83.5,-179.5"/>
<text text-anchor="middle" x="137" y="-186.5" font-family="'Souce Sans Pro', Roboto, FreeSans, sans-serif" font-size="10.00">log4cplus/streams.h</text>
</a>
</g>
</g>
<!-- Node1&#45;&gt;Node5 -->
<g id="edge4" class="edge">
<title>Node1&#45;&gt;Node5</title>
<path fill="none" stroke="midnightblue" d="M238.83,-235.44C219.09,-226.64 188.11,-212.81 165.51,-202.72"/>
<polygon fill="midnightblue" stroke="midnightblue" points="166.64,-199.4 156.08,-198.52 163.79,-205.79 166.64,-199.4"/>
</g>
<!-- Node9 -->
<g id="node9" class="node">
<title>Node9</title>
<g id="a_node9"><a xlink:href="tstring_8h.html" target="_top" xlink:title=" ">
<polygon fill="white" stroke="black" points="208.5,-179.5 208.5,-198.5 307.5,-198.5 307.5,-179.5 208.5,-179.5"/>
<text text-anchor="middle" x="258" y="-186.5" font-family="'Souce Sans Pro', Roboto, FreeSans, sans-serif" font-size="10.00">log4cplus/tstring.h</text>
</a>
</g>
</g>
<!-- Node1&#45;&gt;Node9 -->
<g id="edge10" class="edge">
<title>Node1&#45;&gt;Node9</title>
<path fill="none" stroke="midnightblue" d="M258,-235.08C258,-228.01 258,-217.86 258,-208.99"/>
<polygon fill="midnightblue" stroke="midnightblue" points="261.5,-208.75 258,-198.75 254.5,-208.75 261.5,-208.75"/>
</g>
<!-- Node11 -->
<g id="node11" class="node">
<title>Node11</title>
<g id="a_node11"><a xlink:title=" ">
<polygon fill="white" stroke="#bfbfbf" points="326,-179.5 326,-198.5 362,-198.5 362,-179.5 326,-179.5"/>
<text text-anchor="middle" x="344" y="-186.5" font-family="'Souce Sans Pro', Roboto, FreeSans, sans-serif" font-size="10.00">map</text>
</a>
</g>
</g>
<!-- Node1&#45;&gt;Node11 -->
<g id="edge14" class="edge">
<title>Node1&#45;&gt;Node11</title>
<path fill="none" stroke="midnightblue" d="M271.82,-235.32C285.23,-226.9 305.82,-213.97 321.59,-204.07"/>
<polygon fill="midnightblue" stroke="midnightblue" points="323.61,-206.94 330.22,-198.65 319.89,-201.01 323.61,-206.94"/>
</g>
<!-- Node12 -->
<g id="node12" class="node">
<title>Node12</title>
<g id="a_node12"><a xlink:title=" ">
<polygon fill="white" stroke="#bfbfbf" points="380,-179.5 380,-198.5 424,-198.5 424,-179.5 380,-179.5"/>
<text text-anchor="middle" x="402" y="-186.5" font-family="'Souce Sans Pro', Roboto, FreeSans, sans-serif" font-size="10.00">vector</text>
</a>
</g>
</g>
<!-- Node1&#45;&gt;Node12 -->
<g id="edge15" class="edge">
<title>Node1&#45;&gt;Node12</title>
<path fill="none" stroke="midnightblue" d="M280.82,-235.44C304.97,-226.39 343.28,-212.02 370.35,-201.87"/>
<polygon fill="midnightblue" stroke="midnightblue" points="371.63,-205.13 379.76,-198.34 369.17,-198.57 371.63,-205.13"/>
</g>
<!-- Node3 -->
<g id="node3" class="node">
<title>Node3</title>
<g id="a_node3"><a xlink:href="win32_8h.html" target="_top" xlink:title=" ">
<polygon fill="white" stroke="black" points="0,-6 0,-25 128,-25 128,-6 0,-6"/>
<text text-anchor="middle" x="64" y="-13" font-family="'Souce Sans Pro', Roboto, FreeSans, sans-serif" font-size="10.00">log4cplus/config/win32.h</text>
</a>
</g>
</g>
<!-- Node2&#45;&gt;Node3 -->
<g id="edge2" class="edge">
<title>Node2&#45;&gt;Node3</title>
<path fill="none" stroke="midnightblue" d="M126.54,-67.48C115.05,-58.11 96.37,-42.88 82.41,-31.51"/>
<polygon fill="midnightblue" stroke="midnightblue" points="84.4,-28.61 74.44,-25.01 79.98,-34.04 84.4,-28.61"/>
</g>
<!-- Node4 -->
<g id="node4" class="node">
<title>Node4</title>
<g id="a_node4"><a xlink:href="thread-config_8h.html" target="_top" xlink:title=" ">
<polygon fill="white" stroke="black" points="146,-0.5 146,-30.5 274,-30.5 274,-0.5 146,-0.5"/>
<text text-anchor="start" x="154" y="-18.5" font-family="'Souce Sans Pro', Roboto, FreeSans, sans-serif" font-size="10.00">log4cplus/helpers/thread</text>
<text text-anchor="middle" x="210" y="-7.5" font-family="'Souce Sans Pro', Roboto, FreeSans, sans-serif" font-size="10.00">&#45;config.h</text>
</a>
</g>
</g>
<!-- Node2&#45;&gt;Node4 -->
<g id="edge3" class="edge">
<title>Node2&#45;&gt;Node4</title>
<path fill="none" stroke="midnightblue" d="M147.46,-67.48C157.16,-59.57 171.99,-47.48 184.77,-37.07"/>
<polygon fill="midnightblue" stroke="midnightblue" points="187.26,-39.55 192.8,-30.52 182.83,-34.13 187.26,-39.55"/>
</g>
<!-- Node5&#45;&gt;Node2 -->
<g id="edge5" class="edge">
<title>Node5&#45;&gt;Node2</title>
<path fill="none" stroke="midnightblue" d="M137,-179.37C137,-161.62 137,-120.67 137,-96.6"/>
<polygon fill="midnightblue" stroke="midnightblue" points="140.5,-96.59 137,-86.59 133.5,-96.59 140.5,-96.59"/>
</g>
<!-- Node6 -->
<g id="node6" class="node">
<title>Node6</title>
<g id="a_node6"><a xlink:href="tchar_8h.html" target="_top" xlink:title=" ">
<polygon fill="white" stroke="black" points="165.5,-123.5 165.5,-142.5 258.5,-142.5 258.5,-123.5 165.5,-123.5"/>
<text text-anchor="middle" x="212" y="-130.5" font-family="'Souce Sans Pro', Roboto, FreeSans, sans-serif" font-size="10.00">log4cplus/tchar.h</text>
</a>
</g>
</g>
<!-- Node5&#45;&gt;Node6 -->
<g id="edge6" class="edge">
<title>Node5&#45;&gt;Node6</title>
<path fill="none" stroke="midnightblue" d="M149.05,-179.32C160.46,-171.11 177.83,-158.6 191.43,-148.81"/>
<polygon fill="midnightblue" stroke="midnightblue" points="193.66,-151.52 199.73,-142.83 189.57,-145.84 193.66,-151.52"/>
</g>
<!-- Node8 -->
<g id="node8" class="node">
<title>Node8</title>
<g id="a_node8"><a xlink:title=" ">
<polygon fill="white" stroke="#bfbfbf" points="61.5,-123.5 61.5,-142.5 108.5,-142.5 108.5,-123.5 61.5,-123.5"/>
<text text-anchor="middle" x="85" y="-130.5" font-family="'Souce Sans Pro', Roboto, FreeSans, sans-serif" font-size="10.00">iosfwd</text>
</a>
</g>
</g>
<!-- Node5&#45;&gt;Node8 -->
<g id="edge9" class="edge">
<title>Node5&#45;&gt;Node8</title>
<path fill="none" stroke="midnightblue" d="M128.41,-179.08C120.84,-171.22 109.62,-159.57 100.49,-150.08"/>
<polygon fill="midnightblue" stroke="midnightblue" points="102.88,-147.53 93.43,-142.75 97.84,-152.38 102.88,-147.53"/>
</g>
<!-- Node6&#45;&gt;Node2 -->
<g id="edge7" class="edge">
<title>Node6&#45;&gt;Node2</title>
<path fill="none" stroke="midnightblue" d="M199.95,-123.32C188.54,-115.11 171.17,-102.6 157.57,-92.81"/>
<polygon fill="midnightblue" stroke="midnightblue" points="159.43,-89.84 149.27,-86.83 155.34,-95.52 159.43,-89.84"/>
</g>
<!-- Node7 -->
<g id="node7" class="node">
<title>Node7</title>
<g id="a_node7"><a xlink:title=" ">
<polygon fill="white" stroke="#bfbfbf" points="209.5,-67.5 209.5,-86.5 260.5,-86.5 260.5,-67.5 209.5,-67.5"/>
<text text-anchor="middle" x="235" y="-74.5" font-family="'Souce Sans Pro', Roboto, FreeSans, sans-serif" font-size="10.00">cstddef</text>
</a>
</g>
</g>
<!-- Node6&#45;&gt;Node7 -->
<g id="edge8" class="edge">
<title>Node6&#45;&gt;Node7</title>
<path fill="none" stroke="midnightblue" d="M215.8,-123.08C218.91,-115.77 223.42,-105.18 227.29,-96.1"/>
<polygon fill="midnightblue" stroke="midnightblue" points="230.57,-97.32 231.27,-86.75 224.13,-94.58 230.57,-97.32"/>
</g>
<!-- Node9&#45;&gt;Node2 -->
<g id="edge11" class="edge">
<title>Node9&#45;&gt;Node2</title>
<path fill="none" stroke="midnightblue" d="M262.84,-179.08C269.4,-165.62 279.03,-139.89 267,-123 257.3,-109.38 219.32,-97.2 186.9,-88.95"/>
<polygon fill="midnightblue" stroke="midnightblue" points="187.6,-85.52 177.06,-86.52 185.93,-92.32 187.6,-85.52"/>
</g>
<!-- Node9&#45;&gt;Node6 -->
<g id="edge13" class="edge">
<title>Node9&#45;&gt;Node6</title>
<path fill="none" stroke="midnightblue" d="M250.4,-179.08C243.77,-171.3 233.98,-159.8 225.94,-150.37"/>
<polygon fill="midnightblue" stroke="midnightblue" points="228.6,-148.09 219.45,-142.75 223.27,-152.63 228.6,-148.09"/>
</g>
<!-- Node10 -->
<g id="node10" class="node">
<title>Node10</title>
<g id="a_node10"><a xlink:title=" ">
<polygon fill="white" stroke="#bfbfbf" points="315.5,-123.5 315.5,-142.5 356.5,-142.5 356.5,-123.5 315.5,-123.5"/>
<text text-anchor="middle" x="336" y="-130.5" font-family="'Souce Sans Pro', Roboto, FreeSans, sans-serif" font-size="10.00">string</text>
</a>
</g>
</g>
<!-- Node9&#45;&gt;Node10 -->
<g id="edge12" class="edge">
<title>Node9&#45;&gt;Node10</title>
<path fill="none" stroke="midnightblue" d="M270.53,-179.32C282.59,-170.98 301.03,-158.21 315.27,-148.35"/>
<polygon fill="midnightblue" stroke="midnightblue" points="317.27,-151.22 323.5,-142.65 313.28,-145.47 317.27,-151.22"/>
</g>
</g>
</svg>
