<?xml version="1.0" encoding="UTF-8" standalone="no"?>
<!DOCTYPE svg PUBLIC "-//W3C//DTD SVG 1.1//EN"
 "http://www.w3.org/Graphics/SVG/1.1/DTD/svg11.dtd">
<!-- Generated by graphviz version 2.43.0 (0)
 -->
<!-- Title: property.h Pages: 1 -->
<svg width="113pt" height="140pt"
 viewBox="0.00 0.00 113.00 140.00" xmlns="http://www.w3.org/2000/svg" xmlns:xlink="http://www.w3.org/1999/xlink">
<g id="graph0" class="graph" transform="scale(1 1) rotate(0) translate(4 136)">
<title>property.h</title>
<polygon fill="white" stroke="transparent" points="-4,4 -4,-136 109,-136 109,4 -4,4"/>
<!-- Node1 -->
<g id="node1" class="node">
<title>Node1</title>
<g id="a_node1"><a xlink:title=" ">
<polygon fill="#bfbfbf" stroke="black" points="41,-112.5 41,-131.5 102,-131.5 102,-112.5 41,-112.5"/>
<text text-anchor="middle" x="71.5" y="-119.5" font-family="'Souce Sans Pro', Roboto, FreeSans, sans-serif" font-size="10.00">property.h</text>
</a>
</g>
</g>
<!-- Node2 -->
<g id="node2" class="node">
<title>Node2</title>
<g id="a_node2"><a xlink:href="configurator_8h.html" target="_top" xlink:title=" ">
<polygon fill="white" stroke="black" points="0,-56.5 0,-75.5 77,-75.5 77,-56.5 0,-56.5"/>
<text text-anchor="middle" x="38.5" y="-63.5" font-family="'Souce Sans Pro', Roboto, FreeSans, sans-serif" font-size="10.00">configurator.h</text>
</a>
</g>
</g>
<!-- Node1&#45;&gt;Node2 -->
<g id="edge1" class="edge">
<title>Node1&#45;&gt;Node2</title>
<path fill="none" stroke="midnightblue" d="M60.67,-103.27C55.03,-94.05 48.38,-83.17 43.85,-75.75"/>
<polygon fill="midnightblue" stroke="midnightblue" points="57.85,-105.38 66.05,-112.08 63.82,-101.73 57.85,-105.38"/>
</g>
<!-- Node3 -->
<g id="node3" class="node">
<title>Node3</title>
<g id="a_node3"><a xlink:href="log4cplus_8h.html" target="_top" xlink:title=" ">
<polygon fill="white" stroke="black" points="38,-0.5 38,-19.5 105,-19.5 105,-0.5 38,-0.5"/>
<text text-anchor="middle" x="71.5" y="-7.5" font-family="'Souce Sans Pro', Roboto, FreeSans, sans-serif" font-size="10.00">log4cplus.h</text>
</a>
</g>
</g>
<!-- Node1&#45;&gt;Node3 -->
<g id="edge3" class="edge">
<title>Node1&#45;&gt;Node3</title>
<path fill="none" stroke="midnightblue" d="M79.06,-102.78C82.01,-94.72 85.03,-85.04 86.5,-76 89.8,-55.65 81.26,-32.18 75.75,-19.76"/>
<polygon fill="midnightblue" stroke="midnightblue" points="75.74,-101.66 75.36,-112.25 82.26,-104.21 75.74,-101.66"/>
</g>
<!-- Node2&#45;&gt;Node3 -->
<g id="edge2" class="edge">
<title>Node2&#45;&gt;Node3</title>
<path fill="none" stroke="midnightblue" d="M49.33,-47.27C54.97,-38.05 61.62,-27.17 66.15,-19.75"/>
<polygon fill="midnightblue" stroke="midnightblue" points="46.18,-45.73 43.95,-56.08 52.15,-49.38 46.18,-45.73"/>
</g>
</g>
</svg>
