<?xml version="1.0" encoding="UTF-8" standalone="no"?>
<!DOCTYPE svg PUBLIC "-//W3C//DTD SVG 1.1//EN"
 "http://www.w3.org/Graphics/SVG/1.1/DTD/svg11.dtd">
<!-- Generated by graphviz version 2.43.0 (0)
 -->
<!-- Title: queue.h Pages: 1 -->
<svg width="1124pt" height="375pt"
 viewBox="0.00 0.00 1124.00 375.00" xmlns="http://www.w3.org/2000/svg" xmlns:xlink="http://www.w3.org/1999/xlink">
<g id="graph0" class="graph" transform="scale(1 1) rotate(0) translate(4 371)">
<title>queue.h</title>
<polygon fill="white" stroke="transparent" points="-4,4 -4,-371 1120,-371 1120,4 -4,4"/>
<!-- Node1 -->
<g id="node1" class="node">
<title>Node1</title>
<g id="a_node1"><a xlink:title=" ">
<polygon fill="#bfbfbf" stroke="black" points="478,-347.5 478,-366.5 530,-366.5 530,-347.5 478,-347.5"/>
<text text-anchor="middle" x="504" y="-354.5" font-family="'Souce Sans Pro', Roboto, FreeSans, sans-serif" font-size="10.00">queue.h</text>
</a>
</g>
</g>
<!-- Node2 -->
<g id="node2" class="node">
<title>Node2</title>
<g id="a_node2"><a xlink:href="config_8hxx.html" target="_top" xlink:title=" ">
<polygon fill="white" stroke="black" points="467.5,-67.5 467.5,-86.5 576.5,-86.5 576.5,-67.5 467.5,-67.5"/>
<text text-anchor="middle" x="522" y="-74.5" font-family="'Souce Sans Pro', Roboto, FreeSans, sans-serif" font-size="10.00">log4cplus/config.hxx</text>
</a>
</g>
</g>
<!-- Node1&#45;&gt;Node2 -->
<g id="edge1" class="edge">
<title>Node1&#45;&gt;Node2</title>
<path fill="none" stroke="midnightblue" d="M477.96,-355.94C374.76,-355.02 0,-344.85 0,-246 0,-246 0,-246 0,-188 0,-141.81 317.04,-100.8 456.96,-84.96"/>
<polygon fill="midnightblue" stroke="midnightblue" points="457.58,-88.41 467.12,-83.82 456.8,-81.45 457.58,-88.41"/>
</g>
<!-- Node5 -->
<g id="node5" class="node">
<title>Node5</title>
<g id="a_node5"><a xlink:title=" ">
<polygon fill="white" stroke="#bfbfbf" points="33,-179.5 33,-198.5 77,-198.5 77,-179.5 33,-179.5"/>
<text text-anchor="middle" x="55" y="-186.5" font-family="'Souce Sans Pro', Roboto, FreeSans, sans-serif" font-size="10.00">deque</text>
</a>
</g>
</g>
<!-- Node1&#45;&gt;Node5 -->
<g id="edge4" class="edge">
<title>Node1&#45;&gt;Node5</title>
<path fill="none" stroke="midnightblue" d="M477.77,-354.16C390.36,-347.43 111.48,-321.06 57,-255 46.57,-242.35 47.33,-223.15 49.94,-208.89"/>
<polygon fill="midnightblue" stroke="midnightblue" points="53.44,-209.26 52.25,-198.73 46.62,-207.7 53.44,-209.26"/>
</g>
<!-- Node6 -->
<g id="node6" class="node">
<title>Node6</title>
<g id="a_node6"><a xlink:href="loggingevent_8h.html" target="_top" xlink:title=" ">
<polygon fill="white" stroke="black" points="432.5,-291.5 432.5,-310.5 575.5,-310.5 575.5,-291.5 432.5,-291.5"/>
<text text-anchor="middle" x="504" y="-298.5" font-family="'Souce Sans Pro', Roboto, FreeSans, sans-serif" font-size="10.00">log4cplus/spi/loggingevent.h</text>
</a>
</g>
</g>
<!-- Node1&#45;&gt;Node6 -->
<g id="edge5" class="edge">
<title>Node1&#45;&gt;Node6</title>
<path fill="none" stroke="midnightblue" d="M504,-347.08C504,-340.01 504,-329.86 504,-320.99"/>
<polygon fill="midnightblue" stroke="midnightblue" points="507.5,-320.75 504,-310.75 500.5,-320.75 507.5,-320.75"/>
</g>
<!-- Node20 -->
<g id="node20" class="node">
<title>Node20</title>
<g id="a_node20"><a xlink:href="threads_8h.html" target="_top" xlink:title=" ">
<polygon fill="white" stroke="black" points="690.5,-235.5 690.5,-254.5 827.5,-254.5 827.5,-235.5 690.5,-235.5"/>
<text text-anchor="middle" x="759" y="-242.5" font-family="'Souce Sans Pro', Roboto, FreeSans, sans-serif" font-size="10.00">log4cplus/thread/threads.h</text>
</a>
</g>
</g>
<!-- Node1&#45;&gt;Node20 -->
<g id="edge46" class="edge">
<title>Node1&#45;&gt;Node20</title>
<path fill="none" stroke="midnightblue" d="M524.01,-347.37C568.79,-328.05 677.26,-281.26 729.68,-258.65"/>
<polygon fill="midnightblue" stroke="midnightblue" points="731.29,-261.77 739.08,-254.59 728.52,-255.34 731.29,-261.77"/>
</g>
<!-- Node23 -->
<g id="node23" class="node">
<title>Node23</title>
<g id="a_node23"><a xlink:href="syncprims_8h.html" target="_top" xlink:title=" ">
<polygon fill="white" stroke="black" points="949.5,-123.5 949.5,-142.5 1098.5,-142.5 1098.5,-123.5 949.5,-123.5"/>
<text text-anchor="middle" x="1024" y="-130.5" font-family="'Souce Sans Pro', Roboto, FreeSans, sans-serif" font-size="10.00">log4cplus/thread/syncprims.h</text>
</a>
</g>
</g>
<!-- Node1&#45;&gt;Node23 -->
<g id="edge47" class="edge">
<title>Node1&#45;&gt;Node23</title>
<path fill="none" stroke="midnightblue" d="M530.14,-352.99C605.55,-343.18 827.23,-306.33 971,-199 988.61,-185.85 1003.88,-165.61 1013.45,-151.21"/>
<polygon fill="midnightblue" stroke="midnightblue" points="1016.43,-153.04 1018.88,-142.73 1010.54,-149.27 1016.43,-153.04"/>
</g>
<!-- Node3 -->
<g id="node3" class="node">
<title>Node3</title>
<g id="a_node3"><a xlink:href="win32_8h.html" target="_top" xlink:title=" ">
<polygon fill="white" stroke="black" points="385,-6 385,-25 513,-25 513,-6 385,-6"/>
<text text-anchor="middle" x="449" y="-13" font-family="'Souce Sans Pro', Roboto, FreeSans, sans-serif" font-size="10.00">log4cplus/config/win32.h</text>
</a>
</g>
</g>
<!-- Node2&#45;&gt;Node3 -->
<g id="edge2" class="edge">
<title>Node2&#45;&gt;Node3</title>
<path fill="none" stroke="midnightblue" d="M511.54,-67.48C500.05,-58.11 481.37,-42.88 467.41,-31.51"/>
<polygon fill="midnightblue" stroke="midnightblue" points="469.4,-28.61 459.44,-25.01 464.98,-34.04 469.4,-28.61"/>
</g>
<!-- Node4 -->
<g id="node4" class="node">
<title>Node4</title>
<g id="a_node4"><a xlink:href="thread-config_8h.html" target="_top" xlink:title=" ">
<polygon fill="white" stroke="black" points="531,-0.5 531,-30.5 659,-30.5 659,-0.5 531,-0.5"/>
<text text-anchor="start" x="539" y="-18.5" font-family="'Souce Sans Pro', Roboto, FreeSans, sans-serif" font-size="10.00">log4cplus/helpers/thread</text>
<text text-anchor="middle" x="595" y="-7.5" font-family="'Souce Sans Pro', Roboto, FreeSans, sans-serif" font-size="10.00">&#45;config.h</text>
</a>
</g>
</g>
<!-- Node2&#45;&gt;Node4 -->
<g id="edge3" class="edge">
<title>Node2&#45;&gt;Node4</title>
<path fill="none" stroke="midnightblue" d="M532.46,-67.48C542.16,-59.57 556.99,-47.48 569.77,-37.07"/>
<polygon fill="midnightblue" stroke="midnightblue" points="572.26,-39.55 577.8,-30.52 567.83,-34.13 572.26,-39.55"/>
</g>
<!-- Node6&#45;&gt;Node2 -->
<g id="edge6" class="edge">
<title>Node6&#45;&gt;Node2</title>
<path fill="none" stroke="midnightblue" d="M549.65,-291.43C570.24,-285.04 592.67,-274 605,-255 641.27,-199.13 573.14,-124.89 539.37,-93.29"/>
<polygon fill="midnightblue" stroke="midnightblue" points="541.73,-90.7 531.99,-86.54 537.01,-95.87 541.73,-90.7"/>
</g>
<!-- Node7 -->
<g id="node7" class="node">
<title>Node7</title>
<g id="a_node7"><a xlink:title=" ">
<polygon fill="white" stroke="#bfbfbf" points="652,-179.5 652,-198.5 706,-198.5 706,-179.5 652,-179.5"/>
<text text-anchor="middle" x="679" y="-186.5" font-family="'Souce Sans Pro', Roboto, FreeSans, sans-serif" font-size="10.00">memory</text>
</a>
</g>
</g>
<!-- Node6&#45;&gt;Node7 -->
<g id="edge7" class="edge">
<title>Node6&#45;&gt;Node7</title>
<path fill="none" stroke="midnightblue" d="M555.06,-291.44C581.89,-284.95 614.07,-273.8 638,-255 653.53,-242.79 664.81,-222.96 671.56,-208.41"/>
<polygon fill="midnightblue" stroke="midnightblue" points="674.91,-209.5 675.68,-198.93 668.49,-206.71 674.91,-209.5"/>
</g>
<!-- Node8 -->
<g id="node8" class="node">
<title>Node8</title>
<g id="a_node8"><a xlink:href="loglevel_8h.html" target="_top" xlink:title="This header defines the LogLevel type.">
<polygon fill="white" stroke="black" points="492,-235.5 492,-254.5 596,-254.5 596,-235.5 492,-235.5"/>
<text text-anchor="middle" x="544" y="-242.5" font-family="'Souce Sans Pro', Roboto, FreeSans, sans-serif" font-size="10.00">log4cplus/loglevel.h</text>
</a>
</g>
</g>
<!-- Node6&#45;&gt;Node8 -->
<g id="edge8" class="edge">
<title>Node6&#45;&gt;Node8</title>
<path fill="none" stroke="midnightblue" d="M510.61,-291.08C516.26,-283.46 524.54,-272.26 531.45,-262.94"/>
<polygon fill="midnightblue" stroke="midnightblue" points="534.38,-264.87 537.52,-254.75 528.75,-260.7 534.38,-264.87"/>
</g>
<!-- Node10 -->
<g id="node10" class="node">
<title>Node10</title>
<g id="a_node10"><a xlink:href="tstring_8h.html" target="_top" xlink:title=" ">
<polygon fill="white" stroke="black" points="396.5,-179.5 396.5,-198.5 495.5,-198.5 495.5,-179.5 396.5,-179.5"/>
<text text-anchor="middle" x="446" y="-186.5" font-family="'Souce Sans Pro', Roboto, FreeSans, sans-serif" font-size="10.00">log4cplus/tstring.h</text>
</a>
</g>
</g>
<!-- Node6&#45;&gt;Node10 -->
<g id="edge26" class="edge">
<title>Node6&#45;&gt;Node10</title>
<path fill="none" stroke="midnightblue" d="M499.45,-291.37C489.96,-273.38 467.91,-231.55 455.29,-207.63"/>
<polygon fill="midnightblue" stroke="midnightblue" points="458.29,-205.8 450.53,-198.59 452.1,-209.07 458.29,-205.8"/>
</g>
<!-- Node14 -->
<g id="node14" class="node">
<title>Node14</title>
<g id="a_node14"><a xlink:href="ndc_8h.html" target="_top" xlink:title="This header defined the NDC class.">
<polygon fill="white" stroke="black" points="66,-235.5 66,-254.5 154,-254.5 154,-235.5 66,-235.5"/>
<text text-anchor="middle" x="110" y="-242.5" font-family="'Souce Sans Pro', Roboto, FreeSans, sans-serif" font-size="10.00">log4cplus/ndc.h</text>
</a>
</g>
</g>
<!-- Node6&#45;&gt;Node14 -->
<g id="edge17" class="edge">
<title>Node6&#45;&gt;Node14</title>
<path fill="none" stroke="midnightblue" d="M433.69,-291.49C366.89,-283.23 263.38,-269.98 164.13,-255.13"/>
<polygon fill="midnightblue" stroke="midnightblue" points="164.64,-251.66 154.23,-253.64 163.59,-258.58 164.64,-251.66"/>
</g>
<!-- Node16 -->
<g id="node16" class="node">
<title>Node16</title>
<g id="a_node16"><a xlink:href="mdc_8h.html" target="_top" xlink:title=" ">
<polygon fill="white" stroke="black" points="172,-235.5 172,-254.5 264,-254.5 264,-235.5 172,-235.5"/>
<text text-anchor="middle" x="218" y="-242.5" font-family="'Souce Sans Pro', Roboto, FreeSans, sans-serif" font-size="10.00">log4cplus/mdc.h</text>
</a>
</g>
</g>
<!-- Node6&#45;&gt;Node16 -->
<g id="edge22" class="edge">
<title>Node6&#45;&gt;Node16</title>
<path fill="none" stroke="midnightblue" d="M458.68,-291.44C408.37,-281.94 327.16,-266.61 273.19,-256.42"/>
<polygon fill="midnightblue" stroke="midnightblue" points="273.58,-252.93 263.11,-254.52 272.28,-259.81 273.58,-252.93"/>
</g>
<!-- Node17 -->
<g id="node17" class="node">
<title>Node17</title>
<g id="a_node17"><a xlink:href="timehelper_8h.html" target="_top" xlink:title=" ">
<polygon fill="white" stroke="black" points="282,-235.5 282,-254.5 436,-254.5 436,-235.5 282,-235.5"/>
<text text-anchor="middle" x="359" y="-242.5" font-family="'Souce Sans Pro', Roboto, FreeSans, sans-serif" font-size="10.00">log4cplus/helpers/timehelper.h</text>
</a>
</g>
</g>
<!-- Node6&#45;&gt;Node17 -->
<g id="edge27" class="edge">
<title>Node6&#45;&gt;Node17</title>
<path fill="none" stroke="midnightblue" d="M481.02,-291.44C456.84,-282.44 418.58,-268.19 391.35,-258.05"/>
<polygon fill="midnightblue" stroke="midnightblue" points="392.46,-254.73 381.87,-254.52 390.02,-261.29 392.46,-254.73"/>
</g>
<!-- Node6&#45;&gt;Node20 -->
<g id="edge32" class="edge">
<title>Node6&#45;&gt;Node20</title>
<path fill="none" stroke="midnightblue" d="M544.41,-291.44C588.98,-282 660.77,-266.8 708.89,-256.61"/>
<polygon fill="midnightblue" stroke="midnightblue" points="709.73,-260.01 718.78,-254.52 708.28,-253.16 709.73,-260.01"/>
</g>
<!-- Node8&#45;&gt;Node2 -->
<g id="edge9" class="edge">
<title>Node8&#45;&gt;Node2</title>
<path fill="none" stroke="midnightblue" d="M542.82,-235.08C539.35,-208.95 529.18,-132.21 524.46,-96.58"/>
<polygon fill="midnightblue" stroke="midnightblue" points="527.92,-96.02 523.14,-86.57 520.98,-96.94 527.92,-96.02"/>
</g>
<!-- Node9 -->
<g id="node9" class="node">
<title>Node9</title>
<g id="a_node9"><a xlink:title=" ">
<polygon fill="white" stroke="#bfbfbf" points="552,-179.5 552,-198.5 596,-198.5 596,-179.5 552,-179.5"/>
<text text-anchor="middle" x="574" y="-186.5" font-family="'Souce Sans Pro', Roboto, FreeSans, sans-serif" font-size="10.00">vector</text>
</a>
</g>
</g>
<!-- Node8&#45;&gt;Node9 -->
<g id="edge10" class="edge">
<title>Node8&#45;&gt;Node9</title>
<path fill="none" stroke="midnightblue" d="M548.95,-235.08C553.1,-227.61 559.15,-216.72 564.27,-207.52"/>
<polygon fill="midnightblue" stroke="midnightblue" points="567.34,-209.19 569.14,-198.75 561.22,-205.79 567.34,-209.19"/>
</g>
<!-- Node8&#45;&gt;Node10 -->
<g id="edge11" class="edge">
<title>Node8&#45;&gt;Node10</title>
<path fill="none" stroke="midnightblue" d="M528.25,-235.32C512.68,-226.74 488.62,-213.49 470.54,-203.52"/>
<polygon fill="midnightblue" stroke="midnightblue" points="472.15,-200.42 461.71,-198.65 468.78,-206.55 472.15,-200.42"/>
</g>
<!-- Node10&#45;&gt;Node2 -->
<g id="edge12" class="edge">
<title>Node10&#45;&gt;Node2</title>
<path fill="none" stroke="midnightblue" d="M461.2,-179.36C473.84,-171.44 491.43,-158.58 502,-143 511.43,-129.11 516.55,-110.6 519.25,-96.88"/>
<polygon fill="midnightblue" stroke="midnightblue" points="522.75,-97.14 520.98,-86.7 515.85,-95.97 522.75,-97.14"/>
</g>
<!-- Node11 -->
<g id="node11" class="node">
<title>Node11</title>
<g id="a_node11"><a xlink:title=" ">
<polygon fill="white" stroke="#bfbfbf" points="452.5,-123.5 452.5,-142.5 493.5,-142.5 493.5,-123.5 452.5,-123.5"/>
<text text-anchor="middle" x="473" y="-130.5" font-family="'Souce Sans Pro', Roboto, FreeSans, sans-serif" font-size="10.00">string</text>
</a>
</g>
</g>
<!-- Node10&#45;&gt;Node11 -->
<g id="edge13" class="edge">
<title>Node10&#45;&gt;Node11</title>
<path fill="none" stroke="midnightblue" d="M450.46,-179.08C454.15,-171.69 459.52,-160.95 464.09,-151.81"/>
<polygon fill="midnightblue" stroke="midnightblue" points="467.28,-153.26 468.62,-142.75 461.02,-150.13 467.28,-153.26"/>
</g>
<!-- Node12 -->
<g id="node12" class="node">
<title>Node12</title>
<g id="a_node12"><a xlink:href="tchar_8h.html" target="_top" xlink:title=" ">
<polygon fill="white" stroke="black" points="341.5,-123.5 341.5,-142.5 434.5,-142.5 434.5,-123.5 341.5,-123.5"/>
<text text-anchor="middle" x="388" y="-130.5" font-family="'Souce Sans Pro', Roboto, FreeSans, sans-serif" font-size="10.00">log4cplus/tchar.h</text>
</a>
</g>
</g>
<!-- Node10&#45;&gt;Node12 -->
<g id="edge14" class="edge">
<title>Node10&#45;&gt;Node12</title>
<path fill="none" stroke="midnightblue" d="M436.68,-179.32C428.11,-171.34 415.19,-159.31 404.81,-149.65"/>
<polygon fill="midnightblue" stroke="midnightblue" points="407.19,-147.09 397.49,-142.83 402.42,-152.21 407.19,-147.09"/>
</g>
<!-- Node12&#45;&gt;Node2 -->
<g id="edge15" class="edge">
<title>Node12&#45;&gt;Node2</title>
<path fill="none" stroke="midnightblue" d="M409.23,-123.44C431.38,-114.52 466.32,-100.44 491.44,-90.32"/>
<polygon fill="midnightblue" stroke="midnightblue" points="492.9,-93.5 500.87,-86.52 490.28,-87.01 492.9,-93.5"/>
</g>
<!-- Node13 -->
<g id="node13" class="node">
<title>Node13</title>
<g id="a_node13"><a xlink:title=" ">
<polygon fill="white" stroke="#bfbfbf" points="362.5,-67.5 362.5,-86.5 413.5,-86.5 413.5,-67.5 362.5,-67.5"/>
<text text-anchor="middle" x="388" y="-74.5" font-family="'Souce Sans Pro', Roboto, FreeSans, sans-serif" font-size="10.00">cstddef</text>
</a>
</g>
</g>
<!-- Node12&#45;&gt;Node13 -->
<g id="edge16" class="edge">
<title>Node12&#45;&gt;Node13</title>
<path fill="none" stroke="midnightblue" d="M388,-123.08C388,-116.01 388,-105.86 388,-96.99"/>
<polygon fill="midnightblue" stroke="midnightblue" points="391.5,-96.75 388,-86.75 384.5,-96.75 391.5,-96.75"/>
</g>
<!-- Node14&#45;&gt;Node2 -->
<g id="edge18" class="edge">
<title>Node14&#45;&gt;Node2</title>
<path fill="none" stroke="midnightblue" d="M110.19,-235.25C110.96,-221.55 114.38,-194.94 129,-179 172.9,-131.13 357.5,-99.81 457.3,-86.04"/>
<polygon fill="midnightblue" stroke="midnightblue" points="457.83,-89.5 467.27,-84.69 456.89,-82.57 457.83,-89.5"/>
</g>
<!-- Node14&#45;&gt;Node5 -->
<g id="edge21" class="edge">
<title>Node14&#45;&gt;Node5</title>
<path fill="none" stroke="midnightblue" d="M100.92,-235.08C92.83,-227.14 80.8,-215.34 71.09,-205.8"/>
<polygon fill="midnightblue" stroke="midnightblue" points="73.5,-203.26 63.91,-198.75 68.6,-208.25 73.5,-203.26"/>
</g>
<!-- Node14&#45;&gt;Node10 -->
<g id="edge19" class="edge">
<title>Node14&#45;&gt;Node10</title>
<path fill="none" stroke="midnightblue" d="M154.24,-236.45C157.2,-235.96 160.15,-235.47 163,-235 240.11,-222.32 329.13,-208.26 386.42,-199.29"/>
<polygon fill="midnightblue" stroke="midnightblue" points="387.05,-202.73 396.39,-197.73 385.97,-195.82 387.05,-202.73"/>
</g>
<!-- Node15 -->
<g id="node15" class="node">
<title>Node15</title>
<g id="a_node15"><a xlink:title=" ">
<polygon fill="white" stroke="#bfbfbf" points="138,-179.5 138,-198.5 174,-198.5 174,-179.5 138,-179.5"/>
<text text-anchor="middle" x="156" y="-186.5" font-family="'Souce Sans Pro', Roboto, FreeSans, sans-serif" font-size="10.00">map</text>
</a>
</g>
</g>
<!-- Node14&#45;&gt;Node15 -->
<g id="edge20" class="edge">
<title>Node14&#45;&gt;Node15</title>
<path fill="none" stroke="midnightblue" d="M117.6,-235.08C124.23,-227.3 134.02,-215.8 142.06,-206.37"/>
<polygon fill="midnightblue" stroke="midnightblue" points="144.73,-208.63 148.55,-198.75 139.4,-204.09 144.73,-208.63"/>
</g>
<!-- Node16&#45;&gt;Node2 -->
<g id="edge23" class="edge">
<title>Node16&#45;&gt;Node2</title>
<path fill="none" stroke="midnightblue" d="M215.85,-235.2C213.13,-221.9 210.02,-196.38 221,-179 247.43,-137.16 384.88,-104.32 464.6,-88.44"/>
<polygon fill="midnightblue" stroke="midnightblue" points="465.36,-91.86 474.5,-86.5 464.01,-84.99 465.36,-91.86"/>
</g>
<!-- Node16&#45;&gt;Node10 -->
<g id="edge24" class="edge">
<title>Node16&#45;&gt;Node10</title>
<path fill="none" stroke="midnightblue" d="M254.13,-235.44C293.65,-226.08 357.1,-211.06 400.11,-200.87"/>
<polygon fill="midnightblue" stroke="midnightblue" points="401.12,-204.23 410.04,-198.52 399.5,-197.42 401.12,-204.23"/>
</g>
<!-- Node16&#45;&gt;Node15 -->
<g id="edge25" class="edge">
<title>Node16&#45;&gt;Node15</title>
<path fill="none" stroke="midnightblue" d="M208.04,-235.32C198.87,-227.34 185.06,-215.31 173.97,-205.65"/>
<polygon fill="midnightblue" stroke="midnightblue" points="175.98,-202.76 166.14,-198.83 171.38,-208.04 175.98,-202.76"/>
</g>
<!-- Node17&#45;&gt;Node2 -->
<g id="edge28" class="edge">
<title>Node17&#45;&gt;Node2</title>
<path fill="none" stroke="midnightblue" d="M357.55,-235.5C355.32,-222.99 350.73,-198.97 345,-179 340.31,-162.65 334.93,-159.76 332,-143 330.47,-134.24 326.49,-129.97 332,-123 347.51,-103.39 408.23,-91.44 456.91,-84.83"/>
<polygon fill="midnightblue" stroke="midnightblue" points="457.63,-88.27 467.09,-83.5 456.72,-81.32 457.63,-88.27"/>
</g>
<!-- Node17&#45;&gt;Node10 -->
<g id="edge29" class="edge">
<title>Node17&#45;&gt;Node10</title>
<path fill="none" stroke="midnightblue" d="M372.98,-235.32C386.55,-226.9 407.38,-213.97 423.32,-204.07"/>
<polygon fill="midnightblue" stroke="midnightblue" points="425.41,-206.9 432.06,-198.65 421.71,-200.95 425.41,-206.9"/>
</g>
<!-- Node18 -->
<g id="node18" class="node">
<title>Node18</title>
<g id="a_node18"><a xlink:title=" ">
<polygon fill="white" stroke="#bfbfbf" points="230.5,-179.5 230.5,-198.5 271.5,-198.5 271.5,-179.5 230.5,-179.5"/>
<text text-anchor="middle" x="251" y="-186.5" font-family="'Souce Sans Pro', Roboto, FreeSans, sans-serif" font-size="10.00">ctime</text>
</a>
</g>
</g>
<!-- Node17&#45;&gt;Node18 -->
<g id="edge30" class="edge">
<title>Node17&#45;&gt;Node18</title>
<path fill="none" stroke="midnightblue" d="M341.65,-235.32C324.33,-226.66 297.48,-213.24 277.5,-203.25"/>
<polygon fill="midnightblue" stroke="midnightblue" points="278.82,-200 268.31,-198.65 275.69,-206.26 278.82,-200"/>
</g>
<!-- Node19 -->
<g id="node19" class="node">
<title>Node19</title>
<g id="a_node19"><a xlink:title=" ">
<polygon fill="white" stroke="#bfbfbf" points="289.5,-179.5 289.5,-198.5 336.5,-198.5 336.5,-179.5 289.5,-179.5"/>
<text text-anchor="middle" x="313" y="-186.5" font-family="'Souce Sans Pro', Roboto, FreeSans, sans-serif" font-size="10.00">chrono</text>
</a>
</g>
</g>
<!-- Node17&#45;&gt;Node19 -->
<g id="edge31" class="edge">
<title>Node17&#45;&gt;Node19</title>
<path fill="none" stroke="midnightblue" d="M351.4,-235.08C344.77,-227.3 334.98,-215.8 326.94,-206.37"/>
<polygon fill="midnightblue" stroke="midnightblue" points="329.6,-204.09 320.45,-198.75 324.27,-208.63 329.6,-204.09"/>
</g>
<!-- Node20&#45;&gt;Node2 -->
<g id="edge33" class="edge">
<title>Node20&#45;&gt;Node2</title>
<path fill="none" stroke="midnightblue" d="M754.42,-235.32C747.21,-222.16 732.24,-196.83 715,-179 685.59,-148.58 675.15,-143.27 638,-123 612.95,-109.33 582.85,-97.78 559.6,-89.81"/>
<polygon fill="midnightblue" stroke="midnightblue" points="560.68,-86.48 550.08,-86.62 558.45,-93.12 560.68,-86.48"/>
</g>
<!-- Node20&#45;&gt;Node7 -->
<g id="edge34" class="edge">
<title>Node20&#45;&gt;Node7</title>
<path fill="none" stroke="midnightblue" d="M746.15,-235.32C733.78,-226.98 714.87,-214.21 700.26,-204.35"/>
<polygon fill="midnightblue" stroke="midnightblue" points="702.07,-201.35 691.82,-198.65 698.15,-207.15 702.07,-201.35"/>
</g>
<!-- Node20&#45;&gt;Node10 -->
<g id="edge36" class="edge">
<title>Node20&#45;&gt;Node10</title>
<path fill="none" stroke="midnightblue" d="M709.4,-235.44C654,-225.89 564.36,-210.42 505.29,-200.23"/>
<polygon fill="midnightblue" stroke="midnightblue" points="505.81,-196.77 495.36,-198.52 504.62,-203.67 505.81,-196.77"/>
</g>
<!-- Node21 -->
<g id="node21" class="node">
<title>Node21</title>
<g id="a_node21"><a xlink:title=" ">
<polygon fill="white" stroke="#bfbfbf" points="918,-179.5 918,-198.5 962,-198.5 962,-179.5 918,-179.5"/>
<text text-anchor="middle" x="940" y="-186.5" font-family="'Souce Sans Pro', Roboto, FreeSans, sans-serif" font-size="10.00">thread</text>
</a>
</g>
</g>
<!-- Node20&#45;&gt;Node21 -->
<g id="edge35" class="edge">
<title>Node20&#45;&gt;Node21</title>
<path fill="none" stroke="midnightblue" d="M787.68,-235.44C820.38,-225.69 873.71,-209.78 907.81,-199.6"/>
<polygon fill="midnightblue" stroke="midnightblue" points="909.15,-202.86 917.73,-196.64 907.15,-196.15 909.15,-202.86"/>
</g>
<!-- Node22 -->
<g id="node22" class="node">
<title>Node22</title>
<g id="a_node22"><a xlink:href="pointer_8h.html" target="_top" xlink:title=" ">
<polygon fill="white" stroke="black" points="762,-179.5 762,-198.5 900,-198.5 900,-179.5 762,-179.5"/>
<text text-anchor="middle" x="831" y="-186.5" font-family="'Souce Sans Pro', Roboto, FreeSans, sans-serif" font-size="10.00">log4cplus/helpers/pointer.h</text>
</a>
</g>
</g>
<!-- Node20&#45;&gt;Node22 -->
<g id="edge37" class="edge">
<title>Node20&#45;&gt;Node22</title>
<path fill="none" stroke="midnightblue" d="M770.57,-235.32C781.42,-227.18 797.88,-214.84 810.88,-205.09"/>
<polygon fill="midnightblue" stroke="midnightblue" points="813.32,-207.63 819.22,-198.83 809.12,-202.03 813.32,-207.63"/>
</g>
<!-- Node22&#45;&gt;Node2 -->
<g id="edge38" class="edge">
<title>Node22&#45;&gt;Node2</title>
<path fill="none" stroke="midnightblue" d="M811.6,-179.47C791.23,-170.48 758.3,-155.89 730,-143 710.82,-134.27 706.79,-130.24 687,-123 648.59,-108.94 603.74,-96.99 570.51,-88.94"/>
<polygon fill="midnightblue" stroke="midnightblue" points="571.12,-85.49 560.58,-86.57 569.5,-92.29 571.12,-85.49"/>
</g>
<!-- Node22&#45;&gt;Node23 -->
<g id="edge39" class="edge">
<title>Node22&#45;&gt;Node23</title>
<path fill="none" stroke="midnightblue" d="M861.58,-179.44C894.61,-170.2 947.39,-155.44 983.77,-145.26"/>
<polygon fill="midnightblue" stroke="midnightblue" points="984.87,-148.58 993.56,-142.52 982.99,-141.84 984.87,-148.58"/>
</g>
<!-- Node26 -->
<g id="node26" class="node">
<title>Node26</title>
<g id="a_node26"><a xlink:title=" ">
<polygon fill="white" stroke="#bfbfbf" points="872.5,-123.5 872.5,-142.5 931.5,-142.5 931.5,-123.5 872.5,-123.5"/>
<text text-anchor="middle" x="902" y="-130.5" font-family="'Souce Sans Pro', Roboto, FreeSans, sans-serif" font-size="10.00">algorithm</text>
</a>
</g>
</g>
<!-- Node22&#45;&gt;Node26 -->
<g id="edge43" class="edge">
<title>Node22&#45;&gt;Node26</title>
<path fill="none" stroke="midnightblue" d="M842.41,-179.32C853.11,-171.18 869.34,-158.84 882.16,-149.09"/>
<polygon fill="midnightblue" stroke="midnightblue" points="884.54,-151.67 890.39,-142.83 880.31,-146.1 884.54,-151.67"/>
</g>
<!-- Node27 -->
<g id="node27" class="node">
<title>Node27</title>
<g id="a_node27"><a xlink:title=" ">
<polygon fill="white" stroke="#bfbfbf" points="739,-123.5 739,-142.5 789,-142.5 789,-123.5 739,-123.5"/>
<text text-anchor="middle" x="764" y="-130.5" font-family="'Souce Sans Pro', Roboto, FreeSans, sans-serif" font-size="10.00">cassert</text>
</a>
</g>
</g>
<!-- Node22&#45;&gt;Node27 -->
<g id="edge44" class="edge">
<title>Node22&#45;&gt;Node27</title>
<path fill="none" stroke="midnightblue" d="M820.24,-179.32C810.23,-171.26 795.11,-159.08 783.07,-149.37"/>
<polygon fill="midnightblue" stroke="midnightblue" points="784.94,-146.38 774.96,-142.83 780.55,-151.83 784.94,-146.38"/>
</g>
<!-- Node28 -->
<g id="node28" class="node">
<title>Node28</title>
<g id="a_node28"><a xlink:title=" ">
<polygon fill="white" stroke="#bfbfbf" points="807.5,-123.5 807.5,-142.5 854.5,-142.5 854.5,-123.5 807.5,-123.5"/>
<text text-anchor="middle" x="831" y="-130.5" font-family="'Souce Sans Pro', Roboto, FreeSans, sans-serif" font-size="10.00">atomic</text>
</a>
</g>
</g>
<!-- Node22&#45;&gt;Node28 -->
<g id="edge45" class="edge">
<title>Node22&#45;&gt;Node28</title>
<path fill="none" stroke="midnightblue" d="M831,-179.08C831,-172.01 831,-161.86 831,-152.99"/>
<polygon fill="midnightblue" stroke="midnightblue" points="834.5,-152.75 831,-142.75 827.5,-152.75 834.5,-152.75"/>
</g>
<!-- Node23&#45;&gt;Node2 -->
<g id="edge40" class="edge">
<title>Node23&#45;&gt;Node2</title>
<path fill="none" stroke="midnightblue" d="M949.34,-123.9C946.53,-123.6 943.74,-123.3 941,-123 815.49,-109.46 668.81,-93.73 586.53,-84.91"/>
<polygon fill="midnightblue" stroke="midnightblue" points="586.89,-81.43 576.57,-83.84 586.14,-88.39 586.89,-81.43"/>
</g>
<!-- Node24 -->
<g id="node24" class="node">
<title>Node24</title>
<g id="a_node24"><a xlink:title=" ">
<polygon fill="white" stroke="#bfbfbf" points="958,-67.5 958,-86.5 1002,-86.5 1002,-67.5 958,-67.5"/>
<text text-anchor="middle" x="980" y="-74.5" font-family="'Souce Sans Pro', Roboto, FreeSans, sans-serif" font-size="10.00">mutex</text>
</a>
</g>
</g>
<!-- Node23&#45;&gt;Node24 -->
<g id="edge41" class="edge">
<title>Node23&#45;&gt;Node24</title>
<path fill="none" stroke="midnightblue" d="M1016.73,-123.08C1010.46,-115.38 1001.21,-104.03 993.57,-94.65"/>
<polygon fill="midnightblue" stroke="midnightblue" points="996.16,-92.29 987.13,-86.75 990.73,-96.71 996.16,-92.29"/>
</g>
<!-- Node25 -->
<g id="node25" class="node">
<title>Node25</title>
<g id="a_node25"><a xlink:title=" ">
<polygon fill="white" stroke="#bfbfbf" points="1020,-67.5 1020,-86.5 1116,-86.5 1116,-67.5 1020,-67.5"/>
<text text-anchor="middle" x="1068" y="-74.5" font-family="'Souce Sans Pro', Roboto, FreeSans, sans-serif" font-size="10.00">condition_variable</text>
</a>
</g>
</g>
<!-- Node23&#45;&gt;Node25 -->
<g id="edge42" class="edge">
<title>Node23&#45;&gt;Node25</title>
<path fill="none" stroke="midnightblue" d="M1031.27,-123.08C1037.54,-115.38 1046.79,-104.03 1054.43,-94.65"/>
<polygon fill="midnightblue" stroke="midnightblue" points="1057.27,-96.71 1060.87,-86.75 1051.84,-92.29 1057.27,-96.71"/>
</g>
</g>
</svg>
