<?xml version="1.0" encoding="UTF-8" standalone="no"?>
<!DOCTYPE svg PUBLIC "-//W3C//DTD SVG 1.1//EN"
 "http://www.w3.org/Graphics/SVG/1.1/DTD/svg11.dtd">
<!-- Generated by graphviz version 2.43.0 (0)
 -->
<!-- Title: snprintf.h Pages: 1 -->
<svg width="397pt" height="207pt"
 viewBox="0.00 0.00 397.00 207.00" xmlns="http://www.w3.org/2000/svg" xmlns:xlink="http://www.w3.org/1999/xlink">
<g id="graph0" class="graph" transform="scale(1 1) rotate(0) translate(4 203)">
<title>snprintf.h</title>
<polygon fill="white" stroke="transparent" points="-4,4 -4,-203 393,-203 393,4 -4,4"/>
<!-- Node1 -->
<g id="node1" class="node">
<title>Node1</title>
<g id="a_node1"><a xlink:title=" ">
<polygon fill="#bfbfbf" stroke="black" points="227.5,-179.5 227.5,-198.5 286.5,-198.5 286.5,-179.5 227.5,-179.5"/>
<text text-anchor="middle" x="257" y="-186.5" font-family="'Souce Sans Pro', Roboto, FreeSans, sans-serif" font-size="10.00">snprintf.h</text>
</a>
</g>
</g>
<!-- Node2 -->
<g id="node2" class="node">
<title>Node2</title>
<g id="a_node2"><a xlink:href="config_8hxx.html" target="_top" xlink:title=" ">
<polygon fill="white" stroke="black" points="82.5,-67.5 82.5,-86.5 191.5,-86.5 191.5,-67.5 82.5,-67.5"/>
<text text-anchor="middle" x="137" y="-74.5" font-family="'Souce Sans Pro', Roboto, FreeSans, sans-serif" font-size="10.00">log4cplus/config.hxx</text>
</a>
</g>
</g>
<!-- Node1&#45;&gt;Node2 -->
<g id="edge1" class="edge">
<title>Node1&#45;&gt;Node2</title>
<path fill="none" stroke="midnightblue" d="M227.21,-181.63C204.92,-175.38 175.27,-163.69 157,-143 145.66,-130.15 140.75,-110.97 138.62,-96.77"/>
<polygon fill="midnightblue" stroke="midnightblue" points="142.08,-96.2 137.44,-86.67 135.12,-97.01 142.08,-96.2"/>
</g>
<!-- Node5 -->
<g id="node5" class="node">
<title>Node5</title>
<g id="a_node5"><a xlink:href="tchar_8h.html" target="_top" xlink:title=" ">
<polygon fill="white" stroke="black" points="165.5,-123.5 165.5,-142.5 258.5,-142.5 258.5,-123.5 165.5,-123.5"/>
<text text-anchor="middle" x="212" y="-130.5" font-family="'Souce Sans Pro', Roboto, FreeSans, sans-serif" font-size="10.00">log4cplus/tchar.h</text>
</a>
</g>
</g>
<!-- Node1&#45;&gt;Node5 -->
<g id="edge4" class="edge">
<title>Node1&#45;&gt;Node5</title>
<path fill="none" stroke="midnightblue" d="M249.57,-179.08C243.15,-171.38 233.69,-160.03 225.88,-150.65"/>
<polygon fill="midnightblue" stroke="midnightblue" points="228.38,-148.19 219.29,-142.75 223.01,-152.67 228.38,-148.19"/>
</g>
<!-- Node7 -->
<g id="node7" class="node">
<title>Node7</title>
<g id="a_node7"><a xlink:title=" ">
<polygon fill="white" stroke="#bfbfbf" points="277,-123.5 277,-142.5 327,-142.5 327,-123.5 277,-123.5"/>
<text text-anchor="middle" x="302" y="-130.5" font-family="'Souce Sans Pro', Roboto, FreeSans, sans-serif" font-size="10.00">cstdarg</text>
</a>
</g>
</g>
<!-- Node1&#45;&gt;Node7 -->
<g id="edge7" class="edge">
<title>Node1&#45;&gt;Node7</title>
<path fill="none" stroke="midnightblue" d="M264.43,-179.08C270.85,-171.38 280.31,-160.03 288.12,-150.65"/>
<polygon fill="midnightblue" stroke="midnightblue" points="290.99,-152.67 294.71,-142.75 285.62,-148.19 290.99,-152.67"/>
</g>
<!-- Node8 -->
<g id="node8" class="node">
<title>Node8</title>
<g id="a_node8"><a xlink:title=" ">
<polygon fill="white" stroke="#bfbfbf" points="345,-123.5 345,-142.5 389,-142.5 389,-123.5 345,-123.5"/>
<text text-anchor="middle" x="367" y="-130.5" font-family="'Souce Sans Pro', Roboto, FreeSans, sans-serif" font-size="10.00">vector</text>
</a>
</g>
</g>
<!-- Node1&#45;&gt;Node8 -->
<g id="edge8" class="edge">
<title>Node1&#45;&gt;Node8</title>
<path fill="none" stroke="midnightblue" d="M274.67,-179.32C292.39,-170.62 319.9,-157.12 340.29,-147.11"/>
<polygon fill="midnightblue" stroke="midnightblue" points="341.94,-150.2 349.37,-142.65 338.85,-143.92 341.94,-150.2"/>
</g>
<!-- Node3 -->
<g id="node3" class="node">
<title>Node3</title>
<g id="a_node3"><a xlink:href="win32_8h.html" target="_top" xlink:title=" ">
<polygon fill="white" stroke="black" points="0,-6 0,-25 128,-25 128,-6 0,-6"/>
<text text-anchor="middle" x="64" y="-13" font-family="'Souce Sans Pro', Roboto, FreeSans, sans-serif" font-size="10.00">log4cplus/config/win32.h</text>
</a>
</g>
</g>
<!-- Node2&#45;&gt;Node3 -->
<g id="edge2" class="edge">
<title>Node2&#45;&gt;Node3</title>
<path fill="none" stroke="midnightblue" d="M126.54,-67.48C115.05,-58.11 96.37,-42.88 82.41,-31.51"/>
<polygon fill="midnightblue" stroke="midnightblue" points="84.4,-28.61 74.44,-25.01 79.98,-34.04 84.4,-28.61"/>
</g>
<!-- Node4 -->
<g id="node4" class="node">
<title>Node4</title>
<g id="a_node4"><a xlink:href="thread-config_8h.html" target="_top" xlink:title=" ">
<polygon fill="white" stroke="black" points="146,-0.5 146,-30.5 274,-30.5 274,-0.5 146,-0.5"/>
<text text-anchor="start" x="154" y="-18.5" font-family="'Souce Sans Pro', Roboto, FreeSans, sans-serif" font-size="10.00">log4cplus/helpers/thread</text>
<text text-anchor="middle" x="210" y="-7.5" font-family="'Souce Sans Pro', Roboto, FreeSans, sans-serif" font-size="10.00">&#45;config.h</text>
</a>
</g>
</g>
<!-- Node2&#45;&gt;Node4 -->
<g id="edge3" class="edge">
<title>Node2&#45;&gt;Node4</title>
<path fill="none" stroke="midnightblue" d="M147.46,-67.48C157.16,-59.57 171.99,-47.48 184.77,-37.07"/>
<polygon fill="midnightblue" stroke="midnightblue" points="187.26,-39.55 192.8,-30.52 182.83,-34.13 187.26,-39.55"/>
</g>
<!-- Node5&#45;&gt;Node2 -->
<g id="edge5" class="edge">
<title>Node5&#45;&gt;Node2</title>
<path fill="none" stroke="midnightblue" d="M199.95,-123.32C188.54,-115.11 171.17,-102.6 157.57,-92.81"/>
<polygon fill="midnightblue" stroke="midnightblue" points="159.43,-89.84 149.27,-86.83 155.34,-95.52 159.43,-89.84"/>
</g>
<!-- Node6 -->
<g id="node6" class="node">
<title>Node6</title>
<g id="a_node6"><a xlink:title=" ">
<polygon fill="white" stroke="#bfbfbf" points="209.5,-67.5 209.5,-86.5 260.5,-86.5 260.5,-67.5 209.5,-67.5"/>
<text text-anchor="middle" x="235" y="-74.5" font-family="'Souce Sans Pro', Roboto, FreeSans, sans-serif" font-size="10.00">cstddef</text>
</a>
</g>
</g>
<!-- Node5&#45;&gt;Node6 -->
<g id="edge6" class="edge">
<title>Node5&#45;&gt;Node6</title>
<path fill="none" stroke="midnightblue" d="M215.8,-123.08C218.91,-115.77 223.42,-105.18 227.29,-96.1"/>
<polygon fill="midnightblue" stroke="midnightblue" points="230.57,-97.32 231.27,-86.75 224.13,-94.58 230.57,-97.32"/>
</g>
</g>
</svg>
