<?xml version="1.0" encoding="UTF-8" standalone="no"?>
<!DOCTYPE svg PUBLIC "-//W3C//DTD SVG 1.1//EN"
 "http://www.w3.org/Graphics/SVG/1.1/DTD/svg11.dtd">
<!-- Generated by graphviz version 2.43.0 (0)
 -->
<!-- Title: streams.h Pages: 1 -->
<svg width="332pt" height="207pt"
 viewBox="0.00 0.00 331.50 207.00" xmlns="http://www.w3.org/2000/svg" xmlns:xlink="http://www.w3.org/1999/xlink">
<g id="graph0" class="graph" transform="scale(1 1) rotate(0) translate(4 203)">
<title>streams.h</title>
<polygon fill="white" stroke="transparent" points="-4,4 -4,-203 327.5,-203 327.5,4 -4,4"/>
<!-- Node1 -->
<g id="node1" class="node">
<title>Node1</title>
<g id="a_node1"><a xlink:title=" ">
<polygon fill="#bfbfbf" stroke="black" points="181.5,-179.5 181.5,-198.5 242.5,-198.5 242.5,-179.5 181.5,-179.5"/>
<text text-anchor="middle" x="212" y="-186.5" font-family="'Souce Sans Pro', Roboto, FreeSans, sans-serif" font-size="10.00">streams.h</text>
</a>
</g>
</g>
<!-- Node2 -->
<g id="node2" class="node">
<title>Node2</title>
<g id="a_node2"><a xlink:href="config_8hxx.html" target="_top" xlink:title=" ">
<polygon fill="white" stroke="black" points="82.5,-67.5 82.5,-86.5 191.5,-86.5 191.5,-67.5 82.5,-67.5"/>
<text text-anchor="middle" x="137" y="-74.5" font-family="'Souce Sans Pro', Roboto, FreeSans, sans-serif" font-size="10.00">log4cplus/config.hxx</text>
</a>
</g>
</g>
<!-- Node1&#45;&gt;Node2 -->
<g id="edge1" class="edge">
<title>Node1&#45;&gt;Node2</title>
<path fill="none" stroke="midnightblue" d="M197.32,-179.46C184.89,-171.51 167.46,-158.56 157,-143 147.64,-129.07 142.5,-110.56 139.79,-96.86"/>
<polygon fill="midnightblue" stroke="midnightblue" points="143.19,-95.95 138.04,-86.68 136.29,-97.13 143.19,-95.95"/>
</g>
<!-- Node5 -->
<g id="node5" class="node">
<title>Node5</title>
<g id="a_node5"><a xlink:href="tchar_8h.html" target="_top" xlink:title=" ">
<polygon fill="white" stroke="black" points="165.5,-123.5 165.5,-142.5 258.5,-142.5 258.5,-123.5 165.5,-123.5"/>
<text text-anchor="middle" x="212" y="-130.5" font-family="'Souce Sans Pro', Roboto, FreeSans, sans-serif" font-size="10.00">log4cplus/tchar.h</text>
</a>
</g>
</g>
<!-- Node1&#45;&gt;Node5 -->
<g id="edge4" class="edge">
<title>Node1&#45;&gt;Node5</title>
<path fill="none" stroke="midnightblue" d="M212,-179.08C212,-172.01 212,-161.86 212,-152.99"/>
<polygon fill="midnightblue" stroke="midnightblue" points="215.5,-152.75 212,-142.75 208.5,-152.75 215.5,-152.75"/>
</g>
<!-- Node7 -->
<g id="node7" class="node">
<title>Node7</title>
<g id="a_node7"><a xlink:title=" ">
<polygon fill="white" stroke="#bfbfbf" points="276.5,-123.5 276.5,-142.5 323.5,-142.5 323.5,-123.5 276.5,-123.5"/>
<text text-anchor="middle" x="300" y="-130.5" font-family="'Souce Sans Pro', Roboto, FreeSans, sans-serif" font-size="10.00">iosfwd</text>
</a>
</g>
</g>
<!-- Node1&#45;&gt;Node7 -->
<g id="edge7" class="edge">
<title>Node1&#45;&gt;Node7</title>
<path fill="none" stroke="midnightblue" d="M226.14,-179.32C239.87,-170.9 260.94,-157.97 277.06,-148.07"/>
<polygon fill="midnightblue" stroke="midnightblue" points="279.2,-150.87 285.9,-142.65 275.54,-144.9 279.2,-150.87"/>
</g>
<!-- Node3 -->
<g id="node3" class="node">
<title>Node3</title>
<g id="a_node3"><a xlink:href="win32_8h.html" target="_top" xlink:title=" ">
<polygon fill="white" stroke="black" points="0,-6 0,-25 128,-25 128,-6 0,-6"/>
<text text-anchor="middle" x="64" y="-13" font-family="'Souce Sans Pro', Roboto, FreeSans, sans-serif" font-size="10.00">log4cplus/config/win32.h</text>
</a>
</g>
</g>
<!-- Node2&#45;&gt;Node3 -->
<g id="edge2" class="edge">
<title>Node2&#45;&gt;Node3</title>
<path fill="none" stroke="midnightblue" d="M126.54,-67.48C115.05,-58.11 96.37,-42.88 82.41,-31.51"/>
<polygon fill="midnightblue" stroke="midnightblue" points="84.4,-28.61 74.44,-25.01 79.98,-34.04 84.4,-28.61"/>
</g>
<!-- Node4 -->
<g id="node4" class="node">
<title>Node4</title>
<g id="a_node4"><a xlink:href="thread-config_8h.html" target="_top" xlink:title=" ">
<polygon fill="white" stroke="black" points="146,-0.5 146,-30.5 274,-30.5 274,-0.5 146,-0.5"/>
<text text-anchor="start" x="154" y="-18.5" font-family="'Souce Sans Pro', Roboto, FreeSans, sans-serif" font-size="10.00">log4cplus/helpers/thread</text>
<text text-anchor="middle" x="210" y="-7.5" font-family="'Souce Sans Pro', Roboto, FreeSans, sans-serif" font-size="10.00">&#45;config.h</text>
</a>
</g>
</g>
<!-- Node2&#45;&gt;Node4 -->
<g id="edge3" class="edge">
<title>Node2&#45;&gt;Node4</title>
<path fill="none" stroke="midnightblue" d="M147.46,-67.48C157.16,-59.57 171.99,-47.48 184.77,-37.07"/>
<polygon fill="midnightblue" stroke="midnightblue" points="187.26,-39.55 192.8,-30.52 182.83,-34.13 187.26,-39.55"/>
</g>
<!-- Node5&#45;&gt;Node2 -->
<g id="edge5" class="edge">
<title>Node5&#45;&gt;Node2</title>
<path fill="none" stroke="midnightblue" d="M199.95,-123.32C188.54,-115.11 171.17,-102.6 157.57,-92.81"/>
<polygon fill="midnightblue" stroke="midnightblue" points="159.43,-89.84 149.27,-86.83 155.34,-95.52 159.43,-89.84"/>
</g>
<!-- Node6 -->
<g id="node6" class="node">
<title>Node6</title>
<g id="a_node6"><a xlink:title=" ">
<polygon fill="white" stroke="#bfbfbf" points="209.5,-67.5 209.5,-86.5 260.5,-86.5 260.5,-67.5 209.5,-67.5"/>
<text text-anchor="middle" x="235" y="-74.5" font-family="'Souce Sans Pro', Roboto, FreeSans, sans-serif" font-size="10.00">cstddef</text>
</a>
</g>
</g>
<!-- Node5&#45;&gt;Node6 -->
<g id="edge6" class="edge">
<title>Node5&#45;&gt;Node6</title>
<path fill="none" stroke="midnightblue" d="M215.8,-123.08C218.91,-115.77 223.42,-105.18 227.29,-96.1"/>
<polygon fill="midnightblue" stroke="midnightblue" points="230.57,-97.32 231.27,-86.75 224.13,-94.58 230.57,-97.32"/>
</g>
</g>
</svg>
