<?xml version="1.0" encoding="UTF-8" standalone="no"?>
<!DOCTYPE svg PUBLIC "-//W3C//DTD SVG 1.1//EN"
 "http://www.w3.org/Graphics/SVG/1.1/DTD/svg11.dtd">
<!-- Generated by graphviz version 2.43.0 (0)
 -->
<!-- Title: streams.h Pages: 1 -->
<svg width="2035pt" height="420pt"
 viewBox="0.00 0.00 2035.00 420.00" xmlns="http://www.w3.org/2000/svg" xmlns:xlink="http://www.w3.org/1999/xlink">
<g id="graph0" class="graph" transform="scale(1 1) rotate(0) translate(4 416)">
<title>streams.h</title>
<polygon fill="white" stroke="transparent" points="-4,4 -4,-416 2031,-416 2031,4 -4,4"/>
<!-- Node1 -->
<g id="node1" class="node">
<title>Node1</title>
<g id="a_node1"><a xlink:title=" ">
<polygon fill="#bfbfbf" stroke="black" points="87.5,-392.5 87.5,-411.5 148.5,-411.5 148.5,-392.5 87.5,-392.5"/>
<text text-anchor="middle" x="118" y="-399.5" font-family="'Souce Sans Pro', Roboto, FreeSans, sans-serif" font-size="10.00">streams.h</text>
</a>
</g>
</g>
<!-- Node2 -->
<g id="node2" class="node">
<title>Node2</title>
<g id="a_node2"><a xlink:href="loglog_8h.html" target="_top" xlink:title=" ">
<polygon fill="white" stroke="black" points="0,-336.5 0,-355.5 52,-355.5 52,-336.5 0,-336.5"/>
<text text-anchor="middle" x="26" y="-343.5" font-family="'Souce Sans Pro', Roboto, FreeSans, sans-serif" font-size="10.00">loglog.h</text>
</a>
</g>
</g>
<!-- Node1&#45;&gt;Node2 -->
<g id="edge1" class="edge">
<title>Node1&#45;&gt;Node2</title>
<path fill="none" stroke="midnightblue" d="M94.45,-387.18C77.52,-377.24 55.22,-364.15 40.74,-355.65"/>
<polygon fill="midnightblue" stroke="midnightblue" points="92.82,-390.28 103.22,-392.32 96.37,-384.24 92.82,-390.28"/>
</g>
<!-- Node3 -->
<g id="node3" class="node">
<title>Node3</title>
<g id="a_node3"><a xlink:href="property_8h.html" target="_top" xlink:title=" ">
<polygon fill="white" stroke="black" points="108.5,-168.5 108.5,-187.5 169.5,-187.5 169.5,-168.5 108.5,-168.5"/>
<text text-anchor="middle" x="139" y="-175.5" font-family="'Souce Sans Pro', Roboto, FreeSans, sans-serif" font-size="10.00">property.h</text>
</a>
</g>
</g>
<!-- Node1&#45;&gt;Node3 -->
<g id="edge2" class="edge">
<title>Node1&#45;&gt;Node3</title>
<path fill="none" stroke="midnightblue" d="M119.77,-382.3C124.09,-336.64 135.04,-220.85 138.16,-187.88"/>
<polygon fill="midnightblue" stroke="midnightblue" points="116.28,-382.01 118.82,-392.3 123.25,-382.67 116.28,-382.01"/>
</g>
<!-- Node6 -->
<g id="node6" class="node">
<title>Node6</title>
<g id="a_node6"><a xlink:href="internal_8h.html" target="_top" xlink:title="This header contains declaration internal to log4cplus.">
<polygon fill="white" stroke="black" points="1652.5,-336.5 1652.5,-355.5 1709.5,-355.5 1709.5,-336.5 1652.5,-336.5"/>
<text text-anchor="middle" x="1681" y="-343.5" font-family="'Souce Sans Pro', Roboto, FreeSans, sans-serif" font-size="10.00">internal.h</text>
</a>
</g>
</g>
<!-- Node1&#45;&gt;Node6 -->
<g id="edge6" class="edge">
<title>Node1&#45;&gt;Node6</title>
<path fill="none" stroke="midnightblue" d="M158.97,-399.93C325.85,-395.51 970.78,-377.88 1501,-356 1554.46,-353.79 1616.81,-350.52 1652.33,-348.59"/>
<polygon fill="midnightblue" stroke="midnightblue" points="158.57,-396.44 148.67,-400.2 158.76,-403.43 158.57,-396.44"/>
</g>
<!-- Node8 -->
<g id="node8" class="node">
<title>Node8</title>
<g id="a_node8"><a xlink:href="layout_8h.html" target="_top" xlink:title=" ">
<polygon fill="white" stroke="black" points="1440.5,-336.5 1440.5,-355.5 1491.5,-355.5 1491.5,-336.5 1440.5,-336.5"/>
<text text-anchor="middle" x="1466" y="-343.5" font-family="'Souce Sans Pro', Roboto, FreeSans, sans-serif" font-size="10.00">layout.h</text>
</a>
</g>
</g>
<!-- Node1&#45;&gt;Node8 -->
<g id="edge8" class="edge">
<title>Node1&#45;&gt;Node8</title>
<path fill="none" stroke="midnightblue" d="M158.71,-399.37C363.26,-391.17 1275.61,-354.63 1440.43,-348.02"/>
<polygon fill="midnightblue" stroke="midnightblue" points="158.54,-395.87 148.69,-399.77 158.82,-402.87 158.54,-395.87"/>
</g>
<!-- Node30 -->
<g id="node30" class="node">
<title>Node30</title>
<g id="a_node30"><a xlink:href="loggingmacros_8h.html" target="_top" xlink:title="This header defines the logging macros.">
<polygon fill="white" stroke="black" points="975,-56.5 975,-75.5 1065,-75.5 1065,-56.5 975,-56.5"/>
<text text-anchor="middle" x="1020" y="-63.5" font-family="'Souce Sans Pro', Roboto, FreeSans, sans-serif" font-size="10.00">loggingmacros.h</text>
</a>
</g>
</g>
<!-- Node1&#45;&gt;Node30 -->
<g id="edge54" class="edge">
<title>Node1&#45;&gt;Node30</title>
<path fill="none" stroke="midnightblue" d="M107.86,-383.43C96.6,-362.24 80,-325.19 80,-291 80,-291 80,-291 80,-177 80,-77.92 867.83,-89.38 966,-76 968.92,-75.6 971.92,-75.17 974.95,-74.71"/>
<polygon fill="midnightblue" stroke="midnightblue" points="104.82,-385.17 112.72,-392.23 110.95,-381.78 104.82,-385.17"/>
</g>
<!-- Node4 -->
<g id="node4" class="node">
<title>Node4</title>
<g id="a_node4"><a xlink:href="configurator_8h.html" target="_top" xlink:title=" ">
<polygon fill="white" stroke="black" points="1159.5,-112.5 1159.5,-131.5 1236.5,-131.5 1236.5,-112.5 1159.5,-112.5"/>
<text text-anchor="middle" x="1198" y="-119.5" font-family="'Souce Sans Pro', Roboto, FreeSans, sans-serif" font-size="10.00">configurator.h</text>
</a>
</g>
</g>
<!-- Node3&#45;&gt;Node4 -->
<g id="edge3" class="edge">
<title>Node3&#45;&gt;Node4</title>
<path fill="none" stroke="midnightblue" d="M179.98,-175.79C313.18,-171.7 745.83,-157.24 1103,-132 1121.51,-130.69 1142.01,-128.81 1159.21,-127.1"/>
<polygon fill="midnightblue" stroke="midnightblue" points="179.72,-172.29 169.83,-176.1 179.93,-179.29 179.72,-172.29"/>
</g>
<!-- Node5 -->
<g id="node5" class="node">
<title>Node5</title>
<g id="a_node5"><a xlink:href="log4cplus_8h.html" target="_top" xlink:title=" ">
<polygon fill="white" stroke="black" points="1408.5,-0.5 1408.5,-19.5 1475.5,-19.5 1475.5,-0.5 1408.5,-0.5"/>
<text text-anchor="middle" x="1442" y="-7.5" font-family="'Souce Sans Pro', Roboto, FreeSans, sans-serif" font-size="10.00">log4cplus.h</text>
</a>
</g>
</g>
<!-- Node3&#45;&gt;Node5 -->
<g id="edge5" class="edge">
<title>Node3&#45;&gt;Node5</title>
<path fill="none" stroke="midnightblue" d="M179.6,-169.22C291.45,-148.05 613.74,-88.79 884,-56 1082.03,-31.97 1321.21,-17.55 1408.25,-12.77"/>
<polygon fill="midnightblue" stroke="midnightblue" points="178.92,-165.79 169.74,-171.09 180.22,-172.67 178.92,-165.79"/>
</g>
<!-- Node4&#45;&gt;Node5 -->
<g id="edge4" class="edge">
<title>Node4&#45;&gt;Node5</title>
<path fill="none" stroke="midnightblue" d="M1197.84,-102.01C1198.78,-87.38 1202.54,-67.74 1215,-56 1242.5,-30.11 1352.03,-17.98 1408.28,-13.36"/>
<polygon fill="midnightblue" stroke="midnightblue" points="1194.33,-102.33 1197.58,-112.41 1201.33,-102.51 1194.33,-102.33"/>
</g>
<!-- Node7 -->
<g id="node7" class="node">
<title>Node7</title>
<g id="a_node7"><a xlink:href="customloglevelmanager_8h.html" target="_top" xlink:title="This header contains declaration internal to log4cplus.">
<polygon fill="white" stroke="black" points="1897,-280.5 1897,-299.5 2027,-299.5 2027,-280.5 1897,-280.5"/>
<text text-anchor="middle" x="1962" y="-287.5" font-family="'Souce Sans Pro', Roboto, FreeSans, sans-serif" font-size="10.00">customloglevelmanager.h</text>
</a>
</g>
</g>
<!-- Node6&#45;&gt;Node7 -->
<g id="edge7" class="edge">
<title>Node6&#45;&gt;Node7</title>
<path fill="none" stroke="midnightblue" d="M1719.86,-337.53C1771.61,-327.59 1862.93,-310.04 1917.42,-299.57"/>
<polygon fill="midnightblue" stroke="midnightblue" points="1718.91,-334.15 1709.75,-339.47 1720.23,-341.02 1718.91,-334.15"/>
</g>
<!-- Node8&#45;&gt;Node5 -->
<g id="edge52" class="edge">
<title>Node8&#45;&gt;Node5</title>
<path fill="none" stroke="midnightblue" d="M1501.58,-342.91C1600.06,-336.18 1869,-310.84 1869,-235 1869,-235 1869,-235 1869,-121 1869,-79.19 1838.76,-73.95 1801,-56 1743.7,-28.76 1553.31,-16.49 1475.53,-12.53"/>
<polygon fill="midnightblue" stroke="midnightblue" points="1501.26,-339.43 1491.52,-343.58 1501.72,-346.41 1501.26,-339.43"/>
</g>
<!-- Node9 -->
<g id="node9" class="node">
<title>Node9</title>
<g id="a_node9"><a xlink:href="appender_8h.html" target="_top" xlink:title=" ">
<polygon fill="white" stroke="black" points="1294.5,-280.5 1294.5,-299.5 1359.5,-299.5 1359.5,-280.5 1294.5,-280.5"/>
<text text-anchor="middle" x="1327" y="-287.5" font-family="'Souce Sans Pro', Roboto, FreeSans, sans-serif" font-size="10.00">appender.h</text>
</a>
</g>
</g>
<!-- Node8&#45;&gt;Node9 -->
<g id="edge9" class="edge">
<title>Node8&#45;&gt;Node9</title>
<path fill="none" stroke="midnightblue" d="M1434.52,-332.77C1408.41,-322.63 1371.96,-308.47 1348.92,-299.52"/>
<polygon fill="midnightblue" stroke="midnightblue" points="1433.39,-336.08 1443.98,-336.44 1435.92,-329.56 1433.39,-336.08"/>
</g>
<!-- Node32 -->
<g id="node32" class="node">
<title>Node32</title>
<g id="a_node32"><a xlink:href="factory_8h.html" target="_top" xlink:title=" ">
<polygon fill="white" stroke="black" points="1785,-224.5 1785,-243.5 1841,-243.5 1841,-224.5 1785,-224.5"/>
<text text-anchor="middle" x="1813" y="-231.5" font-family="'Souce Sans Pro', Roboto, FreeSans, sans-serif" font-size="10.00">factory.h</text>
</a>
</g>
</g>
<!-- Node8&#45;&gt;Node32 -->
<g id="edge53" class="edge">
<title>Node8&#45;&gt;Node32</title>
<path fill="none" stroke="midnightblue" d="M1501.12,-333.87C1570.52,-311.87 1723.85,-263.26 1786.02,-243.55"/>
<polygon fill="midnightblue" stroke="midnightblue" points="1499.99,-330.55 1491.52,-336.91 1502.11,-337.23 1499.99,-330.55"/>
</g>
<!-- Node9&#45;&gt;Node4 -->
<g id="edge15" class="edge">
<title>Node9&#45;&gt;Node4</title>
<path fill="none" stroke="midnightblue" d="M1359.01,-276.31C1385.22,-264.06 1415.5,-244.41 1399,-224 1350.99,-164.62 1291.51,-234.58 1231,-188 1212.35,-173.64 1203.38,-145.83 1199.87,-131.7"/>
<polygon fill="midnightblue" stroke="midnightblue" points="1357.35,-273.22 1349.63,-280.48 1360.19,-279.62 1357.35,-273.22"/>
</g>
<!-- Node9&#45;&gt;Node5 -->
<g id="edge21" class="edge">
<title>Node9&#45;&gt;Node5</title>
<path fill="none" stroke="midnightblue" d="M1369.85,-285.97C1446.15,-280.11 1602.24,-265.82 1652,-244 1730.56,-209.55 1736.88,-161.18 1747,-76 1748.05,-67.17 1752.81,-62.73 1747,-56 1712.24,-15.74 1547.62,-10.87 1475.72,-10.7"/>
<polygon fill="midnightblue" stroke="midnightblue" points="1369.34,-282.5 1359.63,-286.75 1369.87,-289.48 1369.34,-282.5"/>
</g>
<!-- Node10 -->
<g id="node10" class="node">
<title>Node10</title>
<g id="a_node10"><a xlink:href="asyncappender_8h.html" target="_top" xlink:title=" ">
<polygon fill="white" stroke="black" points="1390.5,-112.5 1390.5,-131.5 1481.5,-131.5 1481.5,-112.5 1390.5,-112.5"/>
<text text-anchor="middle" x="1436" y="-119.5" font-family="'Souce Sans Pro', Roboto, FreeSans, sans-serif" font-size="10.00">asyncappender.h</text>
</a>
</g>
</g>
<!-- Node9&#45;&gt;Node10 -->
<g id="edge10" class="edge">
<title>Node9&#45;&gt;Node10</title>
<path fill="none" stroke="midnightblue" d="M1370.03,-288.28C1403.26,-285.18 1447.29,-274.96 1470,-244 1475.26,-236.83 1471.74,-232.72 1470,-224 1466.6,-207 1460.77,-204.34 1455,-188 1447.95,-168.05 1441.42,-144.02 1438.17,-131.51"/>
<polygon fill="midnightblue" stroke="midnightblue" points="1369.37,-284.82 1359.66,-289.06 1369.89,-291.8 1369.37,-284.82"/>
</g>
<!-- Node11 -->
<g id="node11" class="node">
<title>Node11</title>
<g id="a_node11"><a xlink:href="deviceappender_8hxx.html" target="_top" xlink:title=" ">
<polygon fill="white" stroke="black" points="312,-224.5 312,-243.5 416,-243.5 416,-224.5 312,-224.5"/>
<text text-anchor="middle" x="364" y="-231.5" font-family="'Souce Sans Pro', Roboto, FreeSans, sans-serif" font-size="10.00">deviceappender.hxx</text>
</a>
</g>
</g>
<!-- Node9&#45;&gt;Node11 -->
<g id="edge12" class="edge">
<title>Node9&#45;&gt;Node11</title>
<path fill="none" stroke="midnightblue" d="M1283.83,-288.33C1153.76,-285.98 754.34,-276.43 425,-244 422.12,-243.72 419.18,-243.39 416.2,-243.04"/>
<polygon fill="midnightblue" stroke="midnightblue" points="1284.09,-291.83 1294.15,-288.51 1284.21,-284.83 1284.09,-291.83"/>
</g>
<!-- Node12 -->
<g id="node12" class="node">
<title>Node12</title>
<g id="a_node12"><a xlink:href="callbackappender_8h.html" target="_top" xlink:title=" ">
<polygon fill="white" stroke="black" points="434.5,-224.5 434.5,-243.5 535.5,-243.5 535.5,-224.5 434.5,-224.5"/>
<text text-anchor="middle" x="485" y="-231.5" font-family="'Souce Sans Pro', Roboto, FreeSans, sans-serif" font-size="10.00">callbackappender.h</text>
</a>
</g>
</g>
<!-- Node9&#45;&gt;Node12 -->
<g id="edge13" class="edge">
<title>Node9&#45;&gt;Node12</title>
<path fill="none" stroke="midnightblue" d="M1284.05,-287.91C1165.87,-284.6 825.99,-273.1 545,-244 541.96,-243.69 538.84,-243.33 535.7,-242.94"/>
<polygon fill="midnightblue" stroke="midnightblue" points="1284.04,-291.41 1294.13,-288.18 1284.23,-284.41 1284.04,-291.41"/>
</g>
<!-- Node13 -->
<g id="node13" class="node">
<title>Node13</title>
<g id="a_node13"><a xlink:href="clfsappender_8h.html" target="_top" xlink:title=" ">
<polygon fill="white" stroke="black" points="554,-224.5 554,-243.5 636,-243.5 636,-224.5 554,-224.5"/>
<text text-anchor="middle" x="595" y="-231.5" font-family="'Souce Sans Pro', Roboto, FreeSans, sans-serif" font-size="10.00">clfsappender.h</text>
</a>
</g>
</g>
<!-- Node9&#45;&gt;Node13 -->
<g id="edge14" class="edge">
<title>Node9&#45;&gt;Node13</title>
<path fill="none" stroke="midnightblue" d="M1284.07,-287.84C1176.26,-284.56 885.5,-273.49 645,-244 642.11,-243.65 639.14,-243.23 636.15,-242.78"/>
<polygon fill="midnightblue" stroke="midnightblue" points="1284.13,-291.34 1294.23,-288.14 1284.33,-284.35 1284.13,-291.34"/>
</g>
<!-- Node14 -->
<g id="node14" class="node">
<title>Node14</title>
<g id="a_node14"><a xlink:href="consoleappender_8h.html" target="_top" xlink:title=" ">
<polygon fill="white" stroke="black" points="1312.5,-56.5 1312.5,-75.5 1413.5,-75.5 1413.5,-56.5 1312.5,-56.5"/>
<text text-anchor="middle" x="1363" y="-63.5" font-family="'Souce Sans Pro', Roboto, FreeSans, sans-serif" font-size="10.00">consoleappender.h</text>
</a>
</g>
</g>
<!-- Node9&#45;&gt;Node14 -->
<g id="edge16" class="edge">
<title>Node9&#45;&gt;Node14</title>
<path fill="none" stroke="midnightblue" d="M1369.27,-278.33C1386.91,-271.56 1405.67,-260.8 1416,-244 1431.97,-218.03 1409.77,-219.76 1381,-132 1374.51,-112.19 1368.34,-88.51 1365.19,-75.91"/>
<polygon fill="midnightblue" stroke="midnightblue" points="1367.93,-275.09 1359.65,-281.69 1370.24,-281.69 1367.93,-275.09"/>
</g>
<!-- Node15 -->
<g id="node15" class="node">
<title>Node15</title>
<g id="a_node15"><a xlink:href="fileappender_8h.html" target="_top" xlink:title=" ">
<polygon fill="white" stroke="black" points="1464,-168.5 1464,-187.5 1542,-187.5 1542,-168.5 1464,-168.5"/>
<text text-anchor="middle" x="1503" y="-175.5" font-family="'Souce Sans Pro', Roboto, FreeSans, sans-serif" font-size="10.00">fileappender.h</text>
</a>
</g>
</g>
<!-- Node9&#45;&gt;Node15 -->
<g id="edge18" class="edge">
<title>Node9&#45;&gt;Node15</title>
<path fill="none" stroke="midnightblue" d="M1369.98,-284.37C1417.99,-278.21 1491.18,-265.51 1508,-244 1520.83,-227.59 1512.63,-201.19 1507.01,-187.64"/>
<polygon fill="midnightblue" stroke="midnightblue" points="1369.35,-280.92 1359.86,-285.62 1370.21,-287.87 1369.35,-280.92"/>
</g>
<!-- Node16 -->
<g id="node16" class="node">
<title>Node16</title>
<g id="a_node16"><a xlink:href="hierarchylocker_8h.html" target="_top" xlink:title=" ">
<polygon fill="white" stroke="black" points="644.5,-112.5 644.5,-131.5 735.5,-131.5 735.5,-112.5 644.5,-112.5"/>
<text text-anchor="middle" x="690" y="-119.5" font-family="'Souce Sans Pro', Roboto, FreeSans, sans-serif" font-size="10.00">hierarchylocker.h</text>
</a>
</g>
</g>
<!-- Node9&#45;&gt;Node16 -->
<g id="edge20" class="edge">
<title>Node9&#45;&gt;Node16</title>
<path fill="none" stroke="midnightblue" d="M1284.39,-288.97C1080.65,-288.62 214.16,-284.72 175,-244 107.44,-173.75 505.92,-136.81 644.1,-126.24"/>
<polygon fill="midnightblue" stroke="midnightblue" points="1284.4,-292.47 1294.4,-288.98 1284.41,-285.47 1284.4,-292.47"/>
</g>
<!-- Node17 -->
<g id="node17" class="node">
<title>Node17</title>
<g id="a_node17"><a xlink:href="log4judpappender_8h.html" target="_top" xlink:title=" ">
<polygon fill="white" stroke="black" points="654.5,-224.5 654.5,-243.5 757.5,-243.5 757.5,-224.5 654.5,-224.5"/>
<text text-anchor="middle" x="706" y="-231.5" font-family="'Souce Sans Pro', Roboto, FreeSans, sans-serif" font-size="10.00">log4judpappender.h</text>
</a>
</g>
</g>
<!-- Node9&#45;&gt;Node17 -->
<g id="edge22" class="edge">
<title>Node9&#45;&gt;Node17</title>
<path fill="none" stroke="midnightblue" d="M1284.11,-286.57C1190.07,-281.02 958.78,-266.16 766,-244 763.28,-243.69 760.49,-243.35 757.68,-242.98"/>
<polygon fill="midnightblue" stroke="midnightblue" points="1284.17,-290.08 1294.36,-287.17 1284.58,-283.09 1284.17,-290.08"/>
</g>
<!-- Node18 -->
<g id="node18" class="node">
<title>Node18</title>
<g id="a_node18"><a xlink:href="msttsappender_8h.html" target="_top" xlink:title=" ">
<polygon fill="white" stroke="black" points="775.5,-224.5 775.5,-243.5 866.5,-243.5 866.5,-224.5 775.5,-224.5"/>
<text text-anchor="middle" x="821" y="-231.5" font-family="'Souce Sans Pro', Roboto, FreeSans, sans-serif" font-size="10.00">msttsappender.h</text>
</a>
</g>
</g>
<!-- Node9&#45;&gt;Node18 -->
<g id="edge23" class="edge">
<title>Node9&#45;&gt;Node18</title>
<path fill="none" stroke="midnightblue" d="M1284.17,-285.63C1203.92,-279.11 1025.51,-263.67 876,-244 872.93,-243.6 869.77,-243.15 866.59,-242.69"/>
<polygon fill="midnightblue" stroke="midnightblue" points="1284.13,-289.14 1294.38,-286.45 1284.69,-282.16 1284.13,-289.14"/>
</g>
<!-- Node19 -->
<g id="node19" class="node">
<title>Node19</title>
<g id="a_node19"><a xlink:href="nteventlogappender_8h.html" target="_top" xlink:title=" ">
<polygon fill="white" stroke="black" points="885,-224.5 885,-243.5 995,-243.5 995,-224.5 885,-224.5"/>
<text text-anchor="middle" x="940" y="-231.5" font-family="'Souce Sans Pro', Roboto, FreeSans, sans-serif" font-size="10.00">nteventlogappender.h</text>
</a>
</g>
</g>
<!-- Node9&#45;&gt;Node19 -->
<g id="edge24" class="edge">
<title>Node9&#45;&gt;Node19</title>
<path fill="none" stroke="midnightblue" d="M1284.3,-283.07C1222.47,-274.48 1104.44,-258.06 1004,-244 1001.11,-243.6 998.15,-243.18 995.16,-242.76"/>
<polygon fill="midnightblue" stroke="midnightblue" points="1284.06,-286.57 1294.45,-284.48 1285.02,-279.64 1284.06,-286.57"/>
</g>
<!-- Node20 -->
<g id="node20" class="node">
<title>Node20</title>
<g id="a_node20"><a xlink:href="nullappender_8h.html" target="_top" xlink:title=" ">
<polygon fill="white" stroke="black" points="1508,-56.5 1508,-75.5 1588,-75.5 1588,-56.5 1508,-56.5"/>
<text text-anchor="middle" x="1548" y="-63.5" font-family="'Souce Sans Pro', Roboto, FreeSans, sans-serif" font-size="10.00">nullappender.h</text>
</a>
</g>
</g>
<!-- Node9&#45;&gt;Node20 -->
<g id="edge25" class="edge">
<title>Node9&#45;&gt;Node20</title>
<path fill="none" stroke="midnightblue" d="M1369.64,-283.76C1420.46,-276.77 1501.47,-263.02 1525,-244 1577.05,-201.92 1557.64,-104.84 1550.3,-75.53"/>
<polygon fill="midnightblue" stroke="midnightblue" points="1369.04,-280.31 1359.59,-285.11 1369.97,-287.25 1369.04,-280.31"/>
</g>
<!-- Node21 -->
<g id="node21" class="node">
<title>Node21</title>
<g id="a_node21"><a xlink:href="qt4debugappender_8h.html" target="_top" xlink:title=" ">
<polygon fill="white" stroke="black" points="1013.5,-224.5 1013.5,-243.5 1120.5,-243.5 1120.5,-224.5 1013.5,-224.5"/>
<text text-anchor="middle" x="1067" y="-231.5" font-family="'Souce Sans Pro', Roboto, FreeSans, sans-serif" font-size="10.00">qt4debugappender.h</text>
</a>
</g>
</g>
<!-- Node9&#45;&gt;Node21 -->
<g id="edge27" class="edge">
<title>Node9&#45;&gt;Node21</title>
<path fill="none" stroke="midnightblue" d="M1284.43,-280.16C1235.72,-270.04 1156.49,-253.59 1108.31,-243.58"/>
<polygon fill="midnightblue" stroke="midnightblue" points="1283.83,-283.61 1294.33,-282.22 1285.25,-276.76 1283.83,-283.61"/>
</g>
<!-- Node22 -->
<g id="node22" class="node">
<title>Node22</title>
<g id="a_node22"><a xlink:href="qt5debugappender_8h.html" target="_top" xlink:title=" ">
<polygon fill="white" stroke="black" points="1138.5,-224.5 1138.5,-243.5 1245.5,-243.5 1245.5,-224.5 1138.5,-224.5"/>
<text text-anchor="middle" x="1192" y="-231.5" font-family="'Souce Sans Pro', Roboto, FreeSans, sans-serif" font-size="10.00">qt5debugappender.h</text>
</a>
</g>
</g>
<!-- Node9&#45;&gt;Node22 -->
<g id="edge28" class="edge">
<title>Node9&#45;&gt;Node22</title>
<path fill="none" stroke="midnightblue" d="M1296.09,-276.64C1270.76,-266.5 1235.57,-252.43 1213.29,-243.52"/>
<polygon fill="midnightblue" stroke="midnightblue" points="1295.02,-279.98 1305.61,-280.44 1297.62,-273.48 1295.02,-279.98"/>
</g>
<!-- Node23 -->
<g id="node23" class="node">
<title>Node23</title>
<g id="a_node23"><a xlink:href="socketappender_8h.html" target="_top" xlink:title=" ">
<polygon fill="white" stroke="black" points="1598.5,-168.5 1598.5,-187.5 1693.5,-187.5 1693.5,-168.5 1598.5,-168.5"/>
<text text-anchor="middle" x="1646" y="-175.5" font-family="'Souce Sans Pro', Roboto, FreeSans, sans-serif" font-size="10.00">socketappender.h</text>
</a>
</g>
</g>
<!-- Node9&#45;&gt;Node23 -->
<g id="edge29" class="edge">
<title>Node9&#45;&gt;Node23</title>
<path fill="none" stroke="midnightblue" d="M1369.63,-289.51C1422.87,-288.43 1515.29,-280.75 1584,-244 1609.58,-230.32 1630.72,-202.2 1640.37,-187.85"/>
<polygon fill="midnightblue" stroke="midnightblue" points="1369.48,-286.02 1359.53,-289.65 1369.57,-293.02 1369.48,-286.02"/>
</g>
<!-- Node24 -->
<g id="node24" class="node">
<title>Node24</title>
<g id="a_node24"><a xlink:href="appenderattachable_8h.html" target="_top" xlink:title=" ">
<polygon fill="white" stroke="black" points="184,-224.5 184,-243.5 294,-243.5 294,-224.5 184,-224.5"/>
<text text-anchor="middle" x="239" y="-231.5" font-family="'Souce Sans Pro', Roboto, FreeSans, sans-serif" font-size="10.00">appenderattachable.h</text>
</a>
</g>
</g>
<!-- Node9&#45;&gt;Node24 -->
<g id="edge31" class="edge">
<title>Node9&#45;&gt;Node24</title>
<path fill="none" stroke="midnightblue" d="M1283.83,-288.58C1142.67,-286.9 682.08,-278.9 303,-244 300.09,-243.73 297.12,-243.43 294.12,-243.09"/>
<polygon fill="midnightblue" stroke="midnightblue" points="1284.17,-292.09 1294.21,-288.7 1284.25,-285.09 1284.17,-292.09"/>
</g>
<!-- Node9&#45;&gt;Node32 -->
<g id="edge47" class="edge">
<title>Node9&#45;&gt;Node32</title>
<path fill="none" stroke="midnightblue" d="M1369.85,-286.23C1449.3,-280.75 1624.69,-267.02 1771,-244 1775.42,-243.3 1780.08,-242.44 1784.61,-241.53"/>
<polygon fill="midnightblue" stroke="midnightblue" points="1369.48,-282.75 1359.75,-286.92 1369.96,-289.73 1369.48,-282.75"/>
</g>
<!-- Node33 -->
<g id="node33" class="node">
<title>Node33</title>
<g id="a_node33"><a xlink:href="syslogappender_8h.html" target="_top" xlink:title=" ">
<polygon fill="white" stroke="black" points="1644,-56.5 1644,-75.5 1738,-75.5 1738,-56.5 1644,-56.5"/>
<text text-anchor="middle" x="1691" y="-63.5" font-family="'Souce Sans Pro', Roboto, FreeSans, sans-serif" font-size="10.00">syslogappender.h</text>
</a>
</g>
</g>
<!-- Node9&#45;&gt;Node33 -->
<g id="edge49" class="edge">
<title>Node9&#45;&gt;Node33</title>
<path fill="none" stroke="midnightblue" d="M1369.86,-287.28C1426.43,-283.87 1528.39,-273.78 1610,-244 1655.33,-227.46 1679.26,-230 1703,-188 1724.08,-150.69 1704.18,-96.47 1695.04,-75.61"/>
<polygon fill="midnightblue" stroke="midnightblue" points="1369.63,-283.78 1359.84,-287.84 1370.02,-290.77 1369.63,-283.78"/>
</g>
<!-- Node34 -->
<g id="node34" class="node">
<title>Node34</title>
<g id="a_node34"><a xlink:href="win32consoleappender_8h.html" target="_top" xlink:title=" ">
<polygon fill="white" stroke="black" points="1264,-224.5 1264,-243.5 1390,-243.5 1390,-224.5 1264,-224.5"/>
<text text-anchor="middle" x="1327" y="-231.5" font-family="'Souce Sans Pro', Roboto, FreeSans, sans-serif" font-size="10.00">win32consoleappender.h</text>
</a>
</g>
</g>
<!-- Node9&#45;&gt;Node34 -->
<g id="edge51" class="edge">
<title>Node9&#45;&gt;Node34</title>
<path fill="none" stroke="midnightblue" d="M1327,-269.8C1327,-260.91 1327,-250.78 1327,-243.75"/>
<polygon fill="midnightblue" stroke="midnightblue" points="1323.5,-270.08 1327,-280.08 1330.5,-270.08 1323.5,-270.08"/>
</g>
<!-- Node10&#45;&gt;Node5 -->
<g id="edge11" class="edge">
<title>Node10&#45;&gt;Node5</title>
<path fill="none" stroke="midnightblue" d="M1437.02,-102.35C1438.33,-78.25 1440.57,-37.31 1441.53,-19.59"/>
<polygon fill="midnightblue" stroke="midnightblue" points="1433.52,-102.19 1436.47,-112.37 1440.51,-102.57 1433.52,-102.19"/>
</g>
<!-- Node14&#45;&gt;Node5 -->
<g id="edge17" class="edge">
<title>Node14&#45;&gt;Node5</title>
<path fill="none" stroke="midnightblue" d="M1384.03,-50.62C1398.47,-40.76 1417.14,-27.99 1429.34,-19.65"/>
<polygon fill="midnightblue" stroke="midnightblue" points="1381.97,-47.79 1375.69,-56.32 1385.92,-53.57 1381.97,-47.79"/>
</g>
<!-- Node15&#45;&gt;Node5 -->
<g id="edge19" class="edge">
<title>Node15&#45;&gt;Node5</title>
<path fill="none" stroke="midnightblue" d="M1500.9,-158.24C1499.09,-145.07 1495.98,-127.18 1491,-112 1479.21,-76.08 1457.15,-36.6 1447.16,-19.58"/>
<polygon fill="midnightblue" stroke="midnightblue" points="1497.45,-158.91 1502.16,-168.4 1504.4,-158.05 1497.45,-158.91"/>
</g>
<!-- Node20&#45;&gt;Node5 -->
<g id="edge26" class="edge">
<title>Node20&#45;&gt;Node5</title>
<path fill="none" stroke="midnightblue" d="M1521.94,-51.73C1502.32,-41.73 1475.97,-28.31 1458.99,-19.65"/>
<polygon fill="midnightblue" stroke="midnightblue" points="1520.47,-54.9 1530.97,-56.32 1523.65,-48.67 1520.47,-54.9"/>
</g>
<!-- Node23&#45;&gt;Node5 -->
<g id="edge30" class="edge">
<title>Node23&#45;&gt;Node5</title>
<path fill="none" stroke="midnightblue" d="M1643.57,-158.29C1639.12,-131.71 1627.18,-83.24 1597,-56 1563.3,-25.58 1510.18,-15.64 1475.72,-12.44"/>
<polygon fill="midnightblue" stroke="midnightblue" points="1640.11,-158.84 1645.05,-168.21 1647.04,-157.81 1640.11,-158.84"/>
</g>
<!-- Node25 -->
<g id="node25" class="node">
<title>Node25</title>
<g id="a_node25"><a xlink:href="appenderattachableimpl_8h.html" target="_top" xlink:title=" ">
<polygon fill="white" stroke="black" points="1240.5,-168.5 1240.5,-187.5 1369.5,-187.5 1369.5,-168.5 1240.5,-168.5"/>
<text text-anchor="middle" x="1305" y="-175.5" font-family="'Souce Sans Pro', Roboto, FreeSans, sans-serif" font-size="10.00">appenderattachableimpl.h</text>
</a>
</g>
</g>
<!-- Node24&#45;&gt;Node25 -->
<g id="edge32" class="edge">
<title>Node24&#45;&gt;Node25</title>
<path fill="none" stroke="midnightblue" d="M304.28,-223.99C505.16,-206.39 1051.95,-187.35 1240.3,-181.1"/>
<polygon fill="midnightblue" stroke="midnightblue" points="303.76,-220.53 294.12,-224.91 304.39,-227.5 303.76,-220.53"/>
</g>
<!-- Node28 -->
<g id="node28" class="node">
<title>Node28</title>
<g id="a_node28"><a xlink:href="logger_8h.html" target="_top" xlink:title="This header defines the Logger class and the logging macros.">
<polygon fill="white" stroke="black" points="966,-168.5 966,-187.5 1018,-187.5 1018,-168.5 966,-168.5"/>
<text text-anchor="middle" x="992" y="-175.5" font-family="'Souce Sans Pro', Roboto, FreeSans, sans-serif" font-size="10.00">logger.h</text>
</a>
</g>
</g>
<!-- Node24&#45;&gt;Node28 -->
<g id="edge36" class="edge">
<title>Node24&#45;&gt;Node28</title>
<path fill="none" stroke="midnightblue" d="M304.31,-223.94C568.8,-197.14 875.88,-183.61 965.97,-180"/>
<polygon fill="midnightblue" stroke="midnightblue" points="303.72,-220.48 294.13,-224.98 304.43,-227.45 303.72,-220.48"/>
</g>
<!-- Node25&#45;&gt;Node10 -->
<g id="edge33" class="edge">
<title>Node25&#45;&gt;Node10</title>
<path fill="none" stroke="midnightblue" d="M1335.32,-164.5C1359.88,-154.38 1393.82,-140.39 1415.34,-131.52"/>
<polygon fill="midnightblue" stroke="midnightblue" points="1333.67,-161.4 1325.76,-168.44 1336.34,-167.87 1333.67,-161.4"/>
</g>
<!-- Node26 -->
<g id="node26" class="node">
<title>Node26</title>
<g id="a_node26"><a xlink:href="loggerimpl_8h.html" target="_top" xlink:title=" ">
<polygon fill="white" stroke="black" points="1259.5,-112.5 1259.5,-131.5 1330.5,-131.5 1330.5,-112.5 1259.5,-112.5"/>
<text text-anchor="middle" x="1295" y="-119.5" font-family="'Souce Sans Pro', Roboto, FreeSans, sans-serif" font-size="10.00">loggerimpl.h</text>
</a>
</g>
</g>
<!-- Node25&#45;&gt;Node26 -->
<g id="edge34" class="edge">
<title>Node25&#45;&gt;Node26</title>
<path fill="none" stroke="midnightblue" d="M1301.5,-158.1C1299.84,-149.14 1297.94,-138.86 1296.62,-131.75"/>
<polygon fill="midnightblue" stroke="midnightblue" points="1298.09,-158.89 1303.35,-168.08 1304.97,-157.61 1298.09,-158.89"/>
</g>
<!-- Node27 -->
<g id="node27" class="node">
<title>Node27</title>
<g id="a_node27"><a xlink:href="rootlogger_8h.html" target="_top" xlink:title=" ">
<polygon fill="white" stroke="black" points="1224,-56.5 1224,-75.5 1294,-75.5 1294,-56.5 1224,-56.5"/>
<text text-anchor="middle" x="1259" y="-63.5" font-family="'Souce Sans Pro', Roboto, FreeSans, sans-serif" font-size="10.00">rootlogger.h</text>
</a>
</g>
</g>
<!-- Node26&#45;&gt;Node27 -->
<g id="edge35" class="edge">
<title>Node26&#45;&gt;Node27</title>
<path fill="none" stroke="midnightblue" d="M1283.38,-103.57C1277.18,-94.27 1269.83,-83.25 1264.83,-75.75"/>
<polygon fill="midnightblue" stroke="midnightblue" points="1280.6,-105.7 1289.06,-112.08 1286.42,-101.82 1280.6,-105.7"/>
</g>
<!-- Node28&#45;&gt;Node4 -->
<g id="edge37" class="edge">
<title>Node28&#45;&gt;Node4</title>
<path fill="none" stroke="midnightblue" d="M1027.91,-167.59C1066.68,-157.42 1127.89,-141.38 1165.34,-131.56"/>
<polygon fill="midnightblue" stroke="midnightblue" points="1026.88,-164.24 1018.09,-170.16 1028.65,-171.01 1026.88,-164.24"/>
</g>
<!-- Node28&#45;&gt;Node5 -->
<g id="edge41" class="edge">
<title>Node28&#45;&gt;Node5</title>
<path fill="none" stroke="midnightblue" d="M1027.56,-165.51C1049.95,-157.57 1079.05,-145.95 1103,-132 1150.02,-104.61 1149.45,-78.51 1199,-56 1268.92,-24.24 1359.87,-14.89 1408.25,-12.14"/>
<polygon fill="midnightblue" stroke="midnightblue" points="1026.4,-162.2 1018.1,-168.78 1028.69,-168.82 1026.4,-162.2"/>
</g>
<!-- Node28&#45;&gt;Node16 -->
<g id="edge40" class="edge">
<title>Node28&#45;&gt;Node16</title>
<path fill="none" stroke="midnightblue" d="M956,-170.56C900.98,-160.73 796.04,-141.96 735.72,-131.17"/>
<polygon fill="midnightblue" stroke="midnightblue" points="955.53,-174.03 965.99,-172.35 956.76,-167.14 955.53,-174.03"/>
</g>
<!-- Node29 -->
<g id="node29" class="node">
<title>Node29</title>
<g id="a_node29"><a xlink:href="hierarchy_8h.html" target="_top" xlink:title=" ">
<polygon fill="white" stroke="black" points="893,-56.5 893,-75.5 957,-75.5 957,-56.5 893,-56.5"/>
<text text-anchor="middle" x="925" y="-63.5" font-family="'Souce Sans Pro', Roboto, FreeSans, sans-serif" font-size="10.00">hierarchy.h</text>
</a>
</g>
</g>
<!-- Node28&#45;&gt;Node29 -->
<g id="edge38" class="edge">
<title>Node28&#45;&gt;Node29</title>
<path fill="none" stroke="midnightblue" d="M981.43,-159.64C966.87,-135.74 941.22,-93.63 930.23,-75.59"/>
<polygon fill="midnightblue" stroke="midnightblue" points="978.55,-161.65 986.74,-168.37 984.53,-158.01 978.55,-161.65"/>
</g>
<!-- Node28&#45;&gt;Node30 -->
<g id="edge42" class="edge">
<title>Node28&#45;&gt;Node30</title>
<path fill="none" stroke="midnightblue" d="M996.66,-158.67C1002.79,-134.62 1013.28,-93.39 1017.81,-75.59"/>
<polygon fill="midnightblue" stroke="midnightblue" points="993.27,-157.81 994.2,-168.37 1000.06,-159.54 993.27,-157.81"/>
</g>
<!-- Node31 -->
<g id="node31" class="node">
<title>Node31</title>
<g id="a_node31"><a xlink:href="tracelogger_8h.html" target="_top" xlink:title=" ">
<polygon fill="white" stroke="black" points="1020,-112.5 1020,-131.5 1094,-131.5 1094,-112.5 1020,-112.5"/>
<text text-anchor="middle" x="1057" y="-119.5" font-family="'Souce Sans Pro', Roboto, FreeSans, sans-serif" font-size="10.00">tracelogger.h</text>
</a>
</g>
</g>
<!-- Node28&#45;&gt;Node31 -->
<g id="edge44" class="edge">
<title>Node28&#45;&gt;Node31</title>
<path fill="none" stroke="midnightblue" d="M1010.27,-161.82C1021.92,-152.15 1036.6,-139.95 1046.37,-131.83"/>
<polygon fill="midnightblue" stroke="midnightblue" points="1007.9,-159.24 1002.44,-168.32 1012.37,-164.63 1007.9,-159.24"/>
</g>
<!-- Node29&#45;&gt;Node5 -->
<g id="edge39" class="edge">
<title>Node29&#45;&gt;Node5</title>
<path fill="none" stroke="midnightblue" d="M967.11,-56.01C1138.39,-29.72 1331.76,-17.1 1408.35,-12.77"/>
<polygon fill="midnightblue" stroke="midnightblue" points="966.5,-52.56 957.16,-57.55 967.58,-59.48 966.5,-52.56"/>
</g>
<!-- Node30&#45;&gt;Node5 -->
<g id="edge43" class="edge">
<title>Node30&#45;&gt;Node5</title>
<path fill="none" stroke="midnightblue" d="M1075.15,-56.54C1076.44,-56.36 1077.73,-56.18 1079,-56 1200.09,-39.26 1344.33,-22.25 1408.43,-14.84"/>
<polygon fill="midnightblue" stroke="midnightblue" points="1074.48,-53.1 1065.08,-57.99 1075.48,-60.03 1074.48,-53.1"/>
</g>
<!-- Node31&#45;&gt;Node5 -->
<g id="edge45" class="edge">
<title>Node31&#45;&gt;Node5</title>
<path fill="none" stroke="midnightblue" d="M1068,-103.49C1078.58,-88.26 1096.03,-66.95 1117,-56 1167.23,-29.75 1335.76,-17.12 1408.31,-12.8"/>
<polygon fill="midnightblue" stroke="midnightblue" points="1064.93,-101.78 1062.33,-112.05 1070.77,-105.64 1064.93,-101.78"/>
</g>
<!-- Node31&#45;&gt;Node30 -->
<g id="edge46" class="edge">
<title>Node31&#45;&gt;Node30</title>
<path fill="none" stroke="midnightblue" d="M1045.05,-103.57C1038.69,-94.27 1031.13,-83.25 1026,-75.75"/>
<polygon fill="midnightblue" stroke="midnightblue" points="1042.35,-105.81 1050.89,-112.08 1048.13,-101.86 1042.35,-105.81"/>
</g>
<!-- Node32&#45;&gt;Node5 -->
<g id="edge48" class="edge">
<title>Node32&#45;&gt;Node5</title>
<path fill="none" stroke="midnightblue" d="M1815.87,-214.23C1820.25,-177.87 1823.98,-97.75 1780,-56 1736.75,-14.94 1552.18,-10.64 1475.55,-10.67"/>
<polygon fill="midnightblue" stroke="midnightblue" points="1812.37,-214.01 1814.48,-224.39 1819.3,-214.96 1812.37,-214.01"/>
</g>
<!-- Node33&#45;&gt;Node5 -->
<g id="edge50" class="edge">
<title>Node33&#45;&gt;Node5</title>
<path fill="none" stroke="midnightblue" d="M1641.77,-54.32C1592.63,-43.67 1518.47,-27.58 1475.68,-18.3"/>
<polygon fill="midnightblue" stroke="midnightblue" points="1641.03,-57.74 1651.55,-56.44 1642.51,-50.9 1641.03,-57.74"/>
</g>
</g>
</svg>
