<?xml version="1.0" encoding="UTF-8" standalone="no"?>
<!DOCTYPE svg PUBLIC "-//W3C//DTD SVG 1.1//EN"
 "http://www.w3.org/Graphics/SVG/1.1/DTD/svg11.dtd">
<!-- Generated by graphviz version 2.43.0 (0)
 -->
<!-- Title: stringhelper.h Pages: 1 -->
<svg width="375pt" height="263pt"
 viewBox="0.00 0.00 374.50 263.00" xmlns="http://www.w3.org/2000/svg" xmlns:xlink="http://www.w3.org/1999/xlink">
<g id="graph0" class="graph" transform="scale(1 1) rotate(0) translate(4 259)">
<title>stringhelper.h</title>
<polygon fill="white" stroke="transparent" points="-4,4 -4,-259 370.5,-259 370.5,4 -4,4"/>
<!-- Node1 -->
<g id="node1" class="node">
<title>Node1</title>
<g id="a_node1"><a xlink:title=" ">
<polygon fill="#bfbfbf" stroke="black" points="191,-235.5 191,-254.5 267,-254.5 267,-235.5 191,-235.5"/>
<text text-anchor="middle" x="229" y="-242.5" font-family="'Souce Sans Pro', Roboto, FreeSans, sans-serif" font-size="10.00">stringhelper.h</text>
</a>
</g>
</g>
<!-- Node2 -->
<g id="node2" class="node">
<title>Node2</title>
<g id="a_node2"><a xlink:href="config_8hxx.html" target="_top" xlink:title=" ">
<polygon fill="white" stroke="black" points="82.5,-67.5 82.5,-86.5 191.5,-86.5 191.5,-67.5 82.5,-67.5"/>
<text text-anchor="middle" x="137" y="-74.5" font-family="'Souce Sans Pro', Roboto, FreeSans, sans-serif" font-size="10.00">log4cplus/config.hxx</text>
</a>
</g>
</g>
<!-- Node1&#45;&gt;Node2 -->
<g id="edge1" class="edge">
<title>Node1&#45;&gt;Node2</title>
<path fill="none" stroke="midnightblue" d="M190.77,-238.72C166.63,-233.19 137.22,-221.91 122,-199 101.1,-167.54 116.62,-121.16 127.94,-95.94"/>
<polygon fill="midnightblue" stroke="midnightblue" points="131.15,-97.34 132.28,-86.81 124.83,-94.34 131.15,-97.34"/>
</g>
<!-- Node5 -->
<g id="node5" class="node">
<title>Node5</title>
<g id="a_node5"><a xlink:href="tstring_8h.html" target="_top" xlink:title=" ">
<polygon fill="white" stroke="black" points="131.5,-179.5 131.5,-198.5 230.5,-198.5 230.5,-179.5 131.5,-179.5"/>
<text text-anchor="middle" x="181" y="-186.5" font-family="'Souce Sans Pro', Roboto, FreeSans, sans-serif" font-size="10.00">log4cplus/tstring.h</text>
</a>
</g>
</g>
<!-- Node1&#45;&gt;Node5 -->
<g id="edge4" class="edge">
<title>Node1&#45;&gt;Node5</title>
<path fill="none" stroke="midnightblue" d="M221.07,-235.08C214.15,-227.3 203.93,-215.8 195.55,-206.37"/>
<polygon fill="midnightblue" stroke="midnightblue" points="198.04,-203.9 188.78,-198.75 192.81,-208.55 198.04,-203.9"/>
</g>
<!-- Node9 -->
<g id="node9" class="node">
<title>Node9</title>
<g id="a_node9"><a xlink:title=" ">
<polygon fill="white" stroke="#bfbfbf" points="248.5,-179.5 248.5,-198.5 307.5,-198.5 307.5,-179.5 248.5,-179.5"/>
<text text-anchor="middle" x="278" y="-186.5" font-family="'Souce Sans Pro', Roboto, FreeSans, sans-serif" font-size="10.00">algorithm</text>
</a>
</g>
</g>
<!-- Node1&#45;&gt;Node9 -->
<g id="edge10" class="edge">
<title>Node1&#45;&gt;Node9</title>
<path fill="none" stroke="midnightblue" d="M237.09,-235.08C244.16,-227.3 254.59,-215.8 263.15,-206.37"/>
<polygon fill="midnightblue" stroke="midnightblue" points="265.93,-208.51 270.06,-198.75 260.75,-203.8 265.93,-208.51"/>
</g>
<!-- Node10 -->
<g id="node10" class="node">
<title>Node10</title>
<g id="a_node10"><a xlink:title=" ">
<polygon fill="white" stroke="#bfbfbf" points="325.5,-179.5 325.5,-198.5 366.5,-198.5 366.5,-179.5 325.5,-179.5"/>
<text text-anchor="middle" x="346" y="-186.5" font-family="'Souce Sans Pro', Roboto, FreeSans, sans-serif" font-size="10.00">limits</text>
</a>
</g>
</g>
<!-- Node1&#45;&gt;Node10 -->
<g id="edge11" class="edge">
<title>Node1&#45;&gt;Node10</title>
<path fill="none" stroke="midnightblue" d="M247.54,-235.44C266.62,-226.64 296.57,-212.81 318.44,-202.72"/>
<polygon fill="midnightblue" stroke="midnightblue" points="319.93,-205.88 327.55,-198.52 317,-199.53 319.93,-205.88"/>
</g>
<!-- Node3 -->
<g id="node3" class="node">
<title>Node3</title>
<g id="a_node3"><a xlink:href="win32_8h.html" target="_top" xlink:title=" ">
<polygon fill="white" stroke="black" points="0,-6 0,-25 128,-25 128,-6 0,-6"/>
<text text-anchor="middle" x="64" y="-13" font-family="'Souce Sans Pro', Roboto, FreeSans, sans-serif" font-size="10.00">log4cplus/config/win32.h</text>
</a>
</g>
</g>
<!-- Node2&#45;&gt;Node3 -->
<g id="edge2" class="edge">
<title>Node2&#45;&gt;Node3</title>
<path fill="none" stroke="midnightblue" d="M126.54,-67.48C115.05,-58.11 96.37,-42.88 82.41,-31.51"/>
<polygon fill="midnightblue" stroke="midnightblue" points="84.4,-28.61 74.44,-25.01 79.98,-34.04 84.4,-28.61"/>
</g>
<!-- Node4 -->
<g id="node4" class="node">
<title>Node4</title>
<g id="a_node4"><a xlink:href="thread-config_8h.html" target="_top" xlink:title=" ">
<polygon fill="white" stroke="black" points="146,-0.5 146,-30.5 274,-30.5 274,-0.5 146,-0.5"/>
<text text-anchor="start" x="154" y="-18.5" font-family="'Souce Sans Pro', Roboto, FreeSans, sans-serif" font-size="10.00">log4cplus/helpers/thread</text>
<text text-anchor="middle" x="210" y="-7.5" font-family="'Souce Sans Pro', Roboto, FreeSans, sans-serif" font-size="10.00">&#45;config.h</text>
</a>
</g>
</g>
<!-- Node2&#45;&gt;Node4 -->
<g id="edge3" class="edge">
<title>Node2&#45;&gt;Node4</title>
<path fill="none" stroke="midnightblue" d="M147.46,-67.48C157.16,-59.57 171.99,-47.48 184.77,-37.07"/>
<polygon fill="midnightblue" stroke="midnightblue" points="187.26,-39.55 192.8,-30.52 182.83,-34.13 187.26,-39.55"/>
</g>
<!-- Node5&#45;&gt;Node2 -->
<g id="edge5" class="edge">
<title>Node5&#45;&gt;Node2</title>
<path fill="none" stroke="midnightblue" d="M175.42,-179.33C169.9,-170.47 161.51,-156.19 156,-143 149.63,-127.74 144.52,-109.64 141.22,-96.41"/>
<polygon fill="midnightblue" stroke="midnightblue" points="144.6,-95.53 138.87,-86.62 137.8,-97.16 144.6,-95.53"/>
</g>
<!-- Node6 -->
<g id="node6" class="node">
<title>Node6</title>
<g id="a_node6"><a xlink:title=" ">
<polygon fill="white" stroke="#bfbfbf" points="165.5,-123.5 165.5,-142.5 206.5,-142.5 206.5,-123.5 165.5,-123.5"/>
<text text-anchor="middle" x="186" y="-130.5" font-family="'Souce Sans Pro', Roboto, FreeSans, sans-serif" font-size="10.00">string</text>
</a>
</g>
</g>
<!-- Node5&#45;&gt;Node6 -->
<g id="edge6" class="edge">
<title>Node5&#45;&gt;Node6</title>
<path fill="none" stroke="midnightblue" d="M181.83,-179.08C182.48,-172.01 183.42,-161.86 184.24,-152.99"/>
<polygon fill="midnightblue" stroke="midnightblue" points="187.75,-153.03 185.19,-142.75 180.78,-152.39 187.75,-153.03"/>
</g>
<!-- Node7 -->
<g id="node7" class="node">
<title>Node7</title>
<g id="a_node7"><a xlink:href="tchar_8h.html" target="_top" xlink:title=" ">
<polygon fill="white" stroke="black" points="224.5,-123.5 224.5,-142.5 317.5,-142.5 317.5,-123.5 224.5,-123.5"/>
<text text-anchor="middle" x="271" y="-130.5" font-family="'Souce Sans Pro', Roboto, FreeSans, sans-serif" font-size="10.00">log4cplus/tchar.h</text>
</a>
</g>
</g>
<!-- Node5&#45;&gt;Node7 -->
<g id="edge7" class="edge">
<title>Node5&#45;&gt;Node7</title>
<path fill="none" stroke="midnightblue" d="M195.46,-179.32C209.5,-170.9 231.05,-157.97 247.54,-148.07"/>
<polygon fill="midnightblue" stroke="midnightblue" points="249.8,-150.8 256.58,-142.65 246.2,-144.8 249.8,-150.8"/>
</g>
<!-- Node7&#45;&gt;Node2 -->
<g id="edge8" class="edge">
<title>Node7&#45;&gt;Node2</title>
<path fill="none" stroke="midnightblue" d="M249.77,-123.44C227.62,-114.52 192.68,-100.44 167.56,-90.32"/>
<polygon fill="midnightblue" stroke="midnightblue" points="168.72,-87.01 158.13,-86.52 166.1,-93.5 168.72,-87.01"/>
</g>
<!-- Node8 -->
<g id="node8" class="node">
<title>Node8</title>
<g id="a_node8"><a xlink:title=" ">
<polygon fill="white" stroke="#bfbfbf" points="245.5,-67.5 245.5,-86.5 296.5,-86.5 296.5,-67.5 245.5,-67.5"/>
<text text-anchor="middle" x="271" y="-74.5" font-family="'Souce Sans Pro', Roboto, FreeSans, sans-serif" font-size="10.00">cstddef</text>
</a>
</g>
</g>
<!-- Node7&#45;&gt;Node8 -->
<g id="edge9" class="edge">
<title>Node7&#45;&gt;Node8</title>
<path fill="none" stroke="midnightblue" d="M271,-123.08C271,-116.01 271,-105.86 271,-96.99"/>
<polygon fill="midnightblue" stroke="midnightblue" points="274.5,-96.75 271,-86.75 267.5,-96.75 274.5,-96.75"/>
</g>
</g>
</svg>
