<?xml version="1.0" encoding="UTF-8" standalone="no"?>
<!DOCTYPE svg PUBLIC "-//W3C//DTD SVG 1.1//EN"
 "http://www.w3.org/Graphics/SVG/1.1/DTD/svg11.dtd">
<!-- Generated by graphviz version 2.43.0 (0)
 -->
<!-- Title: log4cplus::internal::per_thread_data Pages: 1 -->
<svg width="318pt" height="186pt"
 viewBox="0.00 0.00 318.00 186.00" xmlns="http://www.w3.org/2000/svg" xmlns:xlink="http://www.w3.org/1999/xlink">
<g id="graph0" class="graph" transform="scale(1 1) rotate(0) translate(4 182)">
<title>log4cplus::internal::per_thread_data</title>
<polygon fill="white" stroke="transparent" points="-4,4 -4,-182 314,-182 314,4 -4,4"/>
<!-- Node1 -->
<g id="node1" class="node">
<title>Node1</title>
<g id="a_node1"><a xlink:title="Per thread data.">
<polygon fill="#bfbfbf" stroke="black" points="215,-73.5 215,-103.5 310,-103.5 310,-73.5 215,-73.5"/>
<text text-anchor="start" x="223" y="-91.5" font-family="'Souce Sans Pro', Roboto, FreeSans, sans-serif" font-size="10.00">log4cplus::internal</text>
<text text-anchor="middle" x="262.5" y="-80.5" font-family="'Souce Sans Pro', Roboto, FreeSans, sans-serif" font-size="10.00">::per_thread_data</text>
</a>
</g>
</g>
<!-- Node2 -->
<g id="node2" class="node">
<title>Node2</title>
<g id="a_node2"><a xlink:href="structlog4cplus_1_1internal_1_1gft__scratch__pad.html" target="_top" xlink:title=" ">
<polygon fill="white" stroke="black" points="10,-147.5 10,-177.5 105,-177.5 105,-147.5 10,-147.5"/>
<text text-anchor="start" x="18" y="-165.5" font-family="'Souce Sans Pro', Roboto, FreeSans, sans-serif" font-size="10.00">log4cplus::internal</text>
<text text-anchor="middle" x="57.5" y="-154.5" font-family="'Souce Sans Pro', Roboto, FreeSans, sans-serif" font-size="10.00">::gft_scratch_pad</text>
</a>
</g>
</g>
<!-- Node2&#45;&gt;Node1 -->
<g id="edge1" class="edge">
<title>Node2&#45;&gt;Node1</title>
<path fill="none" stroke="#9a32cd" stroke-dasharray="5,2" d="M115,-146.34C140.34,-138.63 170.44,-128.85 197,-118.5 208.39,-114.06 220.62,-108.57 231.33,-103.5"/>
<polygon fill="#9a32cd" stroke="#9a32cd" points="113.75,-143.06 105.18,-149.29 115.77,-149.76 113.75,-143.06"/>
<text text-anchor="middle" x="165" y="-143.5" font-family="'Souce Sans Pro', Roboto, FreeSans, sans-serif" font-size="10.00"> gft_sp</text>
</g>
<!-- Node3 -->
<g id="node3" class="node">
<title>Node3</title>
<g id="a_node3"><a xlink:href="structlog4cplus_1_1internal_1_1appender__sratch__pad.html" target="_top" xlink:title=" ">
<polygon fill="white" stroke="black" points="0,-98.5 0,-128.5 115,-128.5 115,-98.5 0,-98.5"/>
<text text-anchor="start" x="8" y="-116.5" font-family="'Souce Sans Pro', Roboto, FreeSans, sans-serif" font-size="10.00">log4cplus::internal</text>
<text text-anchor="middle" x="57.5" y="-105.5" font-family="'Souce Sans Pro', Roboto, FreeSans, sans-serif" font-size="10.00">::appender_sratch_pad</text>
</a>
</g>
</g>
<!-- Node3&#45;&gt;Node1 -->
<g id="edge2" class="edge">
<title>Node3&#45;&gt;Node1</title>
<path fill="none" stroke="#9a32cd" stroke-dasharray="5,2" d="M125.22,-105.28C154.54,-101.67 188.27,-97.52 214.84,-94.25"/>
<polygon fill="#9a32cd" stroke="#9a32cd" points="124.54,-101.84 115.05,-106.54 125.4,-108.79 124.54,-101.84"/>
<text text-anchor="middle" x="165" y="-106.5" font-family="'Souce Sans Pro', Roboto, FreeSans, sans-serif" font-size="10.00"> appender_sp</text>
</g>
<!-- Node4 -->
<g id="node4" class="node">
<title>Node4</title>
<g id="a_node4"><a xlink:href="classlog4cplus_1_1helpers_1_1snprintf__buf.html" target="_top" xlink:title=" ">
<polygon fill="white" stroke="black" points="10,-49.5 10,-79.5 105,-79.5 105,-49.5 10,-49.5"/>
<text text-anchor="start" x="18" y="-67.5" font-family="'Souce Sans Pro', Roboto, FreeSans, sans-serif" font-size="10.00">log4cplus::helpers</text>
<text text-anchor="middle" x="57.5" y="-56.5" font-family="'Souce Sans Pro', Roboto, FreeSans, sans-serif" font-size="10.00">::snprintf_buf</text>
</a>
</g>
</g>
<!-- Node4&#45;&gt;Node1 -->
<g id="edge3" class="edge">
<title>Node4&#45;&gt;Node1</title>
<path fill="none" stroke="#9a32cd" stroke-dasharray="5,2" d="M115.37,-70.96C140.41,-73.83 170.17,-77.29 197,-80.5 202.71,-81.18 208.71,-81.91 214.65,-82.64"/>
<polygon fill="#9a32cd" stroke="#9a32cd" points="115.64,-67.47 105.31,-69.81 114.85,-74.42 115.64,-67.47"/>
<text text-anchor="middle" x="165" y="-83.5" font-family="'Souce Sans Pro', Roboto, FreeSans, sans-serif" font-size="10.00"> snprintf_buf</text>
</g>
<!-- Node5 -->
<g id="node5" class="node">
<title>Node5</title>
<g id="a_node5"><a xlink:href="classlog4cplus_1_1spi_1_1InternalLoggingEvent.html" target="_top" xlink:title="The internal representation of logging events.">
<polygon fill="white" stroke="black" points="1,-0.5 1,-30.5 114,-30.5 114,-0.5 1,-0.5"/>
<text text-anchor="start" x="9" y="-18.5" font-family="'Souce Sans Pro', Roboto, FreeSans, sans-serif" font-size="10.00">log4cplus::spi::Internal</text>
<text text-anchor="middle" x="57.5" y="-7.5" font-family="'Souce Sans Pro', Roboto, FreeSans, sans-serif" font-size="10.00">LoggingEvent</text>
</a>
</g>
</g>
<!-- Node5&#45;&gt;Node1 -->
<g id="edge4" class="edge">
<title>Node5&#45;&gt;Node1</title>
<path fill="none" stroke="#9a32cd" stroke-dasharray="5,2" d="M123.89,-33.09C147.23,-39.95 173.54,-48.37 197,-57.5 208.93,-62.14 221.7,-68.07 232.7,-73.49"/>
<polygon fill="#9a32cd" stroke="#9a32cd" points="124.67,-29.67 114.09,-30.24 122.72,-36.39 124.67,-29.67"/>
<text text-anchor="middle" x="165" y="-60.5" font-family="'Souce Sans Pro', Roboto, FreeSans, sans-serif" font-size="10.00"> forced_log_ev</text>
</g>
</g>
</svg>
