<?xml version="1.0" encoding="UTF-8" standalone="no"?>
<!DOCTYPE svg PUBLIC "-//W3C//DTD SVG 1.1//EN"
 "http://www.w3.org/Graphics/SVG/1.1/DTD/svg11.dtd">
<!-- Generated by graphviz version 2.43.0 (0)
 -->
<!-- Title: syncprims.h Pages: 1 -->
<svg width="2529pt" height="476pt"
 viewBox="0.00 0.00 2529.00 476.00" xmlns="http://www.w3.org/2000/svg" xmlns:xlink="http://www.w3.org/1999/xlink">
<g id="graph0" class="graph" transform="scale(1 1) rotate(0) translate(4 472)">
<title>syncprims.h</title>
<polygon fill="white" stroke="transparent" points="-4,4 -4,-472 2525,-472 2525,4 -4,4"/>
<!-- Node1 -->
<g id="node1" class="node">
<title>Node1</title>
<g id="a_node1"><a xlink:title=" ">
<polygon fill="#bfbfbf" stroke="black" points="2143.5,-448.5 2143.5,-467.5 2214.5,-467.5 2214.5,-448.5 2143.5,-448.5"/>
<text text-anchor="middle" x="2179" y="-455.5" font-family="'Souce Sans Pro', Roboto, FreeSans, sans-serif" font-size="10.00">syncprims.h</text>
</a>
</g>
</g>
<!-- Node2 -->
<g id="node2" class="node">
<title>Node2</title>
<g id="a_node2"><a xlink:href="appenderattachableimpl_8h.html" target="_top" xlink:title=" ">
<polygon fill="white" stroke="black" points="1748.5,-168.5 1748.5,-187.5 1877.5,-187.5 1877.5,-168.5 1748.5,-168.5"/>
<text text-anchor="middle" x="1813" y="-175.5" font-family="'Souce Sans Pro', Roboto, FreeSans, sans-serif" font-size="10.00">appenderattachableimpl.h</text>
</a>
</g>
</g>
<!-- Node1&#45;&gt;Node2 -->
<g id="edge1" class="edge">
<title>Node1&#45;&gt;Node2</title>
<path fill="none" stroke="midnightblue" d="M2140.07,-445.37C2076.87,-424.86 1950.88,-376.99 1870,-300 1847.07,-278.18 1839.24,-272.75 1826,-244 1817.33,-225.19 1814.43,-200.69 1813.47,-187.81"/>
<polygon fill="midnightblue" stroke="midnightblue" points="2139.07,-448.72 2149.66,-448.43 2141.2,-442.06 2139.07,-448.72"/>
</g>
<!-- Node7 -->
<g id="node7" class="node">
<title>Node7</title>
<g id="a_node7"><a xlink:href="connectorthread_8h.html" target="_top" xlink:title=" ">
<polygon fill="white" stroke="black" points="2053,-280.5 2053,-299.5 2151,-299.5 2151,-280.5 2053,-280.5"/>
<text text-anchor="middle" x="2102" y="-287.5" font-family="'Souce Sans Pro', Roboto, FreeSans, sans-serif" font-size="10.00">connectorthread.h</text>
</a>
</g>
</g>
<!-- Node1&#45;&gt;Node7 -->
<g id="edge6" class="edge">
<title>Node1&#45;&gt;Node7</title>
<path fill="none" stroke="midnightblue" d="M2170.58,-438.86C2154.07,-403.25 2117.98,-325.45 2105.97,-299.57"/>
<polygon fill="midnightblue" stroke="midnightblue" points="2167.48,-440.48 2174.86,-448.08 2173.83,-437.53 2167.48,-440.48"/>
</g>
<!-- Node8 -->
<g id="node8" class="node">
<title>Node8</title>
<g id="a_node8"><a xlink:href="socketappender_8h.html" target="_top" xlink:title=" ">
<polygon fill="white" stroke="black" points="2169.5,-224.5 2169.5,-243.5 2264.5,-243.5 2264.5,-224.5 2169.5,-224.5"/>
<text text-anchor="middle" x="2217" y="-231.5" font-family="'Souce Sans Pro', Roboto, FreeSans, sans-serif" font-size="10.00">socketappender.h</text>
</a>
</g>
</g>
<!-- Node1&#45;&gt;Node8 -->
<g id="edge78" class="edge">
<title>Node1&#45;&gt;Node8</title>
<path fill="none" stroke="midnightblue" d="M2185.38,-438.93C2188.06,-430.79 2191.01,-421 2193,-412 2207.16,-348.12 2214.28,-269.3 2216.35,-243.56"/>
<polygon fill="midnightblue" stroke="midnightblue" points="2182.03,-437.89 2182.12,-448.49 2188.66,-440.15 2182.03,-437.89"/>
</g>
<!-- Node10 -->
<g id="node10" class="node">
<title>Node10</title>
<g id="a_node10"><a xlink:href="lockfile_8h.html" target="_top" xlink:title=" ">
<polygon fill="white" stroke="black" points="873,-336.5 873,-355.5 929,-355.5 929,-336.5 873,-336.5"/>
<text text-anchor="middle" x="901" y="-343.5" font-family="'Souce Sans Pro', Roboto, FreeSans, sans-serif" font-size="10.00">lockfile.h</text>
</a>
</g>
</g>
<!-- Node1&#45;&gt;Node10 -->
<g id="edge11" class="edge">
<title>Node1&#45;&gt;Node10</title>
<path fill="none" stroke="midnightblue" d="M2133.17,-453.24C2040.18,-445.6 1822.65,-427.66 1640,-412 1362.82,-388.24 1027.28,-358.3 929.19,-349.52"/>
<polygon fill="midnightblue" stroke="midnightblue" points="2133.11,-456.75 2143.36,-454.08 2133.68,-449.77 2133.11,-456.75"/>
</g>
<!-- Node27 -->
<g id="node27" class="node">
<title>Node27</title>
<g id="a_node27"><a xlink:href="hierarchy_8h.html" target="_top" xlink:title=" ">
<polygon fill="white" stroke="black" points="1852,-112.5 1852,-131.5 1916,-131.5 1916,-112.5 1852,-112.5"/>
<text text-anchor="middle" x="1884" y="-119.5" font-family="'Souce Sans Pro', Roboto, FreeSans, sans-serif" font-size="10.00">hierarchy.h</text>
</a>
</g>
</g>
<!-- Node1&#45;&gt;Node27 -->
<g id="edge76" class="edge">
<title>Node1&#45;&gt;Node27</title>
<path fill="none" stroke="midnightblue" d="M2223.43,-445.41C2268.29,-430.7 2331,-400.56 2331,-347 2331,-347 2331,-347 2331,-289 2331,-255.98 2320.67,-244.77 2295,-224 2235.73,-176.05 2002.52,-139.48 1916.28,-127.34"/>
<polygon fill="midnightblue" stroke="midnightblue" points="2222.37,-442.07 2213.87,-448.4 2224.46,-448.75 2222.37,-442.07"/>
</g>
<!-- Node32 -->
<g id="node32" class="node">
<title>Node32</title>
<g id="a_node32"><a xlink:href="loglog_8h.html" target="_top" xlink:title=" ">
<polygon fill="white" stroke="black" points="2359,-392.5 2359,-411.5 2411,-411.5 2411,-392.5 2359,-392.5"/>
<text text-anchor="middle" x="2385" y="-399.5" font-family="'Souce Sans Pro', Roboto, FreeSans, sans-serif" font-size="10.00">loglog.h</text>
</a>
</g>
</g>
<!-- Node1&#45;&gt;Node32 -->
<g id="edge51" class="edge">
<title>Node1&#45;&gt;Node32</title>
<path fill="none" stroke="midnightblue" d="M2221.41,-445.88C2262.68,-435.07 2324.07,-418.97 2358.72,-409.89"/>
<polygon fill="midnightblue" stroke="midnightblue" points="2220.43,-442.52 2211.64,-448.44 2222.2,-449.29 2220.43,-442.52"/>
</g>
<!-- Node33 -->
<g id="node33" class="node">
<title>Node33</title>
<g id="a_node33"><a xlink:href="pointer_8h.html" target="_top" xlink:title=" ">
<polygon fill="white" stroke="black" points="1649.5,-392.5 1649.5,-411.5 1704.5,-411.5 1704.5,-392.5 1649.5,-392.5"/>
<text text-anchor="middle" x="1677" y="-399.5" font-family="'Souce Sans Pro', Roboto, FreeSans, sans-serif" font-size="10.00">pointer.h</text>
</a>
</g>
</g>
<!-- Node1&#45;&gt;Node33 -->
<g id="edge52" class="edge">
<title>Node1&#45;&gt;Node33</title>
<path fill="none" stroke="midnightblue" d="M2133.29,-452.08C2031.13,-441.09 1786.83,-414.81 1704.57,-405.97"/>
<polygon fill="midnightblue" stroke="midnightblue" points="2132.98,-455.57 2143.3,-453.16 2133.73,-448.61 2132.98,-455.57"/>
</g>
<!-- Node37 -->
<g id="node37" class="node">
<title>Node37</title>
<g id="a_node37"><a xlink:href="queue_8h.html" target="_top" xlink:title=" ">
<polygon fill="white" stroke="black" points="2061,-224.5 2061,-243.5 2113,-243.5 2113,-224.5 2061,-224.5"/>
<text text-anchor="middle" x="2087" y="-231.5" font-family="'Souce Sans Pro', Roboto, FreeSans, sans-serif" font-size="10.00">queue.h</text>
</a>
</g>
</g>
<!-- Node1&#45;&gt;Node37 -->
<g id="edge75" class="edge">
<title>Node1&#45;&gt;Node37</title>
<path fill="none" stroke="midnightblue" d="M2182.01,-438.42C2186.55,-404.17 2191.55,-330.03 2160,-280 2148.96,-262.5 2128.39,-250.73 2111.89,-243.64"/>
<polygon fill="midnightblue" stroke="midnightblue" points="2178.53,-438.01 2180.54,-448.41 2185.46,-439.02 2178.53,-438.01"/>
</g>
<!-- Node40 -->
<g id="node40" class="node">
<title>Node40</title>
<g id="a_node40"><a xlink:href="customloglevelmanager_8h.html" target="_top" xlink:title="This header contains declaration internal to log4cplus.">
<polygon fill="white" stroke="black" points="1972,-168.5 1972,-187.5 2102,-187.5 2102,-168.5 1972,-168.5"/>
<text text-anchor="middle" x="2037" y="-175.5" font-family="'Souce Sans Pro', Roboto, FreeSans, sans-serif" font-size="10.00">customloglevelmanager.h</text>
</a>
</g>
</g>
<!-- Node1&#45;&gt;Node40 -->
<g id="edge77" class="edge">
<title>Node1&#45;&gt;Node40</title>
<path fill="none" stroke="midnightblue" d="M2208.67,-444.07C2242.45,-427.11 2293,-393.89 2293,-347 2293,-347 2293,-347 2293,-289 2293,-258.77 2295.52,-244.16 2273,-224 2248.26,-201.84 2162.97,-189.84 2102.04,-183.93"/>
<polygon fill="midnightblue" stroke="midnightblue" points="2207.13,-440.93 2199.64,-448.42 2210.17,-447.23 2207.13,-440.93"/>
</g>
<!-- Node41 -->
<g id="node41" class="node">
<title>Node41</title>
<g id="a_node41"><a xlink:href="objectregistry_8h.html" target="_top" xlink:title=" ">
<polygon fill="white" stroke="black" points="747,-336.5 747,-355.5 831,-355.5 831,-336.5 747,-336.5"/>
<text text-anchor="middle" x="789" y="-343.5" font-family="'Souce Sans Pro', Roboto, FreeSans, sans-serif" font-size="10.00">objectregistry.h</text>
</a>
</g>
</g>
<!-- Node1&#45;&gt;Node41 -->
<g id="edge79" class="edge">
<title>Node1&#45;&gt;Node41</title>
<path fill="none" stroke="midnightblue" d="M2133.27,-455C2014.4,-449.65 1685.94,-433.93 1413,-412 1168.52,-392.36 1107.77,-383.06 864,-356 853.31,-354.81 841.78,-353.46 831.03,-352.18"/>
<polygon fill="midnightblue" stroke="midnightblue" points="2133.31,-458.51 2143.46,-455.46 2133.62,-451.51 2133.31,-458.51"/>
</g>
<!-- Node42 -->
<g id="node42" class="node">
<title>Node42</title>
<g id="a_node42"><a xlink:href="syncprims-impl_8h.html" target="_top" xlink:title=" ">
<polygon fill="white" stroke="black" points="2429,-392.5 2429,-411.5 2521,-411.5 2521,-392.5 2429,-392.5"/>
<text text-anchor="middle" x="2475" y="-399.5" font-family="'Souce Sans Pro', Roboto, FreeSans, sans-serif" font-size="10.00">syncprims&#45;impl.h</text>
</a>
</g>
</g>
<!-- Node1&#45;&gt;Node42 -->
<g id="edge81" class="edge">
<title>Node1&#45;&gt;Node42</title>
<path fill="none" stroke="midnightblue" d="M2224.61,-448.68C2280.11,-438.55 2373.28,-421.56 2428.97,-411.4"/>
<polygon fill="midnightblue" stroke="midnightblue" points="2223.91,-445.25 2214.7,-450.49 2225.17,-452.13 2223.91,-445.25"/>
</g>
<!-- Node3 -->
<g id="node3" class="node">
<title>Node3</title>
<g id="a_node3"><a xlink:href="asyncappender_8h.html" target="_top" xlink:title=" ">
<polygon fill="white" stroke="black" points="1972.5,-112.5 1972.5,-131.5 2063.5,-131.5 2063.5,-112.5 1972.5,-112.5"/>
<text text-anchor="middle" x="2018" y="-119.5" font-family="'Souce Sans Pro', Roboto, FreeSans, sans-serif" font-size="10.00">asyncappender.h</text>
</a>
</g>
</g>
<!-- Node2&#45;&gt;Node3 -->
<g id="edge2" class="edge">
<title>Node2&#45;&gt;Node3</title>
<path fill="none" stroke="midnightblue" d="M1855.41,-165.83C1894.11,-155.63 1950.49,-140.78 1985.67,-131.52"/>
<polygon fill="midnightblue" stroke="midnightblue" points="1854.26,-162.51 1845.48,-168.44 1856.04,-169.28 1854.26,-162.51"/>
</g>
<!-- Node5 -->
<g id="node5" class="node">
<title>Node5</title>
<g id="a_node5"><a xlink:href="loggerimpl_8h.html" target="_top" xlink:title=" ">
<polygon fill="white" stroke="black" points="1698.5,-112.5 1698.5,-131.5 1769.5,-131.5 1769.5,-112.5 1698.5,-112.5"/>
<text text-anchor="middle" x="1734" y="-119.5" font-family="'Souce Sans Pro', Roboto, FreeSans, sans-serif" font-size="10.00">loggerimpl.h</text>
</a>
</g>
</g>
<!-- Node2&#45;&gt;Node5 -->
<g id="edge4" class="edge">
<title>Node2&#45;&gt;Node5</title>
<path fill="none" stroke="midnightblue" d="M1791.97,-162.62C1777.53,-152.76 1758.86,-139.99 1746.66,-131.65"/>
<polygon fill="midnightblue" stroke="midnightblue" points="1790.08,-165.57 1800.31,-168.32 1794.03,-159.79 1790.08,-165.57"/>
</g>
<!-- Node4 -->
<g id="node4" class="node">
<title>Node4</title>
<g id="a_node4"><a xlink:href="log4cplus_8h.html" target="_top" xlink:title=" ">
<polygon fill="white" stroke="black" points="1541.5,-0.5 1541.5,-19.5 1608.5,-19.5 1608.5,-0.5 1541.5,-0.5"/>
<text text-anchor="middle" x="1575" y="-7.5" font-family="'Souce Sans Pro', Roboto, FreeSans, sans-serif" font-size="10.00">log4cplus.h</text>
</a>
</g>
</g>
<!-- Node3&#45;&gt;Node4 -->
<g id="edge3" class="edge">
<title>Node3&#45;&gt;Node4</title>
<path fill="none" stroke="midnightblue" d="M2007.4,-103.88C1996.89,-88.55 1979.3,-66.85 1958,-56 1897.23,-25.04 1690.58,-14.86 1608.76,-11.99"/>
<polygon fill="midnightblue" stroke="midnightblue" points="2004.6,-105.99 2012.99,-112.45 2010.46,-102.17 2004.6,-105.99"/>
</g>
<!-- Node6 -->
<g id="node6" class="node">
<title>Node6</title>
<g id="a_node6"><a xlink:href="rootlogger_8h.html" target="_top" xlink:title=" ">
<polygon fill="white" stroke="black" points="1699,-56.5 1699,-75.5 1769,-75.5 1769,-56.5 1699,-56.5"/>
<text text-anchor="middle" x="1734" y="-63.5" font-family="'Souce Sans Pro', Roboto, FreeSans, sans-serif" font-size="10.00">rootlogger.h</text>
</a>
</g>
</g>
<!-- Node5&#45;&gt;Node6 -->
<g id="edge5" class="edge">
<title>Node5&#45;&gt;Node6</title>
<path fill="none" stroke="midnightblue" d="M1734,-101.8C1734,-92.91 1734,-82.78 1734,-75.75"/>
<polygon fill="midnightblue" stroke="midnightblue" points="1730.5,-102.08 1734,-112.08 1737.5,-102.08 1730.5,-102.08"/>
</g>
<!-- Node7&#45;&gt;Node8 -->
<g id="edge7" class="edge">
<title>Node7&#45;&gt;Node8</title>
<path fill="none" stroke="midnightblue" d="M2129.48,-276.1C2150.97,-266.01 2180.22,-252.27 2198.86,-243.52"/>
<polygon fill="midnightblue" stroke="midnightblue" points="2127.79,-273.02 2120.22,-280.44 2130.76,-279.36 2127.79,-273.02"/>
</g>
<!-- Node9 -->
<g id="node9" class="node">
<title>Node9</title>
<g id="a_node9"><a xlink:href="syslogappender_8h.html" target="_top" xlink:title=" ">
<polygon fill="white" stroke="black" points="1835,-224.5 1835,-243.5 1929,-243.5 1929,-224.5 1835,-224.5"/>
<text text-anchor="middle" x="1882" y="-231.5" font-family="'Souce Sans Pro', Roboto, FreeSans, sans-serif" font-size="10.00">syslogappender.h</text>
</a>
</g>
</g>
<!-- Node7&#45;&gt;Node9 -->
<g id="edge9" class="edge">
<title>Node7&#45;&gt;Node9</title>
<path fill="none" stroke="midnightblue" d="M2057.28,-278.02C2015.72,-267.82 1954.69,-252.84 1916.7,-243.52"/>
<polygon fill="midnightblue" stroke="midnightblue" points="2056.59,-281.46 2067.14,-280.44 2058.26,-274.66 2056.59,-281.46"/>
</g>
<!-- Node8&#45;&gt;Node4 -->
<g id="edge8" class="edge">
<title>Node8&#45;&gt;Node4</title>
<path fill="none" stroke="midnightblue" d="M2202.71,-216.65C2169.17,-179.64 2080.93,-90 1985,-56 1915.73,-31.45 1693.98,-17.34 1608.78,-12.71"/>
<polygon fill="midnightblue" stroke="midnightblue" points="2200.43,-219.35 2209.7,-224.48 2205.66,-214.69 2200.43,-219.35"/>
</g>
<!-- Node9&#45;&gt;Node4 -->
<g id="edge10" class="edge">
<title>Node9&#45;&gt;Node4</title>
<path fill="none" stroke="midnightblue" d="M1887.8,-214.07C1890.86,-200.6 1892.73,-182.41 1886,-168 1875.45,-145.42 1860.72,-149.53 1843,-132 1811.41,-100.74 1816.11,-78.88 1778,-56 1724.61,-23.95 1651,-14.66 1608.66,-12.01"/>
<polygon fill="midnightblue" stroke="midnightblue" points="1884.33,-213.53 1885.13,-224.09 1891.09,-215.33 1884.33,-213.53"/>
</g>
<!-- Node11 -->
<g id="node11" class="node">
<title>Node11</title>
<g id="a_node11"><a xlink:href="appender_8h.html" target="_top" xlink:title=" ">
<polygon fill="white" stroke="black" points="868.5,-280.5 868.5,-299.5 933.5,-299.5 933.5,-280.5 868.5,-280.5"/>
<text text-anchor="middle" x="901" y="-287.5" font-family="'Souce Sans Pro', Roboto, FreeSans, sans-serif" font-size="10.00">appender.h</text>
</a>
</g>
</g>
<!-- Node10&#45;&gt;Node11 -->
<g id="edge12" class="edge">
<title>Node10&#45;&gt;Node11</title>
<path fill="none" stroke="midnightblue" d="M901,-325.8C901,-316.91 901,-306.78 901,-299.75"/>
<polygon fill="midnightblue" stroke="midnightblue" points="897.5,-326.08 901,-336.08 904.5,-326.08 897.5,-326.08"/>
</g>
<!-- Node17 -->
<g id="node17" class="node">
<title>Node17</title>
<g id="a_node17"><a xlink:href="fileappender_8h.html" target="_top" xlink:title=" ">
<polygon fill="white" stroke="black" points="74,-224.5 74,-243.5 152,-243.5 152,-224.5 74,-224.5"/>
<text text-anchor="middle" x="113" y="-231.5" font-family="'Souce Sans Pro', Roboto, FreeSans, sans-serif" font-size="10.00">fileappender.h</text>
</a>
</g>
</g>
<!-- Node10&#45;&gt;Node17 -->
<g id="edge50" class="edge">
<title>Node10&#45;&gt;Node17</title>
<path fill="none" stroke="midnightblue" d="M862.75,-339.29C855.21,-338.19 847.36,-337.05 840,-336 540.67,-293.49 464.85,-289.76 166,-244 161.48,-243.31 156.75,-242.55 152.05,-241.78"/>
<polygon fill="midnightblue" stroke="midnightblue" points="862.36,-342.77 872.77,-340.77 863.38,-335.85 862.36,-342.77"/>
</g>
<!-- Node11&#45;&gt;Node3 -->
<g id="edge13" class="edge">
<title>Node11&#45;&gt;Node3</title>
<path fill="none" stroke="midnightblue" d="M943.86,-287.62C1034.26,-284.23 1250.87,-273.46 1430,-244 1499.78,-232.52 1669.7,-182.09 1739,-168 1820.74,-151.39 1916.95,-136.99 1972.37,-129.2"/>
<polygon fill="midnightblue" stroke="midnightblue" points="943.59,-284.13 933.73,-287.99 943.85,-291.13 943.59,-284.13"/>
</g>
<!-- Node11&#45;&gt;Node4 -->
<g id="edge24" class="edge">
<title>Node11&#45;&gt;Node4</title>
<path fill="none" stroke="midnightblue" d="M858.18,-285.22C795.31,-279.04 681.72,-265.29 647,-244 616.16,-225.09 598,-215.18 598,-179 598,-179 598,-179 598,-121 598,-23.92 1369.57,-12.51 1541.37,-11.18"/>
<polygon fill="midnightblue" stroke="midnightblue" points="857.9,-288.71 868.18,-286.18 858.57,-281.74 857.9,-288.71"/>
</g>
<!-- Node11&#45;&gt;Node8 -->
<g id="edge32" class="edge">
<title>Node11&#45;&gt;Node8</title>
<path fill="none" stroke="midnightblue" d="M943.77,-288.32C1100.9,-285.61 1661.1,-274.3 2122,-244 2137.37,-242.99 2154.12,-241.53 2169.2,-240.07"/>
<polygon fill="midnightblue" stroke="midnightblue" points="943.52,-284.82 933.58,-288.49 943.64,-291.82 943.52,-284.82"/>
</g>
<!-- Node11&#45;&gt;Node9 -->
<g id="edge48" class="edge">
<title>Node11&#45;&gt;Node9</title>
<path fill="none" stroke="midnightblue" d="M944.06,-286.63C1104.59,-277.79 1667.56,-246.8 1834.8,-237.6"/>
<polygon fill="midnightblue" stroke="midnightblue" points="943.43,-283.16 933.64,-287.2 943.82,-290.15 943.43,-283.16"/>
</g>
<!-- Node12 -->
<g id="node12" class="node">
<title>Node12</title>
<g id="a_node12"><a xlink:href="deviceappender_8hxx.html" target="_top" xlink:title=" ">
<polygon fill="white" stroke="black" points="246,-224.5 246,-243.5 350,-243.5 350,-224.5 246,-224.5"/>
<text text-anchor="middle" x="298" y="-231.5" font-family="'Souce Sans Pro', Roboto, FreeSans, sans-serif" font-size="10.00">deviceappender.hxx</text>
</a>
</g>
</g>
<!-- Node11&#45;&gt;Node12 -->
<g id="edge14" class="edge">
<title>Node11&#45;&gt;Node12</title>
<path fill="none" stroke="midnightblue" d="M858.23,-286.38C766.56,-280.55 544.38,-265.35 359,-244 356.13,-243.67 353.18,-243.31 350.21,-242.93"/>
<polygon fill="midnightblue" stroke="midnightblue" points="858.04,-289.87 868.24,-287.01 858.48,-282.89 858.04,-289.87"/>
</g>
<!-- Node13 -->
<g id="node13" class="node">
<title>Node13</title>
<g id="a_node13"><a xlink:href="callbackappender_8h.html" target="_top" xlink:title=" ">
<polygon fill="white" stroke="black" points="368.5,-224.5 368.5,-243.5 469.5,-243.5 469.5,-224.5 368.5,-224.5"/>
<text text-anchor="middle" x="419" y="-231.5" font-family="'Souce Sans Pro', Roboto, FreeSans, sans-serif" font-size="10.00">callbackappender.h</text>
</a>
</g>
</g>
<!-- Node11&#45;&gt;Node13 -->
<g id="edge15" class="edge">
<title>Node11&#45;&gt;Node13</title>
<path fill="none" stroke="midnightblue" d="M858.21,-285.05C781.91,-277.86 617.37,-261.75 479,-244 475.97,-243.61 472.86,-243.2 469.72,-242.76"/>
<polygon fill="midnightblue" stroke="midnightblue" points="858.1,-288.55 868.38,-286 858.75,-281.58 858.1,-288.55"/>
</g>
<!-- Node14 -->
<g id="node14" class="node">
<title>Node14</title>
<g id="a_node14"><a xlink:href="clfsappender_8h.html" target="_top" xlink:title=" ">
<polygon fill="white" stroke="black" points="488,-224.5 488,-243.5 570,-243.5 570,-224.5 488,-224.5"/>
<text text-anchor="middle" x="529" y="-231.5" font-family="'Souce Sans Pro', Roboto, FreeSans, sans-serif" font-size="10.00">clfsappender.h</text>
</a>
</g>
</g>
<!-- Node11&#45;&gt;Node14 -->
<g id="edge16" class="edge">
<title>Node11&#45;&gt;Node14</title>
<path fill="none" stroke="midnightblue" d="M858.08,-283.2C797.11,-274.9 681.91,-258.96 584,-244 579.5,-243.31 574.81,-242.58 570.13,-241.83"/>
<polygon fill="midnightblue" stroke="midnightblue" points="857.73,-286.69 868.11,-284.56 858.67,-279.75 857.73,-286.69"/>
</g>
<!-- Node15 -->
<g id="node15" class="node">
<title>Node15</title>
<g id="a_node15"><a xlink:href="configurator_8h.html" target="_top" xlink:title=" ">
<polygon fill="white" stroke="black" points="1381.5,-112.5 1381.5,-131.5 1458.5,-131.5 1458.5,-112.5 1381.5,-112.5"/>
<text text-anchor="middle" x="1420" y="-119.5" font-family="'Souce Sans Pro', Roboto, FreeSans, sans-serif" font-size="10.00">configurator.h</text>
</a>
</g>
</g>
<!-- Node11&#45;&gt;Node15 -->
<g id="edge17" class="edge">
<title>Node11&#45;&gt;Node15</title>
<path fill="none" stroke="midnightblue" d="M944.02,-288.29C1060.66,-285.92 1376.37,-276.56 1409,-244 1439.76,-213.31 1428.14,-153.66 1422.43,-131.53"/>
<polygon fill="midnightblue" stroke="midnightblue" points="943.63,-284.79 933.7,-288.49 943.76,-291.79 943.63,-284.79"/>
</g>
<!-- Node16 -->
<g id="node16" class="node">
<title>Node16</title>
<g id="a_node16"><a xlink:href="consoleappender_8h.html" target="_top" xlink:title=" ">
<polygon fill="white" stroke="black" points="225.5,-56.5 225.5,-75.5 326.5,-75.5 326.5,-56.5 225.5,-56.5"/>
<text text-anchor="middle" x="276" y="-63.5" font-family="'Souce Sans Pro', Roboto, FreeSans, sans-serif" font-size="10.00">consoleappender.h</text>
</a>
</g>
</g>
<!-- Node11&#45;&gt;Node16 -->
<g id="edge19" class="edge">
<title>Node11&#45;&gt;Node16</title>
<path fill="none" stroke="midnightblue" d="M857.99,-287.73C712.66,-283.25 247.65,-267.14 226,-244 179.32,-194.1 245.62,-103.94 268.63,-75.7"/>
<polygon fill="midnightblue" stroke="midnightblue" points="858.19,-291.24 868.29,-288.05 858.4,-284.24 858.19,-291.24"/>
</g>
<!-- Node11&#45;&gt;Node17 -->
<g id="edge21" class="edge">
<title>Node11&#45;&gt;Node17</title>
<path fill="none" stroke="midnightblue" d="M858.31,-286.34C829.43,-284.54 790.42,-282.12 756,-280 493.79,-263.86 426.99,-274.03 166,-244 161.46,-243.48 156.71,-242.82 152.01,-242.11"/>
<polygon fill="midnightblue" stroke="midnightblue" points="858.26,-289.84 868.46,-286.97 858.7,-282.86 858.26,-289.84"/>
</g>
<!-- Node18 -->
<g id="node18" class="node">
<title>Node18</title>
<g id="a_node18"><a xlink:href="hierarchylocker_8h.html" target="_top" xlink:title=" ">
<polygon fill="white" stroke="black" points="958.5,-112.5 958.5,-131.5 1049.5,-131.5 1049.5,-112.5 958.5,-112.5"/>
<text text-anchor="middle" x="1004" y="-119.5" font-family="'Souce Sans Pro', Roboto, FreeSans, sans-serif" font-size="10.00">hierarchylocker.h</text>
</a>
</g>
</g>
<!-- Node11&#45;&gt;Node18 -->
<g id="edge23" class="edge">
<title>Node11&#45;&gt;Node18</title>
<path fill="none" stroke="midnightblue" d="M857.92,-287.52C794.4,-284.33 680.35,-274.41 655,-244 649.31,-237.17 649.66,-231.11 655,-224 691.67,-175.22 872.3,-142.48 958.31,-129.4"/>
<polygon fill="midnightblue" stroke="midnightblue" points="857.89,-291.02 868.04,-287.99 858.22,-284.03 857.89,-291.02"/>
</g>
<!-- Node19 -->
<g id="node19" class="node">
<title>Node19</title>
<g id="a_node19"><a xlink:href="log4judpappender_8h.html" target="_top" xlink:title=" ">
<polygon fill="white" stroke="black" points="664.5,-224.5 664.5,-243.5 767.5,-243.5 767.5,-224.5 664.5,-224.5"/>
<text text-anchor="middle" x="716" y="-231.5" font-family="'Souce Sans Pro', Roboto, FreeSans, sans-serif" font-size="10.00">log4judpappender.h</text>
</a>
</g>
</g>
<!-- Node11&#45;&gt;Node19 -->
<g id="edge25" class="edge">
<title>Node11&#45;&gt;Node19</title>
<path fill="none" stroke="midnightblue" d="M861.83,-277.57C826.93,-267.38 776.65,-252.7 745.18,-243.52"/>
<polygon fill="midnightblue" stroke="midnightblue" points="861.11,-281 871.69,-280.44 863.07,-274.28 861.11,-281"/>
</g>
<!-- Node20 -->
<g id="node20" class="node">
<title>Node20</title>
<g id="a_node20"><a xlink:href="msttsappender_8h.html" target="_top" xlink:title=" ">
<polygon fill="white" stroke="black" points="785.5,-224.5 785.5,-243.5 876.5,-243.5 876.5,-224.5 785.5,-224.5"/>
<text text-anchor="middle" x="831" y="-231.5" font-family="'Souce Sans Pro', Roboto, FreeSans, sans-serif" font-size="10.00">msttsappender.h</text>
</a>
</g>
</g>
<!-- Node11&#45;&gt;Node20 -->
<g id="edge26" class="edge">
<title>Node11&#45;&gt;Node20</title>
<path fill="none" stroke="midnightblue" d="M881.69,-274.1C869.09,-264.38 853.07,-252.03 842.45,-243.83"/>
<polygon fill="midnightblue" stroke="midnightblue" points="879.7,-276.99 889.75,-280.32 883.97,-271.44 879.7,-276.99"/>
</g>
<!-- Node21 -->
<g id="node21" class="node">
<title>Node21</title>
<g id="a_node21"><a xlink:href="nteventlogappender_8h.html" target="_top" xlink:title=" ">
<polygon fill="white" stroke="black" points="895,-224.5 895,-243.5 1005,-243.5 1005,-224.5 895,-224.5"/>
<text text-anchor="middle" x="950" y="-231.5" font-family="'Souce Sans Pro', Roboto, FreeSans, sans-serif" font-size="10.00">nteventlogappender.h</text>
</a>
</g>
</g>
<!-- Node11&#45;&gt;Node21 -->
<g id="edge27" class="edge">
<title>Node11&#45;&gt;Node21</title>
<path fill="none" stroke="midnightblue" d="M916.03,-272.43C924.62,-262.97 935.04,-251.48 942.06,-243.75"/>
<polygon fill="midnightblue" stroke="midnightblue" points="913.22,-270.33 909.09,-280.08 918.4,-275.03 913.22,-270.33"/>
</g>
<!-- Node22 -->
<g id="node22" class="node">
<title>Node22</title>
<g id="a_node22"><a xlink:href="nullappender_8h.html" target="_top" xlink:title=" ">
<polygon fill="white" stroke="black" points="349,-168.5 349,-187.5 429,-187.5 429,-168.5 349,-168.5"/>
<text text-anchor="middle" x="389" y="-175.5" font-family="'Souce Sans Pro', Roboto, FreeSans, sans-serif" font-size="10.00">nullappender.h</text>
</a>
</g>
</g>
<!-- Node11&#45;&gt;Node22 -->
<g id="edge28" class="edge">
<title>Node11&#45;&gt;Node22</title>
<path fill="none" stroke="midnightblue" d="M857.82,-286.27C710.95,-276.95 239.66,-246.85 237,-244 201.43,-205.94 292.7,-189.18 348.84,-182.64"/>
<polygon fill="midnightblue" stroke="midnightblue" points="858.02,-289.79 868.22,-286.93 858.46,-282.8 858.02,-289.79"/>
</g>
<!-- Node23 -->
<g id="node23" class="node">
<title>Node23</title>
<g id="a_node23"><a xlink:href="qt4debugappender_8h.html" target="_top" xlink:title=" ">
<polygon fill="white" stroke="black" points="1023.5,-224.5 1023.5,-243.5 1130.5,-243.5 1130.5,-224.5 1023.5,-224.5"/>
<text text-anchor="middle" x="1077" y="-231.5" font-family="'Souce Sans Pro', Roboto, FreeSans, sans-serif" font-size="10.00">qt4debugappender.h</text>
</a>
</g>
</g>
<!-- Node11&#45;&gt;Node23 -->
<g id="edge30" class="edge">
<title>Node11&#45;&gt;Node23</title>
<path fill="none" stroke="midnightblue" d="M938.69,-277.44C971.87,-267.26 1019.43,-252.66 1049.24,-243.52"/>
<polygon fill="midnightblue" stroke="midnightblue" points="937.42,-274.16 928.89,-280.44 939.47,-280.86 937.42,-274.16"/>
</g>
<!-- Node24 -->
<g id="node24" class="node">
<title>Node24</title>
<g id="a_node24"><a xlink:href="qt5debugappender_8h.html" target="_top" xlink:title=" ">
<polygon fill="white" stroke="black" points="1148.5,-224.5 1148.5,-243.5 1255.5,-243.5 1255.5,-224.5 1148.5,-224.5"/>
<text text-anchor="middle" x="1202" y="-231.5" font-family="'Souce Sans Pro', Roboto, FreeSans, sans-serif" font-size="10.00">qt5debugappender.h</text>
</a>
</g>
</g>
<!-- Node11&#45;&gt;Node24 -->
<g id="edge31" class="edge">
<title>Node11&#45;&gt;Node24</title>
<path fill="none" stroke="midnightblue" d="M943.68,-281.34C999.36,-271.35 1096.48,-253.93 1154.45,-243.53"/>
<polygon fill="midnightblue" stroke="midnightblue" points="943.01,-277.91 933.79,-283.12 944.25,-284.8 943.01,-277.91"/>
</g>
<!-- Node25 -->
<g id="node25" class="node">
<title>Node25</title>
<g id="a_node25"><a xlink:href="appenderattachable_8h.html" target="_top" xlink:title=" ">
<polygon fill="white" stroke="black" points="1532,-224.5 1532,-243.5 1642,-243.5 1642,-224.5 1532,-224.5"/>
<text text-anchor="middle" x="1587" y="-231.5" font-family="'Souce Sans Pro', Roboto, FreeSans, sans-serif" font-size="10.00">appenderattachable.h</text>
</a>
</g>
</g>
<!-- Node11&#45;&gt;Node25 -->
<g id="edge33" class="edge">
<title>Node11&#45;&gt;Node25</title>
<path fill="none" stroke="midnightblue" d="M943.83,-285.76C1039.83,-278.49 1279.49,-260.22 1480,-244 1496.82,-242.64 1515.11,-241.12 1531.75,-239.71"/>
<polygon fill="midnightblue" stroke="midnightblue" points="943.36,-282.29 933.65,-286.54 943.89,-289.27 943.36,-282.29"/>
</g>
<!-- Node30 -->
<g id="node30" class="node">
<title>Node30</title>
<g id="a_node30"><a xlink:href="factory_8h.html" target="_top" xlink:title=" ">
<polygon fill="white" stroke="black" points="0,-224.5 0,-243.5 56,-243.5 56,-224.5 0,-224.5"/>
<text text-anchor="middle" x="28" y="-231.5" font-family="'Souce Sans Pro', Roboto, FreeSans, sans-serif" font-size="10.00">factory.h</text>
</a>
</g>
</g>
<!-- Node11&#45;&gt;Node30 -->
<g id="edge46" class="edge">
<title>Node11&#45;&gt;Node30</title>
<path fill="none" stroke="midnightblue" d="M858.16,-287.74C710.09,-283.23 220.52,-266.9 65,-244 62.12,-243.58 59.14,-243.03 56.18,-242.42"/>
<polygon fill="midnightblue" stroke="midnightblue" points="858.12,-291.24 868.22,-288.05 858.33,-284.25 858.12,-291.24"/>
</g>
<!-- Node31 -->
<g id="node31" class="node">
<title>Node31</title>
<g id="a_node31"><a xlink:href="win32consoleappender_8h.html" target="_top" xlink:title=" ">
<polygon fill="white" stroke="black" points="1274,-224.5 1274,-243.5 1400,-243.5 1400,-224.5 1274,-224.5"/>
<text text-anchor="middle" x="1337" y="-231.5" font-family="'Souce Sans Pro', Roboto, FreeSans, sans-serif" font-size="10.00">win32consoleappender.h</text>
</a>
</g>
</g>
<!-- Node11&#45;&gt;Node31 -->
<g id="edge49" class="edge">
<title>Node11&#45;&gt;Node31</title>
<path fill="none" stroke="midnightblue" d="M944.1,-283.66C1021.41,-274.09 1183.96,-253.95 1273.86,-242.82"/>
<polygon fill="midnightblue" stroke="midnightblue" points="943.26,-280.24 933.77,-284.94 944.13,-287.19 943.26,-280.24"/>
</g>
<!-- Node15&#45;&gt;Node4 -->
<g id="edge18" class="edge">
<title>Node15&#45;&gt;Node4</title>
<path fill="none" stroke="midnightblue" d="M1423.76,-102.28C1427.57,-87.84 1434.85,-68.31 1448,-56 1473.79,-31.86 1513.34,-20.55 1541.45,-15.32"/>
<polygon fill="midnightblue" stroke="midnightblue" points="1420.33,-101.6 1421.48,-112.13 1427.15,-103.18 1420.33,-101.6"/>
</g>
<!-- Node16&#45;&gt;Node4 -->
<g id="edge20" class="edge">
<title>Node16&#45;&gt;Node4</title>
<path fill="none" stroke="midnightblue" d="M336.79,-62.24C376.89,-60.43 430.57,-58.03 478,-56 897.44,-38.05 1407.15,-17.68 1541.33,-12.34"/>
<polygon fill="midnightblue" stroke="midnightblue" points="336.47,-58.75 326.64,-62.69 336.78,-65.74 336.47,-58.75"/>
</g>
<!-- Node17&#45;&gt;Node4 -->
<g id="edge22" class="edge">
<title>Node17&#45;&gt;Node4</title>
<path fill="none" stroke="midnightblue" d="M117.5,-214.13C127.65,-176.29 156.25,-91.69 216,-56 274.61,-20.99 1337.4,-12.51 1541.32,-11.2"/>
<polygon fill="midnightblue" stroke="midnightblue" points="114,-213.72 114.93,-224.27 120.78,-215.44 114,-213.72"/>
</g>
<!-- Node22&#45;&gt;Node4 -->
<g id="edge29" class="edge">
<title>Node22&#45;&gt;Node4</title>
<path fill="none" stroke="midnightblue" d="M406.3,-161.89C438.59,-134.75 511.33,-78.51 584,-56 677,-27.19 1378.9,-14.17 1541.46,-11.52"/>
<polygon fill="midnightblue" stroke="midnightblue" points="403.98,-159.27 398.65,-168.42 408.53,-164.59 403.98,-159.27"/>
</g>
<!-- Node25&#45;&gt;Node2 -->
<g id="edge34" class="edge">
<title>Node25&#45;&gt;Node2</title>
<path fill="none" stroke="midnightblue" d="M1632.67,-222.09C1675.36,-211.89 1738.25,-196.86 1777.36,-187.52"/>
<polygon fill="midnightblue" stroke="midnightblue" points="1631.72,-218.72 1622.81,-224.44 1633.35,-225.52 1631.72,-218.72"/>
</g>
<!-- Node26 -->
<g id="node26" class="node">
<title>Node26</title>
<g id="a_node26"><a xlink:href="logger_8h.html" target="_top" xlink:title="This header defines the Logger class and the logging macros.">
<polygon fill="white" stroke="black" points="1532,-168.5 1532,-187.5 1584,-187.5 1584,-168.5 1532,-168.5"/>
<text text-anchor="middle" x="1558" y="-175.5" font-family="'Souce Sans Pro', Roboto, FreeSans, sans-serif" font-size="10.00">logger.h</text>
</a>
</g>
</g>
<!-- Node25&#45;&gt;Node26 -->
<g id="edge35" class="edge">
<title>Node25&#45;&gt;Node26</title>
<path fill="none" stroke="midnightblue" d="M1577.32,-214.98C1572.4,-205.82 1566.64,-195.09 1562.7,-187.75"/>
<polygon fill="midnightblue" stroke="midnightblue" points="1574.4,-216.93 1582.21,-224.08 1580.56,-213.62 1574.4,-216.93"/>
</g>
<!-- Node26&#45;&gt;Node4 -->
<g id="edge40" class="edge">
<title>Node26&#45;&gt;Node4</title>
<path fill="none" stroke="midnightblue" d="M1576.79,-161.66C1584.97,-153.76 1593.66,-143.4 1598,-132 1613.27,-91.83 1590.38,-40.14 1579.84,-19.79"/>
<polygon fill="midnightblue" stroke="midnightblue" points="1574.36,-159.14 1569.27,-168.43 1579.04,-164.34 1574.36,-159.14"/>
</g>
<!-- Node26&#45;&gt;Node15 -->
<g id="edge36" class="edge">
<title>Node26&#45;&gt;Node15</title>
<path fill="none" stroke="midnightblue" d="M1526.75,-164.77C1500.83,-154.63 1464.64,-140.47 1441.76,-131.52"/>
<polygon fill="midnightblue" stroke="midnightblue" points="1525.55,-168.06 1536.13,-168.44 1528.1,-161.54 1525.55,-168.06"/>
</g>
<!-- Node26&#45;&gt;Node18 -->
<g id="edge39" class="edge">
<title>Node26&#45;&gt;Node18</title>
<path fill="none" stroke="midnightblue" d="M1521.69,-173.46C1424.23,-163.96 1157.03,-137.92 1049.61,-127.45"/>
<polygon fill="midnightblue" stroke="midnightblue" points="1521.36,-176.95 1531.65,-174.43 1522.04,-169.98 1521.36,-176.95"/>
</g>
<!-- Node26&#45;&gt;Node27 -->
<g id="edge37" class="edge">
<title>Node26&#45;&gt;Node27</title>
<path fill="none" stroke="midnightblue" d="M1594.16,-171.01C1658.14,-160.41 1790.34,-138.51 1851.57,-128.37"/>
<polygon fill="midnightblue" stroke="midnightblue" points="1593.42,-167.59 1584.13,-172.67 1594.56,-174.49 1593.42,-167.59"/>
</g>
<!-- Node28 -->
<g id="node28" class="node">
<title>Node28</title>
<g id="a_node28"><a xlink:href="loggingmacros_8h.html" target="_top" xlink:title="This header defines the logging macros.">
<polygon fill="white" stroke="black" points="1457,-56.5 1457,-75.5 1547,-75.5 1547,-56.5 1457,-56.5"/>
<text text-anchor="middle" x="1502" y="-63.5" font-family="'Souce Sans Pro', Roboto, FreeSans, sans-serif" font-size="10.00">loggingmacros.h</text>
</a>
</g>
</g>
<!-- Node26&#45;&gt;Node28 -->
<g id="edge41" class="edge">
<title>Node26&#45;&gt;Node28</title>
<path fill="none" stroke="midnightblue" d="M1534.19,-162.72C1523.62,-155.03 1512.2,-144.54 1506,-132 1496.88,-113.56 1498.7,-88.48 1500.52,-75.53"/>
<polygon fill="midnightblue" stroke="midnightblue" points="1532.48,-165.79 1542.72,-168.5 1536.41,-159.99 1532.48,-165.79"/>
</g>
<!-- Node29 -->
<g id="node29" class="node">
<title>Node29</title>
<g id="a_node29"><a xlink:href="tracelogger_8h.html" target="_top" xlink:title=" ">
<polygon fill="white" stroke="black" points="1515,-112.5 1515,-131.5 1589,-131.5 1589,-112.5 1515,-112.5"/>
<text text-anchor="middle" x="1552" y="-119.5" font-family="'Souce Sans Pro', Roboto, FreeSans, sans-serif" font-size="10.00">tracelogger.h</text>
</a>
</g>
</g>
<!-- Node26&#45;&gt;Node29 -->
<g id="edge43" class="edge">
<title>Node26&#45;&gt;Node29</title>
<path fill="none" stroke="midnightblue" d="M1555.9,-158.1C1554.9,-149.14 1553.76,-138.86 1552.97,-131.75"/>
<polygon fill="midnightblue" stroke="midnightblue" points="1552.43,-158.53 1557.01,-168.08 1559.38,-157.76 1552.43,-158.53"/>
</g>
<!-- Node27&#45;&gt;Node4 -->
<g id="edge38" class="edge">
<title>Node27&#45;&gt;Node4</title>
<path fill="none" stroke="midnightblue" d="M1876.07,-102.82C1868.51,-87.78 1855.68,-67.14 1838,-56 1800.28,-32.23 1670.58,-18.77 1608.55,-13.55"/>
<polygon fill="midnightblue" stroke="midnightblue" points="1873.03,-104.59 1880.44,-112.15 1879.37,-101.61 1873.03,-104.59"/>
</g>
<!-- Node28&#45;&gt;Node4 -->
<g id="edge42" class="edge">
<title>Node28&#45;&gt;Node4</title>
<path fill="none" stroke="midnightblue" d="M1522.14,-50.1C1535.28,-40.38 1551.98,-28.03 1563.06,-19.83"/>
<polygon fill="midnightblue" stroke="midnightblue" points="1519.69,-47.56 1513.73,-56.32 1523.85,-53.19 1519.69,-47.56"/>
</g>
<!-- Node29&#45;&gt;Node4 -->
<g id="edge44" class="edge">
<title>Node29&#45;&gt;Node4</title>
<path fill="none" stroke="midnightblue" d="M1555.9,-102.35C1560.94,-78.25 1569.5,-37.31 1573.2,-19.59"/>
<polygon fill="midnightblue" stroke="midnightblue" points="1552.43,-101.86 1553.8,-112.37 1559.28,-103.3 1552.43,-101.86"/>
</g>
<!-- Node29&#45;&gt;Node28 -->
<g id="edge45" class="edge">
<title>Node29&#45;&gt;Node28</title>
<path fill="none" stroke="midnightblue" d="M1536.92,-104.72C1528.11,-95.2 1517.33,-83.56 1510.1,-75.75"/>
<polygon fill="midnightblue" stroke="midnightblue" points="1534.38,-107.12 1543.74,-112.08 1539.52,-102.37 1534.38,-107.12"/>
</g>
<!-- Node30&#45;&gt;Node4 -->
<g id="edge47" class="edge">
<title>Node30&#45;&gt;Node4</title>
<path fill="none" stroke="midnightblue" d="M37.37,-215.33C58.41,-177.76 113.48,-90.55 188,-56 251.29,-26.66 1335.5,-13.57 1541.39,-11.35"/>
<polygon fill="midnightblue" stroke="midnightblue" points="34.28,-213.69 32.55,-224.14 40.42,-217.05 34.28,-213.69"/>
</g>
<!-- Node33&#45;&gt;Node2 -->
<g id="edge55" class="edge">
<title>Node33&#45;&gt;Node2</title>
<path fill="none" stroke="midnightblue" d="M1683.95,-383.11C1693.67,-358.92 1712.57,-314.79 1734,-280 1756.53,-243.42 1789.99,-204.59 1805.1,-187.69"/>
<polygon fill="midnightblue" stroke="midnightblue" points="1680.68,-381.86 1680.26,-392.45 1687.19,-384.44 1680.68,-381.86"/>
</g>
<!-- Node33&#45;&gt;Node5 -->
<g id="edge61" class="edge">
<title>Node33&#45;&gt;Node5</title>
<path fill="none" stroke="midnightblue" d="M1680.82,-382.39C1691.99,-327.88 1724.37,-169.99 1732.25,-131.52"/>
<polygon fill="midnightblue" stroke="midnightblue" points="1677.35,-381.88 1678.77,-392.38 1684.21,-383.28 1677.35,-381.88"/>
</g>
<!-- Node33&#45;&gt;Node11 -->
<g id="edge53" class="edge">
<title>Node33&#45;&gt;Node11</title>
<path fill="none" stroke="midnightblue" d="M1638.8,-395.81C1577.9,-387.51 1455.07,-370.7 1351,-356 1194.68,-333.92 1007.95,-306.67 933.74,-295.8"/>
<polygon fill="midnightblue" stroke="midnightblue" points="1638.7,-399.33 1649.08,-397.21 1639.65,-392.39 1638.7,-399.33"/>
</g>
<!-- Node33&#45;&gt;Node15 -->
<g id="edge54" class="edge">
<title>Node33&#45;&gt;Node15</title>
<path fill="none" stroke="midnightblue" d="M1660.61,-385.05C1632.04,-357.07 1571.53,-297.1 1523,-244 1485.59,-203.07 1443.43,-151.82 1427.04,-131.69"/>
<polygon fill="midnightblue" stroke="midnightblue" points="1658.49,-387.87 1668.09,-392.36 1663.39,-382.87 1658.49,-387.87"/>
</g>
<!-- Node33&#45;&gt;Node25 -->
<g id="edge56" class="edge">
<title>Node33&#45;&gt;Node25</title>
<path fill="none" stroke="midnightblue" d="M1667.16,-382.86C1647.86,-347.25 1605.68,-269.45 1591.65,-243.57"/>
<polygon fill="midnightblue" stroke="midnightblue" points="1664.32,-384.95 1672.16,-392.08 1670.47,-381.62 1664.32,-384.95"/>
</g>
<!-- Node34 -->
<g id="node34" class="node">
<title>Node34</title>
<g id="a_node34"><a xlink:href="filter_8h.html" target="_top" xlink:title="This header defines Filter and all of it&#39;s subclasses.">
<polygon fill="white" stroke="black" points="1360,-336.5 1360,-355.5 1404,-355.5 1404,-336.5 1360,-336.5"/>
<text text-anchor="middle" x="1382" y="-343.5" font-family="'Souce Sans Pro', Roboto, FreeSans, sans-serif" font-size="10.00">filter.h</text>
</a>
</g>
</g>
<!-- Node33&#45;&gt;Node34 -->
<g id="edge57" class="edge">
<title>Node33&#45;&gt;Node34</title>
<path fill="none" stroke="midnightblue" d="M1639.04,-394.05C1576.61,-382.62 1454.19,-360.22 1404.13,-351.05"/>
<polygon fill="midnightblue" stroke="midnightblue" points="1638.78,-397.56 1649.25,-395.92 1640.04,-390.68 1638.78,-397.56"/>
</g>
<!-- Node35 -->
<g id="node35" class="node">
<title>Node35</title>
<g id="a_node35"><a xlink:href="threads-impl_8h.html" target="_top" xlink:title=" ">
<polygon fill="white" stroke="black" points="1743,-280.5 1743,-299.5 1823,-299.5 1823,-280.5 1743,-280.5"/>
<text text-anchor="middle" x="1783" y="-287.5" font-family="'Souce Sans Pro', Roboto, FreeSans, sans-serif" font-size="10.00">threads&#45;impl.h</text>
</a>
</g>
</g>
<!-- Node33&#45;&gt;Node35 -->
<g id="edge62" class="edge">
<title>Node33&#45;&gt;Node35</title>
<path fill="none" stroke="midnightblue" d="M1696.09,-385.76C1706.23,-377.36 1718.68,-366.53 1729,-356 1747.48,-337.14 1766.67,-312.67 1776.44,-299.8"/>
<polygon fill="midnightblue" stroke="midnightblue" points="1693.76,-383.15 1688.22,-392.19 1698.18,-388.58 1693.76,-383.15"/>
</g>
<!-- Node36 -->
<g id="node36" class="node">
<title>Node36</title>
<g id="a_node36"><a xlink:href="threads_8h.html" target="_top" xlink:title=" ">
<polygon fill="white" stroke="black" points="1958,-336.5 1958,-355.5 2016,-355.5 2016,-336.5 1958,-336.5"/>
<text text-anchor="middle" x="1987" y="-343.5" font-family="'Souce Sans Pro', Roboto, FreeSans, sans-serif" font-size="10.00">threads.h</text>
</a>
</g>
</g>
<!-- Node33&#45;&gt;Node36 -->
<g id="edge63" class="edge">
<title>Node33&#45;&gt;Node36</title>
<path fill="none" stroke="midnightblue" d="M1714.73,-394.43C1777.31,-383.53 1901.28,-361.93 1957.75,-352.1"/>
<polygon fill="midnightblue" stroke="midnightblue" points="1713.76,-391.04 1704.51,-396.21 1714.96,-397.94 1713.76,-391.04"/>
</g>
<!-- Node34&#45;&gt;Node4 -->
<g id="edge59" class="edge">
<title>Node34&#45;&gt;Node4</title>
<path fill="none" stroke="midnightblue" d="M1414.19,-343.96C1472.97,-340.1 1596.58,-322.56 1651,-244 1676.65,-206.97 1779.17,-395 1612,-56 1605.02,-41.85 1592.81,-28.23 1584.33,-19.76"/>
<polygon fill="midnightblue" stroke="midnightblue" points="1413.79,-340.47 1404.01,-344.53 1414.19,-347.46 1413.79,-340.47"/>
</g>
<!-- Node34&#45;&gt;Node11 -->
<g id="edge58" class="edge">
<title>Node34&#45;&gt;Node11</title>
<path fill="none" stroke="midnightblue" d="M1349.63,-341.37C1262.09,-331.54 1021.36,-304.51 933.57,-294.66"/>
<polygon fill="midnightblue" stroke="midnightblue" points="1349.44,-344.87 1359.77,-342.5 1350.22,-337.91 1349.44,-344.87"/>
</g>
<!-- Node34&#45;&gt;Node30 -->
<g id="edge60" class="edge">
<title>Node34&#45;&gt;Node30</title>
<path fill="none" stroke="midnightblue" d="M1349.69,-343.24C1173.22,-333.49 324.27,-285.2 65,-244 62.13,-243.54 59.15,-242.98 56.19,-242.35"/>
<polygon fill="midnightblue" stroke="midnightblue" points="1349.7,-346.74 1359.88,-343.8 1350.09,-339.75 1349.7,-346.74"/>
</g>
<!-- Node36&#45;&gt;Node3 -->
<g id="edge64" class="edge">
<title>Node36&#45;&gt;Node3</title>
<path fill="none" stroke="midnightblue" d="M1998.75,-327.99C2009.29,-313.72 2025.85,-293.56 2044,-280 2074.59,-257.15 2100.01,-275.21 2122,-244 2141.5,-216.33 2145.82,-196.13 2127,-168 2112.83,-146.82 2086.66,-135.59 2063.52,-129.65"/>
<polygon fill="midnightblue" stroke="midnightblue" points="1995.72,-326.22 1992.74,-336.39 2001.41,-330.3 1995.72,-326.22"/>
</g>
<!-- Node36&#45;&gt;Node7 -->
<g id="edge65" class="edge">
<title>Node36&#45;&gt;Node7</title>
<path fill="none" stroke="midnightblue" d="M2014.48,-332.1C2035.97,-322.01 2065.22,-308.27 2083.86,-299.52"/>
<polygon fill="midnightblue" stroke="midnightblue" points="2012.79,-329.02 2005.22,-336.44 2015.76,-335.36 2012.79,-329.02"/>
</g>
<!-- Node36&#45;&gt;Node8 -->
<g id="edge68" class="edge">
<title>Node36&#45;&gt;Node8</title>
<path fill="none" stroke="midnightblue" d="M2026.64,-341.41C2063.5,-336.58 2118.77,-325.43 2160,-300 2183.76,-285.34 2203.08,-257.67 2211.87,-243.63"/>
<polygon fill="midnightblue" stroke="midnightblue" points="2025.8,-337.98 2016.3,-342.66 2026.64,-344.93 2025.8,-337.98"/>
</g>
<!-- Node36&#45;&gt;Node35 -->
<g id="edge74" class="edge">
<title>Node36&#45;&gt;Node35</title>
<path fill="none" stroke="midnightblue" d="M1947.94,-334.66C1909.4,-324.46 1851.17,-309.05 1815.2,-299.52"/>
<polygon fill="midnightblue" stroke="midnightblue" points="1947.21,-338.09 1957.77,-337.26 1949,-331.32 1947.21,-338.09"/>
</g>
<!-- Node36&#45;&gt;Node37 -->
<g id="edge66" class="edge">
<title>Node36&#45;&gt;Node37</title>
<path fill="none" stroke="midnightblue" d="M1990.42,-326.09C1993.73,-312.11 1999.94,-293.27 2011,-280 2025.14,-263.04 2047.42,-250.92 2064.21,-243.56"/>
<polygon fill="midnightblue" stroke="midnightblue" points="1986.95,-325.56 1988.34,-336.06 1993.81,-326.99 1986.95,-325.56"/>
</g>
<!-- Node38 -->
<g id="node38" class="node">
<title>Node38</title>
<g id="a_node38"><a xlink:href="loggingevent_8h.html" target="_top" xlink:title=" ">
<polygon fill="white" stroke="black" points="1879,-280.5 1879,-299.5 1959,-299.5 1959,-280.5 1879,-280.5"/>
<text text-anchor="middle" x="1919" y="-287.5" font-family="'Souce Sans Pro', Roboto, FreeSans, sans-serif" font-size="10.00">loggingevent.h</text>
</a>
</g>
</g>
<!-- Node36&#45;&gt;Node38 -->
<g id="edge69" class="edge">
<title>Node36&#45;&gt;Node38</title>
<path fill="none" stroke="midnightblue" d="M1968.24,-330.1C1956,-320.38 1940.44,-308.03 1930.12,-299.83"/>
<polygon fill="midnightblue" stroke="midnightblue" points="1966.07,-332.85 1976.07,-336.32 1970.42,-327.36 1966.07,-332.85"/>
</g>
<!-- Node37&#45;&gt;Node3 -->
<g id="edge67" class="edge">
<title>Node37&#45;&gt;Node3</title>
<path fill="none" stroke="midnightblue" d="M2101.01,-216.47C2110.79,-202.79 2120.54,-183.22 2111,-168 2099.18,-149.16 2077,-138.01 2057.25,-131.52"/>
<polygon fill="midnightblue" stroke="midnightblue" points="2098.14,-214.45 2094.77,-224.5 2103.67,-218.74 2098.14,-214.45"/>
</g>
<!-- Node38&#45;&gt;Node4 -->
<g id="edge73" class="edge">
<title>Node38&#45;&gt;Node4</title>
<path fill="none" stroke="midnightblue" d="M1928.43,-271.25C1932.21,-263.17 1936.11,-253.35 1938,-244 1946,-204.48 1951.75,-163.9 1925,-112 1907.99,-78.99 1896.52,-71.98 1863,-56 1778.03,-15.5 1664.5,-10.1 1608.76,-10.17"/>
<polygon fill="midnightblue" stroke="midnightblue" points="1925.21,-269.86 1923.88,-280.37 1931.47,-272.99 1925.21,-269.86"/>
</g>
<!-- Node38&#45;&gt;Node37 -->
<g id="edge70" class="edge">
<title>Node38&#45;&gt;Node37</title>
<path fill="none" stroke="midnightblue" d="M1955.42,-277.29C1987.17,-267.09 2032.47,-252.53 2060.78,-243.43"/>
<polygon fill="midnightblue" stroke="midnightblue" points="1954.07,-274.05 1945.62,-280.44 1956.21,-280.72 1954.07,-274.05"/>
</g>
<!-- Node39 -->
<g id="node39" class="node">
<title>Node39</title>
<g id="a_node39"><a xlink:href="internal_8h.html" target="_top" xlink:title="This header contains declaration internal to log4cplus.">
<polygon fill="white" stroke="black" points="1985.5,-224.5 1985.5,-243.5 2042.5,-243.5 2042.5,-224.5 1985.5,-224.5"/>
<text text-anchor="middle" x="2014" y="-231.5" font-family="'Souce Sans Pro', Roboto, FreeSans, sans-serif" font-size="10.00">internal.h</text>
</a>
</g>
</g>
<!-- Node38&#45;&gt;Node39 -->
<g id="edge71" class="edge">
<title>Node38&#45;&gt;Node39</title>
<path fill="none" stroke="midnightblue" d="M1943.32,-275.18C1960.8,-265.24 1983.83,-252.15 1998.77,-243.65"/>
<polygon fill="midnightblue" stroke="midnightblue" points="1941.23,-272.34 1934.26,-280.32 1944.69,-278.43 1941.23,-272.34"/>
</g>
<!-- Node39&#45;&gt;Node40 -->
<g id="edge72" class="edge">
<title>Node39&#45;&gt;Node40</title>
<path fill="none" stroke="midnightblue" d="M2021.8,-214.69C2025.68,-205.59 2030.18,-195.01 2033.27,-187.75"/>
<polygon fill="midnightblue" stroke="midnightblue" points="2018.5,-213.51 2017.8,-224.08 2024.94,-216.25 2018.5,-213.51"/>
</g>
<!-- Node41&#45;&gt;Node30 -->
<g id="edge80" class="edge">
<title>Node41&#45;&gt;Node30</title>
<path fill="none" stroke="midnightblue" d="M736.75,-339.53C617.21,-326.61 314.83,-291.69 65,-244 62.14,-243.45 59.17,-242.83 56.22,-242.17"/>
<polygon fill="midnightblue" stroke="midnightblue" points="736.41,-343.01 746.73,-340.6 737.16,-336.05 736.41,-343.01"/>
</g>
</g>
</svg>
