<?xml version="1.0" encoding="UTF-8" standalone="no"?>
<!DOCTYPE svg PUBLIC "-//W3C//DTD SVG 1.1//EN"
 "http://www.w3.org/Graphics/SVG/1.1/DTD/svg11.dtd">
<!-- Generated by graphviz version 2.43.0 (0)
 -->
<!-- Title: syncprims&#45;pmsm.h Pages: 1 -->
<svg width="110pt" height="140pt"
 viewBox="0.00 0.00 110.00 140.00" xmlns="http://www.w3.org/2000/svg" xmlns:xlink="http://www.w3.org/1999/xlink">
<g id="graph0" class="graph" transform="scale(1 1) rotate(0) translate(4 136)">
<title>syncprims&#45;pmsm.h</title>
<polygon fill="white" stroke="transparent" points="-4,4 -4,-136 106,-136 106,4 -4,4"/>
<!-- Node1 -->
<g id="node1" class="node">
<title>Node1</title>
<g id="a_node1"><a xlink:title="This file contains implementations of reader&#45;writer locking primitive using other primitives,...">
<polygon fill="#bfbfbf" stroke="black" points="0,-112.5 0,-131.5 102,-131.5 102,-112.5 0,-112.5"/>
<text text-anchor="middle" x="51" y="-119.5" font-family="'Souce Sans Pro', Roboto, FreeSans, sans-serif" font-size="10.00">syncprims&#45;pmsm.h</text>
</a>
</g>
</g>
<!-- Node2 -->
<g id="node2" class="node">
<title>Node2</title>
<g id="a_node2"><a xlink:href="syncprims-cxx11_8h.html" target="_top" xlink:title="This file contains implementations of synchronization primitives using the C++11 API.">
<polygon fill="white" stroke="black" points="1,-56.5 1,-75.5 101,-75.5 101,-56.5 1,-56.5"/>
<text text-anchor="middle" x="51" y="-63.5" font-family="'Souce Sans Pro', Roboto, FreeSans, sans-serif" font-size="10.00">syncprims&#45;cxx11.h</text>
</a>
</g>
</g>
<!-- Node1&#45;&gt;Node2 -->
<g id="edge1" class="edge">
<title>Node1&#45;&gt;Node2</title>
<path fill="none" stroke="midnightblue" d="M51,-101.8C51,-92.91 51,-82.78 51,-75.75"/>
<polygon fill="midnightblue" stroke="midnightblue" points="47.5,-102.08 51,-112.08 54.5,-102.08 47.5,-102.08"/>
</g>
<!-- Node3 -->
<g id="node3" class="node">
<title>Node3</title>
<g id="a_node3"><a xlink:href="syncprims-impl_8h.html" target="_top" xlink:title=" ">
<polygon fill="white" stroke="black" points="5,-0.5 5,-19.5 97,-19.5 97,-0.5 5,-0.5"/>
<text text-anchor="middle" x="51" y="-7.5" font-family="'Souce Sans Pro', Roboto, FreeSans, sans-serif" font-size="10.00">syncprims&#45;impl.h</text>
</a>
</g>
</g>
<!-- Node2&#45;&gt;Node3 -->
<g id="edge2" class="edge">
<title>Node2&#45;&gt;Node3</title>
<path fill="none" stroke="midnightblue" d="M51,-45.8C51,-36.91 51,-26.78 51,-19.75"/>
<polygon fill="midnightblue" stroke="midnightblue" points="47.5,-46.08 51,-56.08 54.5,-46.08 47.5,-46.08"/>
</g>
</g>
</svg>
