<?xml version="1.0" encoding="UTF-8" standalone="no"?>
<!DOCTYPE svg PUBLIC "-//W3C//DTD SVG 1.1//EN"
 "http://www.w3.org/Graphics/SVG/1.1/DTD/svg11.dtd">
<!-- Generated by graphviz version 2.43.0 (0)
 -->
<!-- Title: syncprims&#45;impl.h Pages: 1 -->
<svg width="657pt" height="229pt"
 viewBox="0.00 0.00 657.00 229.00" xmlns="http://www.w3.org/2000/svg" xmlns:xlink="http://www.w3.org/1999/xlink">
<g id="graph0" class="graph" transform="scale(1 1) rotate(0) translate(4 225)">
<title>syncprims&#45;impl.h</title>
<polygon fill="white" stroke="transparent" points="-4,4 -4,-225 653,-225 653,4 -4,4"/>
<!-- Node1 -->
<g id="node1" class="node">
<title>Node1</title>
<g id="a_node1"><a xlink:title=" ">
<polygon fill="#bfbfbf" stroke="black" points="321,-201.5 321,-220.5 413,-220.5 413,-201.5 321,-201.5"/>
<text text-anchor="middle" x="367" y="-208.5" font-family="'Souce Sans Pro', Roboto, FreeSans, sans-serif" font-size="10.00">syncprims&#45;impl.h</text>
</a>
</g>
</g>
<!-- Node2 -->
<g id="node2" class="node">
<title>Node2</title>
<g id="a_node2"><a xlink:href="config_8hxx.html" target="_top" xlink:title=" ">
<polygon fill="white" stroke="black" points="82.5,-73 82.5,-92 191.5,-92 191.5,-73 82.5,-73"/>
<text text-anchor="middle" x="137" y="-80" font-family="'Souce Sans Pro', Roboto, FreeSans, sans-serif" font-size="10.00">log4cplus/config.hxx</text>
</a>
</g>
</g>
<!-- Node1&#45;&gt;Node2 -->
<g id="edge1" class="edge">
<title>Node1&#45;&gt;Node2</title>
<path fill="none" stroke="midnightblue" d="M320.75,-204.21C270.46,-197.08 194.26,-183.6 172,-165 152.92,-149.06 143.99,-120.82 139.99,-102.13"/>
<polygon fill="midnightblue" stroke="midnightblue" points="143.41,-101.34 138.13,-92.16 136.52,-102.63 143.41,-101.34"/>
</g>
<!-- Node5 -->
<g id="node5" class="node">
<title>Node5</title>
<g id="a_node5"><a xlink:title=" ">
<polygon fill="white" stroke="#bfbfbf" points="395.5,-140 395.5,-159 454.5,-159 454.5,-140 395.5,-140"/>
<text text-anchor="middle" x="425" y="-147" font-family="'Souce Sans Pro', Roboto, FreeSans, sans-serif" font-size="10.00">stdexcept</text>
</a>
</g>
</g>
<!-- Node1&#45;&gt;Node5 -->
<g id="edge4" class="edge">
<title>Node1&#45;&gt;Node5</title>
<path fill="none" stroke="midnightblue" d="M375.31,-201.48C384.18,-192.37 398.45,-177.74 409.42,-166.48"/>
<polygon fill="midnightblue" stroke="midnightblue" points="412.23,-168.61 416.71,-159.01 407.22,-163.73 412.23,-168.61"/>
</g>
<!-- Node6 -->
<g id="node6" class="node">
<title>Node6</title>
<g id="a_node6"><a xlink:href="syncprims_8h.html" target="_top" xlink:title=" ">
<polygon fill="white" stroke="black" points="190.5,-140 190.5,-159 339.5,-159 339.5,-140 190.5,-140"/>
<text text-anchor="middle" x="265" y="-147" font-family="'Souce Sans Pro', Roboto, FreeSans, sans-serif" font-size="10.00">log4cplus/thread/syncprims.h</text>
</a>
</g>
</g>
<!-- Node1&#45;&gt;Node6 -->
<g id="edge5" class="edge">
<title>Node1&#45;&gt;Node6</title>
<path fill="none" stroke="midnightblue" d="M352.39,-201.48C335.65,-191.71 308,-175.58 288.28,-164.08"/>
<polygon fill="midnightblue" stroke="midnightblue" points="289.99,-161.02 279.59,-159.01 286.46,-167.07 289.99,-161.02"/>
</g>
<!-- Node7 -->
<g id="node7" class="node">
<title>Node7</title>
<g id="a_node7"><a xlink:title=" ">
<polygon fill="white" stroke="#bfbfbf" points="221,-73 221,-92 265,-92 265,-73 221,-73"/>
<text text-anchor="middle" x="243" y="-80" font-family="'Souce Sans Pro', Roboto, FreeSans, sans-serif" font-size="10.00">mutex</text>
</a>
</g>
</g>
<!-- Node1&#45;&gt;Node7 -->
<g id="edge9" class="edge">
<title>Node1&#45;&gt;Node7</title>
<path fill="none" stroke="midnightblue" d="M320.97,-205.32C271.64,-199.23 198.1,-186.74 181,-165 162.59,-141.61 194.79,-113.95 219.26,-97.61"/>
<polygon fill="midnightblue" stroke="midnightblue" points="221.29,-100.47 227.83,-92.14 217.52,-94.58 221.29,-100.47"/>
</g>
<!-- Node8 -->
<g id="node8" class="node">
<title>Node8</title>
<g id="a_node8"><a xlink:title=" ">
<polygon fill="white" stroke="#bfbfbf" points="301,-73 301,-92 397,-92 397,-73 301,-73"/>
<text text-anchor="middle" x="349" y="-80" font-family="'Souce Sans Pro', Roboto, FreeSans, sans-serif" font-size="10.00">condition_variable</text>
</a>
</g>
</g>
<!-- Node1&#45;&gt;Node8 -->
<g id="edge11" class="edge">
<title>Node1&#45;&gt;Node8</title>
<path fill="none" stroke="midnightblue" d="M365.76,-201.31C362.87,-180.99 355.62,-130.05 351.67,-102.28"/>
<polygon fill="midnightblue" stroke="midnightblue" points="355.12,-101.66 350.25,-92.26 348.19,-102.65 355.12,-101.66"/>
</g>
<!-- Node9 -->
<g id="node9" class="node">
<title>Node9</title>
<g id="a_node9"><a xlink:title=" ">
<polygon fill="white" stroke="#bfbfbf" points="473,-140 473,-159 517,-159 517,-140 473,-140"/>
<text text-anchor="middle" x="495" y="-147" font-family="'Souce Sans Pro', Roboto, FreeSans, sans-serif" font-size="10.00">thread</text>
</a>
</g>
</g>
<!-- Node1&#45;&gt;Node9 -->
<g id="edge10" class="edge">
<title>Node1&#45;&gt;Node9</title>
<path fill="none" stroke="midnightblue" d="M385.34,-201.48C406.82,-191.49 442.62,-174.85 467.45,-163.31"/>
<polygon fill="midnightblue" stroke="midnightblue" points="469.1,-166.4 476.69,-159.01 466.15,-160.05 469.1,-166.4"/>
</g>
<!-- Node10 -->
<g id="node10" class="node">
<title>Node10</title>
<g id="a_node10"><a xlink:href="syncprims-cxx11_8h.html" target="_top" xlink:title="This file contains implementations of synchronization primitives using the C++11 API.">
<polygon fill="white" stroke="black" points="535,-134.5 535,-164.5 649,-164.5 649,-134.5 535,-134.5"/>
<text text-anchor="start" x="543" y="-152.5" font-family="'Souce Sans Pro', Roboto, FreeSans, sans-serif" font-size="10.00">log4cplus/thread/impl</text>
<text text-anchor="middle" x="592" y="-141.5" font-family="'Souce Sans Pro', Roboto, FreeSans, sans-serif" font-size="10.00">/syncprims&#45;cxx11.h</text>
</a>
</g>
</g>
<!-- Node1&#45;&gt;Node10 -->
<g id="edge12" class="edge">
<title>Node1&#45;&gt;Node10</title>
<path fill="none" stroke="midnightblue" d="M399.24,-201.48C432.99,-192.55 486.84,-178.31 529.06,-167.14"/>
<polygon fill="midnightblue" stroke="midnightblue" points="530.2,-170.46 538.97,-164.52 528.41,-163.7 530.2,-170.46"/>
</g>
<!-- Node3 -->
<g id="node3" class="node">
<title>Node3</title>
<g id="a_node3"><a xlink:href="win32_8h.html" target="_top" xlink:title=" ">
<polygon fill="white" stroke="black" points="0,-6 0,-25 128,-25 128,-6 0,-6"/>
<text text-anchor="middle" x="64" y="-13" font-family="'Souce Sans Pro', Roboto, FreeSans, sans-serif" font-size="10.00">log4cplus/config/win32.h</text>
</a>
</g>
</g>
<!-- Node2&#45;&gt;Node3 -->
<g id="edge2" class="edge">
<title>Node2&#45;&gt;Node3</title>
<path fill="none" stroke="midnightblue" d="M127.15,-72.73C115.44,-62.31 95.68,-44.71 81.38,-31.97"/>
<polygon fill="midnightblue" stroke="midnightblue" points="83.49,-29.16 73.69,-25.13 78.83,-34.39 83.49,-29.16"/>
</g>
<!-- Node4 -->
<g id="node4" class="node">
<title>Node4</title>
<g id="a_node4"><a xlink:href="thread-config_8h.html" target="_top" xlink:title=" ">
<polygon fill="white" stroke="black" points="146,-0.5 146,-30.5 274,-30.5 274,-0.5 146,-0.5"/>
<text text-anchor="start" x="154" y="-18.5" font-family="'Souce Sans Pro', Roboto, FreeSans, sans-serif" font-size="10.00">log4cplus/helpers/thread</text>
<text text-anchor="middle" x="210" y="-7.5" font-family="'Souce Sans Pro', Roboto, FreeSans, sans-serif" font-size="10.00">&#45;config.h</text>
</a>
</g>
</g>
<!-- Node2&#45;&gt;Node4 -->
<g id="edge3" class="edge">
<title>Node2&#45;&gt;Node4</title>
<path fill="none" stroke="midnightblue" d="M146.85,-72.73C157,-63.7 173.19,-49.27 186.64,-37.3"/>
<polygon fill="midnightblue" stroke="midnightblue" points="189.04,-39.85 194.18,-30.59 184.38,-34.63 189.04,-39.85"/>
</g>
<!-- Node6&#45;&gt;Node2 -->
<g id="edge6" class="edge">
<title>Node6&#45;&gt;Node2</title>
<path fill="none" stroke="midnightblue" d="M248,-139.87C226.29,-128.84 188.51,-109.66 163.13,-96.77"/>
<polygon fill="midnightblue" stroke="midnightblue" points="164.57,-93.57 154.07,-92.17 161.4,-99.82 164.57,-93.57"/>
</g>
<!-- Node6&#45;&gt;Node7 -->
<g id="edge7" class="edge">
<title>Node6&#45;&gt;Node7</title>
<path fill="none" stroke="midnightblue" d="M262.03,-139.73C258.77,-130.09 253.42,-114.3 249.23,-101.91"/>
<polygon fill="midnightblue" stroke="midnightblue" points="252.44,-100.48 245.92,-92.13 245.81,-102.72 252.44,-100.48"/>
</g>
<!-- Node6&#45;&gt;Node8 -->
<g id="edge8" class="edge">
<title>Node6&#45;&gt;Node8</title>
<path fill="none" stroke="midnightblue" d="M276.33,-139.73C290.06,-129.11 313.4,-111.05 329.92,-98.26"/>
<polygon fill="midnightblue" stroke="midnightblue" points="332.08,-101.02 337.85,-92.13 327.8,-95.48 332.08,-101.02"/>
</g>
<!-- Node11 -->
<g id="node11" class="node">
<title>Node11</title>
<g id="a_node11"><a xlink:href="syncprims-pmsm_8h.html" target="_top" xlink:title="This file contains implementations of reader&#45;writer locking primitive using other primitives,...">
<polygon fill="white" stroke="black" points="535,-67.5 535,-97.5 649,-97.5 649,-67.5 535,-67.5"/>
<text text-anchor="start" x="543" y="-85.5" font-family="'Souce Sans Pro', Roboto, FreeSans, sans-serif" font-size="10.00">log4cplus/thread/impl</text>
<text text-anchor="middle" x="592" y="-74.5" font-family="'Souce Sans Pro', Roboto, FreeSans, sans-serif" font-size="10.00">/syncprims&#45;pmsm.h</text>
</a>
</g>
</g>
<!-- Node10&#45;&gt;Node11 -->
<g id="edge13" class="edge">
<title>Node10&#45;&gt;Node11</title>
<path fill="none" stroke="midnightblue" d="M592,-134.4C592,-126.64 592,-116.81 592,-107.86"/>
<polygon fill="midnightblue" stroke="midnightblue" points="595.5,-107.58 592,-97.58 588.5,-107.58 595.5,-107.58"/>
</g>
</g>
</svg>
