<?xml version="1.0" encoding="UTF-8" standalone="no"?>
<!DOCTYPE svg PUBLIC "-//W3C//DTD SVG 1.1//EN"
 "http://www.w3.org/Graphics/SVG/1.1/DTD/svg11.dtd">
<!-- Generated by graphviz version 2.43.0 (0)
 -->
<!-- Title: syslogappender.h Pages: 1 -->
<svg width="1660pt" height="431pt"
 viewBox="0.00 0.00 1660.44 431.00" xmlns="http://www.w3.org/2000/svg" xmlns:xlink="http://www.w3.org/1999/xlink">
<g id="graph0" class="graph" transform="scale(1 1) rotate(0) translate(4 427)">
<title>syslogappender.h</title>
<polygon fill="white" stroke="transparent" points="-4,4 -4,-427 1656.44,-427 1656.44,4 -4,4"/>
<!-- Node1 -->
<g id="node1" class="node">
<title>Node1</title>
<g id="a_node1"><a xlink:title=" ">
<polygon fill="#bfbfbf" stroke="black" points="768,-403.5 768,-422.5 862,-422.5 862,-403.5 768,-403.5"/>
<text text-anchor="middle" x="815" y="-410.5" font-family="'Souce Sans Pro', Roboto, FreeSans, sans-serif" font-size="10.00">syslogappender.h</text>
</a>
</g>
</g>
<!-- Node2 -->
<g id="node2" class="node">
<title>Node2</title>
<g id="a_node2"><a xlink:href="config_8hxx.html" target="_top" xlink:title=" ">
<polygon fill="white" stroke="black" points="842.5,-67.5 842.5,-86.5 951.5,-86.5 951.5,-67.5 842.5,-67.5"/>
<text text-anchor="middle" x="897" y="-74.5" font-family="'Souce Sans Pro', Roboto, FreeSans, sans-serif" font-size="10.00">log4cplus/config.hxx</text>
</a>
</g>
</g>
<!-- Node1&#45;&gt;Node2 -->
<g id="edge1" class="edge">
<title>Node1&#45;&gt;Node2</title>
<path fill="none" stroke="midnightblue" d="M767.96,-410.64C594.4,-405.01 0,-380.04 0,-302 0,-302 0,-302 0,-188 0,-135.36 49.01,-139.49 99,-123 234.53,-78.29 667.45,-76.38 832.36,-77.35"/>
<polygon fill="midnightblue" stroke="midnightblue" points="832.34,-80.85 842.37,-77.42 832.39,-73.85 832.34,-80.85"/>
</g>
<!-- Node5 -->
<g id="node5" class="node">
<title>Node5</title>
<g id="a_node5"><a xlink:href="appender_8h.html" target="_top" xlink:title=" ">
<polygon fill="white" stroke="black" points="557,-347.5 557,-366.5 669,-366.5 669,-347.5 557,-347.5"/>
<text text-anchor="middle" x="613" y="-354.5" font-family="'Souce Sans Pro', Roboto, FreeSans, sans-serif" font-size="10.00">log4cplus/appender.h</text>
</a>
</g>
</g>
<!-- Node1&#45;&gt;Node5 -->
<g id="edge4" class="edge">
<title>Node1&#45;&gt;Node5</title>
<path fill="none" stroke="midnightblue" d="M782.99,-403.44C748.27,-394.16 692.71,-379.31 654.62,-369.13"/>
<polygon fill="midnightblue" stroke="midnightblue" points="655.42,-365.72 644.86,-366.52 653.61,-372.48 655.42,-365.72"/>
</g>
<!-- Node29 -->
<g id="node29" class="node">
<title>Node29</title>
<g id="a_node29"><a xlink:href="helpers_2socket_8h.html" target="_top" xlink:title=" ">
<polygon fill="white" stroke="black" points="1424,-291.5 1424,-310.5 1562,-310.5 1562,-291.5 1424,-291.5"/>
<text text-anchor="middle" x="1493" y="-298.5" font-family="'Souce Sans Pro', Roboto, FreeSans, sans-serif" font-size="10.00">log4cplus/helpers/socket.h</text>
</a>
</g>
</g>
<!-- Node1&#45;&gt;Node29 -->
<g id="edge53" class="edge">
<title>Node1&#45;&gt;Node29</title>
<path fill="none" stroke="midnightblue" d="M862.09,-410.7C978.59,-407.09 1277.73,-395.27 1373,-367 1410.53,-355.86 1449.61,-332.02 1472.6,-316.52"/>
<polygon fill="midnightblue" stroke="midnightblue" points="1474.88,-319.19 1481.14,-310.64 1470.91,-313.43 1474.88,-319.19"/>
</g>
<!-- Node32 -->
<g id="node32" class="node">
<title>Node32</title>
<g id="a_node32"><a xlink:href="connectorthread_8h.html" target="_top" xlink:title=" ">
<polygon fill="white" stroke="black" points="1182.5,-347.5 1182.5,-366.5 1363.5,-366.5 1363.5,-347.5 1182.5,-347.5"/>
<text text-anchor="middle" x="1273" y="-354.5" font-family="'Souce Sans Pro', Roboto, FreeSans, sans-serif" font-size="10.00">log4cplus/helpers/connectorthread.h</text>
</a>
</g>
</g>
<!-- Node1&#45;&gt;Node32 -->
<g id="edge60" class="edge">
<title>Node1&#45;&gt;Node32</title>
<path fill="none" stroke="midnightblue" d="M862.29,-406.42C939.77,-397.29 1094.7,-379.02 1190.56,-367.72"/>
<polygon fill="midnightblue" stroke="midnightblue" points="1190.98,-371.19 1200.5,-366.55 1190.16,-364.24 1190.98,-371.19"/>
</g>
<!-- Node3 -->
<g id="node3" class="node">
<title>Node3</title>
<g id="a_node3"><a xlink:href="win32_8h.html" target="_top" xlink:title=" ">
<polygon fill="white" stroke="black" points="760,-6 760,-25 888,-25 888,-6 760,-6"/>
<text text-anchor="middle" x="824" y="-13" font-family="'Souce Sans Pro', Roboto, FreeSans, sans-serif" font-size="10.00">log4cplus/config/win32.h</text>
</a>
</g>
</g>
<!-- Node2&#45;&gt;Node3 -->
<g id="edge2" class="edge">
<title>Node2&#45;&gt;Node3</title>
<path fill="none" stroke="midnightblue" d="M886.54,-67.48C875.05,-58.11 856.37,-42.88 842.41,-31.51"/>
<polygon fill="midnightblue" stroke="midnightblue" points="844.4,-28.61 834.44,-25.01 839.98,-34.04 844.4,-28.61"/>
</g>
<!-- Node4 -->
<g id="node4" class="node">
<title>Node4</title>
<g id="a_node4"><a xlink:href="thread-config_8h.html" target="_top" xlink:title=" ">
<polygon fill="white" stroke="black" points="906,-0.5 906,-30.5 1034,-30.5 1034,-0.5 906,-0.5"/>
<text text-anchor="start" x="914" y="-18.5" font-family="'Souce Sans Pro', Roboto, FreeSans, sans-serif" font-size="10.00">log4cplus/helpers/thread</text>
<text text-anchor="middle" x="970" y="-7.5" font-family="'Souce Sans Pro', Roboto, FreeSans, sans-serif" font-size="10.00">&#45;config.h</text>
</a>
</g>
</g>
<!-- Node2&#45;&gt;Node4 -->
<g id="edge3" class="edge">
<title>Node2&#45;&gt;Node4</title>
<path fill="none" stroke="midnightblue" d="M907.46,-67.48C917.16,-59.57 931.99,-47.48 944.77,-37.07"/>
<polygon fill="midnightblue" stroke="midnightblue" points="947.26,-39.55 952.8,-30.52 942.83,-34.13 947.26,-39.55"/>
</g>
<!-- Node5&#45;&gt;Node2 -->
<g id="edge5" class="edge">
<title>Node5&#45;&gt;Node2</title>
<path fill="none" stroke="midnightblue" d="M669.31,-353.94C789.95,-348.17 1066.69,-327.17 1119,-255 1148.65,-214.09 988.49,-125.22 923.47,-91.42"/>
<polygon fill="midnightblue" stroke="midnightblue" points="924.74,-88.13 914.25,-86.66 921.53,-94.35 924.74,-88.13"/>
</g>
<!-- Node6 -->
<g id="node6" class="node">
<title>Node6</title>
<g id="a_node6"><a xlink:href="layout_8h.html" target="_top" xlink:title=" ">
<polygon fill="white" stroke="black" points="767,-291.5 767,-310.5 865,-310.5 865,-291.5 767,-291.5"/>
<text text-anchor="middle" x="816" y="-298.5" font-family="'Souce Sans Pro', Roboto, FreeSans, sans-serif" font-size="10.00">log4cplus/layout.h</text>
</a>
</g>
</g>
<!-- Node5&#45;&gt;Node6 -->
<g id="edge6" class="edge">
<title>Node5&#45;&gt;Node6</title>
<path fill="none" stroke="midnightblue" d="M645.17,-347.44C680.06,-338.16 735.89,-323.31 774.17,-313.13"/>
<polygon fill="midnightblue" stroke="midnightblue" points="775.22,-316.47 783.98,-310.52 773.42,-309.7 775.22,-316.47"/>
</g>
<!-- Node7 -->
<g id="node7" class="node">
<title>Node7</title>
<g id="a_node7"><a xlink:href="loglevel_8h.html" target="_top" xlink:title="This header defines the LogLevel type.">
<polygon fill="white" stroke="black" points="896,-235.5 896,-254.5 1000,-254.5 1000,-235.5 896,-235.5"/>
<text text-anchor="middle" x="948" y="-242.5" font-family="'Souce Sans Pro', Roboto, FreeSans, sans-serif" font-size="10.00">log4cplus/loglevel.h</text>
</a>
</g>
</g>
<!-- Node5&#45;&gt;Node7 -->
<g id="edge29" class="edge">
<title>Node5&#45;&gt;Node7</title>
<path fill="none" stroke="midnightblue" d="M669.12,-355.06C723.86,-352.18 808.24,-342.42 874,-311 898.21,-299.43 920.55,-277.62 934.21,-262.47"/>
<polygon fill="midnightblue" stroke="midnightblue" points="936.93,-264.68 940.86,-254.85 931.65,-260.08 936.93,-264.68"/>
</g>
<!-- Node9 -->
<g id="node9" class="node">
<title>Node9</title>
<g id="a_node9"><a xlink:href="tstring_8h.html" target="_top" xlink:title=" ">
<polygon fill="white" stroke="black" points="1126.5,-179.5 1126.5,-198.5 1225.5,-198.5 1225.5,-179.5 1126.5,-179.5"/>
<text text-anchor="middle" x="1176" y="-186.5" font-family="'Souce Sans Pro', Roboto, FreeSans, sans-serif" font-size="10.00">log4cplus/tstring.h</text>
</a>
</g>
</g>
<!-- Node5&#45;&gt;Node9 -->
<g id="edge30" class="edge">
<title>Node5&#45;&gt;Node9</title>
<path fill="none" stroke="midnightblue" d="M669.14,-355.08C799.93,-352.39 1116.55,-342.67 1152,-311 1180.79,-285.28 1180.93,-235.79 1178.5,-208.76"/>
<polygon fill="midnightblue" stroke="midnightblue" points="1181.96,-208.23 1177.38,-198.68 1175.01,-209.01 1181.96,-208.23"/>
</g>
<!-- Node18 -->
<g id="node18" class="node">
<title>Node18</title>
<g id="a_node18"><a xlink:title=" ">
<polygon fill="white" stroke="#bfbfbf" points="1056,-235.5 1056,-254.5 1110,-254.5 1110,-235.5 1056,-235.5"/>
<text text-anchor="middle" x="1083" y="-242.5" font-family="'Souce Sans Pro', Roboto, FreeSans, sans-serif" font-size="10.00">memory</text>
</a>
</g>
</g>
<!-- Node5&#45;&gt;Node18 -->
<g id="edge49" class="edge">
<title>Node5&#45;&gt;Node18</title>
<path fill="none" stroke="midnightblue" d="M669.04,-350.47C727.73,-343.94 822.29,-331.32 902,-311 956.86,-297.01 1018.45,-273.04 1053.79,-258.44"/>
<polygon fill="midnightblue" stroke="midnightblue" points="1055.15,-261.67 1063.03,-254.59 1052.46,-255.21 1055.15,-261.67"/>
</g>
<!-- Node19 -->
<g id="node19" class="node">
<title>Node19</title>
<g id="a_node19"><a xlink:href="pointer_8h.html" target="_top" xlink:title=" ">
<polygon fill="white" stroke="black" points="142,-235.5 142,-254.5 280,-254.5 280,-235.5 142,-235.5"/>
<text text-anchor="middle" x="211" y="-242.5" font-family="'Souce Sans Pro', Roboto, FreeSans, sans-serif" font-size="10.00">log4cplus/helpers/pointer.h</text>
</a>
</g>
</g>
<!-- Node5&#45;&gt;Node19 -->
<g id="edge31" class="edge">
<title>Node5&#45;&gt;Node19</title>
<path fill="none" stroke="midnightblue" d="M557.88,-347.42C511.98,-339.7 445.13,-327.1 388,-311 335.09,-296.09 275.43,-272.77 240.65,-258.49"/>
<polygon fill="midnightblue" stroke="midnightblue" points="241.68,-255.13 231.1,-254.55 239.01,-261.6 241.68,-255.13"/>
</g>
<!-- Node21 -->
<g id="node21" class="node">
<title>Node21</title>
<g id="a_node21"><a xlink:title=" ">
<polygon fill="white" stroke="#bfbfbf" points="108,-123.5 108,-142.5 152,-142.5 152,-123.5 108,-123.5"/>
<text text-anchor="middle" x="130" y="-130.5" font-family="'Souce Sans Pro', Roboto, FreeSans, sans-serif" font-size="10.00">mutex</text>
</a>
</g>
</g>
<!-- Node5&#45;&gt;Node21 -->
<g id="edge50" class="edge">
<title>Node5&#45;&gt;Node21</title>
<path fill="none" stroke="midnightblue" d="M556.68,-355.58C449.49,-353.95 220.62,-346.32 151,-311 99.07,-284.65 92.02,-256.53 83,-199 81.62,-190.22 79.51,-187.17 83,-179 88.15,-166.95 98.28,-156.58 107.83,-148.84"/>
<polygon fill="midnightblue" stroke="midnightblue" points="110.04,-151.55 115.92,-142.74 105.83,-145.96 110.04,-151.55"/>
</g>
<!-- Node22 -->
<g id="node22" class="node">
<title>Node22</title>
<g id="a_node22"><a xlink:title=" ">
<polygon fill="white" stroke="#bfbfbf" points="257,-123.5 257,-142.5 353,-142.5 353,-123.5 257,-123.5"/>
<text text-anchor="middle" x="305" y="-130.5" font-family="'Souce Sans Pro', Roboto, FreeSans, sans-serif" font-size="10.00">condition_variable</text>
</a>
</g>
</g>
<!-- Node5&#45;&gt;Node22 -->
<g id="edge52" class="edge">
<title>Node5&#45;&gt;Node22</title>
<path fill="none" stroke="midnightblue" d="M556.61,-353.9C457.36,-349.56 255.81,-337.68 191,-311 154.16,-295.83 145.6,-286.34 121,-255 98.96,-226.92 72.56,-206.76 95,-179 113.76,-155.8 191.13,-144.02 246.51,-138.45"/>
<polygon fill="midnightblue" stroke="midnightblue" points="246.95,-141.92 256.57,-137.48 246.28,-134.95 246.95,-141.92"/>
</g>
<!-- Node25 -->
<g id="node25" class="node">
<title>Node25</title>
<g id="a_node25"><a xlink:title=" ">
<polygon fill="white" stroke="#bfbfbf" points="104.5,-179.5 104.5,-198.5 151.5,-198.5 151.5,-179.5 104.5,-179.5"/>
<text text-anchor="middle" x="128" y="-186.5" font-family="'Souce Sans Pro', Roboto, FreeSans, sans-serif" font-size="10.00">atomic</text>
</a>
</g>
</g>
<!-- Node5&#45;&gt;Node25 -->
<g id="edge51" class="edge">
<title>Node5&#45;&gt;Node25</title>
<path fill="none" stroke="midnightblue" d="M556.69,-352.76C441.61,-344.83 185.87,-320.12 133,-255 122.64,-242.24 122.43,-223.05 124.18,-208.82"/>
<polygon fill="midnightblue" stroke="midnightblue" points="127.67,-209.13 125.85,-198.7 120.77,-207.99 127.67,-209.13"/>
</g>
<!-- Node26 -->
<g id="node26" class="node">
<title>Node26</title>
<g id="a_node26"><a xlink:href="filter_8h.html" target="_top" xlink:title="This header defines Filter and all of it&#39;s subclasses.">
<polygon fill="white" stroke="black" points="420.5,-291.5 420.5,-310.5 527.5,-310.5 527.5,-291.5 420.5,-291.5"/>
<text text-anchor="middle" x="474" y="-298.5" font-family="'Souce Sans Pro', Roboto, FreeSans, sans-serif" font-size="10.00">log4cplus/spi/filter.h</text>
</a>
</g>
</g>
<!-- Node5&#45;&gt;Node26 -->
<g id="edge40" class="edge">
<title>Node5&#45;&gt;Node26</title>
<path fill="none" stroke="midnightblue" d="M590.98,-347.44C567.9,-338.48 531.44,-324.31 505.36,-314.18"/>
<polygon fill="midnightblue" stroke="midnightblue" points="506.51,-310.88 495.92,-310.52 503.98,-317.4 506.51,-310.88"/>
</g>
<!-- Node28 -->
<g id="node28" class="node">
<title>Node28</title>
<g id="a_node28"><a xlink:href="lockfile_8h.html" target="_top" xlink:title=" ">
<polygon fill="white" stroke="black" points="298,-235.5 298,-254.5 438,-254.5 438,-235.5 298,-235.5"/>
<text text-anchor="middle" x="368" y="-242.5" font-family="'Souce Sans Pro', Roboto, FreeSans, sans-serif" font-size="10.00">log4cplus/helpers/lockfile.h</text>
</a>
</g>
</g>
<!-- Node5&#45;&gt;Node28 -->
<g id="edge45" class="edge">
<title>Node5&#45;&gt;Node28</title>
<path fill="none" stroke="midnightblue" d="M556.65,-354.65C513.43,-351.12 454.06,-340.64 411,-311 394.16,-299.41 382.21,-278.85 375.26,-263.95"/>
<polygon fill="midnightblue" stroke="midnightblue" points="378.44,-262.49 371.24,-254.72 372.02,-265.29 378.44,-262.49"/>
</g>
<!-- Node6&#45;&gt;Node2 -->
<g id="edge7" class="edge">
<title>Node6&#45;&gt;Node2</title>
<path fill="none" stroke="midnightblue" d="M766.98,-295.08C735.64,-289.71 695.81,-278.48 668,-255 640.49,-231.78 627.51,-212.76 640,-179 667.33,-105.12 765.45,-84.47 832.23,-79.16"/>
<polygon fill="midnightblue" stroke="midnightblue" points="832.53,-82.64 842.26,-78.45 832.04,-75.66 832.53,-82.64"/>
</g>
<!-- Node6&#45;&gt;Node7 -->
<g id="edge8" class="edge">
<title>Node6&#45;&gt;Node7</title>
<path fill="none" stroke="midnightblue" d="M836.92,-291.44C858.74,-282.52 893.15,-268.44 917.89,-258.32"/>
<polygon fill="midnightblue" stroke="midnightblue" points="919.25,-261.54 927.18,-254.52 916.6,-255.06 919.25,-261.54"/>
</g>
<!-- Node8 -->
<g id="node8" class="node">
<title>Node8</title>
<g id="a_node8"><a xlink:title=" ">
<polygon fill="white" stroke="#bfbfbf" points="937,-179.5 937,-198.5 981,-198.5 981,-179.5 937,-179.5"/>
<text text-anchor="middle" x="959" y="-186.5" font-family="'Souce Sans Pro', Roboto, FreeSans, sans-serif" font-size="10.00">vector</text>
</a>
</g>
</g>
<!-- Node6&#45;&gt;Node8 -->
<g id="edge27" class="edge">
<title>Node6&#45;&gt;Node8</title>
<path fill="none" stroke="midnightblue" d="M824.3,-291.46C837.12,-278.49 862.79,-253.41 887,-235 902.21,-223.44 920.47,-212.05 934.8,-203.62"/>
<polygon fill="midnightblue" stroke="midnightblue" points="936.68,-206.58 943.58,-198.54 933.17,-200.52 936.68,-206.58"/>
</g>
<!-- Node6&#45;&gt;Node9 -->
<g id="edge21" class="edge">
<title>Node6&#45;&gt;Node9</title>
<path fill="none" stroke="midnightblue" d="M865.4,-292.08C905.01,-284.88 961.61,-272.66 1009,-255 1026.88,-248.33 1029.5,-242.61 1047,-235 1076.86,-222.02 1111.79,-210.02 1137.77,-201.68"/>
<polygon fill="midnightblue" stroke="midnightblue" points="1139.13,-204.92 1147.61,-198.56 1137.02,-198.25 1139.13,-204.92"/>
</g>
<!-- Node13 -->
<g id="node13" class="node">
<title>Node13</title>
<g id="a_node13"><a xlink:href="streams_8h.html" target="_top" xlink:title=" ">
<polygon fill="white" stroke="black" points="648.5,-179.5 648.5,-198.5 755.5,-198.5 755.5,-179.5 648.5,-179.5"/>
<text text-anchor="middle" x="702" y="-186.5" font-family="'Souce Sans Pro', Roboto, FreeSans, sans-serif" font-size="10.00">log4cplus/streams.h</text>
</a>
</g>
</g>
<!-- Node6&#45;&gt;Node13 -->
<g id="edge17" class="edge">
<title>Node6&#45;&gt;Node13</title>
<path fill="none" stroke="midnightblue" d="M766.73,-298.04C735.53,-293.93 697.37,-283 677,-255 666.28,-240.26 676.85,-220.35 687.35,-206.46"/>
<polygon fill="midnightblue" stroke="midnightblue" points="690.08,-208.65 693.7,-198.69 684.66,-204.23 690.08,-208.65"/>
</g>
<!-- Node15 -->
<g id="node15" class="node">
<title>Node15</title>
<g id="a_node15"><a xlink:href="timehelper_8h.html" target="_top" xlink:title=" ">
<polygon fill="white" stroke="black" points="686,-235.5 686,-254.5 840,-254.5 840,-235.5 686,-235.5"/>
<text text-anchor="middle" x="763" y="-242.5" font-family="'Souce Sans Pro', Roboto, FreeSans, sans-serif" font-size="10.00">log4cplus/helpers/timehelper.h</text>
</a>
</g>
</g>
<!-- Node6&#45;&gt;Node15 -->
<g id="edge22" class="edge">
<title>Node6&#45;&gt;Node15</title>
<path fill="none" stroke="midnightblue" d="M807.25,-291.08C799.53,-283.22 788.1,-271.57 778.78,-262.08"/>
<polygon fill="midnightblue" stroke="midnightblue" points="781.09,-259.44 771.59,-254.75 776.1,-264.34 781.09,-259.44"/>
</g>
<!-- Node6&#45;&gt;Node18 -->
<g id="edge28" class="edge">
<title>Node6&#45;&gt;Node18</title>
<path fill="none" stroke="midnightblue" d="M860.22,-291.46C905.82,-282.59 978.96,-268.19 1042,-255 1043.24,-254.74 1044.51,-254.47 1045.79,-254.2"/>
<polygon fill="midnightblue" stroke="midnightblue" points="1046.63,-257.6 1055.67,-252.08 1045.16,-250.76 1046.63,-257.6"/>
</g>
<!-- Node7&#45;&gt;Node2 -->
<g id="edge9" class="edge">
<title>Node7&#45;&gt;Node2</title>
<path fill="none" stroke="midnightblue" d="M960.26,-235.38C975.52,-223.49 998.6,-201.03 990,-179 975.48,-141.79 940.11,-110.01 917.42,-92.5"/>
<polygon fill="midnightblue" stroke="midnightblue" points="919.51,-89.7 909.41,-86.51 915.32,-95.3 919.51,-89.7"/>
</g>
<!-- Node7&#45;&gt;Node8 -->
<g id="edge10" class="edge">
<title>Node7&#45;&gt;Node8</title>
<path fill="none" stroke="midnightblue" d="M949.82,-235.08C951.27,-227.93 953.37,-217.64 955.19,-208.69"/>
<polygon fill="midnightblue" stroke="midnightblue" points="958.65,-209.25 957.22,-198.75 951.79,-207.85 958.65,-209.25"/>
</g>
<!-- Node7&#45;&gt;Node9 -->
<g id="edge11" class="edge">
<title>Node7&#45;&gt;Node9</title>
<path fill="none" stroke="midnightblue" d="M984.13,-235.44C1023.65,-226.08 1087.1,-211.06 1130.11,-200.87"/>
<polygon fill="midnightblue" stroke="midnightblue" points="1131.12,-204.23 1140.04,-198.52 1129.5,-197.42 1131.12,-204.23"/>
</g>
<!-- Node9&#45;&gt;Node2 -->
<g id="edge12" class="edge">
<title>Node9&#45;&gt;Node2</title>
<path fill="none" stroke="midnightblue" d="M1179.58,-179.22C1184.55,-165.47 1191.48,-138.81 1178,-123 1150.79,-91.09 1036.1,-81.71 961.91,-79.01"/>
<polygon fill="midnightblue" stroke="midnightblue" points="961.84,-75.51 951.73,-78.68 961.61,-82.51 961.84,-75.51"/>
</g>
<!-- Node10 -->
<g id="node10" class="node">
<title>Node10</title>
<g id="a_node10"><a xlink:title=" ">
<polygon fill="white" stroke="#bfbfbf" points="1225.5,-123.5 1225.5,-142.5 1266.5,-142.5 1266.5,-123.5 1225.5,-123.5"/>
<text text-anchor="middle" x="1246" y="-130.5" font-family="'Souce Sans Pro', Roboto, FreeSans, sans-serif" font-size="10.00">string</text>
</a>
</g>
</g>
<!-- Node9&#45;&gt;Node10 -->
<g id="edge13" class="edge">
<title>Node9&#45;&gt;Node10</title>
<path fill="none" stroke="midnightblue" d="M1187.25,-179.32C1197.8,-171.18 1213.8,-158.84 1226.44,-149.09"/>
<polygon fill="midnightblue" stroke="midnightblue" points="1228.77,-151.71 1234.55,-142.83 1224.49,-146.17 1228.77,-151.71"/>
</g>
<!-- Node11 -->
<g id="node11" class="node">
<title>Node11</title>
<g id="a_node11"><a xlink:href="tchar_8h.html" target="_top" xlink:title=" ">
<polygon fill="white" stroke="black" points="1075.5,-123.5 1075.5,-142.5 1168.5,-142.5 1168.5,-123.5 1075.5,-123.5"/>
<text text-anchor="middle" x="1122" y="-130.5" font-family="'Souce Sans Pro', Roboto, FreeSans, sans-serif" font-size="10.00">log4cplus/tchar.h</text>
</a>
</g>
</g>
<!-- Node9&#45;&gt;Node11 -->
<g id="edge14" class="edge">
<title>Node9&#45;&gt;Node11</title>
<path fill="none" stroke="midnightblue" d="M1167.08,-179.08C1159.22,-171.22 1147.57,-159.57 1138.08,-150.08"/>
<polygon fill="midnightblue" stroke="midnightblue" points="1140.3,-147.35 1130.75,-142.75 1135.35,-152.3 1140.3,-147.35"/>
</g>
<!-- Node11&#45;&gt;Node2 -->
<g id="edge15" class="edge">
<title>Node11&#45;&gt;Node2</title>
<path fill="none" stroke="midnightblue" d="M1086.35,-123.44C1047.34,-114.08 984.73,-99.06 942.28,-88.87"/>
<polygon fill="midnightblue" stroke="midnightblue" points="943.03,-85.45 932.49,-86.52 941.39,-92.25 943.03,-85.45"/>
</g>
<!-- Node12 -->
<g id="node12" class="node">
<title>Node12</title>
<g id="a_node12"><a xlink:title=" ">
<polygon fill="white" stroke="#bfbfbf" points="1096.5,-67.5 1096.5,-86.5 1147.5,-86.5 1147.5,-67.5 1096.5,-67.5"/>
<text text-anchor="middle" x="1122" y="-74.5" font-family="'Souce Sans Pro', Roboto, FreeSans, sans-serif" font-size="10.00">cstddef</text>
</a>
</g>
</g>
<!-- Node11&#45;&gt;Node12 -->
<g id="edge16" class="edge">
<title>Node11&#45;&gt;Node12</title>
<path fill="none" stroke="midnightblue" d="M1122,-123.08C1122,-116.01 1122,-105.86 1122,-96.99"/>
<polygon fill="midnightblue" stroke="midnightblue" points="1125.5,-96.75 1122,-86.75 1118.5,-96.75 1125.5,-96.75"/>
</g>
<!-- Node13&#45;&gt;Node2 -->
<g id="edge18" class="edge">
<title>Node13&#45;&gt;Node2</title>
<path fill="none" stroke="midnightblue" d="M698.54,-179.32C693.75,-165.72 687.05,-139.24 700,-123 716.4,-102.43 781.22,-90.51 832.08,-84.17"/>
<polygon fill="midnightblue" stroke="midnightblue" points="832.54,-87.65 842.05,-82.98 831.7,-80.7 832.54,-87.65"/>
</g>
<!-- Node13&#45;&gt;Node11 -->
<g id="edge19" class="edge">
<title>Node13&#45;&gt;Node11</title>
<path fill="none" stroke="midnightblue" d="M755.62,-181.11C835.25,-170.87 984.1,-151.73 1065.42,-141.27"/>
<polygon fill="midnightblue" stroke="midnightblue" points="1066,-144.73 1075.47,-139.98 1065.1,-137.79 1066,-144.73"/>
</g>
<!-- Node14 -->
<g id="node14" class="node">
<title>Node14</title>
<g id="a_node14"><a xlink:title=" ">
<polygon fill="white" stroke="#bfbfbf" points="708.5,-123.5 708.5,-142.5 755.5,-142.5 755.5,-123.5 708.5,-123.5"/>
<text text-anchor="middle" x="732" y="-130.5" font-family="'Souce Sans Pro', Roboto, FreeSans, sans-serif" font-size="10.00">iosfwd</text>
</a>
</g>
</g>
<!-- Node13&#45;&gt;Node14 -->
<g id="edge20" class="edge">
<title>Node13&#45;&gt;Node14</title>
<path fill="none" stroke="midnightblue" d="M706.95,-179.08C711.1,-171.61 717.15,-160.72 722.27,-151.52"/>
<polygon fill="midnightblue" stroke="midnightblue" points="725.34,-153.19 727.14,-142.75 719.22,-149.79 725.34,-153.19"/>
</g>
<!-- Node15&#45;&gt;Node2 -->
<g id="edge23" class="edge">
<title>Node15&#45;&gt;Node2</title>
<path fill="none" stroke="midnightblue" d="M767.83,-235.26C775.06,-222.46 789.4,-198.07 804,-179 828.58,-146.9 861.42,-112.99 880.78,-93.77"/>
<polygon fill="midnightblue" stroke="midnightblue" points="883.29,-96.21 887.96,-86.7 878.37,-91.22 883.29,-96.21"/>
</g>
<!-- Node15&#45;&gt;Node9 -->
<g id="edge24" class="edge">
<title>Node15&#45;&gt;Node9</title>
<path fill="none" stroke="midnightblue" d="M828.44,-235.44C907.68,-225.08 1039.98,-207.78 1116.47,-197.78"/>
<polygon fill="midnightblue" stroke="midnightblue" points="1116.96,-201.25 1126.42,-196.48 1116.05,-194.31 1116.96,-201.25"/>
</g>
<!-- Node16 -->
<g id="node16" class="node">
<title>Node16</title>
<g id="a_node16"><a xlink:title=" ">
<polygon fill="white" stroke="#bfbfbf" points="812.5,-179.5 812.5,-198.5 853.5,-198.5 853.5,-179.5 812.5,-179.5"/>
<text text-anchor="middle" x="833" y="-186.5" font-family="'Souce Sans Pro', Roboto, FreeSans, sans-serif" font-size="10.00">ctime</text>
</a>
</g>
</g>
<!-- Node15&#45;&gt;Node16 -->
<g id="edge25" class="edge">
<title>Node15&#45;&gt;Node16</title>
<path fill="none" stroke="midnightblue" d="M774.25,-235.32C784.8,-227.18 800.8,-214.84 813.44,-205.09"/>
<polygon fill="midnightblue" stroke="midnightblue" points="815.77,-207.71 821.55,-198.83 811.49,-202.17 815.77,-207.71"/>
</g>
<!-- Node17 -->
<g id="node17" class="node">
<title>Node17</title>
<g id="a_node17"><a xlink:title=" ">
<polygon fill="white" stroke="#bfbfbf" points="871.5,-179.5 871.5,-198.5 918.5,-198.5 918.5,-179.5 871.5,-179.5"/>
<text text-anchor="middle" x="895" y="-186.5" font-family="'Souce Sans Pro', Roboto, FreeSans, sans-serif" font-size="10.00">chrono</text>
</a>
</g>
</g>
<!-- Node15&#45;&gt;Node17 -->
<g id="edge26" class="edge">
<title>Node15&#45;&gt;Node17</title>
<path fill="none" stroke="midnightblue" d="M783.92,-235.44C805.74,-226.52 840.15,-212.44 864.89,-202.32"/>
<polygon fill="midnightblue" stroke="midnightblue" points="866.25,-205.54 874.18,-198.52 863.6,-199.06 866.25,-205.54"/>
</g>
<!-- Node19&#45;&gt;Node2 -->
<g id="edge32" class="edge">
<title>Node19&#45;&gt;Node2</title>
<path fill="none" stroke="midnightblue" d="M272.81,-235.46C344.38,-225.23 454.73,-208.33 472,-199 512.67,-177.04 501.85,-144.05 543,-123 592.07,-97.89 743.98,-85.95 832.04,-81"/>
<polygon fill="midnightblue" stroke="midnightblue" points="832.39,-84.48 842.19,-80.44 832.01,-77.49 832.39,-84.48"/>
</g>
<!-- Node20 -->
<g id="node20" class="node">
<title>Node20</title>
<g id="a_node20"><a xlink:href="syncprims_8h.html" target="_top" xlink:title=" ">
<polygon fill="white" stroke="black" points="314.5,-179.5 314.5,-198.5 463.5,-198.5 463.5,-179.5 314.5,-179.5"/>
<text text-anchor="middle" x="389" y="-186.5" font-family="'Souce Sans Pro', Roboto, FreeSans, sans-serif" font-size="10.00">log4cplus/thread/syncprims.h</text>
</a>
</g>
</g>
<!-- Node19&#45;&gt;Node20 -->
<g id="edge33" class="edge">
<title>Node19&#45;&gt;Node20</title>
<path fill="none" stroke="midnightblue" d="M239.2,-235.44C269.41,-226.28 317.51,-211.69 351.03,-201.52"/>
<polygon fill="midnightblue" stroke="midnightblue" points="352.37,-204.77 360.93,-198.52 350.34,-198.07 352.37,-204.77"/>
</g>
<!-- Node23 -->
<g id="node23" class="node">
<title>Node23</title>
<g id="a_node23"><a xlink:title=" ">
<polygon fill="white" stroke="#bfbfbf" points="169.5,-179.5 169.5,-198.5 228.5,-198.5 228.5,-179.5 169.5,-179.5"/>
<text text-anchor="middle" x="199" y="-186.5" font-family="'Souce Sans Pro', Roboto, FreeSans, sans-serif" font-size="10.00">algorithm</text>
</a>
</g>
</g>
<!-- Node19&#45;&gt;Node23 -->
<g id="edge37" class="edge">
<title>Node19&#45;&gt;Node23</title>
<path fill="none" stroke="midnightblue" d="M209.02,-235.08C207.43,-227.93 205.14,-217.64 203.15,-208.69"/>
<polygon fill="midnightblue" stroke="midnightblue" points="206.53,-207.75 200.94,-198.75 199.7,-209.27 206.53,-207.75"/>
</g>
<!-- Node24 -->
<g id="node24" class="node">
<title>Node24</title>
<g id="a_node24"><a xlink:title=" ">
<polygon fill="white" stroke="#bfbfbf" points="247,-179.5 247,-198.5 297,-198.5 297,-179.5 247,-179.5"/>
<text text-anchor="middle" x="272" y="-186.5" font-family="'Souce Sans Pro', Roboto, FreeSans, sans-serif" font-size="10.00">cassert</text>
</a>
</g>
</g>
<!-- Node19&#45;&gt;Node24 -->
<g id="edge38" class="edge">
<title>Node19&#45;&gt;Node24</title>
<path fill="none" stroke="midnightblue" d="M220.8,-235.32C229.82,-227.34 243.41,-215.31 254.32,-205.65"/>
<polygon fill="midnightblue" stroke="midnightblue" points="256.85,-208.08 262.02,-198.83 252.21,-202.84 256.85,-208.08"/>
</g>
<!-- Node19&#45;&gt;Node25 -->
<g id="edge39" class="edge">
<title>Node19&#45;&gt;Node25</title>
<path fill="none" stroke="midnightblue" d="M197.66,-235.32C184.84,-226.98 165.22,-214.21 150.06,-204.35"/>
<polygon fill="midnightblue" stroke="midnightblue" points="151.59,-201.17 141.3,-198.65 147.78,-207.04 151.59,-201.17"/>
</g>
<!-- Node20&#45;&gt;Node2 -->
<g id="edge34" class="edge">
<title>Node20&#45;&gt;Node2</title>
<path fill="none" stroke="midnightblue" d="M397.75,-179.43C413.11,-164.96 446.61,-136 481,-123 543.66,-99.31 731.92,-86.4 832.31,-81.03"/>
<polygon fill="midnightblue" stroke="midnightblue" points="832.53,-84.53 842.33,-80.51 832.16,-77.53 832.53,-84.53"/>
</g>
<!-- Node20&#45;&gt;Node21 -->
<g id="edge35" class="edge">
<title>Node20&#45;&gt;Node21</title>
<path fill="none" stroke="midnightblue" d="M347.96,-179.44C296.38,-168.69 208.92,-150.45 162,-140.67"/>
<polygon fill="midnightblue" stroke="midnightblue" points="162.59,-137.22 152.09,-138.6 161.16,-144.07 162.59,-137.22"/>
</g>
<!-- Node20&#45;&gt;Node22 -->
<g id="edge36" class="edge">
<title>Node20&#45;&gt;Node22</title>
<path fill="none" stroke="midnightblue" d="M375.5,-179.32C362.4,-170.9 342.29,-157.97 326.89,-148.07"/>
<polygon fill="midnightblue" stroke="midnightblue" points="328.77,-145.12 318.46,-142.65 324.98,-151.01 328.77,-145.12"/>
</g>
<!-- Node26&#45;&gt;Node2 -->
<g id="edge41" class="edge">
<title>Node26&#45;&gt;Node2</title>
<path fill="none" stroke="midnightblue" d="M484.32,-291.21C494.73,-282.26 511.21,-267.91 525,-255 585.81,-198.09 584.28,-161.74 658,-123 712.37,-94.43 782.13,-83.8 832.23,-79.94"/>
<polygon fill="midnightblue" stroke="midnightblue" points="832.56,-83.43 842.29,-79.24 832.07,-76.44 832.56,-83.43"/>
</g>
<!-- Node26&#45;&gt;Node7 -->
<g id="edge44" class="edge">
<title>Node26&#45;&gt;Node7</title>
<path fill="none" stroke="midnightblue" d="M527.91,-293.86C616.44,-283.77 792.09,-263.76 885.76,-253.09"/>
<polygon fill="midnightblue" stroke="midnightblue" points="886.41,-256.54 895.94,-251.93 885.61,-249.58 886.41,-256.54"/>
</g>
<!-- Node26&#45;&gt;Node19 -->
<g id="edge43" class="edge">
<title>Node26&#45;&gt;Node19</title>
<path fill="none" stroke="midnightblue" d="M432.33,-291.44C386.25,-281.98 312,-266.74 262.37,-256.55"/>
<polygon fill="midnightblue" stroke="midnightblue" points="262.98,-253.1 252.48,-254.52 261.57,-259.96 262.98,-253.1"/>
</g>
<!-- Node27 -->
<g id="node27" class="node">
<title>Node27</title>
<g id="a_node27"><a xlink:title=" ">
<polygon fill="white" stroke="#bfbfbf" points="456,-235.5 456,-254.5 516,-254.5 516,-235.5 456,-235.5"/>
<text text-anchor="middle" x="486" y="-242.5" font-family="'Souce Sans Pro', Roboto, FreeSans, sans-serif" font-size="10.00">functional</text>
</a>
</g>
</g>
<!-- Node26&#45;&gt;Node27 -->
<g id="edge42" class="edge">
<title>Node26&#45;&gt;Node27</title>
<path fill="none" stroke="midnightblue" d="M475.98,-291.08C477.57,-283.93 479.86,-273.64 481.85,-264.69"/>
<polygon fill="midnightblue" stroke="midnightblue" points="485.3,-265.27 484.06,-254.75 478.47,-263.75 485.3,-265.27"/>
</g>
<!-- Node28&#45;&gt;Node2 -->
<g id="edge46" class="edge">
<title>Node28&#45;&gt;Node2</title>
<path fill="none" stroke="midnightblue" d="M418.95,-235.47C447.34,-228.91 482.25,-217.69 509,-199 544.05,-174.51 530.96,-144.37 568,-123 611.74,-97.76 749.69,-85.99 832.43,-81.08"/>
<polygon fill="midnightblue" stroke="midnightblue" points="832.7,-84.57 842.48,-80.5 832.3,-77.58 832.7,-84.57"/>
</g>
<!-- Node28&#45;&gt;Node9 -->
<g id="edge47" class="edge">
<title>Node28&#45;&gt;Node9</title>
<path fill="none" stroke="midnightblue" d="M438.19,-235.81C441.17,-235.53 444.11,-235.25 447,-235 576.45,-223.64 965.89,-201.63 1116.05,-193.3"/>
<polygon fill="midnightblue" stroke="midnightblue" points="1116.65,-196.77 1126.44,-192.72 1116.26,-189.78 1116.65,-196.77"/>
</g>
<!-- Node28&#45;&gt;Node20 -->
<g id="edge48" class="edge">
<title>Node28&#45;&gt;Node20</title>
<path fill="none" stroke="midnightblue" d="M371.47,-235.08C374.31,-227.77 378.43,-217.18 381.96,-208.1"/>
<polygon fill="midnightblue" stroke="midnightblue" points="385.23,-209.34 385.6,-198.75 378.71,-206.8 385.23,-209.34"/>
</g>
<!-- Node29&#45;&gt;Node2 -->
<g id="edge54" class="edge">
<title>Node29&#45;&gt;Node2</title>
<path fill="none" stroke="midnightblue" d="M1562.23,-294.89C1613.04,-288.07 1669.57,-272.13 1647,-235 1590.83,-142.6 1534.89,-153.01 1431,-123 1386.95,-110.28 1094.15,-90.47 961.77,-82.03"/>
<polygon fill="midnightblue" stroke="midnightblue" points="961.96,-78.53 951.76,-81.39 961.52,-85.52 961.96,-78.53"/>
</g>
<!-- Node29&#45;&gt;Node9 -->
<g id="edge56" class="edge">
<title>Node29&#45;&gt;Node9</title>
<path fill="none" stroke="midnightblue" d="M1468.39,-291.46C1412.33,-272.01 1275.01,-224.36 1210.51,-201.98"/>
<polygon fill="midnightblue" stroke="midnightblue" points="1211.41,-198.58 1200.81,-198.61 1209.11,-205.2 1211.41,-198.58"/>
</g>
<!-- Node30 -->
<g id="node30" class="node">
<title>Node30</title>
<g id="a_node30"><a xlink:title=" ">
<polygon fill="white" stroke="#bfbfbf" points="1600,-235.5 1600,-254.5 1638,-254.5 1638,-235.5 1600,-235.5"/>
<text text-anchor="middle" x="1619" y="-242.5" font-family="'Souce Sans Pro', Roboto, FreeSans, sans-serif" font-size="10.00">array</text>
</a>
</g>
</g>
<!-- Node29&#45;&gt;Node30 -->
<g id="edge55" class="edge">
<title>Node29&#45;&gt;Node30</title>
<path fill="none" stroke="midnightblue" d="M1512.97,-291.44C1533.85,-282.49 1566.83,-268.36 1590.46,-258.23"/>
<polygon fill="midnightblue" stroke="midnightblue" points="1592.14,-261.32 1599.95,-254.16 1589.38,-254.89 1592.14,-261.32"/>
</g>
<!-- Node31 -->
<g id="node31" class="node">
<title>Node31</title>
<g id="a_node31"><a xlink:href="socketbuffer_8h.html" target="_top" xlink:title=" ">
<polygon fill="white" stroke="black" points="1418,-235.5 1418,-254.5 1582,-254.5 1582,-235.5 1418,-235.5"/>
<text text-anchor="middle" x="1500" y="-242.5" font-family="'Souce Sans Pro', Roboto, FreeSans, sans-serif" font-size="10.00">log4cplus/helpers/socketbuffer.h</text>
</a>
</g>
</g>
<!-- Node29&#45;&gt;Node31 -->
<g id="edge57" class="edge">
<title>Node29&#45;&gt;Node31</title>
<path fill="none" stroke="midnightblue" d="M1494.16,-291.08C1495.08,-283.93 1496.42,-273.64 1497.58,-264.69"/>
<polygon fill="midnightblue" stroke="midnightblue" points="1501.05,-265.12 1498.87,-254.75 1494.11,-264.22 1501.05,-265.12"/>
</g>
<!-- Node31&#45;&gt;Node2 -->
<g id="edge58" class="edge">
<title>Node31&#45;&gt;Node2</title>
<path fill="none" stroke="midnightblue" d="M1496.17,-235.29C1485.47,-212.19 1452.86,-149.33 1404,-123 1365.94,-102.49 1089.79,-87.04 961.8,-80.9"/>
<polygon fill="midnightblue" stroke="midnightblue" points="961.89,-77.4 951.74,-80.42 961.56,-84.39 961.89,-77.4"/>
</g>
<!-- Node31&#45;&gt;Node9 -->
<g id="edge59" class="edge">
<title>Node31&#45;&gt;Node9</title>
<path fill="none" stroke="midnightblue" d="M1448.66,-235.44C1390.69,-225.78 1296.49,-210.08 1235.39,-199.9"/>
<polygon fill="midnightblue" stroke="midnightblue" points="1235.94,-196.44 1225.5,-198.25 1234.79,-203.35 1235.94,-196.44"/>
</g>
<!-- Node32&#45;&gt;Node2 -->
<g id="edge61" class="edge">
<title>Node32&#45;&gt;Node2</title>
<path fill="none" stroke="midnightblue" d="M1294.46,-347.46C1328.24,-332.43 1390,-297.86 1390,-246 1390,-246 1390,-246 1390,-188 1390,-137.57 1344.18,-140.81 1297,-123 1237.25,-100.44 1058.91,-87.16 961.78,-81.4"/>
<polygon fill="midnightblue" stroke="midnightblue" points="961.97,-77.91 951.78,-80.82 961.56,-84.89 961.97,-77.91"/>
</g>
<!-- Node32&#45;&gt;Node20 -->
<g id="edge62" class="edge">
<title>Node32&#45;&gt;Node20</title>
<path fill="none" stroke="midnightblue" d="M1182.32,-354.35C1078.73,-351.03 904.62,-341.03 758,-311 749.49,-309.26 515.14,-231.77 424.4,-201.73"/>
<polygon fill="midnightblue" stroke="midnightblue" points="425.42,-198.38 414.82,-198.56 423.22,-205.02 425.42,-198.38"/>
</g>
<!-- Node32&#45;&gt;Node29 -->
<g id="edge69" class="edge">
<title>Node32&#45;&gt;Node29</title>
<path fill="none" stroke="midnightblue" d="M1307.86,-347.44C1345.92,-338.1 1406.96,-323.12 1448.46,-312.93"/>
<polygon fill="midnightblue" stroke="midnightblue" points="1449.43,-316.3 1458.3,-310.52 1447.76,-309.5 1449.43,-316.3"/>
</g>
<!-- Node33 -->
<g id="node33" class="node">
<title>Node33</title>
<g id="a_node33"><a xlink:href="threads_8h.html" target="_top" xlink:title=" ">
<polygon fill="white" stroke="black" points="1204.5,-291.5 1204.5,-310.5 1341.5,-310.5 1341.5,-291.5 1204.5,-291.5"/>
<text text-anchor="middle" x="1273" y="-298.5" font-family="'Souce Sans Pro', Roboto, FreeSans, sans-serif" font-size="10.00">log4cplus/thread/threads.h</text>
</a>
</g>
</g>
<!-- Node32&#45;&gt;Node33 -->
<g id="edge63" class="edge">
<title>Node32&#45;&gt;Node33</title>
<path fill="none" stroke="midnightblue" d="M1273,-347.08C1273,-340.01 1273,-329.86 1273,-320.99"/>
<polygon fill="midnightblue" stroke="midnightblue" points="1276.5,-320.75 1273,-310.75 1269.5,-320.75 1276.5,-320.75"/>
</g>
<!-- Node33&#45;&gt;Node2 -->
<g id="edge64" class="edge">
<title>Node33&#45;&gt;Node2</title>
<path fill="none" stroke="midnightblue" d="M1278.64,-291.48C1284.05,-282.74 1291.86,-268.56 1295,-255 1305.2,-210.89 1307.14,-152.63 1276,-123 1253.69,-101.78 1063.99,-87.65 961.73,-81.5"/>
<polygon fill="midnightblue" stroke="midnightblue" points="961.7,-78 951.51,-80.9 961.29,-84.98 961.7,-78"/>
</g>
<!-- Node33&#45;&gt;Node9 -->
<g id="edge67" class="edge">
<title>Node33&#45;&gt;Node9</title>
<path fill="none" stroke="midnightblue" d="M1265.31,-291.39C1257.25,-282.34 1244.21,-267.69 1233,-255 1218.5,-238.57 1201.99,-219.74 1190.49,-206.59"/>
<polygon fill="midnightblue" stroke="midnightblue" points="1192.94,-204.07 1183.73,-198.85 1187.67,-208.68 1192.94,-204.07"/>
</g>
<!-- Node33&#45;&gt;Node18 -->
<g id="edge65" class="edge">
<title>Node33&#45;&gt;Node18</title>
<path fill="none" stroke="midnightblue" d="M1242.89,-291.44C1209.66,-282 1156.12,-266.78 1120.26,-256.59"/>
<polygon fill="midnightblue" stroke="midnightblue" points="1120.77,-253.1 1110.19,-253.73 1118.86,-259.83 1120.77,-253.1"/>
</g>
<!-- Node33&#45;&gt;Node19 -->
<g id="edge68" class="edge">
<title>Node33&#45;&gt;Node19</title>
<path fill="none" stroke="midnightblue" d="M1204.3,-298.49C1045.38,-294.65 639.87,-282.83 290.36,-255.05"/>
<polygon fill="midnightblue" stroke="midnightblue" points="290.55,-251.56 280.3,-254.25 289.99,-258.53 290.55,-251.56"/>
</g>
<!-- Node34 -->
<g id="node34" class="node">
<title>Node34</title>
<g id="a_node34"><a xlink:title=" ">
<polygon fill="white" stroke="#bfbfbf" points="1242,-235.5 1242,-254.5 1286,-254.5 1286,-235.5 1242,-235.5"/>
<text text-anchor="middle" x="1264" y="-242.5" font-family="'Souce Sans Pro', Roboto, FreeSans, sans-serif" font-size="10.00">thread</text>
</a>
</g>
</g>
<!-- Node33&#45;&gt;Node34 -->
<g id="edge66" class="edge">
<title>Node33&#45;&gt;Node34</title>
<path fill="none" stroke="midnightblue" d="M1271.51,-291.08C1270.32,-283.93 1268.61,-273.64 1267.12,-264.69"/>
<polygon fill="midnightblue" stroke="midnightblue" points="1270.55,-264.04 1265.46,-254.75 1263.65,-265.19 1270.55,-264.04"/>
</g>
</g>
</svg>
