<?xml version="1.0" encoding="UTF-8" standalone="no"?>
<!DOCTYPE svg PUBLIC "-//W3C//DTD SVG 1.1//EN"
 "http://www.w3.org/Graphics/SVG/1.1/DTD/svg11.dtd">
<!-- Generated by graphviz version 2.43.0 (0)
 -->
<!-- Title: timehelper.h Pages: 1 -->
<svg width="1814pt" height="420pt"
 viewBox="0.00 0.00 1814.00 420.00" xmlns="http://www.w3.org/2000/svg" xmlns:xlink="http://www.w3.org/1999/xlink">
<g id="graph0" class="graph" transform="scale(1 1) rotate(0) translate(4 416)">
<title>timehelper.h</title>
<polygon fill="white" stroke="transparent" points="-4,4 -4,-416 1810,-416 1810,4 -4,4"/>
<!-- Node1 -->
<g id="node1" class="node">
<title>Node1</title>
<g id="a_node1"><a xlink:title=" ">
<polygon fill="#bfbfbf" stroke="black" points="1606.5,-392.5 1606.5,-411.5 1677.5,-411.5 1677.5,-392.5 1606.5,-392.5"/>
<text text-anchor="middle" x="1642" y="-399.5" font-family="'Souce Sans Pro', Roboto, FreeSans, sans-serif" font-size="10.00">timehelper.h</text>
</a>
</g>
</g>
<!-- Node2 -->
<g id="node2" class="node">
<title>Node2</title>
<g id="a_node2"><a xlink:href="fileappender_8h.html" target="_top" xlink:title=" ">
<polygon fill="white" stroke="black" points="1728,-224.5 1728,-243.5 1806,-243.5 1806,-224.5 1728,-224.5"/>
<text text-anchor="middle" x="1767" y="-231.5" font-family="'Souce Sans Pro', Roboto, FreeSans, sans-serif" font-size="10.00">fileappender.h</text>
</a>
</g>
</g>
<!-- Node1&#45;&gt;Node2 -->
<g id="edge1" class="edge">
<title>Node1&#45;&gt;Node2</title>
<path fill="none" stroke="midnightblue" d="M1654.98,-383.76C1681.46,-348.59 1740.89,-269.68 1760.55,-243.57"/>
<polygon fill="midnightblue" stroke="midnightblue" points="1651.94,-381.98 1648.72,-392.08 1657.53,-386.19 1651.94,-381.98"/>
</g>
<!-- Node4 -->
<g id="node4" class="node">
<title>Node4</title>
<g id="a_node4"><a xlink:href="fileinfo_8h.html" target="_top" xlink:title=" ">
<polygon fill="white" stroke="black" points="1586.5,-336.5 1586.5,-355.5 1641.5,-355.5 1641.5,-336.5 1586.5,-336.5"/>
<text text-anchor="middle" x="1614" y="-343.5" font-family="'Souce Sans Pro', Roboto, FreeSans, sans-serif" font-size="10.00">fileinfo.h</text>
</a>
</g>
</g>
<!-- Node1&#45;&gt;Node4 -->
<g id="edge3" class="edge">
<title>Node1&#45;&gt;Node4</title>
<path fill="none" stroke="midnightblue" d="M1632.66,-382.98C1627.91,-373.82 1622.34,-363.09 1618.54,-355.75"/>
<polygon fill="midnightblue" stroke="midnightblue" points="1629.67,-384.82 1637.38,-392.08 1635.88,-381.59 1629.67,-384.82"/>
</g>
<!-- Node5 -->
<g id="node5" class="node">
<title>Node5</title>
<g id="a_node5"><a xlink:href="layout_8h.html" target="_top" xlink:title=" ">
<polygon fill="white" stroke="black" points="515.5,-336.5 515.5,-355.5 566.5,-355.5 566.5,-336.5 515.5,-336.5"/>
<text text-anchor="middle" x="541" y="-343.5" font-family="'Souce Sans Pro', Roboto, FreeSans, sans-serif" font-size="10.00">layout.h</text>
</a>
</g>
</g>
<!-- Node1&#45;&gt;Node5 -->
<g id="edge4" class="edge">
<title>Node1&#45;&gt;Node5</title>
<path fill="none" stroke="midnightblue" d="M1596.29,-398.76C1409.96,-389.62 710.75,-355.33 566.95,-348.27"/>
<polygon fill="midnightblue" stroke="midnightblue" points="1596.15,-402.26 1606.3,-399.25 1596.49,-395.26 1596.15,-402.26"/>
</g>
<!-- Node32 -->
<g id="node32" class="node">
<title>Node32</title>
<g id="a_node32"><a xlink:href="loggingevent_8h.html" target="_top" xlink:title=" ">
<polygon fill="white" stroke="black" points="1630,-224.5 1630,-243.5 1710,-243.5 1710,-224.5 1630,-224.5"/>
<text text-anchor="middle" x="1670" y="-231.5" font-family="'Souce Sans Pro', Roboto, FreeSans, sans-serif" font-size="10.00">loggingevent.h</text>
</a>
</g>
</g>
<!-- Node1&#45;&gt;Node32 -->
<g id="edge50" class="edge">
<title>Node1&#45;&gt;Node32</title>
<path fill="none" stroke="midnightblue" d="M1645.88,-382.51C1647.54,-374.39 1649.44,-364.74 1651,-356 1658.51,-313.92 1665.94,-263.33 1668.79,-243.53"/>
<polygon fill="midnightblue" stroke="midnightblue" points="1642.43,-381.89 1643.83,-392.39 1649.29,-383.31 1642.43,-381.89"/>
</g>
<!-- Node3 -->
<g id="node3" class="node">
<title>Node3</title>
<g id="a_node3"><a xlink:href="log4cplus_8h.html" target="_top" xlink:title=" ">
<polygon fill="white" stroke="black" points="733.5,-0.5 733.5,-19.5 800.5,-19.5 800.5,-0.5 733.5,-0.5"/>
<text text-anchor="middle" x="767" y="-7.5" font-family="'Souce Sans Pro', Roboto, FreeSans, sans-serif" font-size="10.00">log4cplus.h</text>
</a>
</g>
</g>
<!-- Node2&#45;&gt;Node3 -->
<g id="edge2" class="edge">
<title>Node2&#45;&gt;Node3</title>
<path fill="none" stroke="midnightblue" d="M1769.54,-214.41C1772.04,-187.59 1772.12,-138.36 1744,-112 1673.64,-46.03 964.53,-17.78 800.67,-12.1"/>
<polygon fill="midnightblue" stroke="midnightblue" points="1766.05,-214.07 1768.39,-224.4 1773.01,-214.87 1766.05,-214.07"/>
</g>
<!-- Node5&#45;&gt;Node3 -->
<g id="edge48" class="edge">
<title>Node5&#45;&gt;Node3</title>
<path fill="none" stroke="midnightblue" d="M505.07,-345.37C384.21,-345.64 0,-338.39 0,-235 0,-235 0,-235 0,-121 0,-74.84 37.98,-72.73 81,-56 201.97,-8.96 612.57,-9.37 733.33,-10.56"/>
<polygon fill="midnightblue" stroke="midnightblue" points="505.29,-348.86 515.27,-345.32 505.26,-341.86 505.29,-348.86"/>
</g>
<!-- Node6 -->
<g id="node6" class="node">
<title>Node6</title>
<g id="a_node6"><a xlink:href="appender_8h.html" target="_top" xlink:title=" ">
<polygon fill="white" stroke="black" points="690.5,-280.5 690.5,-299.5 755.5,-299.5 755.5,-280.5 690.5,-280.5"/>
<text text-anchor="middle" x="723" y="-287.5" font-family="'Souce Sans Pro', Roboto, FreeSans, sans-serif" font-size="10.00">appender.h</text>
</a>
</g>
</g>
<!-- Node5&#45;&gt;Node6 -->
<g id="edge5" class="edge">
<title>Node5&#45;&gt;Node6</title>
<path fill="none" stroke="midnightblue" d="M576.32,-334.52C610.66,-324.33 662.18,-309.04 694.14,-299.56"/>
<polygon fill="midnightblue" stroke="midnightblue" points="575.28,-331.18 566.69,-337.38 577.27,-337.89 575.28,-331.18"/>
</g>
<!-- Node29 -->
<g id="node29" class="node">
<title>Node29</title>
<g id="a_node29"><a xlink:href="factory_8h.html" target="_top" xlink:title=" ">
<polygon fill="white" stroke="black" points="28,-224.5 28,-243.5 84,-243.5 84,-224.5 28,-224.5"/>
<text text-anchor="middle" x="56" y="-231.5" font-family="'Souce Sans Pro', Roboto, FreeSans, sans-serif" font-size="10.00">factory.h</text>
</a>
</g>
</g>
<!-- Node5&#45;&gt;Node29 -->
<g id="edge49" class="edge">
<title>Node5&#45;&gt;Node29</title>
<path fill="none" stroke="midnightblue" d="M505.28,-336.9C412.87,-315.94 167.32,-260.25 84.07,-241.37"/>
<polygon fill="midnightblue" stroke="midnightblue" points="504.74,-340.36 515.27,-339.16 506.29,-333.54 504.74,-340.36"/>
</g>
<!-- Node6&#45;&gt;Node2 -->
<g id="edge15" class="edge">
<title>Node6&#45;&gt;Node2</title>
<path fill="none" stroke="midnightblue" d="M766,-289.2C904.62,-289.41 1352,-286.48 1719,-244 1721.86,-243.67 1724.81,-243.27 1727.78,-242.82"/>
<polygon fill="midnightblue" stroke="midnightblue" points="765.81,-285.7 755.8,-289.18 765.8,-292.7 765.81,-285.7"/>
</g>
<!-- Node6&#45;&gt;Node3 -->
<g id="edge17" class="edge">
<title>Node6&#45;&gt;Node3</title>
<path fill="none" stroke="midnightblue" d="M765.92,-288.83C859.02,-287.76 1076.1,-281.21 1138,-244 1163.78,-228.5 1167.17,-216.75 1176,-188 1189.1,-145.38 1197.69,-96.4 1154,-56 1128.24,-32.18 889.98,-17.41 800.63,-12.67"/>
<polygon fill="midnightblue" stroke="midnightblue" points="765.69,-285.33 755.73,-288.93 765.76,-292.33 765.69,-285.33"/>
</g>
<!-- Node7 -->
<g id="node7" class="node">
<title>Node7</title>
<g id="a_node7"><a xlink:href="asyncappender_8h.html" target="_top" xlink:title=" ">
<polygon fill="white" stroke="black" points="1274.5,-112.5 1274.5,-131.5 1365.5,-131.5 1365.5,-112.5 1274.5,-112.5"/>
<text text-anchor="middle" x="1320" y="-119.5" font-family="'Souce Sans Pro', Roboto, FreeSans, sans-serif" font-size="10.00">asyncappender.h</text>
</a>
</g>
</g>
<!-- Node6&#45;&gt;Node7 -->
<g id="edge6" class="edge">
<title>Node6&#45;&gt;Node7</title>
<path fill="none" stroke="midnightblue" d="M766.18,-289.17C900.14,-289.24 1302,-285.95 1341,-244 1370.76,-211.99 1339.39,-153.66 1325.71,-131.68"/>
<polygon fill="midnightblue" stroke="midnightblue" points="765.91,-285.67 755.9,-289.16 765.9,-292.67 765.91,-285.67"/>
</g>
<!-- Node8 -->
<g id="node8" class="node">
<title>Node8</title>
<g id="a_node8"><a xlink:href="deviceappender_8hxx.html" target="_top" xlink:title=" ">
<polygon fill="white" stroke="black" points="1388,-224.5 1388,-243.5 1492,-243.5 1492,-224.5 1388,-224.5"/>
<text text-anchor="middle" x="1440" y="-231.5" font-family="'Souce Sans Pro', Roboto, FreeSans, sans-serif" font-size="10.00">deviceappender.hxx</text>
</a>
</g>
</g>
<!-- Node6&#45;&gt;Node8 -->
<g id="edge8" class="edge">
<title>Node6&#45;&gt;Node8</title>
<path fill="none" stroke="midnightblue" d="M765.7,-287.03C869.85,-282.02 1145.19,-267.48 1374,-244 1378.49,-243.54 1383.14,-243.01 1387.8,-242.44"/>
<polygon fill="midnightblue" stroke="midnightblue" points="765.4,-283.54 755.58,-287.52 765.74,-290.54 765.4,-283.54"/>
</g>
<!-- Node9 -->
<g id="node9" class="node">
<title>Node9</title>
<g id="a_node9"><a xlink:href="callbackappender_8h.html" target="_top" xlink:title=" ">
<polygon fill="white" stroke="black" points="1510.5,-224.5 1510.5,-243.5 1611.5,-243.5 1611.5,-224.5 1510.5,-224.5"/>
<text text-anchor="middle" x="1561" y="-231.5" font-family="'Souce Sans Pro', Roboto, FreeSans, sans-serif" font-size="10.00">callbackappender.h</text>
</a>
</g>
</g>
<!-- Node6&#45;&gt;Node9 -->
<g id="edge9" class="edge">
<title>Node6&#45;&gt;Node9</title>
<path fill="none" stroke="midnightblue" d="M765.73,-287.9C883.31,-284.56 1221.45,-272.99 1501,-244 1504.04,-243.68 1507.16,-243.33 1510.3,-242.94"/>
<polygon fill="midnightblue" stroke="midnightblue" points="765.6,-284.4 755.7,-288.18 765.79,-291.4 765.6,-284.4"/>
</g>
<!-- Node10 -->
<g id="node10" class="node">
<title>Node10</title>
<g id="a_node10"><a xlink:href="clfsappender_8h.html" target="_top" xlink:title=" ">
<polygon fill="white" stroke="black" points="140,-224.5 140,-243.5 222,-243.5 222,-224.5 140,-224.5"/>
<text text-anchor="middle" x="181" y="-231.5" font-family="'Souce Sans Pro', Roboto, FreeSans, sans-serif" font-size="10.00">clfsappender.h</text>
</a>
</g>
</g>
<!-- Node6&#45;&gt;Node10 -->
<g id="edge10" class="edge">
<title>Node6&#45;&gt;Node10</title>
<path fill="none" stroke="midnightblue" d="M680.41,-286.07C595.61,-280.02 399.72,-264.93 236,-244 231.49,-243.42 226.78,-242.75 222.1,-242.05"/>
<polygon fill="midnightblue" stroke="midnightblue" points="680.21,-289.57 690.43,-286.78 680.7,-282.58 680.21,-289.57"/>
</g>
<!-- Node11 -->
<g id="node11" class="node">
<title>Node11</title>
<g id="a_node11"><a xlink:href="configurator_8h.html" target="_top" xlink:title=" ">
<polygon fill="white" stroke="black" points="503.5,-112.5 503.5,-131.5 580.5,-131.5 580.5,-112.5 503.5,-112.5"/>
<text text-anchor="middle" x="542" y="-119.5" font-family="'Souce Sans Pro', Roboto, FreeSans, sans-serif" font-size="10.00">configurator.h</text>
</a>
</g>
</g>
<!-- Node6&#45;&gt;Node11 -->
<g id="edge11" class="edge">
<title>Node6&#45;&gt;Node11</title>
<path fill="none" stroke="midnightblue" d="M680.14,-287.05C585.84,-282.31 366.97,-268.74 345,-244 339.1,-237.35 340.37,-231.58 345,-224 364.69,-191.78 470.22,-149.52 518.21,-131.61"/>
<polygon fill="midnightblue" stroke="midnightblue" points="680.05,-290.55 690.21,-287.54 680.39,-283.55 680.05,-290.55"/>
</g>
<!-- Node12 -->
<g id="node12" class="node">
<title>Node12</title>
<g id="a_node12"><a xlink:href="consoleappender_8h.html" target="_top" xlink:title=" ">
<polygon fill="white" stroke="black" points="112.5,-56.5 112.5,-75.5 213.5,-75.5 213.5,-56.5 112.5,-56.5"/>
<text text-anchor="middle" x="163" y="-63.5" font-family="'Souce Sans Pro', Roboto, FreeSans, sans-serif" font-size="10.00">consoleappender.h</text>
</a>
</g>
</g>
<!-- Node6&#45;&gt;Node12 -->
<g id="edge13" class="edge">
<title>Node6&#45;&gt;Node12</title>
<path fill="none" stroke="midnightblue" d="M679.91,-289.02C549.89,-288.63 168.14,-284.07 131,-244 85.57,-194.99 138.46,-104.23 157.03,-75.77"/>
<polygon fill="midnightblue" stroke="midnightblue" points="680.26,-292.52 690.26,-289.04 680.27,-285.52 680.26,-292.52"/>
</g>
<!-- Node13 -->
<g id="node13" class="node">
<title>Node13</title>
<g id="a_node13"><a xlink:href="hierarchylocker_8h.html" target="_top" xlink:title=" ">
<polygon fill="white" stroke="black" points="598.5,-112.5 598.5,-131.5 689.5,-131.5 689.5,-112.5 598.5,-112.5"/>
<text text-anchor="middle" x="644" y="-119.5" font-family="'Souce Sans Pro', Roboto, FreeSans, sans-serif" font-size="10.00">hierarchylocker.h</text>
</a>
</g>
</g>
<!-- Node6&#45;&gt;Node13 -->
<g id="edge16" class="edge">
<title>Node6&#45;&gt;Node13</title>
<path fill="none" stroke="midnightblue" d="M718.92,-270.53C715.68,-257.28 710.59,-239.16 704,-224 688.22,-187.72 661.9,-148.42 650.08,-131.52"/>
<polygon fill="midnightblue" stroke="midnightblue" points="715.53,-271.4 721.2,-280.35 722.35,-269.81 715.53,-271.4"/>
</g>
<!-- Node14 -->
<g id="node14" class="node">
<title>Node14</title>
<g id="a_node14"><a xlink:href="log4judpappender_8h.html" target="_top" xlink:title=" ">
<polygon fill="white" stroke="black" points="354.5,-224.5 354.5,-243.5 457.5,-243.5 457.5,-224.5 354.5,-224.5"/>
<text text-anchor="middle" x="406" y="-231.5" font-family="'Souce Sans Pro', Roboto, FreeSans, sans-serif" font-size="10.00">log4judpappender.h</text>
</a>
</g>
</g>
<!-- Node6&#45;&gt;Node14 -->
<g id="edge18" class="edge">
<title>Node6&#45;&gt;Node14</title>
<path fill="none" stroke="midnightblue" d="M680.3,-281.73C622.1,-271.81 518.04,-254.09 456.18,-243.55"/>
<polygon fill="midnightblue" stroke="midnightblue" points="679.82,-285.2 690.27,-283.42 681,-278.29 679.82,-285.2"/>
</g>
<!-- Node15 -->
<g id="node15" class="node">
<title>Node15</title>
<g id="a_node15"><a xlink:href="msttsappender_8h.html" target="_top" xlink:title=" ">
<polygon fill="white" stroke="black" points="475.5,-224.5 475.5,-243.5 566.5,-243.5 566.5,-224.5 475.5,-224.5"/>
<text text-anchor="middle" x="521" y="-231.5" font-family="'Souce Sans Pro', Roboto, FreeSans, sans-serif" font-size="10.00">msttsappender.h</text>
</a>
</g>
</g>
<!-- Node6&#45;&gt;Node15 -->
<g id="edge19" class="edge">
<title>Node6&#45;&gt;Node15</title>
<path fill="none" stroke="midnightblue" d="M681.21,-277.83C643.07,-267.63 587.52,-252.78 552.86,-243.52"/>
<polygon fill="midnightblue" stroke="midnightblue" points="680.43,-281.24 690.99,-280.44 682.24,-274.48 680.43,-281.24"/>
</g>
<!-- Node16 -->
<g id="node16" class="node">
<title>Node16</title>
<g id="a_node16"><a xlink:href="nteventlogappender_8h.html" target="_top" xlink:title=" ">
<polygon fill="white" stroke="black" points="585,-224.5 585,-243.5 695,-243.5 695,-224.5 585,-224.5"/>
<text text-anchor="middle" x="640" y="-231.5" font-family="'Souce Sans Pro', Roboto, FreeSans, sans-serif" font-size="10.00">nteventlogappender.h</text>
</a>
</g>
</g>
<!-- Node6&#45;&gt;Node16 -->
<g id="edge20" class="edge">
<title>Node6&#45;&gt;Node16</title>
<path fill="none" stroke="midnightblue" d="M700.9,-274.62C685.74,-264.76 666.12,-251.99 653.3,-243.65"/>
<polygon fill="midnightblue" stroke="midnightblue" points="699.37,-277.8 709.66,-280.32 703.19,-271.94 699.37,-277.8"/>
</g>
<!-- Node17 -->
<g id="node17" class="node">
<title>Node17</title>
<g id="a_node17"><a xlink:href="nullappender_8h.html" target="_top" xlink:title=" ">
<polygon fill="white" stroke="black" points="271,-56.5 271,-75.5 351,-75.5 351,-56.5 271,-56.5"/>
<text text-anchor="middle" x="311" y="-63.5" font-family="'Souce Sans Pro', Roboto, FreeSans, sans-serif" font-size="10.00">nullappender.h</text>
</a>
</g>
</g>
<!-- Node6&#45;&gt;Node17 -->
<g id="edge21" class="edge">
<title>Node6&#45;&gt;Node17</title>
<path fill="none" stroke="midnightblue" d="M680.25,-289.2C586,-288.88 363.79,-283.81 302,-244 271.04,-224.05 261.79,-204.11 269,-168 276.21,-131.87 296.61,-92.5 306.07,-75.55"/>
<polygon fill="midnightblue" stroke="midnightblue" points="680.29,-292.7 690.3,-289.21 680.3,-285.7 680.29,-292.7"/>
</g>
<!-- Node18 -->
<g id="node18" class="node">
<title>Node18</title>
<g id="a_node18"><a xlink:href="qt4debugappender_8h.html" target="_top" xlink:title=" ">
<polygon fill="white" stroke="black" points="751.5,-224.5 751.5,-243.5 858.5,-243.5 858.5,-224.5 751.5,-224.5"/>
<text text-anchor="middle" x="805" y="-231.5" font-family="'Souce Sans Pro', Roboto, FreeSans, sans-serif" font-size="10.00">qt4debugappender.h</text>
</a>
</g>
</g>
<!-- Node6&#45;&gt;Node18 -->
<g id="edge23" class="edge">
<title>Node6&#45;&gt;Node18</title>
<path fill="none" stroke="midnightblue" d="M744.83,-274.62C759.81,-264.76 779.2,-251.99 791.86,-243.65"/>
<polygon fill="midnightblue" stroke="midnightblue" points="742.6,-271.9 736.17,-280.32 746.45,-277.75 742.6,-271.9"/>
</g>
<!-- Node19 -->
<g id="node19" class="node">
<title>Node19</title>
<g id="a_node19"><a xlink:href="qt5debugappender_8h.html" target="_top" xlink:title=" ">
<polygon fill="white" stroke="black" points="876.5,-224.5 876.5,-243.5 983.5,-243.5 983.5,-224.5 876.5,-224.5"/>
<text text-anchor="middle" x="930" y="-231.5" font-family="'Souce Sans Pro', Roboto, FreeSans, sans-serif" font-size="10.00">qt5debugappender.h</text>
</a>
</g>
</g>
<!-- Node6&#45;&gt;Node19 -->
<g id="edge24" class="edge">
<title>Node6&#45;&gt;Node19</title>
<path fill="none" stroke="midnightblue" d="M765.82,-277.83C804.91,-267.63 861.83,-252.78 897.35,-243.52"/>
<polygon fill="midnightblue" stroke="midnightblue" points="764.59,-274.53 755.8,-280.44 766.36,-281.31 764.59,-274.53"/>
</g>
<!-- Node20 -->
<g id="node20" class="node">
<title>Node20</title>
<g id="a_node20"><a xlink:href="socketappender_8h.html" target="_top" xlink:title=" ">
<polygon fill="white" stroke="black" points="278.5,-168.5 278.5,-187.5 373.5,-187.5 373.5,-168.5 278.5,-168.5"/>
<text text-anchor="middle" x="326" y="-175.5" font-family="'Souce Sans Pro', Roboto, FreeSans, sans-serif" font-size="10.00">socketappender.h</text>
</a>
</g>
</g>
<!-- Node6&#45;&gt;Node20 -->
<g id="edge25" class="edge">
<title>Node6&#45;&gt;Node20</title>
<path fill="none" stroke="midnightblue" d="M680.31,-287.49C580.08,-283.51 336.3,-271.1 312,-244 297.82,-228.18 311.26,-201.52 319.94,-187.78"/>
<polygon fill="midnightblue" stroke="midnightblue" points="680.27,-290.99 690.39,-287.88 680.54,-284 680.27,-290.99"/>
</g>
<!-- Node21 -->
<g id="node21" class="node">
<title>Node21</title>
<g id="a_node21"><a xlink:href="appenderattachable_8h.html" target="_top" xlink:title=" ">
<polygon fill="white" stroke="black" points="1002,-224.5 1002,-243.5 1112,-243.5 1112,-224.5 1002,-224.5"/>
<text text-anchor="middle" x="1057" y="-231.5" font-family="'Souce Sans Pro', Roboto, FreeSans, sans-serif" font-size="10.00">appenderattachable.h</text>
</a>
</g>
</g>
<!-- Node6&#45;&gt;Node21 -->
<g id="edge27" class="edge">
<title>Node6&#45;&gt;Node21</title>
<path fill="none" stroke="midnightblue" d="M765.67,-282.1C826.58,-272.25 938.35,-254.18 1004.33,-243.52"/>
<polygon fill="midnightblue" stroke="midnightblue" points="764.95,-278.67 755.63,-283.72 766.06,-285.58 764.95,-278.67"/>
</g>
<!-- Node6&#45;&gt;Node29 -->
<g id="edge43" class="edge">
<title>Node6&#45;&gt;Node29</title>
<path fill="none" stroke="midnightblue" d="M680.13,-287.97C578.54,-285.08 315.4,-274.97 98,-244 93.57,-243.37 88.91,-242.54 84.37,-241.64"/>
<polygon fill="midnightblue" stroke="midnightblue" points="680.2,-291.47 690.3,-288.25 680.4,-284.47 680.2,-291.47"/>
</g>
<!-- Node30 -->
<g id="node30" class="node">
<title>Node30</title>
<g id="a_node30"><a xlink:href="syslogappender_8h.html" target="_top" xlink:title=" ">
<polygon fill="white" stroke="black" points="963,-56.5 963,-75.5 1057,-75.5 1057,-56.5 963,-56.5"/>
<text text-anchor="middle" x="1010" y="-63.5" font-family="'Souce Sans Pro', Roboto, FreeSans, sans-serif" font-size="10.00">syslogappender.h</text>
</a>
</g>
</g>
<!-- Node6&#45;&gt;Node30 -->
<g id="edge45" class="edge">
<title>Node6&#45;&gt;Node30</title>
<path fill="none" stroke="midnightblue" d="M765.69,-287.33C863.57,-283.05 1097.62,-270.18 1121,-244 1126.92,-237.37 1126.01,-231.34 1121,-224 1096.25,-187.73 1056.5,-222.23 1029,-188 1001.83,-154.18 1005.9,-97.43 1008.67,-75.76"/>
<polygon fill="midnightblue" stroke="midnightblue" points="765.39,-283.84 755.55,-287.76 765.69,-290.83 765.39,-283.84"/>
</g>
<!-- Node31 -->
<g id="node31" class="node">
<title>Node31</title>
<g id="a_node31"><a xlink:href="win32consoleappender_8h.html" target="_top" xlink:title=" ">
<polygon fill="white" stroke="black" points="1206,-224.5 1206,-243.5 1332,-243.5 1332,-224.5 1206,-224.5"/>
<text text-anchor="middle" x="1269" y="-231.5" font-family="'Souce Sans Pro', Roboto, FreeSans, sans-serif" font-size="10.00">win32consoleappender.h</text>
</a>
</g>
</g>
<!-- Node6&#45;&gt;Node31 -->
<g id="edge47" class="edge">
<title>Node6&#45;&gt;Node31</title>
<path fill="none" stroke="midnightblue" d="M765.71,-285.2C848.18,-277.8 1035.02,-260.7 1192,-244 1196.55,-243.52 1201.25,-243 1205.98,-242.47"/>
<polygon fill="midnightblue" stroke="midnightblue" points="765.37,-281.72 755.72,-286.1 765.99,-288.69 765.37,-281.72"/>
</g>
<!-- Node7&#45;&gt;Node3 -->
<g id="edge7" class="edge">
<title>Node7&#45;&gt;Node3</title>
<path fill="none" stroke="midnightblue" d="M1301.17,-106.39C1280.2,-90.98 1244.67,-67.39 1210,-56 1133.9,-30.99 890.67,-16.98 800.8,-12.55"/>
<polygon fill="midnightblue" stroke="midnightblue" points="1299.13,-109.23 1309.23,-112.43 1303.33,-103.63 1299.13,-109.23"/>
</g>
<!-- Node11&#45;&gt;Node3 -->
<g id="edge12" class="edge">
<title>Node11&#45;&gt;Node3</title>
<path fill="none" stroke="midnightblue" d="M568.84,-107.88C615.48,-85.08 710.24,-38.75 749.43,-19.59"/>
<polygon fill="midnightblue" stroke="midnightblue" points="567.1,-104.83 559.66,-112.37 570.18,-111.12 567.1,-104.83"/>
</g>
<!-- Node12&#45;&gt;Node3 -->
<g id="edge14" class="edge">
<title>Node12&#45;&gt;Node3</title>
<path fill="none" stroke="midnightblue" d="M223.63,-59.47C236.31,-58.32 249.59,-57.12 262,-56 439.52,-40.02 652.18,-21.16 733.31,-13.98"/>
<polygon fill="midnightblue" stroke="midnightblue" points="223.26,-55.99 213.62,-60.38 223.89,-62.96 223.26,-55.99"/>
</g>
<!-- Node17&#45;&gt;Node3 -->
<g id="edge22" class="edge">
<title>Node17&#45;&gt;Node3</title>
<path fill="none" stroke="midnightblue" d="M361.1,-58.78C368.77,-57.84 376.6,-56.89 384,-56 513.12,-40.46 666.81,-22.59 733.44,-14.88"/>
<polygon fill="midnightblue" stroke="midnightblue" points="360.66,-55.31 351.16,-60.01 361.51,-62.26 360.66,-55.31"/>
</g>
<!-- Node20&#45;&gt;Node3 -->
<g id="edge26" class="edge">
<title>Node20&#45;&gt;Node3</title>
<path fill="none" stroke="midnightblue" d="M355.94,-164.45C410.34,-141.8 529.19,-93 631,-56 668.4,-42.41 712.17,-28.23 739.75,-19.5"/>
<polygon fill="midnightblue" stroke="midnightblue" points="354.43,-161.29 346.55,-168.37 357.13,-167.75 354.43,-161.29"/>
</g>
<!-- Node22 -->
<g id="node22" class="node">
<title>Node22</title>
<g id="a_node22"><a xlink:href="appenderattachableimpl_8h.html" target="_top" xlink:title=" ">
<polygon fill="white" stroke="black" points="1038.5,-168.5 1038.5,-187.5 1167.5,-187.5 1167.5,-168.5 1038.5,-168.5"/>
<text text-anchor="middle" x="1103" y="-175.5" font-family="'Souce Sans Pro', Roboto, FreeSans, sans-serif" font-size="10.00">appenderattachableimpl.h</text>
</a>
</g>
</g>
<!-- Node21&#45;&gt;Node22 -->
<g id="edge28" class="edge">
<title>Node21&#45;&gt;Node22</title>
<path fill="none" stroke="midnightblue" d="M1071.11,-216.43C1079.18,-206.97 1088.96,-195.48 1095.55,-187.75"/>
<polygon fill="midnightblue" stroke="midnightblue" points="1068.42,-214.2 1064.6,-224.08 1073.75,-218.74 1068.42,-214.2"/>
</g>
<!-- Node25 -->
<g id="node25" class="node">
<title>Node25</title>
<g id="a_node25"><a xlink:href="logger_8h.html" target="_top" xlink:title="This header defines the Logger class and the logging macros.">
<polygon fill="white" stroke="black" points="751,-168.5 751,-187.5 803,-187.5 803,-168.5 751,-168.5"/>
<text text-anchor="middle" x="777" y="-175.5" font-family="'Souce Sans Pro', Roboto, FreeSans, sans-serif" font-size="10.00">logger.h</text>
</a>
</g>
</g>
<!-- Node21&#45;&gt;Node25 -->
<g id="edge32" class="edge">
<title>Node21&#45;&gt;Node25</title>
<path fill="none" stroke="midnightblue" d="M1002.57,-222.5C942.52,-210.92 848.4,-192.77 803.09,-184.03"/>
<polygon fill="midnightblue" stroke="midnightblue" points="1002.15,-225.99 1012.63,-224.44 1003.48,-219.11 1002.15,-225.99"/>
</g>
<!-- Node22&#45;&gt;Node7 -->
<g id="edge29" class="edge">
<title>Node22&#45;&gt;Node7</title>
<path fill="none" stroke="midnightblue" d="M1147.11,-166.02C1188.1,-155.82 1248.3,-140.84 1285.78,-131.52"/>
<polygon fill="midnightblue" stroke="midnightblue" points="1146.24,-162.63 1137.38,-168.44 1147.93,-169.43 1146.24,-162.63"/>
</g>
<!-- Node23 -->
<g id="node23" class="node">
<title>Node23</title>
<g id="a_node23"><a xlink:href="loggerimpl_8h.html" target="_top" xlink:title=" ">
<polygon fill="white" stroke="black" points="1070.5,-112.5 1070.5,-131.5 1141.5,-131.5 1141.5,-112.5 1070.5,-112.5"/>
<text text-anchor="middle" x="1106" y="-119.5" font-family="'Souce Sans Pro', Roboto, FreeSans, sans-serif" font-size="10.00">loggerimpl.h</text>
</a>
</g>
</g>
<!-- Node22&#45;&gt;Node23 -->
<g id="edge30" class="edge">
<title>Node22&#45;&gt;Node23</title>
<path fill="none" stroke="midnightblue" d="M1104.07,-157.8C1104.56,-148.91 1105.12,-138.78 1105.51,-131.75"/>
<polygon fill="midnightblue" stroke="midnightblue" points="1100.56,-157.9 1103.5,-168.08 1107.54,-158.29 1100.56,-157.9"/>
</g>
<!-- Node24 -->
<g id="node24" class="node">
<title>Node24</title>
<g id="a_node24"><a xlink:href="rootlogger_8h.html" target="_top" xlink:title=" ">
<polygon fill="white" stroke="black" points="1075,-56.5 1075,-75.5 1145,-75.5 1145,-56.5 1075,-56.5"/>
<text text-anchor="middle" x="1110" y="-63.5" font-family="'Souce Sans Pro', Roboto, FreeSans, sans-serif" font-size="10.00">rootlogger.h</text>
</a>
</g>
</g>
<!-- Node23&#45;&gt;Node24 -->
<g id="edge31" class="edge">
<title>Node23&#45;&gt;Node24</title>
<path fill="none" stroke="midnightblue" d="M1107.4,-102.1C1108.06,-93.14 1108.83,-82.86 1109.35,-75.75"/>
<polygon fill="midnightblue" stroke="midnightblue" points="1103.91,-101.85 1106.66,-112.08 1110.89,-102.37 1103.91,-101.85"/>
</g>
<!-- Node25&#45;&gt;Node3 -->
<g id="edge37" class="edge">
<title>Node25&#45;&gt;Node3</title>
<path fill="none" stroke="midnightblue" d="M765.29,-160.04C752.72,-140.72 733.55,-107.69 726,-76 723.94,-67.35 722.79,-64.29 726,-56 731.88,-40.82 745.52,-27.62 755.46,-19.51"/>
<polygon fill="midnightblue" stroke="midnightblue" points="762.38,-161.99 770.85,-168.36 768.21,-158.1 762.38,-161.99"/>
</g>
<!-- Node25&#45;&gt;Node11 -->
<g id="edge33" class="edge">
<title>Node25&#45;&gt;Node11</title>
<path fill="none" stroke="midnightblue" d="M741.03,-168.74C697.27,-158.68 623.75,-141.79 579.37,-131.59"/>
<polygon fill="midnightblue" stroke="midnightblue" points="740.42,-172.19 750.95,-171.01 741.99,-165.36 740.42,-172.19"/>
</g>
<!-- Node25&#45;&gt;Node13 -->
<g id="edge36" class="edge">
<title>Node25&#45;&gt;Node13</title>
<path fill="none" stroke="midnightblue" d="M746.55,-164.64C721.59,-154.5 686.92,-140.43 664.98,-131.52"/>
<polygon fill="midnightblue" stroke="midnightblue" points="745.34,-167.92 755.93,-168.44 747.98,-161.44 745.34,-167.92"/>
</g>
<!-- Node26 -->
<g id="node26" class="node">
<title>Node26</title>
<g id="a_node26"><a xlink:href="hierarchy_8h.html" target="_top" xlink:title=" ">
<polygon fill="white" stroke="black" points="735,-56.5 735,-75.5 799,-75.5 799,-56.5 735,-56.5"/>
<text text-anchor="middle" x="767" y="-63.5" font-family="'Souce Sans Pro', Roboto, FreeSans, sans-serif" font-size="10.00">hierarchy.h</text>
</a>
</g>
</g>
<!-- Node25&#45;&gt;Node26 -->
<g id="edge34" class="edge">
<title>Node25&#45;&gt;Node26</title>
<path fill="none" stroke="midnightblue" d="M775.3,-158.35C773.11,-134.25 769.39,-93.31 767.78,-75.59"/>
<polygon fill="midnightblue" stroke="midnightblue" points="771.82,-158.73 776.22,-168.37 778.8,-158.09 771.82,-158.73"/>
</g>
<!-- Node27 -->
<g id="node27" class="node">
<title>Node27</title>
<g id="a_node27"><a xlink:href="loggingmacros_8h.html" target="_top" xlink:title="This header defines the logging macros.">
<polygon fill="white" stroke="black" points="817,-56.5 817,-75.5 907,-75.5 907,-56.5 817,-56.5"/>
<text text-anchor="middle" x="862" y="-63.5" font-family="'Souce Sans Pro', Roboto, FreeSans, sans-serif" font-size="10.00">loggingmacros.h</text>
</a>
</g>
</g>
<!-- Node25&#45;&gt;Node27 -->
<g id="edge38" class="edge">
<title>Node25&#45;&gt;Node27</title>
<path fill="none" stroke="midnightblue" d="M788.86,-159.87C798.16,-146.61 811.57,-127.89 824,-112 834.08,-99.11 846.4,-84.76 854.23,-75.8"/>
<polygon fill="midnightblue" stroke="midnightblue" points="785.73,-158.23 782.88,-168.44 791.48,-162.23 785.73,-158.23"/>
</g>
<!-- Node28 -->
<g id="node28" class="node">
<title>Node28</title>
<g id="a_node28"><a xlink:href="tracelogger_8h.html" target="_top" xlink:title=" ">
<polygon fill="white" stroke="black" points="833,-112.5 833,-131.5 907,-131.5 907,-112.5 833,-112.5"/>
<text text-anchor="middle" x="870" y="-119.5" font-family="'Souce Sans Pro', Roboto, FreeSans, sans-serif" font-size="10.00">tracelogger.h</text>
</a>
</g>
</g>
<!-- Node25&#45;&gt;Node28 -->
<g id="edge40" class="edge">
<title>Node25&#45;&gt;Node28</title>
<path fill="none" stroke="midnightblue" d="M800.81,-163.18C817.92,-153.24 840.47,-140.15 855.1,-131.65"/>
<polygon fill="midnightblue" stroke="midnightblue" points="798.83,-160.28 791.94,-168.32 802.35,-166.33 798.83,-160.28"/>
</g>
<!-- Node26&#45;&gt;Node3 -->
<g id="edge35" class="edge">
<title>Node26&#45;&gt;Node3</title>
<path fill="none" stroke="midnightblue" d="M767,-45.8C767,-36.91 767,-26.78 767,-19.75"/>
<polygon fill="midnightblue" stroke="midnightblue" points="763.5,-46.08 767,-56.08 770.5,-46.08 763.5,-46.08"/>
</g>
<!-- Node27&#45;&gt;Node3 -->
<g id="edge39" class="edge">
<title>Node27&#45;&gt;Node3</title>
<path fill="none" stroke="midnightblue" d="M837.68,-51.18C820.2,-41.24 797.17,-28.15 782.23,-19.65"/>
<polygon fill="midnightblue" stroke="midnightblue" points="836.31,-54.43 846.74,-56.32 839.77,-48.34 836.31,-54.43"/>
</g>
<!-- Node28&#45;&gt;Node3 -->
<g id="edge41" class="edge">
<title>Node28&#45;&gt;Node3</title>
<path fill="none" stroke="midnightblue" d="M891.9,-106.58C909.3,-93.32 928.75,-73.17 916,-56 889.58,-20.42 835.86,-11.96 800.66,-10.47"/>
<polygon fill="midnightblue" stroke="midnightblue" points="889.75,-103.82 883.68,-112.5 893.84,-109.5 889.75,-103.82"/>
</g>
<!-- Node28&#45;&gt;Node27 -->
<g id="edge42" class="edge">
<title>Node28&#45;&gt;Node27</title>
<path fill="none" stroke="midnightblue" d="M867.2,-102.1C865.87,-93.14 864.35,-82.86 863.3,-75.75"/>
<polygon fill="midnightblue" stroke="midnightblue" points="863.75,-102.7 868.68,-112.08 870.68,-101.68 863.75,-102.7"/>
</g>
<!-- Node29&#45;&gt;Node3 -->
<g id="edge44" class="edge">
<title>Node29&#45;&gt;Node3</title>
<path fill="none" stroke="midnightblue" d="M54.56,-213.79C52.96,-176.66 55.41,-95.24 103,-56 151.92,-15.67 605.1,-11.42 733.34,-11.02"/>
<polygon fill="midnightblue" stroke="midnightblue" points="51.09,-214.4 55.17,-224.18 58.08,-213.99 51.09,-214.4"/>
</g>
<!-- Node30&#45;&gt;Node3 -->
<g id="edge46" class="edge">
<title>Node30&#45;&gt;Node3</title>
<path fill="none" stroke="midnightblue" d="M961.71,-54.27C914.05,-43.68 842.42,-27.76 800.63,-18.47"/>
<polygon fill="midnightblue" stroke="midnightblue" points="960.97,-57.69 971.5,-56.44 962.49,-50.86 960.97,-57.69"/>
</g>
<!-- Node32&#45;&gt;Node3 -->
<g id="edge55" class="edge">
<title>Node32&#45;&gt;Node3</title>
<path fill="none" stroke="midnightblue" d="M1645.47,-219.67C1581.66,-185.69 1404.34,-95.71 1245,-56 1082.03,-15.38 879.47,-10.83 800.61,-10.73"/>
<polygon fill="midnightblue" stroke="midnightblue" points="1643.92,-222.81 1654.38,-224.44 1647.22,-216.64 1643.92,-222.81"/>
</g>
<!-- Node33 -->
<g id="node33" class="node">
<title>Node33</title>
<g id="a_node33"><a xlink:href="queue_8h.html" target="_top" xlink:title=" ">
<polygon fill="white" stroke="black" points="1416,-168.5 1416,-187.5 1468,-187.5 1468,-168.5 1416,-168.5"/>
<text text-anchor="middle" x="1442" y="-175.5" font-family="'Souce Sans Pro', Roboto, FreeSans, sans-serif" font-size="10.00">queue.h</text>
</a>
</g>
</g>
<!-- Node32&#45;&gt;Node33 -->
<g id="edge51" class="edge">
<title>Node32&#45;&gt;Node33</title>
<path fill="none" stroke="midnightblue" d="M1623.96,-222.1C1577.05,-210.99 1505.97,-194.15 1468.03,-185.16"/>
<polygon fill="midnightblue" stroke="midnightblue" points="1623.34,-225.54 1633.87,-224.44 1624.95,-218.73 1623.34,-225.54"/>
</g>
<!-- Node34 -->
<g id="node34" class="node">
<title>Node34</title>
<g id="a_node34"><a xlink:href="internal_8h.html" target="_top" xlink:title="This header contains declaration internal to log4cplus.">
<polygon fill="white" stroke="black" points="1641.5,-168.5 1641.5,-187.5 1698.5,-187.5 1698.5,-168.5 1641.5,-168.5"/>
<text text-anchor="middle" x="1670" y="-175.5" font-family="'Souce Sans Pro', Roboto, FreeSans, sans-serif" font-size="10.00">internal.h</text>
</a>
</g>
</g>
<!-- Node32&#45;&gt;Node34 -->
<g id="edge53" class="edge">
<title>Node32&#45;&gt;Node34</title>
<path fill="none" stroke="midnightblue" d="M1670,-213.8C1670,-204.91 1670,-194.78 1670,-187.75"/>
<polygon fill="midnightblue" stroke="midnightblue" points="1666.5,-214.08 1670,-224.08 1673.5,-214.08 1666.5,-214.08"/>
</g>
<!-- Node33&#45;&gt;Node7 -->
<g id="edge52" class="edge">
<title>Node33&#45;&gt;Node7</title>
<path fill="none" stroke="midnightblue" d="M1413.46,-164.37C1390.61,-154.26 1359.19,-140.35 1339.24,-131.52"/>
<polygon fill="midnightblue" stroke="midnightblue" points="1412.11,-167.6 1422.67,-168.44 1414.94,-161.2 1412.11,-167.6"/>
</g>
<!-- Node35 -->
<g id="node35" class="node">
<title>Node35</title>
<g id="a_node35"><a xlink:href="customloglevelmanager_8h.html" target="_top" xlink:title="This header contains declaration internal to log4cplus.">
<polygon fill="white" stroke="black" points="1605,-112.5 1605,-131.5 1735,-131.5 1735,-112.5 1605,-112.5"/>
<text text-anchor="middle" x="1670" y="-119.5" font-family="'Souce Sans Pro', Roboto, FreeSans, sans-serif" font-size="10.00">customloglevelmanager.h</text>
</a>
</g>
</g>
<!-- Node34&#45;&gt;Node35 -->
<g id="edge54" class="edge">
<title>Node34&#45;&gt;Node35</title>
<path fill="none" stroke="midnightblue" d="M1670,-157.8C1670,-148.91 1670,-138.78 1670,-131.75"/>
<polygon fill="midnightblue" stroke="midnightblue" points="1666.5,-158.08 1670,-168.08 1673.5,-158.08 1666.5,-158.08"/>
</g>
</g>
</svg>
