<?xml version="1.0" encoding="UTF-8" standalone="no"?>
<!DOCTYPE svg PUBLIC "-//W3C//DTD SVG 1.1//EN"
 "http://www.w3.org/Graphics/SVG/1.1/DTD/svg11.dtd">
<!-- Generated by graphviz version 2.43.0 (0)
 -->
<!-- Title: tracelogger.h Pages: 1 -->
<svg width="127pt" height="140pt"
 viewBox="0.00 0.00 127.00 140.00" xmlns="http://www.w3.org/2000/svg" xmlns:xlink="http://www.w3.org/1999/xlink">
<g id="graph0" class="graph" transform="scale(1 1) rotate(0) translate(4 136)">
<title>tracelogger.h</title>
<polygon fill="white" stroke="transparent" points="-4,4 -4,-136 123,-136 123,4 -4,4"/>
<!-- Node1 -->
<g id="node1" class="node">
<title>Node1</title>
<g id="a_node1"><a xlink:title=" ">
<polygon fill="#bfbfbf" stroke="black" points="0,-112.5 0,-131.5 74,-131.5 74,-112.5 0,-112.5"/>
<text text-anchor="middle" x="37" y="-119.5" font-family="'Souce Sans Pro', Roboto, FreeSans, sans-serif" font-size="10.00">tracelogger.h</text>
</a>
</g>
</g>
<!-- Node2 -->
<g id="node2" class="node">
<title>Node2</title>
<g id="a_node2"><a xlink:href="log4cplus_8h.html" target="_top" xlink:title=" ">
<polygon fill="white" stroke="black" points="3.5,-0.5 3.5,-19.5 70.5,-19.5 70.5,-0.5 3.5,-0.5"/>
<text text-anchor="middle" x="37" y="-7.5" font-family="'Souce Sans Pro', Roboto, FreeSans, sans-serif" font-size="10.00">log4cplus.h</text>
</a>
</g>
</g>
<!-- Node1&#45;&gt;Node2 -->
<g id="edge1" class="edge">
<title>Node1&#45;&gt;Node2</title>
<path fill="none" stroke="midnightblue" d="M27.94,-103.08C22.46,-90.11 17.06,-72.12 20,-56 22.4,-42.86 28.44,-28.56 32.63,-19.69"/>
<polygon fill="midnightblue" stroke="midnightblue" points="24.81,-104.66 32.19,-112.26 31.17,-101.72 24.81,-104.66"/>
</g>
<!-- Node3 -->
<g id="node3" class="node">
<title>Node3</title>
<g id="a_node3"><a xlink:href="loggingmacros_8h.html" target="_top" xlink:title="This header defines the logging macros.">
<polygon fill="white" stroke="black" points="29,-56.5 29,-75.5 119,-75.5 119,-56.5 29,-56.5"/>
<text text-anchor="middle" x="74" y="-63.5" font-family="'Souce Sans Pro', Roboto, FreeSans, sans-serif" font-size="10.00">loggingmacros.h</text>
</a>
</g>
</g>
<!-- Node1&#45;&gt;Node3 -->
<g id="edge2" class="edge">
<title>Node1&#45;&gt;Node3</title>
<path fill="none" stroke="midnightblue" d="M48.95,-103.57C55.31,-94.27 62.87,-83.25 68,-75.75"/>
<polygon fill="midnightblue" stroke="midnightblue" points="45.87,-101.86 43.11,-112.08 51.65,-105.81 45.87,-101.86"/>
</g>
<!-- Node3&#45;&gt;Node2 -->
<g id="edge3" class="edge">
<title>Node3&#45;&gt;Node2</title>
<path fill="none" stroke="midnightblue" d="M62.05,-47.57C55.69,-38.27 48.13,-27.25 43,-19.75"/>
<polygon fill="midnightblue" stroke="midnightblue" points="59.35,-49.81 67.89,-56.08 65.13,-45.86 59.35,-49.81"/>
</g>
</g>
</svg>
